<?xml version="1.0" encoding="utf-8"?>
<!-- Generator: Adobe Illustrator 19.1.0, SVG Export Plug-In . SVG Version: 6.00 Build 0)  -->
<svg version="1.1" id="Livello_1" xmlns="http://www.w3.org/2000/svg" xmlns:xlink="http://www.w3.org/1999/xlink" x="0px" y="0px"
	 viewBox="0 0 725.1 597.1" enable-background="new 0 0 725.1 597.1" xml:space="preserve">
<g>
	<g>
		<path fill="#4D4D4D" d="M325.6,0.9h0.9c1.8,0.3,2.8,1,2.8,2.1c0,0.3-0.3,0.7-1,1.1h-1.1c-0.5-0.6-0.9-0.9-1.1-0.9
			c-1.6,0.5-2.3,1-2.3,1.4c-1.6,3-2.3,7-2.3,12.1v2c0,3.5,0.5,7.6,1.4,12.5c0.5,3.5,1.3,5.8,2.2,7c1,0.9,1.9,1.4,2.6,1.4
			c0.9,0,2-0.9,3.3-2.6h0.8c0.4,0,0.8,0.3,1.1,0.8v0.4c0,0.9-1,2-2.9,3.2c-0.9,0.4-1.7,0.6-2.4,0.6h-0.2c-1.3-0.2-2.7-0.8-4.1-2.1
			c-1.5-1.2-2.8-5.8-3.8-13.7c-0.4-1.7-0.6-4.5-0.6-8.4V17c0.1-8.1,1.5-13.1,4.2-15.1C324.3,1.3,325.1,0.9,325.6,0.9z"/>
		<path fill="#4D4D4D" d="M343.3,0.5c2.7,0,4.7,5.4,6,16.3c0.1,1,0.1,2.3,0.1,3.9v0.5c0,0.3,0,0.6-0.1,0.9c0.1,0.1,0.1,0.4,0.1,0.9
			v0.1c0,0.5,0,0.9-0.1,0.9c0.1,0.3,0.1,0.5,0.1,0.6c0,8.4-1.2,13.6-3.7,15.7c-1,0.4-1.7,0.6-2.1,0.6h-0.9
			c-3.2-0.8-5.1-4.6-5.9-11.5l-0.4-4.8c0-11.1,1.4-18.8,4.2-23.2C341.6,0.8,342.5,0.5,343.3,0.5z M339.1,24.4
			c0,4.4,0.6,8.2,1.7,11.4c1,1.9,1.7,2.9,2.2,2.9h0.1c1.2,0,2-0.9,2.3-2.8c0.8-2,1.3-6.3,1.3-12.9v-2.3c0-4.6-0.8-9.8-2.4-15.7
			c-0.5-1.2-0.9-1.8-1.2-2c-0.4,0.2-0.7,0.4-0.8,0.8C340.1,8.3,339.1,15.2,339.1,24.4z"/>
		<path fill="#4D4D4D" d="M356.2,0c0.9,0.3,3.6,6.6,8.1,18.8h-1c0-0.5,2-6.5,6-18.1h1.4l0.5,1l0,1.3c-0.2,7-0.3,12.9-0.3,17.7
			c0,1.9,0.4,8.7,1.1,20.4l-1.3,0.6c-1.1,0-1.8-6.6-2.3-19.7V8.4h1c-2.8,8.6-4.5,13.2-5.1,13.7c-1.2-0.1-3.7-5.2-7.3-15.4h0.9V6.4
			l1.7,34.1l-1.2,0.6c-1.1,0-1.6-0.4-1.6-1.3c-0.7-20.4-1.4-33.5-2.1-39.2L356.2,0z"/>
		<path fill="#4D4D4D" d="M382.4,0.2l0.3,0.1c-0.5,0-0.8-0.1-0.8-0.2c3.5,0.3,5.2,0.8,5.2,1.5v0.2c-0.3,0.7-0.7,1.1-1.4,1.1
			l-3.4-0.4c-0.2,0-0.7,0-1.5,0.1l0.1,0.8c0,1.3,0.2,6.3,0.6,14.9h0.1c0.6,0,1.1,0,1.5-0.1c1.8,0.2,3.3,0.2,4.3,0.2l0.7,0.9V20
			c0,0.6-0.4,0.9-1.2,0.9c-0.7,0-1.8-0.1-3.4-0.2c-1,0.1-1.7,0.1-2,0.1v-0.1c0,5.5,0.3,11.7,0.8,18.5c0.1,0,0.1,0,0.1,0.1
			c2.4-0.1,4-0.2,4.7-0.2c0.6,0.2,1,0.5,1.3,1.1v0.2c0,0.3-0.3,0.7-0.9,1.1c-3.1,0.1-5,0.2-5.6,0.2c-1.5,0-2.2-0.7-2.2-2.1
			c-0.5-7.5-0.8-13.7-0.8-18.7v-3.8c-0.4-6.9-0.6-11.5-0.6-13.9c-0.2-1.2-0.4-1.9-0.4-2.2l0.9-0.7h1.6
			C380.8,0.4,381.5,0.3,382.4,0.2z"/>
		<path fill="#4D4D4D" d="M399.6,1.1c1.8,0,3.4,0.7,4.9,2.2c1.2,1.5,1.8,2.9,1.8,4.2v0.8c0,4-1.1,7.8-3.3,11.5
			c-0.6,1.2-0.9,3.2-0.9,5.8c0.2,1.3,0.2,2.3,0.2,3.1V30c0,0.6-0.3,1.1-1,1.4h-0.5c-0.6,0-1-0.3-1.1-1c0-0.5,0-0.8,0.1-0.9
			c0,0-0.1-1.2-0.4-3.8c0-4,0.8-7.1,2.4-9.3c1.3-2.7,1.9-5.5,1.9-8.3c0-1.5-0.7-2.8-2.1-4c-1-0.5-1.8-0.7-2.3-0.7
			c-2.1,0.6-3.1,1.5-3.1,2.7V7l0.4,0.5v0.3c0,0.6-0.3,1.1-1,1.4h-0.8c-0.7-0.4-1.1-0.9-1.1-1.5V6c0-2.3,1.8-3.9,5.3-4.9H399.6z
			 M400.6,38h0.6c0.4,0,0.8,0.3,1.3,1v0.7c0,1-0.6,1.5-1.7,1.5c-1.1,0-1.7-0.6-1.8-1.8C399.1,39,399.6,38.5,400.6,38z"/>
	</g>
	<g>
		<path fill="#CCCCCC" d="M56.3,399.1c2.8-0.4,4.1-3.1,5.5-8.1l5.2-19h-2.9l0.3-0.8h10.7l0.4,19h0.1l10.7-19h10.9l-0.3,0.8h-2.6
			l-7.5,27.1h2.9l-0.3,0.8H76.2l0.3-0.8h2.2l7.8-26.3h-0.1l-15.2,27.1h-3l-0.7-26.2h-0.1l-5,18.5c-0.7,2.3-0.8,3.4-0.8,4
			c0,2.1,1.5,2.8,3.3,2.8l-0.3,0.8H56L56.3,399.1z"/>
		<path fill="#CCCCCC" d="M116.4,392.2c-1,3.5-1.2,4.6-1.2,5.1c0,0.7,0.4,1,1,1c0.9,0,2.4-2,2.8-2.9l0.7,0.4
			c-1.3,2.8-3.8,4.7-7.1,4.7c-2.7,0-4.3-1.3-4.3-3.8V396h-0.1c-1.6,2.5-4.8,4.5-8.1,4.5c-2.5,0-4.3-1.6-4.3-4.1
			c0-0.3,0.2-1.7,0.4-2.6l3.1-11.4h-2.3l0.3-0.8h2.7c1.6,0,5,0,7.4-1l-3.3,11.6c-1,3.5-1.2,4.6-1.2,5.1c0,0.7,0.4,1,1,1
			c2.1,0,4.2-3.5,4.9-6l3-10.7h7.5L116.4,392.2z"/>
		<path fill="#CCCCCC" d="M124.3,381.6h2.8l1.6-5.7c2.9-0.8,5.9-1.8,8.5-3.4l-2.6,9.1h3l-0.2,0.8h-2.9l-3.7,13
			c-0.2,0.8-0.4,1.7-0.4,1.9c0,0.4,0.3,0.7,0.7,0.7c1.3,0,2.4-1.8,3.1-2.7l0.6,0.5c-0.7,0.7-2.4,4.6-7.2,4.6c-2.2,0-4.3-1.1-4.3-3.5
			c0-1.2,0.7-3.6,1.1-5.1l2.7-9.5H124L124.3,381.6z"/>
		<path fill="#CCCCCC" d="M154.6,381.7h7.6l-4,14.2c-0.2,0.7-0.3,1-0.3,1.5c0,0.6,0.4,0.8,0.7,0.8c0.6,0,1-0.4,2.8-2.7l0.6,0.4
			c-2.1,2.8-3.5,4.5-7.2,4.5c-2.3,0-3.7-0.9-4.3-3.3h-0.1c-1.1,2-3,3.3-5.6,3.3c-4.6,0-6.7-3.6-6.7-8.1c0-5.9,4.7-11.8,10.7-11.8
			c2.3,0,4.3,1.2,4.8,3.7h0.1L154.6,381.7z M148.3,385.3c-1.5,4.5-3.2,10.5-3.2,12.2c0,1.4,0.9,1.7,1.7,1.7c1.4,0,2.8-1.3,3.3-2.7
			c1.3-3,2.9-9.2,2.9-11.1c0-2.1-0.9-3.3-2.1-3.3C149.7,382.1,149,383.2,148.3,385.3z"/>
		<path fill="#CCCCCC" d="M169.3,382.4H167l0.3-0.8h2.7c1.6,0,5,0,7.4-1l-1.6,6.5h0.1c1.6-3,4.8-6.5,8.5-6.5c2.3,0,4.5,1.3,4.5,3.9
			c0,3.3-3.6,10.9-3.6,12.8c0,0.8,0.2,1,0.7,1c1.1,0,2.6-2,3-2.9l0.7,0.4c-1.3,2.8-3.8,4.7-7.1,4.7c-2.5,0-4.3-1.3-4.3-4.2
			c0-2.1,3.6-11.2,3.6-12.3c0-0.7-0.4-1-0.9-1c-1.6,0-5.5,5.2-6.8,9.8l-1.9,7.1h-7.7L169.3,382.4z"/>
		<path fill="#CCCCCC" d="M216.7,395.8c-1.7,2.7-3.9,4.7-7.3,4.7c-1.8,0-3.7-1.2-4-3.2c-1.7,2.4-3.7,3.2-6,3.2
			c-4.6,0-6.7-3.6-6.7-8.1c0-5.9,4.7-11.8,10.7-11.8c2.5,0,4.2,0.9,5,3.6h0.1l3.3-12.1h-2.6l0.3-0.8h3.4c1.8,0,5.5-0.3,7-1.3
			l-7.3,26.6c-0.1,0.4-0.2,0.7-0.2,0.9c0,0.3,0.2,0.6,0.7,0.6c0.7,0,1.4-0.7,2.9-2.6L216.7,395.8z M205.5,382.1
			c-1.3,0-2,1.1-2.7,3.2c-1.5,4.5-3.2,11.2-3.1,12.2c0,0.8,0.6,1.5,1.6,1.5c1.4,0,2.6-1.1,3.5-2.8c1-1.9,2.9-8.7,2.9-10.7
			C207.9,383.3,206.6,382.1,205.5,382.1z"/>
		<path fill="#CCCCCC" d="M238.2,396.4c-2.4,2.4-5.8,4.1-9.2,4.1c-5,0-9.1-2.3-9.1-7.8c0-7.3,6.3-12,13.2-12c3.3,0,7.5,1.4,7.5,5.3
			c0,4.6-4.9,6.2-8.8,6.2c-1.8,0-3.2-0.1-3.9-0.2l-0.5,1.7c-0.3,1.1-0.4,2.2-0.4,3c0,2,1.4,2.9,3.1,2.9c2.5,0,5.8-1.9,7.6-3.6
			L238.2,396.4z M228.1,391.2c0.5,0.1,1.1,0.1,1.7,0.1c1.2,0,2.1-0.8,2.7-2c0.5-1,1.7-4.8,1.7-5.9c0-1.2-0.5-2-1.7-2
			c-1.2,0-2,1.1-2.3,2.5L228.1,391.2z"/>
		<path fill="#CCCCCC" d="M273.2,396.4c-2.4,2.4-5.8,4.1-9.2,4.1c-5,0-9.1-2.3-9.1-7.8c0-7.3,6.3-12,13.2-12c3.3,0,7.5,1.4,7.5,5.3
			c0,4.6-4.9,6.2-8.8,6.2c-1.8,0-3.2-0.1-3.9-0.2l-0.5,1.7c-0.3,1.1-0.4,2.2-0.4,3c0,2,1.4,2.9,3.1,2.9c2.5,0,5.8-1.9,7.6-3.6
			L273.2,396.4z M263.1,391.2c0.5,0.1,1.1,0.1,1.7,0.1c1.2,0,2.1-0.8,2.7-2c0.5-1,1.7-4.8,1.7-5.9c0-1.2-0.5-2-1.7-2
			c-1.2,0-2,1.1-2.3,2.5L263.1,391.2z"/>
		<path fill="#CCCCCC" d="M293.7,382.4h-2.3l0.3-0.8h2.7c1.6,0,5,0,7.4-1l-1.6,5.9l0.1,0c1.5-3,4.1-5.9,7.8-5.9c2.4,0,4.1,1,4.1,3.6
			c0,0.8-0.1,1.5-0.1,2.1h0.1c1.8-3.4,4.7-5.7,8.3-5.7c2.3,0,4.2,1.4,4.2,3.8c0,0.8-0.2,1.6-0.4,2.3c-0.5,1.5-3.1,9.1-3.1,10.1
			s0.3,1.2,0.9,1.2c0.9,0,2.3-2.1,2.6-2.9l0.6,0.4c-1.3,3-3.7,4.9-7,4.9c-2.4,0-4.1-1.5-4.1-4.3c0-2.9,3.5-10.4,3.5-12.2
			c0-0.6-0.2-1-0.9-1c-1.7,0-4.8,4.4-5.9,8.2l-2.5,8.7h-7.4l4-14.6c0.2-0.6,0.2-1.2,0.2-1.4c0-0.4-0.2-0.8-0.7-0.8
			c-1.4,0-4.5,4.6-5.5,8.3l-2.4,8.6h-7.7L293.7,382.4z"/>
		<path fill="#CCCCCC" d="M344.5,381.7h7.6l-4,14.2c-0.2,0.7-0.3,1-0.3,1.5c0,0.6,0.4,0.8,0.7,0.8c0.6,0,1-0.4,2.8-2.7l0.6,0.4
			c-2.1,2.8-3.5,4.5-7.2,4.5c-2.3,0-3.7-0.9-4.3-3.3h-0.1c-1.1,2-3,3.3-5.6,3.3c-4.6,0-6.7-3.6-6.7-8.1c0-5.9,4.7-11.8,10.7-11.8
			c2.3,0,4.3,1.2,4.8,3.7h0.1L344.5,381.7z M338.2,385.3c-1.5,4.5-3.2,10.5-3.2,12.2c0,1.4,0.9,1.7,1.7,1.7c1.4,0,2.8-1.3,3.3-2.7
			c1.3-3,2.9-9.2,2.9-11.1c0-2.1-0.9-3.3-2.1-3.3C339.5,382.1,338.8,383.2,338.2,385.3z"/>
		<path fill="#CCCCCC" d="M361.7,396c1.9,0,4.3-0.1,6.2-0.1c2.9,0,6.9,0.1,6.9,4.3c0,4.1-4.6,9.8-13.2,9.8c-3.9,0-9.3-0.7-9.3-4.3
			c0-2.3,3-3.5,4.9-3.5v-0.1c-1.5-0.6-3-1.9-3-3.9c0-3.1,2.8-5.6,6-6v-0.1c-1.5-1-2.6-2.4-2.6-4.4c0-5,5.3-7.3,9.6-7.3
			c2.3,0,4.6,0.5,6.5,1.7c0.7-1.5,2.2-2.7,3.9-2.7c1.5,0,2.7,0.9,2.7,2.6c0,1.3-1,2.1-2.1,2.1c-1.2,0-2.2-0.8-2.2-1.9
			c0-0.8,0.3-1.5,0.9-1.9l-0.1-0.1c-1.2,0.2-2.1,1.3-2.4,2.5c1,1.1,1.7,2.6,1.7,4.1c0,5.4-5.9,6.6-9.8,6.6c-1.5,0-2.5-0.2-3.3-0.3
			c-0.8-0.2-1.3-0.3-2-0.3c-2,0-2.8,0.8-2.8,1.6C358.2,395.7,359.3,396,361.7,396z M359.7,402.6c-2.8,0-4.2,0.9-4.2,2.8
			c0,2.1,2.8,3.5,6.6,3.5c4.6,0,9.3-2.5,9.3-4.8c0-1-0.7-1.5-1.8-1.5H359.7z M365.6,392.8c1,0,1.7-0.3,2.4-2.6
			c1.6-5.5,1.8-6.5,1.8-7.3c0-1-0.8-1.5-1.5-1.5c-0.9,0-1.7,0.3-2.4,2.7c-1.6,5.5-1.8,6.4-1.8,7.3
			C364.1,392.3,364.8,392.8,365.6,392.8z"/>
		<path fill="#CCCCCC" d="M385.2,371.3h3.5c1.7,0,5.4-0.3,7-1.3l-7.3,26.5c-0.1,0.3-0.2,0.7-0.2,1c0,0.5,0.2,0.8,0.6,0.8
			c0.4,0,1.5-0.8,3-2.9l0.6,0.6c-1.8,2.7-4.4,4.5-7.2,4.5c-2.4,0-4.1-1.1-4.1-3.5c0-0.8,0.2-1.9,0.7-3.9l5.8-21h-2.8L385.2,371.3z"
			/>
		<path fill="#CCCCCC" d="M398.5,381.6h2.8c1.6,0,5,0,7.4-1l-4.5,15.9c-0.1,0.3-0.2,0.7-0.2,1c0,0.5,0.2,0.8,0.6,0.8
			c0.7,0,1.7-0.9,2.8-2.7l0.7,0.4c-1.4,2.7-3.7,4.5-6.8,4.5c-2.2,0-4.4-0.9-4.4-3.8c0-0.9,0.4-2.6,1-4.9l2.6-9.4h-2.5L398.5,381.6z
			 M406.2,371.3c2,0,3.7,1.6,3.7,3.7s-1.6,3.7-3.7,3.7s-3.7-1.6-3.7-3.7S404.2,371.3,406.2,371.3z"/>
		<path fill="#CCCCCC" d="M430.3,396.4c-2.4,2.4-5.8,4.1-9.2,4.1c-5,0-9.1-2.3-9.1-7.8c0-7.3,6.3-12,13.2-12c3.3,0,7.5,1.4,7.5,5.3
			c0,4.6-4.9,6.2-8.8,6.2c-1.8,0-3.2-0.1-3.9-0.2l-0.5,1.7c-0.3,1.1-0.4,2.2-0.4,3c0,2,1.4,2.9,3.1,2.9c2.5,0,5.8-1.9,7.6-3.6
			L430.3,396.4z M420.2,391.2c0.5,0.1,1.1,0.1,1.7,0.1c1.2,0,2.1-0.8,2.7-2c0.5-1,1.7-4.8,1.7-5.9c0-1.2-0.5-2-1.7-2s-2,1.1-2.3,2.5
			L420.2,391.2z"/>
		<path fill="#CCCCCC" d="M436.2,381.6h2.8l1.6-5.7c2.9-0.8,5.9-1.8,8.5-3.4l-2.6,9.1h3l-0.2,0.8h-2.9l-3.7,13
			c-0.2,0.8-0.4,1.7-0.4,1.9c0,0.4,0.3,0.7,0.7,0.7c1.3,0,2.4-1.8,3.1-2.7l0.6,0.5c-0.7,0.7-2.4,4.6-7.2,4.6c-2.2,0-4.3-1.1-4.3-3.5
			c0-1.2,0.7-3.6,1.1-5.1l2.7-9.5H436L436.2,381.6z"/>
		<path fill="#CCCCCC" d="M452,381.6h2.8l1.6-5.7c2.9-0.8,5.9-1.8,8.5-3.4l-2.6,9.1h3l-0.2,0.8h-2.9l-3.7,13
			c-0.2,0.8-0.4,1.7-0.4,1.9c0,0.4,0.3,0.7,0.7,0.7c1.3,0,2.4-1.8,3.1-2.7l0.6,0.5c-0.7,0.7-2.4,4.6-7.2,4.6c-2.2,0-4.3-1.1-4.3-3.5
			c0-1.2,0.7-3.6,1.1-5.1l2.7-9.5h-2.8L452,381.6z"/>
		<path fill="#CCCCCC" d="M482.4,381.7h7.6l-4,14.2c-0.2,0.7-0.3,1-0.3,1.5c0,0.6,0.4,0.8,0.7,0.8c0.6,0,1-0.4,2.8-2.7l0.6,0.4
			c-2.1,2.8-3.5,4.5-7.2,4.5c-2.3,0-3.7-0.9-4.3-3.3h-0.1c-1.1,2-3,3.3-5.6,3.3c-4.6,0-6.7-3.6-6.7-8.1c0-5.9,4.7-11.8,10.7-11.8
			c2.3,0,4.3,1.2,4.8,3.7h0.1L482.4,381.7z M476.1,385.3c-1.5,4.5-3.2,10.5-3.2,12.2c0,1.4,0.9,1.7,1.7,1.7c1.4,0,2.8-1.3,3.3-2.7
			c1.3-3,2.9-9.2,2.9-11.1c0-2.1-0.9-3.3-2.1-3.3C477.4,382.1,476.7,383.2,476.1,385.3z"/>
		<path fill="#CCCCCC" d="M529.8,395.8c-1.7,2.7-3.9,4.7-7.3,4.7c-1.8,0-3.7-1.2-4-3.2c-1.7,2.4-3.7,3.2-6,3.2
			c-4.6,0-6.7-3.6-6.7-8.1c0-5.9,4.7-11.8,10.7-11.8c2.5,0,4.2,0.9,5,3.6h0.1l3.3-12.1h-2.6l0.3-0.8h3.4c1.8,0,5.5-0.3,7-1.3
			l-7.3,26.6c-0.1,0.4-0.2,0.7-0.2,0.9c0,0.3,0.2,0.6,0.7,0.6c0.7,0,1.4-0.7,2.9-2.6L529.8,395.8z M518.6,382.1
			c-1.3,0-2,1.1-2.7,3.2c-1.5,4.5-3.2,11.2-3,12.2c0,0.8,0.6,1.5,1.6,1.5c1.4,0,2.6-1.1,3.5-2.8c1-1.9,2.9-8.7,2.9-10.7
			C521,383.3,519.6,382.1,518.6,382.1z"/>
		<path fill="#CCCCCC" d="M535.2,381.6h2.8c1.6,0,5,0,7.4-1l-4.5,15.9c-0.1,0.3-0.2,0.7-0.2,1c0,0.5,0.2,0.8,0.6,0.8
			c0.7,0,1.7-0.9,2.8-2.7l0.7,0.4c-1.4,2.7-3.7,4.5-6.8,4.5c-2.2,0-4.4-0.9-4.4-3.8c0-0.9,0.4-2.6,1-4.9l2.6-9.4h-2.5L535.2,381.6z
			 M543,371.3c2,0,3.7,1.6,3.7,3.7s-1.6,3.7-3.7,3.7s-3.7-1.6-3.7-3.7S541,371.3,543,371.3z"/>
		<path fill="#CCCCCC" d="M566.1,371.3h3.5c1.7,0,5.4-0.3,7-1.3l-7.3,26.5c-0.1,0.3-0.2,0.7-0.2,1c0,0.5,0.2,0.8,0.6,0.8
			c0.4,0,1.5-0.8,3-2.9l0.6,0.6c-1.8,2.7-4.4,4.5-7.2,4.5c-2.4,0-4.1-1.1-4.1-3.5c0-0.8,0.2-1.9,0.7-3.9l5.8-21h-2.8L566.1,371.3z"
			/>
		<path fill="#CCCCCC" d="M593.1,381.7h7.6l-4,14.2c-0.2,0.7-0.3,1-0.3,1.5c0,0.6,0.4,0.8,0.7,0.8c0.6,0,1-0.4,2.8-2.7l0.6,0.4
			c-2.1,2.8-3.5,4.5-7.2,4.5c-2.3,0-3.7-0.9-4.3-3.3h-0.1c-1.1,2-3,3.3-5.6,3.3c-4.6,0-6.7-3.6-6.7-8.1c0-5.9,4.7-11.8,10.7-11.8
			c2.3,0,4.3,1.2,4.8,3.7h0.1L593.1,381.7z M586.8,385.3c-1.5,4.5-3.2,10.5-3.2,12.2c0,1.4,0.9,1.7,1.7,1.7c1.4,0,2.8-1.3,3.3-2.7
			c1.3-3,2.9-9.2,2.9-11.1c0-2.1-0.9-3.3-2.1-3.3C588.2,382.1,587.5,383.2,586.8,385.3z"/>
		<path fill="#CCCCCC" d="M607.8,382.4h-2.3l0.3-0.8h2.7c1.6,0,5,0,7.4-1l-1.6,6.5h0.1c1.6-3,4.8-6.5,8.5-6.5c2.3,0,4.5,1.3,4.5,3.9
			c0,3.3-3.6,10.9-3.6,12.8c0,0.8,0.2,1,0.7,1c1.1,0,2.6-2,3-2.9l0.7,0.4c-1.3,2.8-3.8,4.7-7.1,4.7c-2.5,0-4.3-1.3-4.3-4.2
			c0-2.1,3.6-11.2,3.6-12.3c0-0.7-0.4-1-0.9-1c-1.6,0-5.5,5.2-6.8,9.8l-1.9,7.1H603L607.8,382.4z"/>
		<path fill="#CCCCCC" d="M647.4,381.7h7.6l-4,14.2c-0.2,0.7-0.3,1-0.3,1.5c0,0.6,0.4,0.8,0.7,0.8c0.6,0,1-0.4,2.8-2.7l0.6,0.4
			c-2.1,2.8-3.5,4.5-7.2,4.5c-2.3,0-3.7-0.9-4.3-3.3h-0.1c-1.1,2-3,3.3-5.6,3.3c-4.6,0-6.7-3.6-6.7-8.1c0-5.9,4.7-11.8,10.7-11.8
			c2.3,0,4.3,1.2,4.8,3.7h0.1L647.4,381.7z M641.1,385.3c-1.5,4.5-3.2,10.5-3.2,12.2c0,1.4,0.9,1.7,1.7,1.7c1.4,0,2.8-1.3,3.3-2.7
			c1.3-3,2.9-9.2,2.9-11.1c0-2.1-0.9-3.3-2.1-3.3C642.4,382.1,641.7,383.2,641.1,385.3z"/>
		<path fill="#CCCCCC" d="M656.9,406c2.3-1.3,4.6-3.1,5.2-5.8c-0.4,0-0.7,0.1-1.1,0.1c-2.2,0-3.7-1.5-3.7-3.7c0-2,1.6-3.7,3.7-3.7
			s3.7,1.5,3.7,4c0,3.2-2.2,7-7.5,9.7L656.9,406z"/>
		<path fill="#CCCCCC" d="M195.4,431.2h-2.3l0.3-0.8h2.7c1.6,0,5,0,7.4-1l-1.6,5.9l0.1,0c1.5-3,4.1-5.9,7.8-5.9c2.4,0,4.1,1,4.1,3.6
			c0,0.8-0.1,1.5-0.1,2.1h0.1c1.8-3.4,4.7-5.7,8.3-5.7c2.3,0,4.2,1.4,4.2,3.8c0,0.8-0.2,1.6-0.4,2.3c-0.5,1.5-3.1,9.1-3.1,10.1
			s0.3,1.2,0.9,1.2c0.9,0,2.3-2.1,2.6-2.9l0.6,0.4c-1.3,3-3.7,4.9-7,4.9c-2.4,0-4.1-1.5-4.1-4.3c0-2.9,3.5-10.4,3.5-12.2
			c0-0.6-0.2-1-0.9-1c-1.7,0-4.8,4.4-5.9,8.2l-2.5,8.7h-7.4l4-14.6c0.2-0.6,0.2-1.2,0.2-1.4c0-0.4-0.2-0.8-0.7-0.8
			c-1.4,0-4.5,4.6-5.5,8.3l-2.4,8.6h-7.7L195.4,431.2z"/>
		<path fill="#CCCCCC" d="M232.4,430.4h2.8c1.6,0,5,0,7.4-1l-4.5,15.9c-0.1,0.3-0.2,0.7-0.2,1c0,0.5,0.2,0.8,0.6,0.8
			c0.7,0,1.7-0.9,2.8-2.7l0.7,0.4c-1.4,2.7-3.7,4.5-6.8,4.5c-2.2,0-4.4-0.9-4.4-3.8c0-0.9,0.4-2.6,1-4.9l2.6-9.4h-2.5L232.4,430.4z
			 M240.2,420.1c2,0,3.7,1.6,3.7,3.7s-1.6,3.7-3.7,3.7s-3.7-1.6-3.7-3.7S238.2,420.1,240.2,420.1z"/>
		<path fill="#CCCCCC" d="M262.1,431.2h-2.3l0.3-0.8h2.7c1.6,0,5,0,7.4-1l-1.1,4.1h0.1c1-1.5,3-4.1,5.4-4.1c2.2,0,3.4,1.5,3.4,3.5
			c0,2.4-1.6,3.8-3.6,3.8c-2.1,0-3.2-1.5-3.2-3.3c0-0.5,0.1-0.9,0.3-1.3l-0.1-0.1c-1.9,2.1-2.9,4.1-3.6,6.5l-2.8,10.2h-7.7
			L262.1,431.2z"/>
		<path fill="#CCCCCC" d="M294.8,430.5h7.6l-4,14.2c-0.2,0.7-0.3,1-0.3,1.5c0,0.6,0.4,0.8,0.7,0.8c0.6,0,1-0.4,2.8-2.7l0.6,0.4
			c-2.1,2.8-3.5,4.5-7.2,4.5c-2.3,0-3.7-0.9-4.3-3.3h-0.1c-1.1,2-3,3.3-5.6,3.3c-4.6,0-6.7-3.6-6.7-8.1c0-5.9,4.7-11.8,10.7-11.8
			c2.3,0,4.3,1.2,4.8,3.7h0.1L294.8,430.5z M288.5,434.1c-1.5,4.5-3.2,10.5-3.2,12.2c0,1.4,0.9,1.7,1.7,1.7c1.4,0,2.8-1.3,3.3-2.7
			c1.3-3,2.9-9.2,2.9-11.1c0-2.1-0.9-3.3-2.1-3.3C289.9,430.9,289.2,432,288.5,434.1z"/>
		<path fill="#CCCCCC" d="M324.5,444.4c-1.9,3.1-5.1,4.9-8.9,4.9c-5.7,0-9.7-3-9.7-8.8c0-4,2.8-11.1,12.4-11.1c4.4,0,7.5,2,7.5,4.8
			c0,1.6-1.4,3.2-3.4,3.2c-1.9,0-3.4-1.3-3.4-3.3c0-1.7,1.3-3.1,3-3.3v-0.1c-0.5-0.2-1.3-0.3-2.1-0.3c-2.8,0-3.9,2.2-4.8,5.5
			c-2.2,7.9-2.4,8.3-2.4,9.6c0,1.6,1.2,2.8,3.9,2.8c3.1,0,5.6-2,7.3-4.3L324.5,444.4z"/>
		<path fill="#CCCCCC" d="M347.1,444.4c-1.9,3.1-5.1,4.9-8.9,4.9c-5.7,0-9.7-3-9.7-8.8c0-4,2.8-11.1,12.4-11.1c4.4,0,7.5,2,7.5,4.8
			c0,1.6-1.4,3.2-3.4,3.2c-1.9,0-3.4-1.3-3.4-3.3c0-1.7,1.3-3.1,3-3.3v-0.1c-0.5-0.2-1.3-0.3-2.1-0.3c-2.8,0-3.9,2.2-4.8,5.5
			c-2.2,7.9-2.4,8.3-2.4,9.6c0,1.6,1.2,2.8,3.9,2.8c3.1,0,5.6-2,7.3-4.3L347.1,444.4z"/>
		<path fill="#CCCCCC" d="M360.4,449.3c-5.4,0-9.4-3-9.4-8.8c0-4.5,3.3-11.1,12.3-11.1c5.6,0,9.6,3,9.6,8.8
			C372.9,442.2,370.1,449.3,360.4,449.3z M363.2,444.4l1.4-4.8c1.6-5.3,1.7-6.5,1.7-7.3c0-1.1-0.4-2.2-2.3-2.2
			c-2.1,0-3.2,2.6-4.6,8.1c-1.5,5.8-1.8,6.8-1.8,8c0,1.2,0.3,2.4,2.1,2.4C361.2,448.5,362.2,447.5,363.2,444.4z"/>
		<path fill="#CCCCCC" d="M379.6,431.2h-2.3l0.3-0.8h2.7c1.6,0,5,0,7.4-1l-1.6,5.9l0.1,0c1.5-3,4.1-5.9,7.8-5.9c2.4,0,4.1,1,4.1,3.6
			c0,0.8-0.1,1.5-0.1,2.1h0.1c1.8-3.4,4.7-5.7,8.3-5.7c2.3,0,4.2,1.4,4.2,3.8c0,0.8-0.2,1.6-0.4,2.3c-0.5,1.5-3.1,9.1-3.1,10.1
			s0.3,1.2,0.9,1.2c0.9,0,2.3-2.1,2.6-2.9l0.6,0.4c-1.3,3-3.7,4.9-7,4.9c-2.4,0-4.1-1.5-4.1-4.3c0-2.9,3.5-10.4,3.5-12.2
			c0-0.6-0.2-1-0.9-1c-1.7,0-4.8,4.4-5.9,8.2l-2.5,8.7h-7.4l4-14.6c0.2-0.6,0.2-1.2,0.2-1.4c0-0.4-0.2-0.8-0.7-0.8
			c-1.4,0-4.5,4.6-5.5,8.3l-2.4,8.6h-7.7L379.6,431.2z"/>
		<path fill="#CCCCCC" d="M430.4,430.5h7.6l-4,14.2c-0.2,0.7-0.3,1-0.3,1.5c0,0.6,0.4,0.8,0.7,0.8c0.6,0,1-0.4,2.8-2.7l0.6,0.4
			c-2.1,2.8-3.5,4.5-7.2,4.5c-2.3,0-3.7-0.9-4.3-3.3h-0.1c-1.1,2-3,3.3-5.6,3.3c-4.6,0-6.7-3.6-6.7-8.1c0-5.9,4.7-11.8,10.7-11.8
			c2.3,0,4.3,1.2,4.8,3.7h0.1L430.4,430.5z M424.1,434.1c-1.5,4.5-3.2,10.5-3.2,12.2c0,1.4,0.9,1.7,1.7,1.7c1.4,0,2.8-1.3,3.3-2.7
			c1.3-3,2.9-9.2,2.9-11.1c0-2.1-0.9-3.3-2.1-3.3C425.4,430.9,424.7,432,424.1,434.1z"/>
		<path fill="#CCCCCC" d="M445.1,431.2h-2.3l0.3-0.8h2.7c1.6,0,5,0,7.4-1l-1.6,6.5h0.1c1.6-3,4.8-6.5,8.5-6.5c2.3,0,4.5,1.3,4.5,3.9
			c0,3.3-3.6,10.9-3.6,12.8c0,0.8,0.2,1,0.7,1c1.1,0,2.6-2,3-2.9l0.7,0.4c-1.3,2.8-3.8,4.7-7.1,4.7c-2.5,0-4.3-1.3-4.3-4.2
			c0-2.1,3.6-11.2,3.6-12.3c0-0.7-0.4-1-0.9-1c-1.6,0-5.5,5.2-6.8,9.8l-1.9,7.1h-7.7L445.1,431.2z"/>
		<path fill="#CCCCCC" d="M492.5,444.6c-1.7,2.7-3.9,4.7-7.3,4.7c-1.8,0-3.7-1.2-4-3.2c-1.7,2.4-3.7,3.2-6,3.2
			c-4.6,0-6.7-3.6-6.7-8.1c0-5.9,4.7-11.8,10.7-11.8c2.5,0,4.2,0.9,5,3.6h0.1l3.3-12.1H485l0.3-0.8h3.4c1.8,0,5.5-0.3,7-1.3
			l-7.3,26.6c-0.1,0.4-0.2,0.7-0.2,0.9c0,0.3,0.2,0.6,0.7,0.6c0.7,0,1.4-0.7,2.9-2.6L492.5,444.6z M481.3,430.9
			c-1.3,0-2,1.1-2.7,3.2c-1.5,4.5-3.2,11.2-3,12.2c0,0.8,0.6,1.5,1.6,1.5c1.4,0,2.6-1.1,3.5-2.8c1-1.9,2.9-8.7,2.9-10.7
			C483.7,432.1,482.3,430.9,481.3,430.9z"/>
		<path fill="#CCCCCC" d="M505,449.3c-5.4,0-9.4-3-9.4-8.8c0-4.5,3.3-11.1,12.3-11.1c5.6,0,9.6,3,9.6,8.8
			C517.5,442.2,514.6,449.3,505,449.3z M507.7,444.4l1.4-4.8c1.6-5.3,1.7-6.5,1.7-7.3c0-1.1-0.4-2.2-2.3-2.2c-2.1,0-3.2,2.6-4.6,8.1
			c-1.5,5.8-1.8,6.8-1.8,8c0,1.2,0.3,2.4,2.1,2.4C505.8,448.5,506.8,447.5,507.7,444.4z"/>
		<path fill="#CCCCCC" d="M522.3,445.4c0-2,1.6-3.7,3.7-3.7s3.7,1.6,3.7,3.7S528,449,526,449S522.3,447.4,522.3,445.4z M527.3,439.6
			c0.7-3,1-5.5,1-8.8c0-2.1-0.3-4.1-0.6-6.2c2-1.6,3.8-3.2,5.5-5c0.9,1.9,1.7,3.7,3.2,5.2c-4.3,4.9-6.4,8.8-8.5,14.8H527.3z"/>
	</g>
	<g>
		<g>
			<polygon fill="#8BB4C8" points="656.3,296.5 676.1,284 675.7,275.6 656.8,287.4 			"/>
			<polygon fill="#C5BCA5" points="656,300.8 660.5,305.6 676.8,295.4 676.3,287 656.1,299.7 			"/>
			<polygon fill="#8BB4C8" points="666.6,312.1 677.1,300.8 676.9,298.4 662.3,307.6 			"/>
			<polygon fill="#C5BCA5" points="656.9,284.2 675.5,272.6 675,264.2 657.4,275.2 			"/>
			<path fill="#C5BCA5" d="M653.2,208.2l5.3,4.1c0-0.1,0.1-0.2,0.1-0.2c0.1-0.2,0.3-0.3,0.5-0.4l-4.1-5.3L653.2,208.2z"/>
			<polygon fill="#C5BCA5" points="664.6,223.5 659.9,231.6 659.7,235.3 671.2,228.1 668.5,223.5 			"/>
			<polygon fill="#8BB4C8" points="664.8,220.9 668.4,220.9 671.3,214.2 661.8,214.2 			"/>
			<polygon fill="#8BB4C8" points="657.6,272 674.9,261.2 674.4,252.8 658.1,263 			"/>
			<path fill="#C5BCA5" d="M673.9,211.7c0.2,0.1,0.4,0.3,0.5,0.4c0.1,0.1,0.1,0.2,0.1,0.2l5.3-4.1l-1.9-1.9L673.9,211.7z"/>
			<polygon fill="#C5BCA5" points="658.3,259.7 674.2,249.8 673.8,241.4 658.8,250.7 			"/>
			<polygon fill="#8BB4C8" points="659,247.5 673.6,238.3 673.2,231.6 672.5,230.3 659.5,238.5 			"/>
			<path fill="#3F352F" d="M678.8,203.4c-0.3-0.3-0.6-0.4-1-0.4c-0.4,0-0.7,0.2-1,0.5l-6.2,8h-8.3l-6.2-8c-0.2-0.3-0.6-0.5-1-0.5
				c-0.4,0-0.7,0.1-1,0.4l-4,4c-0.3,0.3-0.4,0.6-0.4,1c0,0.4,0.2,0.7,0.5,1l9.7,7.5l2.3,5.2l-5,8.4c-0.1,0.2-0.2,0.4-0.2,0.6
				l-3.9,70.1c0,0.4,0.1,0.7,0.3,1l11.9,12.8c0.3,0.3,0.6,0.4,1,0.4c0.3,0,0.6-0.1,0.9-0.4c0,0,11.9-12.9,11.9-12.9
				c0.2-0.3,0.4-0.6,0.3-1l-3.9-70.1c0-0.2-0.1-0.4-0.2-0.6l-5-8.4l2.3-5.2l9.7-7.5c0.3-0.2,0.5-0.6,0.5-1c0-0.4-0.1-0.7-0.4-1
				L678.8,203.4z M658.7,212.1c-0.1,0.1-0.1,0.2-0.1,0.2l-5.3-4.1l1.9-1.9l4.1,5.3C659,211.8,658.8,211.9,658.7,212.1z M677.1,300.8
				l-10.5,11.4l-4.2-4.6l14.6-9.1L677.1,300.8z M676.8,295.4l-16.3,10.2l-4.5-4.9l0.1-1.1l20.2-12.7L676.8,295.4z M676.1,284
				l-19.9,12.4l0.5-9l18.9-11.8L676.1,284z M675.5,272.6l-18.6,11.6l0.5-9l17.6-11L675.5,272.6z M674.9,261.2L657.6,272l0.5-9
				l16.3-10.2L674.9,261.2z M674.2,249.8l-15.9,10l0.5-9l15-9.4L674.2,249.8z M673.2,231.6l0.4,6.8l-14.6,9.2l0.5-9l13-8.2
				L673.2,231.6z M671.2,228.1l-11.5,7.2l0.2-3.7l4.8-8h3.8L671.2,228.1z M668.4,220.9h-3.6l-2.9-6.7h9.5L668.4,220.9z M674.5,212.4
				c0-0.1-0.1-0.2-0.1-0.2c-0.1-0.2-0.3-0.3-0.5-0.4l4.1-5.3l1.9,1.9L674.5,212.4z"/>
		</g>
		<g>
			<rect x="91.9" y="246.6" fill="#7E7081" width="20.6" height="2.8"/>
			<rect x="51.7" y="223.4" fill="#C1573F" width="20.6" height="3.4"/>
			<rect x="51.7" y="229.5" fill="#7E7081" width="20.6" height="2.8"/>
			<path fill="#C1573F" d="M67,271.6c0.6-0.4,1.3-0.8,2-1c4-1.6,6-4,6.2-7.5c0.3-3.9-2.3-9.6-2.3-9.7C70,255.6,63.6,261.7,67,271.6z
				"/>
			<path fill="#C1573F" d="M28,286.9c-1,1.6-1.6,3.1-1.6,4.9c-0.1,2.5,0.9,4.8,2.6,6.6c1.7,1.8,4,2.8,6.4,2.8c2.3,0,4.4-0.7,6.1-2.2
				C38.5,291.2,30.7,287.8,28,286.9z"/>
			<rect x="91.9" y="240.6" fill="#C1573F" width="20.6" height="3.4"/>
			<path fill="#CCCCCC" d="M64.3,272.2C64.3,272.1,64.4,272.1,64.3,272.2c-1.5-4.8-1-8.8,0.2-12c-0.1,0-0.1-0.1-0.2-0.1
				c-0.2-0.2-0.4-0.6-0.4-0.9c0-0.3,0.1-0.7,0.4-0.9c0.2-0.2,0.6-0.4,0.9-0.4c0.1,0,0.2,0,0.3,0c0.3-0.6,0.6-1.1,1-1.6
				c0.7-1.1,1.6-2,2.3-2.8c-0.1,0-0.2,0-0.2,0c-0.3,0-0.7-0.1-0.9-0.4c-0.2-0.2-0.4-0.6-0.4-0.9c0-0.3,0.1-0.7,0.4-0.9
				c0.2-0.2,0.6-0.4,0.9-0.4c0.3,0,0.7,0.1,0.9,0.4c0.2,0.2,0.4,0.6,0.4,0.9c0,0.1,0,0.2,0,0.3c0.9-0.8,1.8-1.5,2.3-1.8v-4.2
				c-0.1,0-0.2,0-0.2,0c-0.3,0-0.7-0.1-0.9-0.4c-0.2-0.2-0.4-0.6-0.4-0.9c0-0.3,0.1-0.7,0.4-0.9c0.2-0.2,0.6-0.4,0.9-0.4
				c0.1,0,0.2,0,0.2,0V235H51.7v8.9c0,0,0.1,0,0.1,0c0.3,0,0.7,0.1,0.9,0.4c0.2,0.2,0.4,0.6,0.4,0.9c0,0.3-0.1,0.7-0.4,0.9
				c-0.2,0.2-0.6,0.4-0.9,0.4c0,0-0.1,0-0.1,0c-0.3,8.7-4.4,14.3-4.8,14.7l-8,10.8c0.1,0.1,0.2,0.1,0.3,0.2c0.2,0.2,0.4,0.6,0.4,0.9
				c0,0.3-0.1,0.7-0.4,0.9c-0.2,0.2-0.6,0.4-0.9,0.4c-0.3,0-0.7-0.1-0.9-0.4l-7.8,10.6c2.7,1,7.8,3.5,11.5,8.3
				c0.2-0.1,0.4-0.2,0.6-0.2c0.3,0,0.7,0.1,0.9,0.4c0.2,0.2,0.4,0.6,0.4,0.9c0,0.3-0.1,0.7-0.4,0.9c0,0-0.1,0-0.1,0.1
				c0.3,0.6,0.7,1.2,1,1.8l7.7-8.7c-0.1-0.1-0.2-0.1-0.3-0.2c-0.2-0.2-0.4-0.6-0.4-0.9c0-0.3,0.1-0.7,0.4-0.9
				c0.2-0.2,0.6-0.4,0.9-0.4c0.3,0,0.7,0.1,0.9,0.4c0.1,0.1,0.1,0.1,0.1,0.2l9.4-10.6c0.1-0.1,0.8-0.9,1.9-1.9
				c-0.1-0.2-0.2-0.5-0.2-0.7C63.9,272.8,64.1,272.4,64.3,272.2z M67.7,237.2c0.2-0.2,0.6-0.4,0.9-0.4c0.3,0,0.7,0.1,0.9,0.4
				c0.2,0.2,0.4,0.6,0.4,0.9c0,0.3-0.1,0.7-0.4,0.9c-0.2,0.2-0.6,0.4-0.9,0.4c-0.3,0-0.7-0.1-0.9-0.4c-0.2-0.2-0.4-0.6-0.4-0.9
				C67.3,237.8,67.4,237.5,67.7,237.2z M64.3,244.2c0.2-0.2,0.6-0.4,0.9-0.4c0.3,0,0.7,0.1,0.9,0.4c0.2,0.2,0.4,0.6,0.4,0.9
				c0,0.3-0.1,0.7-0.4,0.9c-0.2,0.2-0.6,0.4-0.9,0.4c-0.3,0-0.7-0.1-0.9-0.4c-0.2-0.2-0.4-0.6-0.4-0.9
				C63.9,244.8,64.1,244.5,64.3,244.2z M35.9,281c-0.2,0.2-0.6,0.4-0.9,0.4c-0.3,0-0.7-0.1-0.9-0.4c-0.2-0.2-0.4-0.6-0.4-0.9
				c0-0.3,0.1-0.7,0.4-0.9c0.2-0.2,0.6-0.4,0.9-0.4c0.3,0,0.7,0.1,0.9,0.4c0.2,0.2,0.4,0.6,0.4,0.9C36.2,280.4,36.1,280.8,35.9,281z
				 M39.2,288c-0.2,0.2-0.6,0.4-0.9,0.4c-0.3,0-0.7-0.1-0.9-0.4c-0.2-0.2-0.4-0.6-0.4-0.9c0-0.3,0.1-0.7,0.4-0.9
				c0.2-0.2,0.6-0.4,0.9-0.4c0.3,0,0.7,0.1,0.9,0.4c0.2,0.2,0.4,0.6,0.4,0.9C39.6,287.4,39.5,287.8,39.2,288z M42.6,281
				c-0.2,0.2-0.6,0.4-0.9,0.4c-0.3,0-0.7-0.1-0.9-0.4c-0.2-0.2-0.4-0.6-0.4-0.9c0-0.3,0.1-0.7,0.4-0.9c0.2-0.2,0.6-0.4,0.9-0.4
				c0.3,0,0.7,0.1,0.9,0.4c0.2,0.2,0.4,0.6,0.4,0.9C43,280.4,42.8,280.8,42.6,281z M46,288c-0.2,0.2-0.6,0.4-0.9,0.4
				c-0.3,0-0.7-0.1-0.9-0.4c-0.2-0.2-0.4-0.6-0.4-0.9c0-0.3,0.1-0.7,0.4-0.9c0.2-0.2,0.6-0.4,0.9-0.4c0.3,0,0.7,0.1,0.9,0.4
				c0.2,0.2,0.4,0.6,0.4,0.9C46.4,287.4,46.2,287.8,46,288z M46,274c-0.2,0.2-0.6,0.4-0.9,0.4c-0.3,0-0.7-0.1-0.9-0.4
				c-0.2-0.2-0.4-0.6-0.4-0.9c0-0.3,0.1-0.7,0.4-0.9c0.2-0.2,0.6-0.4,0.9-0.4c0.3,0,0.7,0.1,0.9,0.4c0.2,0.2,0.4,0.6,0.4,0.9
				C46.4,273.5,46.2,273.8,46,274z M49.3,281c-0.2,0.2-0.6,0.4-0.9,0.4c-0.3,0-0.7-0.1-0.9-0.4c-0.2-0.2-0.4-0.6-0.4-0.9
				c0-0.3,0.1-0.7,0.4-0.9c0.2-0.2,0.6-0.4,0.9-0.4c0.3,0,0.7,0.1,0.9,0.4c0.2,0.2,0.4,0.6,0.4,0.9C49.7,280.4,49.6,280.8,49.3,281z
				 M49.3,267.1c-0.2,0.2-0.6,0.4-0.9,0.4c-0.3,0-0.7-0.1-0.9-0.4c-0.2-0.2-0.4-0.6-0.4-0.9c0-0.3,0.1-0.7,0.4-0.9
				c0.2-0.2,0.6-0.4,0.9-0.4c0.3,0,0.7,0.1,0.9,0.4c0.2,0.2,0.4,0.6,0.4,0.9C49.7,266.5,49.6,266.8,49.3,267.1z M52.7,274
				c-0.2,0.2-0.6,0.4-0.9,0.4c-0.3,0-0.7-0.1-0.9-0.4c-0.2-0.2-0.4-0.6-0.4-0.9c0-0.3,0.1-0.7,0.4-0.9c0.2-0.2,0.6-0.4,0.9-0.4
				c0.3,0,0.7,0.1,0.9,0.4c0.2,0.2,0.4,0.6,0.4,0.9C53.1,273.5,53,273.8,52.7,274z M52.7,260.1c-0.2,0.2-0.6,0.4-0.9,0.4
				c-0.3,0-0.7-0.1-0.9-0.4c-0.2-0.2-0.4-0.6-0.4-0.9c0-0.3,0.1-0.7,0.4-0.9c0.2-0.2,0.6-0.4,0.9-0.4c0.3,0,0.7,0.1,0.9,0.4
				c0.2,0.2,0.4,0.6,0.4,0.9C53.1,259.5,53,259.8,52.7,260.1z M56.1,281c-0.2,0.2-0.6,0.4-0.9,0.4c-0.3,0-0.7-0.1-0.9-0.4
				c-0.2-0.2-0.4-0.6-0.4-0.9c0-0.3,0.1-0.7,0.4-0.9c0.2-0.2,0.6-0.4,0.9-0.4c0.3,0,0.7,0.1,0.9,0.4c0.2,0.2,0.4,0.6,0.4,0.9
				C56.5,280.4,56.3,280.8,56.1,281z M56.1,267.1c-0.2,0.2-0.6,0.4-0.9,0.4c-0.3,0-0.7-0.1-0.9-0.4c-0.2-0.2-0.4-0.6-0.4-0.9
				c0-0.3,0.1-0.7,0.4-0.9c0.2-0.2,0.6-0.4,0.9-0.4c0.3,0,0.7,0.1,0.9,0.4c0.2,0.2,0.4,0.6,0.4,0.9
				C56.5,266.5,56.3,266.8,56.1,267.1z M56.1,253.1c-0.2,0.2-0.6,0.4-0.9,0.4c-0.3,0-0.7-0.1-0.9-0.4c-0.2-0.2-0.4-0.6-0.4-0.9
				c0-0.3,0.1-0.7,0.4-0.9c0.2-0.2,0.6-0.4,0.9-0.4c0.3,0,0.7,0.1,0.9,0.4c0.2,0.2,0.4,0.6,0.4,0.9
				C56.5,252.5,56.3,252.8,56.1,253.1z M56.1,239.1c-0.2,0.2-0.6,0.4-0.9,0.4c-0.3,0-0.7-0.1-0.9-0.4c-0.2-0.2-0.4-0.6-0.4-0.9
				c0-0.3,0.1-0.7,0.4-0.9c0.2-0.2,0.6-0.4,0.9-0.4c0.3,0,0.7,0.1,0.9,0.4c0.2,0.2,0.4,0.6,0.4,0.9
				C56.5,238.5,56.3,238.8,56.1,239.1z M59.4,274c-0.2,0.2-0.6,0.4-0.9,0.4c-0.3,0-0.7-0.1-0.9-0.4c-0.2-0.2-0.4-0.6-0.4-0.9
				c0-0.3,0.1-0.7,0.4-0.9c0.2-0.2,0.6-0.4,0.9-0.4c0.3,0,0.7,0.1,0.9,0.4c0.2,0.2,0.4,0.6,0.4,0.9C59.8,273.5,59.7,273.8,59.4,274z
				 M59.4,260.1c-0.2,0.2-0.6,0.4-0.9,0.4c-0.3,0-0.7-0.1-0.9-0.4c-0.2-0.2-0.4-0.6-0.4-0.9c0-0.3,0.1-0.7,0.4-0.9
				c0.2-0.2,0.6-0.4,0.9-0.4c0.3,0,0.7,0.1,0.9,0.4c0.2,0.2,0.4,0.6,0.4,0.9C59.8,259.5,59.7,259.8,59.4,260.1z M59.4,246.1
				c-0.2,0.2-0.6,0.4-0.9,0.4c-0.3,0-0.7-0.1-0.9-0.4c-0.2-0.2-0.4-0.6-0.4-0.9c0-0.3,0.1-0.7,0.4-0.9c0.2-0.2,0.6-0.4,0.9-0.4
				c0.3,0,0.7,0.1,0.9,0.4c0.2,0.2,0.4,0.6,0.4,0.9C59.8,245.5,59.7,245.8,59.4,246.1z M62.8,267.1c-0.2,0.2-0.6,0.4-0.9,0.4
				c-0.3,0-0.7-0.1-0.9-0.4c-0.2-0.2-0.4-0.6-0.4-0.9c0-0.3,0.1-0.7,0.4-0.9c0.2-0.2,0.6-0.4,0.9-0.4c0.3,0,0.7,0.1,0.9,0.4
				c0.2,0.2,0.4,0.6,0.4,0.9C63.2,266.5,63.1,266.8,62.8,267.1z M62.8,253.1c-0.2,0.2-0.6,0.4-0.9,0.4c-0.3,0-0.7-0.1-0.9-0.4
				c-0.2-0.2-0.4-0.6-0.4-0.9c0-0.3,0.1-0.7,0.4-0.9c0.2-0.2,0.6-0.4,0.9-0.4c0.3,0,0.7,0.1,0.9,0.4c0.2,0.2,0.4,0.6,0.4,0.9
				C63.2,252.5,63.1,252.8,62.8,253.1z M62.8,239.1c-0.2,0.2-0.6,0.4-0.9,0.4c-0.3,0-0.7-0.1-0.9-0.4c-0.2-0.2-0.4-0.6-0.4-0.9
				c0-0.3,0.1-0.7,0.4-0.9c0.2-0.2,0.6-0.4,0.9-0.4c0.3,0,0.7,0.1,0.9,0.4c0.2,0.2,0.4,0.6,0.4,0.9
				C63.2,238.5,63.1,238.8,62.8,239.1z"/>
			<path fill="#C1573F" d="M68.3,304c-1,1.6-1.6,3.1-1.6,4.9c-0.1,2.5,0.9,4.8,2.6,6.6c1.7,1.8,4,2.8,6.4,2.8c2.3,0,4.4-0.7,6.1-2.2
				C78.8,308.4,71,305,68.3,304z"/>
			<path fill="#CCCCCC" d="M109.2,270.6c-0.1,0-0.2,0-0.2,0c-0.3,0-0.7-0.1-0.9-0.4c-0.2-0.2-0.4-0.6-0.4-0.9c0-0.3,0.1-0.7,0.4-0.9
				c0.2-0.2,0.6-0.4,0.9-0.4c0.3,0,0.7,0.1,0.9,0.4c0.2,0.2,0.4,0.6,0.4,0.9c0,0.1,0,0.2,0,0.3c0.9-0.8,1.8-1.5,2.3-1.8v-4.2
				c-0.1,0-0.2,0-0.2,0c-0.3,0-0.7-0.1-0.9-0.4c-0.2-0.2-0.4-0.6-0.4-0.9c0-0.3,0.1-0.7,0.4-0.9c0.2-0.2,0.6-0.4,0.9-0.4
				c0.1,0,0.2,0,0.2,0v-8.9H91.9v8.9c0,0,0.1,0,0.1,0c0.3,0,0.7,0.1,0.9,0.4c0.2,0.2,0.4,0.6,0.4,0.9c0,0.3-0.1,0.7-0.4,0.9
				c-0.2,0.2-0.6,0.4-0.9,0.4c0,0-0.1,0-0.1,0c-0.3,8.7-4.4,14.3-4.8,14.7l-8,10.8c0.1,0.1,0.2,0.1,0.3,0.2c0.2,0.2,0.4,0.6,0.4,0.9
				c0,0.3-0.1,0.7-0.4,0.9c-0.2,0.2-0.6,0.4-0.9,0.4c-0.3,0-0.7-0.1-0.9-0.4l-7.8,10.6c2.7,1,7.8,3.5,11.5,8.3
				c0.2-0.1,0.4-0.2,0.6-0.2c0.3,0,0.7,0.1,0.9,0.4c0.2,0.2,0.4,0.6,0.4,0.9c0,0.3-0.1,0.7-0.4,0.9c0,0-0.1,0-0.1,0.1
				c0.3,0.6,0.7,1.2,1,1.8l7.7-8.7c-0.1-0.1-0.2-0.1-0.3-0.2c-0.2-0.2-0.4-0.6-0.4-0.9c0-0.3,0.1-0.7,0.4-0.9
				c0.2-0.2,0.6-0.4,0.9-0.4c0.3,0,0.7,0.1,0.9,0.4c0.1,0.1,0.1,0.1,0.1,0.2l9.4-10.6c0.1-0.1,0.8-0.9,1.9-1.9
				c-0.1-0.2-0.2-0.5-0.2-0.7c0-0.3,0.1-0.7,0.4-0.9c0,0,0.1,0,0.1-0.1c-1.5-4.8-1.1-8.8,0.1-11.9c-0.1,0-0.1-0.1-0.2-0.1
				c-0.2-0.2-0.4-0.6-0.4-0.9c0-0.3,0.1-0.7,0.4-0.9c0.2-0.2,0.6-0.4,0.9-0.4c0.1,0,0.2,0,0.3,0c0.3-0.6,0.6-1.1,1-1.6
				C107.6,272.3,108.4,271.4,109.2,270.6z M108,254.4c0.2-0.2,0.6-0.4,0.9-0.4c0.3,0,0.7,0.1,0.9,0.4c0.2,0.2,0.4,0.6,0.4,0.9
				c0,0.3-0.1,0.7-0.4,0.9c-0.2,0.2-0.6,0.4-0.9,0.4c-0.3,0-0.7-0.1-0.9-0.4c-0.2-0.2-0.4-0.6-0.4-0.9
				C107.6,255,107.7,254.6,108,254.4z M76.1,298.2c-0.2,0.2-0.6,0.4-0.9,0.4c-0.3,0-0.7-0.1-0.9-0.4c-0.2-0.2-0.4-0.6-0.4-0.9
				c0-0.3,0.1-0.7,0.4-0.9c0.2-0.2,0.6-0.4,0.9-0.4c0.3,0,0.7,0.1,0.9,0.4c0.2,0.2,0.4,0.6,0.4,0.9
				C76.5,297.6,76.4,297.9,76.1,298.2z M79.5,305.2c-0.2,0.2-0.6,0.4-0.9,0.4c-0.3,0-0.7-0.1-0.9-0.4c-0.2-0.2-0.4-0.6-0.4-0.9
				c0-0.3,0.1-0.7,0.4-0.9c0.2-0.2,0.6-0.4,0.9-0.4c0.3,0,0.7,0.1,0.9,0.4c0.2,0.2,0.4,0.6,0.4,0.9
				C79.9,304.6,79.8,304.9,79.5,305.2z M82.9,298.2c-0.2,0.2-0.6,0.4-0.9,0.4c-0.3,0-0.7-0.1-0.9-0.4c-0.2-0.2-0.4-0.6-0.4-0.9
				c0-0.3,0.1-0.7,0.4-0.9c0.2-0.2,0.6-0.4,0.9-0.4c0.3,0,0.7,0.1,0.9,0.4c0.2,0.2,0.4,0.6,0.4,0.9
				C83.3,297.6,83.1,297.9,82.9,298.2z M86.3,305.2c-0.2,0.2-0.6,0.4-0.9,0.4c-0.3,0-0.7-0.1-0.9-0.4c-0.2-0.2-0.4-0.6-0.4-0.9
				c0-0.3,0.1-0.7,0.4-0.9c0.2-0.2,0.6-0.4,0.9-0.4c0.3,0,0.7,0.1,0.9,0.4c0.2,0.2,0.4,0.6,0.4,0.9
				C86.6,304.6,86.5,304.9,86.3,305.2z M86.3,291.2c-0.2,0.2-0.6,0.4-0.9,0.4c-0.3,0-0.7-0.1-0.9-0.4c-0.2-0.2-0.4-0.6-0.4-0.9
				c0-0.3,0.1-0.7,0.4-0.9c0.2-0.2,0.6-0.4,0.9-0.4s0.7,0.1,0.9,0.4c0.2,0.2,0.4,0.6,0.4,0.9C86.6,290.6,86.5,290.9,86.3,291.2z
				 M89.6,298.2c-0.2,0.2-0.6,0.4-0.9,0.4c-0.3,0-0.7-0.1-0.9-0.4c-0.2-0.2-0.4-0.6-0.4-0.9c0-0.3,0.1-0.7,0.4-0.9
				c0.2-0.2,0.6-0.4,0.9-0.4c0.3,0,0.7,0.1,0.9,0.4c0.2,0.2,0.4,0.6,0.4,0.9C90,297.6,89.9,297.9,89.6,298.2z M89.6,284.2
				c-0.2,0.2-0.6,0.4-0.9,0.4c-0.3,0-0.7-0.1-0.9-0.4c-0.2-0.2-0.4-0.6-0.4-0.9c0-0.3,0.1-0.7,0.4-0.9c0.2-0.2,0.6-0.4,0.9-0.4
				c0.3,0,0.7,0.1,0.9,0.4c0.2,0.2,0.4,0.6,0.4,0.9C90,283.6,89.9,284,89.6,284.2z M93,291.2c-0.2,0.2-0.6,0.4-0.9,0.4
				s-0.7-0.1-0.9-0.4c-0.2-0.2-0.4-0.6-0.4-0.9c0-0.3,0.1-0.7,0.4-0.9c0.2-0.2,0.6-0.4,0.9-0.4s0.7,0.1,0.9,0.4
				c0.2,0.2,0.4,0.6,0.4,0.9C93.4,290.6,93.2,290.9,93,291.2z M93,277.2c-0.2,0.2-0.6,0.4-0.9,0.4c-0.3,0-0.7-0.1-0.9-0.4
				c-0.2-0.2-0.4-0.6-0.4-0.9c0-0.3,0.1-0.7,0.4-0.9c0.2-0.2,0.6-0.4,0.9-0.4c0.3,0,0.7,0.1,0.9,0.4c0.2,0.2,0.4,0.6,0.4,0.9
				C93.4,276.6,93.2,277,93,277.2z M96.4,298.2c-0.2,0.2-0.6,0.4-0.9,0.4c-0.3,0-0.7-0.1-0.9-0.4c-0.2-0.2-0.4-0.6-0.4-0.9
				c0-0.3,0.1-0.7,0.4-0.9c0.2-0.2,0.6-0.4,0.9-0.4c0.3,0,0.7,0.1,0.9,0.4c0.2,0.2,0.4,0.6,0.4,0.9
				C96.8,297.6,96.6,297.9,96.4,298.2z M96.4,284.2c-0.2,0.2-0.6,0.4-0.9,0.4c-0.3,0-0.7-0.1-0.9-0.4c-0.2-0.2-0.4-0.6-0.4-0.9
				c0-0.3,0.1-0.7,0.4-0.9c0.2-0.2,0.6-0.4,0.9-0.4c0.3,0,0.7,0.1,0.9,0.4c0.2,0.2,0.4,0.6,0.4,0.9C96.8,283.6,96.6,284,96.4,284.2z
				 M96.4,270.2c-0.2,0.2-0.6,0.4-0.9,0.4c-0.3,0-0.7-0.1-0.9-0.4c-0.2-0.2-0.4-0.6-0.4-0.9c0-0.3,0.1-0.7,0.4-0.9
				c0.2-0.2,0.6-0.4,0.9-0.4c0.3,0,0.7,0.1,0.9,0.4c0.2,0.2,0.4,0.6,0.4,0.9C96.8,269.6,96.6,270,96.4,270.2z M96.4,256.2
				c-0.2,0.2-0.6,0.4-0.9,0.4c-0.3,0-0.7-0.1-0.9-0.4c-0.2-0.2-0.4-0.6-0.4-0.9c0-0.3,0.1-0.7,0.4-0.9c0.2-0.2,0.6-0.4,0.9-0.4
				c0.3,0,0.7,0.1,0.9,0.4c0.2,0.2,0.4,0.6,0.4,0.9C96.8,255.7,96.6,256,96.4,256.2z M99.7,291.2c-0.2,0.2-0.6,0.4-0.9,0.4
				c-0.3,0-0.7-0.1-0.9-0.4c-0.2-0.2-0.4-0.6-0.4-0.9c0-0.3,0.1-0.7,0.4-0.9c0.2-0.2,0.6-0.4,0.9-0.4c0.3,0,0.7,0.1,0.9,0.4
				c0.2,0.2,0.4,0.6,0.4,0.9C100.1,290.6,100,290.9,99.7,291.2z M99.7,277.2c-0.2,0.2-0.6,0.4-0.9,0.4c-0.3,0-0.7-0.1-0.9-0.4
				c-0.2-0.2-0.4-0.6-0.4-0.9c0-0.3,0.1-0.7,0.4-0.9c0.2-0.2,0.6-0.4,0.9-0.4c0.3,0,0.7,0.1,0.9,0.4c0.2,0.2,0.4,0.6,0.4,0.9
				C100.1,276.6,100,277,99.7,277.2z M99.7,263.2c-0.2,0.2-0.6,0.4-0.9,0.4c-0.3,0-0.7-0.1-0.9-0.4c-0.2-0.2-0.4-0.6-0.4-0.9
				c0-0.3,0.1-0.7,0.4-0.9c0.2-0.2,0.6-0.4,0.9-0.4c0.3,0,0.7,0.1,0.9,0.4c0.2,0.2,0.4,0.6,0.4,0.9C100.1,262.6,100,263,99.7,263.2z
				 M103.1,284.2c-0.2,0.2-0.6,0.4-0.9,0.4c-0.3,0-0.7-0.1-0.9-0.4c-0.2-0.2-0.4-0.6-0.4-0.9c0-0.3,0.1-0.7,0.4-0.9
				c0.2-0.2,0.6-0.4,0.9-0.4c0.3,0,0.7,0.1,0.9,0.4c0.2,0.2,0.4,0.6,0.4,0.9C103.5,283.6,103.4,284,103.1,284.2z M103.1,270.2
				c-0.2,0.2-0.6,0.4-0.9,0.4c-0.3,0-0.7-0.1-0.9-0.4c-0.2-0.2-0.4-0.6-0.4-0.9c0-0.3,0.1-0.7,0.4-0.9c0.2-0.2,0.6-0.4,0.9-0.4
				c0.3,0,0.7,0.1,0.9,0.4c0.2,0.2,0.4,0.6,0.4,0.9C103.5,269.6,103.4,270,103.1,270.2z M103.1,256.2c-0.2,0.2-0.6,0.4-0.9,0.4
				c-0.3,0-0.7-0.1-0.9-0.4c-0.2-0.2-0.4-0.6-0.4-0.9c0-0.3,0.1-0.7,0.4-0.9c0.2-0.2,0.6-0.4,0.9-0.4c0.3,0,0.7,0.1,0.9,0.4
				c0.2,0.2,0.4,0.6,0.4,0.9C103.5,255.7,103.4,256,103.1,256.2z M105.5,263.6c-0.3,0-0.7-0.1-0.9-0.4c-0.2-0.2-0.4-0.6-0.4-0.9
				c0-0.3,0.1-0.7,0.4-0.9c0.2-0.2,0.6-0.4,0.9-0.4c0.3,0,0.7,0.1,0.9,0.4c0.2,0.2,0.4,0.6,0.4,0.9c0,0.3-0.1,0.7-0.4,0.9
				C106.2,263.5,105.9,263.6,105.5,263.6z"/>
			<path fill="#C1573F" d="M107.3,288.8c0.6-0.4,1.3-0.8,2-1c4-1.6,6-4,6.2-7.5c0.3-3.9-2.3-9.6-2.3-9.7
				C110.3,272.7,103.9,278.8,107.3,288.8z"/>
			<path fill="#3F352F" d="M70,273c5-2,7.7-5.3,7.9-9.9c0.2-3.7-1.3-7.5-2.4-10.5c-0.2-0.5-0.4-1.1-0.6-1.5v-29
				c0-0.7-0.6-1.3-1.3-1.3H50.3c-0.7,0-1.3,0.6-1.3,1.3v23.3c0,8.6-4.2,14.1-4.2,14.2c0,0-18.5,25-18.5,25.1c-1.3,2-2.5,4.3-2.6,7.1
				c-0.1,3.2,1.1,6.2,3.3,8.4c2.2,2.3,5.1,3.6,8.3,3.6c0.1,0,5.8,0,9.5-4.5l19.4-21.9C64.3,277.4,67.1,274.2,70,273z M75.2,263
				c-0.2,3.5-2.2,6-6.2,7.5c-0.7,0.3-1.4,0.6-2,1c-3.4-9.9,3-16.1,5.9-18.2C72.9,253.4,75.5,259.1,75.2,263z M51.7,223.4h20.6v3.4
				H51.7V223.4z M51.7,229.5h20.6v2.8H51.7V229.5z M35.4,301.2c-2.5-0.1-4.7-1.1-6.4-2.8c-1.7-1.8-2.6-4.1-2.6-6.6
				c0-1.8,0.7-3.3,1.6-4.9c2.7,1,10.5,4.3,13.5,12.1C39.8,300.4,37.7,301.2,35.4,301.2z M62.3,275.7l-9.4,10.6
				c0-0.1-0.1-0.1-0.1-0.2c-0.2-0.2-0.6-0.4-0.9-0.4c-0.3,0-0.7,0.1-0.9,0.4c-0.2,0.2-0.4,0.6-0.4,0.9c0,0.3,0.1,0.7,0.4,0.9
				c0.1,0.1,0.2,0.2,0.3,0.2l-7.7,8.7c-0.3-0.6-0.6-1.2-1-1.8c0,0,0.1,0,0.1-0.1c0.2-0.2,0.4-0.6,0.4-0.9c0-0.3-0.1-0.7-0.4-0.9
				c-0.2-0.2-0.6-0.4-0.9-0.4c-0.2,0-0.4,0.1-0.6,0.2c-3.7-4.8-8.8-7.2-11.5-8.3l7.8-10.6c0.2,0.2,0.6,0.4,0.9,0.4
				c0.3,0,0.7-0.1,0.9-0.4c0.2-0.2,0.4-0.6,0.4-0.9c0-0.3-0.1-0.7-0.4-0.9c-0.1-0.1-0.2-0.2-0.3-0.2l8-10.8
				c0.3-0.4,4.4-5.9,4.8-14.7c0,0,0.1,0,0.1,0c0.3,0,0.7-0.1,0.9-0.4c0.2-0.2,0.4-0.6,0.4-0.9c0-0.3-0.1-0.7-0.4-0.9
				c-0.2-0.2-0.6-0.4-0.9-0.4c0,0-0.1,0-0.1,0V235h20.6v8.9c-0.1,0-0.2,0-0.2,0c-0.3,0-0.7,0.1-0.9,0.4c-0.2,0.2-0.4,0.6-0.4,0.9
				c0,0.3,0.1,0.7,0.4,0.9c0.2,0.2,0.6,0.4,0.9,0.4c0.1,0,0.2,0,0.2,0v4.2c-0.5,0.4-1.4,1-2.3,1.8c0-0.1,0-0.2,0-0.3
				c0-0.3-0.1-0.7-0.4-0.9c-0.2-0.2-0.6-0.4-0.9-0.4c-0.3,0-0.7,0.1-0.9,0.4c-0.2,0.2-0.4,0.6-0.4,0.9c0,0.3,0.1,0.7,0.4,0.9
				c0.2,0.2,0.6,0.4,0.9,0.4c0.1,0,0.2,0,0.2,0c-0.8,0.8-1.6,1.7-2.3,2.8c-0.3,0.5-0.7,1-1,1.6c-0.1,0-0.2,0-0.3,0
				c-0.3,0-0.7,0.1-0.9,0.4c-0.2,0.2-0.4,0.6-0.4,0.9c0,0.3,0.1,0.7,0.4,0.9c0.1,0,0.1,0.1,0.2,0.1c-1.2,3.1-1.6,7.1-0.1,11.9
				c0,0-0.1,0-0.1,0.1c-0.2,0.2-0.4,0.6-0.4,0.9c0,0.2,0.1,0.5,0.2,0.7C63,274.8,62.3,275.6,62.3,275.7z"/>
			<path fill="#3F352F" d="M55.1,236.8c-0.3,0-0.7,0.1-0.9,0.4c-0.2,0.2-0.4,0.6-0.4,0.9c0,0.3,0.1,0.7,0.4,0.9
				c0.2,0.2,0.6,0.4,0.9,0.4c0.3,0,0.7-0.1,0.9-0.4c0.2-0.2,0.4-0.6,0.4-0.9c0-0.3-0.1-0.7-0.4-0.9C55.8,237,55.5,236.8,55.1,236.8z
				"/>
			<path fill="#3F352F" d="M61.9,236.8c-0.3,0-0.7,0.1-0.9,0.4c-0.2,0.2-0.4,0.6-0.4,0.9c0,0.3,0.1,0.7,0.4,0.9
				c0.2,0.2,0.6,0.4,0.9,0.4c0.3,0,0.7-0.1,0.9-0.4c0.2-0.2,0.4-0.6,0.4-0.9c0-0.3-0.1-0.7-0.4-0.9C62.6,237,62.2,236.8,61.9,236.8z
				"/>
			<path fill="#3F352F" d="M68.6,239.5c0.3,0,0.7-0.1,0.9-0.4c0.2-0.2,0.4-0.6,0.4-0.9c0-0.3-0.1-0.7-0.4-0.9
				c-0.2-0.2-0.6-0.4-0.9-0.4c-0.3,0-0.7,0.1-0.9,0.4c-0.2,0.2-0.4,0.6-0.4,0.9c0,0.3,0.1,0.7,0.4,0.9
				C67.9,239.3,68.3,239.5,68.6,239.5z"/>
			<path fill="#3F352F" d="M58.5,243.8c-0.3,0-0.7,0.1-0.9,0.4c-0.2,0.2-0.4,0.6-0.4,0.9c0,0.3,0.1,0.7,0.4,0.9
				c0.2,0.2,0.6,0.4,0.9,0.4c0.3,0,0.7-0.1,0.9-0.4c0.2-0.2,0.4-0.6,0.4-0.9c0-0.3-0.1-0.7-0.4-0.9C59.2,244,58.9,243.8,58.5,243.8z
				"/>
			<path fill="#3F352F" d="M65.3,246.5c0.3,0,0.7-0.1,0.9-0.4c0.2-0.2,0.4-0.6,0.4-0.9c0-0.3-0.1-0.7-0.4-0.9
				c-0.2-0.2-0.6-0.4-0.9-0.4c-0.3,0-0.7,0.1-0.9,0.4c-0.2,0.2-0.4,0.6-0.4,0.9c0,0.3,0.1,0.7,0.4,0.9
				C64.6,246.3,64.9,246.5,65.3,246.5z"/>
			<path fill="#3F352F" d="M55.1,250.8c-0.3,0-0.7,0.1-0.9,0.4c-0.2,0.2-0.4,0.6-0.4,0.9c0,0.3,0.1,0.7,0.4,0.9
				c0.2,0.2,0.6,0.4,0.9,0.4c0.3,0,0.7-0.1,0.9-0.4c0.2-0.2,0.4-0.6,0.4-0.9c0-0.3-0.1-0.7-0.4-0.9C55.8,251,55.5,250.8,55.1,250.8z
				"/>
			<path fill="#3F352F" d="M61.9,250.8c-0.3,0-0.7,0.1-0.9,0.4c-0.2,0.2-0.4,0.6-0.4,0.9c0,0.3,0.1,0.7,0.4,0.9
				c0.2,0.2,0.6,0.4,0.9,0.4c0.3,0,0.7-0.1,0.9-0.4c0.2-0.2,0.4-0.6,0.4-0.9c0-0.3-0.1-0.7-0.4-0.9C62.6,251,62.2,250.8,61.9,250.8z
				"/>
			<path fill="#3F352F" d="M51.8,257.8c-0.3,0-0.7,0.1-0.9,0.4c-0.2,0.2-0.4,0.6-0.4,0.9c0,0.3,0.1,0.7,0.4,0.9
				c0.2,0.2,0.6,0.4,0.9,0.4c0.3,0,0.7-0.1,0.9-0.4c0.2-0.2,0.4-0.6,0.4-0.9c0-0.3-0.1-0.7-0.4-0.9
				C52.5,257.9,52.1,257.8,51.8,257.8z"/>
			<path fill="#3F352F" d="M58.5,257.8c-0.3,0-0.7,0.1-0.9,0.4c-0.2,0.2-0.4,0.6-0.4,0.9c0,0.3,0.1,0.7,0.4,0.9
				c0.2,0.2,0.6,0.4,0.9,0.4c0.3,0,0.7-0.1,0.9-0.4c0.2-0.2,0.4-0.6,0.4-0.9c0-0.3-0.1-0.7-0.4-0.9
				C59.2,257.9,58.9,257.8,58.5,257.8z"/>
			<path fill="#3F352F" d="M48.4,264.8c-0.3,0-0.7,0.1-0.9,0.4c-0.2,0.2-0.4,0.6-0.4,0.9c0,0.3,0.1,0.7,0.4,0.9
				c0.2,0.2,0.6,0.4,0.9,0.4c0.3,0,0.7-0.1,0.9-0.4c0.2-0.2,0.4-0.6,0.4-0.9c0-0.3-0.1-0.7-0.4-0.9
				C49.1,264.9,48.7,264.8,48.4,264.8z"/>
			<path fill="#3F352F" d="M55.1,264.8c-0.3,0-0.7,0.1-0.9,0.4c-0.2,0.2-0.4,0.6-0.4,0.9c0,0.3,0.1,0.7,0.4,0.9
				c0.2,0.2,0.6,0.4,0.9,0.4c0.3,0,0.7-0.1,0.9-0.4c0.2-0.2,0.4-0.6,0.4-0.9c0-0.3-0.1-0.7-0.4-0.9
				C55.8,264.9,55.5,264.8,55.1,264.8z"/>
			<path fill="#3F352F" d="M61.9,264.8c-0.3,0-0.7,0.1-0.9,0.4c-0.2,0.2-0.4,0.6-0.4,0.9c0,0.3,0.1,0.7,0.4,0.9
				c0.2,0.2,0.6,0.4,0.9,0.4c0.3,0,0.7-0.1,0.9-0.4c0.2-0.2,0.4-0.6,0.4-0.9c0-0.3-0.1-0.7-0.4-0.9
				C62.6,264.9,62.2,264.8,61.9,264.8z"/>
			<path fill="#3F352F" d="M45,271.8c-0.3,0-0.7,0.1-0.9,0.4c-0.2,0.2-0.4,0.6-0.4,0.9c0,0.3,0.1,0.7,0.4,0.9
				c0.2,0.2,0.6,0.4,0.9,0.4c0.3,0,0.7-0.1,0.9-0.4c0.2-0.2,0.4-0.6,0.4-0.9c0-0.3-0.1-0.7-0.4-0.9C45.7,271.9,45.4,271.8,45,271.8z
				"/>
			<path fill="#3F352F" d="M51.8,271.8c-0.3,0-0.7,0.1-0.9,0.4c-0.2,0.2-0.4,0.6-0.4,0.9c0,0.3,0.1,0.7,0.4,0.9
				c0.2,0.2,0.6,0.4,0.9,0.4c0.3,0,0.7-0.1,0.9-0.4c0.2-0.2,0.4-0.6,0.4-0.9c0-0.3-0.1-0.7-0.4-0.9
				C52.5,271.9,52.1,271.8,51.8,271.8z"/>
			<path fill="#3F352F" d="M58.5,271.8c-0.3,0-0.7,0.1-0.9,0.4c-0.2,0.2-0.4,0.6-0.4,0.9c0,0.3,0.1,0.7,0.4,0.9
				c0.2,0.2,0.6,0.4,0.9,0.4c0.3,0,0.7-0.1,0.9-0.4c0.2-0.2,0.4-0.6,0.4-0.9c0-0.3-0.1-0.7-0.4-0.9
				C59.2,271.9,58.9,271.8,58.5,271.8z"/>
			<path fill="#3F352F" d="M34.9,278.8c-0.3,0-0.7,0.1-0.9,0.4c-0.2,0.2-0.4,0.6-0.4,0.9c0,0.3,0.1,0.7,0.4,0.9
				c0.2,0.2,0.6,0.4,0.9,0.4c0.3,0,0.7-0.1,0.9-0.4c0.2-0.2,0.4-0.6,0.4-0.9c0-0.3-0.1-0.7-0.4-0.9
				C35.6,278.9,35.3,278.8,34.9,278.8z"/>
			<path fill="#3F352F" d="M41.7,278.8c-0.3,0-0.7,0.1-0.9,0.4c-0.2,0.2-0.4,0.6-0.4,0.9c0,0.3,0.1,0.7,0.4,0.9
				c0.2,0.2,0.6,0.4,0.9,0.4c0.3,0,0.7-0.1,0.9-0.4c0.2-0.2,0.4-0.6,0.4-0.9c0-0.3-0.1-0.7-0.4-0.9C42.4,278.9,42,278.8,41.7,278.8z
				"/>
			<path fill="#3F352F" d="M48.4,278.8c-0.3,0-0.7,0.1-0.9,0.4c-0.2,0.2-0.4,0.6-0.4,0.9c0,0.3,0.1,0.7,0.4,0.9
				c0.2,0.2,0.6,0.4,0.9,0.4c0.3,0,0.7-0.1,0.9-0.4c0.2-0.2,0.4-0.6,0.4-0.9c0-0.3-0.1-0.7-0.4-0.9
				C49.1,278.9,48.7,278.8,48.4,278.8z"/>
			<path fill="#3F352F" d="M55.1,278.8c-0.3,0-0.7,0.1-0.9,0.4c-0.2,0.2-0.4,0.6-0.4,0.9c0,0.3,0.1,0.7,0.4,0.9
				c0.2,0.2,0.6,0.4,0.9,0.4c0.3,0,0.7-0.1,0.9-0.4c0.2-0.2,0.4-0.6,0.4-0.9c0-0.3-0.1-0.7-0.4-0.9
				C55.8,278.9,55.5,278.8,55.1,278.8z"/>
			<path fill="#3F352F" d="M38.3,285.8c-0.3,0-0.7,0.1-0.9,0.4c-0.2,0.2-0.4,0.6-0.4,0.9c0,0.3,0.1,0.7,0.4,0.9
				c0.2,0.2,0.6,0.4,0.9,0.4c0.3,0,0.7-0.1,0.9-0.4c0.2-0.2,0.4-0.6,0.4-0.9c0-0.3-0.1-0.7-0.4-0.9C39,285.9,38.6,285.8,38.3,285.8z
				"/>
			<path fill="#3F352F" d="M45,285.8c-0.3,0-0.7,0.1-0.9,0.4c-0.2,0.2-0.4,0.6-0.4,0.9c0,0.3,0.1,0.7,0.4,0.9
				c0.2,0.2,0.6,0.4,0.9,0.4c0.3,0,0.7-0.1,0.9-0.4c0.2-0.2,0.4-0.6,0.4-0.9c0-0.3-0.1-0.7-0.4-0.9C45.7,285.9,45.4,285.8,45,285.8z
				"/>
			<path fill="#3F352F" d="M115.2,268.3v-29c0-0.7-0.6-1.3-1.3-1.3H90.6c-0.7,0-1.3,0.6-1.3,1.3v23.3c0,8.6-4.2,14.1-4.2,14.2
				c0,0-18.5,25-18.5,25.1c-1.3,2-2.5,4.3-2.6,7.1c-0.1,3.2,1.1,6.2,3.3,8.4c2.2,2.3,5.1,3.6,8.3,3.6c0.1,0,5.8,0,9.5-4.5l19.4-21.9
				c0,0,2.8-3.3,5.7-4.4c5-2,7.7-5.3,7.9-9.9c0.2-3.7-1.3-7.5-2.4-10.5C115.5,269.2,115.3,268.7,115.2,268.3z M91.9,240.6h20.6v3.4
				H91.9V240.6z M91.9,246.6h20.6v2.8H91.9V246.6z M75.7,318.3c-2.5-0.1-4.7-1.1-6.4-2.8c-1.7-1.8-2.6-4.1-2.6-6.6
				c0-1.8,0.7-3.3,1.6-4.9c2.7,1,10.5,4.3,13.5,12.1C80.1,317.6,77.9,318.4,75.7,318.3z M105.5,275c-0.3,0-0.7,0.1-0.9,0.4
				c-0.2,0.2-0.4,0.6-0.4,0.9c0,0.3,0.1,0.7,0.4,0.9c0.1,0,0.1,0.1,0.2,0.1c-1.2,3.1-1.6,7.1-0.1,11.9c0,0-0.1,0-0.1,0.1
				c-0.2,0.2-0.4,0.6-0.4,0.9c0,0.2,0.1,0.5,0.2,0.7c-1.1,1-1.8,1.8-1.9,1.9l-9.4,10.6c0-0.1-0.1-0.1-0.1-0.2
				c-0.2-0.2-0.6-0.4-0.9-0.4c-0.3,0-0.7,0.1-0.9,0.4c-0.2,0.2-0.4,0.6-0.4,0.9c0,0.3,0.1,0.7,0.4,0.9c0.1,0.1,0.2,0.2,0.3,0.2
				l-7.7,8.7c-0.3-0.6-0.6-1.2-1-1.8c0,0,0.1,0,0.1-0.1c0.2-0.2,0.4-0.6,0.4-0.9c0-0.3-0.1-0.7-0.4-0.9c-0.2-0.2-0.6-0.4-0.9-0.4
				c-0.2,0-0.4,0.1-0.6,0.2c-3.7-4.8-8.8-7.2-11.5-8.3l7.8-10.6c0.2,0.2,0.6,0.4,0.9,0.4c0.3,0,0.7-0.1,0.9-0.4
				c0.2-0.2,0.4-0.6,0.4-0.9c0-0.3-0.1-0.7-0.4-0.9c-0.1-0.1-0.2-0.2-0.3-0.2l8-10.8c0.3-0.4,4.4-5.9,4.8-14.7c0,0,0.1,0,0.1,0
				c0.3,0,0.7-0.1,0.9-0.4c0.2-0.2,0.4-0.6,0.4-0.9c0-0.3-0.1-0.7-0.4-0.9c-0.2-0.2-0.6-0.4-0.9-0.4c0,0-0.1,0-0.1,0v-8.9h20.6v8.9
				c-0.1,0-0.2,0-0.2,0c-0.3,0-0.7,0.1-0.9,0.4c-0.2,0.2-0.4,0.6-0.4,0.9c0,0.3,0.1,0.7,0.4,0.9c0.2,0.2,0.6,0.4,0.9,0.4
				c0.1,0,0.2,0,0.2,0v4.2c-0.5,0.4-1.4,1-2.3,1.8c0-0.1,0-0.2,0-0.3c0-0.3-0.1-0.7-0.4-0.9c-0.2-0.2-0.6-0.4-0.9-0.4
				c-0.3,0-0.7,0.1-0.9,0.4c-0.2,0.2-0.4,0.6-0.4,0.9c0,0.3,0.1,0.7,0.4,0.9c0.2,0.2,0.6,0.4,0.9,0.4c0.1,0,0.2,0,0.2,0
				c-0.8,0.8-1.6,1.7-2.3,2.8c-0.3,0.5-0.7,1-1,1.6C105.8,275,105.6,275,105.5,275z M115.5,280.2c-0.2,3.5-2.2,6-6.2,7.5
				c-0.7,0.3-1.4,0.6-2,1c-3.4-9.9,3-16.1,5.9-18.2C113.2,270.6,115.8,276.3,115.5,280.2z"/>
			<path fill="#3F352F" d="M95.4,254c-0.3,0-0.7,0.1-0.9,0.4c-0.2,0.2-0.4,0.6-0.4,0.9c0,0.3,0.1,0.7,0.4,0.9
				c0.2,0.2,0.6,0.4,0.9,0.4c0.3,0,0.7-0.1,0.9-0.4c0.2-0.2,0.4-0.6,0.4-0.9c0-0.3-0.1-0.7-0.4-0.9C96.1,254.1,95.8,254,95.4,254z"
				/>
			<path fill="#3F352F" d="M102.2,254c-0.3,0-0.7,0.1-0.9,0.4c-0.2,0.2-0.4,0.6-0.4,0.9c0,0.3,0.1,0.7,0.4,0.9
				c0.2,0.2,0.6,0.4,0.9,0.4c0.3,0,0.7-0.1,0.9-0.4c0.2-0.2,0.4-0.6,0.4-0.9c0-0.3-0.1-0.7-0.4-0.9C102.9,254.1,102.5,254,102.2,254
				z"/>
			<path fill="#3F352F" d="M108.9,256.6c0.3,0,0.7-0.1,0.9-0.4c0.2-0.2,0.4-0.6,0.4-0.9c0-0.3-0.1-0.7-0.4-0.9
				c-0.2-0.2-0.6-0.4-0.9-0.4c-0.3,0-0.7,0.1-0.9,0.4c-0.2,0.2-0.4,0.6-0.4,0.9c0,0.3,0.1,0.7,0.4,0.9
				C108.2,256.5,108.6,256.6,108.9,256.6z"/>
			<path fill="#3F352F" d="M98.8,261c-0.3,0-0.7,0.1-0.9,0.4c-0.2,0.2-0.4,0.6-0.4,0.9c0,0.3,0.1,0.7,0.4,0.9
				c0.2,0.2,0.6,0.4,0.9,0.4c0.3,0,0.7-0.1,0.9-0.4c0.2-0.2,0.4-0.6,0.4-0.9c0-0.3-0.1-0.7-0.4-0.9C99.5,261.1,99.2,261,98.8,261z"
				/>
			<path fill="#3F352F" d="M106.5,261.4c-0.2-0.2-0.6-0.4-0.9-0.4c-0.3,0-0.7,0.1-0.9,0.4c-0.2,0.2-0.4,0.6-0.4,0.9
				c0,0.3,0.1,0.7,0.4,0.9c0.2,0.2,0.6,0.4,0.9,0.4c0.3,0,0.7-0.1,0.9-0.4c0.2-0.2,0.4-0.6,0.4-0.9
				C106.9,262,106.7,261.6,106.5,261.4z"/>
			<path fill="#3F352F" d="M95.4,268c-0.3,0-0.7,0.1-0.9,0.4c-0.2,0.2-0.4,0.6-0.4,0.9c0,0.3,0.1,0.7,0.4,0.9
				c0.2,0.2,0.6,0.4,0.9,0.4c0.3,0,0.7-0.1,0.9-0.4c0.2-0.2,0.4-0.6,0.4-0.9c0-0.3-0.1-0.7-0.4-0.9C96.1,268.1,95.8,268,95.4,268z"
				/>
			<path fill="#3F352F" d="M102.2,268c-0.3,0-0.7,0.1-0.9,0.4c-0.2,0.2-0.4,0.6-0.4,0.9c0,0.3,0.1,0.7,0.4,0.9
				c0.2,0.2,0.6,0.4,0.9,0.4c0.3,0,0.7-0.1,0.9-0.4c0.2-0.2,0.4-0.6,0.4-0.9c0-0.3-0.1-0.7-0.4-0.9C102.9,268.1,102.5,268,102.2,268
				z"/>
			<path fill="#3F352F" d="M92.1,275c-0.3,0-0.7,0.1-0.9,0.4c-0.2,0.2-0.4,0.6-0.4,0.9c0,0.3,0.1,0.7,0.4,0.9
				c0.2,0.2,0.6,0.4,0.9,0.4c0.3,0,0.7-0.1,0.9-0.4c0.2-0.2,0.4-0.6,0.4-0.9c0-0.3-0.1-0.7-0.4-0.9C92.8,275.1,92.4,275,92.1,275z"
				/>
			<path fill="#3F352F" d="M98.8,275c-0.3,0-0.7,0.1-0.9,0.4c-0.2,0.2-0.4,0.6-0.4,0.9c0,0.3,0.1,0.7,0.4,0.9
				c0.2,0.2,0.6,0.4,0.9,0.4c0.3,0,0.7-0.1,0.9-0.4c0.2-0.2,0.4-0.6,0.4-0.9c0-0.3-0.1-0.7-0.4-0.9C99.5,275.1,99.2,275,98.8,275z"
				/>
			<path fill="#3F352F" d="M88.7,281.9c-0.3,0-0.7,0.1-0.9,0.4c-0.2,0.2-0.4,0.6-0.4,0.9c0,0.3,0.1,0.7,0.4,0.9
				c0.2,0.2,0.6,0.4,0.9,0.4c0.3,0,0.7-0.1,0.9-0.4c0.2-0.2,0.4-0.6,0.4-0.9c0-0.3-0.1-0.7-0.4-0.9C89.4,282.1,89,281.9,88.7,281.9z
				"/>
			<path fill="#3F352F" d="M95.4,281.9c-0.3,0-0.7,0.1-0.9,0.4c-0.2,0.2-0.4,0.6-0.4,0.9c0,0.3,0.1,0.7,0.4,0.9
				c0.2,0.2,0.6,0.4,0.9,0.4c0.3,0,0.7-0.1,0.9-0.4c0.2-0.2,0.4-0.6,0.4-0.9c0-0.3-0.1-0.7-0.4-0.9
				C96.1,282.1,95.8,281.9,95.4,281.9z"/>
			<path fill="#3F352F" d="M102.2,281.9c-0.3,0-0.7,0.1-0.9,0.4c-0.2,0.2-0.4,0.6-0.4,0.9c0,0.3,0.1,0.7,0.4,0.9
				c0.2,0.2,0.6,0.4,0.9,0.4c0.3,0,0.7-0.1,0.9-0.4c0.2-0.2,0.4-0.6,0.4-0.9c0-0.3-0.1-0.7-0.4-0.9
				C102.9,282.1,102.5,281.9,102.2,281.9z"/>
			<path fill="#3F352F" d="M85.3,288.9c-0.3,0-0.7,0.1-0.9,0.4c-0.2,0.2-0.4,0.6-0.4,0.9c0,0.3,0.1,0.7,0.4,0.9
				c0.2,0.2,0.6,0.4,0.9,0.4c0.3,0,0.7-0.1,0.9-0.4c0.2-0.2,0.4-0.6,0.4-0.9c0-0.3-0.1-0.7-0.4-0.9C86,289.1,85.7,288.9,85.3,288.9z
				"/>
			<path fill="#3F352F" d="M92.1,288.9c-0.3,0-0.7,0.1-0.9,0.4c-0.2,0.2-0.4,0.6-0.4,0.9c0,0.3,0.1,0.7,0.4,0.9
				c0.2,0.2,0.6,0.4,0.9,0.4s0.7-0.1,0.9-0.4c0.2-0.2,0.4-0.6,0.4-0.9c0-0.3-0.1-0.7-0.4-0.9C92.8,289.1,92.4,288.9,92.1,288.9z"/>
			<path fill="#3F352F" d="M98.8,288.9c-0.3,0-0.7,0.1-0.9,0.4c-0.2,0.2-0.4,0.6-0.4,0.9c0,0.3,0.1,0.7,0.4,0.9
				c0.2,0.2,0.6,0.4,0.9,0.4c0.3,0,0.7-0.1,0.9-0.4c0.2-0.2,0.4-0.6,0.4-0.9c0-0.3-0.1-0.7-0.4-0.9
				C99.5,289.1,99.2,288.9,98.8,288.9z"/>
			<path fill="#3F352F" d="M75.2,295.9c-0.3,0-0.7,0.1-0.9,0.4c-0.2,0.2-0.4,0.6-0.4,0.9c0,0.3,0.1,0.7,0.4,0.9
				c0.2,0.2,0.6,0.4,0.9,0.4c0.3,0,0.7-0.1,0.9-0.4c0.2-0.2,0.4-0.6,0.4-0.9c0-0.3-0.1-0.7-0.4-0.9
				C75.9,296.1,75.6,295.9,75.2,295.9z"/>
			<path fill="#3F352F" d="M82,295.9c-0.3,0-0.7,0.1-0.9,0.4c-0.2,0.2-0.4,0.6-0.4,0.9c0,0.3,0.1,0.7,0.4,0.9
				c0.2,0.2,0.6,0.4,0.9,0.4c0.3,0,0.7-0.1,0.9-0.4c0.2-0.2,0.4-0.6,0.4-0.9c0-0.3-0.1-0.7-0.4-0.9C82.6,296.1,82.3,295.9,82,295.9z
				"/>
			<path fill="#3F352F" d="M88.7,295.9c-0.3,0-0.7,0.1-0.9,0.4c-0.2,0.2-0.4,0.6-0.4,0.9c0,0.3,0.1,0.7,0.4,0.9
				c0.2,0.2,0.6,0.4,0.9,0.4c0.3,0,0.7-0.1,0.9-0.4c0.2-0.2,0.4-0.6,0.4-0.9c0-0.3-0.1-0.7-0.4-0.9C89.4,296.1,89,295.9,88.7,295.9z
				"/>
			<path fill="#3F352F" d="M95.4,295.9c-0.3,0-0.7,0.1-0.9,0.4c-0.2,0.2-0.4,0.6-0.4,0.9c0,0.3,0.1,0.7,0.4,0.9
				c0.2,0.2,0.6,0.4,0.9,0.4c0.3,0,0.7-0.1,0.9-0.4c0.2-0.2,0.4-0.6,0.4-0.9c0-0.3-0.1-0.7-0.4-0.9
				C96.1,296.1,95.8,295.9,95.4,295.9z"/>
			<path fill="#3F352F" d="M78.6,302.9c-0.3,0-0.7,0.1-0.9,0.4c-0.2,0.2-0.4,0.6-0.4,0.9c0,0.3,0.1,0.7,0.4,0.9
				c0.2,0.2,0.6,0.4,0.9,0.4c0.3,0,0.7-0.1,0.9-0.4c0.2-0.2,0.4-0.6,0.4-0.9c0-0.3-0.1-0.7-0.4-0.9
				C79.3,303.1,78.9,302.9,78.6,302.9z"/>
			<path fill="#3F352F" d="M85.3,302.9c-0.3,0-0.7,0.1-0.9,0.4c-0.2,0.2-0.4,0.6-0.4,0.9c0,0.3,0.1,0.7,0.4,0.9
				c0.2,0.2,0.6,0.4,0.9,0.4c0.3,0,0.7-0.1,0.9-0.4c0.2-0.2,0.4-0.6,0.4-0.9c0-0.3-0.1-0.7-0.4-0.9C86,303.1,85.7,302.9,85.3,302.9z
				"/>
		</g>
		<g>
			<path fill="#CAE6DC" d="M422.8,302.9h36.2c0.4-1.1,0.8-2.4,1.3-3.6h-37.8C422.6,300.9,422.8,302.1,422.8,302.9z"/>
			<path fill="#CCCCCC" d="M452.3,283.9c-2-3.6-2.5-8-3-11.5c0-0.4-2.7-31-3.1-36.8h-16.1l-5.1,17c-3.8,15.8-3.3,34.1-2.7,44h38.9
				c0.9-2.7,1.7-5,1.8-5.5v-0.8C458.1,290.1,454.5,287.9,452.3,283.9z"/>
			<path fill="#CCCCCC" d="M451.9,272.1c0.8,6.7,1.9,14.9,11.1,15.6v-52.1h-14.2C449.3,241.7,451.9,271.7,451.9,272.1z"/>
			<path fill="#CAE6DC" d="M469.6,302.9h36.2c0.1-0.8,0.2-2,0.3-3.6h-37.8C468.8,300.6,469.2,301.8,469.6,302.9z"/>
			<path fill="#CCCCCC" d="M498.6,235.6h-16.1c-0.4,5.8-3,36.4-3.1,36.8c-0.4,3.5-1,7.9-3,11.5c-2.2,4-5.8,6.1-10.8,6.4v0.8
				c0.1,0.6,0.9,2.8,1.8,5.5h38.9c0.6-10,1.1-28.2-2.7-44L498.6,235.6z"/>
			<polygon fill="#8BB4C8" points="496.6,224.6 432.1,224.6 430.8,233 497.9,233 			"/>
			<path fill="#CCCCCC" d="M476.8,272.1c0.1-0.4,2.6-30.4,3.1-36.5h-14.2v52.1C474.9,287,476,278.8,476.8,272.1z"/>
			<path fill="#3F352F" d="M500.6,233.5l-1.5-10.4c-0.1-0.6-0.7-1.1-1.3-1.1h-66.9c-0.7,0-1.2,0.5-1.3,1.1l-1.5,10.4
				c-0.1,0.1-5.6,18.5-5.6,18.5c-5.6,23.5-2.2,52.1-2.1,52.4c0.1,0.7,0.6,1.2,1.3,1.2H460c0.6,0,1.1-0.4,1.2-0.9
				c1.5-4.1,2.4-6.9,3.1-8.9c0.7,2,1.6,4.8,3.1,8.9c0.2,0.5,0.7,0.9,1.2,0.9H507c0.7,0,1.2-0.5,1.3-1.2c0-0.3,3.5-29-2.1-52.4
				C506.2,252,500.7,233.6,500.6,233.5z M459.1,302.9h-36.2c-0.1-0.8-0.2-2-0.3-3.6h37.8C459.9,300.6,459.5,301.8,459.1,302.9z
				 M463,291.2c-0.1,0.5-0.9,2.8-1.8,5.5h-38.9c-0.6-10-1.1-28.2,2.7-44l5.1-17h16.1c0.4,5.8,3,36.4,3.1,36.8c0.4,3.5,1,7.9,3,11.5
				c2.2,4,5.8,6.1,10.8,6.4V291.2z M463,287.7c-9.3-0.7-10.3-9-11.1-15.6c-0.1-0.4-2.6-30.4-3.1-36.5H463V287.7z M430.8,233l1.2-8.4
				h64.6l1.2,8.4H430.8z M479.9,235.6c-0.4,6.1-3,36.1-3.1,36.5c-0.8,6.7-1.9,14.9-11.1,15.6v-52.1H479.9z M505.9,302.9h-36.2
				c-0.4-1.1-0.8-2.4-1.3-3.6h37.8C506.1,300.9,505.9,302.1,505.9,302.9z M506.4,296.7h-38.9c-0.9-2.7-1.7-4.9-1.8-5.5v-0.8
				c4.9-0.3,8.5-2.5,10.8-6.4c2-3.6,2.5-8,3-11.5c0-0.4,2.7-31,3.1-36.8h16.1l5.1,17C507.4,268.5,507,286.7,506.4,296.7z"/>
		</g>
		<g>
			<path fill="#CCCCCC" d="M263.8,272.5c0.8-1.7,1.7-3.4,2.4-5.2c-7.7-18.2-11.3-40.3-12.2-46.5l-12.2,4.8
				c0.6,5.5,2.7,30.4-9.3,36.3c1.1,4.9,5.3,25.6,3.2,45.3l25.8,8.9l4.4-5.4l-2-2.4c-0.2-0.2-0.3-0.5-0.3-0.8V273
				C263.6,272.8,263.7,272.6,263.8,272.5z M257.8,295.9c0,0.7-0.6,1.3-1.3,1.3c-0.7,0-1.3-0.6-1.3-1.3v-1.7l-14.3-2.5v1.3
				c0,0.7-0.6,1.3-1.3,1.3s-1.3-0.6-1.3-1.3v-2.8c0-0.4,0.2-0.8,0.5-1c0.3-0.3,0.7-0.4,1.1-0.3l16.9,2.9c0.6,0.1,1.1,0.7,1.1,1.3
				V295.9z"/>
			<path fill="#FBB03B" d="M278.1,223.7c-2.9,0.8-6.6,1.3-10.5,1.3c-3.9,0-7.6-0.5-10.5-1.3c1.4,8.2,4.6,25.1,10.5,40
				C273.5,248.8,276.8,231.9,278.1,223.7z"/>
			<path fill="#CCCCCC" d="M293.5,225.5l-12.2-4.8c-0.9,6.2-4.6,28.6-12.4,47c0,0,0,0,0,0c-0.8,1.9-1.7,3.8-2.6,5.6v33.5l7.5,9.1
				l25.8-8.9c-2.1-19.6,2.1-40.3,3.2-45.3C290.7,255.9,292.8,231,293.5,225.5z M269.8,303.2c-0.2,0.2-0.6,0.4-0.9,0.4
				c-0.3,0-0.7-0.1-0.9-0.4c-0.2-0.2-0.4-0.6-0.4-0.9c0-0.3,0.1-0.7,0.4-0.9c0.2-0.2,0.6-0.4,0.9-0.4c0.3,0,0.7,0.1,0.9,0.4
				c0.2,0.2,0.4,0.6,0.4,0.9C270.2,302.6,270,302.9,269.8,303.2z M269.8,294.6c-0.2,0.2-0.6,0.4-0.9,0.4c-0.3,0-0.7-0.1-0.9-0.4
				c-0.2-0.2-0.4-0.6-0.4-0.9c0-0.3,0.1-0.7,0.4-0.9c0.2-0.2,0.6-0.4,0.9-0.4c0.3,0,0.7,0.1,0.9,0.4c0.2,0.2,0.4,0.6,0.4,0.9
				C270.2,294,270,294.3,269.8,294.6z M269.8,286c-0.2,0.2-0.6,0.4-0.9,0.4c-0.3,0-0.7-0.1-0.9-0.4c-0.2-0.2-0.4-0.6-0.4-0.9
				c0-0.3,0.1-0.7,0.4-0.9c0.2-0.2,0.6-0.4,0.9-0.4c0.3,0,0.7,0.1,0.9,0.4c0.2,0.2,0.4,0.6,0.4,0.9C270.2,285.4,270,285.7,269.8,286
				z M269.8,277.4c-0.2,0.2-0.6,0.4-0.9,0.4c-0.3,0-0.7-0.1-0.9-0.4c-0.2-0.2-0.4-0.6-0.4-0.9c0-0.3,0.1-0.7,0.4-0.9
				c0.2-0.2,0.6-0.4,0.9-0.4c0.3,0,0.7,0.1,0.9,0.4c0.2,0.2,0.4,0.6,0.4,0.9C270.2,276.8,270,277.1,269.8,277.4z M297,293
				c0,0.7-0.6,1.3-1.3,1.3s-1.3-0.6-1.3-1.3v-1.3l-14.3,2.5v1.7c0,0.7-0.6,1.3-1.3,1.3c-0.7,0-1.3-0.6-1.3-1.3v-2.8
				c0-0.6,0.5-1.2,1.1-1.3l16.9-2.9c0.4-0.1,0.8,0,1.1,0.3c0.3,0.3,0.5,0.6,0.5,1V293z"/>
			<path fill="#3F352F" d="M304.8,259.8c-6.4-2.4-8.4-11.6-9-18.9c-0.6-8.2,0.4-16,0.4-16c0.1-0.6-0.3-1.2-0.8-1.4l-14.7-5.7
				c-0.4-0.1-0.8-0.1-1.2,0.1c-0.3,0.2-0.6,0.6-0.6,1c0,0-0.1,0.8-0.3,2.1c-2.7,1-6.7,1.6-11,1.6c-4.2,0-8.3-0.6-11-1.6
				c-0.2-1.3-0.3-2-0.3-2.1c-0.1-0.4-0.3-0.8-0.6-1c-0.4-0.2-0.8-0.2-1.2-0.1l-14.7,5.7c-0.6,0.2-0.9,0.8-0.8,1.4
				c0,0.1,1.1,7.8,0.4,16c-0.6,7.3-2.6,16.6-9,18.9c-0.6,0.2-1,0.9-0.8,1.6c0.1,0.2,5.9,24.3,3.2,46.5c-0.1,0.6,0.3,1.2,0.9,1.4
				l27.7,9.6c0.1,0,0.3,0.1,0.4,0.1c0.4,0,0.8-0.2,1-0.5l4.7-5.7l4.7,5.7c0.3,0.3,0.6,0.5,1,0.5c0.1,0,0.3,0,0.4-0.1l27.7-9.6
				c0.6-0.2,1-0.8,0.9-1.4c-2.7-22.2,3.2-46.2,3.2-46.5C305.8,260.7,305.4,260.1,304.8,259.8z M267.7,225c3.9,0,7.6-0.5,10.5-1.3
				c-1.4,8.2-4.6,25.1-10.5,40c-5.9-14.9-9.1-31.8-10.5-40C260,224.6,263.7,225,267.7,225z M263.9,308.2l2,2.4l-4.4,5.4l-25.8-8.9
				c2.1-19.6-2.1-40.3-3.2-45.3c12.1-5.9,9.9-30.8,9.3-36.3l12.2-4.8c0.9,6.2,4.5,28.3,12.2,46.5c-0.8,1.8-1.6,3.5-2.4,5.2
				c-0.1,0.2-0.1,0.4-0.1,0.6v34.3C263.6,307.7,263.8,308,263.9,308.2z M299.6,307.1l-25.8,8.9l-7.5-9.1v-33.5
				c0.9-1.8,1.8-3.7,2.6-5.6c0,0,0,0,0,0c7.8-18.4,11.5-40.8,12.4-47l12.2,4.8c-0.6,5.5-2.7,30.4,9.3,36.3
				C301.7,266.8,297.5,287.5,299.6,307.1z"/>
			<path fill="#3F352F" d="M256.7,291.8l-16.9-2.9c-0.4-0.1-0.8,0-1.1,0.3c-0.3,0.3-0.5,0.6-0.5,1v2.8c0,0.7,0.6,1.3,1.3,1.3
				s1.3-0.6,1.3-1.3v-1.3l14.3,2.5v1.7c0,0.7,0.6,1.3,1.3,1.3c0.7,0,1.3-0.6,1.3-1.3v-2.8C257.8,292.4,257.4,291.9,256.7,291.8z"/>
			<path fill="#3F352F" d="M296.5,289.1c-0.3-0.3-0.7-0.4-1.1-0.3l-16.9,2.9c-0.6,0.1-1.1,0.7-1.1,1.3v2.8c0,0.7,0.6,1.3,1.3,1.3
				c0.7,0,1.3-0.6,1.3-1.3v-1.7l14.3-2.5v1.3c0,0.7,0.6,1.3,1.3,1.3s1.3-0.6,1.3-1.3v-2.8C297,289.8,296.8,289.4,296.5,289.1z"/>
			<path fill="#3F352F" d="M268.8,275.1c-0.3,0-0.7,0.1-0.9,0.4c-0.2,0.2-0.4,0.6-0.4,0.9c0,0.3,0.1,0.7,0.4,0.9
				c0.2,0.2,0.6,0.4,0.9,0.4c0.3,0,0.7-0.1,0.9-0.4c0.2-0.2,0.4-0.6,0.4-0.9c0-0.3-0.1-0.7-0.4-0.9
				C269.5,275.3,269.2,275.1,268.8,275.1z"/>
			<path fill="#3F352F" d="M268.8,283.7c-0.3,0-0.7,0.1-0.9,0.4c-0.2,0.2-0.4,0.6-0.4,0.9c0,0.3,0.1,0.7,0.4,0.9
				c0.2,0.2,0.6,0.4,0.9,0.4c0.3,0,0.7-0.1,0.9-0.4c0.2-0.2,0.4-0.6,0.4-0.9c0-0.3-0.1-0.7-0.4-0.9
				C269.5,283.9,269.2,283.7,268.8,283.7z"/>
			<path fill="#3F352F" d="M268.8,292.3c-0.3,0-0.7,0.1-0.9,0.4c-0.2,0.2-0.4,0.6-0.4,0.9c0,0.3,0.1,0.7,0.4,0.9
				c0.2,0.2,0.6,0.4,0.9,0.4c0.3,0,0.7-0.1,0.9-0.4c0.2-0.2,0.4-0.6,0.4-0.9c0-0.3-0.1-0.7-0.4-0.9
				C269.5,292.5,269.2,292.3,268.8,292.3z"/>
			<path fill="#3F352F" d="M268.8,300.9c-0.3,0-0.7,0.1-0.9,0.4c-0.2,0.2-0.4,0.6-0.4,0.9c0,0.3,0.1,0.7,0.4,0.9
				c0.2,0.2,0.6,0.4,0.9,0.4c0.3,0,0.7-0.1,0.9-0.4c0.2-0.2,0.4-0.6,0.4-0.9c0-0.3-0.1-0.7-0.4-0.9
				C269.5,301.1,269.2,300.9,268.8,300.9z"/>
		</g>
		<g>
			<g>
				<path fill="#CCCCCC" d="M169.9,259.7c-7.4,0-13.4,6-13.4,13.4c0,7.4,6,13.4,13.4,13.4s13.4-6,13.4-13.4
					C183.3,265.7,177.3,259.7,169.9,259.7z M169.9,283.2c-5.6,0-10.1-4.5-10.1-10.1c0-5.6,4.5-10.1,10.1-10.1s10.1,4.5,10.1,10.1
					C180,278.7,175.4,283.2,169.9,283.2z"/>
			</g>
			<path fill="#CCCCCC" d="M174.9,271.4h-3.4v-3.4c0-0.9-0.7-1.7-1.7-1.7h0c-0.9,0-1.7,0.7-1.7,1.7v3.4h-3.4c-0.9,0-1.7,0.7-1.7,1.7
				v0c0,0.9,0.7,1.7,1.7,1.7h3.4v3.4c0,0.9,0.7,1.7,1.7,1.7h0c0.9,0,1.7-0.7,1.7-1.7v-3.4h3.4c0.9,0,1.7-0.7,1.7-1.7v0
				C176.6,272.2,175.9,271.4,174.9,271.4z"/>
		</g>
		<g>
			<g>
				<path fill="#CCCCCC" d="M363.8,259.7c-7.4,0-13.4,6-13.4,13.4c0,7.4,6,13.4,13.4,13.4s13.4-6,13.4-13.4
					C377.2,265.7,371.2,259.7,363.8,259.7z M363.8,283.2c-5.6,0-10.1-4.5-10.1-10.1c0-5.6,4.5-10.1,10.1-10.1
					c5.6,0,10.1,4.5,10.1,10.1C373.9,278.7,369.4,283.2,363.8,283.2z"/>
			</g>
			<path fill="#CCCCCC" d="M368.9,271.4h-3.4v-3.4c0-0.9-0.7-1.7-1.7-1.7h0c-0.9,0-1.7,0.7-1.7,1.7v3.4h-3.4c-0.9,0-1.7,0.7-1.7,1.7
				v0c0,0.9,0.7,1.7,1.7,1.7h3.4v3.4c0,0.9,0.7,1.7,1.7,1.7h0c0.9,0,1.7-0.7,1.7-1.7v-3.4h3.4c0.9,0,1.7-0.7,1.7-1.7v0
				C370.5,272.2,369.8,271.4,368.9,271.4z"/>
		</g>
		<g>
			<g>
				<path fill="#CCCCCC" d="M577.2,259.7c-7.4,0-13.4,6-13.4,13.4c0,7.4,6,13.4,13.4,13.4c7.4,0,13.4-6,13.4-13.4
					C590.6,265.7,584.6,259.7,577.2,259.7z M577.2,283.2c-5.6,0-10.1-4.5-10.1-10.1c0-5.6,4.5-10.1,10.1-10.1
					c5.6,0,10.1,4.5,10.1,10.1C587.3,278.7,582.8,283.2,577.2,283.2z"/>
			</g>
			<path fill="#CCCCCC" d="M582.3,271.4h-3.4v-3.4c0-0.9-0.7-1.7-1.7-1.7h0c-0.9,0-1.7,0.7-1.7,1.7v3.4h-3.4c-0.9,0-1.7,0.7-1.7,1.7
				v0c0,0.9,0.7,1.7,1.7,1.7h3.4v3.4c0,0.9,0.7,1.7,1.7,1.7h0c0.9,0,1.7-0.7,1.7-1.7v-3.4h3.4c0.9,0,1.7-0.7,1.7-1.7v0
				C583.9,272.2,583.2,271.4,582.3,271.4z"/>
		</g>
	</g>
	<g>
		<g>
			<path fill="#CCCCCC" d="M609.2,563.7h39.2v-16.1h-39.2V563.7z M641,554.7c0.2-0.2,0.6-0.4,0.9-0.4c0.3,0,0.7,0.1,0.9,0.4
				c0.2,0.2,0.4,0.6,0.4,0.9c0,0.3-0.1,0.7-0.4,0.9c-0.2,0.2-0.6,0.4-0.9,0.4c-0.3,0-0.7-0.1-0.9-0.4c-0.2-0.2-0.4-0.6-0.4-0.9
				C640.7,555.3,640.8,555,641,554.7z M630.4,554.7c0.2-0.2,0.6-0.4,0.9-0.4c0.3,0,0.7,0.1,0.9,0.4c0.2,0.2,0.4,0.6,0.4,0.9
				c0,0.3-0.1,0.7-0.4,0.9c-0.2,0.2-0.6,0.4-0.9,0.4c-0.3,0-0.7-0.1-0.9-0.4c-0.2-0.2-0.4-0.6-0.4-0.9
				C630,555.3,630.2,555,630.4,554.7z M619.8,554.7c0.2-0.2,0.6-0.4,0.9-0.4c0.3,0,0.7,0.1,0.9,0.4c0.2,0.2,0.4,0.6,0.4,0.9
				c0,0.3-0.1,0.7-0.4,0.9c-0.2,0.2-0.6,0.4-0.9,0.4c-0.3,0-0.7-0.1-0.9-0.4c-0.2-0.2-0.4-0.6-0.4-0.9
				C619.4,555.3,619.5,555,619.8,554.7z"/>
			<path fill="#CCCCCC" d="M673.3,554.4h2.7V551h-20.2v9.3H676V557h-2.7c-0.7,0-1.3-0.6-1.3-1.3S672.6,554.4,673.3,554.4z
				 M663.6,556.6c-0.2,0.2-0.6,0.4-0.9,0.4c-0.3,0-0.7-0.1-0.9-0.4c-0.2-0.2-0.4-0.6-0.4-0.9c0-0.3,0.1-0.7,0.4-0.9
				c0.2-0.2,0.6-0.4,0.9-0.4c0.3,0,0.7,0.1,0.9,0.4c0.2,0.2,0.4,0.6,0.4,0.9C664,556,663.9,556.4,663.6,556.6z"/>
			<path fill="#A8D6C6" d="M651.1,566.2h29.6V557h-2v4.6c0,0.7-0.6,1.3-1.3,1.3h-22.9c-0.7,0-1.3-0.6-1.3-1.3v-11.9
				c0-0.7,0.6-1.3,1.3-1.3h22.9c0.7,0,1.3,0.6,1.3,1.3v4.6h2v-9.2h-29.6V566.2z"/>
			<rect x="683.3" y="547.6" fill="#CCCCCC" width="5.1" height="16.1"/>
			<path fill="#CCCCCC" d="M716.8,555.7c0,3.2-1.1,6.1-2.8,8h8.5v-16.1H714C715.7,549.6,716.8,552.5,716.8,555.7z"/>
			<path fill="#CCCCCC" d="M708.7,547.6h-9.6v16.1h9.6c2.9,0,5.4-3.7,5.4-8S711.6,547.6,708.7,547.6z M702.1,556.6
				c-0.2,0.2-0.6,0.4-0.9,0.4c-0.3,0-0.7-0.1-0.9-0.4c-0.2-0.2-0.4-0.6-0.4-0.9c0-0.3,0.1-0.7,0.4-0.9c0.2-0.2,0.6-0.4,0.9-0.4
				c0.3,0,0.7,0.1,0.9,0.4c0.2,0.2,0.4,0.6,0.4,0.9C702.5,556,702.4,556.4,702.1,556.6z"/>
			<rect x="691.1" y="545.1" fill="#D48C7E" width="5.5" height="21.1"/>
			<path fill="#3F352F" d="M642,557c0.3,0,0.7-0.1,0.9-0.4c0.2-0.2,0.4-0.6,0.4-0.9c0-0.3-0.1-0.7-0.4-0.9c-0.2-0.2-0.6-0.4-0.9-0.4
				c-0.3,0-0.7,0.1-0.9,0.4c-0.2,0.2-0.4,0.6-0.4,0.9c0,0.3,0.1,0.7,0.4,0.9C641.3,556.9,641.6,557,642,557z"/>
			<path fill="#3F352F" d="M631.4,557c0.3,0,0.7-0.1,0.9-0.4c0.2-0.2,0.4-0.6,0.4-0.9c0-0.3-0.1-0.7-0.4-0.9
				c-0.2-0.2-0.6-0.4-0.9-0.4c-0.3,0-0.7,0.1-0.9,0.4c-0.2,0.2-0.4,0.6-0.4,0.9c0,0.3,0.1,0.7,0.4,0.9
				C630.7,556.9,631,557,631.4,557z"/>
			<path fill="#3F352F" d="M620.7,557c0.3,0,0.7-0.1,0.9-0.4c0.2-0.2,0.4-0.6,0.4-0.9c0-0.3-0.1-0.7-0.4-0.9
				c-0.2-0.2-0.6-0.4-0.9-0.4c-0.3,0-0.7,0.1-0.9,0.4c-0.2,0.2-0.4,0.6-0.4,0.9c0,0.3,0.1,0.7,0.4,0.9
				C620,556.9,620.4,557,620.7,557z"/>
			<path fill="#3F352F" d="M662.7,554.4c-0.3,0-0.7,0.1-0.9,0.4c-0.2,0.2-0.4,0.6-0.4,0.9c0,0.3,0.1,0.7,0.4,0.9
				c0.2,0.2,0.6,0.4,0.9,0.4c0.3,0,0.7-0.1,0.9-0.4c0.2-0.2,0.4-0.6,0.4-0.9c0-0.3-0.1-0.7-0.4-0.9
				C663.4,554.5,663,554.4,662.7,554.4z"/>
			<path fill="#3F352F" d="M701.2,554.4c-0.3,0-0.7,0.1-0.9,0.4c-0.2,0.2-0.4,0.6-0.4,0.9c0,0.3,0.1,0.7,0.4,0.9
				c0.2,0.2,0.6,0.4,0.9,0.4c0.3,0,0.7-0.1,0.9-0.4c0.2-0.2,0.4-0.6,0.4-0.9c0-0.3-0.1-0.7-0.4-0.9
				C701.9,554.5,701.5,554.4,701.2,554.4z"/>
			<path fill="#3F352F" d="M723.8,545h-24.7v-1.2c0-0.7-0.6-1.3-1.3-1.3h-8.1c-0.7,0-1.3,0.6-1.3,1.3v1.2h-5.1v-1.2
				c0-0.7-0.6-1.3-1.3-1.3h-32.2c-0.7,0-1.3,0.6-1.3,1.3v1.2h-40.5c-0.7,0-1.3,0.6-1.3,1.3V565c0,0.7,0.6,1.3,1.3,1.3h40.5v1.2
				c0,0.7,0.6,1.3,1.3,1.3H682c0.7,0,1.3-0.6,1.3-1.3v-1.2h5.1v1.2c0,0.7,0.6,1.3,1.3,1.3h8.1c0.7,0,1.3-0.6,1.3-1.3v-1.2h24.7
				c0.7,0,1.3-0.6,1.3-1.3v-18.7C725.1,545.6,724.5,545,723.8,545z M648.4,563.7h-39.2v-16.1h39.2V563.7z M680.7,554.4h-2v-4.6
				c0-0.7-0.6-1.3-1.3-1.3h-22.9c-0.7,0-1.3,0.6-1.3,1.3v11.9c0,0.7,0.6,1.3,1.3,1.3h22.9c0.7,0,1.3-0.6,1.3-1.3V557h2v9.2h-29.6
				v-21.1h29.6V554.4z M673.3,557h2.7v3.3h-20.2V551H676v3.3h-2.7c-0.7,0-1.3,0.6-1.3,1.3S672.6,557,673.3,557z M688.4,563.7h-5.1
				v-16.1h5.1V563.7z M696.5,566.2h-5.5v-21.1h5.5V566.2z M708.7,563.7h-9.6v-16.1h9.6c2.9,0,5.4,3.7,5.4,8S711.6,563.7,708.7,563.7
				z M722.5,563.7H714c1.7-2,2.8-4.8,2.8-8c0-3.2-1.1-6.1-2.8-8h8.5V563.7z"/>
		</g>
		<g>
			<path fill="#C1573F" d="M388.5,545.2c-0.5,0-1,0.4-1,1c0,0.5,0.4,1,1,1h2.2c-0.3-0.7-0.5-1.3-0.7-1.9H388.5z"/>
			<path fill="#CCCCCC" d="M410.2,542.8c-1.4,0-2.6,0.2-3.5,0.5c-3.6,1.5-4.9,4.8-3.6,9.3c0.4,1.4,2.7,8.6,9.2,12.2
				c2.4,1.3,4.8,1.9,7.4,1.9c6.4,0,11.2-4,12.6-8c0.8-2.1,0.4-4.3-1.1-6.4C427.3,546.9,416.9,542.8,410.2,542.8z M409.3,548.2
				c0,0-0.5,0.1-0.8,0.6c-0.4,0.6-0.3,1.6,0.1,2.9c0.2,0.7-0.1,1.4-0.8,1.7c-0.1,0-0.3,0.1-0.4,0.1c-0.6,0-1.1-0.3-1.3-0.9
				c-0.7-2.1-0.7-3.8,0.1-5.1c0.9-1.5,2.5-1.8,2.7-1.8c0.7-0.1,1.4,0.4,1.5,1.1C410.5,547.4,410,548.1,409.3,548.2z"/>
			<path fill="#CCCCCC" d="M480.7,543.3c-0.9-0.4-2.1-0.5-3.5-0.5c-6.8,0-17.2,4.1-21,9.6c-1.5,2.1-1.8,4.3-1.1,6.4
				c1.5,4,6.3,8,12.6,8c2.5,0,5-0.7,7.4-1.9c6.4-3.5,8.8-10.8,9.2-12.2C485.6,548.1,484.3,544.8,480.7,543.3z M481.2,552.5
				c-0.2,0.6-0.7,0.9-1.3,0.9c-0.1,0-0.3,0-0.4-0.1c-0.7-0.2-1.1-1-0.8-1.7c0.4-1.3,0.5-2.3,0.1-2.9c-0.3-0.5-0.8-0.6-0.8-0.6
				c-0.7-0.1-1.2-0.8-1.1-1.5c0.1-0.7,0.8-1.2,1.5-1.1c0.2,0,1.7,0.3,2.7,1.8C481.9,548.7,481.9,550.4,481.2,552.5z"/>
			<path fill="#C1573F" d="M498.9,545.2h-1.5c-0.2,0.6-0.4,1.3-0.7,1.9h2.2c0.5,0,1-0.4,1-1C499.8,545.6,499.4,545.2,498.9,545.2z"
				/>
			<path fill="#C1573F" d="M495,538.8c-3.7-1.2-7.7-1.9-11.9-1.9c-13.1,0-24.9,6-30.6,8.9c-0.6,0.3-4,2-5.3,2.2
				c-0.9,0.1-6.2,0.1-7,0c-1.3-0.2-4.7-1.9-5.3-2.2c-5.7-2.9-17.5-8.9-30.6-8.9c-4.2,0-8.2,0.6-11.9,1.9c-0.8,0.3-1.4,0.6-0.9,2.2
				c1.3,4.9,5.6,16.1,12.3,23.6c4,4.5,8.8,6.9,14.5,7.1c0.5,0,0.9,0,1.4,0c12.2,0,15.8-8.1,16.8-11.6c2.2-7.8,4.3-9.4,7.2-9.7
				c0,0,0.2,0,0.2,0c2.9,0.3,5,1.9,7.2,9.7c1,3.5,4.6,11.6,16.8,11.6c0.4,0,0.9,0,1.4,0c5.7-0.3,10.4-2.6,14.5-7.1
				c6.7-7.5,10.9-18.7,12.3-23.6C496.3,539.4,495.7,539.1,495,538.8z M434.7,559.6c-2.1,5.6-8.4,9.7-15.1,9.7c-3,0-5.9-0.8-8.6-2.3
				c-5.7-3.1-9.1-9.1-10.4-13.8c-1.7-5.8,0.3-10.5,5.1-12.5c1.2-0.5,2.7-0.7,4.5-0.7c7.4,0,18.7,4.4,23.1,10.7
				C435.3,553.7,435.8,556.7,434.7,559.6z M486.8,553.3c-1.3,4.6-4.7,10.6-10.4,13.8c-2.7,1.5-5.6,2.3-8.6,2.3
				c-6.7,0-13-4.1-15.1-9.7c-1.1-2.9-0.6-6,1.4-8.8c4.4-6.3,15.7-10.7,23.1-10.7c1.8,0,3.3,0.3,4.5,0.7
				C486.6,542.9,488.5,547.5,486.8,553.3z"/>
			<path fill="#3F352F" d="M409,545.6c-0.2,0-1.7,0.3-2.7,1.8c-0.8,1.3-0.8,3-0.1,5.1c0.2,0.6,0.7,0.9,1.3,0.9c0.1,0,0.3,0,0.4-0.1
				c0.7-0.2,1.1-1,0.8-1.7c-0.4-1.3-0.5-2.3-0.1-2.9c0.3-0.5,0.8-0.6,0.8-0.6c0.7-0.1,1.2-0.8,1.1-1.5
				C410.3,546,409.7,545.5,409,545.6z"/>
			<path fill="#3F352F" d="M410.2,540.1c-1.8,0-3.3,0.3-4.5,0.7c-4.9,2-6.8,6.6-5.1,12.5c1.3,4.6,4.8,10.6,10.4,13.8
				c2.7,1.5,5.6,2.3,8.6,2.3c6.7,0,13-4.1,15.1-9.7c1.1-2.9,0.6-6-1.4-8.8C428.9,544.5,417.6,540.1,410.2,540.1z M432.2,558.7
				c-1.5,4-6.3,8-12.6,8c-2.5,0-5-0.7-7.4-1.9c-6.4-3.5-8.8-10.8-9.2-12.2c-1.3-4.5,0-7.8,3.6-9.3c0.9-0.4,2.1-0.5,3.5-0.5
				c6.8,0,17.2,4.1,21,9.6C432.6,554.5,433,556.6,432.2,558.7z"/>
			<path fill="#3F352F" d="M481.7,540.9c-1.2-0.5-2.7-0.7-4.5-0.7c-7.4,0-18.7,4.4-23.1,10.7c-2,2.8-2.5,5.9-1.4,8.8
				c2.1,5.6,8.4,9.7,15.1,9.7c3,0,5.9-0.8,8.6-2.3c5.7-3.1,9.1-9.1,10.4-13.8C488.5,547.5,486.6,542.9,481.7,540.9z M484.3,552.6
				c-0.4,1.4-2.7,8.6-9.2,12.2c-2.4,1.3-4.8,1.9-7.4,1.9c-6.4,0-11.2-4-12.6-8c-0.8-2.1-0.4-4.3,1.1-6.4c3.8-5.5,14.2-9.6,21-9.6
				c1.4,0,2.6,0.2,3.5,0.5C484.3,544.8,485.6,548.1,484.3,552.6z"/>
			<path fill="#3F352F" d="M498.9,542.5h-0.6c0.1-0.3,0.2-0.5,0.2-0.8c0.7-2.6-0.2-4.6-2.7-5.4c-4-1.3-8.3-2-12.7-2
				c-13.7,0-25.9,6.2-31.8,9.2c-0.6,0.3-3.6,1.8-4.4,1.9c-0.5,0.1-6,0.1-6.4,0c-0.8-0.1-3.8-1.6-4.4-1.9c-5.9-3-18.1-9.2-31.8-9.2
				c-4.5,0-8.7,0.7-12.7,2c-2.4,0.8-3.4,2.8-2.7,5.4c0.1,0.2,0.1,0.5,0.2,0.8h-0.6c-2,0-3.6,1.6-3.6,3.6c0,2,1.6,3.6,3.6,3.6h3.2
				c2.3,5.4,5.6,11.7,10,16.7c4.5,5.1,9.9,7.7,16.3,8c6.6,0.3,12-1.4,15.8-5.1c3.1-3,4.5-6.5,5-8.4c2-7.3,3.7-7.7,4.8-7.8
				c1.1,0.1,2.7,0.5,4.8,7.8c0.5,1.8,1.9,5.4,5,8.4c3.6,3.4,8.4,5.2,14.4,5.2c0.5,0,1,0,1.5,0c6.5-0.3,11.8-2.9,16.3-8
				c4.4-5,7.8-11.3,10-16.7h3.2c2,0,3.6-1.6,3.6-3.6C502.5,544.1,500.8,542.5,498.9,542.5z M388.5,547.1c-0.5,0-1-0.4-1-1
				c0-0.5,0.4-1,1-1h1.5c0.2,0.6,0.4,1.3,0.7,1.9H388.5z M495.9,541.1c-1.3,4.9-5.6,16.1-12.3,23.6c-4,4.5-8.8,6.9-14.5,7.1
				c-0.5,0-0.9,0-1.4,0c-12.2,0-15.8-8.1-16.8-11.6c-2.2-7.8-4.3-9.4-7.2-9.7c0,0-0.2,0-0.2,0c-2.9,0.3-5,1.9-7.2,9.7
				c-1,3.5-4.6,11.6-16.8,11.6c-0.4,0-0.9,0-1.4,0c-5.7-0.3-10.4-2.6-14.5-7.1c-6.7-7.5-10.9-18.7-12.3-23.6c-0.4-1.6,0.2-2,0.9-2.2
				c3.7-1.2,7.7-1.9,11.9-1.9c13.1,0,24.9,6,30.6,8.9c0.6,0.3,4,2,5.3,2.2c0.9,0.1,6.2,0.1,7,0c1.3-0.2,4.7-1.9,5.3-2.2
				c5.7-2.9,17.5-8.9,30.6-8.9c4.2,0,8.2,0.6,11.9,1.9C495.7,539.1,496.3,539.4,495.9,541.1z M498.9,547.1h-2.2
				c0.3-0.7,0.5-1.3,0.7-1.9h1.5c0.5,0,1,0.4,1,1C499.8,546.7,499.4,547.1,498.9,547.1z"/>
			<path fill="#3F352F" d="M478.4,545.6c-0.7-0.1-1.4,0.4-1.5,1.1c-0.1,0.7,0.4,1.4,1.1,1.5c0,0,0.5,0.1,0.8,0.6
				c0.4,0.6,0.3,1.6-0.1,2.9c-0.2,0.7,0.1,1.4,0.8,1.7c0.1,0,0.3,0.1,0.4,0.1c0.6,0,1.1-0.3,1.3-0.9c0.7-2.1,0.7-3.8-0.1-5.1
				C480.1,545.9,478.6,545.6,478.4,545.6z"/>
		</g>
		<g>
			<path fill="#CCCCCC" d="M46.9,564.3c0.9,0.9,1.6,2,1.9,3.3h38.6V561H48.8C48.4,562.3,47.8,563.4,46.9,564.3z"/>
			<path fill="#E0D080" d="M16.8,555.3c1.3-2.3,3.8-3.7,6.5-3.7c0.7,0,1.3,0.1,1.9,0.3c0.9-3.2,3.8-5.5,7.2-5.5
				c3.4,0,6.3,2.4,7.2,5.5c0.6-0.2,1.3-0.3,1.9-0.3c2.7,0,5.1,1.4,6.5,3.7c0.6,1,0.9,2,1,3.1h38.3v-4.9c0-20.4-16.6-37.1-37.1-37.1
				S13.2,533,13.2,553.5v4.9h2.7C16,557.3,16.3,556.3,16.8,555.3z"/>
			<path fill="#A99C83" d="M32.4,567.5c1.7,0,3.2-1.4,3.2-3.2c0-1.7-1.4-3.2-3.2-3.2c-1.7,0-3.2,1.4-3.2,3.2
				C29.3,566.1,30.7,567.5,32.4,567.5z"/>
			<path fill="#C5BCA5" d="M18,564.3c-0.9-0.9-1.6-2-1.9-3.3h-2.9v6.6h2.9C16.5,566.3,17.1,565.2,18,564.3z"/>
			<path fill="#E0D080" d="M49,570.2c-0.1,1.1-0.4,2.1-1,3.1c-1.3,2.3-3.8,3.7-6.5,3.7c-0.7,0-1.3-0.1-1.9-0.3
				c-0.9,3.2-3.8,5.5-7.2,5.5h0c-3.4,0-6.3-2.4-7.2-5.5c-0.6,0.2-1.3,0.3-1.9,0.3c-2.7,0-5.1-1.4-6.5-3.7c-0.6-1-0.9-2-1-3.1h-3.4
				l-9.6,10.3c0.7,0.8,3.6,2.7,12.7,4.4c9.3,1.7,21.6,2.7,34.8,2.7c13.2,0,25.5-1,34.8-2.7c9-1.7,12-3.6,12.7-4.4l-9.6-10.3H49z"/>
			<path fill="#D48C7E" d="M20.8,565.4c-1.3,0.8-2.2,2.1-2.3,3.6c-0.1,1,0.1,2,0.6,2.9c0.9,1.5,2.5,2.4,4.2,2.4
				c0.8,0,1.6-0.2,2.3-0.6c0.2-0.1,0.4-0.2,0.6-0.2c0.2,0,0.5,0.1,0.7,0.2c0.4,0.2,0.7,0.7,0.7,1.1c0,2.6,2.2,4.8,4.8,4.8h0
				c2.6,0,4.8-2.1,4.8-4.8c0-0.5,0.3-0.9,0.7-1.1c0.4-0.2,0.9-0.2,1.3,0c0.7,0.4,1.5,0.6,2.3,0.6c1.7,0,3.3-0.9,4.2-2.4
				c0.5-0.9,0.7-1.9,0.6-2.9c-0.2-1.5-1-2.8-2.3-3.6c-0.4-0.2-0.6-0.7-0.6-1.1c0-0.5,0.2-0.9,0.6-1.1c2.3-1.3,3-4.3,1.7-6.6
				c-0.9-1.5-2.5-2.4-4.2-2.4c-0.8,0-1.6,0.2-2.3,0.6c-0.4,0.2-0.9,0.2-1.3,0c-0.4-0.2-0.7-0.7-0.7-1.1c0-2.6-2.2-4.8-4.8-4.8
				c-2.6,0-4.8,2.1-4.8,4.8c0,0.5-0.3,0.9-0.7,1.1c-0.4,0.2-0.9,0.2-1.3,0c-0.7-0.4-1.5-0.6-2.3-0.6c-1.7,0-3.3,0.9-4.2,2.4
				c-0.5,0.9-0.7,1.9-0.6,2.9c0.2,1.5,1,2.8,2.3,3.6c0.4,0.2,0.6,0.7,0.6,1.1C21.5,564.8,21.2,565.2,20.8,565.4z M32.4,558.5
				c3.2,0,5.8,2.6,5.8,5.8s-2.6,5.8-5.8,5.8c-3.2,0-5.8-2.6-5.8-5.8S29.2,558.5,32.4,558.5z"/>
			<path fill="#3F352F" d="M90,568.4v-14.9c0-21.9-17.8-39.7-39.7-39.7c-21.9,0-39.7,17.8-39.7,39.7v14.9L0.4,579.3
				c-0.2,0.2-0.4,0.6-0.4,0.9c0,1.7,1.5,3.2,4.5,4.5c2.5,1.1,6,2.1,10.5,2.9c9.4,1.8,21.9,2.7,35.3,2.7c13.3,0,25.9-1,35.3-2.7
				c4.5-0.8,8-1.8,10.5-2.9c3-1.3,4.5-2.8,4.5-4.5c0-0.3-0.1-0.7-0.4-0.9L90,568.4z M13.2,553.5c0-20.4,16.6-37.1,37.1-37.1
				s37.1,16.6,37.1,37.1v4.9H49c-0.1-1.1-0.4-2.1-1-3.1c-1.3-2.3-3.8-3.7-6.5-3.7c-0.7,0-1.3,0.1-1.9,0.3c-0.9-3.2-3.8-5.5-7.2-5.5
				c-3.4,0-6.3,2.4-7.2,5.5c-0.6-0.2-1.3-0.3-1.9-0.3c-2.7,0-5.1,1.4-6.5,3.7c-0.6,1-0.9,2-1,3.1h-2.7V553.5z M87.4,561v6.6H48.8
				c-0.3-1.2-1-2.4-1.9-3.3c0.9-0.9,1.6-2.1,1.9-3.3H87.4z M20.8,563.2c-1.3-0.8-2.2-2.1-2.3-3.6c-0.1-1,0.1-2,0.6-2.9
				c0.9-1.5,2.5-2.4,4.2-2.4c0.8,0,1.6,0.2,2.3,0.6c0.4,0.2,0.9,0.2,1.3,0c0.4-0.2,0.7-0.7,0.7-1.1c0-2.6,2.2-4.8,4.8-4.8
				c2.6,0,4.8,2.1,4.8,4.8c0,0.5,0.3,0.9,0.7,1.1c0.4,0.2,0.9,0.2,1.3,0c0.7-0.4,1.5-0.6,2.3-0.6c1.7,0,3.3,0.9,4.2,2.4
				c1.3,2.3,0.5,5.2-1.7,6.6c-0.4,0.2-0.6,0.7-0.6,1.1c0,0.5,0.2,0.9,0.6,1.1c1.3,0.8,2.2,2.1,2.3,3.6c0.1,1-0.1,2-0.6,2.9
				c-0.9,1.5-2.5,2.4-4.2,2.4c-0.8,0-1.6-0.2-2.3-0.6c-0.4-0.2-0.9-0.2-1.3,0c-0.4,0.2-0.7,0.7-0.7,1.1c0,2.6-2.2,4.8-4.8,4.8h0
				c-2.6,0-4.8-2.1-4.8-4.8c0-0.5-0.3-0.9-0.7-1.1c-0.2-0.1-0.4-0.2-0.7-0.2c-0.2,0-0.4,0.1-0.6,0.2c-0.7,0.4-1.5,0.6-2.3,0.6
				c-1.7,0-3.3-0.9-4.2-2.4c-0.5-0.9-0.7-1.9-0.6-2.9c0.2-1.5,1-2.8,2.3-3.6c0.4-0.2,0.6-0.7,0.6-1.1
				C21.5,563.8,21.2,563.4,20.8,563.2z M13.2,561h2.9c0.3,1.2,1,2.4,1.9,3.3c-0.9,0.9-1.6,2-1.9,3.3h-2.9V561z M85.1,584.9
				c-9.3,1.7-21.6,2.7-34.8,2.7c-13.2,0-25.5-1-34.8-2.7c-9-1.7-12-3.6-12.7-4.4l9.6-10.3h3.4c0.1,1.1,0.4,2.1,1,3.1
				c1.3,2.3,3.8,3.7,6.5,3.7c0.7,0,1.3-0.1,1.9-0.3c0.9,3.2,3.8,5.5,7.2,5.5h0c3.4,0,6.3-2.4,7.2-5.5c0.6,0.2,1.3,0.3,1.9,0.3
				c2.7,0,5.1-1.4,6.5-3.7c0.6-1,0.9-2,1-3.1h39.1l9.6,10.3C97,581.4,94.1,583.2,85.1,584.9z"/>
			<path fill="#3F352F" d="M32.4,570.1c3.2,0,5.8-2.6,5.8-5.8s-2.6-5.8-5.8-5.8c-3.2,0-5.8,2.6-5.8,5.8S29.2,570.1,32.4,570.1z
				 M32.4,561.1c1.7,0,3.2,1.4,3.2,3.2c0,1.7-1.4,3.2-3.2,3.2c-1.7,0-3.2-1.4-3.2-3.2C29.3,562.6,30.7,561.1,32.4,561.1z"/>
		</g>
		<g>
			<path fill="#CCCCCC" d="M245.7,553.6c-0.7,0-1.4,0.3-1.8,0.7c-2.2,2.2-4,4.3-5.5,5.9c-3.2,3.6-4.2,4.6-5.4,4.6
				c-0.6,0-1.1-0.2-1.4-0.7c-1-1.8,0.4-35.1,0.4-35.9c0-0.8-0.2-1.5-0.7-2c-0.4-0.4-0.9-0.6-1.5-0.6c-1.1,0-2.2,0.9-2.6,3.4
				c-1.1,6.6-2.1,19.9-2.2,20.3c-0.1,0.7-0.6,1.2-1.3,1.2c-0.8,0-1.3-0.3-1.5-0.8c-0.8-1.8-1.3-23.2-1.4-24.4c-0.1-1.5-1.2-2-2.1-2
				c-1,0-2.3,0.7-2.3,2.6c0,0-0.7,23.8-1.2,24.9c-0.1,0.2-0.3,0.5-0.6,0.6c-0.2,0.1-0.5,0.2-0.8,0.2c-0.5,0-0.9-0.2-1.1-0.6
				c-0.6-1-1-4.4-1.7-14.8c-0.1-2.1-0.3-4.1-0.4-5.9c-0.2-2-1.2-2.7-2.1-2.7c-0.6,0-1.1,0.2-1.5,0.7c-0.5,0.6-0.8,1.4-0.8,2.4
				c1,20.2,0.6,21.1,0.3,21.7c-0.2,0.5-0.7,0.8-1.2,0.8h0c0,0-1,0-1.4-0.7c-0.6-1-2.5-12.2-2.6-13.1c-0.2-1.3-1.2-1.8-2.2-1.8
				c-0.4,0-1.1,0.1-1.6,0.8c-0.6,0.8-0.8,2.1-0.5,3.7c0,0,6.7,36.4,7.3,39.6c0,0.1-0.8,11.2-0.8,11.2h27.1c0.1-3.7,0.7-8.3,2.8-11.9
				c0,0,10.2-16.6,13.3-21.8c1.1-1.8,1.4-3.4,0.8-4.3C247.3,553.9,246.5,553.6,245.7,553.6z M209.7,578.1c-0.1,0-0.1,0-0.2,0
				c-0.6,0-1.2-0.5-1.3-1.1l-3.2-21.1c-0.1-0.7,0.4-1.4,1.1-1.5c0.7-0.1,1.4,0.4,1.5,1.1l3.2,21.1C211,577.3,210.5,578,209.7,578.1z
				 M216.3,576.8c0,0.7-0.6,1.3-1.3,1.3c-0.7,0-1.3-0.6-1.3-1.3v-21.1c0-0.7,0.6-1.3,1.3-1.3c0.7,0,1.3,0.6,1.3,1.3V576.8z
				 M225,555.9l-3.2,21.1c-0.1,0.7-0.7,1.1-1.3,1.1c-0.1,0-0.1,0-0.2,0c-0.7-0.1-1.2-0.8-1.1-1.5l3.2-21.1c0.1-0.7,0.8-1.2,1.5-1.1
				C224.6,554.5,225.1,555.2,225,555.9z"/>
			<path fill="#C5BCA5" d="M263.2,576.2c0,0.7-0.1,1.3-0.1,1.8h27.5l-0.1-1.8H263.2z"/>
			<path fill="#C5BCA5" d="M203.4,595.2l-0.1,1.8h27.5c0-0.5-0.1-1.1-0.1-1.8H203.4z"/>
			<path fill="#CCCCCC" d="M294.7,518.3c-0.9,0-1.9,0.6-2.2,1.8c-0.1,0.9-2,12.1-2.6,13.1c-0.4,0.7-1.3,0.7-1.4,0.7h0
				c-0.5,0-1-0.3-1.2-0.8c-0.3-0.6-0.7-1.5,0.3-21.7c0-1-0.2-1.9-0.8-2.4c-0.4-0.4-1-0.7-1.5-0.7c-0.9,0-2,0.7-2.1,2.7
				c-0.1,1.8-0.3,3.8-0.4,5.9c-0.7,10.4-1,13.8-1.7,14.8c-0.2,0.4-0.7,0.6-1.1,0.6c-0.3,0-0.6,0-0.8-0.2c-0.2-0.1-0.5-0.3-0.6-0.6
				c-0.6-1.1-1.2-24.9-1.2-24.9c0-1.9-1.3-2.6-2.3-2.6c-0.9,0-2,0.5-2.1,2c-0.1,1.2-0.6,22.5-1.4,24.4c-0.2,0.5-0.7,0.8-1.5,0.8
				c-0.7,0-1.3-0.5-1.3-1.2c0-0.4-1.1-13.7-2.2-20.3c-0.4-2.5-1.5-3.4-2.6-3.4c-0.6,0-1.1,0.2-1.5,0.6c-0.5,0.5-0.7,1.2-0.7,2
				c0,0.8,1.3,34.1,0.4,35.9c-0.3,0.5-0.8,0.7-1.4,0.7c-1.2,0-2.2-1-5.4-4.6c-1.5-1.6-3.3-3.7-5.5-5.9c-0.5-0.5-1.1-0.7-1.8-0.7
				c-0.8,0-1.6,0.4-1.9,1c-0.5,1-0.2,2.5,0.8,4.3c3.1,5.2,13.3,21.8,13.3,21.8c2.2,3.5,2.8,8.2,2.8,11.9h27.1c0,0-0.8-11.1-0.8-11.2
				c0.5-3.3,7.3-39.6,7.3-39.6c0.3-1.6,0.1-2.9-0.5-3.7C295.7,518.4,295,518.3,294.7,518.3z M273.6,559c-0.1,0-0.1,0-0.2,0
				c-0.6,0-1.2-0.5-1.3-1.1l-3.2-21.1c-0.1-0.7,0.4-1.4,1.1-1.5c0.7-0.1,1.4,0.4,1.5,1.1l3.2,21.1
				C274.9,558.2,274.4,558.9,273.6,559z M280.2,557.7c0,0.7-0.6,1.3-1.3,1.3s-1.3-0.6-1.3-1.3v-21.1c0-0.7,0.6-1.3,1.3-1.3
				s1.3,0.6,1.3,1.3V557.7z M288.9,536.8l-3.2,21.1c-0.1,0.7-0.7,1.1-1.3,1.1c-0.1,0-0.1,0-0.2,0c-0.7-0.1-1.2-0.8-1.1-1.5l3.2-21.1
				c0.1-0.7,0.8-1.2,1.5-1.1C288.5,535.4,289,536.1,288.9,536.8z"/>
			<path fill="#3F352F" d="M223.9,554.4c-0.7-0.1-1.4,0.4-1.5,1.1l-3.2,21.1c-0.1,0.7,0.4,1.4,1.1,1.5c0.1,0,0.1,0,0.2,0
				c0.6,0,1.2-0.5,1.3-1.1l3.2-21.1C225.1,555.2,224.6,554.5,223.9,554.4z"/>
			<path fill="#3F352F" d="M207.6,555.5c-0.1-0.7-0.8-1.2-1.5-1.1c-0.7,0.1-1.2,0.8-1.1,1.5l3.2,21.1c0.1,0.7,0.7,1.1,1.3,1.1
				c0.1,0,0.1,0,0.2,0c0.7-0.1,1.2-0.8,1.1-1.5L207.6,555.5z"/>
			<path fill="#3F352F" d="M215,554.4c-0.7,0-1.3,0.6-1.3,1.3v21.1c0,0.7,0.6,1.3,1.3,1.3c0.7,0,1.3-0.6,1.3-1.3v-21.1
				C216.3,555,215.7,554.4,215,554.4z"/>
			<path fill="#3F352F" d="M245.7,550.9c-1.4,0-2.8,0.6-3.7,1.5c-2.2,2.3-7.4,8-8.1,8.8c-0.1-5.6,0.8-32.1,0.8-33
				c0-1.5-0.5-2.9-1.4-3.9c-0.9-0.9-2.1-1.4-3.4-1.4c-2.3,0-4.8,1.8-5.2,5.7c-0.2,2-0.5,4.8-0.8,7.7c-0.1-2-0.1-4-0.1-5.5
				c0-2.4-0.1-4.5-0.2-5.7c-0.1-3-2.5-4.5-4.7-4.5c-2.4,0-4.9,1.8-4.9,5.2c0,0-0.1,7-0.2,9.6c-0.1-1.9-0.3-3.8-0.4-5.4
				c-0.3-3.6-2.6-5.1-4.8-5.1c-1.3,0-2.5,0.5-3.4,1.5c-1,1.1-1.6,2.6-1.5,4.4c0.2,3.3,0.3,6.1,0.4,8.5c0-0.1-0.4-4.3-4.8-4.3
				c-1.4,0-2.8,0.6-3.7,1.7c-0.8,1-1.7,2.8-1.1,5.8l0.6,3c1.7,9,6.1,32.6,6.7,36.4l-1.2,16.6c0,0.4,0.1,0.7,0.4,1
				c0.2,0.3,0.6,0.4,1,0.4h30.4c0.4,0,0.7-0.2,1-0.5c0.3-0.3,0.4-0.7,0.3-1.1c0-0.1-1.4-10.2,2.1-16.1c0,0,10.2-16.7,13.3-21.9
				c2.1-3.6,1.5-5.9,0.9-7C249.1,551.8,247.5,550.9,245.7,550.9z M203.3,597.1l0.1-1.8h27.3c0,0.7,0.1,1.3,0.1,1.8H203.3z
				 M246.8,558.9c-3.1,5.2-13.3,21.8-13.3,21.8c-2.2,3.5-2.8,8.2-2.8,11.9h-27.1c0,0,0.8-11.1,0.8-11.2c-0.5-3.3-7.3-39.6-7.3-39.6
				c-0.3-1.6-0.1-2.9,0.5-3.7c0.5-0.7,1.3-0.8,1.6-0.8c0.9,0,1.9,0.6,2.2,1.8c0.1,0.9,2,12.1,2.6,13.1c0.4,0.7,1.3,0.7,1.4,0.7h0
				c0.5,0,1-0.3,1.2-0.8c0.3-0.6,0.7-1.5-0.3-21.7c0-1,0.2-1.9,0.8-2.4c0.4-0.4,1-0.7,1.5-0.7c0.9,0,2,0.7,2.1,2.7
				c0.1,1.8,0.3,3.8,0.4,5.9c0.7,10.4,1,13.8,1.7,14.8c0.2,0.4,0.7,0.6,1.1,0.6c0.3,0,0.6,0,0.8-0.2c0.2-0.1,0.5-0.3,0.6-0.6
				c0.6-1.1,1.2-24.9,1.2-24.9c0-1.9,1.3-2.6,2.3-2.6c0.9,0,2,0.5,2.1,2c0.1,1.2,0.6,22.5,1.4,24.4c0.2,0.5,0.7,0.8,1.5,0.8
				c0.7,0,1.3-0.5,1.3-1.2c0-0.4,1.1-13.7,2.2-20.3c0.4-2.5,1.5-3.4,2.6-3.4c0.6,0,1.1,0.2,1.5,0.6c0.5,0.5,0.7,1.2,0.7,2
				c0,0.8-1.3,34.1-0.4,35.9c0.3,0.5,0.8,0.7,1.4,0.7c1.2,0,2.2-1,5.4-4.6c1.5-1.6,3.3-3.7,5.5-5.9c0.5-0.5,1.1-0.7,1.8-0.7
				c0.8,0,1.6,0.4,1.9,1C248.2,555.5,247.9,557.1,246.8,558.9z"/>
			<path fill="#3F352F" d="M271.5,536.4c-0.1-0.7-0.8-1.2-1.5-1.1c-0.7,0.1-1.2,0.8-1.1,1.5l3.2,21.1c0.1,0.7,0.7,1.1,1.3,1.1
				c0.1,0,0.1,0,0.2,0c0.7-0.1,1.2-0.8,1.1-1.5L271.5,536.4z"/>
			<path fill="#3F352F" d="M287.8,535.3c-0.7-0.1-1.4,0.4-1.5,1.1l-3.2,21.1c-0.1,0.7,0.4,1.4,1.1,1.5c0.1,0,0.1,0,0.2,0
				c0.6,0,1.2-0.5,1.3-1.1l3.2-21.1C289,536.1,288.5,535.4,287.8,535.3z"/>
			<path fill="#3F352F" d="M278.9,535.3c-0.7,0-1.3,0.6-1.3,1.3v21.1c0,0.7,0.6,1.3,1.3,1.3s1.3-0.6,1.3-1.3v-21.1
				C280.2,535.9,279.7,535.3,278.9,535.3z"/>
			<path fill="#3F352F" d="M294.7,515.6c-4.4,0-4.8,4.2-4.8,4.3c0.1-2.3,0.2-5.1,0.4-8.5c0.1-1.7-0.4-3.3-1.5-4.4
				c-0.9-0.9-2.1-1.5-3.4-1.5c-2.2,0-4.5,1.6-4.8,5.1c-0.1,1.7-0.3,3.5-0.4,5.4c-0.1-2.5-0.2-9.6-0.2-9.6c0-3.4-2.5-5.2-4.9-5.2
				c-2.2,0-4.6,1.6-4.7,4.5c-0.1,1.2-0.1,3.3-0.2,5.7c0,1.6-0.1,3.5-0.1,5.5c-0.3-2.9-0.6-5.7-0.8-7.7c-0.4-4-2.9-5.7-5.2-5.7
				c-1.3,0-2.5,0.5-3.4,1.4c-1,1-1.5,2.4-1.4,3.9c0,0.8,0.9,27.3,0.8,33c-0.7-0.7-5.9-6.5-8.1-8.8c-1-1-2.3-1.5-3.7-1.5
				c-1.8,0-3.4,0.9-4.2,2.3c-0.6,1.1-1.3,3.4,0.9,7c3.1,5.2,13.3,21.9,13.3,21.9c3.6,5.9,2.2,16,2.1,16.1c-0.1,0.4,0.1,0.8,0.3,1.1
				c0.3,0.3,0.6,0.5,1,0.5h30.4c0.4,0,0.7-0.2,1-0.4c0.2-0.3,0.4-0.6,0.4-1l-1.2-16.6c0.6-3.8,5-27.4,6.7-36.4l0.6-3
				c0.6-3.1-0.3-4.9-1.1-5.8C297.4,516.3,296.1,515.6,294.7,515.6z M263.1,578c0-0.5,0.1-1.1,0.1-1.8h27.3l0.1,1.8H263.1z
				 M296.8,522.7c0,0-6.7,36.4-7.3,39.6c0,0.1,0.8,11.2,0.8,11.2h-27.1c-0.1-3.7-0.7-8.3-2.8-11.9c0,0-10.2-16.6-13.3-21.8
				c-1.1-1.8-1.4-3.4-0.8-4.3c0.4-0.6,1.1-1,1.9-1c0.7,0,1.4,0.3,1.8,0.7c2.2,2.2,4,4.3,5.5,5.9c3.2,3.6,4.2,4.6,5.4,4.6
				c0.6,0,1.1-0.2,1.4-0.7c1-1.8-0.4-35.1-0.4-35.9c0-0.8,0.2-1.5,0.7-2c0.4-0.4,0.9-0.6,1.5-0.6c1.1,0,2.2,0.9,2.6,3.4
				c1.1,6.6,2.1,19.9,2.2,20.3c0.1,0.7,0.6,1.2,1.3,1.2c0.8,0,1.3-0.3,1.5-0.8c0.8-1.8,1.3-23.2,1.4-24.4c0.1-1.5,1.2-2,2.1-2
				c1,0,2.3,0.7,2.3,2.6c0,0,0.7,23.8,1.2,24.9c0.1,0.2,0.3,0.5,0.6,0.6c0.2,0.1,0.5,0.2,0.8,0.2c0.5,0,0.9-0.2,1.1-0.6
				c0.6-1,1-4.4,1.7-14.8c0.1-2.1,0.3-4.1,0.4-5.9c0.2-2,1.2-2.7,2.1-2.7c0.6,0,1.1,0.2,1.5,0.7c0.5,0.6,0.8,1.4,0.8,2.4
				c-1,20.2-0.6,21.1-0.3,21.7c0.2,0.5,0.7,0.8,1.2,0.8h0c0,0,1,0,1.4-0.7c0.6-1,2.5-12.2,2.6-13.1c0.2-1.3,1.2-1.8,2.2-1.8
				c0.4,0,1.1,0.1,1.6,0.8C296.9,519.8,297.1,521.1,296.8,522.7z"/>
		</g>
		<g>
			<g>
				<path fill="#CCCCCC" d="M149.2,542.2c-7.4,0-13.4,6-13.4,13.4s6,13.4,13.4,13.4c7.4,0,13.4-6,13.4-13.4S156.6,542.2,149.2,542.2
					z M149.2,565.7c-5.6,0-10.1-4.5-10.1-10.1s4.5-10.1,10.1-10.1s10.1,4.5,10.1,10.1S154.8,565.7,149.2,565.7z"/>
			</g>
			<path fill="#CCCCCC" d="M154.3,554h-3.4v-3.4c0-0.9-0.7-1.7-1.7-1.7h0c-0.9,0-1.7,0.7-1.7,1.7v3.4h-3.4c-0.9,0-1.7,0.7-1.7,1.7v0
				c0,0.9,0.7,1.7,1.7,1.7h3.4v3.4c0,0.9,0.7,1.7,1.7,1.7h0c0.9,0,1.7-0.7,1.7-1.7v-3.4h3.4c0.9,0,1.7-0.7,1.7-1.7v0
				C155.9,554.7,155.2,554,154.3,554z"/>
		</g>
		<g>
			<g>
				<path fill="#CCCCCC" d="M343.1,542.2c-7.4,0-13.4,6-13.4,13.4s6,13.4,13.4,13.4s13.4-6,13.4-13.4S350.5,542.2,343.1,542.2z
					 M343.1,565.7c-5.6,0-10.1-4.5-10.1-10.1s4.5-10.1,10.1-10.1c5.6,0,10.1,4.5,10.1,10.1S348.7,565.7,343.1,565.7z"/>
			</g>
			<path fill="#CCCCCC" d="M348.2,554h-3.4v-3.4c0-0.9-0.7-1.7-1.7-1.7h0c-0.9,0-1.7,0.7-1.7,1.7v3.4h-3.4c-0.9,0-1.7,0.7-1.7,1.7v0
				c0,0.9,0.7,1.7,1.7,1.7h3.4v3.4c0,0.9,0.7,1.7,1.7,1.7h0c0.9,0,1.7-0.7,1.7-1.7v-3.4h3.4c0.9,0,1.7-0.7,1.7-1.7v0
				C349.8,554.7,349.1,554,348.2,554z"/>
		</g>
		<g>
			<g>
				<path fill="#CCCCCC" d="M556.5,542.2c-7.4,0-13.4,6-13.4,13.4s6,13.4,13.4,13.4s13.4-6,13.4-13.4S563.9,542.2,556.5,542.2z
					 M556.5,565.7c-5.6,0-10.1-4.5-10.1-10.1s4.5-10.1,10.1-10.1c5.6,0,10.1,4.5,10.1,10.1S562.1,565.7,556.5,565.7z"/>
			</g>
			<path fill="#CCCCCC" d="M561.6,554h-3.4v-3.4c0-0.9-0.7-1.7-1.7-1.7h0c-0.9,0-1.7,0.7-1.7,1.7v3.4h-3.4c-0.9,0-1.7,0.7-1.7,1.7v0
				c0,0.9,0.7,1.7,1.7,1.7h3.4v3.4c0,0.9,0.7,1.7,1.7,1.7h0c0.9,0,1.7-0.7,1.7-1.7v-3.4h3.4c0.9,0,1.7-0.7,1.7-1.7v0
				C563.2,554.7,562.5,554,561.6,554z"/>
		</g>
	</g>
</g>
</svg>
