<?xml version="1.0" encoding="utf-8"?>
<!-- Generator: Adobe Illustrator 19.1.0, SVG Export Plug-In . SVG Version: 6.00 Build 0)  -->
<svg version="1.1" id="Livello_1" xmlns="http://www.w3.org/2000/svg" xmlns:xlink="http://www.w3.org/1999/xlink" x="0px" y="0px"
	 viewBox="0 0 725.1 98.3" enable-background="new 0 0 725.1 98.3" xml:space="preserve">
<g>
	<g>
		<path fill="#CCCCCC" d="M609.2,62.3h39.2V46.2h-39.2V62.3z M641,53.3c0.2-0.2,0.6-0.4,0.9-0.4c0.3,0,0.7,0.1,0.9,0.4
			c0.2,0.2,0.4,0.6,0.4,0.9c0,0.3-0.1,0.7-0.4,0.9c-0.2,0.2-0.6,0.4-0.9,0.4c-0.3,0-0.7-0.1-0.9-0.4c-0.2-0.2-0.4-0.6-0.4-0.9
			C640.7,53.9,640.8,53.6,641,53.3z M630.4,53.3c0.2-0.2,0.6-0.4,0.9-0.4c0.3,0,0.7,0.1,0.9,0.4c0.2,0.2,0.4,0.6,0.4,0.9
			c0,0.3-0.1,0.7-0.4,0.9c-0.2,0.2-0.6,0.4-0.9,0.4c-0.3,0-0.7-0.1-0.9-0.4c-0.2-0.2-0.4-0.6-0.4-0.9
			C630,53.9,630.2,53.6,630.4,53.3z M619.8,53.3c0.2-0.2,0.6-0.4,0.9-0.4c0.3,0,0.7,0.1,0.9,0.4c0.2,0.2,0.4,0.6,0.4,0.9
			c0,0.3-0.1,0.7-0.4,0.9c-0.2,0.2-0.6,0.4-0.9,0.4c-0.3,0-0.7-0.1-0.9-0.4c-0.2-0.2-0.4-0.6-0.4-0.9
			C619.4,53.9,619.5,53.6,619.8,53.3z"/>
		<path fill="#CCCCCC" d="M673.3,52.9h2.7v-3.3h-20.2v9.3H676v-3.3h-2.7c-0.7,0-1.3-0.6-1.3-1.3C672,53.5,672.6,52.9,673.3,52.9z
			 M663.6,55.2c-0.2,0.2-0.6,0.4-0.9,0.4c-0.3,0-0.7-0.1-0.9-0.4c-0.2-0.2-0.4-0.6-0.4-0.9c0-0.3,0.1-0.7,0.4-0.9
			c0.2-0.2,0.6-0.4,0.9-0.4c0.3,0,0.7,0.1,0.9,0.4c0.2,0.2,0.4,0.6,0.4,0.9C664,54.6,663.9,54.9,663.6,55.2z"/>
		<path fill="#A8D6C6" d="M651.1,64.8h29.6v-9.2h-2v4.6c0,0.7-0.6,1.3-1.3,1.3h-22.9c-0.7,0-1.3-0.6-1.3-1.3V48.3
			c0-0.7,0.6-1.3,1.3-1.3h22.9c0.7,0,1.3,0.6,1.3,1.3v4.6h2v-9.2h-29.6V64.8z"/>
		<rect x="683.3" y="46.2" fill="#CCCCCC" width="5.1" height="16.1"/>
		<path fill="#CCCCCC" d="M716.8,54.3c0,3.2-1.1,6.1-2.8,8h8.5V46.2H714C715.7,48.2,716.8,51.1,716.8,54.3z"/>
		<path fill="#CCCCCC" d="M708.7,46.2h-9.6v16.1h9.6c2.9,0,5.4-3.7,5.4-8S711.6,46.2,708.7,46.2z M702.1,55.2
			c-0.2,0.2-0.6,0.4-0.9,0.4c-0.3,0-0.7-0.1-0.9-0.4c-0.2-0.2-0.4-0.6-0.4-0.9c0-0.3,0.1-0.7,0.4-0.9c0.2-0.2,0.6-0.4,0.9-0.4
			c0.3,0,0.7,0.1,0.9,0.4c0.2,0.2,0.4,0.6,0.4,0.9C702.5,54.6,702.4,54.9,702.1,55.2z"/>
		<rect x="691.1" y="43.7" fill="#D48C7E" width="5.5" height="21.1"/>
		<path fill="#3F352F" d="M642,55.6c0.3,0,0.7-0.1,0.9-0.4c0.2-0.2,0.4-0.6,0.4-0.9c0-0.3-0.1-0.7-0.4-0.9c-0.2-0.2-0.6-0.4-0.9-0.4
			c-0.3,0-0.7,0.1-0.9,0.4c-0.2,0.2-0.4,0.6-0.4,0.9c0,0.3,0.1,0.7,0.4,0.9C641.3,55.4,641.6,55.6,642,55.6z"/>
		<path fill="#3F352F" d="M631.4,55.6c0.3,0,0.7-0.1,0.9-0.4c0.2-0.2,0.4-0.6,0.4-0.9c0-0.3-0.1-0.7-0.4-0.9
			c-0.2-0.2-0.6-0.4-0.9-0.4c-0.3,0-0.7,0.1-0.9,0.4c-0.2,0.2-0.4,0.6-0.4,0.9c0,0.3,0.1,0.7,0.4,0.9
			C630.7,55.4,631,55.6,631.4,55.6z"/>
		<path fill="#3F352F" d="M620.7,55.6c0.3,0,0.7-0.1,0.9-0.4c0.2-0.2,0.4-0.6,0.4-0.9c0-0.3-0.1-0.7-0.4-0.9
			c-0.2-0.2-0.6-0.4-0.9-0.4c-0.3,0-0.7,0.1-0.9,0.4c-0.2,0.2-0.4,0.6-0.4,0.9c0,0.3,0.1,0.7,0.4,0.9
			C620,55.4,620.4,55.6,620.7,55.6z"/>
		<path fill="#3F352F" d="M662.7,52.9c-0.3,0-0.7,0.1-0.9,0.4c-0.2,0.2-0.4,0.6-0.4,0.9c0,0.3,0.1,0.7,0.4,0.9
			c0.2,0.2,0.6,0.4,0.9,0.4c0.3,0,0.7-0.1,0.9-0.4c0.2-0.2,0.4-0.6,0.4-0.9c0-0.3-0.1-0.7-0.4-0.9C663.4,53.1,663,52.9,662.7,52.9z"
			/>
		<path fill="#3F352F" d="M701.2,52.9c-0.3,0-0.7,0.1-0.9,0.4c-0.2,0.2-0.4,0.6-0.4,0.9c0,0.3,0.1,0.7,0.4,0.9
			c0.2,0.2,0.6,0.4,0.9,0.4c0.3,0,0.7-0.1,0.9-0.4c0.2-0.2,0.4-0.6,0.4-0.9c0-0.3-0.1-0.7-0.4-0.9C701.9,53.1,701.5,52.9,701.2,52.9
			z"/>
		<path fill="#3F352F" d="M723.8,43.6h-24.7v-1.2c0-0.7-0.6-1.3-1.3-1.3h-8.1c-0.7,0-1.3,0.6-1.3,1.3v1.2h-5.1v-1.2
			c0-0.7-0.6-1.3-1.3-1.3h-32.2c-0.7,0-1.3,0.6-1.3,1.3v1.2h-40.5c-0.7,0-1.3,0.6-1.3,1.3v18.7c0,0.7,0.6,1.3,1.3,1.3h40.5v1.2
			c0,0.7,0.6,1.3,1.3,1.3H682c0.7,0,1.3-0.6,1.3-1.3v-1.2h5.1v1.2c0,0.7,0.6,1.3,1.3,1.3h8.1c0.7,0,1.3-0.6,1.3-1.3v-1.2h24.7
			c0.7,0,1.3-0.6,1.3-1.3V44.9C725.1,44.2,724.5,43.6,723.8,43.6z M648.4,62.3h-39.2V46.2h39.2V62.3z M680.7,52.9h-2v-4.6
			c0-0.7-0.6-1.3-1.3-1.3h-22.9c-0.7,0-1.3,0.6-1.3,1.3v11.9c0,0.7,0.6,1.3,1.3,1.3h22.9c0.7,0,1.3-0.6,1.3-1.3v-4.6h2v9.2h-29.6
			V43.7h29.6V52.9z M673.3,55.6h2.7v3.3h-20.2v-9.3H676v3.3h-2.7c-0.7,0-1.3,0.6-1.3,1.3C672,55,672.6,55.6,673.3,55.6z M688.4,62.3
			h-5.1V46.2h5.1V62.3z M696.5,64.8h-5.5V43.7h5.5V64.8z M708.7,62.3h-9.6V46.2h9.6c2.9,0,5.4,3.7,5.4,8S711.6,62.3,708.7,62.3z
			 M722.5,62.3H714c1.7-2,2.8-4.8,2.8-8c0-3.2-1.1-6.1-2.8-8h8.5V62.3z"/>
	</g>
	<g>
		<path fill="#C1573F" d="M388.5,43.7c-0.5,0-1,0.4-1,1c0,0.5,0.4,1,1,1h2.2c-0.3-0.7-0.5-1.3-0.7-1.9H388.5z"/>
		<path fill="#CCCCCC" d="M410.2,41.4c-1.4,0-2.6,0.2-3.5,0.5c-3.6,1.5-4.9,4.8-3.6,9.3c0.4,1.4,2.7,8.6,9.2,12.2
			c2.4,1.3,4.8,1.9,7.4,1.9c6.4,0,11.2-4,12.6-8c0.8-2.1,0.4-4.3-1.1-6.4C427.3,45.4,416.9,41.4,410.2,41.4z M409.3,46.8
			c0,0-0.5,0.1-0.8,0.6c-0.4,0.6-0.3,1.6,0.1,2.9c0.2,0.7-0.1,1.4-0.8,1.7c-0.1,0-0.3,0.1-0.4,0.1c-0.6,0-1.1-0.3-1.3-0.9
			c-0.7-2.1-0.7-3.8,0.1-5.1c0.9-1.5,2.5-1.8,2.7-1.8c0.7-0.1,1.4,0.4,1.5,1.1C410.5,46,410,46.7,409.3,46.8z"/>
		<path fill="#CCCCCC" d="M480.7,41.9c-0.9-0.4-2.1-0.5-3.5-0.5c-6.8,0-17.2,4.1-21,9.6c-1.5,2.1-1.8,4.3-1.1,6.4
			c1.5,4,6.3,8,12.6,8c2.5,0,5-0.7,7.4-1.9c6.4-3.5,8.8-10.8,9.2-12.2C485.6,46.7,484.3,43.4,480.7,41.9z M481.2,51.1
			c-0.2,0.6-0.7,0.9-1.3,0.9c-0.1,0-0.3,0-0.4-0.1c-0.7-0.2-1.1-1-0.8-1.7c0.4-1.3,0.5-2.3,0.1-2.9c-0.3-0.5-0.8-0.6-0.8-0.6
			c-0.7-0.1-1.2-0.8-1.1-1.5c0.1-0.7,0.8-1.2,1.5-1.1c0.2,0,1.7,0.3,2.7,1.8C481.9,47.2,481.9,49,481.2,51.1z"/>
		<path fill="#C1573F" d="M498.9,43.7h-1.5c-0.2,0.6-0.4,1.3-0.7,1.9h2.2c0.5,0,1-0.4,1-1C499.8,44.2,499.4,43.7,498.9,43.7z"/>
		<path fill="#C1573F" d="M495,37.4c-3.7-1.2-7.7-1.9-11.9-1.9c-13.1,0-24.9,6-30.6,8.9c-0.6,0.3-4,2-5.3,2.2c-0.9,0.1-6.2,0.1-7,0
			c-1.3-0.2-4.7-1.9-5.3-2.2c-5.7-2.9-17.5-8.9-30.6-8.9c-4.2,0-8.2,0.6-11.9,1.9c-0.8,0.3-1.4,0.6-0.9,2.2
			c1.3,4.9,5.6,16.1,12.3,23.6c4,4.5,8.8,6.9,14.5,7.1c0.5,0,0.9,0,1.4,0c12.2,0,15.8-8.1,16.8-11.6c2.2-7.8,4.3-9.4,7.2-9.7
			c0,0,0.2,0,0.2,0c2.9,0.3,5,1.9,7.2,9.7c1,3.5,4.6,11.6,16.8,11.6c0.4,0,0.9,0,1.4,0c5.7-0.3,10.4-2.6,14.5-7.1
			c6.7-7.5,10.9-18.7,12.3-23.6C496.3,38,495.7,37.7,495,37.4z M434.7,58.2c-2.1,5.6-8.4,9.7-15.1,9.7c-3,0-5.9-0.8-8.6-2.3
			c-5.7-3.1-9.1-9.1-10.4-13.8c-1.7-5.8,0.3-10.5,5.1-12.5c1.2-0.5,2.7-0.7,4.5-0.7c7.4,0,18.7,4.4,23.1,10.7
			C435.3,52.2,435.8,55.3,434.7,58.2z M486.8,51.9c-1.3,4.6-4.7,10.6-10.4,13.8c-2.7,1.5-5.6,2.3-8.6,2.3c-6.7,0-13-4.1-15.1-9.7
			c-1.1-2.9-0.6-6,1.4-8.8c4.4-6.3,15.7-10.7,23.1-10.7c1.8,0,3.3,0.3,4.5,0.7C486.6,41.5,488.5,46.1,486.8,51.9z"/>
		<path fill="#3F352F" d="M409,44.2c-0.2,0-1.7,0.3-2.7,1.8c-0.8,1.3-0.8,3-0.1,5.1c0.2,0.6,0.7,0.9,1.3,0.9c0.1,0,0.3,0,0.4-0.1
			c0.7-0.2,1.1-1,0.8-1.7c-0.4-1.3-0.5-2.3-0.1-2.9c0.3-0.5,0.8-0.6,0.8-0.6c0.7-0.1,1.2-0.8,1.1-1.5
			C410.3,44.6,409.7,44.1,409,44.2z"/>
		<path fill="#3F352F" d="M410.2,38.7c-1.8,0-3.3,0.3-4.5,0.7c-4.9,2-6.8,6.6-5.1,12.5c1.3,4.6,4.8,10.6,10.4,13.8
			c2.7,1.5,5.6,2.3,8.6,2.3c6.7,0,13-4.1,15.1-9.7c1.1-2.9,0.6-6-1.4-8.8C428.9,43.1,417.6,38.7,410.2,38.7z M432.2,57.3
			c-1.5,4-6.3,8-12.6,8c-2.5,0-5-0.7-7.4-1.9c-6.4-3.5-8.8-10.8-9.2-12.2c-1.3-4.5,0-7.8,3.6-9.3c0.9-0.4,2.1-0.5,3.5-0.5
			c6.8,0,17.2,4.1,21,9.6C432.6,53,433,55.2,432.2,57.3z"/>
		<path fill="#3F352F" d="M481.7,39.5c-1.2-0.5-2.7-0.7-4.5-0.7c-7.4,0-18.7,4.4-23.1,10.7c-2,2.8-2.5,5.9-1.4,8.8
			c2.1,5.6,8.4,9.7,15.1,9.7c3,0,5.9-0.8,8.6-2.3c5.7-3.1,9.1-9.1,10.4-13.8C488.5,46.1,486.6,41.5,481.7,39.5z M484.3,51.2
			c-0.4,1.4-2.7,8.6-9.2,12.2c-2.4,1.3-4.8,1.9-7.4,1.9c-6.4,0-11.2-4-12.6-8c-0.8-2.1-0.4-4.3,1.1-6.4c3.8-5.5,14.2-9.6,21-9.6
			c1.4,0,2.6,0.2,3.5,0.5C484.3,43.4,485.6,46.7,484.3,51.2z"/>
		<path fill="#3F352F" d="M498.9,41.1h-0.6c0.1-0.3,0.2-0.5,0.2-0.8c0.7-2.6-0.2-4.6-2.7-5.4c-4-1.3-8.3-2-12.7-2
			c-13.7,0-25.9,6.2-31.8,9.2c-0.6,0.3-3.6,1.8-4.4,1.9c-0.5,0.1-6,0.1-6.4,0c-0.8-0.1-3.8-1.6-4.4-1.9c-5.9-3-18.1-9.2-31.8-9.2
			c-4.5,0-8.7,0.7-12.7,2c-2.4,0.8-3.4,2.8-2.7,5.4c0.1,0.2,0.1,0.5,0.2,0.8h-0.6c-2,0-3.6,1.6-3.6,3.6c0,2,1.6,3.6,3.6,3.6h3.2
			c2.3,5.4,5.6,11.7,10,16.7c4.5,5.1,9.9,7.7,16.3,8c6.6,0.3,12-1.4,15.8-5.1c3.1-3,4.5-6.5,5-8.4c2-7.3,3.7-7.7,4.8-7.8
			c1.1,0.1,2.7,0.5,4.8,7.8c0.5,1.8,1.9,5.4,5,8.4c3.6,3.4,8.4,5.2,14.4,5.2c0.5,0,1,0,1.5,0c6.5-0.3,11.8-2.9,16.3-8
			c4.4-5,7.8-11.3,10-16.7h3.2c2,0,3.6-1.6,3.6-3.6C502.5,42.7,500.8,41.1,498.9,41.1z M388.5,45.7c-0.5,0-1-0.4-1-1
			c0-0.5,0.4-1,1-1h1.5c0.2,0.6,0.4,1.3,0.7,1.9H388.5z M495.9,39.6c-1.3,4.9-5.6,16.1-12.3,23.6c-4,4.5-8.8,6.9-14.5,7.1
			c-0.5,0-0.9,0-1.4,0c-12.2,0-15.8-8.1-16.8-11.6c-2.2-7.8-4.3-9.4-7.2-9.7c0,0-0.2,0-0.2,0c-2.9,0.3-5,1.9-7.2,9.7
			c-1,3.5-4.6,11.6-16.8,11.6c-0.4,0-0.9,0-1.4,0c-5.7-0.3-10.4-2.6-14.5-7.1c-6.7-7.5-10.9-18.7-12.3-23.6c-0.4-1.6,0.2-2,0.9-2.2
			c3.7-1.2,7.7-1.9,11.9-1.9c13.1,0,24.9,6,30.6,8.9c0.6,0.3,4,2,5.3,2.2c0.9,0.1,6.2,0.1,7,0c1.3-0.2,4.7-1.9,5.3-2.2
			c5.7-2.9,17.5-8.9,30.6-8.9c4.2,0,8.2,0.6,11.9,1.9C495.7,37.7,496.3,38,495.9,39.6z M498.9,45.7h-2.2c0.3-0.7,0.5-1.3,0.7-1.9
			h1.5c0.5,0,1,0.4,1,1C499.8,45.2,499.4,45.7,498.9,45.7z"/>
		<path fill="#3F352F" d="M478.4,44.2c-0.7-0.1-1.4,0.4-1.5,1.1c-0.1,0.7,0.4,1.4,1.1,1.5c0,0,0.5,0.1,0.8,0.6
			c0.4,0.6,0.3,1.6-0.1,2.9c-0.2,0.7,0.1,1.4,0.8,1.7c0.1,0,0.3,0.1,0.4,0.1c0.6,0,1.1-0.3,1.3-0.9c0.7-2.1,0.7-3.8-0.1-5.1
			C480.1,44.4,478.6,44.2,478.4,44.2z"/>
	</g>
	<g>
		<path fill="#CCCCCC" d="M46.9,62.9c0.9,0.9,1.6,2,1.9,3.3h38.6v-6.6H48.8C48.4,60.8,47.8,62,46.9,62.9z"/>
		<path fill="#E0D080" d="M16.8,53.9c1.3-2.3,3.8-3.7,6.5-3.7c0.7,0,1.3,0.1,1.9,0.3c0.9-3.2,3.8-5.5,7.2-5.5c3.4,0,6.3,2.4,7.2,5.5
			c0.6-0.2,1.3-0.3,1.9-0.3c2.7,0,5.1,1.4,6.5,3.7c0.6,1,0.9,2,1,3.1h38.3V52c0-20.4-16.6-37.1-37.1-37.1S13.2,31.6,13.2,52V57h2.7
			C16,55.9,16.3,54.8,16.8,53.9z"/>
		<path fill="#A99C83" d="M32.4,66.1c1.7,0,3.2-1.4,3.2-3.2c0-1.7-1.4-3.2-3.2-3.2c-1.7,0-3.2,1.4-3.2,3.2
			C29.3,64.6,30.7,66.1,32.4,66.1z"/>
		<path fill="#C5BCA5" d="M18,62.9c-0.9-0.9-1.6-2-1.9-3.3h-2.9v6.6h2.9C16.5,64.9,17.1,63.8,18,62.9z"/>
		<path fill="#E0D080" d="M49,68.8c-0.1,1.1-0.4,2.1-1,3.1c-1.3,2.3-3.8,3.7-6.5,3.7c-0.7,0-1.3-0.1-1.9-0.3
			c-0.9,3.2-3.8,5.5-7.2,5.5h0c-3.4,0-6.3-2.4-7.2-5.5c-0.6,0.2-1.3,0.3-1.9,0.3c-2.7,0-5.1-1.4-6.5-3.7c-0.6-1-0.9-2-1-3.1h-3.4
			L2.8,79.1c0.7,0.8,3.6,2.7,12.7,4.4c9.3,1.7,21.6,2.7,34.8,2.7c13.2,0,25.5-1,34.8-2.7c9-1.7,12-3.6,12.7-4.4l-9.6-10.3H49z"/>
		<path fill="#D48C7E" d="M20.8,64c-1.3,0.8-2.2,2.1-2.3,3.6c-0.1,1,0.1,2,0.6,2.9c0.9,1.5,2.5,2.4,4.2,2.4c0.8,0,1.6-0.2,2.3-0.6
			c0.2-0.1,0.4-0.2,0.6-0.2c0.2,0,0.5,0.1,0.7,0.2c0.4,0.2,0.7,0.7,0.7,1.1c0,2.6,2.2,4.8,4.8,4.8h0c2.6,0,4.8-2.1,4.8-4.8
			c0-0.5,0.3-0.9,0.7-1.1c0.4-0.2,0.9-0.2,1.3,0c0.7,0.4,1.5,0.6,2.3,0.6c1.7,0,3.3-0.9,4.2-2.4c0.5-0.9,0.7-1.9,0.6-2.9
			c-0.2-1.5-1-2.8-2.3-3.6c-0.4-0.2-0.6-0.7-0.6-1.1s0.2-0.9,0.6-1.1c2.3-1.3,3-4.3,1.7-6.6c-0.9-1.5-2.5-2.4-4.2-2.4
			c-0.8,0-1.6,0.2-2.3,0.6c-0.4,0.2-0.9,0.2-1.3,0c-0.4-0.2-0.7-0.7-0.7-1.1c0-2.6-2.2-4.8-4.8-4.8c-2.6,0-4.8,2.1-4.8,4.8
			c0,0.5-0.3,0.9-0.7,1.1c-0.4,0.2-0.9,0.2-1.3,0c-0.7-0.4-1.5-0.6-2.3-0.6c-1.7,0-3.3,0.9-4.2,2.4c-0.5,0.9-0.7,1.9-0.6,2.9
			c0.2,1.5,1,2.8,2.3,3.6c0.4,0.2,0.6,0.7,0.6,1.1S21.2,63.8,20.8,64z M32.4,57.1c3.2,0,5.8,2.6,5.8,5.8c0,3.2-2.6,5.8-5.8,5.8
			c-3.2,0-5.8-2.6-5.8-5.8C26.6,59.7,29.2,57.1,32.4,57.1z"/>
		<path fill="#3F352F" d="M90,67V52c0-21.9-17.8-39.7-39.7-39.7c-21.9,0-39.7,17.8-39.7,39.7V67L0.4,77.9C0.1,78.1,0,78.4,0,78.8
			c0,1.7,1.5,3.2,4.5,4.5c2.5,1.1,6,2.1,10.5,2.9c9.4,1.8,21.9,2.7,35.3,2.7c13.3,0,25.9-1,35.3-2.7c4.5-0.8,8-1.8,10.5-2.9
			c3-1.3,4.5-2.8,4.5-4.5c0-0.3-0.1-0.7-0.4-0.9L90,67z M13.2,52c0-20.4,16.6-37.1,37.1-37.1S87.4,31.6,87.4,52V57H49
			c-0.1-1.1-0.4-2.1-1-3.1c-1.3-2.3-3.8-3.7-6.5-3.7c-0.7,0-1.3,0.1-1.9,0.3c-0.9-3.2-3.8-5.5-7.2-5.5c-3.4,0-6.3,2.4-7.2,5.5
			c-0.6-0.2-1.3-0.3-1.9-0.3c-2.7,0-5.1,1.4-6.5,3.7c-0.6,1-0.9,2-1,3.1h-2.7V52z M87.4,59.6v6.6H48.8c-0.3-1.2-1-2.4-1.9-3.3
			c0.9-0.9,1.6-2.1,1.9-3.3H87.4z M20.8,61.8c-1.3-0.8-2.2-2.1-2.3-3.6c-0.1-1,0.1-2,0.6-2.9c0.9-1.5,2.5-2.4,4.2-2.4
			c0.8,0,1.6,0.2,2.3,0.6c0.4,0.2,0.9,0.2,1.3,0c0.4-0.2,0.7-0.7,0.7-1.1c0-2.6,2.2-4.8,4.8-4.8c2.6,0,4.8,2.1,4.8,4.8
			c0,0.5,0.3,0.9,0.7,1.1c0.4,0.2,0.9,0.2,1.3,0c0.7-0.4,1.5-0.6,2.3-0.6c1.7,0,3.3,0.9,4.2,2.4c1.3,2.3,0.5,5.2-1.7,6.6
			c-0.4,0.2-0.6,0.7-0.6,1.1s0.2,0.9,0.6,1.1c1.3,0.8,2.2,2.1,2.3,3.6c0.1,1-0.1,2-0.6,2.9c-0.9,1.5-2.5,2.4-4.2,2.4
			c-0.8,0-1.6-0.2-2.3-0.6c-0.4-0.2-0.9-0.2-1.3,0c-0.4,0.2-0.7,0.7-0.7,1.1c0,2.6-2.2,4.8-4.8,4.8h0c-2.6,0-4.8-2.1-4.8-4.8
			c0-0.5-0.3-0.9-0.7-1.1c-0.2-0.1-0.4-0.2-0.7-0.2c-0.2,0-0.4,0.1-0.6,0.2c-0.7,0.4-1.5,0.6-2.3,0.6c-1.7,0-3.3-0.9-4.2-2.4
			c-0.5-0.9-0.7-1.9-0.6-2.9c0.2-1.5,1-2.8,2.3-3.6c0.4-0.2,0.6-0.7,0.6-1.1S21.2,62,20.8,61.8z M13.2,59.6h2.9
			c0.3,1.2,1,2.4,1.9,3.3c-0.9,0.9-1.6,2-1.9,3.3h-2.9V59.6z M85.1,83.5c-9.3,1.7-21.6,2.7-34.8,2.7c-13.2,0-25.5-1-34.8-2.7
			c-9-1.7-12-3.6-12.7-4.4l9.6-10.3h3.4c0.1,1.1,0.4,2.1,1,3.1c1.3,2.3,3.8,3.7,6.5,3.7c0.7,0,1.3-0.1,1.9-0.3
			c0.9,3.2,3.8,5.5,7.2,5.5h0c3.4,0,6.3-2.4,7.2-5.5c0.6,0.2,1.3,0.3,1.9,0.3c2.7,0,5.1-1.4,6.5-3.7c0.6-1,0.9-2,1-3.1h39.1
			l9.6,10.3C97,79.9,94.1,81.8,85.1,83.5z"/>
		<path fill="#3F352F" d="M32.4,68.7c3.2,0,5.8-2.6,5.8-5.8c0-3.2-2.6-5.8-5.8-5.8c-3.2,0-5.8,2.6-5.8,5.8
			C26.6,66.1,29.2,68.7,32.4,68.7z M32.4,59.7c1.7,0,3.2,1.4,3.2,3.2c0,1.7-1.4,3.2-3.2,3.2c-1.7,0-3.2-1.4-3.2-3.2
			C29.3,61.1,30.7,59.7,32.4,59.7z"/>
	</g>
	<g>
		<path fill="#CCCCCC" d="M245.7,52.1c-0.7,0-1.4,0.3-1.8,0.7c-2.2,2.2-4,4.3-5.5,5.9c-3.2,3.6-4.2,4.6-5.4,4.6
			c-0.6,0-1.1-0.2-1.4-0.7c-1-1.8,0.4-35.1,0.4-35.9c0-0.8-0.2-1.5-0.7-2c-0.4-0.4-0.9-0.6-1.5-0.6c-1.1,0-2.2,0.9-2.6,3.4
			c-1.1,6.6-2.1,19.9-2.2,20.3c-0.1,0.7-0.6,1.2-1.3,1.2c-0.8,0-1.3-0.3-1.5-0.8c-0.8-1.8-1.3-23.2-1.4-24.4c-0.1-1.5-1.2-2-2.1-2
			c-1,0-2.3,0.7-2.3,2.6c0,0-0.7,23.8-1.2,24.9c-0.1,0.2-0.3,0.5-0.6,0.6c-0.2,0.1-0.5,0.2-0.8,0.2c-0.5,0-0.9-0.2-1.1-0.6
			c-0.6-1-1-4.4-1.7-14.8c-0.1-2.1-0.3-4.1-0.4-5.9c-0.2-2-1.2-2.7-2.1-2.7c-0.6,0-1.1,0.2-1.5,0.7c-0.5,0.6-0.8,1.4-0.8,2.4
			c1,20.2,0.6,21.1,0.3,21.7c-0.2,0.5-0.7,0.8-1.2,0.8h0c0,0-1,0-1.4-0.7c-0.6-1-2.5-12.2-2.6-13.1c-0.2-1.3-1.2-1.8-2.2-1.8
			c-0.4,0-1.1,0.1-1.6,0.8c-0.6,0.8-0.8,2.1-0.5,3.7c0,0,6.7,36.4,7.3,39.6c0,0.1-0.8,11.2-0.8,11.2h27.1c0.1-3.7,0.7-8.3,2.8-11.9
			c0,0,10.2-16.6,13.3-21.8c1.1-1.8,1.4-3.4,0.8-4.3C247.3,52.5,246.5,52.1,245.7,52.1z M209.7,76.7c-0.1,0-0.1,0-0.2,0
			c-0.6,0-1.2-0.5-1.3-1.1L205,54.5c-0.1-0.7,0.4-1.4,1.1-1.5c0.7-0.1,1.4,0.4,1.5,1.1l3.2,21.1C211,75.9,210.5,76.6,209.7,76.7z
			 M216.3,75.4c0,0.7-0.6,1.3-1.3,1.3c-0.7,0-1.3-0.6-1.3-1.3V54.3c0-0.7,0.6-1.3,1.3-1.3c0.7,0,1.3,0.6,1.3,1.3V75.4z M225,54.5
			l-3.2,21.1c-0.1,0.7-0.7,1.1-1.3,1.1c-0.1,0-0.1,0-0.2,0c-0.7-0.1-1.2-0.8-1.1-1.5l3.2-21.1c0.1-0.7,0.8-1.2,1.5-1.1
			C224.6,53.1,225.1,53.8,225,54.5z"/>
		<path fill="#C5BCA5" d="M263.2,74.7c0,0.7-0.1,1.3-0.1,1.8h27.5l-0.1-1.8H263.2z"/>
		<path fill="#C5BCA5" d="M203.4,93.8l-0.1,1.8h27.5c0-0.5-0.1-1.1-0.1-1.8H203.4z"/>
		<path fill="#CCCCCC" d="M294.7,16.9c-0.9,0-1.9,0.6-2.2,1.8c-0.1,0.9-2,12.1-2.6,13.1c-0.4,0.7-1.3,0.7-1.4,0.7h0
			c-0.5,0-1-0.3-1.2-0.8c-0.3-0.6-0.7-1.5,0.3-21.7c0-1-0.2-1.9-0.8-2.4c-0.4-0.4-1-0.7-1.5-0.7c-0.9,0-2,0.7-2.1,2.7
			c-0.1,1.8-0.3,3.8-0.4,5.9c-0.7,10.4-1,13.8-1.7,14.8c-0.2,0.4-0.7,0.6-1.1,0.6c-0.3,0-0.6,0-0.8-0.2c-0.2-0.1-0.5-0.3-0.6-0.6
			c-0.6-1.1-1.2-24.9-1.2-24.9c0-1.9-1.3-2.6-2.3-2.6c-0.9,0-2,0.5-2.1,2c-0.1,1.2-0.6,22.5-1.4,24.4c-0.2,0.5-0.7,0.8-1.5,0.8
			c-0.7,0-1.3-0.5-1.3-1.2c0-0.4-1.1-13.7-2.2-20.3c-0.4-2.5-1.5-3.4-2.6-3.4c-0.6,0-1.1,0.2-1.5,0.6c-0.5,0.5-0.7,1.2-0.7,2
			c0,0.8,1.3,34.1,0.4,35.9c-0.3,0.5-0.8,0.7-1.4,0.7c-1.2,0-2.2-1-5.4-4.6c-1.5-1.6-3.3-3.7-5.5-5.9c-0.5-0.5-1.1-0.7-1.8-0.7
			c-0.8,0-1.6,0.4-1.9,1c-0.5,1-0.2,2.5,0.8,4.3c3.1,5.2,13.3,21.8,13.3,21.8c2.2,3.5,2.8,8.2,2.8,11.9h27.1c0,0-0.8-11.1-0.8-11.2
			c0.5-3.3,7.3-39.6,7.3-39.6c0.3-1.6,0.1-2.9-0.5-3.7C295.7,16.9,295,16.9,294.7,16.9z M273.6,57.6c-0.1,0-0.1,0-0.2,0
			c-0.6,0-1.2-0.5-1.3-1.1l-3.2-21.1c-0.1-0.7,0.4-1.4,1.1-1.5c0.7-0.1,1.4,0.4,1.5,1.1l3.2,21.1C274.9,56.8,274.4,57.5,273.6,57.6z
			 M280.2,56.3c0,0.7-0.6,1.3-1.3,1.3s-1.3-0.6-1.3-1.3V35.2c0-0.7,0.6-1.3,1.3-1.3s1.3,0.6,1.3,1.3V56.3z M288.9,35.4l-3.2,21.1
			c-0.1,0.7-0.7,1.1-1.3,1.1c-0.1,0-0.1,0-0.2,0c-0.7-0.1-1.2-0.8-1.1-1.5l3.2-21.1c0.1-0.7,0.8-1.2,1.5-1.1
			C288.5,34,289,34.7,288.9,35.4z"/>
		<path fill="#3F352F" d="M223.9,53c-0.7-0.1-1.4,0.4-1.5,1.1l-3.2,21.1c-0.1,0.7,0.4,1.4,1.1,1.5c0.1,0,0.1,0,0.2,0
			c0.6,0,1.2-0.5,1.3-1.1l3.2-21.1C225.1,53.8,224.6,53.1,223.9,53z"/>
		<path fill="#3F352F" d="M207.6,54.1c-0.1-0.7-0.8-1.2-1.5-1.1c-0.7,0.1-1.2,0.8-1.1,1.5l3.2,21.1c0.1,0.7,0.7,1.1,1.3,1.1
			c0.1,0,0.1,0,0.2,0c0.7-0.1,1.2-0.8,1.1-1.5L207.6,54.1z"/>
		<path fill="#3F352F" d="M215,53c-0.7,0-1.3,0.6-1.3,1.3v21.1c0,0.7,0.6,1.3,1.3,1.3c0.7,0,1.3-0.6,1.3-1.3V54.3
			C216.3,53.5,215.7,53,215,53z"/>
		<path fill="#3F352F" d="M245.7,49.5c-1.4,0-2.8,0.6-3.7,1.5c-2.2,2.3-7.4,8-8.1,8.8c-0.1-5.6,0.8-32.1,0.8-33
			c0-1.5-0.5-2.9-1.4-3.9c-0.9-0.9-2.1-1.4-3.4-1.4c-2.3,0-4.8,1.8-5.2,5.7c-0.2,2-0.5,4.8-0.8,7.7c-0.1-2-0.1-4-0.1-5.5
			c0-2.4-0.1-4.5-0.2-5.7c-0.1-3-2.5-4.5-4.7-4.5c-2.4,0-4.9,1.8-4.9,5.2c0,0-0.1,7-0.2,9.6c-0.1-1.9-0.3-3.8-0.4-5.4
			c-0.3-3.6-2.6-5.1-4.8-5.1c-1.3,0-2.5,0.5-3.4,1.5c-1,1.1-1.6,2.6-1.5,4.4c0.2,3.3,0.3,6.1,0.4,8.5c0-0.1-0.4-4.3-4.8-4.3
			c-1.4,0-2.8,0.6-3.7,1.7c-0.8,1-1.7,2.8-1.1,5.8l0.6,3c1.7,9,6.1,32.6,6.7,36.4l-1.2,16.6c0,0.4,0.1,0.7,0.4,1
			c0.2,0.3,0.6,0.4,1,0.4h30.4c0.4,0,0.7-0.2,1-0.5c0.3-0.3,0.4-0.7,0.3-1.1c0-0.1-1.4-10.2,2.1-16.1c0,0,10.2-16.7,13.3-21.9
			c2.1-3.6,1.5-5.9,0.9-7C249.1,50.4,247.5,49.5,245.7,49.5z M203.3,95.7l0.1-1.8h27.3c0,0.7,0.1,1.3,0.1,1.8H203.3z M246.8,57.5
			c-3.1,5.2-13.3,21.8-13.3,21.8c-2.2,3.5-2.8,8.2-2.8,11.9h-27.1c0,0,0.8-11.1,0.8-11.2c-0.5-3.3-7.3-39.6-7.3-39.6
			c-0.3-1.6-0.1-2.9,0.5-3.7c0.5-0.7,1.3-0.8,1.6-0.8c0.9,0,1.9,0.6,2.2,1.8c0.1,0.9,2,12.1,2.6,13.1c0.4,0.7,1.3,0.7,1.4,0.7h0
			c0.5,0,1-0.3,1.2-0.8c0.3-0.6,0.7-1.5-0.3-21.7c0-1,0.2-1.9,0.8-2.4c0.4-0.4,1-0.7,1.5-0.7c0.9,0,2,0.7,2.1,2.7
			c0.1,1.8,0.3,3.8,0.4,5.9c0.7,10.4,1,13.8,1.7,14.8c0.2,0.4,0.7,0.6,1.1,0.6c0.3,0,0.6,0,0.8-0.2c0.2-0.1,0.5-0.3,0.6-0.6
			c0.6-1.1,1.2-24.9,1.2-24.9c0-1.9,1.3-2.6,2.3-2.6c0.9,0,2,0.5,2.1,2c0.1,1.2,0.6,22.5,1.4,24.4c0.2,0.5,0.7,0.8,1.5,0.8
			c0.7,0,1.3-0.5,1.3-1.2c0-0.4,1.1-13.7,2.2-20.3c0.4-2.5,1.5-3.4,2.6-3.4c0.6,0,1.1,0.2,1.5,0.6c0.5,0.5,0.7,1.2,0.7,2
			c0,0.8-1.3,34.1-0.4,35.9c0.3,0.5,0.8,0.7,1.4,0.7c1.2,0,2.2-1,5.4-4.6c1.5-1.6,3.3-3.7,5.5-5.9c0.5-0.5,1.1-0.7,1.8-0.7
			c0.8,0,1.6,0.4,1.9,1C248.2,54.1,247.9,55.7,246.8,57.5z"/>
		<path fill="#3F352F" d="M271.5,35c-0.1-0.7-0.8-1.2-1.5-1.1c-0.7,0.1-1.2,0.8-1.1,1.5l3.2,21.1c0.1,0.7,0.7,1.1,1.3,1.1
			c0.1,0,0.1,0,0.2,0c0.7-0.1,1.2-0.8,1.1-1.5L271.5,35z"/>
		<path fill="#3F352F" d="M287.8,33.9c-0.7-0.1-1.4,0.4-1.5,1.1l-3.2,21.1c-0.1,0.7,0.4,1.4,1.1,1.5c0.1,0,0.1,0,0.2,0
			c0.6,0,1.2-0.5,1.3-1.1l3.2-21.1C289,34.7,288.5,34,287.8,33.9z"/>
		<path fill="#3F352F" d="M278.9,33.9c-0.7,0-1.3,0.6-1.3,1.3v21.1c0,0.7,0.6,1.3,1.3,1.3s1.3-0.6,1.3-1.3V35.2
			C280.2,34.5,279.7,33.9,278.9,33.9z"/>
		<path fill="#3F352F" d="M294.7,14.2c-4.4,0-4.8,4.2-4.8,4.3c0.1-2.3,0.2-5.1,0.4-8.5c0.1-1.7-0.4-3.3-1.5-4.4
			c-0.9-0.9-2.1-1.5-3.4-1.5c-2.2,0-4.5,1.6-4.8,5.1c-0.1,1.7-0.3,3.5-0.4,5.4c-0.1-2.5-0.2-9.6-0.2-9.6c0-3.4-2.5-5.2-4.9-5.2
			c-2.2,0-4.6,1.6-4.7,4.5c-0.1,1.2-0.1,3.3-0.2,5.7c0,1.6-0.1,3.5-0.1,5.5c-0.3-2.9-0.6-5.7-0.8-7.7c-0.4-4-2.9-5.7-5.2-5.7
			c-1.3,0-2.5,0.5-3.4,1.4c-1,1-1.5,2.4-1.4,3.9c0,0.8,0.9,27.3,0.8,33c-0.7-0.7-5.9-6.5-8.1-8.8c-1-1-2.3-1.5-3.7-1.5
			c-1.8,0-3.4,0.9-4.2,2.3c-0.6,1.1-1.3,3.4,0.9,7c3.1,5.2,13.3,21.9,13.3,21.9c3.6,5.9,2.2,16,2.1,16.1c-0.1,0.4,0.1,0.8,0.3,1.1
			c0.3,0.3,0.6,0.5,1,0.5h30.4c0.4,0,0.7-0.2,1-0.4c0.2-0.3,0.4-0.6,0.4-1l-1.2-16.6c0.6-3.8,5-27.4,6.7-36.4l0.6-3
			c0.6-3.1-0.3-4.9-1.1-5.8C297.4,14.8,296.1,14.2,294.7,14.2z M263.1,76.6c0-0.5,0.1-1.1,0.1-1.8h27.3l0.1,1.8H263.1z M296.8,21.3
			c0,0-6.7,36.4-7.3,39.6c0,0.1,0.8,11.2,0.8,11.2h-27.1c-0.1-3.7-0.7-8.3-2.8-11.9c0,0-10.2-16.6-13.3-21.8
			c-1.1-1.8-1.4-3.4-0.8-4.3c0.4-0.6,1.1-1,1.9-1c0.7,0,1.4,0.3,1.8,0.7c2.2,2.2,4,4.3,5.5,5.9c3.2,3.6,4.2,4.6,5.4,4.6
			c0.6,0,1.1-0.2,1.4-0.7c1-1.8-0.4-35.1-0.4-35.9c0-0.8,0.2-1.5,0.7-2c0.4-0.4,0.9-0.6,1.5-0.6c1.1,0,2.2,0.9,2.6,3.4
			c1.1,6.6,2.1,19.9,2.2,20.3c0.1,0.7,0.6,1.2,1.3,1.2c0.8,0,1.3-0.3,1.5-0.8c0.8-1.8,1.3-23.2,1.4-24.4c0.1-1.5,1.2-2,2.1-2
			c1,0,2.3,0.7,2.3,2.6c0,0,0.7,23.8,1.2,24.9c0.1,0.2,0.3,0.5,0.6,0.6c0.2,0.1,0.5,0.2,0.8,0.2c0.5,0,0.9-0.2,1.1-0.6
			c0.6-1,1-4.4,1.7-14.8c0.1-2.1,0.3-4.1,0.4-5.9c0.2-2,1.2-2.7,2.1-2.7c0.6,0,1.1,0.2,1.5,0.7c0.5,0.6,0.8,1.4,0.8,2.4
			c-1,20.2-0.6,21.1-0.3,21.7c0.2,0.5,0.7,0.8,1.2,0.8h0c0,0,1,0,1.4-0.7c0.6-1,2.5-12.2,2.6-13.1c0.2-1.3,1.2-1.8,2.2-1.8
			c0.4,0,1.1,0.1,1.6,0.8C296.9,18.4,297.1,19.7,296.8,21.3z"/>
	</g>
	<g>
		<g>
			<path fill="#CCCCCC" d="M149.2,40.8c-7.4,0-13.4,6-13.4,13.4s6,13.4,13.4,13.4c7.4,0,13.4-6,13.4-13.4S156.6,40.8,149.2,40.8z
				 M149.2,64.3c-5.6,0-10.1-4.5-10.1-10.1s4.5-10.1,10.1-10.1s10.1,4.5,10.1,10.1S154.8,64.3,149.2,64.3z"/>
		</g>
		<path fill="#CCCCCC" d="M154.3,52.6h-3.4v-3.4c0-0.9-0.7-1.7-1.7-1.7h0c-0.9,0-1.7,0.7-1.7,1.7v3.4h-3.4c-0.9,0-1.7,0.7-1.7,1.7v0
			c0,0.9,0.7,1.7,1.7,1.7h3.4v3.4c0,0.9,0.7,1.7,1.7,1.7h0c0.9,0,1.7-0.7,1.7-1.7v-3.4h3.4c0.9,0,1.7-0.7,1.7-1.7v0
			C155.9,53.3,155.2,52.6,154.3,52.6z"/>
	</g>
	<g>
		<g>
			<path fill="#CCCCCC" d="M343.1,40.8c-7.4,0-13.4,6-13.4,13.4s6,13.4,13.4,13.4s13.4-6,13.4-13.4S350.5,40.8,343.1,40.8z
				 M343.1,64.3c-5.6,0-10.1-4.5-10.1-10.1s4.5-10.1,10.1-10.1c5.6,0,10.1,4.5,10.1,10.1S348.7,64.3,343.1,64.3z"/>
		</g>
		<path fill="#CCCCCC" d="M348.2,52.6h-3.4v-3.4c0-0.9-0.7-1.7-1.7-1.7h0c-0.9,0-1.7,0.7-1.7,1.7v3.4h-3.4c-0.9,0-1.7,0.7-1.7,1.7v0
			c0,0.9,0.7,1.7,1.7,1.7h3.4v3.4c0,0.9,0.7,1.7,1.7,1.7h0c0.9,0,1.7-0.7,1.7-1.7v-3.4h3.4c0.9,0,1.7-0.7,1.7-1.7v0
			C349.8,53.3,349.1,52.6,348.2,52.6z"/>
	</g>
	<g>
		<g>
			<path fill="#CCCCCC" d="M556.5,40.8c-7.4,0-13.4,6-13.4,13.4s6,13.4,13.4,13.4s13.4-6,13.4-13.4S563.9,40.8,556.5,40.8z
				 M556.5,64.3c-5.6,0-10.1-4.5-10.1-10.1s4.5-10.1,10.1-10.1c5.6,0,10.1,4.5,10.1,10.1S562.1,64.3,556.5,64.3z"/>
		</g>
		<path fill="#CCCCCC" d="M561.6,52.6h-3.4v-3.4c0-0.9-0.7-1.7-1.7-1.7h0c-0.9,0-1.7,0.7-1.7,1.7v3.4h-3.4c-0.9,0-1.7,0.7-1.7,1.7v0
			c0,0.9,0.7,1.7,1.7,1.7h3.4v3.4c0,0.9,0.7,1.7,1.7,1.7h0c0.9,0,1.7-0.7,1.7-1.7v-3.4h3.4c0.9,0,1.7-0.7,1.7-1.7v0
			C563.2,53.3,562.5,52.6,561.6,52.6z"/>
	</g>
</g>
</svg>
