<?xml version="1.0" encoding="utf-8"?>
<!-- Generator: Adobe Illustrator 19.1.0, SVG Export Plug-In . SVG Version: 6.00 Build 0)  -->
<svg version="1.1" id="Livello_1" xmlns="http://www.w3.org/2000/svg" xmlns:xlink="http://www.w3.org/1999/xlink" x="0px" y="0px"
	 viewBox="0 0 675 117.9" enable-background="new 0 0 675 117.9" xml:space="preserve">
<g>
	<g>
		<polygon fill="#8BB4C8" points="640.3,93.4 660.2,81 659.7,72.5 640.8,84.4 		"/>
		<polygon fill="#C5BCA5" points="640.1,97.7 644.6,102.5 660.8,92.4 660.3,84 640.1,96.6 		"/>
		<polygon fill="#8BB4C8" points="650.6,109.1 661.1,97.7 661,95.4 646.4,104.5 		"/>
		<polygon fill="#C5BCA5" points="641,81.2 659.6,69.5 659.1,61.1 641.5,72.2 		"/>
		<path fill="#C5BCA5" d="M637.3,5.2l5.3,4.1c0-0.1,0.1-0.2,0.1-0.2c0.1-0.2,0.3-0.3,0.5-0.4l-4.1-5.3L637.3,5.2z"/>
		<polygon fill="#C5BCA5" points="648.7,20.5 643.9,28.5 643.7,32.2 655.2,25 652.5,20.5 		"/>
		<polygon fill="#8BB4C8" points="648.8,17.8 652.4,17.8 655.3,11.1 645.9,11.1 		"/>
		<polygon fill="#8BB4C8" points="641.7,68.9 658.9,58.1 658.5,49.7 642.2,59.9 		"/>
		<path fill="#C5BCA5" d="M657.9,8.6c0.2,0.1,0.4,0.3,0.5,0.4c0.1,0.1,0.1,0.2,0.1,0.2l5.3-4.1l-1.9-1.9L657.9,8.6z"/>
		<polygon fill="#C5BCA5" points="642.3,56.7 658.3,46.7 657.8,38.3 642.8,47.7 		"/>
		<polygon fill="#8BB4C8" points="643,44.5 657.7,35.3 657.3,28.5 656.6,27.3 643.5,35.4 		"/>
		<path fill="#3F352F" d="M662.9,0.4c-0.3-0.3-0.6-0.4-1-0.4c-0.4,0-0.7,0.2-1,0.5l-6.2,8h-8.3l-6.2-8c-0.2-0.3-0.6-0.5-1-0.5
			c-0.4,0-0.7,0.1-1,0.4l-4,4c-0.3,0.3-0.4,0.6-0.4,1c0,0.4,0.2,0.7,0.5,1l9.7,7.5l2.3,5.2l-5,8.4c-0.1,0.2-0.2,0.4-0.2,0.6
			l-3.9,70.1c0,0.4,0.1,0.7,0.3,1l11.9,12.8c0.3,0.3,0.6,0.4,1,0.4c0.3,0,0.6-0.1,0.9-0.4c0,0,11.9-12.9,11.9-12.9
			c0.2-0.3,0.4-0.6,0.3-1L659.9,28c0-0.2-0.1-0.4-0.2-0.6l-5-8.4l2.3-5.2l9.7-7.5c0.3-0.2,0.5-0.6,0.5-1c0-0.4-0.1-0.7-0.4-1
			L662.9,0.4z M642.7,9.1c-0.1,0.1-0.1,0.2-0.1,0.2l-5.3-4.1l1.9-1.9l4.1,5.3C643,8.7,642.9,8.9,642.7,9.1z M661.1,97.7l-10.5,11.4
			l-4.2-4.6l14.6-9.1L661.1,97.7z M660.8,92.4l-16.3,10.2l-4.5-4.9l0.1-1.1L660.3,84L660.8,92.4z M660.2,81l-19.9,12.4l0.5-9
			l18.9-11.8L660.2,81z M659.6,69.5L641,81.2l0.5-9l17.6-11L659.6,69.5z M658.9,58.1l-17.3,10.8l0.5-9l16.3-10.2L658.9,58.1z
			 M658.3,46.7l-15.9,10l0.5-9l15-9.4L658.3,46.7z M657.3,28.5l0.4,6.8L643,44.5l0.5-9l13-8.2L657.3,28.5z M655.2,25l-11.5,7.2
			l0.2-3.7l4.8-8h3.8L655.2,25z M652.4,17.8h-3.6l-2.9-6.7h9.5L652.4,17.8z M658.6,9.3c0-0.1-0.1-0.2-0.1-0.2
			c-0.1-0.2-0.3-0.3-0.5-0.4l4.1-5.3l1.9,1.9L658.6,9.3z"/>
	</g>
	<g>
		<rect x="76" y="43.6" fill="#7E7081" width="20.6" height="2.8"/>
		<rect x="35.7" y="20.4" fill="#C1573F" width="20.6" height="3.4"/>
		<rect x="35.7" y="26.4" fill="#7E7081" width="20.6" height="2.8"/>
		<path fill="#C1573F" d="M51.1,68.5c0.6-0.4,1.3-0.8,2-1c4-1.6,6-4,6.2-7.5c0.3-3.9-2.3-9.6-2.3-9.7C54,52.5,47.7,58.6,51.1,68.5z"
			/>
		<path fill="#C1573F" d="M12,83.8c-1,1.6-1.6,3.1-1.6,4.9c-0.1,2.5,0.9,4.8,2.6,6.6c1.7,1.8,4,2.8,6.4,2.8c2.3,0,4.4-0.7,6.1-2.2
			C22.5,88.1,14.7,84.8,12,83.8z"/>
		<rect x="76" y="37.5" fill="#C1573F" width="20.6" height="3.4"/>
		<path fill="#CCCCCC" d="M48.4,69.1C48.4,69.1,48.4,69.1,48.4,69.1c-1.5-4.8-1-8.8,0.2-12c-0.1,0-0.1-0.1-0.2-0.1
			c-0.2-0.2-0.4-0.6-0.4-0.9c0-0.3,0.1-0.7,0.4-0.9c0.2-0.2,0.6-0.4,0.9-0.4c0.1,0,0.2,0,0.3,0c0.3-0.6,0.6-1.1,1-1.6
			c0.7-1.1,1.6-2,2.3-2.8c-0.1,0-0.2,0-0.2,0c-0.3,0-0.7-0.1-0.9-0.4c-0.2-0.2-0.4-0.6-0.4-0.9c0-0.3,0.1-0.7,0.4-0.9
			c0.2-0.2,0.6-0.4,0.9-0.4c0.3,0,0.7,0.1,0.9,0.4c0.2,0.2,0.4,0.6,0.4,0.9c0,0.1,0,0.2,0,0.3c0.9-0.8,1.8-1.5,2.3-1.8v-4.2
			c-0.1,0-0.2,0-0.2,0c-0.3,0-0.7-0.1-0.9-0.4c-0.2-0.2-0.4-0.6-0.4-0.9c0-0.3,0.1-0.7,0.4-0.9c0.2-0.2,0.6-0.4,0.9-0.4
			c0.1,0,0.2,0,0.2,0v-8.9H35.7v8.9c0,0,0.1,0,0.1,0c0.3,0,0.7,0.1,0.9,0.4c0.2,0.2,0.4,0.6,0.4,0.9c0,0.3-0.1,0.7-0.4,0.9
			c-0.2,0.2-0.6,0.4-0.9,0.4c0,0-0.1,0-0.1,0c-0.3,8.7-4.4,14.3-4.8,14.7l-8,10.8c0.1,0.1,0.2,0.1,0.3,0.2c0.2,0.2,0.4,0.6,0.4,0.9
			c0,0.3-0.1,0.7-0.4,0.9c-0.2,0.2-0.6,0.4-0.9,0.4c-0.3,0-0.7-0.1-0.9-0.4l-7.8,10.6c2.7,1,7.8,3.5,11.5,8.3
			c0.2-0.1,0.4-0.2,0.6-0.2c0.3,0,0.7,0.1,0.9,0.4c0.2,0.2,0.4,0.6,0.4,0.9c0,0.3-0.1,0.7-0.4,0.9c0,0-0.1,0-0.1,0.1
			c0.3,0.6,0.7,1.2,1,1.8l7.7-8.7C35.1,85.1,35,85,34.9,85c-0.2-0.2-0.4-0.6-0.4-0.9c0-0.3,0.1-0.7,0.4-0.9c0.2-0.2,0.6-0.4,0.9-0.4
			c0.3,0,0.7,0.1,0.9,0.4c0.1,0.1,0.1,0.1,0.1,0.2l9.4-10.6c0.1-0.1,0.8-0.9,1.9-1.9C48,70.5,48,70.3,48,70
			C48,69.7,48.1,69.4,48.4,69.1z M51.7,34.2c0.2-0.2,0.6-0.4,0.9-0.4c0.3,0,0.7,0.1,0.9,0.4c0.2,0.2,0.4,0.6,0.4,0.9
			c0,0.3-0.1,0.7-0.4,0.9c-0.2,0.2-0.6,0.4-0.9,0.4c-0.3,0-0.7-0.1-0.9-0.4c-0.2-0.2-0.4-0.6-0.4-0.9C51.3,34.8,51.5,34.4,51.7,34.2
			z M48.4,41.2c0.2-0.2,0.6-0.4,0.9-0.4c0.3,0,0.7,0.1,0.9,0.4c0.2,0.2,0.4,0.6,0.4,0.9c0,0.3-0.1,0.7-0.4,0.9
			c-0.2,0.2-0.6,0.4-0.9,0.4c-0.3,0-0.7-0.1-0.9-0.4c-0.2-0.2-0.4-0.6-0.4-0.9C48,41.7,48.1,41.4,48.4,41.2z M19.9,78
			c-0.2,0.2-0.6,0.4-0.9,0.4c-0.3,0-0.7-0.1-0.9-0.4c-0.2-0.2-0.4-0.6-0.4-0.9c0-0.3,0.1-0.7,0.4-0.9c0.2-0.2,0.6-0.4,0.9-0.4
			c0.3,0,0.7,0.1,0.9,0.4c0.2,0.2,0.4,0.6,0.4,0.9C20.3,77.4,20.1,77.7,19.9,78z M23.3,85c-0.2,0.2-0.6,0.4-0.9,0.4
			c-0.3,0-0.7-0.1-0.9-0.4C21.2,84.7,21,84.4,21,84c0-0.3,0.1-0.7,0.4-0.9c0.2-0.2,0.6-0.4,0.9-0.4c0.3,0,0.7,0.1,0.9,0.4
			c0.2,0.2,0.4,0.6,0.4,0.9C23.7,84.4,23.5,84.7,23.3,85z M26.6,78c-0.2,0.2-0.6,0.4-0.9,0.4c-0.3,0-0.7-0.1-0.9-0.4
			c-0.2-0.2-0.4-0.6-0.4-0.9c0-0.3,0.1-0.7,0.4-0.9c0.2-0.2,0.6-0.4,0.9-0.4c0.3,0,0.7,0.1,0.9,0.4c0.2,0.2,0.4,0.6,0.4,0.9
			C27,77.4,26.9,77.7,26.6,78z M30,85c-0.2,0.2-0.6,0.4-0.9,0.4c-0.3,0-0.7-0.1-0.9-0.4c-0.2-0.2-0.4-0.6-0.4-0.9
			c0-0.3,0.1-0.7,0.4-0.9c0.2-0.2,0.6-0.4,0.9-0.4c0.3,0,0.7,0.1,0.9,0.4c0.2,0.2,0.4,0.6,0.4,0.9C30.4,84.4,30.3,84.7,30,85z
			 M30,71c-0.2,0.2-0.6,0.4-0.9,0.4c-0.3,0-0.7-0.1-0.9-0.4c-0.2-0.2-0.4-0.6-0.4-0.9c0-0.3,0.1-0.7,0.4-0.9
			c0.2-0.2,0.6-0.4,0.9-0.4c0.3,0,0.7,0.1,0.9,0.4c0.2,0.2,0.4,0.6,0.4,0.9C30.4,70.4,30.3,70.7,30,71z M33.4,78
			c-0.2,0.2-0.6,0.4-0.9,0.4c-0.3,0-0.7-0.1-0.9-0.4c-0.2-0.2-0.4-0.6-0.4-0.9c0-0.3,0.1-0.7,0.4-0.9c0.2-0.2,0.6-0.4,0.9-0.4
			c0.3,0,0.7,0.1,0.9,0.4c0.2,0.2,0.4,0.6,0.4,0.9C33.8,77.4,33.6,77.7,33.4,78z M33.4,64c-0.2,0.2-0.6,0.4-0.9,0.4
			c-0.3,0-0.7-0.1-0.9-0.4c-0.2-0.2-0.4-0.6-0.4-0.9c0-0.3,0.1-0.7,0.4-0.9c0.2-0.2,0.6-0.4,0.9-0.4c0.3,0,0.7,0.1,0.9,0.4
			c0.2,0.2,0.4,0.6,0.4,0.9C33.8,63.4,33.6,63.7,33.4,64z M36.7,71c-0.2,0.2-0.6,0.4-0.9,0.4c-0.3,0-0.7-0.1-0.9-0.4
			c-0.2-0.2-0.4-0.6-0.4-0.9c0-0.3,0.1-0.7,0.4-0.9c0.2-0.2,0.6-0.4,0.9-0.4c0.3,0,0.7,0.1,0.9,0.4c0.2,0.2,0.4,0.6,0.4,0.9
			C37.1,70.4,37,70.7,36.7,71z M36.7,57c-0.2,0.2-0.6,0.4-0.9,0.4c-0.3,0-0.7-0.1-0.9-0.4c-0.2-0.2-0.4-0.6-0.4-0.9
			c0-0.3,0.1-0.7,0.4-0.9c0.2-0.2,0.6-0.4,0.9-0.4c0.3,0,0.7,0.1,0.9,0.4c0.2,0.2,0.4,0.6,0.4,0.9C37.1,56.4,37,56.8,36.7,57z
			 M40.1,78c-0.2,0.2-0.6,0.4-0.9,0.4c-0.3,0-0.7-0.1-0.9-0.4c-0.2-0.2-0.4-0.6-0.4-0.9c0-0.3,0.1-0.7,0.4-0.9
			c0.2-0.2,0.6-0.4,0.9-0.4c0.3,0,0.7,0.1,0.9,0.4c0.2,0.2,0.4,0.6,0.4,0.9C40.5,77.4,40.4,77.7,40.1,78z M40.1,64
			c-0.2,0.2-0.6,0.4-0.9,0.4c-0.3,0-0.7-0.1-0.9-0.4c-0.2-0.2-0.4-0.6-0.4-0.9c0-0.3,0.1-0.7,0.4-0.9c0.2-0.2,0.6-0.4,0.9-0.4
			c0.3,0,0.7,0.1,0.9,0.4c0.2,0.2,0.4,0.6,0.4,0.9C40.5,63.4,40.4,63.7,40.1,64z M40.1,50c-0.2,0.2-0.6,0.4-0.9,0.4
			c-0.3,0-0.7-0.1-0.9-0.4c-0.2-0.2-0.4-0.6-0.4-0.9c0-0.3,0.1-0.7,0.4-0.9c0.2-0.2,0.6-0.4,0.9-0.4c0.3,0,0.7,0.1,0.9,0.4
			c0.2,0.2,0.4,0.6,0.4,0.9C40.5,49.4,40.4,49.8,40.1,50z M40.1,36c-0.2,0.2-0.6,0.4-0.9,0.4c-0.3,0-0.7-0.1-0.9-0.4
			c-0.2-0.2-0.4-0.6-0.4-0.9c0-0.3,0.1-0.7,0.4-0.9c0.2-0.2,0.6-0.4,0.9-0.4c0.3,0,0.7,0.1,0.9,0.4c0.2,0.2,0.4,0.6,0.4,0.9
			C40.5,35.5,40.4,35.8,40.1,36z M43.5,71c-0.2,0.2-0.6,0.4-0.9,0.4s-0.7-0.1-0.9-0.4c-0.2-0.2-0.4-0.6-0.4-0.9
			c0-0.3,0.1-0.7,0.4-0.9c0.2-0.2,0.6-0.4,0.9-0.4s0.7,0.1,0.9,0.4c0.2,0.2,0.4,0.6,0.4,0.9C43.9,70.4,43.7,70.7,43.5,71z M43.5,57
			c-0.2,0.2-0.6,0.4-0.9,0.4s-0.7-0.1-0.9-0.4c-0.2-0.2-0.4-0.6-0.4-0.9c0-0.3,0.1-0.7,0.4-0.9c0.2-0.2,0.6-0.4,0.9-0.4
			s0.7,0.1,0.9,0.4c0.2,0.2,0.4,0.6,0.4,0.9C43.9,56.4,43.7,56.8,43.5,57z M43.5,43c-0.2,0.2-0.6,0.4-0.9,0.4
			c-0.3,0-0.7-0.1-0.9-0.4c-0.2-0.2-0.4-0.6-0.4-0.9c0-0.3,0.1-0.7,0.4-0.9c0.2-0.2,0.6-0.4,0.9-0.4s0.7,0.1,0.9,0.4
			c0.2,0.2,0.4,0.6,0.4,0.9C43.9,42.4,43.7,42.8,43.5,43z M46.9,64c-0.2,0.2-0.6,0.4-0.9,0.4c-0.3,0-0.7-0.1-0.9-0.4
			c-0.2-0.2-0.4-0.6-0.4-0.9c0-0.3,0.1-0.7,0.4-0.9c0.2-0.2,0.6-0.4,0.9-0.4c0.3,0,0.7,0.1,0.9,0.4c0.2,0.2,0.4,0.6,0.4,0.9
			C47.2,63.4,47.1,63.7,46.9,64z M46.9,50c-0.2,0.2-0.6,0.4-0.9,0.4c-0.3,0-0.7-0.1-0.9-0.4c-0.2-0.2-0.4-0.6-0.4-0.9
			c0-0.3,0.1-0.7,0.4-0.9c0.2-0.2,0.6-0.4,0.9-0.4c0.3,0,0.7,0.1,0.9,0.4c0.2,0.2,0.4,0.6,0.4,0.9C47.2,49.4,47.1,49.8,46.9,50z
			 M46.9,36c-0.2,0.2-0.6,0.4-0.9,0.4c-0.3,0-0.7-0.1-0.9-0.4c-0.2-0.2-0.4-0.6-0.4-0.9c0-0.3,0.1-0.7,0.4-0.9
			c0.2-0.2,0.6-0.4,0.9-0.4c0.3,0,0.7,0.1,0.9,0.4c0.2,0.2,0.4,0.6,0.4,0.9C47.2,35.5,47.1,35.8,46.9,36z"/>
		<path fill="#C1573F" d="M52.3,101c-1,1.6-1.6,3.1-1.6,4.9c-0.1,2.5,0.9,4.8,2.6,6.6c1.7,1.8,4,2.8,6.4,2.8c2.3,0,4.4-0.7,6.1-2.2
			C62.8,105.3,55,101.9,52.3,101z"/>
		<path fill="#CCCCCC" d="M93.2,67.5c-0.1,0-0.2,0-0.2,0c-0.3,0-0.7-0.1-0.9-0.4c-0.2-0.2-0.4-0.6-0.4-0.9c0-0.3,0.1-0.7,0.4-0.9
			c0.2-0.2,0.6-0.4,0.9-0.4c0.3,0,0.7,0.1,0.9,0.4c0.2,0.2,0.4,0.6,0.4,0.9c0,0.1,0,0.2,0,0.3c0.9-0.8,1.8-1.5,2.3-1.8v-4.2
			c-0.1,0-0.2,0-0.2,0c-0.3,0-0.7-0.1-0.9-0.4c-0.2-0.2-0.4-0.6-0.4-0.9c0-0.3,0.1-0.7,0.4-0.9c0.2-0.2,0.6-0.4,0.9-0.4
			c0.1,0,0.2,0,0.2,0V49H76v8.9c0,0,0.1,0,0.1,0c0.3,0,0.7,0.1,0.9,0.4c0.2,0.2,0.4,0.6,0.4,0.9c0,0.3-0.1,0.7-0.4,0.9
			c-0.2,0.2-0.6,0.4-0.9,0.4c0,0-0.1,0-0.1,0c-0.3,8.7-4.4,14.3-4.8,14.7l-8,10.8c0.1,0.1,0.2,0.1,0.3,0.2c0.2,0.2,0.4,0.6,0.4,0.9
			c0,0.3-0.1,0.7-0.4,0.9c-0.2,0.2-0.6,0.4-0.9,0.4c-0.3,0-0.7-0.1-0.9-0.4l-7.8,10.6c2.7,1,7.8,3.5,11.5,8.3
			c0.2-0.1,0.4-0.2,0.6-0.2c0.3,0,0.7,0.1,0.9,0.4c0.2,0.2,0.4,0.6,0.4,0.9c0,0.3-0.1,0.7-0.4,0.9c0,0-0.1,0-0.1,0.1
			c0.3,0.6,0.7,1.2,1,1.8l7.7-8.7c-0.1-0.1-0.2-0.1-0.3-0.2c-0.2-0.2-0.4-0.6-0.4-0.9c0-0.3,0.1-0.7,0.4-0.9
			c0.2-0.2,0.6-0.4,0.9-0.4c0.3,0,0.7,0.1,0.9,0.4c0.1,0.1,0.1,0.1,0.1,0.2l9.4-10.6c0.1-0.1,0.8-0.9,1.9-1.9
			c-0.1-0.2-0.2-0.5-0.2-0.7c0-0.3,0.1-0.7,0.4-0.9c0,0,0.1,0,0.1-0.1c-1.5-4.8-1.1-8.8,0.1-11.9c-0.1,0-0.1-0.1-0.2-0.1
			c-0.2-0.2-0.4-0.6-0.4-0.9c0-0.3,0.1-0.7,0.4-0.9c0.2-0.2,0.6-0.4,0.9-0.4c0.1,0,0.2,0,0.3,0c0.3-0.6,0.6-1.1,1-1.6
			C91.6,69.3,92.4,68.3,93.2,67.5z M92,51.3c0.2-0.2,0.6-0.4,0.9-0.4c0.3,0,0.7,0.1,0.9,0.4c0.2,0.2,0.4,0.6,0.4,0.9
			c0,0.3-0.1,0.7-0.4,0.9c-0.2,0.2-0.6,0.4-0.9,0.4c-0.3,0-0.7-0.1-0.9-0.4c-0.2-0.2-0.4-0.6-0.4-0.9C91.6,51.9,91.8,51.6,92,51.3z
			 M60.2,95.1c-0.2,0.2-0.6,0.4-0.9,0.4c-0.3,0-0.7-0.1-0.9-0.4c-0.2-0.2-0.4-0.6-0.4-0.9c0-0.3,0.1-0.7,0.4-0.9
			c0.2-0.2,0.6-0.4,0.9-0.4c0.3,0,0.7,0.1,0.9,0.4c0.2,0.2,0.4,0.6,0.4,0.9C60.6,94.5,60.4,94.9,60.2,95.1z M63.6,102.1
			c-0.2,0.2-0.6,0.4-0.9,0.4c-0.3,0-0.7-0.1-0.9-0.4c-0.2-0.2-0.4-0.6-0.4-0.9c0-0.3,0.1-0.7,0.4-0.9c0.2-0.2,0.6-0.4,0.9-0.4
			c0.3,0,0.7,0.1,0.9,0.4c0.2,0.2,0.4,0.6,0.4,0.9C63.9,101.5,63.8,101.9,63.6,102.1z M66.9,95.1c-0.2,0.2-0.6,0.4-0.9,0.4
			c-0.3,0-0.7-0.1-0.9-0.4c-0.2-0.2-0.4-0.6-0.4-0.9c0-0.3,0.1-0.7,0.4-0.9c0.2-0.2,0.6-0.4,0.9-0.4c0.3,0,0.7,0.1,0.9,0.4
			c0.2,0.2,0.4,0.6,0.4,0.9C67.3,94.5,67.2,94.9,66.9,95.1z M70.3,102.1c-0.2,0.2-0.6,0.4-0.9,0.4c-0.3,0-0.7-0.1-0.9-0.4
			c-0.2-0.2-0.4-0.6-0.4-0.9c0-0.3,0.1-0.7,0.4-0.9c0.2-0.2,0.6-0.4,0.9-0.4c0.3,0,0.7,0.1,0.9,0.4c0.2,0.2,0.4,0.6,0.4,0.9
			C70.7,101.5,70.5,101.9,70.3,102.1z M70.3,88.1c-0.2,0.2-0.6,0.4-0.9,0.4c-0.3,0-0.7-0.1-0.9-0.4c-0.2-0.2-0.4-0.6-0.4-0.9
			c0-0.3,0.1-0.7,0.4-0.9c0.2-0.2,0.6-0.4,0.9-0.4s0.7,0.1,0.9,0.4c0.2,0.2,0.4,0.6,0.4,0.9C70.7,87.5,70.5,87.9,70.3,88.1z
			 M73.7,95.1c-0.2,0.2-0.6,0.4-0.9,0.4c-0.3,0-0.7-0.1-0.9-0.4c-0.2-0.2-0.4-0.6-0.4-0.9c0-0.3,0.1-0.7,0.4-0.9
			c0.2-0.2,0.6-0.4,0.9-0.4c0.3,0,0.7,0.1,0.9,0.4c0.2,0.2,0.4,0.6,0.4,0.9C74.1,94.5,73.9,94.9,73.7,95.1z M73.7,81.1
			c-0.2,0.2-0.6,0.4-0.9,0.4c-0.3,0-0.7-0.1-0.9-0.4c-0.2-0.2-0.4-0.6-0.4-0.9c0-0.3,0.1-0.7,0.4-0.9c0.2-0.2,0.6-0.4,0.9-0.4
			c0.3,0,0.7,0.1,0.9,0.4c0.2,0.2,0.4,0.6,0.4,0.9C74.1,80.6,73.9,80.9,73.7,81.1z M77,88.1c-0.2,0.2-0.6,0.4-0.9,0.4
			c-0.3,0-0.7-0.1-0.9-0.4c-0.2-0.2-0.4-0.6-0.4-0.9c0-0.3,0.1-0.7,0.4-0.9c0.2-0.2,0.6-0.4,0.9-0.4c0.3,0,0.7,0.1,0.9,0.4
			c0.2,0.2,0.4,0.6,0.4,0.9C77.4,87.5,77.3,87.9,77,88.1z M77,74.2c-0.2,0.2-0.6,0.4-0.9,0.4c-0.3,0-0.7-0.1-0.9-0.4
			c-0.2-0.2-0.4-0.6-0.4-0.9c0-0.3,0.1-0.7,0.4-0.9c0.2-0.2,0.6-0.4,0.9-0.4c0.3,0,0.7,0.1,0.9,0.4c0.2,0.2,0.4,0.6,0.4,0.9
			C77.4,73.6,77.3,73.9,77,74.2z M80.4,95.1c-0.2,0.2-0.6,0.4-0.9,0.4c-0.3,0-0.7-0.1-0.9-0.4c-0.2-0.2-0.4-0.6-0.4-0.9
			c0-0.3,0.1-0.7,0.4-0.9c0.2-0.2,0.6-0.4,0.9-0.4c0.3,0,0.7,0.1,0.9,0.4c0.2,0.2,0.4,0.6,0.4,0.9C80.8,94.5,80.7,94.9,80.4,95.1z
			 M80.4,81.1c-0.2,0.2-0.6,0.4-0.9,0.4c-0.3,0-0.7-0.1-0.9-0.4c-0.2-0.2-0.4-0.6-0.4-0.9c0-0.3,0.1-0.7,0.4-0.9
			c0.2-0.2,0.6-0.4,0.9-0.4c0.3,0,0.7,0.1,0.9,0.4c0.2,0.2,0.4,0.6,0.4,0.9C80.8,80.6,80.7,80.9,80.4,81.1z M80.4,67.2
			c-0.2,0.2-0.6,0.4-0.9,0.4c-0.3,0-0.7-0.1-0.9-0.4c-0.2-0.2-0.4-0.6-0.4-0.9c0-0.3,0.1-0.7,0.4-0.9c0.2-0.2,0.6-0.4,0.9-0.4
			c0.3,0,0.7,0.1,0.9,0.4c0.2,0.2,0.4,0.6,0.4,0.9C80.8,66.6,80.7,66.9,80.4,67.2z M80.4,53.2c-0.2,0.2-0.6,0.4-0.9,0.4
			c-0.3,0-0.7-0.1-0.9-0.4c-0.2-0.2-0.4-0.6-0.4-0.9c0-0.3,0.1-0.7,0.4-0.9c0.2-0.2,0.6-0.4,0.9-0.4c0.3,0,0.7,0.1,0.9,0.4
			c0.2,0.2,0.4,0.6,0.4,0.9C80.8,52.6,80.7,52.9,80.4,53.2z M83.8,88.1c-0.2,0.2-0.6,0.4-0.9,0.4c-0.3,0-0.7-0.1-0.9-0.4
			c-0.2-0.2-0.4-0.6-0.4-0.9c0-0.3,0.1-0.7,0.4-0.9c0.2-0.2,0.6-0.4,0.9-0.4c0.3,0,0.7,0.1,0.9,0.4c0.2,0.2,0.4,0.6,0.4,0.9
			C84.2,87.5,84,87.9,83.8,88.1z M83.8,74.2c-0.2,0.2-0.6,0.4-0.9,0.4c-0.3,0-0.7-0.1-0.9-0.4c-0.2-0.2-0.4-0.6-0.4-0.9
			c0-0.3,0.1-0.7,0.4-0.9c0.2-0.2,0.6-0.4,0.9-0.4c0.3,0,0.7,0.1,0.9,0.4c0.2,0.2,0.4,0.6,0.4,0.9C84.2,73.6,84,73.9,83.8,74.2z
			 M83.8,60.2c-0.2,0.2-0.6,0.4-0.9,0.4c-0.3,0-0.7-0.1-0.9-0.4c-0.2-0.2-0.4-0.6-0.4-0.9c0-0.3,0.1-0.7,0.4-0.9
			c0.2-0.2,0.6-0.4,0.9-0.4c0.3,0,0.7,0.1,0.9,0.4c0.2,0.2,0.4,0.6,0.4,0.9C84.2,59.6,84,59.9,83.8,60.2z M87.1,81.1
			c-0.2,0.2-0.6,0.4-0.9,0.4c-0.3,0-0.7-0.1-0.9-0.4c-0.2-0.2-0.4-0.6-0.4-0.9c0-0.3,0.1-0.7,0.4-0.9c0.2-0.2,0.6-0.4,0.9-0.4
			c0.3,0,0.7,0.1,0.9,0.4c0.2,0.2,0.4,0.6,0.4,0.9C87.5,80.6,87.4,80.9,87.1,81.1z M87.2,67.2c-0.2,0.2-0.6,0.4-0.9,0.4
			c-0.3,0-0.7-0.1-0.9-0.4c-0.2-0.2-0.4-0.6-0.4-0.9c0-0.3,0.1-0.7,0.4-0.9c0.2-0.2,0.6-0.4,0.9-0.4c0.3,0,0.7,0.1,0.9,0.4
			c0.2,0.2,0.4,0.6,0.4,0.9C87.5,66.6,87.4,66.9,87.2,67.2z M87.1,53.2c-0.2,0.2-0.6,0.4-0.9,0.4c-0.3,0-0.7-0.1-0.9-0.4
			c-0.2-0.2-0.4-0.6-0.4-0.9c0-0.3,0.1-0.7,0.4-0.9c0.2-0.2,0.6-0.4,0.9-0.4c0.3,0,0.7,0.1,0.9,0.4c0.2,0.2,0.4,0.6,0.4,0.9
			C87.5,52.6,87.4,52.9,87.1,53.2z M89.6,60.6c-0.3,0-0.7-0.1-0.9-0.4c-0.2-0.2-0.4-0.6-0.4-0.9c0-0.3,0.1-0.7,0.4-0.9
			c0.2-0.2,0.6-0.4,0.9-0.4c0.3,0,0.7,0.1,0.9,0.4c0.2,0.2,0.4,0.6,0.4,0.9c0,0.3-0.1,0.7-0.4,0.9C90.3,60.4,89.9,60.6,89.6,60.6z"
			/>
		<path fill="#C1573F" d="M91.3,85.7c0.6-0.4,1.3-0.8,2-1c4-1.6,6-4,6.2-7.5c0.3-3.9-2.3-9.6-2.3-9.7C94.3,69.6,88,75.8,91.3,85.7z"
			/>
		<path fill="#3F352F" d="M54,70c5-2,7.7-5.3,7.9-9.9c0.2-3.7-1.3-7.5-2.4-10.5c-0.2-0.5-0.4-1.1-0.6-1.5v-29c0-0.7-0.6-1.3-1.3-1.3
			H34.4c-0.7,0-1.3,0.6-1.3,1.3v23.3c0,8.6-4.2,14.1-4.2,14.2c0,0-18.5,25-18.5,25.1c-1.3,2-2.5,4.3-2.6,7.1
			c-0.1,3.2,1.1,6.2,3.3,8.4c2.2,2.3,5.1,3.6,8.3,3.6c0.1,0,5.8,0,9.5-4.5l19.4-21.9C48.3,74.3,51.2,71.1,54,70z M59.3,60
			c-0.2,3.5-2.2,6-6.2,7.5c-0.7,0.3-1.4,0.6-2,1c-3.4-9.9,3-16.1,5.9-18.2C57,50.4,59.5,56.1,59.3,60z M35.7,20.4h20.6v3.4H35.7
			V20.4z M35.7,26.4h20.6v2.8H35.7V26.4z M19.4,98.1C17,98.1,14.7,97,13,95.3c-1.7-1.8-2.6-4.1-2.6-6.6c0-1.8,0.7-3.3,1.6-4.9
			c2.7,1,10.5,4.3,13.5,12.1C23.8,97.4,21.7,98.1,19.4,98.1z M46.3,72.6l-9.4,10.6c0-0.1-0.1-0.1-0.1-0.2c-0.2-0.2-0.6-0.4-0.9-0.4
			c-0.3,0-0.7,0.1-0.9,0.4c-0.2,0.2-0.4,0.6-0.4,0.9c0,0.3,0.1,0.7,0.4,0.9c0.1,0.1,0.2,0.2,0.3,0.2l-7.7,8.7
			c-0.3-0.6-0.6-1.2-1-1.8c0,0,0.1,0,0.1-0.1c0.2-0.2,0.4-0.6,0.4-0.9c0-0.3-0.1-0.7-0.4-0.9c-0.2-0.2-0.6-0.4-0.9-0.4
			c-0.2,0-0.4,0.1-0.6,0.2c-3.7-4.8-8.8-7.2-11.5-8.3L21.4,71c0.2,0.2,0.6,0.4,0.9,0.4c0.3,0,0.7-0.1,0.9-0.4
			c0.2-0.2,0.4-0.6,0.4-0.9c0-0.3-0.1-0.7-0.4-0.9C23.2,69,23.1,69,23,68.9l8-10.8c0.3-0.4,4.4-5.9,4.8-14.7c0,0,0.1,0,0.1,0
			c0.3,0,0.7-0.1,0.9-0.4c0.2-0.2,0.4-0.6,0.4-0.9c0-0.3-0.1-0.7-0.4-0.9c-0.2-0.2-0.6-0.4-0.9-0.4c0,0-0.1,0-0.1,0v-8.9h20.6v8.9
			c-0.1,0-0.2,0-0.2,0c-0.3,0-0.7,0.1-0.9,0.4c-0.2,0.2-0.4,0.6-0.4,0.9c0,0.3,0.1,0.7,0.4,0.9c0.2,0.2,0.6,0.4,0.9,0.4
			c0.1,0,0.2,0,0.2,0v4.2c-0.5,0.4-1.4,1-2.3,1.8c0-0.1,0-0.2,0-0.3c0-0.3-0.1-0.7-0.4-0.9c-0.2-0.2-0.6-0.4-0.9-0.4
			c-0.3,0-0.7,0.1-0.9,0.4c-0.2,0.2-0.4,0.6-0.4,0.9c0,0.3,0.1,0.7,0.4,0.9c0.2,0.2,0.6,0.4,0.9,0.4c0.1,0,0.2,0,0.2,0
			c-0.8,0.8-1.6,1.7-2.3,2.8c-0.3,0.5-0.7,1-1,1.6c-0.1,0-0.2,0-0.3,0c-0.3,0-0.7,0.1-0.9,0.4c-0.2,0.2-0.4,0.6-0.4,0.9
			c0,0.3,0.1,0.7,0.4,0.9c0.1,0,0.1,0.1,0.2,0.1c-1.2,3.1-1.6,7.1-0.1,11.9c0,0-0.1,0-0.1,0.1C48.1,69.4,48,69.7,48,70
			c0,0.2,0.1,0.5,0.2,0.7C47.1,71.7,46.4,72.6,46.3,72.6z"/>
		<path fill="#3F352F" d="M39.2,33.8c-0.3,0-0.7,0.1-0.9,0.4c-0.2,0.2-0.4,0.6-0.4,0.9c0,0.3,0.1,0.7,0.4,0.9
			c0.2,0.2,0.6,0.4,0.9,0.4c0.3,0,0.7-0.1,0.9-0.4c0.2-0.2,0.4-0.6,0.4-0.9c0-0.3-0.1-0.7-0.4-0.9C39.9,33.9,39.5,33.8,39.2,33.8z"
			/>
		<path fill="#3F352F" d="M45.9,33.8c-0.3,0-0.7,0.1-0.9,0.4c-0.2,0.2-0.4,0.6-0.4,0.9c0,0.3,0.1,0.7,0.4,0.9
			c0.2,0.2,0.6,0.4,0.9,0.4c0.3,0,0.7-0.1,0.9-0.4c0.2-0.2,0.4-0.6,0.4-0.9c0-0.3-0.1-0.7-0.4-0.9C46.6,33.9,46.3,33.8,45.9,33.8z"
			/>
		<path fill="#3F352F" d="M52.7,36.4c0.3,0,0.7-0.1,0.9-0.4c0.2-0.2,0.4-0.6,0.4-0.9c0-0.3-0.1-0.7-0.4-0.9
			c-0.2-0.2-0.6-0.4-0.9-0.4c-0.3,0-0.7,0.1-0.9,0.4c-0.2,0.2-0.4,0.6-0.4,0.9c0,0.3,0.1,0.7,0.4,0.9C52,36.3,52.3,36.4,52.7,36.4z"
			/>
		<path fill="#3F352F" d="M42.6,40.8c-0.3,0-0.7,0.1-0.9,0.4c-0.2,0.2-0.4,0.6-0.4,0.9c0,0.3,0.1,0.7,0.4,0.9
			c0.2,0.2,0.6,0.4,0.9,0.4c0.3,0,0.7-0.1,0.9-0.4c0.2-0.2,0.4-0.6,0.4-0.9c0-0.3-0.1-0.7-0.4-0.9C43.2,40.9,42.9,40.8,42.6,40.8z"
			/>
		<path fill="#3F352F" d="M49.3,43.4c0.3,0,0.7-0.1,0.9-0.4c0.2-0.2,0.4-0.6,0.4-0.9c0-0.3-0.1-0.7-0.4-0.9
			c-0.2-0.2-0.6-0.4-0.9-0.4c-0.3,0-0.7,0.1-0.9,0.4c-0.2,0.2-0.4,0.6-0.4,0.9c0,0.3,0.1,0.7,0.4,0.9C48.6,43.3,48.9,43.4,49.3,43.4
			z"/>
		<path fill="#3F352F" d="M39.2,47.8c-0.3,0-0.7,0.1-0.9,0.4c-0.2,0.2-0.4,0.6-0.4,0.9c0,0.3,0.1,0.7,0.4,0.9
			c0.2,0.2,0.6,0.4,0.9,0.4c0.3,0,0.7-0.1,0.9-0.4c0.2-0.2,0.4-0.6,0.4-0.9c0-0.3-0.1-0.7-0.4-0.9C39.9,47.9,39.5,47.8,39.2,47.8z"
			/>
		<path fill="#3F352F" d="M45.9,47.8c-0.3,0-0.7,0.1-0.9,0.4c-0.2,0.2-0.4,0.6-0.4,0.9c0,0.3,0.1,0.7,0.4,0.9
			c0.2,0.2,0.6,0.4,0.9,0.4c0.3,0,0.7-0.1,0.9-0.4c0.2-0.2,0.4-0.6,0.4-0.9c0-0.3-0.1-0.7-0.4-0.9C46.6,47.9,46.3,47.8,45.9,47.8z"
			/>
		<path fill="#3F352F" d="M35.8,54.8c-0.3,0-0.7,0.1-0.9,0.4c-0.2,0.2-0.4,0.6-0.4,0.9c0,0.3,0.1,0.7,0.4,0.9
			c0.2,0.2,0.6,0.4,0.9,0.4c0.3,0,0.7-0.1,0.9-0.4c0.2-0.2,0.4-0.6,0.4-0.9c0-0.3-0.1-0.7-0.4-0.9C36.5,54.9,36.2,54.8,35.8,54.8z"
			/>
		<path fill="#3F352F" d="M42.6,54.8c-0.3,0-0.7,0.1-0.9,0.4c-0.2,0.2-0.4,0.6-0.4,0.9c0,0.3,0.1,0.7,0.4,0.9
			c0.2,0.2,0.6,0.4,0.9,0.4s0.7-0.1,0.9-0.4c0.2-0.2,0.4-0.6,0.4-0.9c0-0.3-0.1-0.7-0.4-0.9C43.2,54.9,42.9,54.8,42.6,54.8z"/>
		<path fill="#3F352F" d="M32.4,61.7c-0.3,0-0.7,0.1-0.9,0.4c-0.2,0.2-0.4,0.6-0.4,0.9c0,0.3,0.1,0.7,0.4,0.9
			c0.2,0.2,0.6,0.4,0.9,0.4c0.3,0,0.7-0.1,0.9-0.4c0.2-0.2,0.4-0.6,0.4-0.9c0-0.3-0.1-0.7-0.4-0.9C33.1,61.9,32.8,61.7,32.4,61.7z"
			/>
		<path fill="#3F352F" d="M39.2,61.7c-0.3,0-0.7,0.1-0.9,0.4c-0.2,0.2-0.4,0.6-0.4,0.9c0,0.3,0.1,0.7,0.4,0.9
			c0.2,0.2,0.6,0.4,0.9,0.4c0.3,0,0.7-0.1,0.9-0.4c0.2-0.2,0.4-0.6,0.4-0.9c0-0.3-0.1-0.7-0.4-0.9C39.9,61.9,39.5,61.7,39.2,61.7z"
			/>
		<path fill="#3F352F" d="M45.9,61.7c-0.3,0-0.7,0.1-0.9,0.4c-0.2,0.2-0.4,0.6-0.4,0.9c0,0.3,0.1,0.7,0.4,0.9
			c0.2,0.2,0.6,0.4,0.9,0.4c0.3,0,0.7-0.1,0.9-0.4c0.2-0.2,0.4-0.6,0.4-0.9c0-0.3-0.1-0.7-0.4-0.9C46.6,61.9,46.3,61.7,45.9,61.7z"
			/>
		<path fill="#3F352F" d="M29.1,68.7c-0.3,0-0.7,0.1-0.9,0.4c-0.2,0.2-0.4,0.6-0.4,0.9c0,0.3,0.1,0.7,0.4,0.9
			c0.2,0.2,0.6,0.4,0.9,0.4c0.3,0,0.7-0.1,0.9-0.4c0.2-0.2,0.4-0.6,0.4-0.9c0-0.3-0.1-0.7-0.4-0.9C29.8,68.9,29.4,68.7,29.1,68.7z"
			/>
		<path fill="#3F352F" d="M35.8,68.7c-0.3,0-0.7,0.1-0.9,0.4c-0.2,0.2-0.4,0.6-0.4,0.9c0,0.3,0.1,0.7,0.4,0.9
			c0.2,0.2,0.6,0.4,0.9,0.4c0.3,0,0.7-0.1,0.9-0.4c0.2-0.2,0.4-0.6,0.4-0.9c0-0.3-0.1-0.7-0.4-0.9C36.5,68.9,36.2,68.7,35.8,68.7z"
			/>
		<path fill="#3F352F" d="M42.6,68.7c-0.3,0-0.7,0.1-0.9,0.4c-0.2,0.2-0.4,0.6-0.4,0.9c0,0.3,0.1,0.7,0.4,0.9
			c0.2,0.2,0.6,0.4,0.9,0.4s0.7-0.1,0.9-0.4c0.2-0.2,0.4-0.6,0.4-0.9c0-0.3-0.1-0.7-0.4-0.9C43.2,68.9,42.9,68.7,42.6,68.7z"/>
		<path fill="#3F352F" d="M19,75.7c-0.3,0-0.7,0.1-0.9,0.4c-0.2,0.2-0.4,0.6-0.4,0.9c0,0.3,0.1,0.7,0.4,0.9c0.2,0.2,0.6,0.4,0.9,0.4
			c0.3,0,0.7-0.1,0.9-0.4c0.2-0.2,0.4-0.6,0.4-0.9c0-0.3-0.1-0.7-0.4-0.9C19.7,75.9,19.3,75.7,19,75.7z"/>
		<path fill="#3F352F" d="M25.7,75.7c-0.3,0-0.7,0.1-0.9,0.4c-0.2,0.2-0.4,0.6-0.4,0.9c0,0.3,0.1,0.7,0.4,0.9
			c0.2,0.2,0.6,0.4,0.9,0.4c0.3,0,0.7-0.1,0.9-0.4c0.2-0.2,0.4-0.6,0.4-0.9c0-0.3-0.1-0.7-0.4-0.9C26.4,75.9,26.1,75.7,25.7,75.7z"
			/>
		<path fill="#3F352F" d="M32.4,75.7c-0.3,0-0.7,0.1-0.9,0.4c-0.2,0.2-0.4,0.6-0.4,0.9c0,0.3,0.1,0.7,0.4,0.9
			c0.2,0.2,0.6,0.4,0.9,0.4c0.3,0,0.7-0.1,0.9-0.4c0.2-0.2,0.4-0.6,0.4-0.9c0-0.3-0.1-0.7-0.4-0.9C33.1,75.9,32.8,75.7,32.4,75.7z"
			/>
		<path fill="#3F352F" d="M39.2,75.7c-0.3,0-0.7,0.1-0.9,0.4c-0.2,0.2-0.4,0.6-0.4,0.9c0,0.3,0.1,0.7,0.4,0.9
			c0.2,0.2,0.6,0.4,0.9,0.4c0.3,0,0.7-0.1,0.9-0.4c0.2-0.2,0.4-0.6,0.4-0.9c0-0.3-0.1-0.7-0.4-0.9C39.9,75.9,39.5,75.7,39.2,75.7z"
			/>
		<path fill="#3F352F" d="M22.3,82.7c-0.3,0-0.7,0.1-0.9,0.4C21.2,83.3,21,83.7,21,84c0,0.3,0.1,0.7,0.4,0.9
			c0.2,0.2,0.6,0.4,0.9,0.4c0.3,0,0.7-0.1,0.9-0.4c0.2-0.2,0.4-0.6,0.4-0.9c0-0.3-0.1-0.7-0.4-0.9C23,82.8,22.7,82.7,22.3,82.7z"/>
		<path fill="#3F352F" d="M29.1,82.7c-0.3,0-0.7,0.1-0.9,0.4c-0.2,0.2-0.4,0.6-0.4,0.9c0,0.3,0.1,0.7,0.4,0.9
			c0.2,0.2,0.6,0.4,0.9,0.4c0.3,0,0.7-0.1,0.9-0.4c0.2-0.2,0.4-0.6,0.4-0.9c0-0.3-0.1-0.7-0.4-0.9C29.8,82.8,29.4,82.7,29.1,82.7z"
			/>
		<path fill="#3F352F" d="M99.2,65.2v-29c0-0.7-0.6-1.3-1.3-1.3H74.7c-0.7,0-1.3,0.6-1.3,1.3v23.3c0,8.6-4.2,14.1-4.2,14.2
			c0,0-18.5,25-18.5,25.1c-1.3,2-2.5,4.3-2.6,7.1c-0.1,3.2,1.1,6.2,3.3,8.4c2.2,2.3,5.1,3.6,8.3,3.6c0.1,0,5.8,0,9.5-4.5l19.4-21.9
			c0,0,2.8-3.3,5.7-4.4c5-2,7.7-5.3,7.9-9.9c0.2-3.7-1.3-7.5-2.4-10.5C99.6,66.2,99.4,65.7,99.2,65.2z M76,37.5h20.6v3.4H76V37.5z
			 M76,43.6h20.6v2.8H76V43.6z M59.7,115.3c-2.5-0.1-4.7-1.1-6.4-2.8c-1.7-1.8-2.6-4.1-2.6-6.6c0-1.8,0.7-3.3,1.6-4.9
			c2.7,1,10.5,4.3,13.5,12.1C64.1,114.5,62,115.3,59.7,115.3z M89.6,71.9c-0.3,0-0.7,0.1-0.9,0.4c-0.2,0.2-0.4,0.6-0.4,0.9
			c0,0.3,0.1,0.7,0.4,0.9c0.1,0,0.1,0.1,0.2,0.1c-1.2,3.1-1.6,7.1-0.1,11.9c0,0-0.1,0-0.1,0.1c-0.2,0.2-0.4,0.6-0.4,0.9
			c0,0.2,0.1,0.5,0.2,0.7c-1.1,1-1.8,1.8-1.9,1.9l-9.4,10.6c0-0.1-0.1-0.1-0.1-0.2c-0.2-0.2-0.6-0.4-0.9-0.4c-0.3,0-0.7,0.1-0.9,0.4
			c-0.2,0.2-0.4,0.6-0.4,0.9c0,0.3,0.1,0.7,0.4,0.9c0.1,0.1,0.2,0.2,0.3,0.2l-7.7,8.7c-0.3-0.6-0.6-1.2-1-1.8c0,0,0.1,0,0.1-0.1
			c0.2-0.2,0.4-0.6,0.4-0.9c0-0.3-0.1-0.7-0.4-0.9c-0.2-0.2-0.6-0.4-0.9-0.4c-0.2,0-0.4,0.1-0.6,0.2c-3.7-4.8-8.8-7.2-11.5-8.3
			l7.8-10.6c0.2,0.2,0.6,0.4,0.9,0.4c0.3,0,0.7-0.1,0.9-0.4c0.2-0.2,0.4-0.6,0.4-0.9c0-0.3-0.1-0.7-0.4-0.9
			c-0.1-0.1-0.2-0.2-0.3-0.2l8-10.8c0.3-0.4,4.4-5.9,4.8-14.7c0,0,0.1,0,0.1,0c0.3,0,0.7-0.1,0.9-0.4c0.2-0.2,0.4-0.6,0.4-0.9
			c0-0.3-0.1-0.7-0.4-0.9c-0.2-0.2-0.6-0.4-0.9-0.4c0,0-0.1,0-0.1,0V49h20.6v8.9c-0.1,0-0.2,0-0.2,0c-0.3,0-0.7,0.1-0.9,0.4
			c-0.2,0.2-0.4,0.6-0.4,0.9c0,0.3,0.1,0.7,0.4,0.9c0.2,0.2,0.6,0.4,0.9,0.4c0.1,0,0.2,0,0.2,0v4.2c-0.5,0.4-1.4,1-2.3,1.8
			c0-0.1,0-0.2,0-0.3c0-0.3-0.1-0.7-0.4-0.9c-0.2-0.2-0.6-0.4-0.9-0.4c-0.3,0-0.7,0.1-0.9,0.4c-0.2,0.2-0.4,0.6-0.4,0.9
			c0,0.3,0.1,0.7,0.4,0.9c0.2,0.2,0.6,0.4,0.9,0.4c0.1,0,0.2,0,0.2,0c-0.8,0.8-1.6,1.7-2.3,2.8c-0.3,0.5-0.7,1-1,1.6
			C89.8,71.9,89.7,71.9,89.6,71.9z M99.6,77.1c-0.2,3.5-2.2,6-6.2,7.5c-0.7,0.3-1.4,0.6-2,1c-3.4-9.9,3-16.1,5.9-18.2
			C97.3,67.5,99.8,73.2,99.6,77.1z"/>
		<path fill="#3F352F" d="M79.5,50.9c-0.3,0-0.7,0.1-0.9,0.4c-0.2,0.2-0.4,0.6-0.4,0.9c0,0.3,0.1,0.7,0.4,0.9
			c0.2,0.2,0.6,0.4,0.9,0.4c0.3,0,0.7-0.1,0.9-0.4c0.2-0.2,0.4-0.6,0.4-0.9c0-0.3-0.1-0.7-0.4-0.9C80.2,51.1,79.8,50.9,79.5,50.9z"
			/>
		<path fill="#3F352F" d="M86.2,50.9c-0.3,0-0.7,0.1-0.9,0.4c-0.2,0.2-0.4,0.6-0.4,0.9c0,0.3,0.1,0.7,0.4,0.9
			c0.2,0.2,0.6,0.4,0.9,0.4c0.3,0,0.7-0.1,0.9-0.4c0.2-0.2,0.4-0.6,0.4-0.9c0-0.3-0.1-0.7-0.4-0.9C86.9,51.1,86.6,50.9,86.2,50.9z"
			/>
		<path fill="#3F352F" d="M93,53.6c0.3,0,0.7-0.1,0.9-0.4c0.2-0.2,0.4-0.6,0.4-0.9c0-0.3-0.1-0.7-0.4-0.9c-0.2-0.2-0.6-0.4-0.9-0.4
			c-0.3,0-0.7,0.1-0.9,0.4c-0.2,0.2-0.4,0.6-0.4,0.9c0,0.3,0.1,0.7,0.4,0.9C92.3,53.4,92.6,53.6,93,53.6z"/>
		<path fill="#3F352F" d="M82.8,57.9c-0.3,0-0.7,0.1-0.9,0.4c-0.2,0.2-0.4,0.6-0.4,0.9c0,0.3,0.1,0.7,0.4,0.9
			c0.2,0.2,0.6,0.4,0.9,0.4c0.3,0,0.7-0.1,0.9-0.4c0.2-0.2,0.4-0.6,0.4-0.9c0-0.3-0.1-0.7-0.4-0.9C83.5,58.1,83.2,57.9,82.8,57.9z"
			/>
		<path fill="#3F352F" d="M90.5,58.3c-0.2-0.2-0.6-0.4-0.9-0.4c-0.3,0-0.7,0.1-0.9,0.4c-0.2,0.2-0.4,0.6-0.4,0.9
			c0,0.3,0.1,0.7,0.4,0.9c0.2,0.2,0.6,0.4,0.9,0.4c0.3,0,0.7-0.1,0.9-0.4c0.2-0.2,0.4-0.6,0.4-0.9C90.9,58.9,90.8,58.6,90.5,58.3z"
			/>
		<path fill="#3F352F" d="M79.5,64.9c-0.3,0-0.7,0.1-0.9,0.4c-0.2,0.2-0.4,0.6-0.4,0.9c0,0.3,0.1,0.7,0.4,0.9
			c0.2,0.2,0.6,0.4,0.9,0.4c0.3,0,0.7-0.1,0.9-0.4c0.2-0.2,0.4-0.6,0.4-0.9c0-0.3-0.1-0.7-0.4-0.9C80.2,65,79.8,64.9,79.5,64.9z"/>
		<path fill="#3F352F" d="M86.2,64.9c-0.3,0-0.7,0.1-0.9,0.4c-0.2,0.2-0.4,0.6-0.4,0.9c0,0.3,0.1,0.7,0.4,0.9
			c0.2,0.2,0.6,0.4,0.9,0.4c0.3,0,0.7-0.1,0.9-0.4c0.2-0.2,0.4-0.6,0.4-0.9c0-0.3-0.1-0.7-0.4-0.9C86.9,65,86.6,64.9,86.2,64.9z"/>
		<path fill="#3F352F" d="M76.1,71.9c-0.3,0-0.7,0.1-0.9,0.4c-0.2,0.2-0.4,0.6-0.4,0.9c0,0.3,0.1,0.7,0.4,0.9
			c0.2,0.2,0.6,0.4,0.9,0.4c0.3,0,0.7-0.1,0.9-0.4c0.2-0.2,0.4-0.6,0.4-0.9c0-0.3-0.1-0.7-0.4-0.9C76.8,72,76.5,71.9,76.1,71.9z"/>
		<path fill="#3F352F" d="M82.8,71.9c-0.3,0-0.7,0.1-0.9,0.4c-0.2,0.2-0.4,0.6-0.4,0.9c0,0.3,0.1,0.7,0.4,0.9
			c0.2,0.2,0.6,0.4,0.9,0.4c0.3,0,0.7-0.1,0.9-0.4c0.2-0.2,0.4-0.6,0.4-0.9c0-0.3-0.1-0.7-0.4-0.9C83.5,72,83.2,71.9,82.8,71.9z"/>
		<path fill="#3F352F" d="M72.7,78.9c-0.3,0-0.7,0.1-0.9,0.4c-0.2,0.2-0.4,0.6-0.4,0.9c0,0.3,0.1,0.7,0.4,0.9
			c0.2,0.2,0.6,0.4,0.9,0.4c0.3,0,0.7-0.1,0.9-0.4c0.2-0.2,0.4-0.6,0.4-0.9c0-0.3-0.1-0.7-0.4-0.9C73.4,79,73.1,78.9,72.7,78.9z"/>
		<path fill="#3F352F" d="M79.5,78.9c-0.3,0-0.7,0.1-0.9,0.4c-0.2,0.2-0.4,0.6-0.4,0.9c0,0.3,0.1,0.7,0.4,0.9
			c0.2,0.2,0.6,0.4,0.9,0.4c0.3,0,0.7-0.1,0.9-0.4c0.2-0.2,0.4-0.6,0.4-0.9c0-0.3-0.1-0.7-0.4-0.9C80.2,79,79.8,78.9,79.5,78.9z"/>
		<path fill="#3F352F" d="M86.2,78.9c-0.3,0-0.7,0.1-0.9,0.4c-0.2,0.2-0.4,0.6-0.4,0.9c0,0.3,0.1,0.7,0.4,0.9
			c0.2,0.2,0.6,0.4,0.9,0.4c0.3,0,0.7-0.1,0.9-0.4c0.2-0.2,0.4-0.6,0.4-0.9c0-0.3-0.1-0.7-0.4-0.9C86.9,79,86.6,78.9,86.2,78.9z"/>
		<path fill="#3F352F" d="M69.4,85.9c-0.3,0-0.7,0.1-0.9,0.4c-0.2,0.2-0.4,0.6-0.4,0.9c0,0.3,0.1,0.7,0.4,0.9
			c0.2,0.2,0.6,0.4,0.9,0.4c0.3,0,0.7-0.1,0.9-0.4c0.2-0.2,0.4-0.6,0.4-0.9c0-0.3-0.1-0.7-0.4-0.9C70.1,86,69.7,85.9,69.4,85.9z"/>
		<path fill="#3F352F" d="M76.1,85.9c-0.3,0-0.7,0.1-0.9,0.4c-0.2,0.2-0.4,0.6-0.4,0.9c0,0.3,0.1,0.7,0.4,0.9
			c0.2,0.2,0.6,0.4,0.9,0.4c0.3,0,0.7-0.1,0.9-0.4c0.2-0.2,0.4-0.6,0.4-0.9c0-0.3-0.1-0.7-0.4-0.9C76.8,86,76.5,85.9,76.1,85.9z"/>
		<path fill="#3F352F" d="M82.8,85.9c-0.3,0-0.7,0.1-0.9,0.4c-0.2,0.2-0.4,0.6-0.4,0.9c0,0.3,0.1,0.7,0.4,0.9
			c0.2,0.2,0.6,0.4,0.9,0.4c0.3,0,0.7-0.1,0.9-0.4c0.2-0.2,0.4-0.6,0.4-0.9c0-0.3-0.1-0.7-0.4-0.9C83.5,86,83.2,85.9,82.8,85.9z"/>
		<path fill="#3F352F" d="M59.3,92.9c-0.3,0-0.7,0.1-0.9,0.4c-0.2,0.2-0.4,0.6-0.4,0.9c0,0.3,0.1,0.7,0.4,0.9
			c0.2,0.2,0.6,0.4,0.9,0.4c0.3,0,0.7-0.1,0.9-0.4c0.2-0.2,0.4-0.6,0.4-0.9c0-0.3-0.1-0.7-0.4-0.9C59.9,93,59.6,92.9,59.3,92.9z"/>
		<path fill="#3F352F" d="M66,92.9c-0.3,0-0.7,0.1-0.9,0.4c-0.2,0.2-0.4,0.6-0.4,0.9c0,0.3,0.1,0.7,0.4,0.9c0.2,0.2,0.6,0.4,0.9,0.4
			c0.3,0,0.7-0.1,0.9-0.4c0.2-0.2,0.4-0.6,0.4-0.9c0-0.3-0.1-0.7-0.4-0.9C66.7,93,66.3,92.9,66,92.9z"/>
		<path fill="#3F352F" d="M72.7,92.9c-0.3,0-0.7,0.1-0.9,0.4c-0.2,0.2-0.4,0.6-0.4,0.9c0,0.3,0.1,0.7,0.4,0.9
			c0.2,0.2,0.6,0.4,0.9,0.4c0.3,0,0.7-0.1,0.9-0.4c0.2-0.2,0.4-0.6,0.4-0.9c0-0.3-0.1-0.7-0.4-0.9C73.4,93,73.1,92.9,72.7,92.9z"/>
		<path fill="#3F352F" d="M79.5,92.9c-0.3,0-0.7,0.1-0.9,0.4c-0.2,0.2-0.4,0.6-0.4,0.9c0,0.3,0.1,0.7,0.4,0.9
			c0.2,0.2,0.6,0.4,0.9,0.4c0.3,0,0.7-0.1,0.9-0.4c0.2-0.2,0.4-0.6,0.4-0.9c0-0.3-0.1-0.7-0.4-0.9C80.2,93,79.8,92.9,79.5,92.9z"/>
		<path fill="#3F352F" d="M62.6,99.9c-0.3,0-0.7,0.1-0.9,0.4c-0.2,0.2-0.4,0.6-0.4,0.9c0,0.3,0.1,0.7,0.4,0.9
			c0.2,0.2,0.6,0.4,0.9,0.4c0.3,0,0.7-0.1,0.9-0.4c0.2-0.2,0.4-0.6,0.4-0.9c0-0.3-0.1-0.7-0.4-0.9C63.3,100,63,99.9,62.6,99.9z"/>
		<path fill="#3F352F" d="M69.4,99.9c-0.3,0-0.7,0.1-0.9,0.4c-0.2,0.2-0.4,0.6-0.4,0.9c0,0.3,0.1,0.7,0.4,0.9
			c0.2,0.2,0.6,0.4,0.9,0.4c0.3,0,0.7-0.1,0.9-0.4c0.2-0.2,0.4-0.6,0.4-0.9c0-0.3-0.1-0.7-0.4-0.9C70.1,100,69.7,99.9,69.4,99.9z"/>
	</g>
	<g>
		<path fill="#CAE6DC" d="M406.9,99.9h36.2c0.4-1.1,0.8-2.4,1.3-3.6h-37.8C406.7,97.8,406.8,99.1,406.9,99.9z"/>
		<path fill="#CCCCCC" d="M436.3,80.9c-2-3.6-2.5-8-3-11.5c0-0.4-2.7-31-3.1-36.8h-16.1l-5.1,17c-3.8,15.8-3.3,34.1-2.7,44h38.9
			c0.9-2.7,1.7-5,1.8-5.5v-0.8C442.1,87,438.5,84.8,436.3,80.9z"/>
		<path fill="#CCCCCC" d="M436,69c0.8,6.7,1.9,14.9,11.1,15.6V32.6h-14.2C433.3,38.7,435.9,68.6,436,69z"/>
		<path fill="#CAE6DC" d="M453.7,99.9h36.2c0.1-0.8,0.2-2,0.3-3.6h-37.8C452.8,97.5,453.3,98.7,453.7,99.9z"/>
		<path fill="#CCCCCC" d="M482.6,32.6h-16.1c-0.4,5.8-3,36.4-3.1,36.8c-0.4,3.5-1,7.9-3,11.5c-2.2,4-5.8,6.1-10.8,6.4v0.8
			c0.1,0.6,0.9,2.8,1.8,5.5h38.9c0.6-10,1.1-28.2-2.7-44L482.6,32.6z"/>
		<polygon fill="#8BB4C8" points="480.7,21.5 416.1,21.5 414.9,29.9 481.9,29.9 		"/>
		<path fill="#CCCCCC" d="M460.8,69c0.1-0.4,2.6-30.4,3.1-36.5h-14.2v52.1C459,84,460,75.7,460.8,69z"/>
		<path fill="#3F352F" d="M484.7,30.5L483.1,20c-0.1-0.6-0.7-1.1-1.3-1.1H415c-0.7,0-1.2,0.5-1.3,1.1l-1.5,10.4
			c-0.1,0.1-5.6,18.5-5.6,18.5c-5.6,23.5-2.2,52.1-2.1,52.4c0.1,0.7,0.6,1.2,1.3,1.2h38.3c0.6,0,1.1-0.4,1.2-0.9
			c1.5-4.1,2.4-6.9,3.1-8.9c0.7,2,1.6,4.8,3.1,8.9c0.2,0.5,0.7,0.9,1.2,0.9h38.3c0.7,0,1.2-0.5,1.3-1.2c0-0.3,3.5-29-2.1-52.4
			C490.2,48.9,484.8,30.6,484.7,30.5z M443.1,99.9h-36.2c-0.1-0.8-0.2-2-0.3-3.6h37.8C444,97.5,443.5,98.7,443.1,99.9z M447.1,88.1
			c-0.1,0.5-0.9,2.8-1.8,5.5h-38.9c-0.6-10-1.1-28.2,2.7-44l5.1-17h16.1c0.4,5.8,3,36.4,3.1,36.8c0.4,3.5,1,7.9,3,11.5
			c2.2,4,5.8,6.1,10.8,6.4V88.1z M447.1,84.7c-9.3-0.7-10.3-9-11.1-15.6c-0.1-0.4-2.6-30.4-3.1-36.5h14.2V84.7z M414.9,29.9l1.2-8.4
			h64.6l1.2,8.4H414.9z M463.9,32.6c-0.4,6.1-3,36.1-3.1,36.5C460,75.7,459,84,449.7,84.7V32.6H463.9z M489.9,99.9h-36.2
			c-0.4-1.1-0.8-2.4-1.3-3.6h37.8C490.1,97.8,490,99.1,489.9,99.9z M490.4,93.6h-38.9c-0.9-2.7-1.7-4.9-1.8-5.5v-0.8
			c4.9-0.3,8.5-2.5,10.8-6.4c2-3.6,2.5-8,3-11.5c0-0.4,2.7-31,3.1-36.8h16.1l5.1,17C491.5,65.4,491,83.7,490.4,93.6z"/>
	</g>
	<g>
		<path fill="#CCCCCC" d="M247.8,69.4c0.8-1.7,1.7-3.4,2.4-5.2C242.6,46,239,23.9,238.1,17.7l-12.2,4.8c0.6,5.5,2.7,30.4-9.3,36.3
			c1.1,4.9,5.3,25.6,3.2,45.3l25.8,8.9l4.4-5.4l-2-2.4c-0.2-0.2-0.3-0.5-0.3-0.8V70C247.7,69.8,247.7,69.6,247.8,69.4z M241.9,92.9
			c0,0.7-0.6,1.3-1.3,1.3c-0.7,0-1.3-0.6-1.3-1.3v-1.7L225,88.7v1.3c0,0.7-0.6,1.3-1.3,1.3s-1.3-0.6-1.3-1.3v-2.8
			c0-0.4,0.2-0.8,0.5-1c0.3-0.3,0.7-0.4,1.1-0.3l16.9,2.9c0.6,0.1,1.1,0.7,1.1,1.3V92.9z"/>
		<path fill="#FBB03B" d="M262.2,20.7c-2.9,0.8-6.6,1.3-10.5,1.3c-3.9,0-7.6-0.5-10.5-1.3c1.4,8.2,4.6,25.1,10.5,40
			C257.6,45.8,260.8,28.9,262.2,20.7z"/>
		<path fill="#CCCCCC" d="M277.5,22.5l-12.2-4.8c-0.9,6.2-4.6,28.6-12.4,47c0,0,0,0,0,0c-0.8,1.9-1.7,3.8-2.6,5.6v33.5l7.5,9.1
			l25.8-8.9c-2.1-19.6,2.1-40.3,3.2-45.3C274.8,52.9,276.9,28,277.5,22.5z M253.8,100.1c-0.2,0.2-0.6,0.4-0.9,0.4
			c-0.3,0-0.7-0.1-0.9-0.4c-0.2-0.2-0.4-0.6-0.4-0.9c0-0.3,0.1-0.7,0.4-0.9c0.2-0.2,0.6-0.4,0.9-0.4c0.3,0,0.7,0.1,0.9,0.4
			c0.2,0.2,0.4,0.6,0.4,0.9C254.2,99.5,254.1,99.9,253.8,100.1z M253.8,91.5c-0.2,0.2-0.6,0.4-0.9,0.4c-0.3,0-0.7-0.1-0.9-0.4
			c-0.2-0.2-0.4-0.6-0.4-0.9c0-0.3,0.1-0.7,0.4-0.9c0.2-0.2,0.6-0.4,0.9-0.4c0.3,0,0.7,0.1,0.9,0.4c0.2,0.2,0.4,0.6,0.4,0.9
			C254.2,90.9,254.1,91.3,253.8,91.5z M253.8,82.9c-0.2,0.2-0.6,0.4-0.9,0.4c-0.3,0-0.7-0.1-0.9-0.4c-0.2-0.2-0.4-0.6-0.4-0.9
			c0-0.3,0.1-0.7,0.4-0.9c0.2-0.2,0.6-0.4,0.9-0.4c0.3,0,0.7,0.1,0.9,0.4c0.2,0.2,0.4,0.6,0.4,0.9C254.2,82.3,254.1,82.7,253.8,82.9
			z M253.8,74.3c-0.2,0.2-0.6,0.4-0.9,0.4c-0.3,0-0.7-0.1-0.9-0.4c-0.2-0.2-0.4-0.6-0.4-0.9c0-0.3,0.1-0.7,0.4-0.9
			c0.2-0.2,0.6-0.4,0.9-0.4c0.3,0,0.7,0.1,0.9,0.4c0.2,0.2,0.4,0.6,0.4,0.9C254.2,73.7,254.1,74.1,253.8,74.3z M281.1,89.9
			c0,0.7-0.6,1.3-1.3,1.3c-0.7,0-1.3-0.6-1.3-1.3v-1.3l-14.3,2.5v1.7c0,0.7-0.6,1.3-1.3,1.3c-0.7,0-1.3-0.6-1.3-1.3V90
			c0-0.6,0.5-1.2,1.1-1.3l16.9-2.9c0.4-0.1,0.8,0,1.1,0.3c0.3,0.3,0.5,0.6,0.5,1V89.9z"/>
		<path fill="#3F352F" d="M288.8,56.8c-6.4-2.4-8.4-11.6-9-18.9c-0.6-8.2,0.4-16,0.4-16c0.1-0.6-0.3-1.2-0.8-1.4l-14.7-5.7
			c-0.4-0.1-0.8-0.1-1.2,0.1c-0.4,0.2-0.6,0.6-0.6,1c0,0-0.1,0.8-0.3,2.1c-2.7,1-6.7,1.6-11,1.6c-4.2,0-8.3-0.6-11-1.6
			c-0.2-1.3-0.3-2-0.3-2.1c-0.1-0.4-0.3-0.8-0.6-1c-0.4-0.2-0.8-0.2-1.2-0.1L224,20.4c-0.6,0.2-0.9,0.8-0.8,1.4
			c0,0.1,1.1,7.8,0.4,16c-0.6,7.3-2.6,16.6-9,18.9c-0.6,0.2-1,0.9-0.8,1.6c0.1,0.2,5.9,24.3,3.2,46.5c-0.1,0.6,0.3,1.2,0.9,1.4
			l27.7,9.6c0.1,0,0.3,0.1,0.4,0.1c0.4,0,0.8-0.2,1-0.5l4.7-5.7l4.7,5.7c0.3,0.3,0.6,0.5,1,0.5c0.1,0,0.3,0,0.4-0.1l27.7-9.6
			c0.6-0.2,1-0.8,0.9-1.4c-2.7-22.2,3.2-46.2,3.2-46.5C289.8,57.7,289.5,57,288.8,56.8z M251.7,22c3.9,0,7.6-0.5,10.5-1.3
			c-1.4,8.2-4.6,25.1-10.5,40c-5.9-14.9-9.1-31.8-10.5-40C244.1,21.5,247.8,22,251.7,22z M248,105.2l2,2.4l-4.4,5.4l-25.8-8.9
			c2.1-19.6-2.1-40.3-3.2-45.3c12.1-5.9,9.9-30.8,9.3-36.3l12.2-4.8c0.9,6.2,4.5,28.3,12.2,46.5c-0.8,1.8-1.6,3.5-2.4,5.2
			c-0.1,0.2-0.1,0.4-0.1,0.6v34.3C247.7,104.6,247.8,104.9,248,105.2z M283.7,104.1l-25.8,8.9l-7.5-9.1V70.3
			c0.9-1.8,1.8-3.7,2.6-5.6c0,0,0,0,0,0c7.8-18.4,11.5-40.8,12.4-47l12.2,4.8c-0.6,5.5-2.7,30.4,9.3,36.3
			C285.7,63.7,281.6,84.4,283.7,104.1z"/>
		<path fill="#3F352F" d="M240.8,88.7l-16.9-2.9c-0.4-0.1-0.8,0-1.1,0.3c-0.3,0.3-0.5,0.6-0.5,1v2.8c0,0.7,0.6,1.3,1.3,1.3
			s1.3-0.6,1.3-1.3v-1.3l14.3,2.5v1.7c0,0.7,0.6,1.3,1.3,1.3c0.7,0,1.3-0.6,1.3-1.3V90C241.9,89.4,241.4,88.8,240.8,88.7z"/>
		<path fill="#3F352F" d="M280.6,86.1c-0.3-0.3-0.7-0.4-1.1-0.3l-16.9,2.9c-0.6,0.1-1.1,0.7-1.1,1.3v2.8c0,0.7,0.6,1.3,1.3,1.3
			c0.7,0,1.3-0.6,1.3-1.3v-1.7l14.3-2.5v1.3c0,0.7,0.6,1.3,1.3,1.3c0.7,0,1.3-0.6,1.3-1.3v-2.8C281.1,86.7,280.9,86.3,280.6,86.1z"
			/>
		<path fill="#3F352F" d="M252.9,72.1c-0.3,0-0.7,0.1-0.9,0.4c-0.2,0.2-0.4,0.6-0.4,0.9c0,0.3,0.1,0.7,0.4,0.9
			c0.2,0.2,0.6,0.4,0.9,0.4c0.3,0,0.7-0.1,0.9-0.4c0.2-0.2,0.4-0.6,0.4-0.9c0-0.3-0.1-0.7-0.4-0.9C253.6,72.2,253.2,72.1,252.9,72.1
			z"/>
		<path fill="#3F352F" d="M252.9,80.7c-0.3,0-0.7,0.1-0.9,0.4c-0.2,0.2-0.4,0.6-0.4,0.9c0,0.3,0.1,0.7,0.4,0.9
			c0.2,0.2,0.6,0.4,0.9,0.4c0.3,0,0.7-0.1,0.9-0.4c0.2-0.2,0.4-0.6,0.4-0.9c0-0.3-0.1-0.7-0.4-0.9C253.6,80.8,253.2,80.7,252.9,80.7
			z"/>
		<path fill="#3F352F" d="M252.9,89.3c-0.3,0-0.7,0.1-0.9,0.4c-0.2,0.2-0.4,0.6-0.4,0.9c0,0.3,0.1,0.7,0.4,0.9
			c0.2,0.2,0.6,0.4,0.9,0.4c0.3,0,0.7-0.1,0.9-0.4c0.2-0.2,0.4-0.6,0.4-0.9c0-0.3-0.1-0.7-0.4-0.9C253.6,89.4,253.2,89.3,252.9,89.3
			z"/>
		<path fill="#3F352F" d="M252.9,97.9c-0.3,0-0.7,0.1-0.9,0.4c-0.2,0.2-0.4,0.6-0.4,0.9c0,0.3,0.1,0.7,0.4,0.9
			c0.2,0.2,0.6,0.4,0.9,0.4c0.3,0,0.7-0.1,0.9-0.4c0.2-0.2,0.4-0.6,0.4-0.9c0-0.3-0.1-0.7-0.4-0.9C253.6,98,253.2,97.9,252.9,97.9z"
			/>
	</g>
	<g>
		<g>
			<path fill="#CCCCCC" d="M153.9,56.6c-7.4,0-13.4,6-13.4,13.4s6,13.4,13.4,13.4c7.4,0,13.4-6,13.4-13.4S161.3,56.6,153.9,56.6z
				 M153.9,80.1c-5.6,0-10.1-4.5-10.1-10.1S148.4,60,153.9,60c5.6,0,10.1,4.5,10.1,10.1S159.5,80.1,153.9,80.1z"/>
		</g>
		<path fill="#CCCCCC" d="M159,68.4h-3.4V65c0-0.9-0.7-1.7-1.7-1.7h0c-0.9,0-1.7,0.7-1.7,1.7v3.4h-3.4c-0.9,0-1.7,0.7-1.7,1.7v0
			c0,0.9,0.7,1.7,1.7,1.7h3.4v3.4c0,0.9,0.7,1.7,1.7,1.7h0c0.9,0,1.7-0.7,1.7-1.7v-3.4h3.4c0.9,0,1.7-0.7,1.7-1.7v0
			C160.6,69.1,159.9,68.4,159,68.4z"/>
	</g>
	<g>
		<g>
			<path fill="#CCCCCC" d="M347.8,56.6c-7.4,0-13.4,6-13.4,13.4s6,13.4,13.4,13.4s13.4-6,13.4-13.4S355.3,56.6,347.8,56.6z
				 M347.8,80.1c-5.6,0-10.1-4.5-10.1-10.1S342.3,60,347.8,60c5.6,0,10.1,4.5,10.1,10.1S353.4,80.1,347.8,80.1z"/>
		</g>
		<path fill="#CCCCCC" d="M352.9,68.4h-3.4V65c0-0.9-0.7-1.7-1.7-1.7h0c-0.9,0-1.7,0.7-1.7,1.7v3.4h-3.4c-0.9,0-1.7,0.7-1.7,1.7v0
			c0,0.9,0.7,1.7,1.7,1.7h3.4v3.4c0,0.9,0.7,1.7,1.7,1.7h0c0.9,0,1.7-0.7,1.7-1.7v-3.4h3.4c0.9,0,1.7-0.7,1.7-1.7v0
			C354.6,69.1,353.8,68.4,352.9,68.4z"/>
	</g>
	<g>
		<g>
			<path fill="#CCCCCC" d="M561.3,56.6c-7.4,0-13.4,6-13.4,13.4s6,13.4,13.4,13.4s13.4-6,13.4-13.4S568.7,56.6,561.3,56.6z
				 M561.3,80.1c-5.6,0-10.1-4.5-10.1-10.1S555.7,60,561.3,60c5.6,0,10.1,4.5,10.1,10.1S566.8,80.1,561.3,80.1z"/>
		</g>
		<path fill="#CCCCCC" d="M566.3,68.4h-3.4V65c0-0.9-0.7-1.7-1.7-1.7h0c-0.9,0-1.7,0.7-1.7,1.7v3.4h-3.4c-0.9,0-1.7,0.7-1.7,1.7v0
			c0,0.9,0.7,1.7,1.7,1.7h3.4v3.4c0,0.9,0.7,1.7,1.7,1.7h0c0.9,0,1.7-0.7,1.7-1.7v-3.4h3.4c0.9,0,1.7-0.7,1.7-1.7v0
			C568,69.1,567.2,68.4,566.3,68.4z"/>
	</g>
</g>
</svg>
