<?xml version="1.0" encoding="utf-8"?>
<!-- Generator: Adobe Illustrator 19.1.0, SVG Export Plug-In . SVG Version: 6.00 Build 0)  -->
<svg version="1.1" id="Livello_1" xmlns="http://www.w3.org/2000/svg" xmlns:xlink="http://www.w3.org/1999/xlink" x="0px" y="0px"
	 viewBox="0 0 908.9 614.7" enable-background="new 0 0 908.9 614.7" xml:space="preserve">
<g>
	<g>
		<path fill="#CCCCCC" d="M29,371.9c2.7,3.1,6.7,5.4,11.8,6.9c5.1,1.5,10.7,2.3,16.9,2.3c6.3,0,11.8-0.9,16.4-2.7
			c4.6-1.8,8.4-5.1,11.4-9.9c3-4.9,5.2-11.6,6.7-20.4c1.5-8.7,2.2-20.1,2.2-34c-3.7,6.8-9.4,11.9-17,15.3c-7.6,3.4-16.2,5.1-26,5.1
			c-7.8,0-14.7-1.3-20.9-3.8c-6.1-2.5-11.4-6-15.6-10.6c-4.3-4.5-7.6-9.9-9.9-16.1c-2.3-6.2-3.5-13.1-3.5-20.7
			c0-7.4,1.1-14.5,3.4-21.1c2.3-6.6,6.1-12.4,11.5-17.2c5.4-4.9,12.6-8.7,21.5-11.5c8.9-2.8,20-4.2,33.5-4.2
			c10.7,0,20.2,1.5,28.6,4.5c8.4,3,15.6,7.9,21.5,14.7c5.9,6.8,10.4,15.7,13.6,26.8c3.2,11.1,4.7,24.7,4.7,40.9
			c0,10.5-1.3,20.7-4,30.7c-2.7,9.9-7,18.8-13,26.4c-6,7.7-13.7,13.8-23.3,18.4c-9.5,4.6-21.1,6.9-34.7,6.9
			c-7.3,0-14.6-0.8-21.9-2.4c-7.4-1.6-14-4.1-19.9-7.4c-5.9-3.3-10.7-7.5-14.3-12.6C4.9,371.1,3,365,3,358.1c0-6.1,1.7-11,5-14.4
			c3.3-3.5,8-5.2,14.2-5.2c6.1,0,11,1.7,14.6,5.1c3.6,3.4,5.3,7.8,5.3,13.3c0,4.5-1.4,8.1-4.1,10.8C35.2,370.3,32.2,371.7,29,371.9z
			 M69,245.5c-7.8,0-13.7,2.5-17.8,7.4c-4.1,4.9-6.2,13.8-6.2,26.6c0,6.5,0.5,11.8,1.6,16.1c1,4.3,2.6,7.7,4.7,10.3
			c2.1,2.6,4.6,4.4,7.4,5.5c2.8,1,6.1,1.6,9.8,1.6c7.3,0,13-2.3,17.2-6.8c4.2-4.5,6.3-12.8,6.3-24.7c0-7-0.5-12.7-1.5-17.3
			c-1-4.6-2.4-8.3-4.4-11c-1.9-2.7-4.3-4.7-7.2-5.8C76.3,246.1,72.9,245.5,69,245.5z"/>
		<path fill="#CCCCCC" d="M207.8,374.3c0,6.3-2.1,11.6-6.3,15.9c-4.2,4.3-9.4,6.4-15.6,6.4c-6.3,0-11.7-2.1-16-6.4
			c-4.3-4.3-6.5-9.6-6.5-15.9c0-6,2.2-11.1,6.5-15.4c4.3-4.3,9.6-6.4,16-6.4c3.1,0,6,0.6,8.7,1.7c2.7,1.1,5,2.7,6.9,4.7
			c1.9,2,3.5,4.4,4.6,7C207.2,368.6,207.8,371.4,207.8,374.3z"/>
		<path fill="#CCCCCC" d="M324.9,364.4c0,6.9,8.6,10.4,25.7,10.4v19.9H247.3v-19.9c20,0,30.1-3.5,30.1-10.4v-88.6h-32.3l-1-18.7
			c22.6-0.5,38.2-10.1,46.8-28.9l35.4,2.7c-0.5,4.4-0.8,8.1-1.1,11.1c-0.2,3.1-0.4,6-0.4,8.7V364.4z"/>
		<path fill="#CCCCCC" d="M454.9,229.3c12.4,0,23.4,1.4,32.9,4.1c9.5,2.8,17.3,7.4,23.7,14.1c6.3,6.6,11,15.5,14.2,26.6
			c3.2,11.1,4.7,24.9,4.7,41.6c0,16.3-1.6,29.8-4.7,40.5c-3.2,10.7-7.9,19.2-14.2,25.5c-6.3,6.3-14.2,10.7-23.7,13.2
			c-9.5,2.5-20.4,3.8-32.9,3.8c-12.6,0-23.6-1.3-33-3.8c-9.4-2.5-17.2-6.9-23.5-13.2c-6.3-6.3-11-14.8-14.2-25.5s-4.7-24.2-4.7-40.5
			c0-16.7,1.6-30.5,4.7-41.6c3.2-11.1,7.9-19.9,14.2-26.6c6.3-6.6,14.2-11.3,23.6-14.1C431.5,230.7,442.5,229.3,454.9,229.3z
			 M454.9,251.6c-5.5,0-10,1.3-13.6,4c-3.6,2.7-6.4,6.7-8.5,12c-2.1,5.3-3.6,12-4.4,19.9c-0.8,7.9-1.2,17.2-1.2,27.9
			c0,12.6,0.4,22.8,1.2,30.7c0.8,7.8,2.2,13.9,4.2,18.3c2,4.4,4.8,7.4,8.4,9c3.6,1.6,8.2,2.4,13.8,2.4c5.5,0,10-0.8,13.6-2.4
			c3.6-1.6,6.4-4.6,8.5-9c2.1-4.4,3.6-10.5,4.4-18.3c0.8-7.8,1.2-18.1,1.2-30.7c0-10.7-0.4-20-1.2-27.9c-0.8-7.9-2.3-14.5-4.4-19.9
			c-2.1-5.3-4.9-9.3-8.5-12C464.9,252.9,460.4,251.6,454.9,251.6z"/>
		<path fill="#CCCCCC" d="M598.3,374.3c0,6.3-2.1,11.6-6.3,15.9c-4.2,4.3-9.4,6.4-15.6,6.4c-6.3,0-11.7-2.1-16-6.4
			c-4.3-4.3-6.5-9.6-6.5-15.9c0-6,2.2-11.1,6.5-15.4c4.3-4.3,9.6-6.4,16-6.4c3.1,0,6,0.6,8.7,1.7c2.7,1.1,5,2.7,6.9,4.7
			c1.9,2,3.5,4.4,4.6,7C597.7,368.6,598.3,371.4,598.3,374.3z"/>
		<path fill="#CCCCCC" d="M715.4,364.4c0,6.9,8.6,10.4,25.7,10.4v19.9H637.8v-19.9c20,0,30.1-3.5,30.1-10.4v-88.6h-32.3l-1-18.7
			c22.6-0.5,38.2-10.1,46.8-28.9l35.4,2.7c-0.5,4.4-0.8,8.1-1.1,11.1c-0.2,3.1-0.4,6-0.4,8.7V364.4z"/>
		<path fill="#CCCCCC" d="M899,238c-2.9,4.4-6.6,8.2-11,11.5c-4.4,3.3-9.3,6.1-14.6,8.4c-5.3,2.3-10.7,4-16.4,5.1
			c-5.7,1.1-11.1,1.7-16.3,1.7c-4.4,0-9.7-0.4-15.9-1.2c-6.2-0.8-12.4-2.5-18.6-5.1l-3.2,33c5.2-3.2,11.2-5.6,18.1-7.2
			c6.9-1.5,14.4-2.3,22.7-2.3c12.1,0,22.3,1.5,30.6,4.4c8.2,2.9,14.8,6.9,19.8,11.9c4.9,5,8.5,10.9,10.7,17.6
			c2.2,6.7,3.3,13.8,3.3,21.2c0,11.2-2.1,20.7-6.2,28.5c-4.1,7.8-9.7,14.2-16.6,19c-7,4.9-15,8.4-24.3,10.7
			c-9.2,2.3-18.9,3.4-29.1,3.4c-8.2,0-16.2-1.1-23.9-3.4c-7.7-2.3-14.4-5.5-20.3-9.6c-5.8-4.1-10.5-9.1-13.9-14.8
			c-3.5-5.7-5.2-12-5.2-18.8c0-6.1,1.7-11.2,5-15.2c3.3-4,8-5.9,14.2-5.9c6.1,0,11,1.9,14.6,5.7c3.6,3.8,5.3,8.5,5.3,13.9
			c0,4.5-1.3,8.4-4,11.5c-2.7,3.2-5.6,4.8-8.9,5c1.5,3.7,4.6,6.7,9.5,8.9c4.9,2.2,11.2,3.3,18.9,3.3c12.6,0,21.7-3.8,27.2-11.3
			c5.5-7.5,8.2-18.4,8.2-32.6c0-11.2-2.3-19.8-6.8-25.8c-4.5-6.1-11.9-9.1-22.1-9.1c-7.4,0-14.2,0.9-20.1,2.8
			c-6,1.9-11.7,4.6-17.2,8.1l-13.6-10.4l6.5-71.6c4.2,0.6,8.9,1.2,14.1,1.7c5.2,0.5,10.5,0.9,16,1.2c5.5,0.3,10.9,0.6,16.2,0.7
			c5.3,0.2,10.3,0.2,14.8,0.2c3.9,0,8.1-0.1,12.7-0.4c4.6-0.2,9.3-0.6,13.9-1c4.7-0.4,9.3-1,13.7-1.7c4.4-0.7,8.4-1.6,12-2.5V238z"
			/>
	</g>
	<g>
		<path fill="#E6E6E6" d="M53.2,35.1c0-3.7-0.8-6.8-2.2-9.4c-1.5-2.6-3.8-3.9-6.9-3.9c-3.5,0-6,1.1-7.6,3.4
			c-1.6,2.2-2.4,4.8-2.4,7.5c0,4,1.3,7.2,3.9,9.6s5.8,4.4,9.8,6.1c3.9,1.7,8.1,3.5,12.6,5.3c4.5,1.8,8.7,4.1,12.6,7
			c3.9,2.9,7.2,6.7,9.8,11.3c2.6,4.7,3.9,10.7,3.9,18.2c0,13.1-3.7,22.7-11.2,28.6c-7.5,5.9-18.3,8.9-32.5,8.9
			c-6.7,0-12.6-0.5-17.7-1.6c-5.1-1.1-9.4-3-13-5.7c-3.5-2.7-6.2-6.2-8-10.6c-1.8-4.4-2.8-9.8-2.8-16.2v-4.3h31.1v2.9
			c0,5.3,1,9,2.9,11.1c2,2.1,4.5,3.2,7.6,3.2c3.3,0,5.9-1.2,7.7-3.5c1.8-2.3,2.7-5.1,2.7-8.5c0-4-1.2-7.2-3.7-9.6s-5.6-4.4-9.3-6
			c-3.7-1.7-7.8-3.4-12.2-5.1c-4.4-1.7-8.4-4-12.2-6.7c-3.7-2.8-6.9-6.4-9.3-10.9c-2.5-4.5-3.7-10.4-3.7-17.6
			c0-12.6,3.3-22.1,10-28.7C19.6,3.3,29.7,0,43.3,0c14.1,0,24.2,3,30.5,9.1c6.3,6,9.4,15.7,9.4,28.9H53.2V35.1z"/>
		<path fill="#E6E6E6" d="M130.6,2.4v123.4H98.5V2.4H130.6z"/>
		<path fill="#E6E6E6" d="M241,35.1c0-3.7-0.8-6.8-2.2-9.4s-3.8-3.9-6.9-3.9c-3.5,0-6,1.1-7.6,3.4c-1.6,2.2-2.4,4.8-2.4,7.5
			c0,4,1.3,7.2,3.9,9.6s5.8,4.4,9.8,6.1c3.9,1.7,8.1,3.5,12.6,5.3c4.5,1.8,8.7,4.1,12.6,7c3.9,2.9,7.2,6.7,9.8,11.3
			c2.6,4.7,3.9,10.7,3.9,18.2c0,13.1-3.7,22.7-11.2,28.6c-7.5,5.9-18.3,8.9-32.5,8.9c-6.7,0-12.6-0.5-17.7-1.6
			c-5.1-1.1-9.4-3-13-5.7c-3.5-2.7-6.2-6.2-8-10.6c-1.8-4.4-2.8-9.8-2.8-16.2v-4.3h31.1v2.9c0,5.3,1,9,2.9,11.1
			c2,2.1,4.5,3.2,7.6,3.2c3.3,0,5.9-1.2,7.7-3.5c1.8-2.3,2.7-5.1,2.7-8.5c0-4-1.2-7.2-3.7-9.6c-2.5-2.4-5.6-4.4-9.3-6
			c-3.7-1.7-7.8-3.4-12.2-5.1c-4.4-1.7-8.4-4-12.2-6.7c-3.7-2.8-6.9-6.4-9.3-10.9c-2.5-4.5-3.7-10.4-3.7-17.6
			c0-12.6,3.3-22.1,10-28.7c6.7-6.6,16.8-9.9,30.4-9.9c14.1,0,24.2,3,30.5,9.1c6.3,6,9.4,15.7,9.4,28.9H241V35.1z"/>
		<path fill="#E6E6E6" d="M334.5,2.4c6.1,0,11.4,1,15.9,2.9c4.5,2,8.2,4.6,11.1,8c2.9,3.4,5.1,7.4,6.5,12c1.4,4.6,2.1,9.6,2.1,15
			c0,12.8-3.4,22.4-10.3,28.8s-16.9,9.6-30.2,9.6h-11.2v47h-32.1V2.4H334.5z M324.5,55.6c4,0,7.1-1.2,9.2-3.6
			c2.1-2.4,3.2-6.2,3.2-11.4c0-10-4.1-15-12.4-15h-6v30.1H324.5z"/>
		<path fill="#E6E6E6" d="M380.7,34.7c1.5-8.1,4-14.8,7.4-19.9s8-8.9,13.6-11.2c5.6-2.4,12.6-3.5,20.7-3.5c8.2,0,15.1,1.2,20.7,3.5
			s10.2,6.1,13.7,11.2s5.9,11.8,7.4,19.9c1.5,8.1,2.2,17.9,2.2,29.5c0,11.5-0.7,21.3-2.2,29.5c-1.5,8.1-4,14.7-7.4,19.9
			c-3.5,5.1-8,8.8-13.7,11c-5.6,2.2-12.6,3.3-20.7,3.3c-8.2,0-15.1-1.1-20.7-3.3c-5.6-2.2-10.2-5.8-13.6-11
			c-3.5-5.1-5.9-11.8-7.4-19.9c-1.5-8.1-2.2-17.9-2.2-29.5C378.4,52.6,379.2,42.8,380.7,34.7z M411.9,84.8c0.2,5.5,0.7,9.8,1.5,13
			c0.7,3.2,1.8,5.5,3.3,6.7c1.4,1.3,3.4,1.9,5.8,1.9c2.4,0,4.3-0.6,5.8-1.9c1.4-1.3,2.5-3.5,3.3-6.7c0.7-3.2,1.2-7.6,1.5-13
			c0.2-5.5,0.3-12.4,0.3-20.7s-0.1-15.2-0.3-20.6c-0.2-5.5-0.7-9.8-1.5-13c-0.7-3.2-1.8-5.5-3.3-6.7c-1.4-1.3-3.4-1.9-5.8-1.9
			c-2.4,0-4.4,0.6-5.8,1.9c-1.4,1.3-2.5,3.5-3.3,6.7c-0.8,3.2-1.2,7.6-1.5,13c-0.2,5.5-0.3,12.4-0.3,20.6S411.7,79.3,411.9,84.8z"/>
		<path fill="#E6E6E6" d="M527.9,35.1c0-3.7-0.8-6.8-2.2-9.4c-1.5-2.6-3.8-3.9-6.9-3.9c-3.5,0-6,1.1-7.6,3.4
			c-1.6,2.2-2.4,4.8-2.4,7.5c0,4,1.3,7.2,3.9,9.6s5.8,4.4,9.8,6.1c3.9,1.7,8.1,3.5,12.6,5.3c4.5,1.8,8.7,4.1,12.6,7
			c3.9,2.9,7.2,6.7,9.8,11.3c2.6,4.7,3.9,10.7,3.9,18.2c0,13.1-3.7,22.7-11.2,28.6c-7.5,5.9-18.3,8.9-32.5,8.9
			c-6.7,0-12.6-0.5-17.7-1.6c-5.1-1.1-9.4-3-13-5.7c-3.5-2.7-6.2-6.2-8-10.6c-1.8-4.4-2.8-9.8-2.8-16.2v-4.3h31.1v2.9
			c0,5.3,1,9,2.9,11.1c2,2.1,4.5,3.2,7.6,3.2c3.3,0,5.9-1.2,7.7-3.5c1.8-2.3,2.7-5.1,2.7-8.5c0-4-1.2-7.2-3.7-9.6s-5.6-4.4-9.3-6
			c-3.7-1.7-7.8-3.4-12.2-5.1c-4.4-1.7-8.4-4-12.2-6.7c-3.7-2.8-6.9-6.4-9.3-10.9c-2.5-4.5-3.7-10.4-3.7-17.6
			c0-12.6,3.3-22.1,10-28.7C494.3,3.3,504.4,0,518,0c14.1,0,24.2,3,30.5,9.1c6.3,6,9.4,15.7,9.4,28.9h-30.1V35.1z"/>
		<path fill="#E6E6E6" d="M635,2.4l30.1,123.4h-34.2l-3.3-21.6H602l-3.3,21.6H565L594.6,2.4H635z M614.6,27.7L605.8,80h18L615,27.7
			H614.6z"/>
		<path fill="#E6E6E6" d="M708.1,2.4l20.7,76h0.3v-76h30.1v123.4H724l-21.4-76.2h-0.3v76.2h-30.1V2.4H708.1z"/>
		<path fill="#E6E6E6" d="M774.8,34.7c1.5-8.1,4-14.8,7.4-19.9s8-8.9,13.6-11.2c5.6-2.4,12.6-3.5,20.7-3.5c8.2,0,15.1,1.2,20.7,3.5
			s10.2,6.1,13.7,11.2s5.9,11.8,7.4,19.9c1.5,8.1,2.2,17.9,2.2,29.5c0,11.5-0.7,21.3-2.2,29.5c-1.5,8.1-4,14.7-7.4,19.9
			c-3.5,5.1-8,8.8-13.7,11c-5.6,2.2-12.6,3.3-20.7,3.3c-8.2,0-15.1-1.1-20.7-3.3c-5.6-2.2-10.2-5.8-13.6-11
			c-3.5-5.1-5.9-11.8-7.4-19.9c-1.5-8.1-2.2-17.9-2.2-29.5C772.6,52.6,773.3,42.8,774.8,34.7z M806.1,84.8c0.2,5.5,0.7,9.8,1.5,13
			c0.7,3.2,1.8,5.5,3.3,6.7c1.4,1.3,3.4,1.9,5.8,1.9s4.3-0.6,5.8-1.9c1.4-1.3,2.5-3.5,3.3-6.7s1.2-7.6,1.5-13
			c0.2-5.5,0.3-12.4,0.3-20.7s-0.1-15.2-0.3-20.6s-0.7-9.8-1.5-13s-1.8-5.5-3.3-6.7c-1.4-1.3-3.4-1.9-5.8-1.9s-4.4,0.6-5.8,1.9
			c-1.4,1.3-2.5,3.5-3.3,6.7c-0.8,3.2-1.2,7.6-1.5,13c-0.2,5.5-0.3,12.4-0.3,20.6S805.9,79.3,806.1,84.8z"/>
		<path fill="#E6E6E6" d="M878.5,2.4h30.1v41.3L904.9,90h-23.2l-3.3-46.3V2.4z M908.2,98.5v27.3h-29V98.5H908.2z"/>
	</g>
	<g>
		<path fill="#CCCCCC" d="M7.7,169.9h3.8c2.2,0,6.7,0,9.9-1.4l-6,21.3c-0.1,0.4-0.2,0.9-0.2,1.3c0,0.7,0.3,1.1,0.8,1.1
			c0.9,0,2.2-1.1,3.8-3.6l0.9,0.5c-1.9,3.6-4.9,6-9.1,6c-2.9,0-5.8-1.2-5.8-5.1c0-1.2,0.5-3.5,1.4-6.5l3.5-12.6H7.3L7.7,169.9z
			 M18.1,156.1c2.7,0,4.9,2.2,4.9,4.9s-2.2,4.9-4.9,4.9c-2.7,0-4.9-2.2-4.9-4.9S15.4,156.1,18.1,156.1z"/>
		<path fill="#CCCCCC" d="M32.3,156.1H37c2.3,0,7.3-0.4,9.3-1.7l-9.8,35.4c-0.1,0.4-0.2,0.9-0.2,1.3c0,0.7,0.3,1.1,0.8,1.1
			c0.6,0,2-1.1,4-3.9l0.8,0.8c-2.4,3.6-5.8,6-9.6,6c-3.3,0-5.4-1.4-5.4-4.7c0-1.1,0.3-2.6,1-5.2l7.8-28.1h-3.8L32.3,156.1z"/>
		<path fill="#CCCCCC" d="M68.5,170.9h-3l0.4-1h3.6c2.2,0,6.7,0,9.8-1.4l-2.2,8.6h0.1c2.2-4.1,6.4-8.6,11.4-8.6c3.1,0,6,1.7,6,5.2
			c0,4.5-4.8,14.5-4.8,17.1c0,1,0.3,1.4,0.9,1.4c1.4,0,3.4-2.7,4-3.9l0.9,0.5c-1.8,3.8-5.1,6.3-9.5,6.3c-3.4,0-5.8-1.7-5.8-5.6
			c0-2.8,4.8-14.9,4.8-16.4c0-0.9-0.5-1.3-1.2-1.3c-2.2,0-7.4,7-9.1,13.1l-2.6,9.5H62L68.5,170.9z"/>
		<path fill="#CCCCCC" d="M112.3,195.1c-7.2,0-12.5-4-12.5-11.7c0-6,4.4-14.8,16.4-14.8c7.5,0,12.8,4,12.8,11.7
			C129,185.6,125.2,195.1,112.3,195.1z M116,188.5l1.9-6.4c2.1-7.1,2.3-8.8,2.3-9.7c0-1.5-0.6-3-3.1-2.9c-2.8,0.1-4.3,3.4-6.1,10.8
			c-2,7.7-2.4,9.1-2.4,10.7c0,1.6,0.4,3.2,2.8,3.2C113.3,194.1,114.7,192.7,116,188.5z"/>
		<path fill="#CCCCCC" d="M135.2,169.9h3.6c2.2,0,6.7,0,9.8-1.4l-4.9,17.8c-0.7,2.6-0.9,3.6-0.9,4.5c0,1.2,1.1,1.7,2.6,1.7
			c5,0,13.9-7.6,13.9-12.7c0-3.4-5.3-1.4-5.3-6.7c0-2.5,1.8-4.3,4.4-4.3c3.3,0,5.1,2.2,5.1,5.4c0,8.9-12.6,20.9-22.7,20.9
			c-3.6,0-7.6-1.4-7.6-5.4c0-1.4,0.2-2.7,1.2-6.4l3.3-12.4h-3L135.2,169.9z"/>
		<path fill="#CCCCCC" d="M190.6,189.7c-3.2,3.3-7.7,5.4-12.3,5.4c-6.7,0-12.1-3.1-12.1-10.5c0-9.7,8.5-16.1,17.6-16.1
			c4.5,0,10,1.9,10,7.1c0,6.1-6.5,8.3-11.7,8.3c-2.4,0-4.3-0.2-5.2-0.3l-0.7,2.2c-0.4,1.5-0.6,2.9-0.6,4.1c0,2.7,1.8,3.9,4.2,3.9
			c3.4,0,7.7-2.6,10.1-4.8L190.6,189.7z M177.1,182.7c0.7,0.1,1.5,0.2,2.2,0.2c1.6,0,2.8-1,3.6-2.7c0.7-1.4,2.3-6.4,2.3-7.9
			c0-1.6-0.7-2.7-2.3-2.7c-1.6,0-2.6,1.5-3.1,3.3L177.1,182.7z"/>
		<path fill="#CCCCCC" d="M238.5,155.3c9.9,0,16.5,6.9,16.5,16.3c0,12.4-9.6,23.5-23.5,23.5c-9.1,0-17-5.9-17-16.3
			C214.5,167.7,222.7,155.3,238.5,155.3z M230.8,193.8c3.2,0,5.8-1.6,8.3-8.5c3-8.2,5.5-17,5.5-22.8c0-3.9-2.9-5.8-5.4-5.8
			c-3.5,0-6,2.1-7.6,5.4c-3,6.4-6.7,19.9-6.7,25.6C225,191.5,227.1,193.8,230.8,193.8z"/>
		<path fill="#CCCCCC" d="M260.4,169.9h3.8l2.1-7.6c3.9-1.1,7.9-2.4,11.4-4.6l-3.5,12.2h4l-0.3,1h-3.9l-4.9,17.4
			c-0.3,1-0.5,2.3-0.5,2.6c0,0.5,0.4,1,0.9,1c1.7,0,3.2-2.4,4.1-3.6l0.8,0.7c-1,1-3.3,6.2-9.6,6.2c-2.9,0-5.8-1.5-5.8-4.7
			c0-1.6,0.9-4.8,1.4-6.8l3.6-12.7h-3.8L260.4,169.9z"/>
		<path fill="#CCCCCC" d="M281.5,169.9h3.8l2.1-7.6c3.9-1.1,7.9-2.4,11.4-4.6l-3.5,12.2h4l-0.3,1h-3.9l-4.9,17.4
			c-0.3,1-0.5,2.3-0.5,2.6c0,0.5,0.4,1,0.9,1c1.7,0,3.2-2.4,4.1-3.6l0.8,0.7c-1,1-3.3,6.2-9.6,6.2c-2.9,0-5.8-1.5-5.8-4.7
			c0-1.6,0.9-4.8,1.4-6.8l3.6-12.7h-3.8L281.5,169.9z"/>
		<path fill="#CCCCCC" d="M313,195.1c-7.2,0-12.5-4-12.5-11.7c0-6,4.4-14.8,16.4-14.8c7.5,0,12.8,4,12.8,11.7
			C329.7,185.6,325.9,195.1,313,195.1z M316.7,188.5l1.9-6.4c2.1-7.1,2.3-8.8,2.3-9.7c0-1.5-0.6-3-3.1-2.9
			c-2.8,0.1-4.3,3.4-6.1,10.8c-2,7.7-2.4,9.1-2.4,10.7c0,1.6,0.4,3.2,2.8,3.2C314.1,194.1,315.5,192.7,316.7,188.5z"/>
		<path fill="#CCCCCC" d="M338.6,156.1h4c2.4,0,7.4-0.4,9.4-1.7l-4.9,17.5h0.1c1.6-2.3,3.8-3.4,6.8-3.4c4.9,0,8.9,3.7,8.9,10.3
			c0,9.7-7.2,16.3-16.5,16.3c-7.8,0-12.3-3.6-12.3-9.8c0-2.2,0.6-4.7,1.4-7.6l5.6-20.7h-3L338.6,156.1z M344.9,194.1
			c2.3,0,3.6-1.6,4.8-6c3.6-12.9,3.8-14.2,3.8-15.6c0-1.6-0.8-2.3-2-2.3c-2.3,0-4.2,2.1-6.1,8.2c-1.4,4.5-3,11.4-3,13.1
			C342.4,193.1,343.5,194.1,344.9,194.1z"/>
		<path fill="#CCCCCC" d="M371.8,170.9h-3l0.4-1h3.6c2.2,0,6.7,0,9.8-1.4l-1.5,5.4h0.1c1.3-2.1,4.1-5.4,7.2-5.4c3,0,4.6,2,4.6,4.7
			c0,3.2-2.1,5.1-4.8,5.1c-2.8,0-4.3-2.1-4.3-4.4c0-0.7,0.2-1.2,0.4-1.8l-0.1-0.1c-2.6,2.8-3.9,5.5-4.8,8.7l-3.8,13.6h-10.3
			L371.8,170.9z"/>
		<path fill="#CCCCCC" d="M418.5,189.7c-3.2,3.3-7.7,5.4-12.3,5.4c-6.7,0-12.1-3.1-12.1-10.5c0-9.7,8.5-16.1,17.6-16.1
			c4.5,0,10,1.9,10,7.1c0,6.1-6.5,8.3-11.7,8.3c-2.4,0-4.3-0.2-5.2-0.3l-0.7,2.2c-0.4,1.5-0.6,2.9-0.6,4.1c0,2.7,1.8,3.9,4.2,3.9
			c3.4,0,7.7-2.6,10.1-4.8L418.5,189.7z M405,182.7c0.7,0.1,1.5,0.2,2.2,0.2c1.6,0,2.8-1,3.6-2.7c0.7-1.4,2.3-6.4,2.3-7.9
			c0-1.6-0.7-2.7-2.3-2.7c-1.6,0-2.6,1.5-3.1,3.3L405,182.7z"/>
		<path fill="#CCCCCC" d="M472.9,188.9c-2.2,3.6-5.2,6.2-9.7,6.2c-2.4,0-5-1.6-5.3-4.3c-2.2,3.2-4.9,4.3-8,4.3c-6.1,0-9-4.8-9-10.8
			c0-7.8,6.3-15.8,14.3-15.8c3.3,0,5.7,1.2,6.7,4.8h0.1l4.3-16.2h-3.5l0.4-1h4.6c2.4,0,7.4-0.4,9.4-1.7l-9.8,35.5
			c-0.2,0.5-0.2,0.9-0.2,1.1c0,0.4,0.3,0.8,0.9,0.8c0.9,0,1.9-0.9,3.9-3.5L472.9,188.9z M458,170.6c-1.8,0-2.7,1.5-3.6,4.2
			c-2,6-4.2,15-4.1,16.4c0,1.1,0.8,2,2.2,2c1.8,0,3.5-1.5,4.7-3.7c1.4-2.5,3.9-11.6,3.9-14.3C461.1,172.1,459.4,170.6,458,170.6z"/>
		<path fill="#CCCCCC" d="M505,184c-1.3,4.6-1.6,6.1-1.6,6.8c0,0.9,0.5,1.4,1.4,1.4c1.1,0,3.2-2.7,3.8-3.9l0.9,0.5
			c-1.8,3.8-5.1,6.3-9.5,6.3c-3.6,0-5.8-1.7-5.8-5.1v-1H494c-2.2,3.4-6.4,6-10.8,6c-3.3,0-5.7-2.2-5.7-5.5c0-0.4,0.2-2.3,0.5-3.4
			l4.1-15.3h-3l0.4-1h3.6c2.2,0,6.7,0,9.8-1.4l-4.4,15.5c-1.3,4.6-1.6,6.1-1.6,6.8c0,0.9,0.5,1.4,1.4,1.4c2.8,0,5.6-4.6,6.6-8
			l4.1-14.3h10L505,184z"/>
		<path fill="#CCCCCC" d="M537.8,189.7c-3.2,3.3-7.7,5.4-12.3,5.4c-6.7,0-12.1-3.1-12.1-10.5c0-9.7,8.5-16.1,17.6-16.1
			c4.5,0,10,1.9,10,7.1c0,6.1-6.5,8.3-11.7,8.3c-2.4,0-4.3-0.2-5.2-0.3l-0.7,2.2c-0.4,1.5-0.6,2.9-0.6,4.1c0,2.7,1.8,3.9,4.2,3.9
			c3.4,0,7.7-2.6,10.1-4.8L537.8,189.7z M524.3,182.7c0.7,0.1,1.5,0.2,2.2,0.2c1.6,0,2.8-1,3.6-2.7c0.7-1.4,2.3-6.4,2.3-7.9
			c0-1.6-0.7-2.7-2.3-2.7c-1.6,0-2.6,1.5-3.1,3.3L524.3,182.7z"/>
		<path fill="#CCCCCC" d="M548.5,170.9h-3l0.4-1h3.6c2.2,0,6.7,0,9.8-1.4l-2.1,7.9l0.1-0.1c2.1-4,5.5-7.8,10.4-7.8
			c3.3,0,5.5,1.4,5.5,4.8c0,1.1-0.1,2-0.2,2.8h0.1c2.4-4.5,6.3-7.6,11.1-7.6c3,0,5.6,1.8,5.6,5.1c0,1.1-0.2,2.2-0.5,3.1
			c-0.7,2-4.2,12.2-4.2,13.5c0,1.4,0.4,1.6,1.2,1.6c1.1,0,3-2.8,3.5-3.9l0.8,0.5c-1.8,4-5,6.6-9.4,6.6c-3.2,0-5.5-2.1-5.5-5.7
			c0-3.9,4.7-13.9,4.7-16.3c0-0.8-0.3-1.4-1.2-1.4c-2.3,0-6.4,5.9-7.8,11l-3.4,11.6h-9.9l5.4-19.6c0.2-0.8,0.3-1.6,0.3-1.9
			c0-0.5-0.3-1.1-1-1.1c-1.8,0-6,6.1-7.3,11.1l-3.2,11.5h-10.3L548.5,170.9z"/>
		<path fill="#CCCCCC" d="M598,169.9h3.8c2.2,0,6.7,0,9.9-1.4l-6,21.3c-0.1,0.4-0.2,0.9-0.2,1.3c0,0.7,0.3,1.1,0.8,1.1
			c0.9,0,2.2-1.1,3.8-3.6l0.9,0.5c-1.9,3.6-4.9,6-9.1,6c-2.9,0-5.8-1.2-5.8-5.1c0-1.2,0.5-3.5,1.4-6.5l3.5-12.6h-3.4L598,169.9z
			 M608.4,156.1c2.7,0,4.9,2.2,4.9,4.9s-2.2,4.9-4.9,4.9c-2.7,0-4.9-2.2-4.9-4.9S605.6,156.1,608.4,156.1z"/>
		<path fill="#CCCCCC" d="M622.6,156.1h4.7c2.3,0,7.3-0.4,9.3-1.7l-9.8,35.4c-0.1,0.4-0.2,0.9-0.2,1.3c0,0.7,0.3,1.1,0.8,1.1
			c0.6,0,2-1.1,4-3.9l0.8,0.8c-2.4,3.6-5.8,6-9.6,6c-3.3,0-5.4-1.4-5.4-4.7c0-1.1,0.3-2.6,1-5.2l7.8-28.1h-3.8L622.6,156.1z"/>
		<path fill="#CCCCCC" d="M658.7,170.1H669l-5.4,19c-0.3,0.9-0.4,1.4-0.4,2c0,0.8,0.5,1.1,1,1.1c0.8,0,1.3-0.5,3.8-3.6l0.8,0.6
			c-2.8,3.8-4.7,6-9.6,6c-3,0-4.9-1.1-5.7-4.4h-0.1c-1.4,2.7-4,4.4-7.4,4.4c-6.1,0-9-4.8-9-10.8c0-7.8,6.3-15.8,14.3-15.8
			c3,0,5.8,1.6,6.4,4.9h0.1L658.7,170.1z M650.3,174.8c-2,6-4.2,14-4.2,16.4c0,1.9,1.1,2.3,2.2,2.3c1.9,0,3.7-1.8,4.5-3.6
			c1.7-4.1,3.9-12.3,3.9-14.9c0-2.8-1.2-4.3-2.8-4.3C652.1,170.6,651.2,172.1,650.3,174.8z"/>
		<path fill="#CCCCCC" d="M682.5,206.1h3.2l3.6-13.6l-0.1-0.1c-1.7,1.7-3.9,2.4-6.5,2.4c-5.8,0-9.3-4.6-9.3-10.2
			c0-7.6,5.4-16.1,13.7-16.1c3.5,0,6.5,1,7.6,4.4h0.1l0.8-3h10.1l-9.8,36.2h3.3l-0.4,1h-16.6L682.5,206.1z M685.2,193.1
			c1.7,0,3.6-1.4,4.5-3.2c1.1-2.4,4.1-12.2,4.1-14.6c0-2.8-0.9-4.7-3-4.7c-2,0-3,1.4-3.8,4c-3.4,11.9-4,15-4,16.1
			C682.9,192.1,683.7,193.1,685.2,193.1z"/>
		<path fill="#CCCCCC" d="M737.5,184c-1.3,4.6-1.6,6.1-1.6,6.8c0,0.9,0.5,1.4,1.4,1.4c1.1,0,3.2-2.7,3.8-3.9l0.9,0.5
			c-1.8,3.8-5.1,6.3-9.5,6.3c-3.6,0-5.8-1.7-5.8-5.1v-1h-0.1c-2.2,3.4-6.4,6-10.8,6c-3.3,0-5.7-2.2-5.7-5.5c0-0.4,0.2-2.3,0.5-3.4
			l4.1-15.3h-3l0.4-1h3.6c2.2,0,6.7,0,9.8-1.4l-4.4,15.5c-1.3,4.6-1.6,6.1-1.6,6.8c0,0.9,0.5,1.4,1.4,1.4c2.8,0,5.6-4.6,6.6-8
			l4.1-14.3h10L737.5,184z"/>
		<path fill="#CCCCCC" d="M749,169.9h3.8c2.2,0,6.7,0,9.9-1.4l-6,21.3c-0.1,0.4-0.2,0.9-0.2,1.3c0,0.7,0.3,1.1,0.8,1.1
			c0.9,0,2.2-1.1,3.8-3.6l0.9,0.5c-1.9,3.6-4.9,6-9.1,6c-2.9,0-5.8-1.2-5.8-5.1c0-1.2,0.5-3.5,1.4-6.5l3.5-12.6h-3.4L749,169.9z
			 M759.4,156.1c2.7,0,4.9,2.2,4.9,4.9s-2.2,4.9-4.9,4.9c-2.7,0-4.9-2.2-4.9-4.9S756.7,156.1,759.4,156.1z"/>
		<path fill="#CCCCCC" d="M772,170.9h-3l0.4-1h3.6c2.2,0,6.7,0,9.8-1.4l-2.2,8.6h0.1c2.2-4.1,6.4-8.6,11.4-8.6c3.1,0,6,1.7,6,5.2
			c0,4.5-4.8,14.5-4.8,17.1c0,1,0.3,1.4,0.9,1.4c1.4,0,3.4-2.7,4-3.9l0.9,0.5c-1.8,3.8-5.1,6.3-9.5,6.3c-3.4,0-5.8-1.7-5.8-5.6
			c0-2.8,4.8-14.9,4.8-16.4c0-0.9-0.5-1.3-1.2-1.3c-2.2,0-7.4,7-9.1,13.1l-2.6,9.5h-10.3L772,170.9z"/>
		<path fill="#CCCCCC" d="M835.4,188.9c-2.2,3.6-5.2,6.2-9.7,6.2c-2.4,0-5-1.6-5.3-4.3c-2.2,3.2-4.9,4.3-8,4.3c-6.1,0-9-4.8-9-10.8
			c0-7.8,6.3-15.8,14.3-15.8c3.3,0,5.7,1.2,6.7,4.8h0.1l4.3-16.2h-3.5l0.4-1h4.6c2.4,0,7.4-0.4,9.4-1.7L830,190
			c-0.2,0.5-0.2,0.9-0.2,1.1c0,0.4,0.3,0.8,0.9,0.8c0.9,0,1.9-0.9,3.9-3.5L835.4,188.9z M820.4,170.6c-1.8,0-2.7,1.5-3.6,4.2
			c-2,6-4.2,15-4.1,16.4c0,1.1,0.8,2,2.2,2c1.8,0,3.5-1.5,4.7-3.7c1.4-2.5,3.9-11.6,3.9-14.3C823.6,172.1,821.8,170.6,820.4,170.6z"
			/>
		<path fill="#CCCCCC" d="M842.6,169.9h3.8c2.2,0,6.7,0,9.9-1.4l-6,21.3c-0.1,0.4-0.2,0.9-0.2,1.3c0,0.7,0.3,1.1,0.8,1.1
			c0.9,0,2.2-1.1,3.8-3.6l0.9,0.5c-1.9,3.6-4.9,6-9.1,6c-2.9,0-5.8-1.2-5.8-5.1c0-1.2,0.5-3.5,1.4-6.5l3.5-12.6h-3.4L842.6,169.9z
			 M853,156.1c2.7,0,4.9,2.2,4.9,4.9s-2.2,4.9-4.9,4.9c-2.7,0-4.9-2.2-4.9-4.9S850.3,156.1,853,156.1z"/>
		<path fill="#CCCCCC" d="M885.6,188.5c-2.6,4.2-6.8,6.6-12,6.6c-7.7,0-13-4-13-11.7c0-5.3,3.8-14.8,16.6-14.8c5.9,0,10,2.7,10,6.4
			c0,2.2-1.8,4.2-4.6,4.2c-2.5,0-4.6-1.8-4.6-4.3c0-2.2,1.7-4.2,4-4.5v-0.1c-0.7-0.3-1.8-0.4-2.8-0.4c-3.8,0-5.2,3-6.4,7.4
			c-3,10.5-3.2,11-3.2,12.8c0,2.1,1.6,3.7,5.2,3.7c4.2,0,7.4-2.7,9.7-5.7L885.6,188.5z"/>
		<path fill="#CCCCCC" d="M894,169.9h3.8c2.2,0,6.7,0,9.9-1.4l-6,21.3c-0.1,0.4-0.2,0.9-0.2,1.3c0,0.7,0.3,1.1,0.8,1.1
			c0.9,0,2.2-1.1,3.8-3.6l0.9,0.5c-1.9,3.6-4.9,6-9.1,6c-2.9,0-5.8-1.2-5.8-5.1c0-1.2,0.5-3.5,1.4-6.5l3.5-12.6h-3.4L894,169.9z
			 M904.4,156.1c2.7,0,4.9,2.2,4.9,4.9s-2.2,4.9-4.9,4.9c-2.7,0-4.9-2.2-4.9-4.9S901.7,156.1,904.4,156.1z"/>
	</g>
	<g>
		<path fill="#E6E6E6" d="M32,439.8c2.8,1.3,5.1,3.2,6.9,5.9c1.6,2.4,2.7,5.2,3.2,8.3c0.3,1.8,0.4,4.5,0.3,8H13.3
			c0.2,4,1.6,6.9,4.2,8.5c1.6,1,3.5,1.5,5.8,1.5c2.4,0,4.3-0.6,5.8-1.8c0.8-0.7,1.5-1.6,2.2-2.8H42c-0.3,2.4-1.6,4.8-3.9,7.3
			c-3.6,3.9-8.6,5.9-15.1,5.9c-5.3,0-10.1-1.6-14.1-4.9c-4.1-3.3-6.1-8.7-6.1-16.1c0-7,1.8-12.3,5.5-16c3.7-3.7,8.5-5.6,14.4-5.6
			C26.1,437.9,29.2,438.5,32,439.8z M28.7,433.5h-7.6l-11.2-11h11.7L28.7,433.5z M16.3,448.8c-1.5,1.5-2.4,3.6-2.8,6.2h18.1
			c-0.2-2.8-1.1-4.9-2.8-6.3c-1.7-1.4-3.8-2.2-6.2-2.2C19.9,446.5,17.8,447.3,16.3,448.8z"/>
		<path fill="#E6E6E6" d="M101.4,424.8h11.8l-18.5,54.3H84l-18.4-54.3h12.1L89.5,466L101.4,424.8z"/>
		<path fill="#E6E6E6" d="M141.2,439.8c2.8,1.3,5.1,3.2,6.9,5.9c1.6,2.4,2.7,5.2,3.2,8.3c0.3,1.8,0.4,4.5,0.3,8h-29.3
			c0.2,4,1.6,6.9,4.2,8.5c1.6,1,3.5,1.5,5.8,1.5c2.4,0,4.3-0.6,5.8-1.8c0.8-0.7,1.5-1.6,2.2-2.8h10.7c-0.3,2.4-1.6,4.8-3.9,7.3
			c-3.6,3.9-8.6,5.9-15.1,5.9c-5.3,0-10.1-1.6-14.1-4.9c-4.1-3.3-6.1-8.7-6.1-16.1c0-7,1.8-12.3,5.5-16c3.7-3.7,8.5-5.6,14.4-5.6
			C135.2,437.9,138.4,438.5,141.2,439.8z M125.5,448.8c-1.5,1.5-2.4,3.6-2.8,6.2h18.1c-0.2-2.8-1.1-4.9-2.8-6.3
			c-1.7-1.4-3.8-2.2-6.2-2.2C129,446.5,126.9,447.3,125.5,448.8z"/>
		<path fill="#E6E6E6" d="M189.4,441.3c2.6,2.2,3.9,5.8,3.9,10.8v27h-10.8v-24.4c0-2.1-0.3-3.7-0.8-4.9c-1-2.1-3-3.1-5.9-3.1
			c-3.5,0-6,1.5-7.3,4.5c-0.7,1.6-1,3.6-1,6.1v21.7H157V439h10.2v5.9c1.3-2.1,2.6-3.5,3.8-4.5c2.2-1.6,4.9-2.4,8.2-2.4
			C183.3,438,186.7,439.1,189.4,441.3z"/>
		<path fill="#E6E6E6" d="M229.2,439.8c2.8,1.3,5.1,3.2,6.9,5.9c1.6,2.4,2.7,5.2,3.2,8.3c0.3,1.8,0.4,4.5,0.3,8h-29.3
			c0.2,4,1.6,6.9,4.2,8.5c1.6,1,3.5,1.5,5.8,1.5c2.4,0,4.3-0.6,5.8-1.8c0.8-0.7,1.5-1.6,2.2-2.8h10.7c-0.3,2.4-1.6,4.8-3.9,7.3
			c-3.6,3.9-8.6,5.9-15.1,5.9c-5.3,0-10.1-1.6-14.1-4.9c-4.1-3.3-6.1-8.7-6.1-16.1c0-7,1.8-12.3,5.5-16c3.7-3.7,8.5-5.6,14.4-5.6
			C223.3,437.9,226.4,438.5,229.2,439.8z M213.5,448.8c-1.5,1.5-2.4,3.6-2.8,6.2h18.1c-0.2-2.8-1.1-4.9-2.8-6.3
			c-1.7-1.4-3.8-2.2-6.2-2.2C217.1,446.5,215,447.3,213.5,448.8z"/>
		<path fill="#E6E6E6" d="M267.4,438c0.1,0,0.4,0,0.9,0.1v10.8c-0.7-0.1-1.3-0.1-1.8-0.1c-0.5,0-0.9,0-1.3,0c-4.2,0-7.1,1.4-8.5,4.1
			c-0.8,1.5-1.2,3.9-1.2,7.1v19.2h-10.6v-40.2h10v7c1.6-2.7,3-4.5,4.2-5.5c2-1.6,4.5-2.5,7.7-2.5C267.1,438,267.2,438,267.4,438z"/>
		<path fill="#E6E6E6" d="M295.7,439.6c1.9,1.1,3.4,2.5,4.6,4.4v-19.2H311v54.2h-10.2v-5.6c-1.5,2.4-3.2,4.1-5.1,5.2
			c-1.9,1.1-4.3,1.6-7.1,1.6c-4.7,0-8.6-1.9-11.8-5.7s-4.8-8.7-4.8-14.6c0-6.9,1.6-12.2,4.7-16.2c3.2-3.9,7.4-5.9,12.7-5.9
			C291.7,438,293.8,438.5,295.7,439.6z M298.3,468.2c1.5-2.2,2.3-5.1,2.3-8.6c0-4.9-1.2-8.4-3.7-10.5c-1.5-1.3-3.3-1.9-5.3-1.9
			c-3.1,0-5.3,1.2-6.8,3.5c-1.4,2.3-2.2,5.2-2.2,8.6c0,3.7,0.7,6.7,2.2,8.9c1.5,2.2,3.7,3.3,6.7,3.3
			C294.5,471.5,296.7,470.4,298.3,468.2z"/>
		<path fill="#E6E6E6" d="M332.5,433.5h-7.6l-11.2-11h11.7L332.5,433.5z M320.7,438.9h10.6v40.2h-10.6V438.9z"/>
		<path fill="#E6E6E6" d="M340,430.9l7.7,2.5v-8.9h6.4v8.9l7.7-2.5l1.7,5.5l-7.8,2.4l5.1,7.3l-4.7,3.4l-5.1-6.9l-5.3,6.9l-4.7-3.4
			l5.2-7.3l-7.8-2.4L340,430.9z"/>
		<path fill="#E6E6E6" d="M394.1,430.6c3.3-3.5,7.6-5.3,12.9-5.3c8.1,0,13.7,3.6,16.7,10.8c1.7,4.1,2.6,9.4,2.6,16.1
			c0,6.5-0.8,11.9-2.5,16.2c-3.1,8.2-8.9,12.3-17.3,12.3c-4,0-7.6-1.2-10.8-3.6c-3.2-2.4-5-5.8-5.5-10.4h10.5c0.2,1.6,0.9,2.8,2,3.8
			c1.1,1,2.5,1.5,4.3,1.5c3.5,0,5.9-1.9,7.3-5.7c0.8-2.1,1.2-5.2,1.4-9.2c-1,1.2-2,2.1-3.1,2.8c-2,1.2-4.4,1.8-7.3,1.8
			c-4.3,0-8-1.5-11.3-4.4c-3.3-2.9-4.9-7.2-4.9-12.7C389.2,438.8,390.8,434.1,394.1,430.6z M411.8,451.8c2.4-1.5,3.6-4.2,3.6-7.9
			c0-3-0.7-5.4-2.1-7.2c-1.4-1.8-3.3-2.7-5.8-2.7c-1.8,0-3.3,0.5-4.6,1.5c-2,1.6-3,4.2-3,8c0,3.2,0.6,5.5,1.9,7.1
			c1.3,1.6,3.3,2.4,6,2.4C409.2,453,410.5,452.6,411.8,451.8z"/>
		<path fill="#E6E6E6" d="M497.4,474.3c-4.1,4.2-10,6.3-17.8,6.3c-7.8,0-13.7-2.1-17.8-6.3c-5.5-5.2-8.3-12.7-8.3-22.4
			c0-9.9,2.8-17.4,8.3-22.4c4.1-4.2,10-6.3,17.8-6.3c7.8,0,13.7,2.1,17.8,6.3c5.5,5,8.2,12.5,8.2,22.4
			C505.7,461.6,502.9,469.1,497.4,474.3z M490.3,466c2.6-3.3,4-8,4-14.2c0-6.1-1.3-10.8-4-14.1s-6.2-5-10.7-5c-4.5,0-8.1,1.7-10.8,5
			c-2.7,3.3-4,8-4,14.2c0,6.1,1.3,10.8,4,14.2c2.7,3.3,6.3,5,10.8,5C484.1,471,487.7,469.3,490.3,466z"/>
		<path fill="#E6E6E6" d="M509.3,446.8v-7.5h5.6v-11.2h10.4v11.2h6.5v7.5h-6.5V468c0,1.6,0.2,2.7,0.6,3.1c0.4,0.4,1.7,0.6,3.8,0.6
			c0.3,0,0.7,0,1,0c0.4,0,0.7,0,1.1-0.1v7.8l-5,0.2c-5,0.2-8.4-0.7-10.2-2.6c-1.2-1.2-1.8-3.1-1.8-5.6v-24.7H509.3z"/>
		<path fill="#E6E6E6" d="M534.5,446.8v-7.5h5.6v-11.2h10.4v11.2h6.5v7.5h-6.5V468c0,1.6,0.2,2.7,0.6,3.1c0.4,0.4,1.7,0.6,3.8,0.6
			c0.3,0,0.7,0,1,0c0.4,0,0.7,0,1.1-0.1v7.8l-5,0.2c-5,0.2-8.4-0.7-10.2-2.6c-1.2-1.2-1.8-3.1-1.8-5.6v-24.7H534.5z"/>
		<path fill="#E6E6E6" d="M597.2,474.2c-3.4,4.2-8.5,6.3-15.4,6.3s-12-2.1-15.4-6.3c-3.4-4.2-5.1-9.2-5.1-15.1
			c0-5.8,1.7-10.8,5.1-15.1c3.4-4.2,8.5-6.4,15.4-6.4s12.1,2.1,15.4,6.4c3.4,4.2,5.1,9.3,5.1,15.1C602.3,465,600.6,470,597.2,474.2z
			 M588.8,468.4c1.6-2.2,2.5-5.3,2.5-9.3s-0.8-7.1-2.5-9.3c-1.6-2.2-4-3.3-7.1-3.3c-3.1,0-5.4,1.1-7.1,3.3c-1.7,2.2-2.5,5.3-2.5,9.3
			s0.8,7.1,2.5,9.3c1.7,2.2,4,3.3,7.1,3.3C584.8,471.7,587.2,470.6,588.8,468.4z"/>
		<path fill="#E6E6E6" d="M644.1,443.8c3,3.8,4.5,8.7,4.5,14.7c0,6.2-1.5,11.4-4.4,15.5c-3,4.1-7.1,6.2-12.4,6.2c-3.3,0-6-0.7-8-2
			c-1.2-0.8-2.5-2.2-3.9-4.1v5h-10.4v-54.2H620v19.3c1.3-1.9,2.8-3.3,4.4-4.3c1.9-1.2,4.3-1.8,7.3-1.8
			C637,438.1,641.1,440,644.1,443.8z M635.4,468.2c1.5-2.2,2.3-5.1,2.3-8.6c0-2.8-0.4-5.2-1.1-7.1c-1.4-3.5-4-5.3-7.8-5.3
			c-3.8,0-6.5,1.7-7.9,5.2c-0.7,1.8-1.1,4.2-1.1,7.1c0,3.4,0.8,6.3,2.3,8.5c1.5,2.3,3.9,3.4,7,3.4
			C631.7,471.5,633.8,470.4,635.4,468.2z"/>
		<path fill="#E6E6E6" d="M678.2,438c0.1,0,0.4,0,0.9,0.1v10.8c-0.7-0.1-1.3-0.1-1.8-0.1c-0.5,0-0.9,0-1.3,0c-4.2,0-7.1,1.4-8.5,4.1
			c-0.8,1.5-1.2,3.9-1.2,7.1v19.2h-10.6v-40.2h10v7c1.6-2.7,3-4.5,4.2-5.5c2-1.6,4.5-2.5,7.7-2.5C677.9,438,678.1,438,678.2,438z"/>
		<path fill="#E6E6E6" d="M711.5,439.8c2.8,1.3,5.1,3.2,6.9,5.9c1.6,2.4,2.7,5.2,3.2,8.3c0.3,1.8,0.4,4.5,0.3,8h-29.3
			c0.2,4,1.6,6.9,4.2,8.5c1.6,1,3.5,1.5,5.8,1.5c2.4,0,4.3-0.6,5.8-1.8c0.8-0.7,1.5-1.6,2.2-2.8h10.7c-0.3,2.4-1.6,4.8-3.9,7.3
			c-3.6,3.9-8.6,5.9-15.1,5.9c-5.3,0-10.1-1.6-14.1-4.9c-4.1-3.3-6.1-8.7-6.1-16.1c0-7,1.8-12.3,5.5-16c3.7-3.7,8.5-5.6,14.4-5.6
			C705.5,437.9,708.7,438.5,711.5,439.8z M695.8,448.8c-1.5,1.5-2.4,3.6-2.8,6.2h18.1c-0.2-2.8-1.1-4.9-2.8-6.3
			c-1.7-1.4-3.8-2.2-6.2-2.2C699.3,446.5,697.3,447.3,695.8,448.8z"/>
		<path fill="#E6E6E6" d="M748.2,468.6c1.5-3.6,5-7.3,10.6-11.3c4.8-3.5,8-5.9,9.4-7.4c2.2-2.3,3.3-4.9,3.3-7.7
			c0-2.3-0.6-4.1-1.9-5.6c-1.3-1.5-3-2.2-5.4-2.2c-3.2,0-5.4,1.2-6.5,3.6c-0.7,1.4-1.1,3.6-1.2,6.6h-10.2c0.2-4.5,1-8.2,2.5-11
			c2.8-5.3,7.8-8,14.9-8c5.7,0,10.2,1.6,13.5,4.7c3.3,3.1,5,7.3,5,12.4c0,4-1.2,7.5-3.5,10.5c-1.6,2-4.1,4.3-7.6,6.8l-4.2,3
			c-2.6,1.9-4.4,3.2-5.4,4.1c-1,0.8-1.8,1.8-2.5,2.9h23.3v9.2h-36.6C745.8,475.3,746.6,471.8,748.2,468.6z"/>
		<path fill="#E6E6E6" d="M820.4,432.5c2.7,4.8,4.1,11.6,4.1,20.4c0,8.8-1.4,15.6-4.1,20.4c-2.7,4.8-7.5,7.1-14.3,7.1
			c-6.8,0-11.6-2.4-14.3-7.1c-2.7-4.8-4.1-11.6-4.1-20.4c0-8.8,1.4-15.6,4.1-20.4c2.7-4.8,7.5-7.2,14.3-7.2
			C812.9,425.3,817.7,427.7,820.4,432.5z M799.9,467c1,3.3,3.1,4.9,6.2,4.9c3.1,0,5.2-1.6,6.1-4.9c1-3.3,1.5-8,1.5-14.1
			c0-6.4-0.5-11.2-1.5-14.3c-1-3.1-3-4.6-6.1-4.6c-3.1,0-5.2,1.5-6.2,4.6c-1,3.1-1.5,7.9-1.5,14.3
			C798.4,459.1,798.9,463.8,799.9,467z"/>
		<path fill="#E6E6E6" d="M832.5,442.3v-7.1c3.3-0.1,5.6-0.4,6.9-0.7c2.1-0.5,3.8-1.4,5.1-2.8c0.9-1,1.6-2.2,2.1-3.8
			c0.3-1,0.4-1.7,0.4-2.1h8.8v53.4h-10.8v-36.9H832.5z"/>
		<path fill="#E6E6E6" d="M881.7,464.8c0.4,2.3,1.2,4,2.4,5.3c1.2,1.2,2.9,1.9,5.1,1.9c2.6,0,4.6-0.9,5.9-2.7c1.4-1.8,2-4.1,2-6.9
			c0-2.7-0.6-5-1.9-6.9c-1.3-1.9-3.3-2.8-6-2.8c-1.3,0-2.4,0.2-3.3,0.5c-1.6,0.6-2.9,1.7-3.7,3.3l-9.4-0.4l3.7-29.5h29.4v8.9h-21.8
			l-1.9,11.7c1.6-1.1,2.9-1.8,3.8-2.1c1.5-0.6,3.4-0.8,5.6-0.8c4.4,0,8.3,1.5,11.6,4.5c3.3,3,4.9,7.3,4.9,13c0,4.9-1.6,9.3-4.7,13.2
			c-3.2,3.9-7.9,5.8-14.2,5.8c-5.1,0-9.3-1.4-12.5-4.1c-3.3-2.7-5.1-6.6-5.4-11.6H881.7z"/>
	</g>
	<g>
		<path fill="#F2F2F2" d="M0.2,594.3l2.4,0.8v-2.8h2v2.8l2.4-0.8l0.6,1.7l-2.5,0.8l1.6,2.3l-1.5,1.1L3.7,598L2,600.2l-1.5-1.1
			l1.6-2.3l-2.5-0.8L0.2,594.3z"/>
		<path fill="#F2F2F2" d="M12.6,605.6c0.1,0.6,0.2,1,0.5,1.3c0.4,0.4,1.2,0.7,2.3,0.7c0.7,0,1.2-0.1,1.6-0.3
			c0.4-0.2,0.6-0.5,0.6-0.9c0-0.4-0.2-0.7-0.5-0.9s-1.5-0.5-3.5-1c-1.5-0.4-2.5-0.8-3.1-1.3c-0.6-0.5-0.9-1.3-0.9-2.3
			c0-1.2,0.5-2.2,1.4-3s2.2-1.3,3.9-1.3c1.6,0,2.9,0.3,3.9,1s1.6,1.7,1.7,3.3h-3.3c0-0.4-0.2-0.8-0.4-1c-0.4-0.5-1-0.7-1.9-0.7
			c-0.7,0-1.2,0.1-1.6,0.3c-0.3,0.2-0.5,0.5-0.5,0.8c0,0.4,0.2,0.7,0.5,0.8c0.3,0.2,1.5,0.5,3.5,0.9c1.3,0.3,2.3,0.8,3,1.4
			c0.7,0.6,1,1.4,1,2.4c0,1.3-0.5,2.3-1.4,3.1s-2.4,1.2-4.4,1.2c-2,0-3.5-0.4-4.5-1.3s-1.4-1.9-1.4-3.2H12.6z"/>
		<path fill="#F2F2F2" d="M26.8,595.4h-3.4v-3.1h3.4V595.4z M23.4,596.9h3.4v12.8h-3.4V596.9z"/>
		<path fill="#F2F2F2" d="M29.8,612.4c0.7-0.2,1.2-0.5,1.5-0.9s0.5-1.1,0.5-1.8h-2v-3.5h3.6v3c0,0.5-0.1,1.1-0.2,1.7
			s-0.4,1.1-0.8,1.5c-0.4,0.5-0.9,0.8-1.5,1s-0.9,0.3-1.2,0.3V612.4z"/>
		<path fill="#F2F2F2" d="M46.8,609.6h-3.3v-17.3h3.3V609.6z"/>
		<path fill="#F2F2F2" d="M60.7,608.1c-1.1,1.3-2.7,2-4.9,2s-3.8-0.7-4.9-2s-1.6-2.9-1.6-4.8c0-1.8,0.5-3.4,1.6-4.8
			c1.1-1.3,2.7-2,4.9-2s3.8,0.7,4.9,2c1.1,1.4,1.6,2.9,1.6,4.8C62.3,605.2,61.7,606.8,60.7,608.1z M58,606.2c0.5-0.7,0.8-1.7,0.8-3
			s-0.3-2.3-0.8-3c-0.5-0.7-1.3-1-2.2-1s-1.7,0.3-2.3,1c-0.5,0.7-0.8,1.7-0.8,3s0.3,2.3,0.8,3s1.3,1,2.3,1S57.5,606.9,58,606.2z"/>
		<path fill="#F2F2F2" d="M73.9,605.6c0.1,0.6,0.2,1,0.5,1.3c0.4,0.4,1.2,0.7,2.3,0.7c0.7,0,1.2-0.1,1.6-0.3
			c0.4-0.2,0.6-0.5,0.6-0.9c0-0.4-0.2-0.7-0.5-0.9s-1.5-0.5-3.5-1c-1.5-0.4-2.5-0.8-3.1-1.3c-0.6-0.5-0.9-1.3-0.9-2.3
			c0-1.2,0.5-2.2,1.4-3s2.2-1.3,3.9-1.3c1.6,0,2.9,0.3,3.9,1s1.6,1.7,1.7,3.3h-3.3c0-0.4-0.2-0.8-0.4-1c-0.4-0.5-1-0.7-1.9-0.7
			c-0.7,0-1.2,0.1-1.6,0.3c-0.3,0.2-0.5,0.5-0.5,0.8c0,0.4,0.2,0.7,0.5,0.8c0.3,0.2,1.5,0.5,3.5,0.9c1.3,0.3,2.3,0.8,3,1.4
			c0.7,0.6,1,1.4,1,2.4c0,1.3-0.5,2.3-1.4,3.1s-2.4,1.2-4.4,1.2c-2,0-3.5-0.4-4.5-1.3s-1.4-1.9-1.4-3.2H73.9z"/>
		<path fill="#F2F2F2" d="M89.7,601.9c0.6-0.1,1.1-0.2,1.3-0.3c0.5-0.2,0.7-0.5,0.7-0.9c0-0.5-0.2-0.9-0.6-1.1
			c-0.4-0.2-0.9-0.3-1.6-0.3c-0.8,0-1.4,0.2-1.7,0.6c-0.2,0.3-0.4,0.7-0.5,1.2h-3.2c0.1-1.1,0.4-2,0.9-2.8c0.9-1.1,2.4-1.7,4.6-1.7
			c1.4,0,2.7,0.3,3.7,0.8c1.1,0.6,1.6,1.6,1.6,3.1v5.9c0,0.4,0,0.9,0,1.5c0,0.4,0.1,0.7,0.2,0.9s0.3,0.3,0.5,0.4v0.5h-3.6
			c-0.1-0.3-0.2-0.5-0.2-0.7s-0.1-0.5-0.1-0.8c-0.5,0.5-1,0.9-1.6,1.3c-0.7,0.4-1.5,0.6-2.5,0.6c-1.2,0-2.1-0.3-2.9-1
			c-0.8-0.7-1.1-1.6-1.1-2.8c0-1.6,0.6-2.7,1.8-3.4c0.7-0.4,1.7-0.7,3-0.8L89.7,601.9z M91.8,603.4c-0.2,0.1-0.4,0.2-0.6,0.3
			c-0.2,0.1-0.5,0.2-0.9,0.2l-0.8,0.1c-0.7,0.1-1.2,0.3-1.5,0.5c-0.5,0.3-0.8,0.8-0.8,1.4c0,0.6,0.2,1,0.5,1.2s0.7,0.4,1.2,0.4
			c0.7,0,1.4-0.2,2-0.6s0.9-1.2,1-2.3V603.4z"/>
		<path fill="#F2F2F2" d="M108.8,598.2c1,1.1,1.6,2.7,1.6,4.9c0,2.2-0.5,4-1.5,5.1c-1,1.2-2.3,1.8-3.9,1.8c-1,0-1.9-0.3-2.5-0.8
			c-0.4-0.3-0.7-0.7-1.1-1.2v6.7h-3.3v-17.8h3.2v1.9c0.4-0.6,0.7-1,1.2-1.3c0.7-0.6,1.6-0.9,2.7-0.9
			C106.5,596.6,107.7,597.1,108.8,598.2z M106.2,600.6c-0.5-0.8-1.2-1.1-2.2-1.1c-1.2,0-2.1,0.6-2.5,1.7c-0.2,0.6-0.4,1.4-0.4,2.3
			c0,1.5,0.4,2.5,1.2,3.1c0.5,0.4,1,0.5,1.7,0.5c0.9,0,1.7-0.4,2.1-1.1s0.7-1.7,0.7-2.9C106.9,602.3,106.7,601.4,106.2,600.6z"/>
		<path fill="#F2F2F2" d="M123.4,598.2c1,1.1,1.6,2.7,1.6,4.9c0,2.2-0.5,4-1.5,5.1c-1,1.2-2.3,1.8-3.9,1.8c-1,0-1.9-0.3-2.5-0.8
			c-0.4-0.3-0.7-0.7-1.1-1.2v6.7h-3.3v-17.8h3.2v1.9c0.4-0.6,0.7-1,1.2-1.3c0.7-0.6,1.6-0.9,2.7-0.9
			C121.1,596.6,122.4,597.1,123.4,598.2z M120.9,600.6c-0.5-0.8-1.2-1.1-2.2-1.1c-1.2,0-2.1,0.6-2.5,1.7c-0.2,0.6-0.4,1.4-0.4,2.3
			c0,1.5,0.4,2.5,1.2,3.1c0.5,0.4,1,0.5,1.7,0.5c0.9,0,1.7-0.4,2.1-1.1s0.7-1.7,0.7-2.9C121.6,602.3,121.3,601.4,120.9,600.6z"/>
		<path fill="#F2F2F2" d="M130.8,595.4h-3.4v-3.1h3.4V595.4z M127.4,596.9h3.4v12.8h-3.4V596.9z"/>
		<path fill="#F2F2F2" d="M139.1,601.9c0.6-0.1,1.1-0.2,1.3-0.3c0.5-0.2,0.7-0.5,0.7-0.9c0-0.5-0.2-0.9-0.6-1.1
			c-0.4-0.2-0.9-0.3-1.6-0.3c-0.8,0-1.4,0.2-1.7,0.6c-0.2,0.3-0.4,0.7-0.5,1.2h-3.2c0.1-1.1,0.4-2,0.9-2.8c0.9-1.1,2.4-1.7,4.6-1.7
			c1.4,0,2.7,0.3,3.7,0.8c1.1,0.6,1.6,1.6,1.6,3.1v5.9c0,0.4,0,0.9,0,1.5c0,0.4,0.1,0.7,0.2,0.9s0.3,0.3,0.5,0.4v0.5h-3.6
			c-0.1-0.3-0.2-0.5-0.2-0.7s-0.1-0.5-0.1-0.8c-0.5,0.5-1,0.9-1.6,1.3c-0.7,0.4-1.5,0.6-2.5,0.6c-1.2,0-2.1-0.3-2.9-1
			c-0.8-0.7-1.1-1.6-1.1-2.8c0-1.6,0.6-2.7,1.8-3.4c0.7-0.4,1.7-0.7,3-0.8L139.1,601.9z M141.1,603.4c-0.2,0.1-0.4,0.2-0.6,0.3
			c-0.2,0.1-0.5,0.2-0.9,0.2l-0.8,0.1c-0.7,0.1-1.2,0.3-1.5,0.5c-0.5,0.3-0.8,0.8-0.8,1.4c0,0.6,0.2,1,0.5,1.2s0.7,0.4,1.2,0.4
			c0.7,0,1.4-0.2,2-0.6s0.9-1.2,1-2.3V603.4z"/>
		<path fill="#F2F2F2" d="M163.3,596.9c0.5,0.2,1,0.6,1.5,1.1c0.4,0.4,0.6,1,0.7,1.6c0.1,0.4,0.1,1.1,0.1,1.9l0,8.1h-3.4v-8.1
			c0-0.5-0.1-0.9-0.2-1.2c-0.3-0.6-0.8-0.9-1.6-0.9c-0.9,0-1.6,0.4-1.9,1.1c-0.2,0.4-0.3,0.9-0.3,1.5v7.6h-3.4V602
			c0-0.8-0.1-1.3-0.2-1.7c-0.3-0.6-0.8-0.9-1.7-0.9c-1,0-1.6,0.3-1.9,0.9c-0.2,0.4-0.3,0.9-0.3,1.6v7.7h-3.4v-12.8h3.2v1.9
			c0.4-0.7,0.8-1.1,1.2-1.4c0.6-0.5,1.5-0.8,2.5-0.8c1,0,1.8,0.2,2.4,0.6c0.5,0.4,0.9,0.9,1.1,1.5c0.4-0.8,1-1.3,1.6-1.7
			c0.7-0.4,1.5-0.5,2.3-0.5C162.2,596.6,162.8,596.7,163.3,596.9z"/>
		<path fill="#F2F2F2" d="M179.4,608.1c-1.1,1.3-2.7,2-4.9,2s-3.8-0.7-4.9-2s-1.6-2.9-1.6-4.8c0-1.8,0.5-3.4,1.6-4.8
			c1.1-1.3,2.7-2,4.9-2s3.8,0.7,4.9,2c1.1,1.4,1.6,2.9,1.6,4.8C181,605.2,180.4,606.8,179.4,608.1z M176.7,606.2
			c0.5-0.7,0.8-1.7,0.8-3s-0.3-2.3-0.8-3c-0.5-0.7-1.3-1-2.2-1s-1.7,0.3-2.3,1c-0.5,0.7-0.8,1.7-0.8,3s0.3,2.3,0.8,3s1.3,1,2.3,1
			S176.2,606.9,176.7,606.2z"/>
		<path fill="#F2F2F2" d="M197.7,601.5c-0.1-0.5-0.2-0.9-0.5-1.3c-0.4-0.5-1-0.8-1.8-0.8c-1.1,0-1.9,0.6-2.3,1.7
			c-0.2,0.6-0.3,1.4-0.3,2.4c0,0.9,0.1,1.7,0.3,2.3c0.4,1.1,1.2,1.6,2.3,1.6c0.8,0,1.3-0.2,1.7-0.6s0.5-1,0.6-1.6h3.4
			c-0.1,1-0.4,2-1.1,2.9c-1,1.5-2.6,2.2-4.7,2.2s-3.6-0.6-4.5-1.8s-1.5-2.8-1.5-4.7c0-2.2,0.5-3.9,1.6-5.1s2.5-1.8,4.4-1.8
			c1.6,0,2.9,0.4,3.9,1.1s1.6,2,1.8,3.8H197.7z"/>
		<path fill="#F2F2F2" d="M212.6,596.9c0.6,0.3,1.2,0.7,1.6,1.3c0.3,0.5,0.6,1,0.6,1.5c0.1,0.5,0.1,1.3,0.1,2.5v7.5h-3.4v-7.8
			c0-0.7-0.1-1.2-0.3-1.7c-0.3-0.6-0.9-0.9-1.7-0.9c-0.9,0-1.5,0.3-2,0.9c-0.5,0.6-0.7,1.4-0.7,2.5v6.9h-3.3v-17.2h3.3v6.1
			c0.5-0.7,1-1.3,1.7-1.6s1.3-0.4,2-0.4C211.2,596.5,211.9,596.7,212.6,596.9z"/>
		<path fill="#F2F2F2" d="M226.4,597.1c0.9,0.4,1.6,1,2.2,1.9c0.5,0.8,0.9,1.6,1,2.6c0.1,0.6,0.1,1.4,0.1,2.5h-9.3
			c0.1,1.3,0.5,2.2,1.3,2.7c0.5,0.3,1.1,0.5,1.8,0.5c0.8,0,1.4-0.2,1.9-0.6c0.3-0.2,0.5-0.5,0.7-0.9h3.4c-0.1,0.8-0.5,1.5-1.2,2.3
			c-1.1,1.2-2.7,1.9-4.8,1.9c-1.7,0-3.2-0.5-4.5-1.6c-1.3-1-1.9-2.8-1.9-5.1c0-2.2,0.6-3.9,1.8-5.1c1.2-1.2,2.7-1.8,4.6-1.8
			C224.5,596.5,225.5,596.7,226.4,597.1z M221.4,600c-0.5,0.5-0.8,1.1-0.9,2h5.8c-0.1-0.9-0.4-1.6-0.9-2c-0.5-0.5-1.2-0.7-2-0.7
			C222.5,599.3,221.8,599.5,221.4,600z"/>
		<path fill="#F2F2F2" d="M238.1,596.3c0-1.2,0.3-2.1,0.8-2.8s1.4-1.1,2.4-1.3v1.2c-0.8,0.2-1.3,0.7-1.6,1.3c-0.1,0.3-0.2,0.7-0.2,1
			h1.8v3.1h-3.3V596.3z M243.7,596.3c0-1.2,0.3-2.1,0.9-2.8s1.4-1.1,2.4-1.3v1.2c-0.8,0.2-1.3,0.7-1.6,1.3c-0.2,0.3-0.2,0.7-0.2,1
			h1.8v3.1h-3.3V596.3z"/>
		<path fill="#F2F2F2" d="M260.4,597.6c0.8,0.7,1.3,1.8,1.3,3.4v8.6h-3.4v-7.8c0-0.7-0.1-1.2-0.3-1.5c-0.3-0.7-0.9-1-1.9-1
			c-1.1,0-1.9,0.5-2.3,1.4c-0.2,0.5-0.3,1.2-0.3,1.9v6.9h-3.3v-12.8h3.2v1.9c0.4-0.7,0.8-1.1,1.2-1.4c0.7-0.5,1.6-0.8,2.6-0.8
			C258.5,596.6,259.5,596.9,260.4,597.6z"/>
		<path fill="#F2F2F2" d="M273,597.1c0.9,0.4,1.6,1,2.2,1.9c0.5,0.8,0.9,1.6,1,2.6c0.1,0.6,0.1,1.4,0.1,2.5h-9.3
			c0.1,1.3,0.5,2.2,1.3,2.7c0.5,0.3,1.1,0.5,1.8,0.5c0.8,0,1.4-0.2,1.9-0.6c0.3-0.2,0.5-0.5,0.7-0.9h3.4c-0.1,0.8-0.5,1.5-1.2,2.3
			c-1.1,1.2-2.7,1.9-4.8,1.9c-1.7,0-3.2-0.5-4.5-1.6c-1.3-1-1.9-2.8-1.9-5.1c0-2.2,0.6-3.9,1.8-5.1c1.2-1.2,2.7-1.8,4.6-1.8
			C271.2,596.5,272.2,596.7,273,597.1z M268,600c-0.5,0.5-0.8,1.1-0.9,2h5.8c-0.1-0.9-0.4-1.6-0.9-2c-0.5-0.5-1.2-0.7-2-0.7
			C269.2,599.3,268.5,599.5,268,600z"/>
		<path fill="#F2F2F2" d="M291.5,597.1c0.6,0.3,1.1,0.8,1.5,1.4v-6.1h3.4v17.2h-3.2v-1.8c-0.5,0.8-1,1.3-1.6,1.7s-1.4,0.5-2.3,0.5
			c-1.5,0-2.7-0.6-3.8-1.8s-1.5-2.8-1.5-4.6c0-2.2,0.5-3.9,1.5-5.1s2.3-1.9,4-1.9C290.2,596.6,290.9,596.7,291.5,597.1z
			 M292.3,606.2c0.5-0.7,0.7-1.6,0.7-2.7c0-1.6-0.4-2.7-1.2-3.4c-0.5-0.4-1-0.6-1.7-0.6c-1,0-1.7,0.4-2.2,1.1s-0.7,1.7-0.7,2.7
			c0,1.2,0.2,2.1,0.7,2.8s1.2,1.1,2.1,1.1S291.8,606.9,292.3,606.2z"/>
		<path fill="#F2F2F2" d="M302.8,595.4h-3.4v-3.1h3.4V595.4z M299.4,596.9h3.4v12.8h-3.4V596.9z"/>
		<path fill="#F2F2F2" d="M320.6,596.9h3.6l-4.6,12.8h-3.5l-4.6-12.8h3.8l2.7,9.4L320.6,596.9z"/>
		<path fill="#F2F2F2" d="M334.4,597.1c0.9,0.4,1.6,1,2.2,1.9c0.5,0.8,0.9,1.6,1,2.6c0.1,0.6,0.1,1.4,0.1,2.5h-9.3
			c0.1,1.3,0.5,2.2,1.3,2.7c0.5,0.3,1.1,0.5,1.8,0.5c0.8,0,1.4-0.2,1.9-0.6c0.3-0.2,0.5-0.5,0.7-0.9h3.4c-0.1,0.8-0.5,1.5-1.2,2.3
			c-1.1,1.2-2.7,1.9-4.8,1.9c-1.7,0-3.2-0.5-4.5-1.6c-1.3-1-1.9-2.8-1.9-5.1c0-2.2,0.6-3.9,1.8-5.1c1.2-1.2,2.7-1.8,4.6-1.8
			C332.5,596.5,333.5,596.7,334.4,597.1z M329.4,600c-0.5,0.5-0.8,1.1-0.9,2h5.8c-0.1-0.9-0.4-1.6-0.9-2c-0.5-0.5-1.2-0.7-2-0.7
			C330.5,599.3,329.9,599.5,329.4,600z"/>
		<path fill="#F2F2F2" d="M349.7,597.6c0.8,0.7,1.3,1.8,1.3,3.4v8.6h-3.4v-7.8c0-0.7-0.1-1.2-0.3-1.5c-0.3-0.7-0.9-1-1.9-1
			c-1.1,0-1.9,0.5-2.3,1.4c-0.2,0.5-0.3,1.2-0.3,1.9v6.9h-3.3v-12.8h3.2v1.9c0.4-0.7,0.8-1.1,1.2-1.4c0.7-0.5,1.6-0.8,2.6-0.8
			C347.8,596.6,348.9,596.9,349.7,597.6z"/>
		<path fill="#F2F2F2" d="M362.4,597.1c0.9,0.4,1.6,1,2.2,1.9c0.5,0.8,0.9,1.6,1,2.6c0.1,0.6,0.1,1.4,0.1,2.5h-9.3
			c0.1,1.3,0.5,2.2,1.3,2.7c0.5,0.3,1.1,0.5,1.8,0.5c0.8,0,1.4-0.2,1.9-0.6c0.3-0.2,0.5-0.5,0.7-0.9h3.4c-0.1,0.8-0.5,1.5-1.2,2.3
			c-1.1,1.2-2.7,1.9-4.8,1.9c-1.7,0-3.2-0.5-4.5-1.6c-1.3-1-1.9-2.8-1.9-5.1c0-2.2,0.6-3.9,1.8-5.1c1.2-1.2,2.7-1.8,4.6-1.8
			C360.5,596.5,361.5,596.7,362.4,597.1z M357.4,600c-0.5,0.5-0.8,1.1-0.9,2h5.8c-0.1-0.9-0.4-1.6-0.9-2c-0.5-0.5-1.2-0.7-2-0.7
			C358.6,599.3,357.9,599.5,357.4,600z"/>
		<path fill="#F2F2F2" d="M374.5,596.6c0,0,0.1,0,0.3,0v3.4c-0.2,0-0.4,0-0.6,0s-0.3,0-0.4,0c-1.3,0-2.2,0.4-2.7,1.3
			c-0.3,0.5-0.4,1.2-0.4,2.3v6.1h-3.4v-12.8h3.2v2.2c0.5-0.9,1-1.4,1.3-1.7c0.6-0.5,1.4-0.8,2.4-0.8
			C374.4,596.6,374.5,596.6,374.5,596.6z"/>
		<path fill="#F2F2F2" d="M385.1,597.1c0.9,0.4,1.6,1,2.2,1.9c0.5,0.8,0.9,1.6,1,2.6c0.1,0.6,0.1,1.4,0.1,2.5h-9.3
			c0.1,1.3,0.5,2.2,1.3,2.7c0.5,0.3,1.1,0.5,1.8,0.5c0.8,0,1.4-0.2,1.9-0.6c0.3-0.2,0.5-0.5,0.7-0.9h3.4c-0.1,0.8-0.5,1.5-1.2,2.3
			c-1.1,1.2-2.7,1.9-4.8,1.9c-1.7,0-3.2-0.5-4.5-1.6c-1.3-1-1.9-2.8-1.9-5.1c0-2.2,0.6-3.9,1.8-5.1c1.2-1.2,2.7-1.8,4.6-1.8
			C383.2,596.5,384.2,596.7,385.1,597.1z M380.1,600c-0.5,0.5-0.8,1.1-0.9,2h5.8c-0.1-0.9-0.4-1.6-0.9-2c-0.5-0.5-1.2-0.7-2-0.7
			C381.2,599.3,380.6,599.5,380.1,600z"/>
		<path fill="#F2F2F2" d="M407.1,597.6c0.8,0.7,1.3,1.8,1.3,3.4v8.6h-3.4v-7.8c0-0.7-0.1-1.2-0.3-1.5c-0.3-0.7-0.9-1-1.9-1
			c-1.1,0-1.9,0.5-2.3,1.4c-0.2,0.5-0.3,1.2-0.3,1.9v6.9h-3.3v-12.8h3.2v1.9c0.4-0.7,0.8-1.1,1.2-1.4c0.7-0.5,1.6-0.8,2.6-0.8
			C405.2,596.6,406.3,596.9,407.1,597.6z"/>
		<path fill="#F2F2F2" d="M419.8,597.1c0.9,0.4,1.6,1,2.2,1.9c0.5,0.8,0.9,1.6,1,2.6c0.1,0.6,0.1,1.4,0.1,2.5h-9.3
			c0.1,1.3,0.5,2.2,1.3,2.7c0.5,0.3,1.1,0.5,1.8,0.5c0.8,0,1.4-0.2,1.9-0.6c0.3-0.2,0.5-0.5,0.7-0.9h3.4c-0.1,0.8-0.5,1.5-1.2,2.3
			c-1.1,1.2-2.7,1.9-4.8,1.9c-1.7,0-3.2-0.5-4.5-1.6c-1.3-1-1.9-2.8-1.9-5.1c0-2.2,0.6-3.9,1.8-5.1c1.2-1.2,2.7-1.8,4.6-1.8
			C417.9,596.5,418.9,596.7,419.8,597.1z M414.8,600c-0.5,0.5-0.8,1.1-0.9,2h5.8c-0.1-0.9-0.4-1.6-0.9-2c-0.5-0.5-1.2-0.7-2-0.7
			C415.9,599.3,415.3,599.5,414.8,600z"/>
		<path fill="#F2F2F2" d="M438.2,597.1c0.6,0.3,1.1,0.8,1.5,1.4v-6.1h3.4v17.2h-3.2v-1.8c-0.5,0.8-1,1.3-1.6,1.7s-1.4,0.5-2.3,0.5
			c-1.5,0-2.7-0.6-3.8-1.8s-1.5-2.8-1.5-4.6c0-2.2,0.5-3.9,1.5-5.1s2.3-1.9,4-1.9C437,596.6,437.6,596.7,438.2,597.1z M439.1,606.2
			c0.5-0.7,0.7-1.6,0.7-2.7c0-1.6-0.4-2.7-1.2-3.4c-0.5-0.4-1-0.6-1.7-0.6c-1,0-1.7,0.4-2.2,1.1s-0.7,1.7-0.7,2.7
			c0,1.2,0.2,2.1,0.7,2.8s1.2,1.1,2.1,1.1S438.6,606.9,439.1,606.2z"/>
		<path fill="#F2F2F2" d="M449.6,595.4h-3.4v-3.1h3.4V595.4z M446.2,596.9h3.4v12.8h-3.4V596.9z"/>
		<path fill="#F2F2F2" d="M475.4,596.9c0.5,0.2,1,0.6,1.5,1.1c0.4,0.4,0.6,1,0.7,1.6c0.1,0.4,0.1,1.1,0.1,1.9l0,8.1h-3.4v-8.1
			c0-0.5-0.1-0.9-0.2-1.2c-0.3-0.6-0.8-0.9-1.6-0.9c-0.9,0-1.6,0.4-1.9,1.1c-0.2,0.4-0.3,0.9-0.3,1.5v7.6h-3.4V602
			c0-0.8-0.1-1.3-0.2-1.7c-0.3-0.6-0.8-0.9-1.7-0.9c-1,0-1.6,0.3-1.9,0.9c-0.2,0.4-0.3,0.9-0.3,1.6v7.7h-3.4v-12.8h3.2v1.9
			c0.4-0.7,0.8-1.1,1.2-1.4c0.6-0.5,1.5-0.8,2.5-0.8c1,0,1.8,0.2,2.4,0.6c0.5,0.4,0.9,0.9,1.1,1.5c0.4-0.8,1-1.3,1.6-1.7
			c0.7-0.4,1.5-0.5,2.3-0.5C474.3,596.6,474.9,596.7,475.4,596.9z"/>
		<path fill="#F2F2F2" d="M485.9,601.9c0.6-0.1,1.1-0.2,1.3-0.3c0.5-0.2,0.7-0.5,0.7-0.9c0-0.5-0.2-0.9-0.6-1.1s-0.9-0.3-1.6-0.3
			c-0.8,0-1.4,0.2-1.7,0.6c-0.2,0.3-0.4,0.7-0.5,1.2h-3.2c0.1-1.1,0.4-2,0.9-2.8c0.9-1.1,2.4-1.7,4.6-1.7c1.4,0,2.7,0.3,3.7,0.8
			s1.6,1.6,1.6,3.1v5.9c0,0.4,0,0.9,0,1.5c0,0.4,0.1,0.7,0.2,0.9s0.3,0.3,0.5,0.4v0.5h-3.6c-0.1-0.3-0.2-0.5-0.2-0.7
			s-0.1-0.5-0.1-0.8c-0.5,0.5-1,0.9-1.6,1.3c-0.7,0.4-1.5,0.6-2.5,0.6c-1.2,0-2.1-0.3-2.9-1c-0.8-0.7-1.1-1.6-1.1-2.8
			c0-1.6,0.6-2.7,1.8-3.4c0.7-0.4,1.7-0.7,3-0.8L485.9,601.9z M487.9,603.4c-0.2,0.1-0.4,0.2-0.6,0.3s-0.5,0.2-0.9,0.2l-0.8,0.1
			c-0.7,0.1-1.2,0.3-1.5,0.5c-0.5,0.3-0.8,0.8-0.8,1.4c0,0.6,0.2,1,0.5,1.2c0.3,0.3,0.7,0.4,1.2,0.4c0.7,0,1.4-0.2,2-0.6
			s0.9-1.2,1-2.3V603.4z"/>
		<path fill="#F2F2F2" d="M501.2,596.6c0,0,0.1,0,0.3,0v3.4c-0.2,0-0.4,0-0.6,0s-0.3,0-0.4,0c-1.3,0-2.2,0.4-2.7,1.3
			c-0.3,0.5-0.4,1.2-0.4,2.3v6.1h-3.4v-12.8h3.2v2.2c0.5-0.9,1-1.4,1.3-1.7c0.6-0.5,1.4-0.8,2.4-0.8
			C501.2,596.6,501.2,596.6,501.2,596.6z"/>
		<path fill="#F2F2F2" d="M502.2,599.4V597h1.8v-3.6h3.3v3.6h2.1v2.4h-2.1v6.8c0,0.5,0.1,0.8,0.2,1s0.5,0.2,1.2,0.2
			c0.1,0,0.2,0,0.3,0s0.2,0,0.3,0v2.5l-1.6,0.1c-1.6,0.1-2.7-0.2-3.2-0.8c-0.4-0.4-0.6-1-0.6-1.8v-7.9H502.2z"/>
		<path fill="#F2F2F2" d="M519.8,597.1c0.9,0.4,1.6,1,2.2,1.9c0.5,0.8,0.9,1.6,1,2.6c0.1,0.6,0.1,1.4,0.1,2.5h-9.3
			c0.1,1.3,0.5,2.2,1.3,2.7c0.5,0.3,1.1,0.5,1.8,0.5c0.8,0,1.4-0.2,1.9-0.6c0.3-0.2,0.5-0.5,0.7-0.9h3.4c-0.1,0.8-0.5,1.5-1.2,2.3
			c-1.1,1.2-2.7,1.9-4.8,1.9c-1.7,0-3.2-0.5-4.5-1.6c-1.3-1-1.9-2.8-1.9-5.1c0-2.2,0.6-3.9,1.8-5.1c1.2-1.2,2.7-1.8,4.6-1.8
			C517.9,596.5,518.9,596.7,519.8,597.1z M514.8,600c-0.5,0.5-0.8,1.1-0.9,2h5.8c-0.1-0.9-0.4-1.6-0.9-2s-1.2-0.7-2-0.7
			C515.9,599.3,515.3,599.5,514.8,600z"/>
		<path fill="#F2F2F2" d="M525.1,597.8c0.8-0.2,1.3-0.7,1.6-1.3c0.1-0.3,0.2-0.6,0.2-1H525v-3.1h3.3v2.5c0,1.1-0.3,2.1-0.8,2.8
			s-1.4,1.1-2.4,1.3V597.8z M530.6,597.8c0.8-0.2,1.3-0.7,1.6-1.3c0.1-0.3,0.2-0.6,0.2-0.9h-1.8v-3.1h3.3v2.5c0,1.1-0.3,2-0.8,2.7
			s-1.4,1.2-2.5,1.4V597.8z"/>
		<path fill="#F2F2F2" d="M559.4,596.9c0.5,0.2,1,0.6,1.5,1.1c0.4,0.4,0.6,1,0.7,1.6c0.1,0.4,0.1,1.1,0.1,1.9l0,8.1h-3.4v-8.1
			c0-0.5-0.1-0.9-0.2-1.2c-0.3-0.6-0.8-0.9-1.6-0.9c-0.9,0-1.6,0.4-1.9,1.1c-0.2,0.4-0.3,0.9-0.3,1.5v7.6h-3.4V602
			c0-0.8-0.1-1.3-0.2-1.7c-0.3-0.6-0.8-0.9-1.7-0.9c-1,0-1.6,0.3-1.9,0.9c-0.2,0.4-0.3,0.9-0.3,1.6v7.7h-3.4v-12.8h3.2v1.9
			c0.4-0.7,0.8-1.1,1.2-1.4c0.6-0.5,1.5-0.8,2.5-0.8c1,0,1.8,0.2,2.4,0.6c0.5,0.4,0.9,0.9,1.1,1.5c0.4-0.8,1-1.3,1.6-1.7
			c0.7-0.4,1.5-0.5,2.3-0.5C558.3,596.6,558.9,596.7,559.4,596.9z"/>
		<path fill="#F2F2F2" d="M569.9,601.9c0.6-0.1,1.1-0.2,1.3-0.3c0.5-0.2,0.7-0.5,0.7-0.9c0-0.5-0.2-0.9-0.6-1.1s-0.9-0.3-1.6-0.3
			c-0.8,0-1.4,0.2-1.7,0.6c-0.2,0.3-0.4,0.7-0.5,1.2h-3.2c0.1-1.1,0.4-2,0.9-2.8c0.9-1.1,2.4-1.7,4.6-1.7c1.4,0,2.7,0.3,3.7,0.8
			s1.6,1.6,1.6,3.1v5.9c0,0.4,0,0.9,0,1.5c0,0.4,0.1,0.7,0.2,0.9s0.3,0.3,0.5,0.4v0.5h-3.6c-0.1-0.3-0.2-0.5-0.2-0.7
			s-0.1-0.5-0.1-0.8c-0.5,0.5-1,0.9-1.6,1.3c-0.7,0.4-1.5,0.6-2.5,0.6c-1.2,0-2.1-0.3-2.9-1c-0.8-0.7-1.1-1.6-1.1-2.8
			c0-1.6,0.6-2.7,1.8-3.4c0.7-0.4,1.7-0.7,3-0.8L569.9,601.9z M571.9,603.4c-0.2,0.1-0.4,0.2-0.6,0.3s-0.5,0.2-0.9,0.2l-0.8,0.1
			c-0.7,0.1-1.2,0.3-1.5,0.5c-0.5,0.3-0.8,0.8-0.8,1.4c0,0.6,0.2,1,0.5,1.2c0.3,0.3,0.7,0.4,1.2,0.4c0.7,0,1.4-0.2,2-0.6
			s0.9-1.2,1-2.3V603.4z"/>
		<path fill="#F2F2F2" d="M592.5,601.5c-0.1-0.5-0.2-0.9-0.5-1.3c-0.4-0.5-1-0.8-1.8-0.8c-1.1,0-1.9,0.6-2.3,1.7
			c-0.2,0.6-0.3,1.4-0.3,2.4c0,0.9,0.1,1.7,0.3,2.3c0.4,1.1,1.2,1.6,2.3,1.6c0.8,0,1.3-0.2,1.7-0.6c0.3-0.4,0.5-1,0.6-1.6h3.4
			c-0.1,1-0.4,2-1.1,2.9c-1,1.5-2.6,2.2-4.7,2.2s-3.6-0.6-4.5-1.8c-1-1.2-1.5-2.8-1.5-4.7c0-2.2,0.5-3.9,1.6-5.1
			c1.1-1.2,2.5-1.8,4.4-1.8c1.6,0,2.9,0.4,3.9,1.1s1.6,2,1.8,3.8H592.5z"/>
		<path fill="#F2F2F2" d="M601.6,595.4h-3.4v-3.1h3.4V595.4z M598.2,596.9h3.4v12.8h-3.4V596.9z"/>
		<path fill="#F2F2F2" d="M622.3,598.2c1,1.1,1.6,2.7,1.6,4.9c0,2.2-0.5,4-1.5,5.1s-2.3,1.8-3.9,1.8c-1,0-1.9-0.3-2.5-0.8
			c-0.4-0.3-0.7-0.7-1.1-1.2v6.7h-3.3v-17.8h3.2v1.9c0.4-0.6,0.7-1,1.2-1.3c0.7-0.6,1.6-0.9,2.7-0.9
			C620,596.6,621.2,597.1,622.3,598.2z M619.7,600.6c-0.5-0.8-1.2-1.1-2.2-1.1c-1.2,0-2.1,0.6-2.5,1.7c-0.2,0.6-0.4,1.4-0.4,2.3
			c0,1.5,0.4,2.5,1.2,3.1c0.5,0.4,1,0.5,1.7,0.5c0.9,0,1.7-0.4,2.1-1.1s0.7-1.7,0.7-2.9C620.4,602.3,620.2,601.4,619.7,600.6z"/>
		<path fill="#F2F2F2" d="M629.6,595.4h-3.4v-3.1h3.4V595.4z M626.2,596.9h3.4v12.8h-3.4V596.9z"/>
		<path fill="#F2F2F2" d="M637.9,601.9c0.6-0.1,1.1-0.2,1.3-0.3c0.5-0.2,0.7-0.5,0.7-0.9c0-0.5-0.2-0.9-0.6-1.1s-0.9-0.3-1.6-0.3
			c-0.8,0-1.4,0.2-1.7,0.6c-0.2,0.3-0.4,0.7-0.5,1.2h-3.2c0.1-1.1,0.4-2,0.9-2.8c0.9-1.1,2.4-1.7,4.6-1.7c1.4,0,2.7,0.3,3.7,0.8
			s1.6,1.6,1.6,3.1v5.9c0,0.4,0,0.9,0,1.5c0,0.4,0.1,0.7,0.2,0.9s0.3,0.3,0.5,0.4v0.5h-3.6c-0.1-0.3-0.2-0.5-0.2-0.7
			s-0.1-0.5-0.1-0.8c-0.5,0.5-1,0.9-1.6,1.3c-0.7,0.4-1.5,0.6-2.5,0.6c-1.2,0-2.1-0.3-2.9-1c-0.8-0.7-1.1-1.6-1.1-2.8
			c0-1.6,0.6-2.7,1.8-3.4c0.7-0.4,1.7-0.7,3-0.8L637.9,601.9z M640,603.4c-0.2,0.1-0.4,0.2-0.6,0.3s-0.5,0.2-0.9,0.2l-0.8,0.1
			c-0.7,0.1-1.2,0.3-1.5,0.5c-0.5,0.3-0.8,0.8-0.8,1.4c0,0.6,0.2,1,0.5,1.2c0.3,0.3,0.7,0.4,1.2,0.4c0.7,0,1.4-0.2,2-0.6
			s0.9-1.2,1-2.3V603.4z"/>
		<path fill="#F2F2F2" d="M653.9,601.5c-0.1-0.5-0.2-0.9-0.5-1.3c-0.4-0.5-1-0.8-1.8-0.8c-1.1,0-1.9,0.6-2.3,1.7
			c-0.2,0.6-0.3,1.4-0.3,2.4c0,0.9,0.1,1.7,0.3,2.3c0.4,1.1,1.2,1.6,2.3,1.6c0.8,0,1.3-0.2,1.7-0.6c0.3-0.4,0.5-1,0.6-1.6h3.4
			c-0.1,1-0.4,2-1.1,2.9c-1,1.5-2.6,2.2-4.7,2.2s-3.6-0.6-4.5-1.8c-1-1.2-1.5-2.8-1.5-4.7c0-2.2,0.5-3.9,1.6-5.1
			c1.1-1.2,2.5-1.8,4.4-1.8c1.6,0,2.9,0.4,3.9,1.1s1.6,2,1.8,3.8H653.9z"/>
		<path fill="#F2F2F2" d="M667.9,597.1c0.9,0.4,1.6,1,2.2,1.9c0.5,0.8,0.9,1.6,1,2.6c0.1,0.6,0.1,1.4,0.1,2.5h-9.3
			c0.1,1.3,0.5,2.2,1.3,2.7c0.5,0.3,1.1,0.5,1.8,0.5c0.8,0,1.4-0.2,1.9-0.6c0.3-0.2,0.5-0.5,0.7-0.9h3.4c-0.1,0.8-0.5,1.5-1.2,2.3
			c-1.1,1.2-2.7,1.9-4.8,1.9c-1.7,0-3.2-0.5-4.5-1.6s-1.9-2.8-1.9-5.1c0-2.2,0.6-3.9,1.8-5.1s2.7-1.8,4.6-1.8
			C666,596.5,667,596.7,667.9,597.1z M662.9,600c-0.5,0.5-0.8,1.1-0.9,2h5.8c-0.1-0.9-0.4-1.6-0.9-2s-1.2-0.7-2-0.7
			C664,599.3,663.4,599.5,662.9,600z"/>
		<path fill="#F2F2F2" d="M682.2,605.6c0.1,0.6,0.2,1,0.5,1.3c0.4,0.4,1.2,0.7,2.3,0.7c0.7,0,1.2-0.1,1.6-0.3s0.6-0.5,0.6-0.9
			c0-0.4-0.2-0.7-0.5-0.9c-0.3-0.2-1.5-0.5-3.5-1c-1.5-0.4-2.5-0.8-3.1-1.3c-0.6-0.5-0.9-1.3-0.9-2.3c0-1.2,0.5-2.2,1.4-3
			s2.2-1.3,3.9-1.3c1.6,0,2.9,0.3,3.9,1s1.6,1.7,1.7,3.3h-3.3c0-0.4-0.2-0.8-0.4-1c-0.4-0.5-1-0.7-1.9-0.7c-0.7,0-1.2,0.1-1.6,0.3
			s-0.5,0.5-0.5,0.8c0,0.4,0.2,0.7,0.5,0.8c0.3,0.2,1.5,0.5,3.5,0.9c1.3,0.3,2.3,0.8,3,1.4c0.7,0.6,1,1.4,1,2.4
			c0,1.3-0.5,2.3-1.4,3.1s-2.4,1.2-4.4,1.2c-2,0-3.5-0.4-4.5-1.3s-1.4-1.9-1.4-3.2H682.2z"/>
		<path fill="#F2F2F2" d="M698.2,592.2c0.2,0,0.4,0,0.7,0.1v2.7c-0.2,0-0.5,0-0.9-0.1s-0.7,0.1-0.9,0.3s-0.3,0.4-0.3,0.7
			s0,0.6,0,1.1h2.2v2.4h-2.2v10.3h-3.3v-10.3h-1.9V597h1.8v-0.8c0-1.4,0.2-2.3,0.7-2.8c0.5-0.8,1.7-1.1,3.5-1.1
			C697.8,592.2,698,592.2,698.2,592.2z"/>
		<path fill="#F2F2F2" d="M704.4,595.4H701v-3.1h3.4V595.4z M701,596.9h3.4v12.8H701V596.9z"/>
		<path fill="#F2F2F2" d="M714.4,597.1c0.6,0.3,1.1,0.8,1.5,1.4v-6.1h3.4v17.2H716v-1.8c-0.5,0.8-1,1.3-1.6,1.7s-1.4,0.5-2.3,0.5
			c-1.5,0-2.7-0.6-3.8-1.8s-1.5-2.8-1.5-4.6c0-2.2,0.5-3.9,1.5-5.1s2.3-1.9,4-1.9C713.1,596.6,713.8,596.7,714.4,597.1z
			 M715.2,606.2c0.5-0.7,0.7-1.6,0.7-2.7c0-1.6-0.4-2.7-1.2-3.4c-0.5-0.4-1-0.6-1.7-0.6c-1,0-1.7,0.4-2.2,1.1s-0.7,1.7-0.7,2.7
			c0,1.2,0.2,2.1,0.7,2.8s1.2,1.1,2.1,1.1S714.7,606.9,715.2,606.2z"/>
		<path fill="#F2F2F2" d="M727.3,601.9c0.6-0.1,1.1-0.2,1.3-0.3c0.5-0.2,0.7-0.5,0.7-0.9c0-0.5-0.2-0.9-0.6-1.1s-0.9-0.3-1.6-0.3
			c-0.8,0-1.4,0.2-1.7,0.6c-0.2,0.3-0.4,0.7-0.5,1.2h-3.2c0.1-1.1,0.4-2,0.9-2.8c0.9-1.1,2.4-1.7,4.6-1.7c1.4,0,2.7,0.3,3.7,0.8
			s1.6,1.6,1.6,3.1v5.9c0,0.4,0,0.9,0,1.5c0,0.4,0.1,0.7,0.2,0.9s0.3,0.3,0.5,0.4v0.5h-3.6c-0.1-0.3-0.2-0.5-0.2-0.7
			s-0.1-0.5-0.1-0.8c-0.5,0.5-1,0.9-1.6,1.3c-0.7,0.4-1.5,0.6-2.5,0.6c-1.2,0-2.1-0.3-2.9-1c-0.8-0.7-1.1-1.6-1.1-2.8
			c0-1.6,0.6-2.7,1.8-3.4c0.7-0.4,1.7-0.7,3-0.8L727.3,601.9z M729.3,603.4c-0.2,0.1-0.4,0.2-0.6,0.3s-0.5,0.2-0.9,0.2l-0.8,0.1
			c-0.7,0.1-1.2,0.3-1.5,0.5c-0.5,0.3-0.8,0.8-0.8,1.4c0,0.6,0.2,1,0.5,1.2c0.3,0.3,0.7,0.4,1.2,0.4c0.7,0,1.4-0.2,2-0.6
			s0.9-1.2,1-2.3V603.4z"/>
		<path fill="#F2F2F2" d="M742.7,596.6c0,0,0.1,0,0.3,0v3.4c-0.2,0-0.4,0-0.6,0s-0.3,0-0.4,0c-1.3,0-2.2,0.4-2.7,1.3
			c-0.3,0.5-0.4,1.2-0.4,2.3v6.1h-3.4v-12.8h3.2v2.2c0.5-0.9,1-1.4,1.3-1.7c0.6-0.5,1.4-0.8,2.4-0.8
			C742.6,596.6,742.6,596.6,742.7,596.6z"/>
		<path fill="#F2F2F2" d="M753.3,597.1c0.9,0.4,1.6,1,2.2,1.9c0.5,0.8,0.9,1.6,1,2.6c0.1,0.6,0.1,1.4,0.1,2.5h-9.3
			c0.1,1.3,0.5,2.2,1.3,2.7c0.5,0.3,1.1,0.5,1.8,0.5c0.8,0,1.4-0.2,1.9-0.6c0.3-0.2,0.5-0.5,0.7-0.9h3.4c-0.1,0.8-0.5,1.5-1.2,2.3
			c-1.1,1.2-2.7,1.9-4.8,1.9c-1.7,0-3.2-0.5-4.5-1.6s-1.9-2.8-1.9-5.1c0-2.2,0.6-3.9,1.8-5.1s2.7-1.8,4.6-1.8
			C751.4,596.5,752.4,596.7,753.3,597.1z M748.3,600c-0.5,0.5-0.8,1.1-0.9,2h5.8c-0.1-0.9-0.4-1.6-0.9-2s-1.2-0.7-2-0.7
			C749.4,599.3,748.7,599.5,748.3,600z"/>
		<path fill="#F2F2F2" d="M768.4,609.6H765v-17.3h3.3V609.6z"/>
		<path fill="#F2F2F2" d="M779.9,597.1c0.9,0.4,1.6,1,2.2,1.9c0.5,0.8,0.9,1.6,1,2.6c0.1,0.6,0.1,1.4,0.1,2.5H774
			c0.1,1.3,0.5,2.2,1.3,2.7c0.5,0.3,1.1,0.5,1.8,0.5c0.8,0,1.4-0.2,1.9-0.6c0.3-0.2,0.5-0.5,0.7-0.9h3.4c-0.1,0.8-0.5,1.5-1.2,2.3
			c-1.1,1.2-2.7,1.9-4.8,1.9c-1.7,0-3.2-0.5-4.5-1.6s-1.9-2.8-1.9-5.1c0-2.2,0.6-3.9,1.8-5.1s2.7-1.8,4.6-1.8
			C778,596.5,779,596.7,779.9,597.1z M774.9,600c-0.5,0.5-0.8,1.1-0.9,2h5.8c-0.1-0.9-0.4-1.6-0.9-2s-1.2-0.7-2-0.7
			C776.1,599.3,775.4,599.5,774.9,600z"/>
		<path fill="#F2F2F2" d="M790.3,599.4V597h1.8v-3.6h3.3v3.6h2.1v2.4h-2.1v6.8c0,0.5,0.1,0.8,0.2,1s0.5,0.2,1.2,0.2
			c0.1,0,0.2,0,0.3,0s0.2,0,0.3,0v2.5l-1.6,0.1c-1.6,0.1-2.7-0.2-3.2-0.8c-0.4-0.4-0.6-1-0.6-1.8v-7.9H790.3z"/>
		<path fill="#F2F2F2" d="M806.7,596.6c0,0,0.1,0,0.3,0v3.4c-0.2,0-0.4,0-0.6,0s-0.3,0-0.4,0c-1.3,0-2.2,0.4-2.7,1.3
			c-0.3,0.5-0.4,1.2-0.4,2.3v6.1h-3.4v-12.8h3.2v2.2c0.5-0.9,1-1.4,1.3-1.7c0.6-0.5,1.4-0.8,2.4-0.8
			C806.6,596.6,806.7,596.6,806.7,596.6z"/>
		<path fill="#F2F2F2" d="M814,601.9c0.6-0.1,1.1-0.2,1.3-0.3c0.5-0.2,0.7-0.5,0.7-0.9c0-0.5-0.2-0.9-0.6-1.1s-0.9-0.3-1.6-0.3
			c-0.8,0-1.4,0.2-1.7,0.6c-0.2,0.3-0.4,0.7-0.5,1.2h-3.2c0.1-1.1,0.4-2,0.9-2.8c0.9-1.1,2.4-1.7,4.6-1.7c1.4,0,2.7,0.3,3.7,0.8
			s1.6,1.6,1.6,3.1v5.9c0,0.4,0,0.9,0,1.5c0,0.4,0.1,0.7,0.2,0.9s0.3,0.3,0.5,0.4v0.5h-3.6c-0.1-0.3-0.2-0.5-0.2-0.7
			s-0.1-0.5-0.1-0.8c-0.5,0.5-1,0.9-1.6,1.3c-0.7,0.4-1.5,0.6-2.5,0.6c-1.2,0-2.1-0.3-2.9-1c-0.8-0.7-1.1-1.6-1.1-2.8
			c0-1.6,0.6-2.7,1.8-3.4c0.7-0.4,1.7-0.7,3-0.8L814,601.9z M816.1,603.4c-0.2,0.1-0.4,0.2-0.6,0.3s-0.5,0.2-0.9,0.2l-0.8,0.1
			c-0.7,0.1-1.2,0.3-1.5,0.5c-0.5,0.3-0.8,0.8-0.8,1.4c0,0.6,0.2,1,0.5,1.2c0.3,0.3,0.7,0.4,1.2,0.4c0.7,0,1.4-0.2,2-0.6
			s0.9-1.2,1-2.3V603.4z"/>
		<path fill="#F2F2F2" d="M829.1,597.1c0.6,0.3,1.1,0.8,1.5,1.4v-6.1h3.4v17.2h-3.2v-1.8c-0.5,0.8-1,1.3-1.6,1.7s-1.4,0.5-2.3,0.5
			c-1.5,0-2.7-0.6-3.8-1.8s-1.5-2.8-1.5-4.6c0-2.2,0.5-3.9,1.5-5.1s2.3-1.9,4-1.9C827.8,596.6,828.5,596.7,829.1,597.1z
			 M829.9,606.2c0.5-0.7,0.7-1.6,0.7-2.7c0-1.6-0.4-2.7-1.2-3.4c-0.5-0.4-1-0.6-1.7-0.6c-1,0-1.7,0.4-2.2,1.1s-0.7,1.7-0.7,2.7
			c0,1.2,0.2,2.1,0.7,2.8s1.2,1.1,2.1,1.1S829.4,606.9,829.9,606.2z"/>
		<path fill="#F2F2F2" d="M840.4,595.4H837v-3.1h3.4V595.4z M837,596.9h3.4v12.8H837V596.9z"/>
		<path fill="#F2F2F2" d="M842.9,599.6v-2.7H853v2.8l-6.3,7.3h6.5v2.7h-10.8V607l6.3-7.5H842.9z"/>
		<path fill="#F2F2F2" d="M859.1,595.4h-3.4v-3.1h3.4V595.4z M855.7,596.9h3.4v12.8h-3.4V596.9z"/>
		<path fill="#F2F2F2" d="M873,608.1c-1.1,1.3-2.7,2-4.9,2s-3.8-0.7-4.9-2s-1.6-2.9-1.6-4.8c0-1.8,0.5-3.4,1.6-4.8
			c1.1-1.3,2.7-2,4.9-2s3.8,0.7,4.9,2c1.1,1.4,1.6,2.9,1.6,4.8C874.6,605.2,874,606.8,873,608.1z M870.3,606.2
			c0.5-0.7,0.8-1.7,0.8-3s-0.3-2.3-0.8-3c-0.5-0.7-1.3-1-2.2-1s-1.7,0.3-2.3,1c-0.5,0.7-0.8,1.7-0.8,3s0.3,2.3,0.8,3s1.3,1,2.3,1
			S869.8,606.9,870.3,606.2z"/>
		<path fill="#F2F2F2" d="M887.3,597.6c0.8,0.7,1.3,1.8,1.3,3.4v8.6h-3.4v-7.8c0-0.7-0.1-1.2-0.3-1.5c-0.3-0.7-0.9-1-1.9-1
			c-1.1,0-1.9,0.5-2.3,1.4c-0.2,0.5-0.3,1.2-0.3,1.9v6.9H877v-12.8h3.2v1.9c0.4-0.7,0.8-1.1,1.2-1.4c0.7-0.5,1.6-0.8,2.6-0.8
			C885.4,596.6,886.4,596.9,887.3,597.6z"/>
		<path fill="#F2F2F2" d="M895.1,595.4h-3.4v-3.1h3.4V595.4z M891.7,596.9h3.4v12.8h-3.4V596.9z"/>
		<path fill="#F2F2F2" d="M898.2,606.1h3.6v3.5h-3.6V606.1z"/>
	</g>
</g>
</svg>
