<?xml version="1.0" encoding="utf-8"?>
<!-- Generator: Adobe Illustrator 19.1.0, SVG Export Plug-In . SVG Version: 6.00 Build 0)  -->
<svg version="1.1" id="Livello_1" xmlns="http://www.w3.org/2000/svg" xmlns:xlink="http://www.w3.org/1999/xlink" x="0px" y="0px"
	 viewBox="0 0 495.8 451.3" enable-background="new 0 0 495.8 451.3" xml:space="preserve">
<g>
	<path fill="#CCCCCC" d="M219.2,4.6h0.9c1.8,0.3,2.8,1,2.8,2.1c0,0.3-0.3,0.7-1,1.1h-1.1c-0.5-0.6-0.9-0.9-1.1-0.9
		c-1.6,0.5-2.3,1-2.3,1.4c-1.6,3-2.3,7-2.3,12.1v2c0,3.5,0.5,7.6,1.4,12.5c0.5,3.5,1.3,5.8,2.2,7c1,0.9,1.9,1.4,2.6,1.4
		c0.9,0,2-0.9,3.3-2.6h0.8c0.4,0,0.8,0.3,1.1,0.8v0.4c0,0.9-1,2-2.9,3.2c-0.9,0.4-1.7,0.6-2.4,0.6h-0.2c-1.3-0.2-2.7-0.8-4.1-2.1
		c-1.5-1.2-2.8-5.8-3.8-13.7c-0.4-1.7-0.6-4.5-0.6-8.4v-0.7c0.1-8.1,1.5-13.1,4.2-15.1C217.9,4.9,218.8,4.6,219.2,4.6z"/>
	<path fill="#CCCCCC" d="M239.9,1h0.7c0.7,0.3,1,0.7,1,1.2c0,3.7-0.1,6.5-0.2,8.6l0.2,12c0.2,0.3,0.2,0.5,0.2,0.8
		c-0.2,0.6-0.3,0.9-0.2,0.9c0.1,3.2,0.2,9.4,0.3,18.5c-0.1,0.4-0.1,1.3-0.1,2.6l-0.8,0.6h-0.9l-0.9-0.7c0-1,0-1.8,0.1-2.3
		c-0.1-10.7-0.2-16.9-0.3-18.6c-3.1,0.1-4.7,0.1-4.7,0.1c0.1,1.2,0.2,2.5,0.2,4c0,3.1,0,5.9-0.1,8.2c0.1,1.3,0.1,4,0.1,8
		c-0.6,0.4-1.1,0.5-1.4,0.5c-0.4,0-0.8-0.3-1.2-0.9v-1.2c0-3.2,0-5.3-0.1-6.4c0.1-1.9,0.1-4.3,0.1-7v-1.8c-0.2-3.8-0.4-6.5-0.4-8
		c0.2-8.7,0.4-14.2,0.4-16.6c-0.1-0.3-0.1-0.7-0.1-1.1l0.9-0.7h0.8c0.7,0.4,1.1,0.9,1.1,1.5c0,1.5-0.1,7.3-0.4,17.6v2l-0.2-0.4
		c0.1,0,1.8-0.1,5-0.1c-0.1-2.5-0.1-4.3-0.1-5.5v-5.4c0-0.1-0.1-0.2-0.2-0.4l0.2-0.4c0.1-3.7,0.1-6.6,0.1-8.8L239.9,1z"/>
	<path fill="#CCCCCC" d="M251.5,4.5h0.5c1,0,1.6,2.3,1.6,6.8v1.5c0,1.5-0.2,5.5-0.7,11.9c0,0.3,0,0.5,0.1,0.8
		c-0.1,4.1-0.1,7.4-0.1,9.8v7.6c0,0.1,0.1,0.5,0.2,1.1c-0.2,1-0.6,1.4-1.2,1.4h-0.5c-0.8,0-1.2-1.2-1.2-3.8c0-13.6,0.2-22.9,0.7-28
		v-3.3c0-1.8-0.1-3.4-0.4-4.9C250.5,5.2,250.9,4.9,251.5,4.5z"/>
	<path fill="#CCCCCC" d="M266.9,4.7c1.8,0,3.4,0.7,4.9,2.2c1.2,1.5,1.8,2.9,1.8,4.2V12c0,4-1.1,7.8-3.3,11.5
		c-0.6,1.2-0.9,3.2-0.9,5.8c0.2,1.3,0.2,2.3,0.2,3.1v1.3c0,0.6-0.3,1.1-1,1.4h-0.5c-0.6,0-1-0.3-1.1-1c0-0.5,0-0.8,0.1-0.9
		c0,0-0.1-1.2-0.4-3.8c0-4,0.8-7.1,2.4-9.3c1.3-2.7,1.9-5.5,1.9-8.3c0-1.5-0.7-2.8-2.1-4c-1-0.5-1.8-0.7-2.3-0.7
		c-2.1,0.6-3.1,1.5-3.1,2.7v0.9l0.4,0.5v0.3c0,0.6-0.3,1.1-1,1.4h-0.8c-0.7-0.4-1.1-0.9-1.1-1.5V9.6c0-2.3,1.8-3.9,5.3-4.9H266.9z
		 M267.8,41.6h0.6c0.4,0,0.8,0.3,1.3,1v0.7c0,1-0.6,1.5-1.7,1.5c-1.1,0-1.7-0.6-1.8-1.8C266.4,42.7,266.9,42.2,267.8,41.6z"/>
</g>
<g>
	<g>
		<g>
			<line fill="none" stroke="#CCCCCC" stroke-width="7" stroke-miterlimit="10" x1="190" y1="24.5" x2="185" y2="24.5"/>
			
				<line fill="none" stroke="#CCCCCC" stroke-width="7" stroke-miterlimit="10" stroke-dasharray="11,5" x1="180" y1="24.5" x2="134" y2="24.5"/>
			<polyline fill="none" stroke="#CCCCCC" stroke-width="7" stroke-miterlimit="10" points="132,24.5 126.5,24.5 126.5,30 			"/>
			
				<line fill="none" stroke="#CCCCCC" stroke-width="7" stroke-miterlimit="10" stroke-dasharray="10,5" x1="126.5" y1="34" x2="126.5" y2="122"/>
			<line fill="none" stroke="#CCCCCC" stroke-width="7" stroke-miterlimit="10" x1="126.5" y1="124" x2="126.5" y2="129"/>
		</g>
	</g>
	<g>
		<g>
			<line fill="none" stroke="#CCCCCC" stroke-width="7" stroke-miterlimit="10" x1="296" y1="24.5" x2="301" y2="24.5"/>
			
				<line fill="none" stroke="#CCCCCC" stroke-width="7" stroke-miterlimit="10" stroke-dasharray="11,5" x1="306" y1="24.5" x2="352" y2="24.5"/>
			<polyline fill="none" stroke="#CCCCCC" stroke-width="7" stroke-miterlimit="10" points="354,24.5 359.5,24.5 359.5,30 			"/>
			
				<line fill="none" stroke="#CCCCCC" stroke-width="7" stroke-miterlimit="10" stroke-dasharray="10,5" x1="359.5" y1="34" x2="359.5" y2="122"/>
			<line fill="none" stroke="#CCCCCC" stroke-width="7" stroke-miterlimit="10" x1="359.5" y1="124" x2="359.5" y2="129"/>
		</g>
	</g>
</g>
<circle opacity="0.5" fill="#FF7BAC" cx="152" cy="298.3" r="152.3"/>
<circle opacity="0.5" fill="#29ABE2" cx="343" cy="298.3" r="152.3"/>
<g>
	<path fill="#FFFFFF" d="M16.8,291.2H7.5l0.7-2.6h45.6l-0.7,2.6h-8.6l5.4,67.7h0.3l26-43.6c4-6.8,5.4-11.1,5.4-14.3
		c0-6.4-5.3-9.7-11-9.7l0.7-2.6h33.4l-0.7,2.6c-7.2,0-13.1,6.1-17.8,13.9l-48.4,81.3H24.7L16.8,291.2z"/>
	<path fill="#FFFFFF" d="M90.5,362.5c6.9,0,12.5,5.6,12.5,12.5c0,6.9-5.6,12.5-12.5,12.5S78,382,78,375
		C78,368.1,83.5,362.5,90.5,362.5z"/>
</g>
<g>
	<path fill="#FFFFFF" d="M380,291.2h-9l0.7-2.6h47l-0.7,2.6h-9.3l-25.4,92.6h11.3c19,0,36.6-10.6,44.2-28.4h3.1l-9.3,31h-87.1
		l0.7-2.6h8.5L380,291.2z"/>
	<path fill="#FFFFFF" d="M463.7,362.5c6.9,0,12.5,5.6,12.5,12.5c0,6.9-5.6,12.5-12.5,12.5c-6.9,0-12.5-5.6-12.5-12.5
		C451.2,368.1,456.7,362.5,463.7,362.5z"/>
</g>
<path fill="#FFFFFF" d="M243,293.2c0-4.7-3.8-8.5-8.5-8.5s-8.5,3.8-8.5,8.5c0,2.2,0.3,5.4,3.4,8.5c3.1,3.1,13.6,10.2,13.6,10.2
	s10.5-7.1,13.6-10.2c3.1-3.1,3.4-6.3,3.4-8.5c0-4.7-3.8-8.5-8.5-8.5C246.8,284.7,243,288.5,243,293.2z"/>
</svg>
