<?xml version="1.0" encoding="utf-8"?>
<!-- Generator: Adobe Illustrator 19.1.0, SVG Export Plug-In . SVG Version: 6.00 Build 0)  -->
<svg version="1.1" id="Livello_1" xmlns="http://www.w3.org/2000/svg" xmlns:xlink="http://www.w3.org/1999/xlink" x="0px" y="0px"
	 viewBox="0 0 547.3 170.8" enable-background="new 0 0 547.3 170.8" xml:space="preserve">
<g>
	<path fill="#FFFFFF" d="M469.5,146.4c-1.8,11-12.6,16.8-31.4,16.8c-35,0-94-19.2-175.4-57.2c-39.3-18.3-83.9-28.8-122.3-28.8
		c-12.7,0-24,1.2-33.6,3.3l-0.1,0l-0.2,0.1c-0.1,0-0.2,0.1-0.3,0.1c-1.6,0.4-3.1,0.8-4.6,1.2c-0.2,0.1-0.5,0.1-0.7,0.2
		c-1.7,0.5-3.4,1-5,1.6c-0.3,0.1-0.5,0.2-0.8,0.3c-0.7,0.2-1.3,0.5-1.9,0.7c-0.7,0.3-1.3,0.5-2,0.8c-0.4,0.2-0.8,0.3-1.2,0.5
		c-0.9,0.4-1.8,0.8-2.6,1.3c-0.2,0.1-0.3,0.2-0.5,0.3c-5.6,2.9-10,6.4-13.1,10.5c0,0.1-0.1,0.1-0.1,0.2l8.9-66.2
		c5.9-16.5,37.7-28,77.4-28c26.2,0,67.6,4.9,115.8,28.4c48.1,23.5,91.3,40.6,125.5,49.9l0,0.1l0.8,0.2c11,3,20.9,5.1,29.8,6.4
		c0,0,0.1,0,0.1,0c1.3,0.2,2.6,0.4,3.9,0.5c1,0.1,2.1,0.2,3.1,0.3c0.8,0.1,1.7,0.2,2.5,0.2c1.2,0.1,2.3,0.2,3.4,0.2
		c0.4,0,0.8,0,1.2,0.1c1.5,0.1,3,0.1,4.4,0.1c0.2,0,0.3,0,0.4,0c1.3,0,2.5,0,3.7-0.1c0.5,0,0.9-0.1,1.4-0.1c0.9-0.1,1.8-0.1,2.7-0.2
		c0.4,0,0.9-0.1,1.3-0.1c1.2-0.2,2.3-0.3,3.4-0.6c0.4-0.1,0.7-0.2,1.1-0.2c0.7-0.2,1.5-0.3,2.2-0.5c0.5-0.1,0.9-0.3,1.3-0.4
		c0.6-0.2,1.1-0.4,1.7-0.6c0.4-0.2,0.8-0.3,1.2-0.5c0.8-0.3,1.5-0.7,2.2-1.1c0.5-0.3,0.9-0.5,1.3-0.8c0.3-0.2,0.6-0.4,0.9-0.6
		c0.4-0.3,0.9-0.6,1.3-1c0.2-0.2,0.4-0.4,0.6-0.5c0.4-0.3,0.8-0.6,1.1-1L469.5,146.4z M481.4,84.7l1.7-12.3l0,0
		c0.6-4.9,0.1-9-1.6-12c-5.7-10.3-14.7-10.2-26.8-9.7c-2.8,0.1-5.7,0.2-8.8,0.2c-7.2,0-13.4-0.7-19.6-2.3
		c-17.8-4.6-17.9-19.9-17.9-21.2c0.2-1.2,0.9-4.2,3.1-6c1.9-1.6,4.6-2.2,7.9-1.7c4.7,0.6,9,3,14.4,6c8.1,4.5,18.2,10.1,34.8,12.1
		c15.5,1.9,39.7-4.1,54.4-15.9c-6.1,15.5-13,24.1-18,28.8l-1.6,1.5l1.8,1.3c10.9,7.7,25.5,11.5,32.8,13
		C530.2,71.3,509.6,82.2,481.4,84.7z"/>
	<path fill="#666666" d="M543,63.4c-0.2,0-19.8-2.9-33.9-12c7.9-8,14.5-19.8,19.6-34.9l3.2-9.3l-6,6.8
		c-13.3,15.1-42.1,21.7-56.8,19.9c-9.1-1.1-16.3-3.4-22.1-5.9c-4.4-1.9-8.1-3.9-11.4-5.8c-5.5-3-10.2-5.7-15.6-6.4
		c-2.7-0.4-5.1-0.2-7.2,0.5c-1.3,0.4-2.5,1.1-3.5,2c-3.7,3.1-4.3,7.7-4.5,8.8l-6,44.4c-0.3,2-0.1,4.1,0.5,6.2
		c-33.5-9.4-75.5-26.2-122.2-49C228.2,5,186.3,0,159.7,0c-16.9,0-32.5,2.1-45.4,5.8c-2.6,0.7-5,1.6-7.4,2.4
		c-14.7,5.4-24.9,13.2-28.1,22.3l-8,59.3C32.2,91.1,8.5,105,2,114.3l-2,2.8l3.5,0c12-0.1,24.5,2.6,37.3,7.9
		c-12.6,13.1-16.8,31.7-18.2,38.1l-1.7,7.7l4.8-6.2c9.8-12.5,29.1-20.2,49.2-19.5c16.8,0.6,29.7,6.6,40,11.5
		c6.3,3,11.8,5.6,16.8,6.2c4.4,0.6,8-0.2,10.7-2.5c3.6-3,4.3-7.5,4.4-8.7l6-44.7c0.5-5-0.9-9.5-4.1-13.2c-5.1-6-14.9-10.1-29-12.2
		c6.3-0.7,13.1-1.1,20.4-1.1c37.9,0,81.9,10.4,120.8,28.5c74.5,34.7,130.5,53.8,166.7,57c2.8,0.2,5.4,0.4,8,0.4c0.8,0,1.5,0,2.2,0
		c26.3,0,33.5-10.8,34.9-19.8l7.9-58.6c37.9-3.1,62-20.7,63-21.4l3.5-2.6L543,63.4z M406.7,39.5l3.6,3c1.8,2.3,4.3,4.6,7.6,6.4
		l19,15.9l-30.4-23.7L406.7,39.5z M470.1,55.1l4.6,2.2c1.3,1.1,2.5,2.6,3.5,4.5c0,0,0,0.1,0.1,0.1L470.1,55.1z M479.2,64.6
		c0.1,0.4,0.2,0.8,0.2,1.2l-6.7-5.6L479.2,64.6z M470.4,57L466,54c0.3,0,0.6,0.1,0.9,0.1L470.4,57z M471.2,60.5l-9.9-6.8
		c0.1,0,0.1,0,0.2,0c0.6,0,1.2,0,1.7,0L471.2,60.5z M461,59.8l-7.6-5.8c0.2,0,0.5,0,0.7,0L461,59.8z M456.5,53.9
		c0.8,0,1.6-0.1,2.4-0.1l11.7,9.8L456.5,53.9z M467.3,67.6l-18.9-13.4c1,0,2,0,2.9-0.1L467.3,67.6z M414.7,78.6l6.2,4.5
		c-0.4-0.1-0.7-0.1-1.1-0.2L414.7,78.6z M415.9,82c-0.4-0.1-0.9-0.2-1.3-0.3l-3.9-3.2L415.9,82z M418.5,79l6.6,4.9
		c-0.3-0.1-0.6-0.1-0.9-0.2L418.5,79z M416.5,74.7l13.9,10.2c-0.7-0.1-1.5-0.2-2.2-0.4L416.5,74.7z M422.4,76.1l12.4,9.4
		c-0.5-0.1-0.9-0.1-1.4-0.2L422.4,76.1z M420.5,71.6l19.3,14.4c-0.8-0.1-1.6-0.2-2.3-0.3L420.5,71.6z M431.8,77.4l11.4,8.9
		c-0.3,0-0.5,0-0.8-0.1L431.8,77.4z M427.9,71.7L447,86.5c-0.4,0-0.8,0-1.2,0c-0.1,0-0.3,0-0.4,0L427.9,71.7z M427.9,68.6l23.2,17.3
		c-0.3,0-0.6-0.6-0.9-0.6h0c-0.3,0-0.6,0.6-0.9,0.6L427.9,68.6z M440.4,75.8l13.4,10.7c-0.2,0-0.4,0-0.7,0L440.4,75.8z M428.3,63.3
		l29.6,22.9c-0.7,0.1-1.4,0.1-2.1,0.2L428.3,63.3z M456.2,71.3l-1.2-1l2.1,1.6l13.8,10.7c-0.3,0.1-0.5,0.3-0.8,0.4L456.2,71.3z
		 M468.8,83.6c-0.6,0.3-1.3,0.5-2,0.8L442,63.6L468.8,83.6z M449.2,62.6L474,80.5c-0.6,0.5-1.2,0.9-1.8,1.3L449.2,62.6z M463.7,70
		l11.8,9.1c-0.2,0.2-0.3,0.3-0.5,0.5L463.7,70z M456.8,61.7l20.8,14.7c-0.4,0.6-0.7,1.2-1.2,1.7L456.8,61.7z M455.3,62l-10.2-7.8
		c0.2,0,0.5,0,0.7,0c0.1,0,0.1,0,0.2,0L455.3,62z M462.1,70.4L439.5,54c1.1,0.1,2.2,0.1,3.3,0.1L462.1,70.4z M449.4,64.3l-13.8-10.7
		c0.4,0,0.8,0.1,1.2,0.1L449.4,64.3z M446,64.4l7.3,6.2l-17-12.7l-6.8-5.1c1.1,0.2,2.1,0.4,3.2,0.5L446,64.4z M442.2,65.3
		l-17.8-13.8c0.3,0.1,0.6,0.2,1,0.3c0.3,0.1,0.6,0.1,1,0.2L442.2,65.3z M465.2,84.8c-0.6,0.2-1.3,0.4-2,0.5L430.6,58L465.2,84.8z
		 M461.5,85.7c-0.6,0.1-1.2,0.2-1.7,0.3L432,62.7L461.5,85.7z M406.2,42.7l30.4,25.5L406,44.5L406.2,42.7z M405.8,46l14.6,12.3
		l-14.7-11.7L405.8,46z M405.5,48.1l24.4,20.5l-24.6-19L405.5,48.1z M405.1,51.1l20.6,17.3l-20.8-16.1L405.1,51.1z M404.7,53.9
		l13,10.9l-13.1-10.3L404.7,53.9z M404.4,56.1l21,17.7l-21.3-16L404.4,56.1z M404,59.4l14.4,12.1l-14.6-11.1L404,59.4z M403.6,62
		l16.3,13.6l-16.5-12L403.6,62z M403.2,65.1l9.2,7.7l-9.3-7L403.2,65.1z M402.9,67.5l9.1,7.7l-9.3-6.7L402.9,67.5z M402.5,70.1
		l8.7,7.3l-8.9-6.1L402.5,70.1z M402.2,73l7.9,6.7l-7.8-4.5C402.2,74.4,402.2,73.7,402.2,73z M408.7,80.3c-0.3-0.1-0.7-0.2-1-0.3
		l-1.3-1.1L408.7,80.3z M404.9,79.3c-0.5-0.1-1-0.3-1.5-0.4c-0.2-0.4-0.3-0.8-0.5-1.2L404.9,79.3z M72.8,106.1L72.8,106.1
		c0.3-0.7,0.6-1.4,0.9-2.1l8.8-6.4l6.3-4.6l-5.7,5l-10.6,9.2C72.6,106.8,72.7,106.5,72.8,106.1z M76.2,100c0.4-0.5,0.8-1,1.2-1.5
		l3.2-2.3l0.3-0.2l-0.3,0.2L76.2,100z M135.1,130.5c-0.3-0.2-0.7-0.4-1-0.6l7.7-5.6L135.1,130.5z M144.1,125.8l-6.3,6.7
		c-0.5-0.4-0.9-0.7-1.4-1.1L144.1,125.8z M125.5,126.6c-0.4-0.1-0.8-0.2-1.3-0.3l12.3-8.9L125.5,126.6z M140.5,117.3l-11.6,10.3
		c-0.6-0.2-1.2-0.4-1.8-0.6L140.5,117.3z M122.8,125.6l-0.4,0.3c-0.3-0.1-0.6-0.1-0.9-0.2l0.7-0.5l10.5-7.7L122.8,125.6z
		 M120.9,124.3l-1.3,1.1c-0.7-0.1-1.4-0.2-2.2-0.3l2.3-1.7l16.6-12.1L120.9,124.3z M118.2,122.4l-2.9,2.4c-1-0.1-2-0.2-3-0.3
		l4.4-3.2l18.9-13.8L118.2,122.4z M115.3,120.4l-5.1,4.1c-0.7,0-1.5,0-2.3-0.1l6.4-4.7l15.2-11L115.3,120.4z M112.7,118.6l-7,5.8
		c-1.1,0-2.2,0-3.3,0.1l9.2-6.7l17.6-12.8L112.7,118.6z M109.9,116.7l-10,7.8c-0.5,0-1,0-1.5,0.1l11.1-8.1l7.3-5.3L109.9,116.7z
		 M108,115.3l-11.9,9.4c-0.6,0-1.2,0.1-1.8,0.1l13.3-9.7l8.6-6.2L108,115.3z M105.6,113.6l-13.7,11.1c-0.6,0-1.2,0-1.8,0
		c-0.5,0-0.9,0-1.3,0l16.1-11.7l14.2-10.3L105.6,113.6z M86.6,124.7c-1-0.1-2-0.2-2.9-0.4l18.3-13.3l13.7-10l-13,10.5L86.6,124.7z
		 M99.8,109.6L82,123.9c-0.7-0.2-1.3-0.4-1.9-0.7l19.2-14l10.3-7.5L99.8,109.6z M97.4,107.9l-18.6,14.6c-0.3-0.2-0.6-0.4-0.9-0.6
		l19.4-14.1l3.2-2.3L97.4,107.9z M89,102.1l5.1-3.7l-4.8,3.9l-16.4,13.2c-0.2-0.4-0.3-0.9-0.4-1.4L89,102.1z M72.2,112.6
		c0-0.2,0-0.4-0.1-0.5l10.6-7.7L72.2,112.6z M91.3,103.7l5.3-3.8l-5,4l-17.5,14c-0.2-0.3-0.4-0.7-0.6-1.1c0,0,0-0.1,0-0.1
		L91.3,103.7z M91.9,106.5l-16.6,13c-0.1-0.2-0.3-0.4-0.4-0.5L91.9,106.5z M95.3,106.5l2-1.5L95.3,106.5l-18.5,14.6
		c-0.2-0.2-0.5-0.4-0.7-0.7L95.3,106.5z M94.9,102.8l22.5-18c0.6,0.1,1.2,0.2,1.9,0.3L94.9,102.8z M92.1,101.5l21.3-17.1
		c0.7,0.1,1.3,0.1,2,0.2L92.1,101.5z M99.8,92.7l10.9-8.5c0.2,0,0.5,0,0.7,0.1L99.8,92.7z M92.2,95.9l15.1-12.1
		c0.5,0,0.9,0.1,1.4,0.1L92.2,95.9z M84.4,98.9l-2.3,1.7l2.1-1.8L99,85.9c1.8-0.6,3.5-1.1,5.2-1.5L84.4,98.9z M84.1,95l7-6
		c1-0.4,2-0.9,3-1.3L84.1,95z M72,109.4l13.5-9.8l1.1-0.8l-1,0.8L72,110.5C72,110.1,72,109.8,72,109.4z M140.1,157.6
		c-1.9,1.6-4.6,2.1-7.9,1.7c-4.4-0.6-9.7-3.1-15.7-5.9c-10.6-5-23.9-11.3-41.4-11.9c-18.3-0.6-36.1,5.4-47.4,15.8
		c2.4-8.7,7.3-22.1,17.4-31.5l2-1.8l-2.5-1.1c-12.7-5.7-25.2-8.8-37.3-9.2c8.4-8.2,30.1-19,63.1-20.2l-1.9,16
		c-0.1,3.6,0.5,6.6,1.8,9C76,128.8,85,128.7,97,128.2c2.8-0.1,5.7-0.2,8.8-0.2c7.2,0,13.4,0.7,19.6,2.3
		c17.7,4.6,17.9,19.7,17.9,21.2C143.1,152.6,142.4,155.7,140.1,157.6z M130.5,128.2l12.6-9.1l-10.5,10.1
		C131.9,128.8,131.3,128.5,130.5,128.2z M139,133.5l5.6-4.1l-4.4,5.2C139.8,134.3,139.4,133.9,139,133.5z M141.2,136l2.2-1.6
		l-1.9,2.1C141.5,136.3,141.4,136.1,141.2,136z M143.1,138.7c-0.2-0.3-0.4-0.6-0.6-0.9l2.4-1.7L143.1,138.7z M144.7,140.3l-0.2,0.4
		l-0.2,0.3c-0.1-0.2-0.2-0.4-0.3-0.6l0,0l0.7-0.5L144.7,140.3z M145,138.3l-0.1,0.1l0.2-0.2L145,138.3z M145.6,134l-0.4,0.3l0.5-0.5
		L145.6,134z M146,130.9l-2.7,2l2.9-3.4L146,130.9z M146.6,126.5l-4.5,3.3l4.8-5.1L146.6,126.5z M147.2,121.9l-5.1,3.7l5.2-4.9
		L147.2,121.9z M147.7,118.4l-8.8,6.4l9.1-8.8L147.7,118.4z M148.3,113.7l-10.1,7.3l10.4-9.2L148.3,113.7z M148.9,109.7l-9.8,7.1
		l10-8.3L148.9,109.7z M149.3,106.5l-9.7,7.1l9.8-7.9C149.3,105.9,149.3,106.2,149.3,106.5z M149.1,102.2c0.1,0.6,0.2,1.1,0.2,1.7
		l-16.7,12.2L149.1,102.2z M148.7,100.8l-21.2,15.4l20.4-17.3C148.3,99.5,148.5,100.1,148.7,100.8z M147.3,97.7l-20.3,14.8
		l19.5-15.9C146.7,96.9,147,97.3,147.3,97.7z M145.6,95.5l-25.2,18.3l23.8-19.7C144.6,94.6,145.1,95.1,145.6,95.5z M143,93.3
		L125,106.4l17.4-13.7C142.6,93,142.8,93.1,143,93.3z M141.2,92l-21.4,15.5l20.4-16.1C140.5,91.6,140.8,91.8,141.2,92z M138.9,90.7
		l-29.4,21.3L137,89.8C137.7,90.1,138.3,90.4,138.9,90.7z M135.5,89.2L104,112.1l29.2-23.7C134.1,88.7,134.8,88.9,135.5,89.2z
		 M131.7,87.9l-29.6,21.5l27.6-22.1C130.4,87.5,131.1,87.7,131.7,87.9z M128,86.8l-22.9,16.6l21.6-17
		C127.2,86.6,127.6,86.7,128,86.8z M125,86.2l-21.7,15.7l20.4-16C124.2,86,124.6,86.1,125,86.2z M121,85.4c0.3,0.1,0.6,0.1,1,0.2
		l-17.6,12.8L121,85.4z M469.4,146.1c-1.8,11-12.6,16.8-31.4,16.8c-35,0-94-19.2-175.4-57.2c-39.3-18.3-83.9-28.8-122.3-28.8
		c-12.7,0-24,1.2-33.6,3.3l-0.1,0l-0.2,0.1c-0.1,0-0.2,0.1-0.3,0.1c-1.6,0.4-3.1,0.8-4.6,1.2c-0.2,0.1-0.5,0.1-0.7,0.2
		c-1.7,0.5-3.4,1-5,1.6c-0.3,0.1-0.5,0.2-0.8,0.3c-0.7,0.2-1.3,0.5-1.9,0.7c-0.7,0.3-1.3,0.5-2,0.8c-0.4,0.2-0.8,0.3-1.2,0.5
		c-0.9,0.4-1.8,0.8-2.6,1.3c-0.2,0.1-0.3,0.2-0.5,0.3c-5.6,2.9-10,6.4-13.1,10.5c0,0.1-0.1,0.1-0.1,0.2l8.9-66.2
		c5.9-16.5,37.7-28,77.4-28c26.2,0,67.6,4.9,115.8,28.4c48.1,23.5,91.3,40.6,125.5,49.9l0,0.1l0.8,0.2c11,3,20.9,5.1,29.8,6.4
		c0,0,0.1,0,0.1,0c1.3,0.2,2.6,0.4,3.9,0.5c1,0.1,2.1,0.2,3.1,0.3c0.8,0.1,1.7,0.2,2.5,0.2c1.2,0.1,2.3,0.2,3.4,0.2
		c0.4,0,0.8,0,1.2,0.1c1.5,0.1,3,0.1,4.4,0.1c0.2,0,0.3,0,0.4,0c1.3,0,2.5,0,3.7-0.1c0.5,0,0.9-0.1,1.4-0.1c0.9-0.1,1.8-0.1,2.7-0.2
		c0.4,0,0.9-0.1,1.3-0.1c1.2-0.2,2.3-0.3,3.4-0.6c0.4-0.1,0.7-0.2,1.1-0.2c0.7-0.2,1.5-0.3,2.2-0.5c0.5-0.1,0.9-0.3,1.3-0.4
		c0.6-0.2,1.1-0.4,1.7-0.6c0.4-0.2,0.8-0.3,1.2-0.5c0.8-0.3,1.5-0.7,2.2-1.1c0.5-0.3,0.9-0.5,1.3-0.8c0.3-0.2,0.6-0.4,0.9-0.6
		c0.4-0.3,0.9-0.6,1.3-1c0.2-0.2,0.4-0.4,0.6-0.5c0.4-0.3,0.8-0.6,1.1-1L469.4,146.1z M478.2,75.1l-9-7.6l9.3,7
		C478.4,74.7,478.3,74.9,478.2,75.1z M479.4,71.6c-0.1,0.6-0.3,1.1-0.4,1.7l-15.3-12.8l15.8,10.9C479.4,71.4,479.4,71.5,479.4,71.6z
		 M479.6,69.5l-11.6-9.8l11.6,7.9C479.6,68.3,479.6,68.9,479.6,69.5z M481.3,84.4l1.7-12.3l0,0c0.6-4.9,0.1-9-1.6-12
		c-5.7-10.3-14.7-10.2-26.8-9.7c-2.8,0.1-5.7,0.2-8.8,0.2c-7.2,0-13.4-0.7-19.6-2.3c-17.8-4.6-17.9-19.9-17.9-21.2
		c0.2-1.2,0.9-4.2,3.1-6c1.9-1.6,4.6-2.2,7.9-1.7c4.7,0.6,9,3,14.4,6c8.1,4.5,18.2,10.1,34.8,12.1c15.5,1.9,39.7-4.1,54.4-15.9
		c-6.1,15.5-13,24.1-18,28.8l-1.6,1.5l1.8,1.3c10.9,7.7,25.5,11.5,32.8,13C530,71,509.5,81.9,481.3,84.4z"/>
	<g>
		<g>
			<path fill="#4D4D4D" d="M163.9,24.6c0,0,0.1,0.2,0.1,0.4l0.1,0.9c0.2,1.4-0.2,3.3-0.3,4.7c-0.1,1.6-0.2,3.2-0.2,4.8
				c0,1.4-0.4,3-0.5,4.4c-0.1,1.5-0.1,3.1-0.2,4.6l-0.4,3.6c0,0-0.1,0.8-0.1,1c0,0.5,0,1.7,0,1.8c0,0.1,0,1.1,0,1.2
				c0,0.3-0.4,1.5,0,1.7c1.7-4.8,3.5-9.5,5.5-14.1c0.5-1.2,0.9-2.4,1.4-3.6c0.6-1.7,1.4-3.3,2.1-5c0.5-1.2,1.3-2.5,1.6-3.9
				c0,0-0.1-0.6-0.1-0.6c0.1-0.4,0.6-0.4,0.8-0.4c0.2,0,0.3,0.1,0.5,0.2l-0.3,0.8c-0.2,0.8-0.7,1.5-1,2.2l-0.1,0.6
				c0,0-0.1,0.2-0.2,0.2c-0.5,1-0.7,1.8-1.1,2.7c-0.2,0.5-0.6,1-0.7,1.4c-0.7,1.4-1.2,3.1-1.8,4.5l0,0.2c-0.1,0.3-0.4,1.2-0.7,1.6
				c-0.3,0.7-0.3,0.7-0.5,1.4c0,0-0.2,0.3-0.2,0.3c-0.9,1.6-1.5,3.6-2,5.3c-0.2,0.7-0.6,1.3-0.9,2c-0.1,0.4-0.2,0.9-0.3,1.3
				c-0.5,1.3-1.1,2.7-1.6,4.2c-0.1,0.1-0.2,0.4-0.2,0.4l-4.5-0.8c0,0-0.1-0.6-0.1-0.8c-0.2-2.3,0.1-4.6,0.2-6.9l0.2-6.3
				c0-1.2-0.1-2.4,0-3.7c0.1-2,0.4-4,0.4-6.1c0.1-2.5-0.6-4.9-0.1-7.4L163.9,24.6z"/>
			<path fill="#4D4D4D" d="M172.8,45.6c0.2-0.8,0.4-1.6,0.7-2.3c0.3-0.9,0.4-1.9,0.7-2.8c0-0.1,0.2-0.5,0.2-0.5l0-0.2
				c0.9-2.7,1.7-5.2,2.9-7.7c0.4-0.8,0.9-1.5,1.4-2.3c1.2-1.2,2-1.6,3.6-1.8c0.3,0,1,0.1,1.3-0.1l2.7,0.6c0,0,0.2,0.1,0.3,0.2
				c0.6,0.5,1.1,1.1,1.3,1.8c0.1,0.6,0,1.1,0,1.6c-0.1,1-0.1,1.9-0.2,2.8l-0.4,2c-0.1,0.3-0.3,1.8-0.3,2.2L184,52.5
				c0,0.4-0.3,2.1-0.4,2.5l-0.1,0.3c-0.2,1-0.5,1.9-0.7,2.8c-0.1,0.3-0.2,0.7-0.1,1l-0.9-0.2l0-0.2c0.4-1.2,0.8-2.5,1-3.8
				c0.4-2,0.7-3.9,1.1-5.9c0-0.1,0-0.4,0-0.4c0-0.1-0.8-0.4-0.9-0.4l-1.2-0.2c-1-0.3-2-0.7-3-0.9l-0.3-0.1c-0.2,0-1.3-0.2-1.5-0.2
				c-0.3,0-0.4-0.1-0.6,0.2l-0.4,2c-0.5,2.2-0.8,4.4-1.2,6.5l-0.3,1.3c0,0.1,0,0.4,0,0.6l-4.5-1l1.4-6.5
				C172.2,48.6,172.4,47.1,172.8,45.6z M180.7,46.9c0,0,0.2,0,0.2-0.1l2.3,0.5c0.1,0,0.8,0.1,1,0.1c0,0,0.2,0,0.2-0.1l2-9.2
				c0.1-0.3,0.4-2.5,0.5-2.8c0.2-1.2,0.6-4.2,0.1-5.1c-0.1-0.3-0.6-0.5-0.7-0.9c-0.2,0-0.9-0.2-1.1-0.2c0,0-0.2-0.1-0.2-0.1
				c0,0-0.3-0.1-0.3-0.1c-0.3-0.1-1.3-0.1-1.7-0.1c-0.6,0.1-1.2,0-1.6,0.6c0,0-0.2,0.4-0.2,0.4c-0.8,1.4-1.2,3.1-1.6,4.7
				c-0.6,2.4-1.3,4.8-1.8,7.2l-0.3,1.6c-0.1,0.4-0.4,2.2-0.4,2.6l0.4,0.1c0.5,0.1,2.6,0.6,3,0.8C180.5,46.8,180.7,46.9,180.7,46.9z"
				/>
			<path fill="#4D4D4D" d="M188,59.7c0-0.2,0.2-0.8,0.2-0.9c0-0.2,0.4-1.6,0.4-1.8c0.1-0.2,0.3-2,0.4-2.2c0.2-1.1,0.6-2.1,0.8-3.2
				c0.3-1.7,0.6-3.3,1-5l0.1-0.4c0-0.1,0.2-0.7,0.3-0.8c0.1-0.4,0.4-1.9,0.5-2.2c0.1-0.4,0.7-3.6,0.7-4.1c0.3-1.7,0.9-3.5,1.2-5.3
				c0.1-0.7,0.4-1.7,0.3-2.5l0.5-0.3c0,0,0.3,0,0.5,0.1c0.7,0.2,1.2,0.5,1.8,0.6c0.6,0.2,1.2,0.2,1.9,0.3c0.4,0.1,0.4,0.5,0.3,0.8
				c-0.4,0.9-0.3,2-0.9,2.9c-0.1,0.7-0.7,4.1-0.8,4.8c-0.5,2.9-1.5,5.6-2,8.6c-0.1,1.2-0.7,4.7-1.1,5.4l-0.5,3.3
				c0,0.1-0.2,0.6-0.2,0.7c-0.1,0.1-0.2,1.2-0.2,1.4c0,0-0.2,0.4-0.2,0.5l-0.1,0.2c-0.1,0.4,0.5,0.4,0.8,0.5l0.3,0.1
				c0.2,0.1,1.9,0.4,2.1,0.4c0.2,0,2.1,0.5,2.3,0.6c0.1,0,0.7,0.1,0.9,0.1l0.8,0.2c0,0.3-0.2,1.1-0.7,1l-0.2,0
				c-0.1,0-1.2-0.4-1.4-0.4c-0.1,0-1-0.2-1.1-0.2l-4.3-1.1c-0.2-0.1-2.3-0.5-2.6-0.5c-0.4-0.1-0.5,0-1-0.1c-0.3-0.1-0.7-0.1-0.8-0.5
				C187.8,60.4,187.9,59.8,188,59.7z"/>
			<path fill="#4D4D4D" d="M206,65.3l-0.4-0.1c0,0-0.3-0.2-0.3-0.2l-1.1-0.3c0,0-0.4-0.2-0.4-0.2l-0.9-0.2c-0.2-0.1-0.2-0.2-0.1-0.3
				c0.4-1.6,1-3.1,1.4-4.7c0.5-1.9,0.9-3.8,1.5-5.7l0.3-1.1l0.1-0.1l0.4-1.3c0-0.1,0.1-1,0.2-1c0.2-0.6,1.1-4.4,1.4-5.5
				c0.6-2.5,1.2-4.9,1.9-7.4l0.4-1.3c0.1-0.4,1-0.2,1.2-0.1l0.6,0.2c0.1,0,1,0.4,1.1,0.4c0.6,0.2,1.3,0.2,1.9,0.6l3,0.8
				c0.4,0.1,0.7,0.4,0.5,0.7c-0.1,0.3-0.6,0.3-0.8,0.2c0,0-0.3-0.2-0.4-0.2l-2.8-0.8L211,50.5c0,0,0.4,0.2,0.6,0.3
				c0,0,0.4,0.2,0.6,0.2c0.2,0,0.6,0.1,0.6,0.1c0.5,0.1,1.1,0.1,1.7,0.2c0.2,0.1,0.4,0.6,0.3,0.8c-0.1,0.3-0.7,0.3-1,0.2
				c0,0-0.2-0.2-0.2-0.2l-2.8-0.8l-0.1,0.1c0,0.2-0.4,1.4-0.5,1.7c-0.1,0.2-0.6,1.9-0.7,2.1l-2,7.2c-0.1,0.2-0.4,1.1-0.5,1.3
				c0,0,0,0.3,0,0.4c0,0-0.1,0.3-0.1,0.4c0.8,0.2,1.6,0.6,2.4,0.9l0.2,0.1c0.1,0,0.3-0.2,0.3-0.1c0.2,0.1,1,0.6,0.9,0.9
				c-0.1,0.4-0.7,0.4-1,0.3l-0.4-0.1c0,0-0.3-0.2-0.3-0.2c-0.7-0.3-1.3-0.5-1.9-0.7C206.8,65.4,206.4,65.4,206,65.3z"/>
			<path fill="#4D4D4D" d="M218.4,56.1c0-0.7,0.2-1.1,0.4-1.8c0.2-0.6,0.3-1,0.6-1.5l2.8-9.1c0.1-0.1,0.3-0.7,0.4-0.8
				c0.2-0.5,0.9-2.9,1.1-3.4l4.4,1.4l0.1,0.1c0,0,0.2,1.4,0.2,2c0.1,0.9,0.2,1.8,0.3,2.7c0,0,0,0.4,0,0.4c0,0.3,0.1,2.5,0.1,2.8
				c0,0-0.1,0.4-0.1,0.5c0,0.1,0.2,1,0.2,1.1c0,1.4,0.2,2.7,0.3,4.1c0,0,0,0.1,0,0.1c0,0.4,0.1,2.4,0.2,2.8l0.1,0.8
				c0,0.1,0,1.2,0,1.3c0,0.6,0.2,3.6,0.4,3.9c1.3-3.1,2.2-6.4,3.3-9.6c0.5-1.6,0.9-3.3,1.8-4.8c0.1-0.5,0.7-2.6,0.8-3.1
				c0-0.1,0.4-1.1,0.5-1.1l0.3-1.1c0-0.1,0-0.3,0-0.3c0,0,0.1-0.1,0.1-0.1l4.3,1.3l0,0.3c-0.1,0.2-0.4,0.9-0.4,1.1
				c-0.1,0.3-0.8,2.7-0.9,3c-0.6,1.7-1.2,3.2-1.7,4.9l-3.5,11.4c-0.1,0.3-0.8,2.4-0.9,2.6c-0.2,0.7-1.3,4-1.5,4.7l-4.6-1.4l1.4-4.7
				c0-0.1,0.1-0.6,0.1-0.8c0.3-1.5-0.3-3-0.4-4.5l0-1.2c0-1.2-0.2-2.3-0.3-3.5c-0.2-3.8-0.5-7.5-0.8-11.3l-0.2-2.4
				c0-0.5,0.1-0.4-0.1-0.8l-0.7,1.6l-0.4,1.2c-0.1,0.2-0.3,0.7-0.4,0.8l-3.6,11.9c-0.4,1.4-2.1,7.1-2.4,8.2
				c-0.1,0.2-0.5,1.9-0.5,2.1l-0.1,0.3c0,0.1-0.1,0.6-0.3,0.6l-4.1-1.3L218.4,56.1z"/>
			<path fill="#4D4D4D" d="M245.6,59.5c0.7-2,1.3-4.1,2-6.1c0.1-0.2,0.8-2.2,0.9-2.4c0.3-1,0.8-1.8,1.1-2.8c0.3-0.1,0.2-0.2,0.2-0.5
				c-0.2-0.1-1.2-0.4-1.5-0.5c-0.5-0.2-1-0.6-1.6-0.8c0,0-0.2,0.1-0.3,0.1c-0.1-0.1-0.2-0.4-0.3-0.4c0-0.1,0.3-0.4,0.1-0.5
				c0.1-0.1,0.4,0.1,0.6,0.1l0.4,0.1c0.1,0,0.4,0.2,0.5,0.2c0.6,0.3,2.6,0.9,2.9,1.3l2.1,0.7c0.1,0,0.8,0.1,0.8,0.2
				c0.1,0,0.2,0.1,0.2,0.2l3,1c0.1,0.1,0.3,0.2,0.3,0.2c0.1,0,0.4,0,0.5,0l0.3,0.1c0.3,0.1,0.4,0.1,0.6,0.3l-0.1,0.3
				c-0.1,0.2-0.3,0.7-0.6,0.6l0,0c0,0-0.1-0.1-0.1-0.2c0,0-0.2,0-0.3,0l-0.7-0.5l-2.4-0.8c-0.1,0.1-0.2,0.2-0.3,0.3
				c0,0.2-0.1,0.9-0.2,1.1c0,0-0.2,0.3-0.3,0.4c-0.5,1-0.9,2.1-1.3,3.3c-0.1,0.4-0.8,2-0.9,2.1c-1.7,4.3-2.9,8.7-4.3,13l-0.2,0.6
				c-0.8,2.3-1.7,4.5-2.4,6.8l-0.1,0.1l-4-1.3c0.6-0.7,0.8-1.8,1-2.6c0.1-0.3,1-2.6,1-2.9L245,61C245.1,60.7,245.5,59.7,245.6,59.5z
				"/>
			<path fill="#4D4D4D" d="M251.6,79.6l0.1-0.3c0-0.2,0.1-0.5,0.3-0.4l1.9,0.5l0.3,0.1c0,0,0.4-1.1,0.6-1.5l0-0.1
				c0.1-0.4,1.3-3.3,1.4-3.8c0.1-0.3,0.8-2.5,0.9-2.9c0.1-0.4,1.2-3.6,1.3-4c0-0.2,0.4-1.2,0.5-1.4l0.2-0.2c0-0.3,0.4-1.5,0.5-1.8
				c0-0.1,0.3-0.6,0.3-0.6c0-0.1,0.4-1.3,0.4-1.4c0.9-2.6,1.9-5.1,2.7-7.8c0-0.1,0.2-0.8,0.3-1c-0.6,0-0.9-0.1-1.4-0.3l-0.7-0.2
				c-0.1-0.1,0-0.4,0-0.4c0.2-0.7,1.8,0.2,2.5,0c0.5,0.2,2.9,1,3.4,1.2c0.6,0.2,1.3,0.2,2,0.4c0.3,0.1,0.6,0.4,0.5,0.8
				c-0.1,0.4-0.5,0.4-0.8,0.3l-0.4-0.1l-0.1-0.2l-0.5,0c-0.1,0-0.3,0-0.3,0c-0.5,0.5-0.7,1.7-1,2.3c0,0.1-0.5,1.2-0.5,1.3
				c-0.2,0.3-0.7,2.1-0.7,2.5c-0.3,0.2-0.2,0.3-0.3,0.5c-0.9,2.7-2,5.3-3,8c-0.9,2.6-1.7,5.2-2.6,7.8c-0.1,0.3-0.7,2-0.8,2.2
				c0,0-0.2,0.6-0.3,0.8c0,0.1-0.2,0.7-0.2,0.8c-0.1,0.2,0.3,0.3,0.3,0.3c0.5,0.2,1,0,1.4,0.1c0.3,0.1,0.5,0.3,0.4,0.7
				c0,0.1-0.1,0.4-0.2,0.4c0,0-0.4,0-0.5,0c-0.2,0-0.6-0.1-0.6-0.1c-0.2,0-2.1-0.7-2.3-0.8L251.6,79.6z"/>
			<path fill="#4D4D4D" d="M268.6,73.5c0.1-0.7,0.3-1.1,0.6-1.7c0.2-0.5,0.4-0.9,0.8-1.4l3.9-8.7c0.1-0.1,0.4-0.7,0.5-0.8
				c0.2-0.4,1.2-2.7,1.5-3.2l4.2,1.9l0.1,0.2c0,0,0,1.4,0,2c0,0.9,0,1.9,0,2.8c0,0,0,0.4-0.1,0.4c0,0.3-0.2,2.5-0.2,2.8
				c0,0-0.1,0.4-0.1,0.5c0,0.1,0.1,1,0.1,1.2c-0.2,1.4-0.2,2.7-0.2,4.1c0,0,0,0.1,0,0.1c0,0.4-0.2,2.4-0.2,2.8l0,0.9
				c-0.1,0.1-0.1,1.2-0.1,1.3c0,0.6-0.2,3.6,0,3.9c1.6-3,3-6.1,4.4-9.2c0.7-1.5,1.3-3.2,2.3-4.6c0.1-0.5,1-2.5,1.2-3
				c0-0.1,0.5-1,0.6-1.1l0.5-1.1c0-0.1,0-0.3,0-0.3c0,0,0.1-0.1,0.1-0.1l4.1,1.8l0,0.3c-0.1,0.2-0.5,0.8-0.6,1
				c-0.1,0.3-1.1,2.6-1.3,2.9c-0.7,1.6-1.6,3.1-2.3,4.7l-4.8,10.9c-0.1,0.2-1.1,2.3-1.2,2.5c-0.3,0.7-1.7,3.8-2,4.5l-4.4-1.9l2-4.5
				c0-0.1,0.1-0.6,0.2-0.7c0.4-1.4,0.1-3,0.1-4.5l0.1-1.2c0.1-1.2,0.1-2.3,0.1-3.6c0.2-3.8,0.4-7.5,0.5-11.3l0.1-2.4
				c0-0.5,0.1-0.4,0-0.9l-0.9,1.5l-0.5,1.1c-0.1,0.2-0.4,0.7-0.5,0.8l-5,11.4c-0.6,1.3-2.9,6.8-3.4,7.8c-0.1,0.2-0.7,1.8-0.7,2
				l-0.1,0.2c0,0.1-0.2,0.6-0.4,0.5l-3.9-1.7L268.6,73.5z"/>
			<path fill="#4D4D4D" d="M289.2,83.4c0.3-0.7,0.7-1.4,1.1-2.2c0.4-0.8,0.8-1.8,1.2-2.6c0-0.1,0.3-0.4,0.3-0.4l0.1-0.2
				c1.4-2.5,2.6-4.8,4.3-7c0.5-0.7,1.2-1.2,1.8-2c1.4-0.9,2.3-1.2,3.9-1.1c0.3,0,1,0.2,1.3,0.2l2.5,1.1c0,0,0.2,0.2,0.3,0.2
				c0.5,0.6,0.9,1.3,0.9,2.1c0,0.6-0.2,1.1-0.3,1.5c-0.3,0.9-0.4,1.8-0.8,2.7l-0.8,1.8c-0.1,0.3-0.6,1.7-0.7,2.1l-5.4,12.8
				c-0.1,0.4-0.7,2-0.9,2.4l-0.1,0.2c-0.4,0.9-0.9,1.7-1.2,2.6c-0.1,0.2-0.4,0.6-0.3,1l-0.8-0.3l0.1-0.2c0.6-1.1,1.2-2.3,1.7-3.5
				c0.8-1.8,1.4-3.7,2.2-5.6c0-0.1,0.1-0.4,0.1-0.4c0-0.1-0.7-0.5-0.8-0.6l-1.1-0.5c-0.9-0.4-1.8-1-2.7-1.4l-0.3-0.1
				c-0.2,0-1.2-0.4-1.4-0.5c-0.3-0.1-0.4-0.2-0.6,0.1l-0.8,1.9c-0.9,2.1-1.6,4.1-2.4,6.2l-0.5,1.2c0,0.1-0.1,0.4-0.1,0.6l-4.3-1.8
				l2.6-6.1C288,86.2,288.5,84.7,289.2,83.4z M296.7,86.1c0,0,0.2,0,0.3,0l2.1,0.9c0.1,0.1,0.8,0.3,1,0.3c0,0,0.2,0,0.3,0l3.7-8.7
				c0.1-0.3,0.9-2.4,1-2.7c0.4-1.1,1.3-4,1-5c-0.1-0.3-0.5-0.6-0.5-1c-0.2,0-0.9-0.3-1-0.4c0,0-0.2-0.2-0.2-0.2c0,0-0.2-0.1-0.3-0.2
				c-0.3-0.1-1.3-0.4-1.6-0.4c-0.6-0.1-1.2-0.3-1.7,0.3c0,0-0.3,0.3-0.3,0.4c-1,1.3-1.7,2.8-2.5,4.3c-1,2.3-2.2,4.5-3.2,6.7
				l-0.6,1.5c-0.2,0.4-0.8,2.1-0.9,2.5l0.4,0.2c0.5,0.2,2.4,1.1,2.8,1.3C296.5,85.9,296.6,86.1,296.7,86.1z"/>
			<path fill="#4D4D4D" d="M314.5,106.1l-0.4-0.2c0,0-0.2-0.2-0.3-0.2l-1.1-0.4c0,0-0.3-0.3-0.4-0.3l-0.9-0.3
				c-0.2-0.1-0.2-0.2-0.1-0.3c0.6-1.5,1.3-3,1.9-4.5c0.7-1.8,1.3-3.7,2-5.5l0.4-1.1l0.1-0.1l0.5-1.3c0-0.1,0.2-0.9,0.3-1
				c0.2-0.5,1.6-4.3,2-5.3c0.9-2.4,1.8-4.8,2.7-7.1l0.5-1.2c0.2-0.4,1-0.1,1.2,0l0.5,0.2c0.1,0,0.9,0.5,1,0.5
				c0.6,0.3,1.3,0.4,1.8,0.8l2.9,1.1c0.4,0.1,0.6,0.4,0.5,0.8c-0.1,0.3-0.6,0.3-0.8,0.2c0,0-0.3-0.2-0.4-0.3l-2.7-1.1l-4.9,12.4
				c0,0,0.4,0.3,0.6,0.4c0,0,0.4,0.2,0.6,0.3c0.2,0.1,0.6,0.2,0.6,0.2c0.5,0.2,1.1,0.2,1.6,0.4c0.2,0.1,0.3,0.7,0.2,0.9
				c-0.1,0.3-0.7,0.2-1,0.1c0,0-0.1-0.2-0.2-0.2l-2.7-1.1l-0.1,0.1c0,0.2-0.5,1.4-0.6,1.6c-0.1,0.2-0.8,1.8-0.9,2l-2.7,7
				c-0.1,0.2-0.5,1-0.6,1.2c0,0,0,0.3,0,0.4c0,0-0.1,0.3-0.1,0.4c0.8,0.3,1.5,0.8,2.3,1.1l0.2,0.1c0.1,0,0.3-0.1,0.3-0.1
				c0.2,0.1,0.9,0.7,0.8,1c-0.2,0.4-0.7,0.3-1,0.2l-0.4-0.2c0,0-0.2-0.2-0.3-0.2c-0.6-0.4-1.2-0.6-1.8-0.9
				C315.3,106.3,314.9,106.3,314.5,106.1z"/>
			<path fill="#4D4D4D" d="M334.7,112.4l0.3-0.9c0.8-2.3,1.5-4.6,2.3-6.9c0.5-1.5,1.4-3,2-4.5c0.9-2.1,1.8-4.4,2.7-6.5
				c0.1-0.2,0.7-1.5,0.8-1.7l1.5-4c0.1-0.3,0.9-1.8,1.1-2.1c0.2-0.2,0.6-0.5,0.7-0.5l4.3,1.6c0,0,0,0.2,0,0.3
				c-0.1,0.2-0.4,0.4-0.5,0.7c-0.5,1.2-0.8,2.4-1.4,3.6c-1.3,2.6-2.6,5.2-3.8,7.9c-0.6,1.4-1.1,2.8-1.8,4.2
				c-0.2,0.4-0.2,0.8-0.5,1.1c-0.8,1.6-1.2,2.8-1.8,4.5l-0.8,2.2c-0.1,0.1-0.2,0.8-0.2,0.9c-0.1,0.2-0.4,0.9-0.4,1.1
				c0.3,0.1,1.7,0.7,1.9,0.7c1.2,0.4,2.5,0.6,3.8,0.8c0.5,0.1,0.8,0,1.3,0.2c0.3,0.1,0.5,0.2,0.7,0.4c0,0.1-0.1,0.4-0.1,0.4l0,0.1
				c-0.1,0.2-0.2,0.5-0.5,0.5c-1.5-0.6-3.2-1-4.7-1.3c0,0-0.5,0-0.5-0.1c0,0-0.2-0.2-0.2-0.2c0,0-0.5,0-0.5-0.1l-0.3-0.1
				c-0.3,0-1-0.1-1.3,0l-0.1,0.1c-0.1,0-0.6-0.1-0.7-0.1l-2.5-0.9c0,0-0.3,0-0.4,0c-0.4-0.1-0.6-0.6-0.5-0.9
				C334.4,112.6,334.5,112.4,334.7,112.4z"/>
			<path fill="#4D4D4D" d="M351.8,111.8c0-0.1,0-0.6,0-0.7c0-0.7,0.4-1.4,0.7-2l0.1-0.2c0.1-0.6,0.2-1.4,0.4-2.1l0.6-1.6
				c0,0,0.1-0.5,0.1-0.5c0.3-1.2,0.8-2.5,1.1-3.7l3.9-10.3l4,1.4c0,0,0,0.3,0,0.4l-0.1,0.4c-0.3,0.8-0.7,1.3-0.9,2.1
				c-0.5,1.6-1.2,3.2-1.6,4.7c-0.7,2.8-1.9,5.6-2.7,8.3c0,0-0.2,0.8-0.3,1c-0.5,2.1-1,4-1.4,6.1c-0.2,1.2-0.4,2-0.5,3.2
				c0,0.1,0.1,1,0.1,1.1l-0.2,0.5l0.4,0.3l0.1,0c0.1,0,0.6,0.3,0.7,0.3c0.1,0,0.6,0.1,0.7,0.2c0.5,0.1,0.9,0.1,1.4,0l0.3,0.1
				c0,0,0.2,0,0.3,0c2.3-0.6,4.1-3.8,4.9-5.9l1.3-3.5c0.1-0.2,0.6-1.3,0.7-1.4c0.2-0.4,0.9-2.3,1-2.8l0.2-0.1
				c0.7-2.9,1.8-5.6,2.7-8.5c0-0.1,0.1-0.5,0.1-0.6c0.3-1.1,0.7-2.4,1.1-3.4c0.1,0,0.6,0.1,0.5,0.3c0,0.8-0.3,1-0.5,1.8
				c0,0.1-0.2,0.7-0.2,0.8c-0.6,2.2-1.3,4.3-2.1,6.5c-0.4,1.2-0.6,2.2-1,3.4l-0.1,0.4c-0.1,0.2-0.9,1.8-0.9,2.1
				c-0.8,2.1-1.9,4.4-2.6,6.5c0,0-0.2,0.2-0.2,0.2l-0.1,0.1c-1.8,3.6-3.9,6-7.8,4.6l-0.3-0.1c-0.6-0.3-1.2-0.5-1.8-0.9l-0.2-0.2
				c-0.1-0.1-0.9-1-1.1-1c-0.1-0.1-0.4-1-0.5-1.3c-0.2-0.4-0.1-1-0.2-1.5c0,0-0.2-0.3-0.2-0.3c0-0.1-0.1-0.8-0.1-0.9
				c0,0,0.1-0.7,0.1-0.9c0,0,0-0.1,0-0.2L351.8,111.8z"/>
			<path fill="#4D4D4D" d="M369.7,115.8c0.1,0,0.2,0,0.3-0.2c0.1-1.7,0.6-3.5,1.1-5.2c1-3.3,2.5-6.5,4.7-9.1
				c0.2-0.2,0.4-0.6,0.6-0.9l0.6-0.5c0,0,0.1-0.1,0-0.1c0.5-0.3,1-0.8,1.5-1.1l0.8-0.3c1.1-0.5,2.6-0.3,3.7,0c0.1,0,0.5,0.2,0.5,0.2
				c0.2,0.1,1.1,0.5,1.2,0.6l1,1.1c0.6,0.7,0.7,1,0.8,1.9c0,0.3,0.1,0.5,0,0.8c0,0.1-0.1,0.3-0.2,0.3c-0.6-0.2-0.2-1.5-0.6-2
				c-0.5-0.6-1-1.4-1.8-1.8c0,0-0.8-0.3-1.2-0.5c-0.2,0-1-0.2-1-0.2c-0.1,0-0.4,0-0.5,0c0,0-0.2-0.1-0.2-0.1c-0.2,0-0.7,0.1-0.7,0.1
				c-0.3,0.2-0.3,0.7-0.4,1c-0.1,0.2-0.7,1.7-0.9,2c0,0-0.3,0.5-0.3,0.6l-0.7,2.3c0,0.1-0.6,1.4-0.6,1.6l-0.4,1.3
				c-1.3,4.3-2.5,8.7-3.8,13c-0.1,1-0.5,1.9-0.6,2.9c0,0.1-0.1,0.5-0.1,0.6c0,0,0,0.3,0,0.4c0,0-0.1,0.3-0.1,0.3
				c0.2,0.4,1.2,0.9,1.6,1c1.8,0.5,4.2,0.7,5.6-0.8c0.8-0.8,1.5-1.6,1.8-2.6l0.1-0.3c0.3,0,0.1-0.5,0.9-0.3c0.1,0.1,0.2,0.3,0.2,0.3
				c0,0,0,0.2-0.1,0.3c0,0.1-0.1,0.3-0.1,0.3c0,0.1-0.2,0.1-0.3,0.2l0,0c-0.6,1.2-2,2.9-3.2,3.5c-0.2,0.1-0.7,0.3-0.8,0.3l-0.7,0.1
				c0,0-0.1,0-0.1,0.1c-0.2,0.1-1.2,0.1-1.4,0c-0.6,0-1.5-0.2-2-0.4c-2-0.6-3.5-2.2-4.1-4.2l-0.1-0.5c-0.1-0.6-0.2-1.4-0.2-2.1
				c0-0.8,0.1-1.5,0.2-2.2c0-0.5,0-1,0.1-1.6L369.7,115.8z"/>
			<path fill="#4D4D4D" d="M387.3,119.3c0.2-0.8,0.5-1.5,0.8-2.3c0.3-0.9,0.5-1.8,0.8-2.7c0-0.1,0.2-0.5,0.2-0.5l0.1-0.2
				c1-2.6,1.9-5.1,3.2-7.6c0.4-0.8,1-1.4,1.5-2.2c1.2-1.1,2.1-1.5,3.7-1.6c0.3,0,1,0.1,1.3,0l2.6,0.7c0,0,0.2,0.1,0.3,0.2
				c0.6,0.5,1.1,1.1,1.2,1.9c0.1,0.6,0,1.1-0.1,1.6c-0.1,1-0.2,1.9-0.4,2.8l-0.5,1.9c-0.1,0.3-0.4,1.8-0.4,2.1l-3.5,13.4
				c-0.1,0.4-0.4,2.1-0.5,2.5l-0.1,0.3c-0.3,1-0.6,1.8-0.9,2.8c-0.1,0.3-0.3,0.7-0.1,1l-0.9-0.2l0.1-0.2c0.5-1.2,0.9-2.5,1.2-3.7
				c0.5-1.9,0.9-3.9,1.4-5.8c0-0.1,0-0.4,0-0.4c0-0.1-0.8-0.4-0.9-0.5l-1.1-0.3c-1-0.3-1.9-0.8-2.9-1l-0.3-0.1
				c-0.2,0-1.3-0.2-1.4-0.3c-0.3-0.1-0.4-0.1-0.6,0.2l-0.5,2c-0.6,2.2-1,4.3-1.5,6.5l-0.3,1.3c0,0.1-0.1,0.4,0,0.6l-4.5-1.2l1.7-6.4
				C386.5,122.2,386.8,120.7,387.3,119.3z M395.1,120.9c0,0,0.2,0,0.3-0.1l2.2,0.6c0.1,0,0.8,0.1,1,0.1c0,0,0.2,0,0.2-0.1l2.4-9.1
				c0.1-0.3,0.5-2.5,0.6-2.8c0.3-1.2,0.8-4.1,0.3-5.1c-0.1-0.3-0.5-0.5-0.7-0.9c-0.2,0-0.9-0.2-1-0.3c0,0-0.2-0.1-0.2-0.1
				c0,0-0.2-0.1-0.3-0.1c-0.3-0.1-1.3-0.2-1.7-0.2c-0.6,0-1.2-0.1-1.6,0.5c0,0-0.2,0.4-0.2,0.4c-0.8,1.4-1.3,3.1-1.8,4.6
				c-0.7,2.4-1.5,4.8-2.2,7.1l-0.4,1.6c-0.1,0.4-0.5,2.2-0.6,2.6l0.4,0.1c0.5,0.1,2.5,0.7,3,0.9
				C394.9,120.7,395.1,120.9,395.1,120.9z"/>
		</g>
		<g>
			<path fill="#4D4D4D" d="M421.6,137.8c-1.7-6.3-3.2-12.7-2.8-19.3c0.1-1.6,0.5-3.1,1.1-4.6c1-2.8,5.9-7.2,9-3.5
				c2.2,2.7,1.6,8,0.9,11.2c-0.2,0.8,1.1,1.4,1.5,0.6c1.5-2.4,3.3-4.3,5.9-5.6c4.2-2.1,6.5,0.8,4.7,4.8
				c-3.7,8.4-14.8,12.1-22.5,15.7c-1,0.5-0.4,2.1,0.6,1.6c7.7-3.6,25.9-10.2,24.4-21.6c-0.3-2.5-3.1-3.1-5.2-2.9
				c-4,0.3-7.4,3.7-9.3,6.9c0.5,0.2,1,0.4,1.5,0.6c1.6-7.2-0.9-19-10.2-12.5c-8.2,5.7-3.3,21.6-1.2,29.1
				C420.3,139.5,421.9,138.8,421.6,137.8L421.6,137.8z"/>
		</g>
		<g>
			<path fill="#4D4D4D" d="M139.2,54.5c-8.4-1.1-18.5-2.3-24.9-8.2c-3.4-3.1-4.9-11.1,1.3-11.5c3.7-0.2,7.9,1.8,10.8,4
				c0.5,0.3,1.1-0.3,0.8-0.8c-2.4-3.3-3.8-7.1-2.9-11.2c1.5-7,8,0.3,9.6,3.1c4.4,7.7,3.8,17.8,4.2,26.3c0,0.8,1.2,0.8,1.2,0
				c-0.5-10.4,0.5-26.4-9.7-33c-2.6-1.7-5.1-0.1-6.1,2.4c-1.8,4.3,0.2,9.5,2.8,12.9c0.3-0.3,0.5-0.5,0.8-0.8
				c-3.2-2.4-8.1-4.7-12.2-4.1c-4.8,0.7-5.4,5.7-4,9.7c1.7,4.7,7,7.2,11.4,8.8c5.4,2,11.3,2.9,17,3.6C140,55.8,140,54.6,139.2,54.5
				L139.2,54.5z"/>
		</g>
	</g>
	<path fill="#FFFFFF" d="M140.1,157.6c-1.9,1.6-4.6,2.1-7.9,1.7c-4.4-0.6-9.7-3.1-15.7-5.9c-10.6-5-23.9-11.3-41.4-11.9
		c-18.3-0.6-36.1,5.4-47.4,15.8c2.4-8.7,7.3-22.1,17.4-31.5l2-1.8l-2.5-1.1c-12.7-5.7-25.2-8.8-37.3-9.2c8.4-8.2,30.1-19,63.1-20.2
		l-1.9,16c-0.1,3.6,0.5,6.6,1.8,9C76,128.8,85,128.7,97,128.2c2.8-0.1,5.7-0.2,8.8-0.2c7.2,0,13.4,0.7,19.6,2.3
		c17.7,4.6,17.9,19.7,17.9,21.2C143.1,152.6,142.4,155.7,140.1,157.6z"/>
</g>
</svg>
