<?xml version="1.0" encoding="utf-8"?>
<!-- Generator: Adobe Illustrator 19.1.0, SVG Export Plug-In . SVG Version: 6.00 Build 0)  -->
<svg version="1.1" id="Livello_1" xmlns="http://www.w3.org/2000/svg" xmlns:xlink="http://www.w3.org/1999/xlink" x="0px" y="0px"
	 viewBox="0 0 841 822" enable-background="new 0 0 841 822" xml:space="preserve">
<g>
	<g>
		<path fill="#CCCCCC" d="M19.1,678.4h-2.6l0.2-0.8h13.7l-0.2,0.8h-2.7L20,705.5h2.7l-0.2,0.8H8.9l0.2-0.8h2.5L19.1,678.4z"/>
		<path fill="#CCCCCC" d="M45.3,688.8H43l0.3-0.8H46c1.6,0,5,0,7.4-1l-1.6,5.9l0.1,0c1.5-3,4.1-5.9,7.8-5.9c2.4,0,4.1,1,4.1,3.6
			c0,0.8-0.1,1.5-0.1,2.1h0.1c1.8-3.4,4.7-5.7,8.3-5.7c2.3,0,4.2,1.4,4.2,3.8c0,0.8-0.2,1.6-0.4,2.3c-0.5,1.5-3.1,9.1-3.1,10.1
			s0.3,1.2,0.9,1.2c0.9,0,2.3-2.1,2.6-2.9l0.6,0.4c-1.3,3-3.7,4.9-7,4.9c-2.4,0-4.1-1.5-4.1-4.3c0-2.9,3.5-10.4,3.5-12.2
			c0-0.6-0.2-1-0.9-1c-1.7,0-4.8,4.4-5.9,8.2l-2.5,8.7h-7.4l4-14.6c0.2-0.6,0.2-1.2,0.2-1.4c0-0.4-0.2-0.8-0.7-0.8
			c-1.4,0-4.5,4.6-5.5,8.3l-2.4,8.6h-7.7L45.3,688.8z"/>
		<path fill="#CCCCCC" d="M82.3,688h2.8c1.6,0,5,0,7.4-1L88,702.9c-0.1,0.3-0.2,0.7-0.2,1c0,0.5,0.2,0.8,0.6,0.8
			c0.7,0,1.7-0.9,2.8-2.7l0.7,0.4c-1.4,2.7-3.7,4.5-6.8,4.5c-2.2,0-4.4-0.9-4.4-3.8c0-0.9,0.4-2.6,1-4.9l2.6-9.4h-2.5L82.3,688z
			 M90,677.7c2,0,3.7,1.6,3.7,3.7S92.1,685,90,685s-3.7-1.6-3.7-3.7S88,677.7,90,677.7z"/>
		<path fill="#CCCCCC" d="M101.9,702.4c1.9,0,4.3-0.1,6.2-0.1c2.9,0,6.9,0.1,6.9,4.3c0,4.1-4.6,9.8-13.2,9.8c-3.9,0-9.3-0.7-9.3-4.3
			c0-2.3,3-3.5,4.9-3.5v-0.1c-1.5-0.6-3-1.9-3-3.9c0-3.1,2.8-5.6,6-6v-0.1c-1.5-1-2.6-2.4-2.6-4.4c0-5,5.3-7.3,9.6-7.3
			c2.3,0,4.6,0.5,6.5,1.7c0.7-1.5,2.2-2.7,3.9-2.7c1.5,0,2.7,0.9,2.7,2.6c0,1.3-1,2.1-2.1,2.1c-1.2,0-2.2-0.8-2.2-1.9
			c0-0.8,0.3-1.5,0.9-1.9l-0.1-0.1c-1.2,0.2-2.1,1.3-2.4,2.5c1,1.1,1.7,2.6,1.7,4.1c0,5.4-5.9,6.6-9.8,6.6c-1.5,0-2.5-0.2-3.3-0.3
			c-0.8-0.2-1.3-0.3-2-0.3c-2,0-2.8,0.8-2.8,1.6C98.5,702.1,99.6,702.4,101.9,702.4z M99.9,709c-2.8,0-4.2,0.9-4.2,2.8
			c0,2.1,2.8,3.5,6.6,3.5c4.6,0,9.3-2.5,9.3-4.8c0-1-0.7-1.5-1.8-1.5H99.9z M105.9,699.2c1,0,1.7-0.3,2.4-2.6
			c1.6-5.5,1.8-6.5,1.8-7.3c0-1-0.8-1.5-1.5-1.5c-0.9,0-1.7,0.3-2.4,2.7c-1.6,5.5-1.8,6.4-1.8,7.3
			C104.3,698.7,105.1,699.2,105.9,699.2z"/>
		<path fill="#CCCCCC" d="M125.5,677.7h3.5c1.7,0,5.4-0.3,7-1.3l-7.3,26.5c-0.1,0.3-0.2,0.7-0.2,1c0,0.5,0.2,0.8,0.6,0.8
			c0.4,0,1.5-0.8,3-2.9l0.6,0.6c-1.8,2.7-4.4,4.5-7.2,4.5c-2.4,0-4.1-1.1-4.1-3.5c0-0.8,0.2-1.9,0.7-3.9l5.8-21h-2.8L125.5,677.7z"
			/>
		<path fill="#CCCCCC" d="M138.7,688h2.8c1.6,0,5,0,7.4-1l-4.5,15.9c-0.1,0.3-0.2,0.7-0.2,1c0,0.5,0.2,0.8,0.6,0.8
			c0.7,0,1.7-0.9,2.8-2.7l0.7,0.4c-1.4,2.7-3.7,4.5-6.8,4.5c-2.2,0-4.4-0.9-4.4-3.8c0-0.9,0.4-2.6,1-4.9l2.6-9.4h-2.5L138.7,688z
			 M146.5,677.7c2,0,3.7,1.6,3.7,3.7s-1.6,3.7-3.7,3.7s-3.7-1.6-3.7-3.7S144.5,677.7,146.5,677.7z"/>
		<path fill="#CCCCCC" d="M161.6,706.9c-5.4,0-9.4-3-9.4-8.8c0-4.5,3.3-11.1,12.3-11.1c5.6,0,9.6,3,9.6,8.8
			C174.1,699.7,171.3,706.9,161.6,706.9z M164.4,701.9l1.4-4.8c1.6-5.3,1.7-6.5,1.7-7.3c0-1.1-0.4-2.2-2.3-2.2
			c-2.1,0-3.2,2.6-4.6,8.1c-1.5,5.8-1.8,6.8-1.8,8c0,1.2,0.3,2.4,2.1,2.4C162.4,706.1,163.4,705.1,164.4,701.9z"/>
		<path fill="#CCCCCC" d="M180.8,688.8h-2.3l0.3-0.8h2.7c1.6,0,5,0,7.4-1l-1.1,4.1h0.1c1-1.5,3-4.1,5.4-4.1c2.2,0,3.4,1.5,3.4,3.5
			c0,2.4-1.6,3.8-3.6,3.8c-2.1,0-3.2-1.5-3.2-3.3c0-0.5,0.1-0.9,0.3-1.3l-0.1-0.1c-1.9,2.1-2.9,4.1-3.6,6.5l-2.8,10.2H176
			L180.8,688.8z"/>
		<path fill="#CCCCCC" d="M199.7,688h2.8c1.6,0,5,0,7.4-1l-4.5,15.9c-0.1,0.3-0.2,0.7-0.2,1c0,0.5,0.2,0.8,0.6,0.8
			c0.7,0,1.7-0.9,2.8-2.7l0.7,0.4c-1.4,2.7-3.7,4.5-6.8,4.5c-2.2,0-4.4-0.9-4.4-3.8c0-0.9,0.4-2.6,1-4.9l2.6-9.4h-2.5L199.7,688z
			 M207.5,677.7c2,0,3.7,1.6,3.7,3.7s-1.6,3.7-3.7,3.7s-3.7-1.6-3.7-3.7S205.4,677.7,207.5,677.7z"/>
		<path fill="#CCCCCC" d="M229.3,688.8h-2.3l0.3-0.8h2.7c1.6,0,5,0,7.4-1l-1.1,4.1h0.1c1-1.5,3-4.1,5.4-4.1c2.2,0,3.4,1.5,3.4,3.5
			c0,2.4-1.6,3.8-3.6,3.8c-2.1,0-3.2-1.5-3.2-3.3c0-0.5,0.1-0.9,0.3-1.3l-0.1-0.1c-1.9,2.1-2.9,4.1-3.6,6.5l-2.8,10.2h-7.7
			L229.3,688.8z"/>
		<path fill="#CCCCCC" d="M264.3,702.8c-2.4,2.4-5.8,4.1-9.2,4.1c-5,0-9.1-2.3-9.1-7.8c0-7.3,6.3-12,13.2-12c3.3,0,7.5,1.4,7.5,5.3
			c0,4.6-4.9,6.2-8.8,6.2c-1.8,0-3.2-0.1-3.9-0.2l-0.5,1.7c-0.3,1.1-0.4,2.2-0.4,3c0,2,1.4,2.9,3.1,2.9c2.5,0,5.8-1.9,7.6-3.6
			L264.3,702.8z M254.2,697.5c0.5,0.1,1.1,0.1,1.7,0.1c1.2,0,2.1-0.8,2.7-2c0.5-1,1.7-4.8,1.7-5.9c0-1.2-0.5-2-1.7-2
			c-1.2,0-2,1.1-2.3,2.5L254.2,697.5z"/>
		<path fill="#CCCCCC" d="M274.8,702.4c1.9,0,4.3-0.1,6.2-0.1c2.9,0,6.9,0.1,6.9,4.3c0,4.1-4.6,9.8-13.2,9.8c-3.9,0-9.3-0.7-9.3-4.3
			c0-2.3,3-3.5,4.9-3.5v-0.1c-1.5-0.6-3-1.9-3-3.9c0-3.1,2.8-5.6,6-6v-0.1c-1.5-1-2.6-2.4-2.6-4.4c0-5,5.3-7.3,9.6-7.3
			c2.3,0,4.6,0.5,6.5,1.7c0.7-1.5,2.2-2.7,3.9-2.7c1.5,0,2.7,0.9,2.7,2.6c0,1.3-1,2.1-2.1,2.1c-1.2,0-2.2-0.8-2.2-1.9
			c0-0.8,0.3-1.5,0.9-1.9l-0.1-0.1c-1.2,0.2-2.1,1.3-2.4,2.5c1,1.1,1.7,2.6,1.7,4.1c0,5.4-5.9,6.6-9.8,6.6c-1.5,0-2.5-0.2-3.3-0.3
			c-0.8-0.2-1.3-0.3-2-0.3c-2,0-2.8,0.8-2.8,1.6C271.4,702.1,272.5,702.4,274.8,702.4z M272.8,709c-2.8,0-4.2,0.9-4.2,2.8
			c0,2.1,2.8,3.5,6.6,3.5c4.6,0,9.3-2.5,9.3-4.8c0-1-0.7-1.5-1.8-1.5H272.8z M278.7,699.2c1,0,1.7-0.3,2.4-2.6
			c1.6-5.5,1.8-6.5,1.8-7.3c0-1-0.8-1.5-1.5-1.5c-0.9,0-1.7,0.3-2.4,2.7c-1.6,5.5-1.8,6.4-1.8,7.3
			C277.2,698.7,277.9,699.2,278.7,699.2z"/>
		<path fill="#CCCCCC" d="M309.6,688.1h7.6l-4,14.2c-0.2,0.7-0.3,1-0.3,1.5c0,0.6,0.4,0.8,0.7,0.8c0.6,0,1-0.4,2.8-2.7l0.6,0.4
			c-2.1,2.8-3.5,4.5-7.2,4.5c-2.3,0-3.7-0.9-4.3-3.3h-0.1c-1.1,2-3,3.3-5.6,3.3c-4.6,0-6.7-3.6-6.7-8.1c0-5.9,4.7-11.8,10.7-11.8
			c2.3,0,4.3,1.2,4.8,3.7h0.1L309.6,688.1z M303.3,691.6c-1.5,4.5-3.2,10.5-3.2,12.2c0,1.4,0.9,1.7,1.7,1.7c1.4,0,2.8-1.3,3.3-2.7
			c1.3-3,2.9-9.2,2.9-11.1c0-2.1-0.9-3.3-2.1-3.3C304.6,688.5,303.9,689.6,303.3,691.6z"/>
		<path fill="#CCCCCC" d="M325.5,677.7h3.5c1.7,0,5.4-0.3,7-1.3l-7.3,26.5c-0.1,0.3-0.2,0.7-0.2,1c0,0.5,0.2,0.8,0.6,0.8
			c0.4,0,1.5-0.8,3-2.9l0.6,0.6c-1.8,2.7-4.4,4.5-7.2,4.5c-2.4,0-4.1-1.1-4.1-3.5c0-0.8,0.2-1.9,0.7-3.9l5.8-21h-2.8L325.5,677.7z"
			/>
		<path fill="#CCCCCC" d="M338.7,688h2.8c1.6,0,5,0,7.4-1l-4.5,15.9c-0.1,0.3-0.2,0.7-0.2,1c0,0.5,0.2,0.8,0.6,0.8
			c0.7,0,1.7-0.9,2.8-2.7l0.7,0.4c-1.4,2.7-3.7,4.5-6.8,4.5c-2.2,0-4.4-0.9-4.4-3.8c0-0.9,0.4-2.6,1-4.9l2.6-9.4h-2.5L338.7,688z
			 M346.5,677.7c2,0,3.7,1.6,3.7,3.7s-1.6,3.7-3.7,3.7s-3.7-1.6-3.7-3.7S344.4,677.7,346.5,677.7z"/>
		<path fill="#CCCCCC" d="M366.1,699.2c1.7,0,2.8,1.2,2.8,2.7s-1.1,2.7-2.5,2.7c-0.3,0-0.5,0-0.8-0.1l-0.1,0.1
			c0.7,0.8,2.6,1.5,4.7,1.5s3.9-0.8,3.9-2.3c0-3.1-7.8-5.1-7.8-10.2c0-3.6,3.2-6.8,9.5-6.6c4.5,0.1,6.8,1.6,6.8,4.4
			c0,1.7-1.1,2.6-2.8,2.6c-1.5,0-2.6-1-2.6-2.7c0-1.3,1-2.4,2.2-2.4c0.3,0,0.5,0,0.7,0v-0.1c-1-0.8-2-1.1-3.1-1.1
			c-2.4,0-3.8,1.4-3.8,3.2c0,3.9,7.6,4.6,7.6,9.6c0,4.3-4.4,6.3-9.5,6.3c-5.2,0-7.9-2.2-7.9-4.8
			C363.3,700.4,364.6,699.2,366.1,699.2z"/>
		<path fill="#CCCCCC" d="M394.3,706.9c-5.4,0-9.4-3-9.4-8.8c0-4.5,3.3-11.1,12.3-11.1c5.6,0,9.6,3,9.6,8.8
			C406.9,699.7,404,706.9,394.3,706.9z M397.1,701.9l1.4-4.8c1.6-5.3,1.7-6.5,1.7-7.3c0-1.1-0.4-2.2-2.3-2.2c-2.1,0-3.2,2.6-4.6,8.1
			c-1.5,5.8-1.8,6.8-1.8,8c0,1.2,0.3,2.4,2.1,2.4C395.1,706.1,396.2,705.1,397.1,701.9z"/>
		<path fill="#CCCCCC" d="M413.5,688.8h-2.3l0.3-0.8h2.7c1.6,0,5,0,7.4-1l-1.6,6.5h0.1c1.6-3,4.8-6.5,8.5-6.5c2.3,0,4.5,1.3,4.5,3.9
			c0,3.3-3.6,10.9-3.6,12.8c0,0.8,0.2,1,0.7,1c1.1,0,2.6-2,3-2.9l0.7,0.4c-1.3,2.8-3.8,4.7-7.1,4.7c-2.5,0-4.3-1.3-4.3-4.2
			c0-2.1,3.6-11.2,3.6-12.3c0-0.7-0.4-1-0.9-1c-1.6,0-5.5,5.2-6.8,9.8l-1.9,7.1h-7.7L413.5,688.8z"/>
		<path fill="#CCCCCC" d="M446.3,706.9c-5.4,0-9.4-3-9.4-8.8c0-4.5,3.3-11.1,12.3-11.1c5.6,0,9.6,3,9.6,8.8
			C458.8,699.7,455.9,706.9,446.3,706.9z M449,701.9l1.4-4.8c1.6-5.3,1.7-6.5,1.7-7.3c0-1.1-0.4-2.2-2.3-2.2c-2.1,0-3.2,2.6-4.6,8.1
			c-1.5,5.8-1.8,6.8-1.8,8c0,1.2,0.3,2.4,2.1,2.4C447.1,706.1,448.1,705.1,449,701.9z"/>
		<path fill="#CCCCCC" d="M479.1,677.7h3.5c1.7,0,5.4-0.3,7-1.3l-7.3,26.5c-0.1,0.3-0.2,0.7-0.2,1c0,0.5,0.2,0.8,0.6,0.8
			c0.4,0,1.5-0.8,3-2.9l0.6,0.6c-1.8,2.7-4.4,4.5-7.2,4.5c-2.4,0-4.1-1.1-4.1-3.5c0-0.8,0.2-1.9,0.7-3.9l5.8-21h-2.8L479.1,677.7z"
			/>
		<path fill="#CCCCCC" d="M508.3,702.8c-2.4,2.4-5.8,4.1-9.2,4.1c-5,0-9.1-2.3-9.1-7.8c0-7.3,6.3-12,13.2-12c3.3,0,7.5,1.4,7.5,5.3
			c0,4.6-4.9,6.2-8.8,6.2c-1.8,0-3.2-0.1-3.9-0.2l-0.5,1.7c-0.3,1.1-0.4,2.2-0.4,3c0,2,1.4,2.9,3.1,2.9c2.5,0,5.8-1.9,7.6-3.6
			L508.3,702.8z M498.2,697.5c0.5,0.1,1.1,0.1,1.7,0.1c1.2,0,2.1-0.8,2.7-2c0.5-1,1.7-4.8,1.7-5.9c0-1.2-0.5-2-1.7-2s-2,1.1-2.3,2.5
			L498.2,697.5z"/>
		<path fill="#CCCCCC" d="M543.3,702.8c-2.4,2.4-5.8,4.1-9.2,4.1c-5,0-9.1-2.3-9.1-7.8c0-7.3,6.3-12,13.2-12c3.3,0,7.5,1.4,7.5,5.3
			c0,4.6-4.9,6.2-8.8,6.2c-1.8,0-3.2-0.1-3.9-0.2l-0.5,1.7c-0.3,1.1-0.4,2.2-0.4,3c0,2,1.4,2.9,3.1,2.9c2.5,0,5.8-1.9,7.6-3.6
			L543.3,702.8z M533.2,697.5c0.5,0.1,1.1,0.1,1.7,0.1c1.2,0,2.1-0.8,2.7-2c0.5-1,1.7-4.8,1.7-5.9c0-1.2-0.5-2-1.7-2s-2,1.1-2.3,2.5
			L533.2,697.5z"/>
		<path fill="#CCCCCC" d="M549.1,699.2c1.7,0,2.8,1.2,2.8,2.7s-1.1,2.7-2.5,2.7c-0.3,0-0.5,0-0.8-0.1l-0.1,0.1
			c0.7,0.8,2.6,1.5,4.7,1.5s3.9-0.8,3.9-2.3c0-3.1-7.8-5.1-7.8-10.2c0-3.6,3.2-6.8,9.5-6.6c4.5,0.1,6.8,1.6,6.8,4.4
			c0,1.7-1.1,2.6-2.8,2.6c-1.5,0-2.6-1-2.6-2.7c0-1.3,1-2.4,2.2-2.4c0.3,0,0.5,0,0.7,0v-0.1c-1-0.8-2-1.1-3.1-1.1
			c-2.4,0-3.8,1.4-3.8,3.2c0,3.9,7.6,4.6,7.6,9.6c0,4.3-4.4,6.3-9.5,6.3c-5.2,0-7.9-2.2-7.9-4.8
			C546.3,700.4,547.6,699.2,549.1,699.2z"/>
		<path fill="#CCCCCC" d="M572.2,688.8h-2.5l0.3-0.8h2.8c1.6,0,5,0,7.4-1l-1.1,3.9h0.1c1.5-2.3,3.4-3.9,6.5-3.9
			c4.2,0,6.4,3.3,6.4,7.2c0,5.9-4.7,12.4-11.2,12.4c-2.6,0-4.3-1.2-5-3.3h-0.1l-3.3,11.8h2.5l-0.3,0.8h-12.4l0.3-0.8h2.4
			L572.2,688.8z M579.3,705.1c1.9,0,2.6-2.8,3-4.2c1.4-5,2.8-9.6,2.8-10.9c0-1-0.6-1.6-1.6-1.6c-1.3,0-2.9,1.7-3.9,3.5
			c-1.2,2.2-3,8.1-3,10.2C576.6,703.4,577.3,705.1,579.3,705.1z"/>
		<path fill="#CCCCCC" d="M613.4,702.8c-2.4,2.4-5.8,4.1-9.2,4.1c-5,0-9.1-2.3-9.1-7.8c0-7.3,6.3-12,13.2-12c3.3,0,7.5,1.4,7.5,5.3
			c0,4.6-4.9,6.2-8.8,6.2c-1.8,0-3.2-0.1-3.9-0.2l-0.5,1.7c-0.3,1.1-0.4,2.2-0.4,3c0,2,1.4,2.9,3.1,2.9c2.5,0,5.8-1.9,7.6-3.6
			L613.4,702.8z M603.3,697.5c0.5,0.1,1.1,0.1,1.7,0.1c1.2,0,2.1-0.8,2.7-2c0.5-1,1.7-4.8,1.7-5.9c0-1.2-0.5-2-1.7-2s-2,1.1-2.3,2.5
			L603.3,697.5z"/>
		<path fill="#CCCCCC" d="M621.4,688.8h-2.3l0.3-0.8h2.7c1.6,0,5,0,7.4-1l-1.1,4.1h0.1c1-1.5,3-4.1,5.4-4.1c2.2,0,3.4,1.5,3.4,3.5
			c0,2.4-1.6,3.8-3.6,3.8c-2.1,0-3.2-1.5-3.2-3.3c0-0.5,0.1-0.9,0.3-1.3l-0.1-0.1c-1.9,2.1-2.9,4.1-3.6,6.5l-2.8,10.2h-7.7
			L621.4,688.8z"/>
		<path fill="#CCCCCC" d="M640.4,688h2.8c1.6,0,5,0,7.4-1l-4.5,15.9c-0.1,0.3-0.2,0.7-0.2,1c0,0.5,0.2,0.8,0.6,0.8
			c0.7,0,1.7-0.9,2.8-2.7l0.7,0.4c-1.4,2.7-3.7,4.5-6.8,4.5c-2.2,0-4.4-0.9-4.4-3.8c0-0.9,0.4-2.6,1-4.9l2.6-9.4H640L640.4,688z
			 M648.1,677.7c2,0,3.7,1.6,3.7,3.7s-1.6,3.7-3.7,3.7s-3.7-1.6-3.7-3.7S646.1,677.7,648.1,677.7z"/>
		<path fill="#CCCCCC" d="M672.2,702.8c-2.4,2.4-5.8,4.1-9.2,4.1c-5,0-9.1-2.3-9.1-7.8c0-7.3,6.3-12,13.2-12c3.3,0,7.5,1.4,7.5,5.3
			c0,4.6-4.9,6.2-8.8,6.2c-1.8,0-3.2-0.1-3.9-0.2l-0.5,1.7c-0.3,1.1-0.4,2.2-0.4,3c0,2,1.4,2.9,3.1,2.9c2.5,0,5.8-1.9,7.6-3.6
			L672.2,702.8z M662.1,697.5c0.5,0.1,1.1,0.1,1.7,0.1c1.2,0,2.1-0.8,2.7-2c0.5-1,1.7-4.8,1.7-5.9c0-1.2-0.5-2-1.7-2s-2,1.1-2.3,2.5
			L662.1,697.5z"/>
		<path fill="#CCCCCC" d="M680.2,688.8h-2.3l0.3-0.8h2.7c1.6,0,5,0,7.4-1l-1.6,6.5h0.1c1.6-3,4.8-6.5,8.5-6.5c2.3,0,4.5,1.3,4.5,3.9
			c0,3.3-3.6,10.9-3.6,12.8c0,0.8,0.2,1,0.7,1c1.1,0,2.6-2,3-2.9l0.7,0.4c-1.3,2.8-3.8,4.7-7.1,4.7c-2.5,0-4.3-1.3-4.3-4.2
			c0-2.1,3.6-11.2,3.6-12.3c0-0.7-0.4-1-0.9-1c-1.6,0-5.5,5.2-6.8,9.8l-1.9,7.1h-7.7L680.2,688.8z"/>
		<path fill="#CCCCCC" d="M707.7,687c3.4,0.9,11.8,2,14.1,2c1.1,0,2.2-0.3,3.4-2l0.6,0.4c-4.2,6.5-12.3,8.6-18,13.5l0.1,0.1
			c1.9-0.7,3.9-1.4,6.1-1.4c4.2,0,6,2.2,8.2,2.2c1.1,0,1.8-0.6,1.8-1.5v-0.4h-0.1c-0.2,0.3-1,0.5-1.5,0.5c-1.1,0-2-0.7-2-2
			c0-1.2,0.8-2,2-2c1.7,0,2.4,1.7,2.4,2.9c0,4.1-3.5,7.7-8.1,7.7c-5.2,0-9-2.8-11.6-2.8c-0.7,0-1.2,0.4-1.2,0.8
			c0,0.2,0.2,0.6,0.2,0.9c0,0.4-0.4,0.9-0.9,0.9c-0.6,0-0.8-0.5-0.8-1c0-0.9,2.4-3,3-3.6c4.4-4.2,10.5-7,15.8-10.5l-0.1-0.1
			c-3.3,1.3-6.8,2.5-10.3,2.5c-1.5,0-2.9-0.1-4.4-0.3l-0.8,2.4h-0.8L707.7,687z"/>
		<path fill="#CCCCCC" d="M746.7,702.8c-2.4,2.4-5.8,4.1-9.2,4.1c-5,0-9.1-2.3-9.1-7.8c0-7.3,6.3-12,13.2-12c3.3,0,7.5,1.4,7.5,5.3
			c0,4.6-4.9,6.2-8.8,6.2c-1.8,0-3.2-0.1-3.9-0.2l-0.5,1.7c-0.3,1.1-0.4,2.2-0.4,3c0,2,1.4,2.9,3.1,2.9c2.5,0,5.8-1.9,7.6-3.6
			L746.7,702.8z M736.7,697.5c0.5,0.1,1.1,0.1,1.7,0.1c1.2,0,2.1-0.8,2.7-2c0.5-1,1.7-4.8,1.7-5.9c0-1.2-0.5-2-1.7-2s-2,1.1-2.3,2.5
			L736.7,697.5z"/>
		<path fill="#CCCCCC" d="M782.2,701.9c-1.9,3.1-5.1,4.9-8.9,4.9c-5.7,0-9.7-3-9.7-8.8c0-4,2.8-11.1,12.4-11.1c4.4,0,7.5,2,7.5,4.8
			c0,1.6-1.4,3.2-3.4,3.2c-1.9,0-3.4-1.3-3.4-3.3c0-1.7,1.3-3.1,3-3.3v-0.1c-0.5-0.2-1.3-0.3-2.1-0.3c-2.8,0-3.9,2.2-4.8,5.5
			c-2.2,7.9-2.4,8.3-2.4,9.6c0,1.6,1.2,2.8,3.9,2.8c3.1,0,5.6-2,7.3-4.3L782.2,701.9z"/>
		<path fill="#CCCCCC" d="M810.1,702.1c-1.3,2.8-3.8,4.7-7.1,4.7c-2.5,0-4.3-1.3-4.3-4.2c0-2.1,3.6-11.2,3.6-12.3c0-0.7-0.4-1-0.9-1
			c-1.6,0-5.5,5.2-6.8,9.8l-1.9,7.1H785l7.5-27.9h-2.6l0.3-0.8h3.4c1.8,0,5.5-0.3,7-1.3l-4.3,16.5h0.1c1.5-2.6,4.7-5.9,8.4-5.9
			c2.3,0,4.5,1.3,4.5,3.9c0,3.3-3.6,10.9-3.6,12.8c0,0.8,0.2,1,0.7,1c1.1,0,2.6-2,3-2.9L810.1,702.1z"/>
		<path fill="#CCCCCC" d="M831.5,702.8c-2.4,2.4-5.8,4.1-9.2,4.1c-5,0-9.1-2.3-9.1-7.8c0-7.3,6.3-12,13.2-12c3.3,0,7.5,1.4,7.5,5.3
			c0,4.6-4.9,6.2-8.8,6.2c-1.8,0-3.2-0.1-3.9-0.2l-0.5,1.7c-0.3,1.1-0.4,2.2-0.4,3c0,2,1.4,2.9,3.1,2.9c2.5,0,5.8-1.9,7.6-3.6
			L831.5,702.8z M821.4,697.5c0.5,0.1,1.1,0.1,1.7,0.1c1.2,0,2.1-0.8,2.7-2c0.5-1,1.7-4.8,1.7-5.9c0-1.2-0.5-2-1.7-2s-2,1.1-2.3,2.5
			L821.4,697.5z"/>
		<path fill="#CCCCCC" d="M17,737.6h-2.5l0.3-0.8h2.8c1.6,0,5,0,7.4-1l-1.1,3.9H24c1.5-2.3,3.4-3.9,6.5-3.9c4.2,0,6.4,3.3,6.4,7.2
			c0,5.9-4.7,12.4-11.2,12.4c-2.6,0-4.3-1.2-5-3.3h-0.1l-3.3,11.8h2.5l-0.3,0.8H7.1l0.3-0.8h2.4L17,737.6z M24.1,753.9
			c1.9,0,2.6-2.8,3-4.2c1.4-5,2.8-9.6,2.8-10.9c0-1-0.6-1.6-1.6-1.6c-1.3,0-2.9,1.7-3.9,3.5c-1.2,2.2-3,8.1-3,10.2
			C21.4,752.2,22.1,753.9,24.1,753.9z"/>
		<path fill="#CCCCCC" d="M49.2,755.7c-5.4,0-9.4-3-9.4-8.8c0-4.5,3.3-11.1,12.3-11.1c5.6,0,9.6,3,9.6,8.8
			C61.8,748.5,58.9,755.7,49.2,755.7z M52,750.7l1.4-4.8c1.6-5.3,1.7-6.5,1.7-7.3c0-1.1-0.4-2.2-2.3-2.2c-2.1,0-3.2,2.6-4.6,8.1
			c-1.5,5.8-1.8,6.8-1.8,8c0,1.2,0.3,2.4,2.1,2.4C50.1,754.9,51.1,753.9,52,750.7z"/>
		<path fill="#CCCCCC" d="M68.4,737.6h-2.3l0.3-0.8h2.7c1.6,0,5,0,7.4-1l-1.1,4.1h0.1c1-1.5,3-4.1,5.4-4.1c2.2,0,3.4,1.5,3.4,3.5
			c0,2.4-1.6,3.8-3.6,3.8c-2.1,0-3.2-1.5-3.2-3.3c0-0.5,0.1-0.9,0.3-1.3l-0.1-0.1c-1.9,2.1-2.9,4.1-3.6,6.5l-2.8,10.2h-7.7
			L68.4,737.6z"/>
		<path fill="#CCCCCC" d="M86.7,736.8h2.8l1.6-5.7c2.9-0.8,5.9-1.8,8.5-3.4l-2.6,9.1h3l-0.2,0.8h-2.9l-3.7,13
			c-0.2,0.8-0.4,1.7-0.4,1.9c0,0.4,0.3,0.7,0.7,0.7c1.3,0,2.4-1.8,3.1-2.7L97,751c-0.7,0.7-2.4,4.6-7.2,4.6c-2.2,0-4.3-1.1-4.3-3.5
			c0-1.2,0.7-3.6,1.1-5.1l2.7-9.5h-2.8L86.7,736.8z"/>
		<path fill="#CCCCCC" d="M103.2,736.8h2.8c1.6,0,5,0,7.4-1l-4.5,15.9c-0.1,0.3-0.2,0.7-0.2,1c0,0.5,0.2,0.8,0.6,0.8
			c0.7,0,1.7-0.9,2.8-2.7l0.7,0.4c-1.4,2.7-3.7,4.5-6.8,4.5c-2.2,0-4.4-0.9-4.4-3.8c0-0.9,0.4-2.6,1-4.9l2.6-9.4h-2.5L103.2,736.8z
			 M110.9,726.5c2,0,3.7,1.6,3.7,3.7s-1.6,3.7-3.7,3.7s-3.7-1.6-3.7-3.7S108.9,726.5,110.9,726.5z"/>
		<path fill="#CCCCCC" d="M132.8,736.9h7.6l-4,14.2c-0.2,0.7-0.3,1-0.3,1.5c0,0.6,0.4,0.8,0.7,0.8c0.6,0,1-0.4,2.8-2.7l0.6,0.4
			c-2.1,2.8-3.5,4.5-7.2,4.5c-2.3,0-3.7-0.9-4.3-3.3h-0.1c-1.1,2-3,3.3-5.6,3.3c-4.6,0-6.7-3.6-6.7-8.1c0-5.9,4.7-11.8,10.7-11.8
			c2.3,0,4.3,1.2,4.8,3.7h0.1L132.8,736.9z M126.5,740.4c-1.5,4.5-3.2,10.5-3.2,12.2c0,1.4,0.9,1.7,1.7,1.7c1.4,0,2.8-1.3,3.3-2.7
			c1.3-3,2.9-9.2,2.9-11.1c0-2.1-0.9-3.3-2.1-3.3C127.8,737.3,127.2,738.4,126.5,740.4z"/>
		<path fill="#CCCCCC" d="M147.5,737.6h-2.3l0.3-0.8h2.7c1.6,0,5,0,7.4-1l-1.6,5.9l0.1,0c1.5-3,4.1-5.9,7.8-5.9c2.4,0,4.1,1,4.1,3.6
			c0,0.8-0.1,1.5-0.1,2.1h0.1c1.8-3.4,4.7-5.7,8.3-5.7c2.3,0,4.2,1.4,4.2,3.8c0,0.8-0.2,1.6-0.4,2.3c-0.5,1.5-3.1,9.1-3.1,10.1
			s0.3,1.2,0.9,1.2c0.9,0,2.3-2.1,2.6-2.9l0.6,0.4c-1.3,3-3.7,4.9-7,4.9c-2.4,0-4.1-1.5-4.1-4.3c0-2.9,3.5-10.4,3.5-12.2
			c0-0.6-0.2-1-0.9-1c-1.7,0-4.8,4.4-5.9,8.2l-2.5,8.7h-7.4l4-14.6c0.2-0.6,0.2-1.2,0.2-1.4c0-0.4-0.2-0.8-0.7-0.8
			c-1.4,0-4.5,4.6-5.5,8.3l-2.4,8.6h-7.7L147.5,737.6z"/>
		<path fill="#CCCCCC" d="M191.5,755.7c-5.4,0-9.4-3-9.4-8.8c0-4.5,3.3-11.1,12.3-11.1c5.6,0,9.6,3,9.6,8.8
			C204.1,748.5,201.2,755.7,191.5,755.7z M194.3,750.7l1.4-4.8c1.6-5.3,1.7-6.5,1.7-7.3c0-1.1-0.4-2.2-2.3-2.2
			c-2.1,0-3.2,2.6-4.6,8.1c-1.5,5.8-1.8,6.8-1.8,8c0,1.2,0.3,2.4,2.1,2.4C192.3,754.9,193.4,753.9,194.3,750.7z"/>
		<path fill="#CCCCCC" d="M223.1,737.6h-2.3l0.3-0.8h2.7c1.6,0,5,0,7.4-1l-1.6,6.5h0.1c1.6-3,4.8-6.5,8.5-6.5c2.3,0,4.5,1.3,4.5,3.9
			c0,3.3-3.6,10.9-3.6,12.8c0,0.8,0.2,1,0.7,1c1.1,0,2.6-2,3-2.9l0.7,0.4c-1.3,2.8-3.8,4.7-7.1,4.7c-2.5,0-4.3-1.3-4.3-4.2
			c0-2.1,3.6-11.2,3.6-12.3c0-0.7-0.4-1-0.9-1c-1.6,0-5.5,5.2-6.8,9.8l-1.9,7.1h-7.7L223.1,737.6z"/>
		<path fill="#CCCCCC" d="M264.8,751.6c-2.4,2.4-5.8,4.1-9.2,4.1c-5,0-9.1-2.3-9.1-7.8c0-7.3,6.3-12,13.2-12c3.3,0,7.5,1.4,7.5,5.3
			c0,4.6-4.9,6.2-8.8,6.2c-1.8,0-3.2-0.1-3.9-0.2l-0.5,1.7c-0.3,1.1-0.4,2.2-0.4,3c0,2,1.4,2.9,3.1,2.9c2.5,0,5.8-1.9,7.6-3.6
			L264.8,751.6z M254.8,746.3c0.5,0.1,1.1,0.1,1.7,0.1c1.2,0,2.1-0.8,2.7-2c0.5-1,1.7-4.8,1.7-5.9c0-1.2-0.5-2-1.7-2
			c-1.2,0-2,1.1-2.3,2.5L254.8,746.3z"/>
		<path fill="#CCCCCC" d="M274.1,726.5h3.5c1.7,0,5.4-0.3,7-1.3l-7.3,26.5c-0.1,0.3-0.2,0.7-0.2,1c0,0.5,0.2,0.8,0.6,0.8
			c0.4,0,1.5-0.8,3-2.9l0.6,0.6c-1.8,2.7-4.4,4.5-7.2,4.5c-2.4,0-4.1-1.1-4.1-3.5c0-0.8,0.2-1.9,0.7-3.9l5.8-21h-2.8L274.1,726.5z"
			/>
		<path fill="#CCCCCC" d="M316.1,750.7c-1.9,3.1-5.1,4.9-8.9,4.9c-5.7,0-9.7-3-9.7-8.8c0-4,2.8-11.1,12.4-11.1c4.4,0,7.5,2,7.5,4.8
			c0,1.6-1.4,3.2-3.4,3.2c-1.9,0-3.4-1.3-3.4-3.3c0-1.7,1.3-3.1,3-3.3v-0.1c-0.5-0.2-1.3-0.3-2.1-0.3c-2.8,0-3.9,2.2-4.8,5.5
			c-2.2,7.9-2.4,8.3-2.4,9.6c0,1.6,1.2,2.8,3.9,2.8c3.1,0,5.6-2,7.3-4.3L316.1,750.7z"/>
		<path fill="#CCCCCC" d="M340.9,747.4c-1,3.5-1.2,4.6-1.2,5.1c0,0.7,0.4,1,1,1c0.9,0,2.4-2,2.8-2.9l0.7,0.4
			c-1.3,2.8-3.8,4.7-7.1,4.7c-2.7,0-4.3-1.3-4.3-3.8v-0.7h-0.1c-1.6,2.5-4.8,4.5-8.1,4.5c-2.5,0-4.3-1.6-4.3-4.1
			c0-0.3,0.2-1.7,0.4-2.6l3.1-11.4h-2.3l0.3-0.8h2.7c1.6,0,5,0,7.4-1l-3.3,11.6c-1,3.5-1.2,4.6-1.2,5.1c0,0.7,0.4,1,1,1
			c2.1,0,4.2-3.5,4.9-6l3-10.7h7.5L340.9,747.4z"/>
		<path fill="#CCCCCC" d="M356.5,755.7c-5.4,0-9.4-3-9.4-8.8c0-4.5,3.3-11.1,12.3-11.1c5.6,0,9.6,3,9.6,8.8
			C369,748.5,366.2,755.7,356.5,755.7z M359.3,750.7l1.4-4.8c1.6-5.3,1.7-6.5,1.7-7.3c0-1.1-0.4-2.2-2.3-2.2c-2.1,0-3.2,2.6-4.6,8.1
			c-1.5,5.8-1.8,6.8-1.8,8c0,1.2,0.3,2.4,2.1,2.4C357.3,754.9,358.3,753.9,359.3,750.7z"/>
		<path fill="#CCCCCC" d="M375.7,737.6h-2.3l0.3-0.8h2.7c1.6,0,5,0,7.4-1l-1.1,4.1h0.1c1-1.5,3-4.1,5.4-4.1c2.2,0,3.4,1.5,3.4,3.5
			c0,2.4-1.6,3.8-3.6,3.8c-2.1,0-3.2-1.5-3.2-3.3c0-0.5,0.1-0.9,0.3-1.3l-0.1-0.1c-1.9,2.1-2.9,4.1-3.6,6.5l-2.8,10.2h-7.7
			L375.7,737.6z"/>
		<path fill="#CCCCCC" d="M410.6,751.6c-2.4,2.4-5.8,4.1-9.2,4.1c-5,0-9.1-2.3-9.1-7.8c0-7.3,6.3-12,13.2-12c3.3,0,7.5,1.4,7.5,5.3
			c0,4.6-4.9,6.2-8.8,6.2c-1.8,0-3.2-0.1-3.9-0.2l-0.5,1.7c-0.3,1.1-0.4,2.2-0.4,3c0,2,1.4,2.9,3.1,2.9c2.5,0,5.8-1.9,7.6-3.6
			L410.6,751.6z M400.5,746.3c0.5,0.1,1.1,0.1,1.7,0.1c1.2,0,2.1-0.8,2.7-2c0.5-1,1.7-4.8,1.7-5.9c0-1.2-0.5-2-1.7-2
			c-1.2,0-2,1.1-2.3,2.5L400.5,746.3z"/>
		<path fill="#CCCCCC" d="M413.4,761.1c2.3-1.3,4.6-3.1,5.2-5.8c-0.4,0-0.7,0.1-1.1,0.1c-2.2,0-3.7-1.5-3.7-3.7c0-2,1.6-3.7,3.7-3.7
			s3.7,1.5,3.7,4c0,3.2-2.2,7-7.5,9.7L413.4,761.1z"/>
		<path fill="#CCCCCC" d="M458.1,751.6c-2.4,2.4-5.8,4.1-9.2,4.1c-5,0-9.1-2.3-9.1-7.8c0-7.3,6.3-12,13.2-12c3.3,0,7.5,1.4,7.5,5.3
			c0,4.6-4.9,6.2-8.8,6.2c-1.8,0-3.2-0.1-3.9-0.2l-0.5,1.7c-0.3,1.1-0.4,2.2-0.4,3c0,2,1.4,2.9,3.1,2.9c2.5,0,5.8-1.9,7.6-3.6
			L458.1,751.6z M448,746.3c0.5,0.1,1.1,0.1,1.7,0.1c1.2,0,2.1-0.8,2.7-2c0.5-1,1.7-4.8,1.7-5.9c0-1.2-0.5-2-1.7-2s-2,1.1-2.3,2.5
			L448,746.3z"/>
		<path fill="#CCCCCC" d="M481.1,750.7c-1.9,3.1-5.1,4.9-8.9,4.9c-5.7,0-9.7-3-9.7-8.8c0-4,2.8-11.1,12.4-11.1c4.4,0,7.5,2,7.5,4.8
			c0,1.6-1.4,3.2-3.4,3.2c-1.9,0-3.4-1.3-3.4-3.3c0-1.7,1.3-3.1,3-3.3v-0.1c-0.5-0.2-1.3-0.3-2.1-0.3c-2.8,0-3.9,2.2-4.8,5.5
			c-2.2,7.9-2.4,8.3-2.4,9.6c0,1.6,1.2,2.8,3.9,2.8c3.1,0,5.6-2,7.3-4.3L481.1,750.7z"/>
		<path fill="#CCCCCC" d="M503.7,750.7c-1.9,3.1-5.1,4.9-8.9,4.9c-5.7,0-9.7-3-9.7-8.8c0-4,2.8-11.1,12.4-11.1c4.4,0,7.5,2,7.5,4.8
			c0,1.6-1.4,3.2-3.4,3.2c-1.9,0-3.4-1.3-3.4-3.3c0-1.7,1.3-3.1,3-3.3v-0.1c-0.5-0.2-1.3-0.3-2.1-0.3c-2.8,0-3.9,2.2-4.8,5.5
			c-2.2,7.9-2.4,8.3-2.4,9.6c0,1.6,1.2,2.8,3.9,2.8c3.1,0,5.6-2,7.3-4.3L503.7,750.7z"/>
		<path fill="#CCCCCC" d="M517,755.7c-5.4,0-9.4-3-9.4-8.8c0-4.5,3.3-11.1,12.3-11.1c5.6,0,9.6,3,9.6,8.8
			C529.5,748.5,526.7,755.7,517,755.7z M519.7,750.7l1.4-4.8c1.6-5.3,1.7-6.5,1.7-7.3c0-1.1-0.4-2.2-2.3-2.2c-2.1,0-3.2,2.6-4.6,8.1
			c-1.5,5.8-1.8,6.8-1.8,8c0,1.2,0.3,2.4,2.1,2.4C517.8,754.9,518.8,753.9,519.7,750.7z"/>
		<path fill="#CCCCCC" d="M551.7,763.9h2.4l2.7-10.2l-0.1-0.1c-1.3,1.3-2.9,1.8-4.8,1.8c-4.3,0-7-3.5-7-7.6c0-5.7,4-12,10.2-12
			c2.6,0,4.9,0.7,5.7,3.3h0.1l0.6-2.3h7.6l-7.4,27.1h2.5l-0.3,0.8h-12.4L551.7,763.9z M553.7,754.1c1.3,0,2.7-1.1,3.3-2.4
			c0.9-1.8,3-9.1,3-10.9c0-2.1-0.7-3.5-2.3-3.5c-1.5,0-2.2,1.1-2.8,3c-2.6,8.9-3,11.2-3,12C552,753.4,552.6,754.1,553.7,754.1z"/>
		<path fill="#CCCCCC" d="M592.9,747.4c-1,3.5-1.2,4.6-1.2,5.1c0,0.7,0.4,1,1,1c0.9,0,2.4-2,2.8-2.9l0.7,0.4
			c-1.3,2.8-3.8,4.7-7.1,4.7c-2.7,0-4.3-1.3-4.3-3.8v-0.7h-0.1c-1.6,2.5-4.8,4.5-8.1,4.5c-2.5,0-4.3-1.6-4.3-4.1
			c0-0.3,0.2-1.7,0.4-2.6l3.1-11.4h-2.3l0.3-0.8h2.7c1.6,0,5,0,7.4-1l-3.3,11.6c-1,3.5-1.2,4.6-1.2,5.1c0,0.7,0.4,1,1,1
			c2.1,0,4.2-3.5,4.9-6l3-10.7h7.5L592.9,747.4z"/>
		<path fill="#CCCCCC" d="M601.4,736.8h2.8c1.6,0,5,0,7.4-1l-4.5,15.9c-0.1,0.3-0.2,0.7-0.2,1c0,0.5,0.2,0.8,0.6,0.8
			c0.7,0,1.7-0.9,2.8-2.7l0.7,0.4c-1.4,2.7-3.7,4.5-6.8,4.5c-2.2,0-4.4-0.9-4.4-3.8c0-0.9,0.4-2.6,1-4.9l2.6-9.4h-2.5L601.4,736.8z
			 M609.2,726.5c2,0,3.7,1.6,3.7,3.7s-1.6,3.7-3.7,3.7s-3.7-1.6-3.7-3.7S607.2,726.5,609.2,726.5z"/>
		<path fill="#CCCCCC" d="M651.4,751c-1.7,2.7-3.9,4.7-7.3,4.7c-1.8,0-3.7-1.2-4-3.2c-1.7,2.4-3.7,3.2-6,3.2c-4.6,0-6.7-3.6-6.7-8.1
			c0-5.9,4.7-11.8,10.7-11.8c2.5,0,4.2,0.9,5,3.6h0.1l3.3-12.1h-2.6l0.3-0.8h3.4c1.8,0,5.5-0.3,7-1.3l-7.3,26.6
			c-0.1,0.4-0.2,0.7-0.2,0.9c0,0.3,0.2,0.6,0.7,0.6c0.7,0,1.4-0.7,2.9-2.6L651.4,751z M640.2,737.3c-1.3,0-2,1.1-2.7,3.2
			c-1.5,4.5-3.2,11.2-3,12.2c0,0.8,0.6,1.5,1.6,1.5c1.4,0,2.6-1.1,3.5-2.8c1-1.9,2.9-8.7,2.9-10.7
			C642.6,738.5,641.2,737.3,640.2,737.3z"/>
		<path fill="#CCCCCC" d="M656.8,736.8h2.8c1.6,0,5,0,7.4-1l-4.5,15.9c-0.1,0.3-0.2,0.7-0.2,1c0,0.5,0.2,0.8,0.6,0.8
			c0.7,0,1.7-0.9,2.8-2.7l0.7,0.4c-1.4,2.7-3.7,4.5-6.8,4.5c-2.2,0-4.4-0.9-4.4-3.8c0-0.9,0.4-2.6,1-4.9l2.6-9.4h-2.5L656.8,736.8z
			 M664.6,726.5c2,0,3.7,1.6,3.7,3.7s-1.6,3.7-3.7,3.7s-3.7-1.6-3.7-3.7S662.6,726.5,664.6,726.5z"/>
		<path fill="#CCCCCC" d="M684.3,748c1.7,0,2.8,1.2,2.8,2.7s-1.1,2.7-2.5,2.7c-0.3,0-0.5,0-0.8-0.1l-0.1,0.1
			c0.7,0.8,2.6,1.5,4.7,1.5s3.9-0.8,3.9-2.3c0-3.1-7.8-5.1-7.8-10.2c0-3.6,3.2-6.8,9.5-6.6c4.5,0.1,6.8,1.6,6.8,4.4
			c0,1.7-1.1,2.6-2.8,2.6c-1.5,0-2.6-1-2.6-2.7c0-1.3,1-2.4,2.2-2.4c0.3,0,0.5,0,0.7,0v-0.1c-1-0.8-2-1.1-3.1-1.1
			c-2.4,0-3.8,1.4-3.8,3.2c0,3.9,7.6,4.6,7.6,9.6c0,4.3-4.4,6.3-9.5,6.3c-5.2,0-7.9-2.2-7.9-4.8C681.4,749.2,682.7,748,684.3,748z"
			/>
		<path fill="#CCCCCC" d="M721.4,751.6c-2.4,2.4-5.8,4.1-9.2,4.1c-5,0-9.1-2.3-9.1-7.8c0-7.3,6.3-12,13.2-12c3.3,0,7.5,1.4,7.5,5.3
			c0,4.6-4.9,6.2-8.8,6.2c-1.8,0-3.2-0.1-3.9-0.2l-0.5,1.7c-0.3,1.1-0.4,2.2-0.4,3c0,2,1.4,2.9,3.1,2.9c2.5,0,5.8-1.9,7.6-3.6
			L721.4,751.6z M711.3,746.3c0.5,0.1,1.1,0.1,1.7,0.1c1.2,0,2.1-0.8,2.7-2c0.5-1,1.7-4.8,1.7-5.9c0-1.2-0.5-2-1.7-2s-2,1.1-2.3,2.5
			L711.3,746.3z"/>
		<path fill="#CCCCCC" d="M731.9,751.2c1.9,0,4.3-0.1,6.2-0.1c2.9,0,6.9,0.1,6.9,4.3c0,4.1-4.6,9.8-13.2,9.8c-3.9,0-9.3-0.7-9.3-4.3
			c0-2.3,3-3.5,4.9-3.5v-0.1c-1.5-0.6-3-1.9-3-3.9c0-3.1,2.8-5.6,6-6v-0.1c-1.5-1-2.6-2.4-2.6-4.4c0-5,5.3-7.3,9.6-7.3
			c2.3,0,4.6,0.5,6.5,1.7c0.7-1.5,2.2-2.7,3.9-2.7c1.5,0,2.7,0.9,2.7,2.6c0,1.3-1,2.1-2.1,2.1c-1.2,0-2.2-0.8-2.2-1.9
			c0-0.8,0.3-1.5,0.9-1.9l-0.1-0.1c-1.2,0.2-2.1,1.3-2.4,2.5c1,1.1,1.7,2.6,1.7,4.1c0,5.4-5.9,6.6-9.8,6.6c-1.5,0-2.5-0.2-3.3-0.3
			c-0.8-0.2-1.3-0.3-2-0.3c-2,0-2.8,0.8-2.8,1.6C728.5,750.9,729.6,751.2,731.9,751.2z M729.9,757.8c-2.8,0-4.2,0.9-4.2,2.8
			c0,2.1,2.8,3.5,6.6,3.5c4.6,0,9.3-2.5,9.3-4.8c0-1-0.7-1.5-1.8-1.5H729.9z M735.8,748c1,0,1.7-0.3,2.4-2.6
			c1.6-5.5,1.8-6.5,1.8-7.3c0-1-0.8-1.5-1.5-1.5c-0.9,0-1.7,0.3-2.4,2.7c-1.6,5.5-1.8,6.4-1.8,7.3C734.3,747.5,735.1,748,735.8,748z
			"/>
		<path fill="#CCCCCC" d="M771.4,747.4c-1,3.5-1.2,4.6-1.2,5.1c0,0.7,0.4,1,1,1c0.9,0,2.4-2,2.8-2.9l0.7,0.4
			c-1.3,2.8-3.8,4.7-7.1,4.7c-2.7,0-4.3-1.3-4.3-3.8v-0.7h-0.1c-1.6,2.5-4.8,4.5-8.1,4.5c-2.5,0-4.3-1.6-4.3-4.1
			c0-0.3,0.2-1.7,0.4-2.6l3.1-11.4h-2.3l0.3-0.8h2.7c1.6,0,5,0,7.4-1l-3.3,11.6c-1,3.5-1.2,4.6-1.2,5.1c0,0.7,0.4,1,1,1
			c2.1,0,4.2-3.5,4.9-6l3-10.7h7.5L771.4,747.4z"/>
		<path fill="#CCCCCC" d="M780,736.8h2.8c1.6,0,5,0,7.4-1l-4.5,15.9c-0.1,0.3-0.2,0.7-0.2,1c0,0.5,0.2,0.8,0.6,0.8
			c0.7,0,1.7-0.9,2.8-2.7l0.7,0.4c-1.4,2.7-3.7,4.5-6.8,4.5c-2.2,0-4.4-0.9-4.4-3.8c0-0.9,0.4-2.6,1-4.9l2.6-9.4h-2.5L780,736.8z
			 M787.8,726.5c2,0,3.7,1.6,3.7,3.7s-1.6,3.7-3.7,3.7s-3.7-1.6-3.7-3.7S785.7,726.5,787.8,726.5z"/>
		<path fill="#CCCCCC" d="M795.1,736.8h2.8l1.6-5.7c2.9-0.8,5.9-1.8,8.5-3.4l-2.6,9.1h3l-0.2,0.8h-2.9l-3.7,13
			c-0.2,0.8-0.4,1.7-0.4,1.9c0,0.4,0.3,0.7,0.7,0.7c1.3,0,2.4-1.8,3.1-2.7l0.6,0.5c-0.7,0.7-2.4,4.6-7.2,4.6c-2.2,0-4.3-1.1-4.3-3.5
			c0-1.2,0.7-3.6,1.1-5.1l2.7-9.5h-2.8L795.1,736.8z"/>
		<path fill="#CCCCCC" d="M818.7,755.7c-5.4,0-9.4-3-9.4-8.8c0-4.5,3.3-11.1,12.3-11.1c5.6,0,9.6,3,9.6,8.8
			C831.2,748.5,828.4,755.7,818.7,755.7z M821.5,750.7l1.4-4.8c1.6-5.3,1.7-6.5,1.7-7.3c0-1.1-0.4-2.2-2.3-2.2
			c-2.1,0-3.2,2.6-4.6,8.1c-1.5,5.8-1.8,6.8-1.8,8c0,1.2,0.3,2.4,2.1,2.4C819.5,754.9,820.5,753.9,821.5,750.7z"/>
		<path fill="#CCCCCC" d="M156.8,775.3h3.5c1.7,0,5.4-0.3,7-1.3l-7.3,26.5c-0.1,0.3-0.2,0.7-0.2,1c0,0.5,0.2,0.8,0.6,0.8
			c0.4,0,1.5-0.8,3-2.9l0.6,0.6c-1.8,2.7-4.4,4.5-7.2,4.5c-2.4,0-4.1-1.1-4.1-3.5c0-0.8,0.2-1.9,0.7-3.9l5.8-21h-2.8L156.8,775.3z"
			/>
		<path fill="#CCCCCC" d="M183.9,785.7h7.6l-4,14.2c-0.2,0.7-0.3,1-0.3,1.5c0,0.6,0.4,0.8,0.7,0.8c0.6,0,1-0.4,2.8-2.7l0.6,0.4
			c-2.1,2.8-3.5,4.5-7.2,4.5c-2.3,0-3.7-0.9-4.3-3.3h-0.1c-1.1,2-3,3.3-5.6,3.3c-4.6,0-6.7-3.6-6.7-8.1c0-5.9,4.7-11.8,10.7-11.8
			c2.3,0,4.3,1.2,4.8,3.7h0.1L183.9,785.7z M177.6,789.2c-1.5,4.5-3.2,10.5-3.2,12.2c0,1.4,0.9,1.7,1.7,1.7c1.4,0,2.8-1.3,3.3-2.7
			c1.3-3,2.9-9.2,2.9-11.1c0-2.1-0.9-3.3-2.1-3.3C178.9,786.1,178.2,787.2,177.6,789.2z"/>
		<path fill="#CCCCCC" d="M211,786.4h-2.3l0.3-0.8h2.7c1.6,0,5,0,7.4-1l-1.6,6.5h0.1c1.6-3,4.8-6.5,8.5-6.5c2.3,0,4.5,1.3,4.5,3.9
			c0,3.3-3.6,10.9-3.6,12.8c0,0.8,0.2,1,0.7,1c1.1,0,2.6-2,3-2.9l0.7,0.4c-1.3,2.8-3.8,4.7-7.1,4.7c-2.5,0-4.3-1.3-4.3-4.2
			c0-2.1,3.6-11.2,3.6-12.3c0-0.7-0.4-1-0.9-1c-1.6,0-5.5,5.2-6.8,9.8l-1.9,7.1h-7.7L211,786.4z"/>
		<path fill="#CCCCCC" d="M243.8,804.5c-5.4,0-9.4-3-9.4-8.8c0-4.5,3.3-11.1,12.3-11.1c5.6,0,9.6,3,9.6,8.8
			C256.3,797.3,253.5,804.5,243.8,804.5z M246.6,799.5l1.4-4.8c1.6-5.3,1.7-6.5,1.7-7.3c0-1.1-0.4-2.2-2.3-2.2
			c-2.1,0-3.2,2.6-4.6,8.1c-1.5,5.8-1.8,6.8-1.8,8c0,1.2,0.3,2.4,2.1,2.4C244.6,803.7,245.6,802.7,246.6,799.5z"/>
		<path fill="#CCCCCC" d="M260.7,796.8c1.7,0,2.8,1.2,2.8,2.7s-1.1,2.7-2.5,2.7c-0.3,0-0.5,0-0.8-0.1l-0.1,0.1
			c0.7,0.8,2.6,1.5,4.7,1.5s3.9-0.8,3.9-2.3c0-3.1-7.8-5.1-7.8-10.2c0-3.6,3.2-6.8,9.5-6.6c4.5,0.1,6.8,1.6,6.8,4.4
			c0,1.7-1.1,2.6-2.8,2.6c-1.5,0-2.6-1-2.6-2.7c0-1.3,1-2.4,2.2-2.4c0.3,0,0.5,0,0.7,0v-0.1c-1-0.8-2-1.1-3.1-1.1
			c-2.4,0-3.8,1.4-3.8,3.2c0,3.9,7.6,4.6,7.6,9.6c0,4.3-4.4,6.3-9.5,6.3c-5.2,0-7.9-2.2-7.9-4.8C257.9,798,259.2,796.8,260.7,796.8z
			"/>
		<path fill="#CCCCCC" d="M281.2,785.6h2.8l1.6-5.7c2.9-0.8,5.9-1.8,8.5-3.4l-2.6,9.1h3l-0.2,0.8h-2.9l-3.7,13
			c-0.2,0.8-0.4,1.7-0.4,1.9c0,0.4,0.3,0.7,0.7,0.7c1.3,0,2.4-1.8,3.1-2.7l0.6,0.5c-0.7,0.7-2.4,4.6-7.2,4.6c-2.2,0-4.3-1.1-4.3-3.5
			c0-1.2,0.7-3.6,1.1-5.1l2.7-9.5H281L281.2,785.6z"/>
		<path fill="#CCCCCC" d="M299.1,786.4h-2.3l0.3-0.8h2.7c1.6,0,5,0,7.4-1l-1.1,4.1h0.1c1-1.5,3-4.1,5.4-4.1c2.2,0,3.4,1.5,3.4,3.5
			c0,2.4-1.6,3.8-3.6,3.8c-2.1,0-3.2-1.5-3.2-3.3c0-0.5,0.1-0.9,0.3-1.3l-0.1-0.1c-1.9,2.1-2.9,4.1-3.6,6.5l-2.8,10.2h-7.7
			L299.1,786.4z"/>
		<path fill="#CCCCCC" d="M331.9,785.7h7.6l-4,14.2c-0.2,0.7-0.3,1-0.3,1.5c0,0.6,0.4,0.8,0.7,0.8c0.6,0,1-0.4,2.8-2.7l0.6,0.4
			c-2.1,2.8-3.5,4.5-7.2,4.5c-2.3,0-3.7-0.9-4.3-3.3h-0.1c-1.1,2-3,3.3-5.6,3.3c-4.6,0-6.7-3.6-6.7-8.1c0-5.9,4.7-11.8,10.7-11.8
			c2.3,0,4.3,1.2,4.8,3.7h0.1L331.9,785.7z M325.6,789.2c-1.5,4.5-3.2,10.5-3.2,12.2c0,1.4,0.9,1.7,1.7,1.7c1.4,0,2.8-1.3,3.3-2.7
			c1.3-3,2.9-9.2,2.9-11.1c0-2.1-0.9-3.3-2.1-3.3C326.9,786.1,326.2,787.2,325.6,789.2z"/>
		<path fill="#CCCCCC" d="M366.4,775.3c-2.3,1.3-4.6,3.1-5.2,5.8c0.4,0,0.7-0.1,1.1-0.1c2.2,0,3.7,1.5,3.7,3.7c0,2-1.6,3.7-3.7,3.7
			s-3.7-1.5-3.7-4c0-3.2,2.2-7,7.5-9.7L366.4,775.3z M375.4,775.3c-2.3,1.3-4.6,3.1-5.2,5.8c0.4,0,0.7-0.1,1.1-0.1
			c2.2,0,3.7,1.5,3.7,3.7c0,2-1.6,3.7-3.7,3.7s-3.7-1.5-3.7-4c0-3.2,2.2-7,7.5-9.7L375.4,775.3z"/>
		<path fill="#CCCCCC" d="M385.5,776h-2.6l0.2-0.8h13.7l-0.2,0.8h-2.7l-7.4,27.1h3.3c5.6,0,10.7-3.1,12.9-8.3h0.9l-2.7,9.1h-25.5
			l0.2-0.8h2.5L385.5,776z"/>
		<path fill="#CCCCCC" d="M409.6,785.6h2.8c1.6,0,5,0,7.4-1l-4.5,15.9c-0.1,0.3-0.2,0.7-0.2,1c0,0.5,0.2,0.8,0.6,0.8
			c0.7,0,1.7-0.9,2.8-2.7l0.7,0.4c-1.4,2.7-3.7,4.5-6.8,4.5c-2.2,0-4.4-0.9-4.4-3.8c0-0.9,0.4-2.6,1-4.9l2.6-9.4h-2.5L409.6,785.6z
			 M417.4,775.3c2,0,3.7,1.6,3.7,3.7s-1.6,3.7-3.7,3.7s-3.7-1.6-3.7-3.7S415.3,775.3,417.4,775.3z"/>
		<path fill="#CCCCCC" d="M424.6,796.8c1.7,0,2.8,1.2,2.8,2.7s-1.1,2.7-2.5,2.7c-0.3,0-0.5,0-0.8-0.1l-0.1,0.1
			c0.7,0.8,2.6,1.5,4.7,1.5s3.9-0.8,3.9-2.3c0-3.1-7.8-5.1-7.8-10.2c0-3.6,3.2-6.8,9.5-6.6c4.5,0.1,6.8,1.6,6.8,4.4
			c0,1.7-1.1,2.6-2.8,2.6c-1.5,0-2.6-1-2.6-2.7c0-1.3,1-2.4,2.2-2.4c0.3,0,0.5,0,0.7,0v-0.1c-1-0.8-2-1.1-3.1-1.1
			c-2.4,0-3.8,1.4-3.8,3.2c0,3.9,7.6,4.6,7.6,9.6c0,4.3-4.4,6.3-9.5,6.3c-5.2,0-7.9-2.2-7.9-4.8C421.7,798,423,796.8,424.6,796.8z"
			/>
		<path fill="#CCCCCC" d="M445,785.6h2.8l1.6-5.7c2.9-0.8,5.9-1.8,8.5-3.4l-2.6,9.1h3l-0.2,0.8h-2.9l-3.7,13
			c-0.2,0.8-0.4,1.7-0.4,1.9c0,0.4,0.3,0.7,0.7,0.7c1.3,0,2.4-1.8,3.1-2.7l0.6,0.5c-0.7,0.7-2.4,4.6-7.2,4.6c-2.2,0-4.3-1.1-4.3-3.5
			c0-1.2,0.7-3.6,1.1-5.1l2.7-9.5h-2.8L445,785.6z"/>
		<path fill="#CCCCCC" d="M475.4,785.7h7.6l-4,14.2c-0.2,0.7-0.3,1-0.3,1.5c0,0.6,0.4,0.8,0.7,0.8c0.6,0,1-0.4,2.8-2.7l0.6,0.4
			c-2.1,2.8-3.5,4.5-7.2,4.5c-2.3,0-3.7-0.9-4.3-3.3h-0.1c-1.1,2-3,3.3-5.6,3.3c-4.6,0-6.7-3.6-6.7-8.1c0-5.9,4.7-11.8,10.7-11.8
			c2.3,0,4.3,1.2,4.8,3.7h0.1L475.4,785.7z M469.1,789.2c-1.5,4.5-3.2,10.5-3.2,12.2c0,1.4,0.9,1.7,1.7,1.7c1.4,0,2.8-1.3,3.3-2.7
			c1.3-3,2.9-9.2,2.9-11.1c0-2.1-0.9-3.3-2.1-3.3C470.4,786.1,469.7,787.2,469.1,789.2z"/>
		<path fill="#CCCCCC" d="M504.8,776h-2.7l0.2-0.8h13.3l-0.2,0.8h-2.5l1.6,19.8h0.1l7.6-12.8c1.2-2,1.6-3.3,1.6-4.2
			c0-1.9-1.5-2.8-3.2-2.8l0.2-0.8h9.8l-0.2,0.8c-2.1,0-3.8,1.8-5.2,4.1l-14.2,23.8h-3.8L504.8,776z"/>
		<path fill="#CCCCCC" d="M529,785.6h2.8c1.6,0,5,0,7.4-1l-4.5,15.9c-0.1,0.3-0.2,0.7-0.2,1c0,0.5,0.2,0.8,0.6,0.8
			c0.7,0,1.7-0.9,2.8-2.7l0.7,0.4c-1.4,2.7-3.7,4.5-6.8,4.5c-2.2,0-4.4-0.9-4.4-3.8c0-0.9,0.4-2.6,1-4.9l2.6-9.4h-2.5L529,785.6z
			 M536.7,775.3c2,0,3.7,1.6,3.7,3.7s-1.6,3.7-3.7,3.7s-3.7-1.6-3.7-3.7S534.7,775.3,536.7,775.3z"/>
		<path fill="#CCCCCC" d="M558.6,785.7h7.6l-4,14.2c-0.2,0.7-0.3,1-0.3,1.5c0,0.6,0.4,0.8,0.7,0.8c0.6,0,1-0.4,2.8-2.7l0.6,0.4
			c-2.1,2.8-3.5,4.5-7.2,4.5c-2.3,0-3.7-0.9-4.3-3.3h-0.1c-1.1,2-3,3.3-5.6,3.3c-4.6,0-6.7-3.6-6.7-8.1c0-5.9,4.7-11.8,10.7-11.8
			c2.3,0,4.3,1.2,4.8,3.7h0.1L558.6,785.7z M552.3,789.2c-1.5,4.5-3.2,10.5-3.2,12.2c0,1.4,0.9,1.7,1.7,1.7c1.4,0,2.8-1.3,3.3-2.7
			c1.3-3,2.9-9.2,2.9-11.1c0-2.1-0.9-3.3-2.1-3.3C553.7,786.1,553,787.2,552.3,789.2z"/>
		<path fill="#CCCCCC" d="M575.8,800c1.9,0,4.3-0.1,6.2-0.1c2.9,0,6.9,0.1,6.9,4.3c0,4.1-4.6,9.8-13.2,9.8c-3.9,0-9.3-0.7-9.3-4.3
			c0-2.3,3-3.5,4.9-3.5v-0.1c-1.5-0.6-3-1.9-3-3.9c0-3.1,2.8-5.6,6-6v-0.1c-1.5-1-2.6-2.4-2.6-4.4c0-5,5.3-7.3,9.6-7.3
			c2.3,0,4.6,0.5,6.5,1.7c0.7-1.5,2.2-2.7,3.9-2.7c1.5,0,2.7,0.9,2.7,2.6c0,1.3-1,2.1-2.1,2.1c-1.2,0-2.2-0.8-2.2-1.9
			c0-0.8,0.3-1.5,0.9-1.9l-0.1-0.1c-1.2,0.2-2.1,1.3-2.4,2.5c1,1.1,1.7,2.6,1.7,4.1c0,5.4-5.9,6.6-9.8,6.6c-1.5,0-2.5-0.2-3.3-0.3
			c-0.8-0.2-1.3-0.3-2-0.3c-2,0-2.8,0.8-2.8,1.6C572.4,799.7,573.5,800,575.8,800z M573.8,806.6c-2.8,0-4.2,0.9-4.2,2.8
			c0,2.1,2.8,3.5,6.6,3.5c4.6,0,9.3-2.5,9.3-4.8c0-1-0.7-1.5-1.8-1.5H573.8z M579.7,796.8c1,0,1.7-0.3,2.4-2.6
			c1.6-5.5,1.8-6.5,1.8-7.3c0-1-0.8-1.5-1.5-1.5c-0.9,0-1.7,0.3-2.4,2.7c-1.6,5.5-1.8,6.4-1.8,7.3
			C578.2,796.3,579,796.8,579.7,796.8z"/>
		<path fill="#CCCCCC" d="M600.6,800c1.9,0,4.3-0.1,6.2-0.1c2.9,0,6.9,0.1,6.9,4.3c0,4.1-4.6,9.8-13.2,9.8c-3.9,0-9.3-0.7-9.3-4.3
			c0-2.3,3-3.5,4.9-3.5v-0.1c-1.5-0.6-3-1.9-3-3.9c0-3.1,2.8-5.6,6-6v-0.1c-1.5-1-2.6-2.4-2.6-4.4c0-5,5.3-7.3,9.6-7.3
			c2.3,0,4.6,0.5,6.5,1.7c0.7-1.5,2.2-2.7,3.9-2.7c1.5,0,2.7,0.9,2.7,2.6c0,1.3-1,2.1-2.1,2.1c-1.2,0-2.2-0.8-2.2-1.9
			c0-0.8,0.3-1.5,0.9-1.9l-0.1-0.1c-1.2,0.2-2.1,1.3-2.4,2.5c1,1.1,1.7,2.6,1.7,4.1c0,5.4-5.9,6.6-9.8,6.6c-1.5,0-2.5-0.2-3.3-0.3
			c-0.8-0.2-1.3-0.3-2-0.3c-2,0-2.8,0.8-2.8,1.6C597.2,799.7,598.3,800,600.6,800z M598.6,806.6c-2.8,0-4.2,0.9-4.2,2.8
			c0,2.1,2.8,3.5,6.6,3.5c4.6,0,9.3-2.5,9.3-4.8c0-1-0.7-1.5-1.8-1.5H598.6z M604.6,796.8c1,0,1.7-0.3,2.4-2.6
			c1.6-5.5,1.8-6.5,1.8-7.3c0-1-0.8-1.5-1.5-1.5c-0.9,0-1.7,0.3-2.4,2.7c-1.6,5.5-1.8,6.4-1.8,7.3
			C603,796.3,603.8,796.8,604.6,796.8z"/>
		<path fill="#CCCCCC" d="M621.6,785.6h2.8c1.6,0,5,0,7.4-1l-4.5,15.9c-0.1,0.3-0.2,0.7-0.2,1c0,0.5,0.2,0.8,0.6,0.8
			c0.7,0,1.7-0.9,2.8-2.7l0.7,0.4c-1.4,2.7-3.7,4.5-6.8,4.5c-2.2,0-4.4-0.9-4.4-3.8c0-0.9,0.4-2.6,1-4.9l2.6-9.4h-2.5L621.6,785.6z
			 M629.4,775.3c2,0,3.7,1.6,3.7,3.7s-1.6,3.7-3.7,3.7s-3.7-1.6-3.7-3.7S627.4,775.3,629.4,775.3z"/>
		<path fill="#CCCCCC" d="M644.5,804.5c-5.4,0-9.4-3-9.4-8.8c0-4.5,3.3-11.1,12.3-11.1c5.6,0,9.6,3,9.6,8.8
			C657,797.3,654.1,804.5,644.5,804.5z M647.2,799.5l1.4-4.8c1.6-5.3,1.7-6.5,1.7-7.3c0-1.1-0.4-2.2-2.3-2.2c-2.1,0-3.2,2.6-4.6,8.1
			c-1.5,5.8-1.8,6.8-1.8,8c0,1.2,0.3,2.4,2.1,2.4C645.3,803.7,646.3,802.7,647.2,799.5z"/>
		<path fill="#CCCCCC" d="M664.2,787.7c2.3-1.3,4.6-3.1,5.2-5.8c-0.4,0-0.7,0.1-1.1,0.1c-2.2,0-3.7-1.5-3.7-3.7c0-2,1.6-3.7,3.7-3.7
			c2,0,3.7,1.5,3.7,4c0,3.2-2.2,7-7.5,9.7L664.2,787.7z M673.3,787.7c2.3-1.3,4.6-3.1,5.2-5.8c-0.4,0-0.7,0.1-1.1,0.1
			c-2.2,0-3.7-1.5-3.7-3.7c0-2,1.6-3.7,3.7-3.7s3.7,1.5,3.7,4c0,3.2-2.2,7-7.5,9.7L673.3,787.7z"/>
		<path fill="#CCCCCC" d="M685.2,796.9c2,0,3.7,1.6,3.7,3.7s-1.6,3.7-3.7,3.7s-3.7-1.6-3.7-3.7S683.2,796.9,685.2,796.9z"/>
	</g>
	<g>
		<path fill="#4D4D4D" d="M382.6,8.5h0.9c1.8,0.3,2.8,1,2.8,2.1c0,0.3-0.3,0.7-1,1.1h-1.1c-0.5-0.6-0.9-0.9-1.1-0.9
			c-1.6,0.5-2.3,1-2.3,1.4c-1.6,3-2.3,7-2.3,12.1v2c0,3.5,0.5,7.6,1.4,12.5c0.5,3.5,1.3,5.8,2.2,7c1,0.9,1.9,1.4,2.6,1.4
			c0.9,0,2-0.9,3.3-2.6h0.8c0.4,0,0.8,0.3,1.1,0.8v0.4c0,0.9-1,2-2.9,3.2c-0.9,0.4-1.7,0.6-2.4,0.6h-0.2c-1.3-0.2-2.7-0.8-4.1-2.1
			c-1.5-1.2-2.8-5.8-3.8-13.7c-0.4-1.7-0.6-4.5-0.6-8.4v-0.7c0.1-8.1,1.5-13.1,4.2-15.1C381.3,8.9,382.2,8.5,382.6,8.5z"/>
		<path fill="#4D4D4D" d="M400.3,8.1c2.7,0,4.7,5.4,6,16.3c0.1,1,0.1,2.3,0.1,3.9v0.5c0,0.3,0,0.6-0.1,0.9c0.1,0.1,0.1,0.4,0.1,0.9
			v0.1c0,0.5,0,0.9-0.1,0.9c0.1,0.3,0.1,0.5,0.1,0.6c0,8.4-1.2,13.6-3.7,15.7c-1,0.4-1.7,0.6-2.1,0.6h-0.9
			c-3.2-0.8-5.1-4.6-5.9-11.5l-0.4-4.8c0-11.1,1.4-18.8,4.2-23.2C398.6,8.4,399.5,8.1,400.3,8.1z M396.1,32c0,4.4,0.6,8.2,1.7,11.4
			c1,1.9,1.7,2.9,2.2,2.9h0.1c1.2,0,2-0.9,2.3-2.8c0.8-2,1.3-6.3,1.3-12.9v-2.3c0-4.6-0.8-9.8-2.4-15.7c-0.5-1.2-0.9-1.8-1.2-2
			c-0.4,0.2-0.7,0.4-0.8,0.8C397.2,15.9,396.1,22.8,396.1,32z"/>
		<path fill="#4D4D4D" d="M420.1,8.7l0.7,0.8v0.4c0,0.3-0.4,0.7-1.1,1.1h-1.4c-1.7,0-2.9,0.6-3.5,1.9c-0.6,1.6-0.9,3.5-0.9,5.5
			c0,1.2,0.5,3.3,1.6,6.1c0.4,0.7,2.4,2.8,6.2,6.2c2.1,2.9,3.1,5.8,3.1,8.6c0,2.2-0.5,4.4-1.4,6.5c-0.5,1.2-1.8,2.1-3.9,2.9
			c-0.8,0.4-1.4,0.6-2,0.6c-0.7,0-1.3-0.3-1.6-0.9v-0.4c0-0.6,0.6-0.9,1.8-1c2.2-0.8,3.3-1.7,3.3-2.6c0.7-1.4,1.1-3.2,1.1-5.4
			c0-2.8-1.3-5.6-3.8-8.3c-2.1-1.6-3.7-3.2-4.7-4.7c-0.8-0.8-1.5-2.9-2.2-6.3c0-0.4,0-0.9-0.1-1.6c0-2.6,0.5-4.9,1.5-6.9
			C414,9.6,416.4,8.7,420.1,8.7z"/>
		<path fill="#4D4D4D" d="M434.1,8.3h0.3c1.4,0.6,2.5,2.2,3.4,4.6c2.2,6.8,3.8,15.4,4.8,25.8c0.7,3.4,1,6.4,1,9.1
			c-0.2,0.6-0.9,0.9-2,0.9c-0.5-0.9-1-4.2-1.6-9.8c-0.2-0.6-0.5-3.1-1.1-7.4l-0.3,0c-3.7,0.4-5.6,0.6-5.6,0.7v4.6l-0.8,10.7
			c0.2,0.3,0.3,0.5,0.3,0.9s-0.3,0.7-1,1.1c-1.3,0-2-0.6-2-1.9c0.6-8.2,0.9-13.2,0.9-14.8c-0.1-1.1-0.1-2.2-0.1-3.3
			c0-5.6,0.5-11.6,1.4-17.9C432.2,9.4,433,8.3,434.1,8.3z M434.7,11.3c-1,3.8-1.5,9.4-1.5,16.7c-0.1,0-0.1,0.8-0.1,2.3v-0.4
			c1.9-0.5,3.8-0.8,5.7-0.8v0.4c0-2.3-1.3-7.9-3.9-16.8C434.4,11.6,434.3,11.1,434.7,11.3z"/>
		<path fill="#4D4D4D" d="M457.1,8.7c1.8,0,3.4,0.7,4.9,2.2c1.2,1.5,1.8,2.9,1.8,4.2v0.8c0,4-1.1,7.8-3.3,11.5
			c-0.6,1.2-0.9,3.2-0.9,5.8c0.2,1.3,0.2,2.3,0.2,3.1v1.3c0,0.6-0.3,1.1-1,1.4h-0.5c-0.6,0-1-0.3-1.1-1c0-0.5,0-0.8,0.1-0.9
			c0,0-0.1-1.2-0.4-3.8c0-4,0.8-7.1,2.4-9.3c1.3-2.7,1.9-5.5,1.9-8.3c0-1.5-0.7-2.8-2.1-4c-1-0.5-1.8-0.7-2.3-0.7
			c-2.1,0.6-3.1,1.5-3.1,2.7v0.9l0.4,0.5v0.3c0,0.6-0.3,1.1-1,1.4h-0.8c-0.7-0.4-1.1-0.9-1.1-1.5v-1.6c0-2.3,1.8-3.9,5.3-4.9H457.1z
			 M458,45.6h0.6c0.4,0,0.8,0.3,1.3,1v0.7c0,1-0.6,1.5-1.7,1.5c-1.1,0-1.7-0.6-1.8-1.8C456.5,46.6,457,46.1,458,45.6z"/>
	</g>
	<g>
		<g>
			<path fill="#F4F1ED" d="M724.6,287.7h-57.7c-1.1,0-2-0.9-2-2v-68c0-1.1,0.9-2,2-2h57.7c1.1,0,2,0.9,2,2v68
				C726.6,286.8,725.7,287.7,724.6,287.7z"/>
			<rect x="670" y="220.8" fill="#D75E3C" width="51.4" height="51.4"/>
			<path fill="#422933" d="M689.8,244.8l8.2,14.3c0.8,1.3,2.7,1.4,3.5,0.1l3.2-4.8c0.8-1.2,2.7-1.2,3.5,0l8.1,12.8h-41.1l11.1-22.3
				C686.9,243.4,689,243.3,689.8,244.8z"/>
			<circle fill="#DCD139" cx="708.6" cy="233.7" r="7.7"/>
		</g>
		<path fill="#422933" d="M254.1,375.1c-27.2-12.4-30.7-3.4-30.7-3.4v50.5c9.1,7.3,76.7,17.4,76.7,17.4v-44.2
			C300.1,395.4,273.8,384.1,254.1,375.1z"/>
		<path fill="#422933" d="M597.7,462.7c27.2,12.4,30.7,3.4,30.7,3.4v-50.5c-9.1-7.3-76.7-17.4-76.7-17.4v44.2
			C551.7,442.5,577.9,453.7,597.7,462.7z"/>
		<g>
			<circle fill="#94B69A" cx="425.9" cy="416.5" r="180"/>
			<g>
				<defs>
					<path id="path3924_7_" d="M425.9,578.6c-43.3,0-84-16.9-114.6-47.5s-47.5-71.3-47.5-114.6s16.9-84,47.5-114.6
						c30.6-30.6,71.3-47.5,114.6-47.5s84,16.9,114.6,47.5c30.6,30.6,47.5,71.3,47.5,114.6s-16.9,84-47.5,114.6
						C509.8,561.7,469.2,578.6,425.9,578.6z"/>
				</defs>
				<clipPath id="path3924_1_">
					<use xlink:href="#path3924_7_"  overflow="visible"/>
				</clipPath>
				<g clip-path="url(#path3924_1_)">
					<defs>
						<path id="SVGID_14_" d="M650.5,211.4c3.2,0.7,10,6.3,13,2.1c2.5-3.5-1.9-4.4,0-7.7c4.6-8.1,24.9,0.5,26-9.4
							c0.6-5.2-3.9-2.2-6.3-1.7c-4.3,0.7-8.4,0.3-12.8,1.1c-6.3,1.1-8,3.2-13.1,6.6C655.8,203.3,645.1,209.3,650.5,211.4z
							 M331.1,208C330.9,207.1,331,207.8,331.1,208L331.1,208z M859.6,526.1l-1.6,1.1c-0.7,0.5-1.4,0.5-1.9,0l0,0
							c-0.2-0.2-0.5-0.3-0.8-0.2l-0.1,0c-0.5,0.1-0.9,0.3-1.1,0.7l-0.4,0.8c-0.2,0.4-0.2,0.9,0.1,1.3l2.7,2.2l1.3,2.7
							c0.3,0.7,1.2,1,1.9,0.6l0.9-0.5c0.4-0.2,0.7-0.5,0.8-1c0.3-1.2,1-3.6,1.3-5.6c0.2-1.2,0.5-2.3-0.1-2.8
							c-0.6-0.5-1.6,0.1-2.1,0.2C860.1,525.8,859.8,525.9,859.6,526.1z M810.6,383.7L810.6,383.7c-0.4-0.1-0.8,0-1.1,0.2l-0.9,0.6
							c-1.1,0.7-1.7,2-1.5,3.3l0,0c0.2,1.2,0.9,2.3,2,2.9l1.9,1.1c0.7,0.4,1.5,0.6,2.3,0.5l0.9,0c1.5-0.1,2.8-1,3.3-2.4l0.3-0.7
							c0.5-1.4,0.4-3-0.3-4.3l-0.8-1.5c-0.5-0.9-1.7-1.1-2.4-0.4l0,0C813.3,383.7,811.9,384,810.6,383.7z M864.8,468.4l-7.3-7.6
							c-0.4-0.4-0.6-0.8-0.8-1.3l-3.5-10.3c0-0.1,0-0.1-0.1-0.2l-2.6-6.5c-0.4-1.1-0.3-2.3,0.3-3.3l1.7-2.6c0.7-1,2-1.3,3-0.7l3.3,2
							l2.4,2.3c1.2,1.1,3.1,0.5,3.4-1l0.4-1.7c0.2-1,0-2-0.6-2.7l-12.9-15.4c-0.3-0.4-0.8-0.7-1.3-0.9l-10.4-4.2
							c-0.3-0.1-0.6-0.2-0.9-0.2l-6-0.3c-0.5,0-1-0.2-1.4-0.4l-1.6-0.9c-0.9-0.6-2.1-0.4-2.9,0.4l-1.3,1.3c-0.8,0.8-0.6,2.2,0.5,2.6
							l0,0c1,0.5,1.5,1.7,1,2.7l0,0c-0.4,0.8-0.1,1.8,0.7,2.3l9.5,5.3c1,0.5,1.5,1.6,1.5,2.7l-0.1,2.9c-0.1,1.2,0.7,2.3,1.8,2.6
							l2.5,0.7l4,4.3c0.6,0.6,0.8,1.4,0.8,2.2l-0.7,9.1c0,0.1,0,0.2,0,0.4l-1.3,6.2c-0.2,1.1-1.5,1.6-2.4,0.9l-5.5-4.2
							c-0.9-0.7-1.3-1.8-1.1-2.8l0.8-3.8c0.2-1-0.2-1.9-1.1-2.5l-1.7-1l-3.3,0.3c-0.6,0.1-1.2-0.1-1.7-0.4l-1.7-1.1l-1.6-0.3
							l-0.2,0.8c-0.3,1-1.2,1.7-2.2,1.8l-0.8,0.1c-0.9,0.1-1.7,0.7-2.1,1.6l-1,2.7c-0.5,1.2-2,1.7-3,0.9l-0.9-0.6l-2.6,0
							c-0.9,0-1.8,0.4-2.3,1.2l-4.4,6.2l-3.1,3c-0.4,0.4-0.7,0.9-0.8,1.5l-0.3,2c-0.2,1-0.9,1.7-1.9,1.9l-1.8,0.3l-11.3,5.5
							c-0.6,0.3-1.1,0.8-1.3,1.5l-1.5,4c-0.2,0.4-0.2,0.9-0.1,1.4l1.1,5.1l-0.4,5.5c0,0.5,0.1,1.1,0.3,1.6l2.4,5.2l2.2,5.9
							c0.3,0.7,0.3,1.5,0,2.2l-1.8,4.3c-0.4,1-0.2,2.1,0.5,2.8l1.2,1.3l2.3,0.6c0.7,0.2,1.4,0.1,2-0.1l8.2-3.5l6-4.6
							c0.4-0.3,0.8-0.5,1.3-0.6l7.8-1.7l4.7-1.5c0.9-0.3,2,0,2.6,0.7l0.9,1l2.6,0.9l1.4,1.1c0.8,0.6,1.1,1.5,1,2.5l-0.1,1.4
							c-0.1,1,0.5,2,1.5,2.4l1.9,0.7l4.7-0.3c1-0.1,1.9,0.5,2.4,1.3l3.9,7.2c0,0,2.4,1.6,3.6,2.6c0.7,0.5,1.5,0.7,2.4,0.5
							c0.4-0.1,1.7-0.6,2.5-0.9c0.6-0.2,1.2-0.3,1.8-0.1l1.2,0.3c1,0.3,2,0.1,2.9-0.4l4.1-2.5c0.6-0.4,1.1-0.9,1.4-1.6l6.8-14.8
							c0.2-0.4,0.3-0.8,0.3-1.3l0.8-10c0.1-0.7,0-1.5-0.2-2.2C872.7,487,864.8,468.4,864.8,468.4z M806.5,443.8
							c0.9,4,13.5-4.3,9.7-7.7c-2.6-2.3-3-0.5-5,0.8c-1.6,1.1-3.9-0.8-4,2.6C807.2,440,806.7,439.4,806.5,443.8z M913,528.2l-9,9
							c-0.7,0.7-0.7,1.9,0,2.6l3.7,3.7c0.7,0.7,1.8,0.6,2.3-0.2l10.2-13.7c0.3-0.4,0.7-0.6,1.2-0.7l2.2-0.4c0.5-0.1,1-0.4,1.2-0.8
							l2.9-4.9c0.3-0.5,0.3-1,0.2-1.5l-1-3.8c-0.1-0.3-0.3-0.6-0.5-0.8l-6.6-5.7c-0.5-0.4-1.3-0.3-1.6,0.3l-0.5,0.8
							c-0.2,0.4-0.3,0.9-0.1,1.3l1.2,3.3c0.1,0.3,0.1,0.6,0.1,0.9l-0.6,2.8c0,0.2-0.1,0.4,0,0.6l0.4,3.9c0.1,0.7-0.3,1.3-0.9,1.5
							l-3.9,1.4C913.4,527.9,913.2,528,913,528.2z M810.6,425.8l0.2,0.2c0.7,0.6,1.8,0.7,2.7,0.2l0.4-0.2c1.1-0.6,1.5-2,1-3.2
							l-1.9-3.7c-0.4-0.8-0.4-1.7-0.1-2.5l0.1-0.2c0.5-1.2-0.1-2.7-1.5-3l-2.4-0.6c-1-0.3-2.1,0.1-2.8,1l-1.7,2.3
							c-0.3,0.4-0.4,0.8-0.4,1.2l-0.2,2.7c-0.1,1,0.6,2,1.6,2.3l0.5,0.2c0.5,0.1,1,0.2,1.4,0.1c0.7-0.1,1.6-0.3,1.8-0.3
							c0.7,0,0.7,0.5,0.5,0.9C809.5,424.1,809.9,425.1,810.6,425.8z M588,249.3l-2.7,0.3c-1.1,0.1-2.1,0.9-2.4,2l-1,4
							c-0.3,1.1-1.3,2-2.5,2l-6.7,0.1c-1.1,0-1.6-1.4-0.7-2.1l0.9-0.6c0.5-0.4,0.9-0.8,1.2-1.4l2.3-4.4c0.3-0.6,0.4-1.2,0.4-1.9
							l-0.3-7.1c0-1,0.5-2,1.4-2.5l3.6-2.1c1.3-0.8,3,0,3.3,1.4l1,4.8c0.2,0.9,1.1,1.6,2,1.5l0,0c1.6-0.1,3,1.3,2.8,2.9l-0.1,1
							C590.1,248.2,589.1,249.1,588,249.3z M586.2,319.5c-1.2-0.3-2.5,0.1-3.4,1l-2,1.9c-1.3,1.3-3.4,1.6-5,0.7l-12.4-6.6
							c-1.6-0.9-2.5-2.6-2.2-4.4l0.2-1.3c0.3-1.9-1.1-3.7-3-4l-5.4-0.8c-0.5-0.1-1.1-0.1-1.6,0l-13.4,2.4l0,0c-1.3,0-1.9-1.5-1-2.4
							l0.9-0.9c0.5-0.5,0.7-1.1,0.6-1.8l0,0c-0.2-1.3,0.3-2.6,1.3-3.4l4.6-3.9c0.7-0.6,1.3-1.5,1.5-2.4l0-0.1c0.4-1.6,2-2.6,3.6-2.4
							l1.8,0.3c1.2,0.2,2.5-0.1,3.5-0.8l0.1-0.1c1.4-0.9,3.3-0.7,4.4,0.5l4.1,4.4c0.4,0.4,0.9,0.8,1.4,1l3.3,1.6
							c0.7,0.3,1.3,0.8,1.7,1.4l1.8,2.6c1.3,1.3,3.5,0.6,3.8-1.2l0-0.3c0.1-0.5,0.4-0.8,0.8-1l0,0c1.6-0.7,3.4-0.1,4.4,1.3l3.2,5
							c1.1,1.8,3.8,1.4,4.4-0.7l1.1-4c0.1-0.5,0.5-1,0.9-1.3l0,0c1.4-1,3.5-0.1,3.6,1.7l0.1,1.5c0.1,1,0.6,2,1.3,2.6l2.8,2.5
							c1.3,1.1,2.9,1.8,4.7,1.8l7.2-0.1c2.5,0,4.2,2.3,3.5,4.7l-1.5,5.1c-0.6,2.1-2.5,3.5-4.6,3.5L586.2,319.5z M480.6,206.3
							l4.5-0.2c0.9-0.1,1.4-1.5,1.1-1.9c-0.1-0.1-0.2-1.1-0.4-0.9c-0.4-2.2,1.3-4.9,2.3-6.3c0.4-0.5,0.4-1.2,0.1-1.8l-1.2-2
							c-0.2-0.3-0.2-0.6-0.2-1l1.2-5c0.1-0.4,0.3-0.7,0.6-0.9l8.6-6.8c0.4-0.3,0.6-0.7,0.8-1.1l0.9-2.9c0.3-1-0.1-2-0.9-2.6
							l-1.1-0.8c-0.5-0.4-1.2-0.4-1.7-0.2l-6.9,3.1c-0.2,0.1-0.3,0.1-0.5,0.1l-3.5,0.6c-0.9,0.1-1.7-0.4-2.1-1.2l-3.4-9
							c0-0.1-0.1-0.2-0.2-0.3l-1.9-3c-0.4-0.6-1.1-0.9-1.8-0.8l-7.9,1.1c-0.3,0-0.6,0-0.9-0.1l-9.1-3.8c-0.3-0.1-0.5-0.2-0.8-0.1
							l-10.9,0.4c-0.2,0-0.3,0-0.5,0.1l-12.7,3.7c-0.4,0.1-0.7,0.3-0.9,0.6l-3.1,4c-0.6,0.7-1.7,0.8-2.3,0.2l-1-1
							c-0.5-0.4-1.2-0.4-1.5,0.2l-0.6,1l-1.1,4c-0.2,0.6-0.7,1.1-1.3,1.2l-3.9,0.8l-6.6-1.3c-0.5-0.1-1.1,0-1.5,0.2l-8.2,4
							c-0.4,0.2-0.7,0.5-0.9,1l-0.2,0.6c-0.2,0.4-0.5,0.7-1,0.9l-3.7,1.2c-0.7,0.2-1.2,0.8-1.3,1.5l-0.3,1.4
							c-0.1,0.5-0.4,0.9-0.9,1.2l-1.3,0.7l-3.9,3.8c-0.3,0.3-0.7,0.5-1.1,0.6l-4.7,1.1c-0.5,0.1-0.9,0.4-1.1,0.8l-0.6,1.1
							c-0.3,0.5-0.1,1.2,0.5,1.5l3.2,1.4l2.7,2.7c0.5,0.5,1.3,0.7,2,0.5l3.5-1.2l4.6,1.3c0.1,0,0.2,0,0.2,0.1l9.6,1.6
							c0.4,0.1,0.8,0.2,1.1,0.5l5,4.5l2.6,8.6l-0.2,2.2c0,0.4,0,0.8,0.2,1.1l0.5,0.8c0.2,0.3,0.5,0.6,0.9,0.7l0.8,0.3
							c0.5,0.2,0.9,0.6,1.1,1.1l3.4,12.5c0.1,0.3,0.3,0.6,0.5,0.9l7.1,7.1c0.3,0.3,0.6,0.4,0.9,0.5c0.8,0.2,2.4,0.4,3.2-0.1
							c0.3,1.4,1.6,2.2,2.7,2.5c0.8,0.3,1.6,0.1,2.2-0.5l2-1.9c0.3-0.3,0.5-0.7,0.6-1.1c0.1-0.8,0.3-2.2,0.5-3.3
							c0.1-0.6,0.5-1,1.1-1.1c1.6-0.2,2.1-1.3,2.3-1.9c0-0.1,0.1-0.3,0.1-0.4l0.1-2.6c0-0.6,0.4-1.2,1-1.4c1.4-0.5,9.5-3.6,11.6-4.4
							c0.3-0.1,0.6-0.3,0.8-0.6c0.2-0.4,0.9-1.1,1.3-1.5c0.2-0.3,0.5-0.4,0.9-0.5c0,0,14.5-3.3,17.2-5.6c0.4-0.3,0.8-0.5,1.3-0.5
							c0.2,0,0.4,0,0.5,0c0.5,0,1-0.3,1.3-0.8l0.7-1.1c0.2-0.4,0.3-0.8,0.2-1.2l-0.7-3.9c0,0,0-0.1,0-0.1
							C479.7,208.8,479.5,206.4,480.6,206.3L480.6,206.3z M499.3,232.6c0,0,8.4-1.6,5.4-6.2c-3.5-5.6-8.3-0.2-13.7-0.7
							c-3.1-0.3-5.3-3.6-7.2,1.2c-2.5,6.2,3,4.7,5.6,6C492.2,234.2,495.9,238.4,499.3,232.6C499.4,232.5,499.3,232.6,499.3,232.6z
							 M648.7,448.7L648.7,448.7c-1.4-1.2-3.5-1.2-5,0l-2.9,2.4l-3.8,4.6c-0.1,0.1-0.2,0.2-0.2,0.3l-2,2.2c-0.9,1-1.4,2.2-1.4,3.6
							l0.1,5.3l-0.3,12.8c0,0-0.9,3.3,2.7,3.8c1.4,0.2,3,1.2,4.4-0.4c1.6-1.9,3.8-7.3,3.8-7.3l4.9-17.6c0.1-0.4,0.2-0.8,0.2-1.2
							C649.2,455.4,649.4,451,648.7,448.7C648.2,447.4,648.7,448.7,648.7,448.7z M788.4,440c0.3-0.4,0.5-0.8,0.8-1.2
							c-0.3-0.1-0.6-0.1-1-0.2c0.3,0,0.6,0.1,1,0.1c0.3-4.6-6.4-5.7-9.6-6.1c-2.1-0.3-3.2,1-5.9-0.1c-1.4-0.6-1.9-1.6-4.2-2.6
							c0-1.9,2.2-6.8,1.8-8.3c-0.7-2.4-1.6-1.3-2.6-2.7c-2.4-3.7-14.9-4-12.3,1.5c2.4,5.3,7.5,8.5,11,12.9c4.2,5.4,3.5,2.4,9.6,3.8
							C779.9,437.7,784.5,442.1,788.4,440C788.8,439.8,788,440.2,788.4,440z M844.3,307.4l-2.1,3.9c-0.3,0.5-0.6,0.9-1.1,1.2
							c-0.8,0.6-2.4,1.6-3.8,2.1c-2,0.7-4.1-1.4-5.9-0.7c-1.6,0.5-2.4,2.2-2.9,3.5c-0.3,1-1.1,1.7-2.1,2l-0.8,0.2
							c-1,0.3-1.8,1.1-2,2.1l-0.6,2.8c-0.2,0.8,0,1.7,0.4,2.4l0.1,0.2c0.6,0.9,1.6,1.4,2.6,1.2l2.3-0.3c0.4,0,0.7-0.3,0.7-0.7l0,0
							c0.3-1.2,1.3-2.1,2.6-2.2l1.5-0.1c0.6-0.1,1.2-0.3,1.7-0.7c0.6-0.5,1.4-0.6,2.1-0.4l0,0c0.3,0.1,0.6,0,0.8-0.1l7.8-5.1
							c0.5-0.3,0.8-0.7,1.1-1.2l2.9-4.7c0.3-0.5,0.5-1.1,0.5-1.7l0.2-7.1c0-0.4,0-0.8-0.2-1.2l-0.1-0.4c-0.5-1.4,0.4-2.9,1.9-3.2
							l5-1c0.6-0.1,1.1-0.4,1.6-0.8l0.7-0.7c0.9-0.9,1-2.2,0.3-3.3l0,0c-0.3-0.4-0.7-0.8-1.2-1l-5.1-2.5c-0.5-0.3-1.1-0.3-1.7-0.2
							l-1.4,0.3c-0.6,0.1-1.2,0.5-1.6,1l-3.7,4.4C843.8,298.8,846,303,844.3,307.4C843.7,308.8,844.3,307.4,844.3,307.4z
							 M786.1,399.4c-1.3,2.3-3.9,3.3-5.3,5.2c-0.6,0.8-1.7,1.2-2.7,0.9c-3.4-1.1-2.6,4.7-1.9,7.7c1.4,5.7,3.8,8.4,9.1,9.8
							c3.7,1,6.9,1.7,8.6-1.8c0.7-1.3-0.1-4.3,0.6-6c0.8-2.2,3.2-3.2,3.6-5.7c0.5-3-2.4-5.5-1.9-8.1c0.4-2,3.1-1.4,3.1-3.9
							c-0.1-1.9-1.9-0.5-2.1-1c0,0.1-0.9-2.1-1.5-3.6c-0.7-1.8-3.2-2-4.2-0.4c-0.7,1.1-0.9,2.8-0.5,4.5
							C789.1,397.2,787.2,397.4,786.1,399.4C785.8,399.9,786.8,398.2,786.1,399.4z"/>
					</defs>
					<use xlink:href="#SVGID_14_"  overflow="visible" fill="#388E3C"/>
					<clipPath id="SVGID_1_">
						<use xlink:href="#SVGID_14_"  overflow="visible"/>
					</clipPath>
				</g>
				<g clip-path="url(#path3924_1_)">
					<g>
						<defs>
							<path id="SVGID_6_" d="M677,192.9c3.9,1.2,11.1,7.7,14.2,4c3.1-3.7-2.7-8.1,0.6-12.3c4.9-6.4,20.3,3.2,24-4.1
								c5.2-10.5-20.3-6.2-23.7-4.9C690.1,176.3,670.2,189.7,677,192.9C680.6,194,670.6,190,677,192.9z M296.6,190.1
								c-4.2-0.8,2.3-11.5-5.8-8.4c-3.4,1.3-6.3,6.7-7.9,7.3c-3.6,1.3-4.7-2.7-9-1.3c-4.3,1.3-9.3,5.6-13.3,8.8
								c-1.4,1.1-1.2,2.5-2,3.1c-1.2,1-2.6,0.7-3.6,1.5c-2.8,2.3-6,3.8-7.8,7.1c-0.4,0.7-1.2,3.3-1.3,3.5c-0.5,1,3-0.4,2,1.1
								c-1.7,2.7-15.8,3.7-18.9,4.3c-2.3,0.5-4.3,0-6.7,0.6c-3.2,0.8-5.1,2.9-8.7,3.6c-4.2,0.8-10.2-0.4-14.4-0.2
								c-5.5,0.3-11.9,1.3-16.8,0.9c-2.8-0.2-7.3-2.6-10.5-1.6c-3.5,1-8.7,4.1-13.6,6.2c-2.6,1.1-12.8,5.1-14.7,7.2
								c-2.5,2.8,1.8,3.9,3.6,5.1c-1.2-0.9-7.9-0.5-11.8,2.4c-9.2,6.9,0.6,4.6-0.1,7.8c-0.4,2.1-8,6.5-6.9,9.9
								c0.8,2.3,5.8,0.8,7.8,1.1c-0.9-0.1,3.5,1.7,3.2,1.6c0.5,0.2,3.6-1.7,4.1-0.7c1.2,2.7-10.3,6.4-13.4,8.7
								c-10.8,7.8,6.8,1.3,12.1-0.7c2.9-1.1,6.2-2.3,9.1-3.5c2.3-1,3.9,0.1,6.4-1.9c2.9-2.3,1.1-3.7,3.1-5.9
								c8.3-8.6,21.7-6.3,28.6-5c6.1,1.2,9.9,4.5,12.7,9.1c1.7,2.9,0.1,8.5,3.5,10.2c2.9,1.4,4.7-1.3,7.1,1.7
								c2.7,3.4,6.3,11,6.9,15.9c1,8.6-7.4,17.4-2.4,25.1c3.1,4.8,8.6,8.3,11.7,13.4c2.1,3.5,3.8,8,5.4,11.9c1.2,3,0,8.4,1.2,10.4
								c1.2,1.8,6.2,1.9,8,3.3c2.4,1.9,2.7,6.5,5.2,7.9c3.1,1.8,5.6-1.2,7.9,0c4.5,2.3,4.1,10.3,8.1,13.6c2.9,2.4,7.9,3,11.2,5.1
								c2.1,1.3,3.8,4.1,6,5.1c3.9,1.8,5.3-0.3,9.4,0.6c4.3,0.9,9.5,6.3,13.8,8.4c5.3,2.5,5.2,1.7,8.4,6.4c2.3,3.3,2.3,6.8,6.8,9.1
								c4.8,2.5,24.7,2,16.9,12c-5.3,6.9-11.4,3.6-13.2,13.5c-0.8,4.5,1,6,1.1,10.3c0.1,3-2.2,4.8-2.2,6.6c0.1,5.5,2.4,5.3,6.3,10.4
								c6.1,8.1,5.9,19.5,13.3,26.8c11,10.8,25.2,9.8,25.3,26.8c0.1,7.9-0.7,14.8,1,22.8c0.8,3.9,2.8,8.6,3.1,12.3
								c0.2,3.4-1.9,6.2-1.5,9.6c0.7,6.4,5.5,13.2,6.2,20.3c0.2,2.7-1,5.1-0.6,7.7c0.7,4.1,3.4,9.5,5,13.8c2,5.3,4.9,13.1,9.4,17.8
								c4,4.2,17.9,13,16.1,5.9c-0.8-3.1-5.3-7.3-6.7-10.5c-1.8-3.9-1.8-6.1-2.1-9.9c-0.7-8.6,1.1-12.9,4.8-19
								c7.2-11.5,12.7-23,19.5-36.4c2.3-4.6,5.9-8.5,7.8-13.4c1.4-3.7,1-9.2,3.6-12.2c3.6-4.3,9.6-3.5,12.1-9.7
								c3.1-7.5,1.4-17.5,4.1-25.3c2.4-7,9.2-15.9,8.5-23.9c-1.7-21.7-34.3-16.4-43-30.3c-4.8-7.8-5.5-12.9-14.5-18.1
								c-3.3-1.9-7-2.3-10.1-4.5c-2.6-1.8-4.6-3.5-6.1-6.2c-0.9-1.6,1.2-4.6-0.2-6c2.2,2.2-7.5-0.2-5.2-0.2c-1.8,0-4.4,0-6-0.1
								c0.1,0-9,0.7-8.1,1.1c-1.3-0.5-2.1-3.6-2.7-3.8c-4.3-1.4-8.1-2.9-12.2-1.5c-4.3,1.5-6.1,8.5-10.1,9.9
								c-1.4,0.5-9,0.5-10.7,0.2c-5.9-1.2-6.2-2.6-6.8-7.8c-0.5-4.6,3.7-9.2-1-13.4c-3.8-3.4-8.7-0.1-10.9-4.6
								c-1.8-3.8,4.8-11.2,1.5-14.8c-4.4-4.8-9.7,2.6-12.1,4.1c-3.9,2.5-6.1,6.2-11.9,3c-4.4-2.4-3.9-5-3.8-9.4
								c0.1-7.9-0.9-14.6,7.1-18.1c3.8-1.7,8.2-2,12.1-3.5c2.6-0.9,5.4-3.3,7.8-3.7c8.8-1.3,10.2,5.3,13.8,10.1
								c8.1,10.8,5.8-3.3,6.5-8.2c1-7.9,8.1-11.6,12.7-18.5c3.8-5.7,4.4-15.4,9.5-19.4c3.7-2.9,7.3-1.9,10.6-5.9
								c0.6-0.8-0.8-3.6,1-5.5c1.8-2,4.3-3,6.7-3c1.9,0,1.8,3.3,4.3,3.4c2,0.1,2.3-0.7,4.4-1.1c3.1-0.7,5.8-2.4,8.2-4.5
								c6.6-6,3.3-9,13.6-8.5c5.8,0.3,10,1.3,8.8-5.4c-0.9-5.2-7.1-4-8-6.4c-0.8-2.2,4.3-6.7,3.8-9.8c-0.1-0.3-5.7-7-6.1-7.3
								c-3-2.3-5.3-2.3-7.4-5.6c-1.5-2.3-2.2-10-5-11c-4.9-1.7-3.8,4.1-7.5,4.5c-4.1,0.5-3.3-2.4-4.6-3.4c-3.6-2.6-9.4-7.3-15.7-6.1
								c-5,1-6.8,4.7-8.8,9.4c-2.3,5.2-1.3,0.8-1.3,5c0,3.9,2.8,4.6-0.3,8.6c1-1.4-7.5,3.3-6,2.6c-4.8,2.1-2.7,3-6.5,1.1
								c-1.6-0.8-1.7-3.2-3.6-4c-2-0.8-5.4-0.2-7.7-0.8c-4.6-1.2-16.4-4.4-13.5-10.8c1.2-2.6,8.6-8,10.7-9.2
								c5.2-2.9,6.4-1.2,11.3-1.4c3.2-0.2,13.8-0.4,15.5-3.1c2.3-3.6-5.5-3.7-4.9-6c0.7-2.7,2-0.7,3.1-3.3c0,0,2.6-1.9,3.1-2.7
								c0.9-1.6,0.1-5.5-0.3-4.8c2-2.9,9.4-3.4,10.5-1.1c1,2.1-1.7,4.2-3,6.5c-0.3,0.6,0.9,1.2,0.4,2.1c-0.6,0.9-2.1,0.5-2.5,1.6
								c-1.4,3.8-2.8,4.6-0.4,6.9c2.6,2.4,10.5-0.1,14.3,1.1c5.2,1.7,9.3,7.3,15.9,2.5c5.5-4.1,1.3-3,2.2-7.4
								c1.4-6.9-3.9,0.4,5.7-2.5c12.5-3.8-1.3-9.2-3.6-11.3c-2.5-2.1-1.9-5.6-3.9-7.9c-1.7-1.9-5.3-1.7-7.9-2.2
								c-5.9-1.1-9.7-5-15.2-6.2c-4.2-1-9.8,1.6-14.6,1.9c-4.9,0.3-9.7-0.5-14.4-0.7C321.8,190.7,309.1,190.3,296.6,190.1z M323,199
								C323.2,198,323,198.8,323,199C323,199,323,199,323,199z M904.3,557.1c-5.5,2.1-11.7,4.9-7.2,8.5
								C902.1,569.5,910,553.7,904.3,557.1z M890.3,403.4c-8.5,1.1-3,11,3.9,9.5c3.9-0.8,7-5.2,4.7-8.5
								C895.9,400.2,894.9,404.4,890.3,403.4z M938.5,493.8c-4.8-6.1-6.1-10-7.1-18.6c-0.8-6.6-2.1-17.6,9.1-14.3
								c2.9,0.9,4.5,6,8.2,0.5c2.5-3.8-2.5-7.7-4.2-10c-5.5-7.2-9.1-12-19.9-14.3c-4.7-1-17-4.2-19.3,1.6c-0.7,1.7,2.6,6.5,3.7,7.7
								c3.2,3.5,8.2,3.2,10.2,7.4c0.9,1.9-0.6,3.7,0.8,5.9c0.4,0.7,2.9,0.9,3.7,1.6c3.7,3.3,3.1,5.7,1.6,10.8
								c-1.8,6.3-8.2,20.5-13.4,10c-1.7-3.3,2.5-6.5,1.3-9.3c-0.9-2.2-7-2.7-9.5-2.3c-3.8,0.5-2.1-0.8-6.6,2.3
								c-1.3,0.9-4.2,3.8-5.1,4.3c-2.4,1.3-3,0.9-5.1,1.6c-6.3,2-6.3,1.8-11.6,7c-2.9,2.8-6.2,7.5-8.7,9.7
								c-6.8,5.7-18.2,6.2-23.6,14.4c-4.4,6.7-4.7,17.4-4.1,23.3c0.4,3.8,0.2,6.4-1.1,10.4c-1.4,4.2-6.5,8.7-0.6,9.3
								c10.6,0.8,39.3-27.6,45.4-14.9c1.6,3.3-1.9,6.4,2.4,7.6c5,1.4,6-1.6,7.3,3.9c1.2,5.1,2.2,6.1,9.4,4.4c4.9-1.1,8.5-1.8,14-6.3
								C939.5,528,940.5,511,938.5,493.8z M876.2,471.8c0.1,3.6,16-4.1,13.9-8.8c-1.1-2.5-7.6-0.3-9.8,1.4
								C877.7,466.5,877,468.5,876.2,471.8C876.3,476.3,877.4,466.8,876.2,471.8z M961.4,549.3c-3.6,2.5-13.3,8.1-15.8,10.9
								c-2.5,2.8-3.1,7,0.7,5.7c3.1-1,13.3-10.1,16.5-12.5c5-3.7,7.8-4.5,12.4-7.6c11.4-7.3,9.4-18.7,2.8-14.5
								c-0.8,0.6-4.6,7.6-5.4,8.8C967.7,547.3,968.6,544.3,961.4,549.3z M885.1,451.1c8.4,2.5,6.8-17.3-1.7-14.6
								c-3,1-7.1,7.4-5.2,9.9c1.5,2.1,4.7-0.3,6,0.7C885.3,448.1,883.5,449.8,885.1,451.1z M729.4,190.9c-5.2-10.2-12-1.6-13.2,2.8
								c-1.4,5.4,3.5,10.5-2.5,9.6c-2.5-0.4-5.3-3.9-7.8-4.4c-3.8-0.8-3.8,0.6-6.9,1.4c-5,1.3-9.7,1.7-15.4,1.9
								c-4.2,0.1-8.3,0.4-12.5,0.1c-3-0.3-5.5-1.1-8.3-0.5c-3.4,0.7-3.1,3.6-7.6,3c-9.6-1.4-19.3-9.9-28.8-12.1
								c-9.1-2-22.1-3.9-30.2,1.6c-4.3,2.9-5.2,8.7-8.9,12.5c-4.1,4.2-10.6,5-15,8.8c-4.1,3.5-8.1,9.5-7.1,15.8
								c0.4,2.5,2.3,4.5,3.5,6.5c2.6,4.5,3.2,0.6,2,6.8c-0.9,4.8-4.5,10.3-10.3,11.3c-6.5,1.1-9.8-6.4-12.4-11.8
								c-2.8-5.8-3.7-12.9-11-9.7c-3.5,1.6-3,2.6-4.9,5.7c-0.5,0.8,0.9,1.8-0.3,3.6c-1,1.5-3.9,2.1-4.7,3.4
								c-4.2,7-4.2,10.6,3.4,13.1c3.2,1.1,5.8-2.4,8.1,3c1.3,3.1,0.2,5.3-2.1,7.9c2.9,1.6,5.8,4.2,6.4,7.6c1.3,7.2-2.5,4.9-6.6,6.9
								c-8.3,4.1-15.5,11.4-11.8,21.6c1.8,5.1,5.1,3.2,4.4,9.9c-0.4,3.7-3.1,8.3-4.4,11.8c-3.2,8.6-7.9,12-13.4,19.2
								c-3.9,5.2-7,12-7.3,18.5c-0.2,3.7,1.6,7.4,1.6,11.1c0.1,4.4-1.6,8.5-2,12.9c-0.8,11.5,6.8,9.1,12.2,17.6
								c3.8,6,3.4,19.5,14.2,18.2c2.2-0.3,4.6-3.2,6.7-4.1c3.6-1.5,7.9-2,11.8-2.4c8.9-1,12,1.3,19.4,5.1c2.5,1.3,6.7,0.8,8,3.3
								c1.9,3.7-2,9.9-2.1,13.6c-0.2,8.5,6.8,14.8,9,22.8c4.2,15.5-4.5,28.5,0,42.9c2.2,6.9,4.8,13.2,5.8,20.3
								c1.2,8.1,3.6,13.2,5.8,20.8c2,7.3,0.1,12.8,8.6,14.3c8.5,1.5,14.2-4.5,20.8-10c10.7-8.7,17.2-24.1,20.7-37.6
								c1.2-4.4,1.1-6.3,3.7-10.1c2.3-3.3,6.3-5.3,8.4-8.8c5.9-9.8,2.5-19.2,2.7-29.1c0.1-7.5,4.2-14.9,7.4-21.8
								c3.3-7.2,8.4-10.1,13.1-16.2c3.6-4.8,6.6-11.1,8.4-16.7c1.5-4.6,3.5-8.4-1.8-11.5c-5.5-3.2-9.8,3.5-14.4,1.2
								c-10.1-5,13.9-11.3,16.6-12.7c6.5-3.4,15.9-8.7,20.4-14.5c1.4-1.8,4.1-6.7,4.3-8.9c0.4-5.6-1.4-4.2-4.4-8.1
								c-1.4-1.8-6.2-7.6-4.7-10.1c2.3-3.8,7.8,2.4,10.6,4.2c7.8,4.7,12.8-1.4,19.4,4.1c3.4,2.8,3.9,7.6,7,9.9
								c5.2,4,4.2-0.9,6.7,5.2c2.2,5.5,1.6,12.5,3.5,18.4c1.6,4.6,4.1,16.6,7.7,19.4c7.5,5.7,10.2-7,11-11.5
								c1.8-9.5,4-11.6,10.7-19.1c3.1-3.5,10.3-15.1,16.7-13.4c4.3,1.2,4.4,5.5,6,8.7c0.8,1.5,1,4,2,5.3c3,3.7,3.4,1.8,6.7,4
								c5.6,3.7,7.1,12.6,7.6,19.8c0.2,3-1.2,5.3-0.6,8.5c0.9,4.2,3.8,8.5,5.5,12.3c1.4,3.1,6.2,16.8,10,6.8
								c1.8-4.6-4.8-13.4-6.5-17.7c-1.5-4.2-6.6-19,2.1-12.5c2.3,1.7,2.5,5.7,5.4,6.9c5.3,2.2,10.5-2.9,13-6.8
								c4.2-6.7,1.8-12.9-1.8-19c-1.6-2.7-5.4-6-4.9-8.9c1.4-8.7,4-2.3,5.8-1.1c1.3,0.8-0.4,2.2,1.2,3c3.2,1.7,4.9,0,7.3-1.5
								c2.1-1.4,3.2-4.9,4.9-6.8c5.2-5.6,13.9-9.2,18-15.2c4-5.8,3.5-13.1,0.9-19.7c-2-5-2.8-4.4-1.7-9.6c0.1-0.6,1.7-1.3,2-2.1
								c0.6-1.6-0.7-4.1-0.1-5.7c3.5-10.2,8.4,8.9,12.4,11.4c13.9,8.6,4.3-11.2,3.8-13.5c-1.7-9.4,7.2-9,13.4-11.6
								c6.1-2.5,7.7-8.8,9.8-13.9c4.1-10.6,3.7,4.1,9.7,6.3c5.4,1.9-0.3-14.1-2.1-17.2c-1.6-2.8-2.5-5.5-5.5-7.8
								c-2.2-1.6-7.7-1.2-9.6-2.9c-4.3-3.7,2.2-11.3,6.2-12.4c4.6-1.2,12.9,0.6,18.6,1.4c3.2,0.4,5.3,0.9,7.7,0.3
								c2.9-0.8,4.4-4.7,7.7-4.7c13.7,0,0.3,8.5-0.7,10.9c-1.3,3.9,2,14.1,6,18.8c6.3,7.4,7.7-1.6,9.8-5.9c2.3-4.7,4.1-9.6,6.2-14
								c3.4-7.6,22,0,27.8-6c2.5-2.5-1.6-12.2-6.5-16.9c-6.1-5.9-17.6-8.9-23.2-9.3c-4.3-0.3,2.1,2.6-3.2,1.9
								c-3.4-0.5-3.7-1.6-6.9-2.6c-4.1-1.3-6.4-1.4-10.2-2c-6.9-1.1-14-5-21-6c-4-0.6-6.8-0.2-11.5-2.5c-3.3-1.7-4.1-4.4-8.6-6
								c-2.5-1-6.2,0.3-9.1-1.8c-3.5-2.6-2.3-5.3-6.7-8.6c-1.7-1.3-7.9-3.3-9.6-3.4c-5.3-0.4-3.1,1-2,5c0.6,2.2,5.7,8.1,2.9,9.6
								c-1.3,0.7-7.5-1.9-9.7-2.2c-0.2,0-7.2-0.7-6-0.3c-5.9-2.3,4.4,3.4-2.1-0.3c-4.3-2.4-5-7.1-10.5-9.2
								c-6.4-2.6-10.8,1.4-16.4,0.9c-2.8-0.3-9-1.6-12-3.2c-5.9-3.1-5.1-6.1-9.4-9.2c-4.2-3-17.7-5.7-21.9-6.1
								c-5.3-0.6-10.1,2.2-15.3,2.5c-5.8,0.4-11.6,0.3-17.1,1.3c-7.2,1.4-14.4,3.7-22.1,4.3C738.2,189.3,732.8,187.4,729.4,190.9z
								 M609.6,237.9c-9-1.2-4.1,13-14.9,10.2c-7.7-2,0.2-5.3,1.3-11.7c0.8-4.3-0.2-22.8,9-14c0.5,0.5,3.4,7.2,3.9,7.9
								C609.4,231,616.3,237.2,609.6,237.9z M609.9,325.4c-4.9-1.1-7.1,5.4-12.8,4.4c-3.4-0.6-8.1-4.2-11-5.9
								c-4.8-2.8-4.7-3.4-7.1-8.3c-2.5-5.1-3.1-6.8-9.7-7.1c-4.3-0.3-18.3,5.5-20.6,1.9c-2.2-3.4,8.9-15.5,11.4-17.5
								c3.1-2.4,6.5-3.9,11-3.8c6,0.2,5.5,1.8,10,5.6c2.5,2.1,6,4.5,8.8,6.1c1.7,1,1,2.7,3.3,3.2c3.2,0.6,2.4-3.4,4.2-3.4
								c6.7-0.2,4.6,4.3,9,7.3c6.3,4.4,3.9-1.2,6.9-4.4c4.6-4.8,4.2-0.4,6.7,3.4c2.9,4.3,6.1,6.3,11.1,7.1c6.1,1,11.8-2.3,12.4,6.3
								c0.3,4.7-3.1,9.4-7.4,10.1C629,331.5,617.3,326.8,609.9,325.4z M488.7,185.2c8,0.9,7.9-8.9,9.1-15.3c1.8-9.8,2.9-9,9.8-16.5
								c4.1-4.5,7.3-11.6-0.2-10.7c-6,0.8-9.3,8.1-13,0.9c-3.7-7.5,0.3-13.4-9-12.9c-5.9,0.3-8.9-2.6-14.3-3.3
								c-5.2-0.7-11.6,1.5-17.2,3.8c-6.3,2.6-10.6,6.5-15.7,9.6c-0.3,0.2-0.9-1.9-2.4-0.8c-1.2,0.9-1.2,3-2.1,3.8
								c-3.3,3-3.2,4.8-7.8,5.2c-7.6,0.8-9.4,0.3-17.9,5.8c-5.4,3.5-9.1,7.7-14.2,12.2c-4.7,4.2-13.2,5.5-12.2,10.5
								c1.1,5.6,10.5,3.2,15.1,3.8c6,0.9,12.4-0.1,15.1,6.2c2,4.5-0.4,11,0.7,15.6c0.3,1.5,2.3,2.3,2.8,3.9c1.3,4-0.3,9.6,1.1,13.6
								c1,2.8,3.9,7,6.4,8.5c2.3,1.4,7.1,4.5,9.6,4c2.4-0.5,3.3-2.5,4.9-4.2c0.7-0.8,1.2-3.7,1.8-4.7c0.8-1.4,2.6-1.5,3.6-3.1
								c3.5-5.2,2-5.5,8.8-8.4c4.4-1.8,7.6-4.7,11.4-6.6c4.6-2.3,9.9-2.8,14.7-4.9c2.5-1.1,8-2.8,9.5-5.5
								C487.8,194.3,486.5,185.6,488.7,185.2z M506.9,217.3c3.9-0.7,8.3-3.3,6.7-7.9c-1.6-4.7-14.5-2.1-18-1.2c-3,0.7-3.8-2-6,2.4
								c-2.5,5-0.1,4.4,2.3,6.4C495.7,220.1,503.5,223.2,506.9,217.3z M684.3,485.5c-4.9-3.8-16.7,8.9-19,14
								c-1.8,4.1-3.9,21.8-2.9,25.4c4,14.8,13.9-7.4,16-13.2C681.4,503.7,686.4,491.9,684.3,485.5z M855,468.6
								c1.7-1.2,1.7-1.8,0.1-1.6c3.2,0.2-3.8-5.8-7.1-6.2c-3.8-0.4-12.6,1.6-14.1-2.9c-1.3-3.9,4.7-7.7,1.8-11.9
								c-1.9-2.8-6.7-4.4-10.5-3.7c-13.6,2.6,2.6,19,7.4,22c3.1,1.9,6.6,1,10.4,1.9C846.7,467.2,850.1,471.2,855,468.6
								C855.4,468.2,854.5,468.9,855,468.6z M927.4,318.6c-0.7,2.3-1.7,4.7-3.8,6c-3.9,2.6-8.1-0.4-11.8,1.3
								c-2.9,1.3-10.6,9.5-6.7,13.6c3.7,3.8,11.4-1.7,15.2-2.8c4.9-1.5,9.9-3.8,12.9-7.6c4-5.2,0.2-9.6,1-15.2c0.7-5.6,9.4-2,10-6.8
								c0.6-5.2-11.1-8.2-14.7-6.2C923.8,304,926.8,316,927.4,318.6z M858.5,421.9c-1.5,2.1-4.8,4.7-7.2,6.1
								c-0.5,0.3-5.4,1.2-5.4,1.2c-3.2,3.4-1.5,11.2,0.3,14.3c2.2,3.6,7.8,6.9,12.9,6.1c7.9-1.3,6-5.8,8.8-11.2
								c1.1-2,3.7-3.3,4.4-5.5c1-3.4-1.9-5.9-1.3-9.3c0.4-2.4,4.3-1.7,4.2-4.5c-0.1-2.7-2.1,0.1-2.5-1c-2.4-6.5-2.9-6-7.6-2
								c0,0.9,0,1.9-0.1,2.8c-2-0.1-3.7,0.5-5,1.8C857.2,422.5,858.9,421.2,858.5,421.9C856.6,424.6,859.4,420.5,858.5,421.9z"/>
						</defs>
						<use xlink:href="#SVGID_6_"  overflow="visible" fill="#FFFFFF"/>
						<clipPath id="SVGID_2_">
							<use xlink:href="#SVGID_6_"  overflow="visible"/>
						</clipPath>
					</g>
				</g>
			</g>
		</g>
		<g>
			<g>
				<g>
					<path fill="#DCD139" d="M660,530.7v-7.1c0-2.7,2.6-4.8,5.8-4.8h3.5v12H660z"/>
				</g>
				<g>
					<path fill="#422933" d="M666.5,544.8c-3.1,0-5.6-2.2-5.6-4.8v-9.4h8.3v14.2H666.5z"/>
				</g>
			</g>
			<g>
				<g>
					<path fill="#DCD139" d="M737.2,530.7v-12h3.5c3.2,0,5.8,2.2,5.8,4.8v7.1H737.2z"/>
				</g>
				<g>
					<path fill="#422933" d="M737.2,544.8v-14.2h8.3v9.4c0,2.7-2.5,4.8-5.6,4.8H737.2z"/>
				</g>
			</g>
			<g>
				<path fill="#D75E3C" d="M679.1,553.5c-5.9,0-10.7-4.2-10.7-9.3v-45.9H738v45.9c0,5.1-4.8,9.3-10.7,9.3H679.1z"/>
			</g>
			<g>
				<g>
					<path fill="#422933" d="M683.1,544.8c-3.1,0-5.6-2.2-5.6-4.8v-9.4h51.3v9.4c0,2.7-2.5,4.8-5.6,4.8H683.1z"/>
				</g>
				<g>
					<path fill="#F4F1ED" d="M679,534.2l0.3-3.5h2.7l0.3,3.5c0.1,0.9-0.7,1.6-1.7,1.6l0,0C679.6,535.8,678.9,535,679,534.2z"/>
				</g>
				<g>
					<path fill="#DCD139" d="M676.6,530.7v-7.1c0-2.7,2.6-4.8,5.8-4.8h41.7c3.2,0,5.8,2.2,5.8,4.8v7.1H676.6z"/>
				</g>
			</g>
			<g>
				<path fill="#DCD139" d="M677.4,504.7c-3,0-5.9-1.1-7.9-3.1c-2-2-3-4.6-2.6-7.2l3-23c0.6-4.7,5.1-8.2,10.5-8.2h45.5
					c5.4,0,9.9,3.5,10.5,8.2l3,23c0.3,2.6-0.6,5.2-2.6,7.2c-2,2-4.9,3.1-7.9,3.1H677.4z"/>
			</g>
			<g>
				<g>
					<g>
						<polygon fill="#422933" points="681,511 681,492.4 688.5,492.4 688.5,511 684.8,515 						"/>
					</g>
				</g>
				<g>
					<g>
						<polygon fill="#422933" points="718,511 718,492.4 725.4,492.4 725.4,511 721.7,515 						"/>
					</g>
				</g>
			</g>
			<g>
				<path fill="#422933" d="M703.2,490.3c-0.4,0-0.7-0.1-1-0.4l-5.9-5.1c-0.3-0.2-0.4-0.5-0.4-0.9s0.1-0.6,0.4-0.9l5.9-5.1
					c0.3-0.2,0.6-0.4,1-0.4c0.4,0,0.7,0.1,1,0.4l5.9,5.1c0.3,0.2,0.4,0.5,0.4,0.9s-0.1,0.6-0.4,0.9l-5.9,5.1
					C703.9,490.2,703.6,490.3,703.2,490.3z"/>
			</g>
			<g>
				<g>
					<path fill="#F4F1ED" d="M676,466.4c-4.8,0-8.7-3.4-8.7-7.6V455c0-4.2,3.9-7.6,8.7-7.6h54.4c4.8,0,8.7,3.4,8.7,7.6v3.8
						c0,4.2-3.9,7.6-8.7,7.6H676z"/>
				</g>
				<g>
					<path fill="#D75E3C" d="M683.8,468.3c-0.9,0-1.6-0.6-1.6-1.4v-20c0-0.7,0.7-1.4,1.6-1.4h0.4c0.9,0,1.6,0.6,1.6,1.4v20
						c0,0.7-0.7,1.4-1.6,1.4H683.8z"/>
				</g>
				<g>
					<path fill="#D75E3C" d="M721.5,468.3c-0.9,0-1.6-0.6-1.6-1.4v-20c0-0.7,0.7-1.4,1.6-1.4h0.4c0.9,0,1.6,0.6,1.6,1.4v20
						c0,0.7-0.7,1.4-1.6,1.4H721.5z"/>
				</g>
			</g>
		</g>
		<g>
			<g>
				<path fill="#F4F1ED" d="M186.3,558.7c-0.1,0-0.1,0-0.2,0s-0.1,0-0.2,0l-23.7,8.8v-63l23.8-8.8l24.2,8.9c0.1,0,0.1,0,0.2,0
					c0.1,0,0.1,0,0.2,0l23.7-8.8v63l-23.8,8.8L186.3,558.7z"/>
			</g>
			<polygon fill="#DCD139" points="210.5,567.6 210.5,504.6 186.1,495.6 186.1,558.6 			"/>
			<g>
				<path fill="none" stroke="#41AEB5" stroke-width="2" stroke-miterlimit="10" stroke-dasharray="2,4" d="M169.3,516.7
					c-2.5,4.6-5.5,13,1.8,18.6c3.1,2.4,9.1,3.8,15.1-3.8c0,0,6.6-12.1,10.4-13.6c8.1-3.3,14.2,8.4,14.2,21.2
					c0,24.1,12.1,21.4,15.2,14.6"/>
			</g>
			<g>
				<circle fill="#422933" cx="171.2" cy="513.2" r="2.8"/>
			</g>
			<g>
				<path fill="#D75E3C" d="M228.2,544.2c-0.5,0-1,0.2-1.4,0.6l-2,2l-2-2c-0.4-0.4-0.9-0.6-1.4-0.6c-0.5,0-1,0.2-1.4,0.6
					c-0.8,0.8-0.8,2.1,0,2.9l2,2l-2,2c-0.8,0.8-0.8,2.1,0,2.9c0.4,0.4,0.9,0.6,1.4,0.6c0.5,0,1-0.2,1.4-0.6l2-2l2,2
					c0.4,0.4,0.9,0.6,1.4,0.6c0.5,0,1-0.2,1.4-0.6c0.8-0.8,0.8-2.1,0-2.9l-2-2l2-2c0.8-0.8,0.8-2.1,0-2.9
					C229.3,544.4,228.7,544.2,228.2,544.2L228.2,544.2z"/>
			</g>
		</g>
		<g>
			<g>
				<g>
					<path fill="#422933" d="M690.9,315.8c0,4.4-3.6,8-8,8h-56c-4.4,0-8-3.6-8-8v-30.2c0-4.4,3.6-8,8-8h56c4.4,0,8,3.6,8,8V315.8z"
						/>
				</g>
				<path fill="#D75E3C" d="M637.1,277.6h-6.3v0c0-1,0.8-1.8,1.8-1.8h2.6C636.3,275.7,637.1,276.6,637.1,277.6L637.1,277.6z"/>
			</g>
			<path fill="#37474F" stroke="#263238" stroke-width="8" stroke-miterlimit="10" d="M690.9,299.2"/>
			<path fill="#37474F" stroke="#263238" stroke-width="8" stroke-miterlimit="10" d="M618.9,299.2"/>
			<ellipse fill="#D75E3C" cx="668.4" cy="300.7" rx="13.5" ry="13.8"/>
			<ellipse fill="#F4F1ED" cx="668.4" cy="300.7" rx="9" ry="9.2"/>
			<path fill="#F4F1ED" d="M636.4,294.2h-5c-1.1,0-2-0.9-2-2v-3.4c0-1.1,0.9-2,2-2h5c1.1,0,2,0.9,2,2v3.4
				C638.4,293.3,637.6,294.2,636.4,294.2z"/>
		</g>
		<g>
			<g opacity="0.2">
				<path d="M628.4,462.2c-21.7-13.7-81.2-22.9-108.3-22.1c-90.8,2.8-164.5,54.8-243.3,47.1c-20.2-2-48.7-9.6-53.4-22.2v-87.7
					c0,20.5,30.8,24.1,49,24.1c82.1,0,145.3-48.4,253.9-48.4c19.9,0,82.8,4,102.1,21.4V462.2z"/>
			</g>
			<g>
				<g>
					<path fill="#D75E3C" d="M628.4,458.2c-21.7-13.7-81.2-22.9-108.3-22.1c-90.8,2.8-164.5,54.8-243.3,47.1
						c-20.2-2-48.7-9.6-53.4-22.2v-87.7c0,20.5,30.8,24.1,49,24.1c82.1,0,145.3-48.4,253.9-48.4c19.9,0,82.8,4,102.1,21.4V458.2z"/>
				</g>
			</g>
		</g>
		<path id="SVGID_x5F_3_x5F_" fill="none" d="M223.4,427.3c0,20.5,30.8,32.4,49,32.4c82.1,0,145.3-45.6,253.9-45.6
			c19.9,0,82.8,4,102.1,21.4"/>
		<text>		<textPath  xlink:href="#SVGID_x5F_3_x5F_" startOffset="4.000000e-03%">
<tspan  fill="#F4F1ED" font-family="'MoonFlowerBold'" font-size="45.004px" letter-spacing="50.8">New Zeland!</tspan>		</textPath>
</text>
		<g>
			<path fill="#422933" d="M192.5,350.6l-9.5,9.5l-3.9-3.9l9.5-9.5c0.8-0.8,2-0.8,2.8,0l1.1,1.1
				C193.3,348.6,193.3,349.9,192.5,350.6z"/>
			<path fill="#422933" d="M185.9,331.4l-9.5,9.5l-3.9-3.9l9.5-9.5c0.8-0.8,2-0.8,2.8,0l1.1,1.1
				C186.7,329.3,186.7,330.6,185.9,331.4z"/>
			<path fill="#422933" d="M129.5,287.7l-9.5,9.5l3.9,3.9l9.5-9.5c0.8-0.8,0.8-2,0-2.8l-1.1-1.1
				C131.6,286.9,130.3,286.9,129.5,287.7z"/>
			<path fill="#422933" d="M148.8,294.3l-9.5,9.5l3.9,3.9l9.5-9.5c0.8-0.8,0.8-2,0-2.8l-1.1-1.1
				C150.8,293.5,149.5,293.5,148.8,294.3z"/>
			<polygon fill="#D75E3C" points="177.3,312.8 188.4,370.2 176.1,382.5 156.4,333.7 			"/>
			<polygon fill="#D75E3C" points="118.5,368.4 123.3,385.7 118.2,392.8 108.4,378 			"/>
			<polygon fill="#D75E3C" points="167.3,302.9 109.9,291.8 97.7,304 146.5,323.7 			"/>
			<polygon fill="#D75E3C" points="111.8,361.7 94.4,356.8 87.4,361.9 102.2,371.8 			"/>
			<path fill="#F4F1ED" d="M187.4,305.6l-79,72.4l-6.2-6.2l72.4-79c3.8-4,16.1-10.5,19.7-6.9l0,0
				C197.9,289.4,191.4,301.8,187.4,305.6z"/>
			<path fill="#43B0B7" d="M189.4,295.4c-1.2-1.7-2.7-3.2-4.4-4.4c-1.1-0.7-2.4-0.4-2.9,0.5l0,0c-0.5,0.9-0.1,2,0.7,2.6
				c1.4,0.9,2.6,2.1,3.5,3.5c0.5,0.8,1.6,1.2,2.6,0.7l0,0C189.8,297.8,190.1,296.5,189.4,295.4z"/>
		</g>
		<g opacity="0.6">
			<path fill="#CCCCCC" d="M197.2,440.7c-0.6,0-1.1-0.5-1.1-1.1c0-3.5-2.3-6.6-5.6-7.6c-0.4-0.1-0.7-0.5-0.8-0.9
				c-0.9-7.3-7.2-12.8-14.5-12.8c-1,0-2,0.1-2.9,0.3c-0.3,0.1-0.6,0-0.9-0.2c-0.3-0.2-0.4-0.5-0.4-0.8c-0.8-7.5-7-13.2-14.6-13.2
				c-8.1,0-14.7,6.6-14.7,14.7c0,0.8,0.1,1.7,0.2,2.5c0.1,0.3,0,0.6-0.2,0.9c-0.2,0.2-0.5,0.4-0.8,0.4c-3.7,0.4-7.1,2.1-9.6,4.9
				c-0.2,0.2-0.5,0.4-0.8,0.4c0,0,0,0,0,0c-0.3,0-0.6-0.1-0.8-0.4c-2-2.4-5-3.7-8.2-3.7c-5.9,0-10.8,4.8-10.8,10.8
				c0,0.6-0.5,1.1-1.1,1.1s-1.1-0.5-1.1-1.1c0-7.2,5.8-13,13-13c3.4,0,6.6,1.3,9,3.6c2.5-2.5,5.6-4.1,9.1-4.6
				c-0.1-0.6-0.1-1.2-0.1-1.8c0-9.3,7.6-16.9,16.9-16.9c8.3,0,15.3,5.9,16.7,14c0.7-0.1,1.5-0.1,2.2-0.1c8.3,0,15.3,6,16.7,14.1
				c3.9,1.5,6.5,5.2,6.5,9.5C198.3,440.2,197.8,440.7,197.2,440.7z"/>
		</g>
		
			<polygon opacity="0.6" fill="none" stroke="#CCCCCC" stroke-width="2.5" stroke-linecap="round" stroke-linejoin="round" stroke-miterlimit="10" points="
			725.7,327.6 719.8,317.6 728.8,324.8 738.9,318.9 731.6,327.9 737.5,338 728.5,330.7 718.5,336.6 		"/>
		
			<polygon opacity="0.6" fill="none" stroke="#CCCCCC" stroke-width="2.5" stroke-linecap="round" stroke-linejoin="round" stroke-miterlimit="10" points="
			625.5,226.6 621.4,215.7 629,224.4 640,220.3 631.2,227.9 635.3,238.8 627.7,230.1 616.8,234.2 		"/>
		
			<polygon opacity="0.6" fill="none" stroke="#CCCCCC" stroke-width="2.5" stroke-linecap="round" stroke-linejoin="round" stroke-miterlimit="10" points="
			738.3,175.2 744.2,165.2 742.2,176.6 752.2,182.5 740.8,180.5 734.9,190.5 736.9,179.1 726.9,173.2 		"/>
		
			<path fill="none" stroke="#B3B3B3" stroke-width="4" stroke-linecap="round" stroke-linejoin="round" stroke-miterlimit="10" stroke-dasharray="2,8" d="
			M99.6,392.8c0,0-46.9,94.9,44.1,138.8"/>
		
			<path fill="none" stroke="#B3B3B3" stroke-width="4" stroke-linecap="round" stroke-linejoin="round" stroke-miterlimit="10" stroke-dasharray="2,8" d="
			M690.9,430.6c0,0,1.5-52.8-20.9-91.2"/>
		
			<path fill="none" stroke="#999999" stroke-width="4" stroke-linecap="round" stroke-linejoin="round" stroke-miterlimit="10" stroke-dasharray="2,8" d="
			M677.4,192.4c0,0-54.8-86.5-107.2-15.3C515.3,251.7,453,204,453,204"/>
		<g opacity="0.6">
			
				<path fill="none" stroke="#CCCCCC" stroke-width="2.5" stroke-linecap="round" stroke-linejoin="round" stroke-miterlimit="10" d="
				M338.5,135.4L338.5,135.4c0-5-4-9-9-9c-5,0-9,4-9,9l0,0c-0.1,0-0.1,0-0.2,0c-5,0-9,4-9,9c0,5,4,9,9,9h18c5,0,9-4,9-9
				C347.3,139.5,343.4,135.5,338.5,135.4z"/>
		</g>
		<g opacity="0.6">
			
				<path fill="none" stroke="#CCCCCC" stroke-width="2.5" stroke-linecap="round" stroke-linejoin="round" stroke-miterlimit="10" d="
				M496.3,164.4C496.3,164.4,496.3,164.4,496.3,164.4c0-5,4-9,9-9c5,0,9,4,9,9c0,0,0,0,0,0c0.1,0,0.1,0,0.2,0c5,0,9,4,9,9
				c0,5-4,9-9,9h-18c-5,0-9-4-9-9C487.5,168.4,491.4,164.5,496.3,164.4z"/>
		</g>
		<path fill="#666666" d="M472.3,133.2c-3.8-4-8.9-7.9-14.8-6.6c-7.3,1.7-9.7,9-10.9,15.5c-2.2-4.6-5.6-8.4-10.5-9.6
			c-7.8-1.8-15,3.4-18.5,10c-3.7,7-4.5,15.6-3.3,23.6c-5.3-6.8-12-12.6-21.1-12.6c-10.1,0-17.2,7.9-15.9,18c0.1,0.7,0.2,1.4,0.4,2.1
			c0,0,0-0.1-0.1-0.1c-2.1-2.6-5.1-3.6-8.4-4.1c-4-0.6-8.9-1.2-12.6,1c-5.9,3.5-4.6,11.4-1.8,16.5c2,3.7,4.8,6.9,8.1,9.5
			c2,1.6,6.2,5.1,8.9,4.3c2.9-0.8,2.3-4.8,1.5-7c-0.5-1.4-1.2-2.6-2-3.7c0.9,0.1,1.8-0.1,2.7-0.7c2.1-1.2,2.4-2.9,1.9-4.6
			c1.8,0.4,3.7,0.3,5.2-0.9c0.6-0.4,0.4-1.5-0.4-1.6c-1.5-0.1-2.8,0.3-4.3,0c-1-0.2-1.8-0.5-2.6-1c-0.8-0.9-1.7-1.7-2.5-2.2
			c-1-0.7-2.4,0.5-1.6,1.6c0.8,1.1,2,2.1,3.4,2.9c1.1,1.7,1.3,4.1-1.8,4.3c-1.1,0.1-2-0.4-2.9-1.1c-0.1-0.1-0.3-0.3-0.4-0.4
			c-0.1-0.1-0.2-0.2-0.3-0.3c0-0.3,0-0.5-0.2-0.8c-0.5-0.6-0.9-1.1-1.5-1.3c-0.1-0.1-0.1-0.2-0.2-0.3c-0.2-0.3-0.7-0.3-1,0
			c-0.1,0-0.2,0-0.3,0c-1.2-0.1-1.9,1.3-0.9,2.1c2.1,1.8,4.3,3.6,5.9,5.9c0.6,0.9,2.3,3.5,1.9,4.8c-0.8,2.7-3,0.6-4.2-0.2
			c-4.5-2.9-8.6-7.1-10.8-12c-2.4-5.2-2.2-11.7,4.7-12.9c4.6-0.8,11.6-0.4,15.2,2.8c0.5,0.4,1.1-0.1,1.1-0.6
			c2.5,9.8,11.7,17.6,20.1,22.5c9.7,5.6,20.3,8,31.4,7.2c0.8-0.1,0.9-0.9,0.5-1.3c11-11,20.1-28.2,20.2-44.4
			c2.1,1.5,5.8,1.1,7.8-0.5c1.7-1.3,2.4-3.3,2.3-5.3c1.9,1,4,1.5,6.2,0.4c0.7-0.3,0.9-1,0.7-1.7c-0.4-1.4-1-2.7-1.6-4
			c3.6,2.8,7.9,4.8,11.2,2.3C482.4,144.7,475.8,136.9,472.3,133.2z M427.3,200.8c-0.4,0.4-0.4,0.9-0.2,1.3
			c-8.3-0.3-16.7-2.5-24.2-6.1c-8.3-4-17-10.7-21-19.2c-2.2-4.6-2.7-10.2,0.2-14.7c2.7-4.3,7.9-5.7,12.7-5.3
			c10,0.9,16.4,9.8,21.4,17.5c1,1.5,3.1,0,2.6-1.5c-3-9.6-3.2-22.4,2.8-31c2.8-4,7.6-7,12.6-6.4c5.7,0.7,9,6.1,10.8,11.1
			C451.8,165.1,439.7,187.5,427.3,200.8z M475.8,142.6c0.8,2.9-1.1,5.4-4.8,4.6c-1.2-0.3-2.3-1.2-3.3-1.9c-2.2-1.5-4.1-3.3-5.9-5.3
			c-1.1-1.2-3,0.2-2,1.5c0.1,0.1,0.2,0.2,0.3,0.3c2,2.8,3.4,5.5,4.1,8.8c-2.4,0.4-4.5-1.6-6.2-3.1c-1.1-1-2.8,0.7-1.8,1.8
			c1.7,2,1.8,5.4-0.9,6.7c-2,1-3.6-0.3-5.4-0.8c-0.1-1-0.2-2-0.3-3c-0.3-2.4-0.9-5-1.9-7.5c1.2-5,2.5-10.6,6.9-13.9
			c4.3-3.2,9.2-1.6,13,1.5C470.4,134.7,474.8,138.9,475.8,142.6z"/>
	</g>
</g>
</svg>
