<?xml version="1.0" encoding="utf-8"?>
<!-- Generator: Adobe Illustrator 19.1.0, SVG Export Plug-In . SVG Version: 6.00 Build 0)  -->
<svg version="1.1" id="Livello_1" xmlns="http://www.w3.org/2000/svg" xmlns:xlink="http://www.w3.org/1999/xlink" x="0px" y="0px"
	 viewBox="0 0 729.2 396.7" enable-background="new 0 0 729.2 396.7" xml:space="preserve">
<g>
	<path fill="#CCCCCC" d="M56,196.1c2.8-0.4,4.1-3.1,5.5-8.1l5.2-19h-2.9l0.3-0.8h10.7l0.4,19h0.1l10.7-19h10.9l-0.3,0.8H94
		l-7.5,27.1h2.9l-0.3,0.8H76l0.3-0.8h2.2l7.8-26.3h-0.1L71,196.8h-3l-0.7-26.2h-0.1l-5,18.5c-0.7,2.3-0.8,3.4-0.8,4
		c0,2.1,1.5,2.8,3.3,2.8l-0.3,0.8h-8.6L56,196.1z"/>
	<path fill="#CCCCCC" d="M116.1,189.1c-1,3.5-1.2,4.6-1.2,5.1c0,0.7,0.4,1,1,1c0.9,0,2.4-2,2.8-2.9l0.7,0.4
		c-1.3,2.8-3.8,4.7-7.1,4.7c-2.7,0-4.3-1.3-4.3-3.8v-0.7h-0.1c-1.6,2.5-4.8,4.5-8.1,4.5c-2.5,0-4.3-1.6-4.3-4.1
		c0-0.3,0.2-1.7,0.4-2.6l3.1-11.4h-2.3l0.3-0.8h2.7c1.6,0,5,0,7.4-1l-3.3,11.6c-1,3.5-1.2,4.6-1.2,5.1c0,0.7,0.4,1,1,1
		c2.1,0,4.2-3.5,4.9-6l3-10.7h7.5L116.1,189.1z"/>
	<path fill="#CCCCCC" d="M124,178.5h2.8l1.6-5.7c2.9-0.8,5.9-1.8,8.5-3.4l-2.6,9.1h3l-0.2,0.8h-2.9l-3.7,13
		c-0.2,0.8-0.4,1.7-0.4,1.9c0,0.4,0.3,0.7,0.7,0.7c1.3,0,2.4-1.8,3.1-2.7l0.6,0.5c-0.7,0.7-2.4,4.6-7.2,4.6c-2.2,0-4.3-1.1-4.3-3.5
		c0-1.2,0.7-3.6,1.1-5.1l2.7-9.5h-2.8L124,178.5z"/>
	<path fill="#CCCCCC" d="M154.4,178.7h7.6l-4,14.2c-0.2,0.7-0.3,1-0.3,1.5c0,0.6,0.4,0.8,0.7,0.8c0.6,0,1-0.4,2.8-2.7l0.6,0.4
		c-2.1,2.8-3.5,4.5-7.2,4.5c-2.3,0-3.7-0.9-4.3-3.3h-0.1c-1.1,2-3,3.3-5.6,3.3c-4.6,0-6.7-3.6-6.7-8.1c0-5.9,4.7-11.8,10.7-11.8
		c2.3,0,4.3,1.2,4.8,3.7h0.1L154.4,178.7z M148.1,182.2c-1.5,4.5-3.2,10.5-3.2,12.2c0,1.4,0.9,1.7,1.7,1.7c1.4,0,2.8-1.3,3.3-2.7
		c1.3-3,2.9-9.2,2.9-11.1c0-2.1-0.9-3.3-2.1-3.3C149.4,179,148.7,180.2,148.1,182.2z"/>
	<path fill="#CCCCCC" d="M169,179.3h-2.3l0.3-0.8h2.7c1.6,0,5,0,7.4-1l-1.6,6.5h0.1c1.6-3,4.8-6.5,8.5-6.5c2.3,0,4.5,1.3,4.5,3.9
		c0,3.3-3.6,10.9-3.6,12.8c0,0.8,0.2,1,0.7,1c1.1,0,2.6-2,3-2.9l0.7,0.4c-1.3,2.8-3.8,4.7-7.1,4.7c-2.5,0-4.3-1.3-4.3-4.2
		c0-2.1,3.6-11.2,3.6-12.3c0-0.7-0.4-1-0.9-1c-1.6,0-5.5,5.2-6.8,9.8l-1.9,7.1h-7.7L169,179.3z"/>
	<path fill="#CCCCCC" d="M216.5,192.7c-1.7,2.7-3.9,4.7-7.3,4.7c-1.8,0-3.7-1.2-4-3.2c-1.7,2.4-3.7,3.2-6,3.2
		c-4.6,0-6.7-3.6-6.7-8.1c0-5.9,4.7-11.8,10.7-11.8c2.5,0,4.2,0.9,5,3.6h0.1l3.3-12.1H209l0.3-0.8h3.4c1.8,0,5.5-0.3,7-1.3
		l-7.3,26.6c-0.1,0.4-0.2,0.7-0.2,0.9c0,0.3,0.2,0.6,0.7,0.6c0.7,0,1.4-0.7,2.9-2.6L216.5,192.7z M205.3,179c-1.3,0-2,1.1-2.7,3.2
		c-1.5,4.5-3.2,11.2-3.1,12.2c0,0.8,0.6,1.5,1.6,1.5c1.4,0,2.6-1.1,3.5-2.8c1-1.9,2.9-8.7,2.9-10.7C207.6,180.2,206.3,179,205.3,179
		z"/>
	<path fill="#CCCCCC" d="M237.9,193.3c-2.4,2.4-5.8,4.1-9.2,4.1c-5,0-9.1-2.3-9.1-7.8c0-7.3,6.3-12,13.2-12c3.3,0,7.5,1.4,7.5,5.3
		c0,4.6-4.9,6.2-8.8,6.2c-1.8,0-3.2-0.1-3.9-0.2l-0.5,1.7c-0.3,1.1-0.4,2.2-0.4,3c0,2,1.4,2.9,3.1,2.9c2.5,0,5.8-1.9,7.6-3.6
		L237.9,193.3z M227.8,188.1c0.5,0.1,1.1,0.1,1.7,0.1c1.2,0,2.1-0.8,2.7-2c0.5-1,1.7-4.8,1.7-5.9c0-1.2-0.5-2-1.7-2
		c-1.2,0-2,1.1-2.3,2.5L227.8,188.1z"/>
	<path fill="#CCCCCC" d="M272.9,193.3c-2.4,2.4-5.8,4.1-9.2,4.1c-5,0-9.1-2.3-9.1-7.8c0-7.3,6.3-12,13.2-12c3.3,0,7.5,1.4,7.5,5.3
		c0,4.6-4.9,6.2-8.8,6.2c-1.8,0-3.2-0.1-3.9-0.2l-0.5,1.7c-0.3,1.1-0.4,2.2-0.4,3c0,2,1.4,2.9,3.1,2.9c2.5,0,5.8-1.9,7.6-3.6
		L272.9,193.3z M262.9,188.1c0.5,0.1,1.1,0.1,1.7,0.1c1.2,0,2.1-0.8,2.7-2c0.5-1,1.7-4.8,1.7-5.9c0-1.2-0.5-2-1.7-2
		c-1.2,0-2,1.1-2.3,2.5L262.9,188.1z"/>
	<path fill="#CCCCCC" d="M293.4,179.3h-2.3l0.3-0.8h2.7c1.6,0,5,0,7.4-1l-1.6,5.9l0.1,0c1.5-3,4.1-5.9,7.8-5.9c2.4,0,4.1,1,4.1,3.6
		c0,0.8-0.1,1.5-0.1,2.1h0.1c1.8-3.4,4.7-5.7,8.3-5.7c2.3,0,4.2,1.4,4.2,3.8c0,0.8-0.2,1.6-0.4,2.3c-0.5,1.5-3.1,9.1-3.1,10.1
		s0.3,1.2,0.9,1.2c0.9,0,2.3-2.1,2.6-2.9l0.6,0.4c-1.3,3-3.7,4.9-7,4.9c-2.4,0-4.1-1.5-4.1-4.3c0-2.9,3.5-10.4,3.5-12.2
		c0-0.6-0.2-1-0.9-1c-1.7,0-4.8,4.4-5.9,8.2l-2.5,8.7h-7.4l4-14.6c0.2-0.6,0.2-1.2,0.2-1.4c0-0.4-0.2-0.8-0.7-0.8
		c-1.4,0-4.5,4.6-5.5,8.3l-2.4,8.6h-7.7L293.4,179.3z"/>
	<path fill="#CCCCCC" d="M344.2,178.7h7.6l-4,14.2c-0.2,0.7-0.3,1-0.3,1.5c0,0.6,0.4,0.8,0.7,0.8c0.6,0,1-0.4,2.8-2.7l0.6,0.4
		c-2.1,2.8-3.5,4.5-7.2,4.5c-2.3,0-3.7-0.9-4.3-3.3h-0.1c-1.1,2-3,3.3-5.6,3.3c-4.6,0-6.7-3.6-6.7-8.1c0-5.9,4.7-11.8,10.7-11.8
		c2.3,0,4.3,1.2,4.8,3.7h0.1L344.2,178.7z M337.9,182.2c-1.5,4.5-3.2,10.5-3.2,12.2c0,1.4,0.9,1.7,1.7,1.7c1.4,0,2.8-1.3,3.3-2.7
		c1.3-3,2.9-9.2,2.9-11.1c0-2.1-0.9-3.3-2.1-3.3C339.3,179,338.6,180.2,337.9,182.2z"/>
	<path fill="#CCCCCC" d="M361.4,193c1.9,0,4.3-0.1,6.2-0.1c2.9,0,6.9,0.1,6.9,4.3c0,4.1-4.6,9.8-13.2,9.8c-3.9,0-9.3-0.7-9.3-4.3
		c0-2.3,3-3.5,4.9-3.5v-0.1c-1.5-0.6-3-1.9-3-3.9c0-3.1,2.8-5.6,6-6v-0.1c-1.5-1-2.6-2.4-2.6-4.4c0-5,5.3-7.3,9.6-7.3
		c2.3,0,4.6,0.5,6.5,1.7c0.7-1.5,2.2-2.7,3.9-2.7c1.5,0,2.7,0.9,2.7,2.6c0,1.3-1,2.1-2.1,2.1c-1.2,0-2.2-0.8-2.2-1.9
		c0-0.8,0.3-1.5,0.9-1.9l-0.1-0.1c-1.2,0.2-2.1,1.3-2.4,2.5c1,1.1,1.7,2.6,1.7,4.1c0,5.4-5.9,6.6-9.8,6.6c-1.5,0-2.5-0.2-3.3-0.3
		c-0.8-0.2-1.3-0.3-2-0.3c-2,0-2.8,0.8-2.8,1.6C358,192.7,359.1,193,361.4,193z M359.4,199.6c-2.8,0-4.2,0.9-4.2,2.8
		c0,2.1,2.8,3.5,6.6,3.5c4.6,0,9.3-2.5,9.3-4.8c0-1-0.7-1.5-1.8-1.5H359.4z M365.3,189.8c1,0,1.7-0.3,2.4-2.6
		c1.6-5.5,1.8-6.5,1.8-7.3c0-1-0.8-1.5-1.5-1.5c-0.9,0-1.7,0.3-2.4,2.7c-1.6,5.5-1.8,6.4-1.8,7.3
		C363.8,189.3,364.6,189.8,365.3,189.8z"/>
	<path fill="#CCCCCC" d="M385,168.2h3.5c1.7,0,5.4-0.3,7-1.3l-7.3,26.5c-0.1,0.3-0.2,0.7-0.2,1c0,0.5,0.2,0.8,0.6,0.8
		c0.4,0,1.5-0.8,3-2.9l0.6,0.6c-1.8,2.7-4.4,4.5-7.2,4.5c-2.4,0-4.1-1.1-4.1-3.5c0-0.8,0.2-1.9,0.7-3.9l5.8-21h-2.8L385,168.2z"/>
	<path fill="#CCCCCC" d="M398.2,178.5h2.8c1.6,0,5,0,7.4-1l-4.5,15.9c-0.1,0.3-0.2,0.7-0.2,1c0,0.5,0.2,0.8,0.6,0.8
		c0.7,0,1.7-0.9,2.8-2.7l0.7,0.4c-1.4,2.7-3.7,4.5-6.8,4.5c-2.2,0-4.4-0.9-4.4-3.8c0-0.9,0.4-2.6,1-4.9l2.6-9.4h-2.5L398.2,178.5z
		 M406,168.2c2,0,3.7,1.6,3.7,3.7s-1.6,3.7-3.7,3.7s-3.7-1.6-3.7-3.7S403.9,168.2,406,168.2z"/>
	<path fill="#CCCCCC" d="M430,193.3c-2.4,2.4-5.8,4.1-9.2,4.1c-5,0-9.1-2.3-9.1-7.8c0-7.3,6.3-12,13.2-12c3.3,0,7.5,1.4,7.5,5.3
		c0,4.6-4.9,6.2-8.8,6.2c-1.8,0-3.2-0.1-3.9-0.2l-0.5,1.7c-0.3,1.1-0.4,2.2-0.4,3c0,2,1.4,2.9,3.1,2.9c2.5,0,5.8-1.9,7.6-3.6
		L430,193.3z M419.9,188.1c0.5,0.1,1.1,0.1,1.7,0.1c1.2,0,2.1-0.8,2.7-2c0.5-1,1.7-4.8,1.7-5.9c0-1.2-0.5-2-1.7-2s-2,1.1-2.3,2.5
		L419.9,188.1z"/>
	<path fill="#CCCCCC" d="M435.9,178.5h2.8l1.6-5.7c2.9-0.8,5.9-1.8,8.5-3.4l-2.6,9.1h3l-0.2,0.8h-2.9l-3.7,13
		c-0.2,0.8-0.4,1.7-0.4,1.9c0,0.4,0.3,0.7,0.7,0.7c1.3,0,2.4-1.8,3.1-2.7l0.6,0.5c-0.7,0.7-2.4,4.6-7.2,4.6c-2.2,0-4.3-1.1-4.3-3.5
		c0-1.2,0.7-3.6,1.1-5.1l2.7-9.5h-2.8L435.9,178.5z"/>
	<path fill="#CCCCCC" d="M451.8,178.5h2.8l1.6-5.7c2.9-0.8,5.9-1.8,8.5-3.4l-2.6,9.1h3l-0.2,0.8h-2.9l-3.7,13
		c-0.2,0.8-0.4,1.7-0.4,1.9c0,0.4,0.3,0.7,0.7,0.7c1.3,0,2.4-1.8,3.1-2.7l0.6,0.5c-0.7,0.7-2.4,4.6-7.2,4.6c-2.2,0-4.3-1.1-4.3-3.5
		c0-1.2,0.7-3.6,1.1-5.1l2.7-9.5h-2.8L451.8,178.5z"/>
	<path fill="#CCCCCC" d="M482.1,178.7h7.6l-4,14.2c-0.2,0.7-0.3,1-0.3,1.5c0,0.6,0.4,0.8,0.7,0.8c0.6,0,1-0.4,2.8-2.7l0.6,0.4
		c-2.1,2.8-3.5,4.5-7.2,4.5c-2.3,0-3.7-0.9-4.3-3.3h-0.1c-1.1,2-3,3.3-5.6,3.3c-4.6,0-6.7-3.6-6.7-8.1c0-5.9,4.7-11.8,10.7-11.8
		c2.3,0,4.3,1.2,4.8,3.7h0.1L482.1,178.7z M475.8,182.2c-1.5,4.5-3.2,10.5-3.2,12.2c0,1.4,0.9,1.7,1.7,1.7c1.4,0,2.8-1.3,3.3-2.7
		c1.3-3,2.9-9.2,2.9-11.1c0-2.1-0.9-3.3-2.1-3.3C477.1,179,476.4,180.2,475.8,182.2z"/>
	<path fill="#CCCCCC" d="M529.5,192.7c-1.7,2.7-3.9,4.7-7.3,4.7c-1.8,0-3.7-1.2-4-3.2c-1.7,2.4-3.7,3.2-6,3.2
		c-4.6,0-6.7-3.6-6.7-8.1c0-5.9,4.7-11.8,10.7-11.8c2.5,0,4.2,0.9,5,3.6h0.1l3.3-12.1H522l0.3-0.8h3.4c1.8,0,5.5-0.3,7-1.3
		l-7.3,26.6c-0.1,0.4-0.2,0.7-0.2,0.9c0,0.3,0.2,0.6,0.7,0.6c0.7,0,1.4-0.7,2.9-2.6L529.5,192.7z M518.3,179c-1.3,0-2,1.1-2.7,3.2
		c-1.5,4.5-3.2,11.2-3,12.2c0,0.8,0.6,1.5,1.6,1.5c1.4,0,2.6-1.1,3.5-2.8c1-1.9,2.9-8.7,2.9-10.7C520.7,180.2,519.3,179,518.3,179z"
		/>
	<path fill="#CCCCCC" d="M535,178.5h2.8c1.6,0,5,0,7.4-1l-4.5,15.9c-0.1,0.3-0.2,0.7-0.2,1c0,0.5,0.2,0.8,0.6,0.8
		c0.7,0,1.7-0.9,2.8-2.7l0.7,0.4c-1.4,2.7-3.7,4.5-6.8,4.5c-2.2,0-4.4-0.9-4.4-3.8c0-0.9,0.4-2.6,1-4.9l2.6-9.4h-2.5L535,178.5z
		 M542.7,168.2c2,0,3.7,1.6,3.7,3.7s-1.6,3.7-3.7,3.7s-3.7-1.6-3.7-3.7S540.7,168.2,542.7,168.2z"/>
	<path fill="#CCCCCC" d="M565.8,168.2h3.5c1.7,0,5.4-0.3,7-1.3l-7.3,26.5c-0.1,0.3-0.2,0.7-0.2,1c0,0.5,0.2,0.8,0.6,0.8
		c0.4,0,1.5-0.8,3-2.9l0.6,0.6c-1.8,2.7-4.4,4.5-7.2,4.5c-2.4,0-4.1-1.1-4.1-3.5c0-0.8,0.2-1.9,0.7-3.9l5.8-21h-2.8L565.8,168.2z"/>
	<path fill="#CCCCCC" d="M592.9,178.7h7.6l-4,14.2c-0.2,0.7-0.3,1-0.3,1.5c0,0.6,0.4,0.8,0.7,0.8c0.6,0,1-0.4,2.8-2.7l0.6,0.4
		c-2.1,2.8-3.5,4.5-7.2,4.5c-2.3,0-3.7-0.9-4.3-3.3h-0.1c-1.1,2-3,3.3-5.6,3.3c-4.6,0-6.7-3.6-6.7-8.1c0-5.9,4.7-11.8,10.7-11.8
		c2.3,0,4.3,1.2,4.8,3.7h0.1L592.9,178.7z M586.6,182.2c-1.5,4.5-3.2,10.5-3.2,12.2c0,1.4,0.9,1.7,1.7,1.7c1.4,0,2.8-1.3,3.3-2.7
		c1.3-3,2.9-9.2,2.9-11.1c0-2.1-0.9-3.3-2.1-3.3C587.9,179,587.2,180.2,586.6,182.2z"/>
	<path fill="#CCCCCC" d="M607.5,179.3h-2.3l0.3-0.8h2.7c1.6,0,5,0,7.4-1L614,184h0.1c1.6-3,4.8-6.5,8.5-6.5c2.3,0,4.5,1.3,4.5,3.9
		c0,3.3-3.6,10.9-3.6,12.8c0,0.8,0.2,1,0.7,1c1.1,0,2.6-2,3-2.9l0.7,0.4c-1.3,2.8-3.8,4.7-7.1,4.7c-2.5,0-4.3-1.3-4.3-4.2
		c0-2.1,3.6-11.2,3.6-12.3c0-0.7-0.4-1-0.9-1c-1.6,0-5.5,5.2-6.8,9.8l-1.9,7.1h-7.7L607.5,179.3z"/>
	<path fill="#CCCCCC" d="M647.1,178.7h7.6l-4,14.2c-0.2,0.7-0.3,1-0.3,1.5c0,0.6,0.4,0.8,0.7,0.8c0.6,0,1-0.4,2.8-2.7l0.6,0.4
		c-2.1,2.8-3.5,4.5-7.2,4.5c-2.3,0-3.7-0.9-4.3-3.3h-0.1c-1.1,2-3,3.3-5.6,3.3c-4.6,0-6.7-3.6-6.7-8.1c0-5.9,4.7-11.8,10.7-11.8
		c2.3,0,4.3,1.2,4.8,3.7h0.1L647.1,178.7z M640.8,182.2c-1.5,4.5-3.2,10.5-3.2,12.2c0,1.4,0.9,1.7,1.7,1.7c1.4,0,2.8-1.3,3.3-2.7
		c1.3-3,2.9-9.2,2.9-11.1c0-2.1-0.9-3.3-2.1-3.3C642.1,179,641.5,180.2,640.8,182.2z"/>
	<path fill="#CCCCCC" d="M656.6,202.9c2.3-1.3,4.6-3.1,5.2-5.8c-0.4,0-0.7,0.1-1.1,0.1c-2.2,0-3.7-1.5-3.7-3.7c0-2,1.6-3.7,3.7-3.7
		s3.7,1.5,3.7,4c0,3.2-2.2,7-7.5,9.7L656.6,202.9z"/>
	<path fill="#CCCCCC" d="M195.1,228.1h-2.3l0.3-0.8h2.7c1.6,0,5,0,7.4-1l-1.6,5.9l0.1,0c1.5-3,4.1-5.9,7.8-5.9c2.4,0,4.1,1,4.1,3.6
		c0,0.8-0.1,1.5-0.1,2.1h0.1c1.8-3.4,4.7-5.7,8.3-5.7c2.3,0,4.2,1.4,4.2,3.8c0,0.8-0.2,1.6-0.4,2.3c-0.5,1.5-3.1,9.1-3.1,10.1
		s0.3,1.2,0.9,1.2c0.9,0,2.3-2.1,2.6-2.9l0.6,0.4c-1.3,3-3.7,4.9-7,4.9c-2.4,0-4.1-1.5-4.1-4.3c0-2.9,3.5-10.4,3.5-12.2
		c0-0.6-0.2-1-0.9-1c-1.7,0-4.8,4.4-5.9,8.2l-2.5,8.7h-7.4l4-14.6c0.2-0.6,0.2-1.2,0.2-1.4c0-0.4-0.2-0.8-0.7-0.8
		c-1.4,0-4.5,4.6-5.5,8.3l-2.4,8.6h-7.7L195.1,228.1z"/>
	<path fill="#CCCCCC" d="M232.2,227.3h2.8c1.6,0,5,0,7.4-1l-4.5,15.9c-0.1,0.3-0.2,0.7-0.2,1c0,0.5,0.2,0.8,0.6,0.8
		c0.7,0,1.7-0.9,2.8-2.7l0.7,0.4c-1.4,2.7-3.7,4.5-6.8,4.5c-2.2,0-4.4-0.9-4.4-3.8c0-0.9,0.4-2.6,1-4.9l2.6-9.4h-2.5L232.2,227.3z
		 M239.9,217c2,0,3.7,1.6,3.7,3.7s-1.6,3.7-3.7,3.7s-3.7-1.6-3.7-3.7S237.9,217,239.9,217z"/>
	<path fill="#CCCCCC" d="M261.8,228.1h-2.3l0.3-0.8h2.7c1.6,0,5,0,7.4-1l-1.1,4.1h0.1c1-1.5,3-4.1,5.4-4.1c2.2,0,3.4,1.5,3.4,3.5
		c0,2.4-1.6,3.8-3.6,3.8c-2.1,0-3.2-1.5-3.2-3.3c0-0.5,0.1-0.9,0.3-1.3l-0.1-0.1c-1.9,2.1-2.9,4.1-3.6,6.5l-2.8,10.2H257
		L261.8,228.1z"/>
	<path fill="#CCCCCC" d="M294.6,227.5h7.6l-4,14.2c-0.2,0.7-0.3,1-0.3,1.5c0,0.6,0.4,0.8,0.7,0.8c0.6,0,1-0.4,2.8-2.7l0.6,0.4
		c-2.1,2.8-3.5,4.5-7.2,4.5c-2.3,0-3.7-0.9-4.3-3.3h-0.1c-1.1,2-3,3.3-5.6,3.3c-4.6,0-6.7-3.6-6.7-8.1c0-5.9,4.7-11.8,10.7-11.8
		c2.3,0,4.3,1.2,4.8,3.7h0.1L294.6,227.5z M288.3,231c-1.5,4.5-3.2,10.5-3.2,12.2c0,1.4,0.9,1.7,1.7,1.7c1.4,0,2.8-1.3,3.3-2.7
		c1.3-3,2.9-9.2,2.9-11.1c0-2.1-0.9-3.3-2.1-3.3C289.6,227.8,288.9,229,288.3,231z"/>
	<path fill="#CCCCCC" d="M324.2,241.3c-1.9,3.1-5.1,4.9-8.9,4.9c-5.7,0-9.7-3-9.7-8.8c0-4,2.8-11.1,12.4-11.1c4.4,0,7.5,2,7.5,4.8
		c0,1.6-1.4,3.2-3.4,3.2c-1.9,0-3.4-1.3-3.4-3.3c0-1.7,1.3-3.1,3-3.3v-0.1c-0.5-0.2-1.3-0.3-2.1-0.3c-2.8,0-3.9,2.2-4.8,5.5
		c-2.2,7.9-2.4,8.3-2.4,9.6c0,1.6,1.2,2.8,3.9,2.8c3.1,0,5.6-2,7.3-4.3L324.2,241.3z"/>
	<path fill="#CCCCCC" d="M346.8,241.3c-1.9,3.1-5.1,4.9-8.9,4.9c-5.7,0-9.7-3-9.7-8.8c0-4,2.8-11.1,12.4-11.1c4.4,0,7.5,2,7.5,4.8
		c0,1.6-1.4,3.2-3.4,3.2c-1.9,0-3.4-1.3-3.4-3.3c0-1.7,1.3-3.1,3-3.3v-0.1c-0.5-0.2-1.3-0.3-2.1-0.3c-2.8,0-3.9,2.2-4.8,5.5
		c-2.2,7.9-2.4,8.3-2.4,9.6c0,1.6,1.2,2.8,3.9,2.8c3.1,0,5.6-2,7.3-4.3L346.8,241.3z"/>
	<path fill="#CCCCCC" d="M360.1,246.2c-5.4,0-9.4-3-9.4-8.8c0-4.5,3.3-11.1,12.3-11.1c5.6,0,9.6,3,9.6,8.8
		C372.7,239.1,369.8,246.2,360.1,246.2z M362.9,241.3l1.4-4.8c1.6-5.3,1.7-6.5,1.7-7.3c0-1.1-0.4-2.2-2.3-2.2
		c-2.1,0-3.2,2.6-4.6,8.1c-1.5,5.8-1.8,6.8-1.8,8c0,1.2,0.3,2.4,2.1,2.4C360.9,245.4,362,244.4,362.9,241.3z"/>
	<path fill="#CCCCCC" d="M379.3,228.1H377l0.3-0.8h2.7c1.6,0,5,0,7.4-1l-1.6,5.9l0.1,0c1.5-3,4.1-5.9,7.8-5.9c2.4,0,4.1,1,4.1,3.6
		c0,0.8-0.1,1.5-0.1,2.1h0.1c1.8-3.4,4.7-5.7,8.3-5.7c2.3,0,4.2,1.4,4.2,3.8c0,0.8-0.2,1.6-0.4,2.3c-0.5,1.5-3.1,9.1-3.1,10.1
		s0.3,1.2,0.9,1.2c0.9,0,2.3-2.1,2.6-2.9l0.6,0.4c-1.3,3-3.7,4.9-7,4.9c-2.4,0-4.1-1.5-4.1-4.3c0-2.9,3.5-10.4,3.5-12.2
		c0-0.6-0.2-1-0.9-1c-1.7,0-4.8,4.4-5.9,8.2l-2.5,8.7h-7.4l4-14.6c0.2-0.6,0.2-1.2,0.2-1.4c0-0.4-0.2-0.8-0.7-0.8
		c-1.4,0-4.5,4.6-5.5,8.3l-2.4,8.6h-7.7L379.3,228.1z"/>
	<path fill="#CCCCCC" d="M430.1,227.5h7.6l-4,14.2c-0.2,0.7-0.3,1-0.3,1.5c0,0.6,0.4,0.8,0.7,0.8c0.6,0,1-0.4,2.8-2.7l0.6,0.4
		c-2.1,2.8-3.5,4.5-7.2,4.5c-2.3,0-3.7-0.9-4.3-3.3h-0.1c-1.1,2-3,3.3-5.6,3.3c-4.6,0-6.7-3.6-6.7-8.1c0-5.9,4.7-11.8,10.7-11.8
		c2.3,0,4.3,1.2,4.8,3.7h0.1L430.1,227.5z M423.8,231c-1.5,4.5-3.2,10.5-3.2,12.2c0,1.4,0.9,1.7,1.7,1.7c1.4,0,2.8-1.3,3.3-2.7
		c1.3-3,2.9-9.2,2.9-11.1c0-2.1-0.9-3.3-2.1-3.3C425.2,227.8,424.5,229,423.8,231z"/>
	<path fill="#CCCCCC" d="M444.8,228.1h-2.3l0.3-0.8h2.7c1.6,0,5,0,7.4-1l-1.6,6.5h0.1c1.6-3,4.8-6.5,8.5-6.5c2.3,0,4.5,1.3,4.5,3.9
		c0,3.3-3.6,10.9-3.6,12.8c0,0.8,0.2,1,0.7,1c1.1,0,2.6-2,3-2.9l0.7,0.4c-1.3,2.8-3.8,4.7-7.1,4.7c-2.5,0-4.3-1.3-4.3-4.2
		c0-2.1,3.6-11.2,3.6-12.3c0-0.7-0.4-1-0.9-1c-1.6,0-5.5,5.2-6.8,9.8l-1.9,7.1H440L444.8,228.1z"/>
	<path fill="#CCCCCC" d="M492.2,241.5c-1.7,2.7-3.9,4.7-7.3,4.7c-1.8,0-3.7-1.2-4-3.2c-1.7,2.4-3.7,3.2-6,3.2
		c-4.6,0-6.7-3.6-6.7-8.1c0-5.9,4.7-11.8,10.7-11.8c2.5,0,4.2,0.9,5,3.6h0.1l3.3-12.1h-2.6l0.3-0.8h3.4c1.8,0,5.5-0.3,7-1.3
		l-7.3,26.6c-0.1,0.4-0.2,0.7-0.2,0.9c0,0.3,0.2,0.6,0.7,0.6c0.7,0,1.4-0.7,2.9-2.6L492.2,241.5z M481,227.8c-1.3,0-2,1.1-2.7,3.2
		c-1.5,4.5-3.2,11.2-3,12.2c0,0.8,0.6,1.5,1.6,1.5c1.4,0,2.6-1.1,3.5-2.8c1-1.9,2.9-8.7,2.9-10.7C483.4,229,482,227.8,481,227.8z"/>
	<path fill="#CCCCCC" d="M504.7,246.2c-5.4,0-9.4-3-9.4-8.8c0-4.5,3.3-11.1,12.3-11.1c5.6,0,9.6,3,9.6,8.8
		C517.2,239.1,514.4,246.2,504.7,246.2z M507.5,241.3l1.4-4.8c1.6-5.3,1.7-6.5,1.7-7.3c0-1.1-0.4-2.2-2.3-2.2
		c-2.1,0-3.2,2.6-4.6,8.1c-1.5,5.8-1.8,6.8-1.8,8c0,1.2,0.3,2.4,2.1,2.4C505.5,245.4,506.5,244.4,507.5,241.3z"/>
	<path fill="#CCCCCC" d="M522.1,242.3c0-2,1.6-3.7,3.7-3.7s3.7,1.6,3.7,3.7s-1.6,3.7-3.7,3.7S522.1,244.3,522.1,242.3z M527,236.5
		c0.7-3,1-5.5,1-8.8c0-2.1-0.3-4.1-0.6-6.2c2-1.6,3.8-3.2,5.5-5c0.9,1.9,1.7,3.7,3.2,5.2c-4.3,4.9-6.4,8.8-8.5,14.8H527z"/>
</g>
<g>
	<g>
		<polygon fill="#8BB4C8" points="656,93.4 675.9,80.9 675.4,72.5 656.5,84.4 		"/>
		<polygon fill="#C5BCA5" points="655.8,97.7 660.2,102.5 676.5,92.4 676,84 655.8,96.6 		"/>
		<polygon fill="#8BB4C8" points="666.3,109.1 676.8,97.7 676.7,95.4 662.1,104.5 		"/>
		<polygon fill="#C5BCA5" points="656.7,81.2 675.2,69.5 674.8,61.1 657.2,72.1 		"/>
		<path fill="#C5BCA5" d="M653,5.2l5.3,4.1c0-0.1,0.1-0.2,0.1-0.2c0.1-0.2,0.3-0.3,0.5-0.4l-4.1-5.3L653,5.2z"/>
		<polygon fill="#C5BCA5" points="664.4,20.5 659.6,28.5 659.4,32.2 670.9,25 668.2,20.5 		"/>
		<polygon fill="#8BB4C8" points="664.5,17.8 668.1,17.8 671,11.1 661.5,11.1 		"/>
		<polygon fill="#8BB4C8" points="657.4,68.9 674.6,58.1 674.1,49.7 657.8,59.9 		"/>
		<path fill="#C5BCA5" d="M673.6,8.6c0.2,0.1,0.4,0.3,0.5,0.4c0.1,0.1,0.1,0.2,0.1,0.2l5.3-4.1l-1.9-1.9L673.6,8.6z"/>
		<polygon fill="#C5BCA5" points="658,56.7 674,46.7 673.5,38.3 658.5,47.7 		"/>
		<polygon fill="#8BB4C8" points="658.7,44.4 673.3,35.3 673,28.5 672.2,27.3 659.2,35.4 		"/>
		<path fill="#3F352F" d="M678.5,0.4c-0.3-0.3-0.6-0.4-1-0.4c-0.4,0-0.7,0.2-1,0.5l-6.2,8h-8.3l-6.2-8c-0.2-0.3-0.6-0.5-1-0.5
			c-0.4,0-0.7,0.1-1,0.4l-4,4c-0.3,0.3-0.4,0.6-0.4,1c0,0.4,0.2,0.7,0.5,1l9.7,7.5l2.3,5.2l-5,8.4c-0.1,0.2-0.2,0.4-0.2,0.6
			l-3.9,70.1c0,0.4,0.1,0.7,0.3,1l11.9,12.8c0.3,0.3,0.6,0.4,1,0.4c0.3,0,0.6-0.1,0.9-0.4c0,0,11.9-12.9,11.9-12.9
			c0.2-0.3,0.4-0.6,0.3-1L675.6,28c0-0.2-0.1-0.4-0.2-0.6l-5-8.4l2.3-5.2l9.7-7.5c0.3-0.2,0.5-0.6,0.5-1c0-0.4-0.1-0.7-0.4-1
			L678.5,0.4z M658.4,9c-0.1,0.1-0.1,0.2-0.1,0.2L653,5.2l1.9-1.9l4.1,5.3C658.7,8.7,658.6,8.9,658.4,9z M676.8,97.7l-10.5,11.4
			l-4.2-4.6l14.6-9.1L676.8,97.7z M676.5,92.4l-16.3,10.2l-4.5-4.9l0.1-1.1L676,84L676.5,92.4z M675.9,80.9L656,93.4l0.5-9
			l18.9-11.8L675.9,80.9z M675.2,69.5l-18.6,11.6l0.5-9l17.6-11L675.2,69.5z M674.6,58.1l-17.3,10.8l0.5-9l16.3-10.2L674.6,58.1z
			 M674,46.7l-15.9,10l0.5-9l15-9.4L674,46.7z M673,28.5l0.4,6.8l-14.6,9.2l0.5-9l13-8.2L673,28.5z M670.9,25l-11.5,7.2l0.2-3.7
			l4.8-8h3.8L670.9,25z M668.1,17.8h-3.6l-2.9-6.7h9.5L668.1,17.8z M674.3,9.3c0-0.1-0.1-0.2-0.1-0.2c-0.1-0.2-0.3-0.3-0.5-0.4
			l4.1-5.3l1.9,1.9L674.3,9.3z"/>
	</g>
	<g>
		<rect x="91.7" y="43.6" fill="#7E7081" width="20.6" height="2.8"/>
		<rect x="51.4" y="20.4" fill="#C1573F" width="20.6" height="3.4"/>
		<rect x="51.4" y="26.4" fill="#7E7081" width="20.6" height="2.8"/>
		<path fill="#C1573F" d="M66.7,68.5c0.6-0.4,1.3-0.8,2-1c4-1.6,6-4,6.2-7.5c0.3-3.9-2.3-9.6-2.3-9.7C69.7,52.5,63.4,58.6,66.7,68.5
			z"/>
		<path fill="#C1573F" d="M27.7,83.8c-1,1.6-1.6,3.1-1.6,4.9c-0.1,2.5,0.9,4.8,2.6,6.6c1.7,1.8,4,2.8,6.4,2.8c2.3,0,4.4-0.7,6.1-2.2
			C38.2,88.1,30.4,84.8,27.7,83.8z"/>
		<rect x="91.7" y="37.5" fill="#C1573F" width="20.6" height="3.4"/>
		<path fill="#CCCCCC" d="M64,69.1C64.1,69.1,64.1,69.1,64,69.1c-1.5-4.8-1-8.8,0.2-12c-0.1,0-0.1-0.1-0.2-0.1
			c-0.2-0.2-0.4-0.6-0.4-0.9c0-0.3,0.1-0.7,0.4-0.9c0.2-0.2,0.6-0.4,0.9-0.4c0.1,0,0.2,0,0.3,0c0.3-0.6,0.6-1.1,1-1.6
			c0.7-1.1,1.6-2,2.3-2.8c-0.1,0-0.2,0-0.2,0c-0.3,0-0.7-0.1-0.9-0.4c-0.2-0.2-0.4-0.6-0.4-0.9c0-0.3,0.1-0.7,0.4-0.9
			c0.2-0.2,0.6-0.4,0.9-0.4s0.7,0.1,0.9,0.4c0.2,0.2,0.4,0.6,0.4,0.9c0,0.1,0,0.2,0,0.3c0.9-0.8,1.8-1.5,2.3-1.8v-4.2
			c-0.1,0-0.2,0-0.2,0c-0.3,0-0.7-0.1-0.9-0.4c-0.2-0.2-0.4-0.6-0.4-0.9c0-0.3,0.1-0.7,0.4-0.9c0.2-0.2,0.6-0.4,0.9-0.4
			c0.1,0,0.2,0,0.2,0v-8.9H51.4v8.9c0,0,0.1,0,0.1,0c0.3,0,0.7,0.1,0.9,0.4c0.2,0.2,0.4,0.6,0.4,0.9c0,0.3-0.1,0.7-0.4,0.9
			c-0.2,0.2-0.6,0.4-0.9,0.4c0,0-0.1,0-0.1,0c-0.3,8.7-4.4,14.3-4.8,14.7l-8,10.8c0.1,0.1,0.2,0.1,0.3,0.2c0.2,0.2,0.4,0.6,0.4,0.9
			c0,0.3-0.1,0.7-0.4,0.9c-0.2,0.2-0.6,0.4-0.9,0.4c-0.3,0-0.7-0.1-0.9-0.4l-7.8,10.6c2.7,1,7.8,3.5,11.5,8.3
			c0.2-0.1,0.4-0.2,0.6-0.2c0.3,0,0.7,0.1,0.9,0.4c0.2,0.2,0.4,0.6,0.4,0.9c0,0.3-0.1,0.7-0.4,0.9c0,0-0.1,0-0.1,0.1
			c0.3,0.6,0.7,1.2,1,1.8l7.7-8.7c-0.1-0.1-0.2-0.1-0.3-0.2c-0.2-0.2-0.4-0.6-0.4-0.9c0-0.3,0.1-0.7,0.4-0.9
			c0.2-0.2,0.6-0.4,0.9-0.4c0.3,0,0.7,0.1,0.9,0.4c0.1,0.1,0.1,0.1,0.1,0.2L62,72.6c0.1-0.1,0.8-0.9,1.9-1.9
			c-0.1-0.2-0.2-0.5-0.2-0.7C63.7,69.7,63.8,69.3,64,69.1z M67.4,34.2c0.2-0.2,0.6-0.4,0.9-0.4s0.7,0.1,0.9,0.4
			c0.2,0.2,0.4,0.6,0.4,0.9c0,0.3-0.1,0.7-0.4,0.9c-0.2,0.2-0.6,0.4-0.9,0.4c-0.3,0-0.7-0.1-0.9-0.4c-0.2-0.2-0.4-0.6-0.4-0.9
			C67,34.7,67.2,34.4,67.4,34.2z M64,41.1c0.2-0.2,0.6-0.4,0.9-0.4c0.3,0,0.7,0.1,0.9,0.4c0.2,0.2,0.4,0.6,0.4,0.9
			c0,0.3-0.1,0.7-0.4,0.9c-0.2,0.2-0.6,0.4-0.9,0.4c-0.3,0-0.7-0.1-0.9-0.4c-0.2-0.2-0.4-0.6-0.4-0.9C63.7,41.7,63.8,41.4,64,41.1z
			 M35.6,78c-0.2,0.2-0.6,0.4-0.9,0.4c-0.3,0-0.7-0.1-0.9-0.4c-0.2-0.2-0.4-0.6-0.4-0.9c0-0.3,0.1-0.7,0.4-0.9
			c0.2-0.2,0.6-0.4,0.9-0.4c0.3,0,0.7,0.1,0.9,0.4c0.2,0.2,0.4,0.6,0.4,0.9C36,77.4,35.8,77.7,35.6,78z M39,84.9
			c-0.2,0.2-0.6,0.4-0.9,0.4c-0.3,0-0.7-0.1-0.9-0.4c-0.2-0.2-0.4-0.6-0.4-0.9c0-0.3,0.1-0.7,0.4-0.9c0.2-0.2,0.6-0.4,0.9-0.4
			c0.3,0,0.7,0.1,0.9,0.4c0.2,0.2,0.4,0.6,0.4,0.9C39.3,84.4,39.2,84.7,39,84.9z M42.3,78c-0.2,0.2-0.6,0.4-0.9,0.4
			c-0.3,0-0.7-0.1-0.9-0.4c-0.2-0.2-0.4-0.6-0.4-0.9c0-0.3,0.1-0.7,0.4-0.9c0.2-0.2,0.6-0.4,0.9-0.4c0.3,0,0.7,0.1,0.9,0.4
			c0.2,0.2,0.4,0.6,0.4,0.9C42.7,77.4,42.6,77.7,42.3,78z M45.7,84.9c-0.2,0.2-0.6,0.4-0.9,0.4c-0.3,0-0.7-0.1-0.9-0.4
			c-0.2-0.2-0.4-0.6-0.4-0.9c0-0.3,0.1-0.7,0.4-0.9c0.2-0.2,0.6-0.4,0.9-0.4c0.3,0,0.7,0.1,0.9,0.4c0.2,0.2,0.4,0.6,0.4,0.9
			C46.1,84.4,45.9,84.7,45.7,84.9z M45.7,71c-0.2,0.2-0.6,0.4-0.9,0.4c-0.3,0-0.7-0.1-0.9-0.4c-0.2-0.2-0.4-0.6-0.4-0.9
			c0-0.3,0.1-0.7,0.4-0.9c0.2-0.2,0.6-0.4,0.9-0.4c0.3,0,0.7,0.1,0.9,0.4c0.2,0.2,0.4,0.6,0.4,0.9C46.1,70.4,45.9,70.7,45.7,71z
			 M49.1,78c-0.2,0.2-0.6,0.4-0.9,0.4c-0.3,0-0.7-0.1-0.9-0.4c-0.2-0.2-0.4-0.6-0.4-0.9c0-0.3,0.1-0.7,0.4-0.9
			c0.2-0.2,0.6-0.4,0.9-0.4c0.3,0,0.7,0.1,0.9,0.4c0.2,0.2,0.4,0.6,0.4,0.9C49.5,77.4,49.3,77.7,49.1,78z M49.1,64
			c-0.2,0.2-0.6,0.4-0.9,0.4c-0.3,0-0.7-0.1-0.9-0.4c-0.2-0.2-0.4-0.6-0.4-0.9c0-0.3,0.1-0.7,0.4-0.9c0.2-0.2,0.6-0.4,0.9-0.4
			c0.3,0,0.7,0.1,0.9,0.4c0.2,0.2,0.4,0.6,0.4,0.9C49.5,63.4,49.3,63.7,49.1,64z M52.4,71c-0.2,0.2-0.6,0.4-0.9,0.4
			c-0.3,0-0.7-0.1-0.9-0.4c-0.2-0.2-0.4-0.6-0.4-0.9c0-0.3,0.1-0.7,0.4-0.9c0.2-0.2,0.6-0.4,0.9-0.4c0.3,0,0.7,0.1,0.9,0.4
			c0.2,0.2,0.4,0.6,0.4,0.9C52.8,70.4,52.7,70.7,52.4,71z M52.4,57c-0.2,0.2-0.6,0.4-0.9,0.4c-0.3,0-0.7-0.1-0.9-0.4
			c-0.2-0.2-0.4-0.6-0.4-0.9c0-0.3,0.1-0.7,0.4-0.9c0.2-0.2,0.6-0.4,0.9-0.4c0.3,0,0.7,0.1,0.9,0.4c0.2,0.2,0.4,0.6,0.4,0.9
			C52.8,56.4,52.7,56.7,52.4,57z M55.8,78c-0.2,0.2-0.6,0.4-0.9,0.4c-0.3,0-0.7-0.1-0.9-0.4c-0.2-0.2-0.4-0.6-0.4-0.9
			c0-0.3,0.1-0.7,0.4-0.9c0.2-0.2,0.6-0.4,0.9-0.4c0.3,0,0.7,0.1,0.9,0.4c0.2,0.2,0.4,0.6,0.4,0.9C56.2,77.4,56,77.7,55.8,78z
			 M55.8,64c-0.2,0.2-0.6,0.4-0.9,0.4c-0.3,0-0.7-0.1-0.9-0.4c-0.2-0.2-0.4-0.6-0.4-0.9c0-0.3,0.1-0.7,0.4-0.9
			c0.2-0.2,0.6-0.4,0.9-0.4c0.3,0,0.7,0.1,0.9,0.4c0.2,0.2,0.4,0.6,0.4,0.9C56.2,63.4,56,63.7,55.8,64z M55.8,50
			c-0.2,0.2-0.6,0.4-0.9,0.4c-0.3,0-0.7-0.1-0.9-0.4c-0.2-0.2-0.4-0.6-0.4-0.9c0-0.3,0.1-0.7,0.4-0.9c0.2-0.2,0.6-0.4,0.9-0.4
			c0.3,0,0.7,0.1,0.9,0.4c0.2,0.2,0.4,0.6,0.4,0.9C56.2,49.4,56,49.8,55.8,50z M55.8,36c-0.2,0.2-0.6,0.4-0.9,0.4
			c-0.3,0-0.7-0.1-0.9-0.4c-0.2-0.2-0.4-0.6-0.4-0.9c0-0.3,0.1-0.7,0.4-0.9c0.2-0.2,0.6-0.4,0.9-0.4c0.3,0,0.7,0.1,0.9,0.4
			c0.2,0.2,0.4,0.6,0.4,0.9C56.2,35.4,56,35.8,55.8,36z M59.2,71c-0.2,0.2-0.6,0.4-0.9,0.4s-0.7-0.1-0.9-0.4
			c-0.2-0.2-0.4-0.6-0.4-0.9c0-0.3,0.1-0.7,0.4-0.9c0.2-0.2,0.6-0.4,0.9-0.4s0.7,0.1,0.9,0.4c0.2,0.2,0.4,0.6,0.4,0.9
			C59.6,70.4,59.4,70.7,59.2,71z M59.2,57c-0.2,0.2-0.6,0.4-0.9,0.4s-0.7-0.1-0.9-0.4c-0.2-0.2-0.4-0.6-0.4-0.9
			c0-0.3,0.1-0.7,0.4-0.9c0.2-0.2,0.6-0.4,0.9-0.4s0.7,0.1,0.9,0.4c0.2,0.2,0.4,0.6,0.4,0.9C59.6,56.4,59.4,56.7,59.2,57z M59.2,43
			c-0.2,0.2-0.6,0.4-0.9,0.4c-0.3,0-0.7-0.1-0.9-0.4c-0.2-0.2-0.4-0.6-0.4-0.9c0-0.3,0.1-0.7,0.4-0.9c0.2-0.2,0.6-0.4,0.9-0.4
			s0.7,0.1,0.9,0.4c0.2,0.2,0.4,0.6,0.4,0.9C59.6,42.4,59.4,42.8,59.2,43z M62.5,64c-0.2,0.2-0.6,0.4-0.9,0.4
			c-0.3,0-0.7-0.1-0.9-0.4c-0.2-0.2-0.4-0.6-0.4-0.9c0-0.3,0.1-0.7,0.4-0.9c0.2-0.2,0.6-0.4,0.9-0.4c0.3,0,0.7,0.1,0.9,0.4
			c0.2,0.2,0.4,0.6,0.4,0.9C62.9,63.4,62.8,63.7,62.5,64z M62.5,50c-0.2,0.2-0.6,0.4-0.9,0.4c-0.3,0-0.7-0.1-0.9-0.4
			c-0.2-0.2-0.4-0.6-0.4-0.9c0-0.3,0.1-0.7,0.4-0.9c0.2-0.2,0.6-0.4,0.9-0.4c0.3,0,0.7,0.1,0.9,0.4c0.2,0.2,0.4,0.6,0.4,0.9
			C62.9,49.4,62.8,49.8,62.5,50z M62.5,36c-0.2,0.2-0.6,0.4-0.9,0.4c-0.3,0-0.7-0.1-0.9-0.4c-0.2-0.2-0.4-0.6-0.4-0.9
			c0-0.3,0.1-0.7,0.4-0.9c0.2-0.2,0.6-0.4,0.9-0.4c0.3,0,0.7,0.1,0.9,0.4c0.2,0.2,0.4,0.6,0.4,0.9C62.9,35.4,62.8,35.8,62.5,36z"/>
		<path fill="#C1573F" d="M68,101c-1,1.6-1.6,3.1-1.6,4.9c-0.1,2.5,0.9,4.8,2.6,6.6c1.7,1.8,4,2.8,6.4,2.8c2.3,0,4.4-0.7,6.1-2.2
			C78.5,105.3,70.7,101.9,68,101z"/>
		<path fill="#CCCCCC" d="M108.9,67.5c-0.1,0-0.2,0-0.2,0c-0.3,0-0.7-0.1-0.9-0.4c-0.2-0.2-0.4-0.6-0.4-0.9c0-0.3,0.1-0.7,0.4-0.9
			c0.2-0.2,0.6-0.4,0.9-0.4c0.3,0,0.7,0.1,0.9,0.4c0.2,0.2,0.4,0.6,0.4,0.9c0,0.1,0,0.2,0,0.3c0.9-0.8,1.8-1.5,2.3-1.8v-4.2
			c-0.1,0-0.2,0-0.2,0c-0.3,0-0.7-0.1-0.9-0.4c-0.2-0.2-0.4-0.6-0.4-0.9c0-0.3,0.1-0.7,0.4-0.9c0.2-0.2,0.6-0.4,0.9-0.4
			c0.1,0,0.2,0,0.2,0V49H91.7v8.9c0,0,0.1,0,0.1,0c0.3,0,0.7,0.1,0.9,0.4c0.2,0.2,0.4,0.6,0.4,0.9c0,0.3-0.1,0.7-0.4,0.9
			c-0.2,0.2-0.6,0.4-0.9,0.4c0,0-0.1,0-0.1,0c-0.3,8.7-4.4,14.3-4.8,14.7l-8,10.8c0.1,0.1,0.2,0.1,0.3,0.2c0.2,0.2,0.4,0.6,0.4,0.9
			c0,0.3-0.1,0.7-0.4,0.9c-0.2,0.2-0.6,0.4-0.9,0.4c-0.3,0-0.7-0.1-0.9-0.4l-7.8,10.6c2.7,1,7.8,3.5,11.5,8.3
			c0.2-0.1,0.4-0.2,0.6-0.2c0.3,0,0.7,0.1,0.9,0.4c0.2,0.2,0.4,0.6,0.4,0.9c0,0.3-0.1,0.7-0.4,0.9c0,0-0.1,0-0.1,0.1
			c0.3,0.6,0.7,1.2,1,1.8l7.7-8.7c-0.1-0.1-0.2-0.1-0.3-0.2c-0.2-0.2-0.4-0.6-0.4-0.9c0-0.3,0.1-0.7,0.4-0.9
			c0.2-0.2,0.6-0.4,0.9-0.4c0.3,0,0.7,0.1,0.9,0.4c0.1,0.1,0.1,0.1,0.1,0.2l9.4-10.6c0.1-0.1,0.8-0.9,1.9-1.9
			c-0.1-0.2-0.2-0.5-0.2-0.7c0-0.3,0.1-0.7,0.4-0.9c0,0,0.1,0,0.1-0.1c-1.5-4.8-1.1-8.8,0.1-11.9c-0.1,0-0.1-0.1-0.2-0.1
			c-0.2-0.2-0.4-0.6-0.4-0.9c0-0.3,0.1-0.7,0.4-0.9c0.2-0.2,0.6-0.4,0.9-0.4c0.1,0,0.2,0,0.3,0c0.3-0.6,0.6-1.1,1-1.6
			C107.3,69.3,108.1,68.3,108.9,67.5z M107.7,51.3c0.2-0.2,0.6-0.4,0.9-0.4c0.3,0,0.7,0.1,0.9,0.4c0.2,0.2,0.4,0.6,0.4,0.9
			c0,0.3-0.1,0.7-0.4,0.9c-0.2,0.2-0.6,0.4-0.9,0.4c-0.3,0-0.7-0.1-0.9-0.4c-0.2-0.2-0.4-0.6-0.4-0.9
			C107.3,51.9,107.5,51.6,107.7,51.3z M75.9,95.1c-0.2,0.2-0.6,0.4-0.9,0.4c-0.3,0-0.7-0.1-0.9-0.4c-0.2-0.2-0.4-0.6-0.4-0.9
			c0-0.3,0.1-0.7,0.4-0.9c0.2-0.2,0.6-0.4,0.9-0.4c0.3,0,0.7,0.1,0.9,0.4c0.2,0.2,0.4,0.6,0.4,0.9C76.3,94.5,76.1,94.9,75.9,95.1z
			 M79.2,102.1c-0.2,0.2-0.6,0.4-0.9,0.4c-0.3,0-0.7-0.1-0.9-0.4c-0.2-0.2-0.4-0.6-0.4-0.9c0-0.3,0.1-0.7,0.4-0.9
			c0.2-0.2,0.6-0.4,0.9-0.4c0.3,0,0.7,0.1,0.9,0.4c0.2,0.2,0.4,0.6,0.4,0.9C79.6,101.5,79.5,101.9,79.2,102.1z M82.6,95.1
			c-0.2,0.2-0.6,0.4-0.9,0.4c-0.3,0-0.7-0.1-0.9-0.4c-0.2-0.2-0.4-0.6-0.4-0.9c0-0.3,0.1-0.7,0.4-0.9c0.2-0.2,0.6-0.4,0.9-0.4
			c0.3,0,0.7,0.1,0.9,0.4c0.2,0.2,0.4,0.6,0.4,0.9C83,94.5,82.9,94.9,82.6,95.1z M86,102.1c-0.2,0.2-0.6,0.4-0.9,0.4
			c-0.3,0-0.7-0.1-0.9-0.4c-0.2-0.2-0.4-0.6-0.4-0.9c0-0.3,0.1-0.7,0.4-0.9c0.2-0.2,0.6-0.4,0.9-0.4c0.3,0,0.7,0.1,0.9,0.4
			c0.2,0.2,0.4,0.6,0.4,0.9C86.4,101.5,86.2,101.9,86,102.1z M86,88.1c-0.2,0.2-0.6,0.4-0.9,0.4c-0.3,0-0.7-0.1-0.9-0.4
			c-0.2-0.2-0.4-0.6-0.4-0.9c0-0.3,0.1-0.7,0.4-0.9c0.2-0.2,0.6-0.4,0.9-0.4s0.7,0.1,0.9,0.4c0.2,0.2,0.4,0.6,0.4,0.9
			C86.4,87.5,86.2,87.9,86,88.1z M89.4,95.1c-0.2,0.2-0.6,0.4-0.9,0.4c-0.3,0-0.7-0.1-0.9-0.4c-0.2-0.2-0.4-0.6-0.4-0.9
			c0-0.3,0.1-0.7,0.4-0.9c0.2-0.2,0.6-0.4,0.9-0.4c0.3,0,0.7,0.1,0.9,0.4c0.2,0.2,0.4,0.6,0.4,0.9C89.7,94.5,89.6,94.9,89.4,95.1z
			 M89.4,81.1c-0.2,0.2-0.6,0.4-0.9,0.4c-0.3,0-0.7-0.1-0.9-0.4c-0.2-0.2-0.4-0.6-0.4-0.9c0-0.3,0.1-0.7,0.4-0.9
			c0.2-0.2,0.6-0.4,0.9-0.4c0.3,0,0.7,0.1,0.9,0.4c0.2,0.2,0.4,0.6,0.4,0.9C89.7,80.5,89.6,80.9,89.4,81.1z M92.7,88.1
			c-0.2,0.2-0.6,0.4-0.9,0.4c-0.3,0-0.7-0.1-0.9-0.4c-0.2-0.2-0.4-0.6-0.4-0.9c0-0.3,0.1-0.7,0.4-0.9c0.2-0.2,0.6-0.4,0.9-0.4
			c0.3,0,0.7,0.1,0.9,0.4c0.2,0.2,0.4,0.6,0.4,0.9C93.1,87.5,93,87.9,92.7,88.1z M92.7,74.1c-0.2,0.2-0.6,0.4-0.9,0.4
			c-0.3,0-0.7-0.1-0.9-0.4c-0.2-0.2-0.4-0.6-0.4-0.9c0-0.3,0.1-0.7,0.4-0.9c0.2-0.2,0.6-0.4,0.9-0.4c0.3,0,0.7,0.1,0.9,0.4
			c0.2,0.2,0.4,0.6,0.4,0.9C93.1,73.6,93,73.9,92.7,74.1z M96.1,95.1c-0.2,0.2-0.6,0.4-0.9,0.4c-0.3,0-0.7-0.1-0.9-0.4
			c-0.2-0.2-0.4-0.6-0.4-0.9c0-0.3,0.1-0.7,0.4-0.9c0.2-0.2,0.6-0.4,0.9-0.4c0.3,0,0.7,0.1,0.9,0.4c0.2,0.2,0.4,0.6,0.4,0.9
			C96.5,94.5,96.3,94.9,96.1,95.1z M96.1,81.1c-0.2,0.2-0.6,0.4-0.9,0.4c-0.3,0-0.7-0.1-0.9-0.4c-0.2-0.2-0.4-0.6-0.4-0.9
			c0-0.3,0.1-0.7,0.4-0.9c0.2-0.2,0.6-0.4,0.9-0.4c0.3,0,0.7,0.1,0.9,0.4c0.2,0.2,0.4,0.6,0.4,0.9C96.5,80.5,96.3,80.9,96.1,81.1z
			 M96.1,67.2c-0.2,0.2-0.6,0.4-0.9,0.4c-0.3,0-0.7-0.1-0.9-0.4c-0.2-0.2-0.4-0.6-0.4-0.9c0-0.3,0.1-0.7,0.4-0.9
			c0.2-0.2,0.6-0.4,0.9-0.4c0.3,0,0.7,0.1,0.9,0.4c0.2,0.2,0.4,0.6,0.4,0.9C96.5,66.6,96.3,66.9,96.1,67.2z M96.1,53.2
			c-0.2,0.2-0.6,0.4-0.9,0.4c-0.3,0-0.7-0.1-0.9-0.4c-0.2-0.2-0.4-0.6-0.4-0.9c0-0.3,0.1-0.7,0.4-0.9c0.2-0.2,0.6-0.4,0.9-0.4
			c0.3,0,0.7,0.1,0.9,0.4c0.2,0.2,0.4,0.6,0.4,0.9C96.5,52.6,96.3,52.9,96.1,53.2z M99.5,88.1c-0.2,0.2-0.6,0.4-0.9,0.4
			c-0.3,0-0.7-0.1-0.9-0.4c-0.2-0.2-0.4-0.6-0.4-0.9c0-0.3,0.1-0.7,0.4-0.9c0.2-0.2,0.6-0.4,0.9-0.4c0.3,0,0.7,0.1,0.9,0.4
			c0.2,0.2,0.4,0.6,0.4,0.9C99.9,87.5,99.7,87.9,99.5,88.1z M99.5,74.1c-0.2,0.2-0.6,0.4-0.9,0.4c-0.3,0-0.7-0.1-0.9-0.4
			c-0.2-0.2-0.4-0.6-0.4-0.9c0-0.3,0.1-0.7,0.4-0.9c0.2-0.2,0.6-0.4,0.9-0.4c0.3,0,0.7,0.1,0.9,0.4c0.2,0.2,0.4,0.6,0.4,0.9
			C99.9,73.6,99.7,73.9,99.5,74.1z M99.5,60.2c-0.2,0.2-0.6,0.4-0.9,0.4c-0.3,0-0.7-0.1-0.9-0.4c-0.2-0.2-0.4-0.6-0.4-0.9
			c0-0.3,0.1-0.7,0.4-0.9c0.2-0.2,0.6-0.4,0.9-0.4c0.3,0,0.7,0.1,0.9,0.4c0.2,0.2,0.4,0.6,0.4,0.9C99.9,59.6,99.7,59.9,99.5,60.2z
			 M102.8,81.1c-0.2,0.2-0.6,0.4-0.9,0.4c-0.3,0-0.7-0.1-0.9-0.4c-0.2-0.2-0.4-0.6-0.4-0.9c0-0.3,0.1-0.7,0.4-0.9
			c0.2-0.2,0.6-0.4,0.9-0.4c0.3,0,0.7,0.1,0.9,0.4c0.2,0.2,0.4,0.6,0.4,0.9C103.2,80.5,103.1,80.9,102.8,81.1z M102.8,67.2
			c-0.2,0.2-0.6,0.4-0.9,0.4c-0.3,0-0.7-0.1-0.9-0.4c-0.2-0.2-0.4-0.6-0.4-0.9c0-0.3,0.1-0.7,0.4-0.9c0.2-0.2,0.6-0.4,0.9-0.4
			c0.3,0,0.7,0.1,0.9,0.4c0.2,0.2,0.4,0.6,0.4,0.9C103.2,66.6,103.1,66.9,102.8,67.2z M102.8,53.2c-0.2,0.2-0.6,0.4-0.9,0.4
			c-0.3,0-0.7-0.1-0.9-0.4c-0.2-0.2-0.4-0.6-0.4-0.9c0-0.3,0.1-0.7,0.4-0.9c0.2-0.2,0.6-0.4,0.9-0.4c0.3,0,0.7,0.1,0.9,0.4
			c0.2,0.2,0.4,0.6,0.4,0.9C103.2,52.6,103.1,52.9,102.8,53.2z M105.3,60.6c-0.3,0-0.7-0.1-0.9-0.4c-0.2-0.2-0.4-0.6-0.4-0.9
			c0-0.3,0.1-0.7,0.4-0.9c0.2-0.2,0.6-0.4,0.9-0.4c0.3,0,0.7,0.1,0.9,0.4c0.2,0.2,0.4,0.6,0.4,0.9c0,0.3-0.1,0.7-0.4,0.9
			C106,60.4,105.6,60.6,105.3,60.6z"/>
		<path fill="#C1573F" d="M107,85.7c0.6-0.4,1.3-0.8,2-1c4-1.6,6-4,6.2-7.5c0.3-3.9-2.3-9.6-2.3-9.7C110,69.6,103.7,75.8,107,85.7z"
			/>
		<path fill="#3F352F" d="M69.7,70c5-2,7.7-5.3,7.9-9.9c0.2-3.7-1.3-7.5-2.4-10.5C75,49,74.8,48.5,74.6,48v-29
			c0-0.7-0.6-1.3-1.3-1.3H50.1c-0.7,0-1.3,0.6-1.3,1.3v23.3c0,8.6-4.2,14.1-4.2,14.2c0,0-18.5,25-18.5,25.1c-1.3,2-2.5,4.3-2.6,7.1
			c-0.1,3.2,1.1,6.2,3.3,8.4c2.2,2.3,5.1,3.6,8.3,3.6c0.1,0,5.8,0,9.5-4.5L64,74.3C64,74.3,66.8,71.1,69.7,70z M74.9,60
			c-0.2,3.5-2.2,6-6.2,7.5c-0.7,0.3-1.4,0.6-2,1c-3.4-9.9,3-16.1,5.9-18.2C72.6,50.4,75.2,56.1,74.9,60z M51.4,20.4H72v3.4H51.4
			V20.4z M51.4,26.4H72v2.8H51.4V26.4z M35.1,98.1c-2.5-0.1-4.7-1.1-6.4-2.8c-1.7-1.8-2.6-4.1-2.6-6.6c0-1.8,0.7-3.3,1.6-4.9
			c2.7,1,10.5,4.3,13.5,12.1C39.5,97.4,37.4,98.1,35.1,98.1z M62,72.6l-9.4,10.6c0-0.1-0.1-0.1-0.1-0.2c-0.2-0.2-0.6-0.4-0.9-0.4
			c-0.3,0-0.7,0.1-0.9,0.4c-0.2,0.2-0.4,0.6-0.4,0.9c0,0.3,0.1,0.7,0.4,0.9c0.1,0.1,0.2,0.2,0.3,0.2l-7.7,8.7
			c-0.3-0.6-0.6-1.2-1-1.8c0,0,0.1,0,0.1-0.1c0.2-0.2,0.4-0.6,0.4-0.9c0-0.3-0.1-0.7-0.4-0.9c-0.2-0.2-0.6-0.4-0.9-0.4
			c-0.2,0-0.4,0.1-0.6,0.2c-3.7-4.8-8.8-7.2-11.5-8.3L37.1,71c0.2,0.2,0.6,0.4,0.9,0.4c0.3,0,0.7-0.1,0.9-0.4
			c0.2-0.2,0.4-0.6,0.4-0.9c0-0.3-0.1-0.7-0.4-0.9c-0.1-0.1-0.2-0.2-0.3-0.2l8-10.8c0.3-0.4,4.4-5.9,4.8-14.7c0,0,0.1,0,0.1,0
			c0.3,0,0.7-0.1,0.9-0.4c0.2-0.2,0.4-0.6,0.4-0.9c0-0.3-0.1-0.7-0.4-0.9c-0.2-0.2-0.6-0.4-0.9-0.4c0,0-0.1,0-0.1,0v-8.9H72v8.9
			c-0.1,0-0.2,0-0.2,0c-0.3,0-0.7,0.1-0.9,0.4c-0.2,0.2-0.4,0.6-0.4,0.9c0,0.3,0.1,0.7,0.4,0.9c0.2,0.2,0.6,0.4,0.9,0.4
			c0.1,0,0.2,0,0.2,0v4.2c-0.5,0.4-1.4,1-2.3,1.8c0-0.1,0-0.2,0-0.3c0-0.3-0.1-0.7-0.4-0.9c-0.2-0.2-0.6-0.4-0.9-0.4
			s-0.7,0.1-0.9,0.4c-0.2,0.2-0.4,0.6-0.4,0.9c0,0.3,0.1,0.7,0.4,0.9c0.2,0.2,0.6,0.4,0.9,0.4c0.1,0,0.2,0,0.2,0
			c-0.8,0.8-1.6,1.7-2.3,2.8c-0.3,0.5-0.7,1-1,1.6c-0.1,0-0.2,0-0.3,0c-0.3,0-0.7,0.1-0.9,0.4c-0.2,0.2-0.4,0.6-0.4,0.9
			c0,0.3,0.1,0.7,0.4,0.9c0.1,0,0.1,0.1,0.2,0.1c-1.2,3.1-1.6,7.1-0.1,11.9c0,0-0.1,0-0.1,0.1c-0.2,0.2-0.4,0.6-0.4,0.9
			c0,0.2,0.1,0.5,0.2,0.7C62.8,71.7,62.1,72.5,62,72.6z"/>
		<path fill="#3F352F" d="M54.9,33.8c-0.3,0-0.7,0.1-0.9,0.4c-0.2,0.2-0.4,0.6-0.4,0.9c0,0.3,0.1,0.7,0.4,0.9
			c0.2,0.2,0.6,0.4,0.9,0.4c0.3,0,0.7-0.1,0.9-0.4c0.2-0.2,0.4-0.6,0.4-0.9c0-0.3-0.1-0.7-0.4-0.9C55.6,33.9,55.2,33.8,54.9,33.8z"
			/>
		<path fill="#3F352F" d="M61.6,33.8c-0.3,0-0.7,0.1-0.9,0.4c-0.2,0.2-0.4,0.6-0.4,0.9c0,0.3,0.1,0.7,0.4,0.9
			c0.2,0.2,0.6,0.4,0.9,0.4c0.3,0,0.7-0.1,0.9-0.4c0.2-0.2,0.4-0.6,0.4-0.9c0-0.3-0.1-0.7-0.4-0.9C62.3,33.9,62,33.8,61.6,33.8z"/>
		<path fill="#3F352F" d="M68.3,36.4c0.3,0,0.7-0.1,0.9-0.4c0.2-0.2,0.4-0.6,0.4-0.9c0-0.3-0.1-0.7-0.4-0.9
			c-0.2-0.2-0.6-0.4-0.9-0.4s-0.7,0.1-0.9,0.4c-0.2,0.2-0.4,0.6-0.4,0.9c0,0.3,0.1,0.7,0.4,0.9C67.7,36.3,68,36.4,68.3,36.4z"/>
		<path fill="#3F352F" d="M58.2,40.8c-0.3,0-0.7,0.1-0.9,0.4c-0.2,0.2-0.4,0.6-0.4,0.9c0,0.3,0.1,0.7,0.4,0.9
			c0.2,0.2,0.6,0.4,0.9,0.4c0.3,0,0.7-0.1,0.9-0.4c0.2-0.2,0.4-0.6,0.4-0.9c0-0.3-0.1-0.7-0.4-0.9C58.9,40.9,58.6,40.8,58.2,40.8z"
			/>
		<path fill="#3F352F" d="M65,43.4c0.3,0,0.7-0.1,0.9-0.4c0.2-0.2,0.4-0.6,0.4-0.9c0-0.3-0.1-0.7-0.4-0.9c-0.2-0.2-0.6-0.4-0.9-0.4
			c-0.3,0-0.7,0.1-0.9,0.4c-0.2,0.2-0.4,0.6-0.4,0.9c0,0.3,0.1,0.7,0.4,0.9C64.3,43.3,64.6,43.4,65,43.4z"/>
		<path fill="#3F352F" d="M54.9,47.7c-0.3,0-0.7,0.1-0.9,0.4c-0.2,0.2-0.4,0.6-0.4,0.9c0,0.3,0.1,0.7,0.4,0.9
			c0.2,0.2,0.6,0.4,0.9,0.4c0.3,0,0.7-0.1,0.9-0.4c0.2-0.2,0.4-0.6,0.4-0.9c0-0.3-0.1-0.7-0.4-0.9C55.6,47.9,55.2,47.7,54.9,47.7z"
			/>
		<path fill="#3F352F" d="M61.6,47.7c-0.3,0-0.7,0.1-0.9,0.4c-0.2,0.2-0.4,0.6-0.4,0.9c0,0.3,0.1,0.7,0.4,0.9
			c0.2,0.2,0.6,0.4,0.9,0.4c0.3,0,0.7-0.1,0.9-0.4c0.2-0.2,0.4-0.6,0.4-0.9c0-0.3-0.1-0.7-0.4-0.9C62.3,47.9,62,47.7,61.6,47.7z"/>
		<path fill="#3F352F" d="M51.5,54.7c-0.3,0-0.7,0.1-0.9,0.4c-0.2,0.2-0.4,0.6-0.4,0.9c0,0.3,0.1,0.7,0.4,0.9
			c0.2,0.2,0.6,0.4,0.9,0.4c0.3,0,0.7-0.1,0.9-0.4c0.2-0.2,0.4-0.6,0.4-0.9c0-0.3-0.1-0.7-0.4-0.9C52.2,54.9,51.8,54.7,51.5,54.7z"
			/>
		<path fill="#3F352F" d="M58.2,54.7c-0.3,0-0.7,0.1-0.9,0.4c-0.2,0.2-0.4,0.6-0.4,0.9c0,0.3,0.1,0.7,0.4,0.9
			c0.2,0.2,0.6,0.4,0.9,0.4s0.7-0.1,0.9-0.4c0.2-0.2,0.4-0.6,0.4-0.9c0-0.3-0.1-0.7-0.4-0.9C58.9,54.9,58.6,54.7,58.2,54.7z"/>
		<path fill="#3F352F" d="M48.1,61.7c-0.3,0-0.7,0.1-0.9,0.4c-0.2,0.2-0.4,0.6-0.4,0.9c0,0.3,0.1,0.7,0.4,0.9
			c0.2,0.2,0.6,0.4,0.9,0.4c0.3,0,0.7-0.1,0.9-0.4c0.2-0.2,0.4-0.6,0.4-0.9c0-0.3-0.1-0.7-0.4-0.9C48.8,61.9,48.5,61.7,48.1,61.7z"
			/>
		<path fill="#3F352F" d="M54.9,61.7c-0.3,0-0.7,0.1-0.9,0.4c-0.2,0.2-0.4,0.6-0.4,0.9c0,0.3,0.1,0.7,0.4,0.9
			c0.2,0.2,0.6,0.4,0.9,0.4c0.3,0,0.7-0.1,0.9-0.4c0.2-0.2,0.4-0.6,0.4-0.9c0-0.3-0.1-0.7-0.4-0.9C55.6,61.9,55.2,61.7,54.9,61.7z"
			/>
		<path fill="#3F352F" d="M61.6,61.7c-0.3,0-0.7,0.1-0.9,0.4c-0.2,0.2-0.4,0.6-0.4,0.9c0,0.3,0.1,0.7,0.4,0.9
			c0.2,0.2,0.6,0.4,0.9,0.4c0.3,0,0.7-0.1,0.9-0.4c0.2-0.2,0.4-0.6,0.4-0.9c0-0.3-0.1-0.7-0.4-0.9C62.3,61.9,62,61.7,61.6,61.7z"/>
		<path fill="#3F352F" d="M44.8,68.7c-0.3,0-0.7,0.1-0.9,0.4c-0.2,0.2-0.4,0.6-0.4,0.9c0,0.3,0.1,0.7,0.4,0.9
			c0.2,0.2,0.6,0.4,0.9,0.4c0.3,0,0.7-0.1,0.9-0.4c0.2-0.2,0.4-0.6,0.4-0.9c0-0.3-0.1-0.7-0.4-0.9C45.4,68.9,45.1,68.7,44.8,68.7z"
			/>
		<path fill="#3F352F" d="M51.5,68.7c-0.3,0-0.7,0.1-0.9,0.4c-0.2,0.2-0.4,0.6-0.4,0.9c0,0.3,0.1,0.7,0.4,0.9
			c0.2,0.2,0.6,0.4,0.9,0.4c0.3,0,0.7-0.1,0.9-0.4c0.2-0.2,0.4-0.6,0.4-0.9c0-0.3-0.1-0.7-0.4-0.9C52.2,68.9,51.8,68.7,51.5,68.7z"
			/>
		<path fill="#3F352F" d="M58.2,68.7c-0.3,0-0.7,0.1-0.9,0.4c-0.2,0.2-0.4,0.6-0.4,0.9c0,0.3,0.1,0.7,0.4,0.9
			c0.2,0.2,0.6,0.4,0.9,0.4s0.7-0.1,0.9-0.4c0.2-0.2,0.4-0.6,0.4-0.9c0-0.3-0.1-0.7-0.4-0.9C58.9,68.9,58.6,68.7,58.2,68.7z"/>
		<path fill="#3F352F" d="M34.7,75.7c-0.3,0-0.7,0.1-0.9,0.4c-0.2,0.2-0.4,0.6-0.4,0.9c0,0.3,0.1,0.7,0.4,0.9
			c0.2,0.2,0.6,0.4,0.9,0.4c0.3,0,0.7-0.1,0.9-0.4c0.2-0.2,0.4-0.6,0.4-0.9c0-0.3-0.1-0.7-0.4-0.9C35.3,75.8,35,75.7,34.7,75.7z"/>
		<path fill="#3F352F" d="M41.4,75.7c-0.3,0-0.7,0.1-0.9,0.4c-0.2,0.2-0.4,0.6-0.4,0.9c0,0.3,0.1,0.7,0.4,0.9
			c0.2,0.2,0.6,0.4,0.9,0.4c0.3,0,0.7-0.1,0.9-0.4c0.2-0.2,0.4-0.6,0.4-0.9c0-0.3-0.1-0.7-0.4-0.9C42.1,75.8,41.7,75.7,41.4,75.7z"
			/>
		<path fill="#3F352F" d="M48.1,75.7c-0.3,0-0.7,0.1-0.9,0.4c-0.2,0.2-0.4,0.6-0.4,0.9c0,0.3,0.1,0.7,0.4,0.9
			c0.2,0.2,0.6,0.4,0.9,0.4c0.3,0,0.7-0.1,0.9-0.4c0.2-0.2,0.4-0.6,0.4-0.9c0-0.3-0.1-0.7-0.4-0.9C48.8,75.8,48.5,75.7,48.1,75.7z"
			/>
		<path fill="#3F352F" d="M54.9,75.7c-0.3,0-0.7,0.1-0.9,0.4c-0.2,0.2-0.4,0.6-0.4,0.9c0,0.3,0.1,0.7,0.4,0.9
			c0.2,0.2,0.6,0.4,0.9,0.4c0.3,0,0.7-0.1,0.9-0.4c0.2-0.2,0.4-0.6,0.4-0.9c0-0.3-0.1-0.7-0.4-0.9C55.6,75.8,55.2,75.7,54.9,75.7z"
			/>
		<path fill="#3F352F" d="M38,82.7c-0.3,0-0.7,0.1-0.9,0.4c-0.2,0.2-0.4,0.6-0.4,0.9c0,0.3,0.1,0.7,0.4,0.9c0.2,0.2,0.6,0.4,0.9,0.4
			c0.3,0,0.7-0.1,0.9-0.4c0.2-0.2,0.4-0.6,0.4-0.9c0-0.3-0.1-0.7-0.4-0.9C38.7,82.8,38.4,82.7,38,82.7z"/>
		<path fill="#3F352F" d="M44.8,82.7c-0.3,0-0.7,0.1-0.9,0.4c-0.2,0.2-0.4,0.6-0.4,0.9c0,0.3,0.1,0.7,0.4,0.9
			c0.2,0.2,0.6,0.4,0.9,0.4c0.3,0,0.7-0.1,0.9-0.4c0.2-0.2,0.4-0.6,0.4-0.9c0-0.3-0.1-0.7-0.4-0.9C45.4,82.8,45.1,82.7,44.8,82.7z"
			/>
		<path fill="#3F352F" d="M114.9,65.2v-29c0-0.7-0.6-1.3-1.3-1.3H90.4c-0.7,0-1.3,0.6-1.3,1.3v23.3c0,8.6-4.2,14.1-4.2,14.2
			c0,0-18.5,25-18.5,25.1c-1.3,2-2.5,4.3-2.6,7.1c-0.1,3.2,1.1,6.2,3.3,8.4c2.2,2.3,5.1,3.6,8.3,3.6c0.1,0,5.8,0,9.5-4.5l19.4-21.9
			c0,0,2.8-3.3,5.7-4.4c5-2,7.7-5.3,7.9-9.9c0.2-3.7-1.3-7.5-2.4-10.5C115.3,66.2,115.1,65.7,114.9,65.2z M91.7,37.5h20.6v3.4H91.7
			V37.5z M91.7,43.6h20.6v2.8H91.7V43.6z M75.4,115.2c-2.5-0.1-4.7-1.1-6.4-2.8c-1.7-1.8-2.6-4.1-2.6-6.6c0-1.8,0.7-3.3,1.6-4.9
			c2.7,1,10.5,4.3,13.5,12.1C79.8,114.5,77.7,115.3,75.4,115.2z M105.3,71.9c-0.3,0-0.7,0.1-0.9,0.4c-0.2,0.2-0.4,0.6-0.4,0.9
			c0,0.3,0.1,0.7,0.4,0.9c0.1,0,0.1,0.1,0.2,0.1c-1.2,3.1-1.6,7.1-0.1,11.9c0,0-0.1,0-0.1,0.1c-0.2,0.2-0.4,0.6-0.4,0.9
			c0,0.2,0.1,0.5,0.2,0.7c-1.1,1-1.8,1.8-1.9,1.9l-9.4,10.6c0-0.1-0.1-0.1-0.1-0.2c-0.2-0.2-0.6-0.4-0.9-0.4c-0.3,0-0.7,0.1-0.9,0.4
			c-0.2,0.2-0.4,0.6-0.4,0.9c0,0.3,0.1,0.7,0.4,0.9c0.1,0.1,0.2,0.2,0.3,0.2l-7.7,8.7c-0.3-0.6-0.6-1.2-1-1.8c0,0,0.1,0,0.1-0.1
			c0.2-0.2,0.4-0.6,0.4-0.9c0-0.3-0.1-0.7-0.4-0.9c-0.2-0.2-0.6-0.4-0.9-0.4c-0.2,0-0.4,0.1-0.6,0.2c-3.7-4.8-8.8-7.2-11.5-8.3
			l7.8-10.6c0.2,0.2,0.6,0.4,0.9,0.4c0.3,0,0.7-0.1,0.9-0.4c0.2-0.2,0.4-0.6,0.4-0.9c0-0.3-0.1-0.7-0.4-0.9
			c-0.1-0.1-0.2-0.2-0.3-0.2l8-10.8c0.3-0.4,4.4-5.9,4.8-14.7c0,0,0.1,0,0.1,0c0.3,0,0.7-0.1,0.9-0.4c0.2-0.2,0.4-0.6,0.4-0.9
			c0-0.3-0.1-0.7-0.4-0.9c-0.2-0.2-0.6-0.4-0.9-0.4c0,0-0.1,0-0.1,0V49h20.6v8.9c-0.1,0-0.2,0-0.2,0c-0.3,0-0.7,0.1-0.9,0.4
			c-0.2,0.2-0.4,0.6-0.4,0.9c0,0.3,0.1,0.7,0.4,0.9c0.2,0.2,0.6,0.4,0.9,0.4c0.1,0,0.2,0,0.2,0v4.2c-0.5,0.4-1.4,1-2.3,1.8
			c0-0.1,0-0.2,0-0.3c0-0.3-0.1-0.7-0.4-0.9c-0.2-0.2-0.6-0.4-0.9-0.4c-0.3,0-0.7,0.1-0.9,0.4c-0.2,0.2-0.4,0.6-0.4,0.9
			c0,0.3,0.1,0.7,0.4,0.9c0.2,0.2,0.6,0.4,0.9,0.4c0.1,0,0.2,0,0.2,0c-0.8,0.8-1.6,1.7-2.3,2.8c-0.3,0.5-0.7,1-1,1.6
			C105.5,71.9,105.4,71.9,105.3,71.9z M115.2,77.1c-0.2,3.5-2.2,6-6.2,7.5c-0.7,0.3-1.4,0.6-2,1c-3.4-9.9,3-16.1,5.9-18.2
			C112.9,67.5,115.5,73.2,115.2,77.1z"/>
		<path fill="#3F352F" d="M95.2,50.9c-0.3,0-0.7,0.1-0.9,0.4c-0.2,0.2-0.4,0.6-0.4,0.9c0,0.3,0.1,0.7,0.4,0.9
			c0.2,0.2,0.6,0.4,0.9,0.4c0.3,0,0.7-0.1,0.9-0.4c0.2-0.2,0.4-0.6,0.4-0.9c0-0.3-0.1-0.7-0.4-0.9C95.8,51.1,95.5,50.9,95.2,50.9z"
			/>
		<path fill="#3F352F" d="M101.9,50.9c-0.3,0-0.7,0.1-0.9,0.4c-0.2,0.2-0.4,0.6-0.4,0.9c0,0.3,0.1,0.7,0.4,0.9
			c0.2,0.2,0.6,0.4,0.9,0.4c0.3,0,0.7-0.1,0.9-0.4c0.2-0.2,0.4-0.6,0.4-0.9c0-0.3-0.1-0.7-0.4-0.9C102.6,51.1,102.3,50.9,101.9,50.9
			z"/>
		<path fill="#3F352F" d="M108.6,53.6c0.3,0,0.7-0.1,0.9-0.4c0.2-0.2,0.4-0.6,0.4-0.9c0-0.3-0.1-0.7-0.4-0.9
			c-0.2-0.2-0.6-0.4-0.9-0.4c-0.3,0-0.7,0.1-0.9,0.4c-0.2,0.2-0.4,0.6-0.4,0.9c0,0.3,0.1,0.7,0.4,0.9
			C108,53.4,108.3,53.6,108.6,53.6z"/>
		<path fill="#3F352F" d="M98.5,57.9c-0.3,0-0.7,0.1-0.9,0.4c-0.2,0.2-0.4,0.6-0.4,0.9c0,0.3,0.1,0.7,0.4,0.9
			c0.2,0.2,0.6,0.4,0.9,0.4c0.3,0,0.7-0.1,0.9-0.4c0.2-0.2,0.4-0.6,0.4-0.9c0-0.3-0.1-0.7-0.4-0.9C99.2,58,98.9,57.9,98.5,57.9z"/>
		<path fill="#3F352F" d="M106.2,58.3c-0.2-0.2-0.6-0.4-0.9-0.4c-0.3,0-0.7,0.1-0.9,0.4c-0.2,0.2-0.4,0.6-0.4,0.9
			c0,0.3,0.1,0.7,0.4,0.9c0.2,0.2,0.6,0.4,0.9,0.4c0.3,0,0.7-0.1,0.9-0.4c0.2-0.2,0.4-0.6,0.4-0.9C106.6,58.9,106.5,58.5,106.2,58.3
			z"/>
		<path fill="#3F352F" d="M95.2,64.9c-0.3,0-0.7,0.1-0.9,0.4c-0.2,0.2-0.4,0.6-0.4,0.9c0,0.3,0.1,0.7,0.4,0.9
			c0.2,0.2,0.6,0.4,0.9,0.4c0.3,0,0.7-0.1,0.9-0.4c0.2-0.2,0.4-0.6,0.4-0.9c0-0.3-0.1-0.7-0.4-0.9C95.8,65,95.5,64.9,95.2,64.9z"/>
		<path fill="#3F352F" d="M101.9,64.9c-0.3,0-0.7,0.1-0.9,0.4c-0.2,0.2-0.4,0.6-0.4,0.9c0,0.3,0.1,0.7,0.4,0.9
			c0.2,0.2,0.6,0.4,0.9,0.4c0.3,0,0.7-0.1,0.9-0.4c0.2-0.2,0.4-0.6,0.4-0.9c0-0.3-0.1-0.7-0.4-0.9C102.6,65,102.2,64.9,101.9,64.9z"
			/>
		<path fill="#3F352F" d="M91.8,71.9c-0.3,0-0.7,0.1-0.9,0.4c-0.2,0.2-0.4,0.6-0.4,0.9c0,0.3,0.1,0.7,0.4,0.9
			c0.2,0.2,0.6,0.4,0.9,0.4c0.3,0,0.7-0.1,0.9-0.4c0.2-0.2,0.4-0.6,0.4-0.9c0-0.3-0.1-0.7-0.4-0.9C92.5,72,92.1,71.9,91.8,71.9z"/>
		<path fill="#3F352F" d="M98.5,71.9c-0.3,0-0.7,0.1-0.9,0.4c-0.2,0.2-0.4,0.6-0.4,0.9c0,0.3,0.1,0.7,0.4,0.9
			c0.2,0.2,0.6,0.4,0.9,0.4c0.3,0,0.7-0.1,0.9-0.4c0.2-0.2,0.4-0.6,0.4-0.9c0-0.3-0.1-0.7-0.4-0.9C99.2,72,98.9,71.9,98.5,71.9z"/>
		<path fill="#3F352F" d="M88.4,78.9c-0.3,0-0.7,0.1-0.9,0.4c-0.2,0.2-0.4,0.6-0.4,0.9c0,0.3,0.1,0.7,0.4,0.9
			c0.2,0.2,0.6,0.4,0.9,0.4c0.3,0,0.7-0.1,0.9-0.4c0.2-0.2,0.4-0.6,0.4-0.9c0-0.3-0.1-0.7-0.4-0.9C89.1,79,88.8,78.9,88.4,78.9z"/>
		<path fill="#3F352F" d="M95.2,78.9c-0.3,0-0.7,0.1-0.9,0.4c-0.2,0.2-0.4,0.6-0.4,0.9c0,0.3,0.1,0.7,0.4,0.9
			c0.2,0.2,0.6,0.4,0.9,0.4c0.3,0,0.7-0.1,0.9-0.4c0.2-0.2,0.4-0.6,0.4-0.9c0-0.3-0.1-0.7-0.4-0.9C95.8,79,95.5,78.9,95.2,78.9z"/>
		<path fill="#3F352F" d="M101.9,78.9c-0.3,0-0.7,0.1-0.9,0.4c-0.2,0.2-0.4,0.6-0.4,0.9c0,0.3,0.1,0.7,0.4,0.9
			c0.2,0.2,0.6,0.4,0.9,0.4c0.3,0,0.7-0.1,0.9-0.4c0.2-0.2,0.4-0.6,0.4-0.9c0-0.3-0.1-0.7-0.4-0.9C102.6,79,102.2,78.9,101.9,78.9z"
			/>
		<path fill="#3F352F" d="M85.1,85.9c-0.3,0-0.7,0.1-0.9,0.4c-0.2,0.2-0.4,0.6-0.4,0.9c0,0.3,0.1,0.7,0.4,0.9
			c0.2,0.2,0.6,0.4,0.9,0.4c0.3,0,0.7-0.1,0.9-0.4c0.2-0.2,0.4-0.6,0.4-0.9c0-0.3-0.1-0.7-0.4-0.9C85.7,86,85.4,85.9,85.1,85.9z"/>
		<path fill="#3F352F" d="M91.8,85.9c-0.3,0-0.7,0.1-0.9,0.4c-0.2,0.2-0.4,0.6-0.4,0.9c0,0.3,0.1,0.7,0.4,0.9
			c0.2,0.2,0.6,0.4,0.9,0.4c0.3,0,0.7-0.1,0.9-0.4c0.2-0.2,0.4-0.6,0.4-0.9c0-0.3-0.1-0.7-0.4-0.9C92.5,86,92.1,85.9,91.8,85.9z"/>
		<path fill="#3F352F" d="M98.5,85.9c-0.3,0-0.7,0.1-0.9,0.4c-0.2,0.2-0.4,0.6-0.4,0.9c0,0.3,0.1,0.7,0.4,0.9
			c0.2,0.2,0.6,0.4,0.9,0.4c0.3,0,0.7-0.1,0.9-0.4c0.2-0.2,0.4-0.6,0.4-0.9c0-0.3-0.1-0.7-0.4-0.9C99.2,86,98.9,85.9,98.5,85.9z"/>
		<path fill="#3F352F" d="M74.9,92.9c-0.3,0-0.7,0.1-0.9,0.4c-0.2,0.2-0.4,0.6-0.4,0.9c0,0.3,0.1,0.7,0.4,0.9
			c0.2,0.2,0.6,0.4,0.9,0.4c0.3,0,0.7-0.1,0.9-0.4c0.2-0.2,0.4-0.6,0.4-0.9c0-0.3-0.1-0.7-0.4-0.9C75.6,93,75.3,92.9,74.9,92.9z"/>
		<path fill="#3F352F" d="M81.7,92.9c-0.3,0-0.7,0.1-0.9,0.4c-0.2,0.2-0.4,0.6-0.4,0.9c0,0.3,0.1,0.7,0.4,0.9
			c0.2,0.2,0.6,0.4,0.9,0.4c0.3,0,0.7-0.1,0.9-0.4c0.2-0.2,0.4-0.6,0.4-0.9c0-0.3-0.1-0.7-0.4-0.9C82.4,93,82,92.9,81.7,92.9z"/>
		<path fill="#3F352F" d="M88.4,92.9c-0.3,0-0.7,0.1-0.9,0.4c-0.2,0.2-0.4,0.6-0.4,0.9c0,0.3,0.1,0.7,0.4,0.9
			c0.2,0.2,0.6,0.4,0.9,0.4c0.3,0,0.7-0.1,0.9-0.4c0.2-0.2,0.4-0.6,0.4-0.9c0-0.3-0.1-0.7-0.4-0.9C89.1,93,88.8,92.9,88.4,92.9z"/>
		<path fill="#3F352F" d="M95.2,92.9c-0.3,0-0.7,0.1-0.9,0.4c-0.2,0.2-0.4,0.6-0.4,0.9c0,0.3,0.1,0.7,0.4,0.9
			c0.2,0.2,0.6,0.4,0.9,0.4c0.3,0,0.7-0.1,0.9-0.4c0.2-0.2,0.4-0.6,0.4-0.9c0-0.3-0.1-0.7-0.4-0.9C95.8,93,95.5,92.9,95.2,92.9z"/>
		<path fill="#3F352F" d="M78.3,99.8c-0.3,0-0.7,0.1-0.9,0.4c-0.2,0.2-0.4,0.6-0.4,0.9c0,0.3,0.1,0.7,0.4,0.9
			c0.2,0.2,0.6,0.4,0.9,0.4c0.3,0,0.7-0.1,0.9-0.4c0.2-0.2,0.4-0.6,0.4-0.9c0-0.3-0.1-0.7-0.4-0.9C79,100,78.7,99.8,78.3,99.8z"/>
		<path fill="#3F352F" d="M85.1,99.8c-0.3,0-0.7,0.1-0.9,0.4c-0.2,0.2-0.4,0.6-0.4,0.9c0,0.3,0.1,0.7,0.4,0.9
			c0.2,0.2,0.6,0.4,0.9,0.4c0.3,0,0.7-0.1,0.9-0.4c0.2-0.2,0.4-0.6,0.4-0.9c0-0.3-0.1-0.7-0.4-0.9C85.7,100,85.4,99.8,85.1,99.8z"/>
	</g>
	<g>
		<path fill="#CAE6DC" d="M422.6,99.9h36.2c0.4-1.1,0.8-2.4,1.3-3.6h-37.8C422.4,97.8,422.5,99.1,422.6,99.9z"/>
		<path fill="#CCCCCC" d="M452,80.9c-2-3.6-2.5-8-3-11.5c0-0.4-2.7-31-3.1-36.8h-16.1l-5.1,17c-3.8,15.8-3.3,34.1-2.7,44H461
			c0.9-2.7,1.7-5,1.8-5.5v-0.8C457.8,87,454.2,84.8,452,80.9z"/>
		<path fill="#CCCCCC" d="M451.6,69c0.8,6.7,1.9,14.9,11.1,15.6V32.6h-14.2C449,38.6,451.6,68.6,451.6,69z"/>
		<path fill="#CAE6DC" d="M469.3,99.9h36.2c0.1-0.8,0.2-2,0.3-3.6h-37.8C468.5,97.5,468.9,98.7,469.3,99.9z"/>
		<path fill="#CCCCCC" d="M498.3,32.6h-16.1c-0.4,5.8-3,36.4-3.1,36.8c-0.4,3.5-1,7.9-3,11.5c-2.2,4-5.8,6.1-10.8,6.4v0.8
			c0.1,0.6,0.9,2.8,1.8,5.5h38.9c0.6-10,1.1-28.2-2.7-44L498.3,32.6z"/>
		<polygon fill="#8BB4C8" points="496.4,21.5 431.8,21.5 430.5,29.9 497.6,29.9 		"/>
		<path fill="#CCCCCC" d="M476.5,69c0.1-0.4,2.6-30.4,3.1-36.5h-14.2v52.1C474.7,84,475.7,75.7,476.5,69z"/>
		<path fill="#3F352F" d="M500.4,30.4L498.8,20c-0.1-0.6-0.7-1.1-1.3-1.1h-66.9c-0.7,0-1.2,0.5-1.3,1.1l-1.5,10.4
			c-0.1,0.1-5.6,18.5-5.6,18.5c-5.6,23.5-2.2,52.1-2.1,52.4c0.1,0.7,0.6,1.2,1.3,1.2h38.3c0.6,0,1.1-0.4,1.2-0.9
			c1.5-4.1,2.4-6.9,3.1-8.9c0.7,2,1.6,4.8,3.1,8.9c0.2,0.5,0.7,0.9,1.2,0.9h38.3c0.7,0,1.2-0.5,1.3-1.2c0-0.3,3.5-29-2.1-52.4
			C505.9,48.9,500.4,30.6,500.4,30.4z M458.8,99.9h-36.2c-0.1-0.8-0.2-2-0.3-3.6h37.8C459.6,97.5,459.2,98.7,458.8,99.9z
			 M462.8,88.1c-0.1,0.5-0.9,2.8-1.8,5.5h-38.9c-0.6-10-1.1-28.2,2.7-44l5.1-17h16.1c0.4,5.8,3,36.4,3.1,36.8c0.4,3.5,1,7.9,3,11.5
			c2.2,4,5.8,6.1,10.8,6.4V88.1z M462.8,84.7c-9.3-0.7-10.3-9-11.1-15.6c-0.1-0.4-2.6-30.4-3.1-36.5h14.2V84.7z M430.5,29.9l1.2-8.4
			h64.6l1.2,8.4H430.5z M479.6,32.6c-0.4,6.1-3,36.1-3.1,36.5c-0.8,6.7-1.9,14.9-11.1,15.6V32.6H479.6z M505.6,99.9h-36.2
			c-0.4-1.1-0.8-2.4-1.3-3.6h37.8C505.8,97.8,505.7,99.1,505.6,99.9z M506.1,93.6h-38.9c-0.9-2.7-1.7-4.9-1.8-5.5v-0.8
			c4.9-0.3,8.5-2.5,10.8-6.4c2-3.6,2.5-8,3-11.5c0-0.4,2.7-31,3.1-36.8h16.1l5.1,17C507.1,65.4,506.7,83.7,506.1,93.6z"/>
	</g>
	<g>
		<path fill="#CCCCCC" d="M263.5,69.4c0.8-1.7,1.7-3.4,2.4-5.2c-7.7-18.2-11.3-40.3-12.2-46.5l-12.2,4.8c0.6,5.5,2.7,30.4-9.3,36.3
			c1.1,4.9,5.3,25.6,3.2,45.3l25.8,8.9l4.4-5.4l-2-2.4c-0.2-0.2-0.3-0.5-0.3-0.8V70C263.4,69.8,263.4,69.6,263.5,69.4z M257.5,92.8
			c0,0.7-0.6,1.3-1.3,1.3c-0.7,0-1.3-0.6-1.3-1.3v-1.7l-14.3-2.5v1.3c0,0.7-0.6,1.3-1.3,1.3c-0.7,0-1.3-0.6-1.3-1.3v-2.8
			c0-0.4,0.2-0.8,0.5-1c0.3-0.3,0.7-0.4,1.1-0.3l16.9,2.9c0.6,0.1,1.1,0.7,1.1,1.3V92.8z"/>
		<path fill="#FBB03B" d="M277.9,20.7c-2.9,0.8-6.6,1.3-10.5,1.3c-3.9,0-7.6-0.5-10.5-1.3c1.4,8.2,4.6,25.1,10.5,40
			C273.2,45.8,276.5,28.9,277.9,20.7z"/>
		<path fill="#CCCCCC" d="M293.2,22.4L281,17.7c-0.9,6.2-4.6,28.6-12.4,47c0,0,0,0,0,0c-0.8,1.9-1.7,3.8-2.6,5.6v33.5l7.5,9.1
			l25.8-8.9c-2.1-19.6,2.1-40.3,3.2-45.3C290.5,52.9,292.6,28,293.2,22.4z M269.5,100.1c-0.2,0.2-0.6,0.4-0.9,0.4
			c-0.3,0-0.7-0.1-0.9-0.4c-0.2-0.2-0.4-0.6-0.4-0.9c0-0.3,0.1-0.7,0.4-0.9c0.2-0.2,0.6-0.4,0.9-0.4c0.3,0,0.7,0.1,0.9,0.4
			c0.2,0.2,0.4,0.6,0.4,0.9C269.9,99.5,269.8,99.9,269.5,100.1z M269.5,91.5c-0.2,0.2-0.6,0.4-0.9,0.4c-0.3,0-0.7-0.1-0.9-0.4
			c-0.2-0.2-0.4-0.6-0.4-0.9c0-0.3,0.1-0.7,0.4-0.9c0.2-0.2,0.6-0.4,0.9-0.4c0.3,0,0.7,0.1,0.9,0.4c0.2,0.2,0.4,0.6,0.4,0.9
			C269.9,90.9,269.8,91.3,269.5,91.5z M269.5,82.9c-0.2,0.2-0.6,0.4-0.9,0.4c-0.3,0-0.7-0.1-0.9-0.4c-0.2-0.2-0.4-0.6-0.4-0.9
			c0-0.3,0.1-0.7,0.4-0.9c0.2-0.2,0.6-0.4,0.9-0.4c0.3,0,0.7,0.1,0.9,0.4c0.2,0.2,0.4,0.6,0.4,0.9C269.9,82.3,269.8,82.7,269.5,82.9
			z M269.5,74.3c-0.2,0.2-0.6,0.4-0.9,0.4c-0.3,0-0.7-0.1-0.9-0.4c-0.2-0.2-0.4-0.6-0.4-0.9c0-0.3,0.1-0.7,0.4-0.9
			c0.2-0.2,0.6-0.4,0.9-0.4c0.3,0,0.7,0.1,0.9,0.4c0.2,0.2,0.4,0.6,0.4,0.9C269.9,73.7,269.8,74.1,269.5,74.3z M296.7,89.9
			c0,0.7-0.6,1.3-1.3,1.3c-0.7,0-1.3-0.6-1.3-1.3v-1.3l-14.3,2.5v1.7c0,0.7-0.6,1.3-1.3,1.3s-1.3-0.6-1.3-1.3V90
			c0-0.6,0.5-1.2,1.1-1.3l16.9-2.9c0.4-0.1,0.8,0,1.1,0.3c0.3,0.3,0.5,0.6,0.5,1V89.9z"/>
		<path fill="#3F352F" d="M304.5,56.8c-6.4-2.4-8.4-11.6-9-18.9c-0.6-8.2,0.4-16,0.4-16c0.1-0.6-0.3-1.2-0.8-1.4l-14.7-5.7
			c-0.4-0.1-0.8-0.1-1.2,0.1c-0.4,0.2-0.6,0.6-0.6,1c0,0-0.1,0.8-0.3,2.1c-2.7,1-6.7,1.6-11,1.6c-4.2,0-8.3-0.6-11-1.6
			c-0.2-1.3-0.3-2-0.3-2.1c-0.1-0.4-0.3-0.8-0.6-1c-0.4-0.2-0.8-0.2-1.2-0.1l-14.7,5.7c-0.6,0.2-0.9,0.8-0.8,1.4
			c0,0.1,1.1,7.8,0.4,16c-0.6,7.3-2.6,16.6-9,18.9c-0.6,0.2-1,0.9-0.8,1.6c0.1,0.2,5.9,24.3,3.2,46.5c-0.1,0.6,0.3,1.2,0.9,1.4
			l27.7,9.6c0.1,0,0.3,0.1,0.4,0.1c0.4,0,0.8-0.2,1-0.5l4.7-5.7l4.7,5.7c0.3,0.3,0.6,0.5,1,0.5c0.1,0,0.3,0,0.4-0.1l27.7-9.6
			c0.6-0.2,1-0.8,0.9-1.4c-2.7-22.2,3.2-46.2,3.2-46.5C305.5,57.7,305.1,57,304.5,56.8z M267.4,22c3.9,0,7.6-0.5,10.5-1.3
			c-1.4,8.2-4.6,25.1-10.5,40c-5.9-14.9-9.1-31.8-10.5-40C259.8,21.5,263.4,22,267.4,22z M263.7,105.2l2,2.4l-4.4,5.4l-25.8-8.9
			c2.1-19.6-2.1-40.3-3.2-45.3c12.1-5.9,9.9-30.8,9.3-36.3l12.2-4.8c0.9,6.2,4.5,28.3,12.2,46.5c-0.8,1.8-1.6,3.5-2.4,5.2
			c-0.1,0.2-0.1,0.4-0.1,0.6v34.3C263.4,104.6,263.5,104.9,263.7,105.2z M299.4,104.1l-25.8,8.9l-7.5-9.1V70.3
			c0.9-1.8,1.8-3.7,2.6-5.6c0,0,0,0,0,0c7.8-18.4,11.5-40.8,12.4-47l12.2,4.8c-0.6,5.5-2.7,30.4,9.3,36.3
			C301.4,63.7,297.2,84.4,299.4,104.1z"/>
		<path fill="#3F352F" d="M256.4,88.7l-16.9-2.9c-0.4-0.1-0.8,0-1.1,0.3c-0.3,0.3-0.5,0.6-0.5,1v2.8c0,0.7,0.6,1.3,1.3,1.3
			c0.7,0,1.3-0.6,1.3-1.3v-1.3l14.3,2.5v1.7c0,0.7,0.6,1.3,1.3,1.3c0.7,0,1.3-0.6,1.3-1.3V90C257.5,89.4,257.1,88.8,256.4,88.7z"/>
		<path fill="#3F352F" d="M296.3,86.1c-0.3-0.3-0.7-0.4-1.1-0.3l-16.9,2.9c-0.6,0.1-1.1,0.7-1.1,1.3v2.8c0,0.7,0.6,1.3,1.3,1.3
			s1.3-0.6,1.3-1.3v-1.7l14.3-2.5v1.3c0,0.7,0.6,1.3,1.3,1.3c0.7,0,1.3-0.6,1.3-1.3v-2.8C296.7,86.7,296.6,86.3,296.3,86.1z"/>
		<path fill="#3F352F" d="M268.6,72.1c-0.3,0-0.7,0.1-0.9,0.4c-0.2,0.2-0.4,0.6-0.4,0.9c0,0.3,0.1,0.7,0.4,0.9
			c0.2,0.2,0.6,0.4,0.9,0.4c0.3,0,0.7-0.1,0.9-0.4c0.2-0.2,0.4-0.6,0.4-0.9c0-0.3-0.1-0.7-0.4-0.9C269.3,72.2,268.9,72.1,268.6,72.1
			z"/>
		<path fill="#3F352F" d="M268.6,80.7c-0.3,0-0.7,0.1-0.9,0.4c-0.2,0.2-0.4,0.6-0.4,0.9c0,0.3,0.1,0.7,0.4,0.9
			c0.2,0.2,0.6,0.4,0.9,0.4c0.3,0,0.7-0.1,0.9-0.4c0.2-0.2,0.4-0.6,0.4-0.9c0-0.3-0.1-0.7-0.4-0.9C269.3,80.8,268.9,80.7,268.6,80.7
			z"/>
		<path fill="#3F352F" d="M268.6,89.3c-0.3,0-0.7,0.1-0.9,0.4c-0.2,0.2-0.4,0.6-0.4,0.9c0,0.3,0.1,0.7,0.4,0.9
			c0.2,0.2,0.6,0.4,0.9,0.4c0.3,0,0.7-0.1,0.9-0.4c0.2-0.2,0.4-0.6,0.4-0.9c0-0.3-0.1-0.7-0.4-0.9C269.3,89.4,268.9,89.3,268.6,89.3
			z"/>
		<path fill="#3F352F" d="M268.6,97.9c-0.3,0-0.7,0.1-0.9,0.4c-0.2,0.2-0.4,0.6-0.4,0.9c0,0.3,0.1,0.7,0.4,0.9
			c0.2,0.2,0.6,0.4,0.9,0.4c0.3,0,0.7-0.1,0.9-0.4c0.2-0.2,0.4-0.6,0.4-0.9c0-0.3-0.1-0.7-0.4-0.9C269.3,98,268.9,97.9,268.6,97.9z"
			/>
	</g>
	<g>
		<g>
			<path fill="#CCCCCC" d="M169.6,56.6c-7.4,0-13.4,6-13.4,13.4s6,13.4,13.4,13.4S183,77.5,183,70S177,56.6,169.6,56.6z M169.6,80.1
				c-5.6,0-10.1-4.5-10.1-10.1S164.1,60,169.6,60s10.1,4.5,10.1,10.1S175.2,80.1,169.6,80.1z"/>
		</g>
		<path fill="#CCCCCC" d="M174.7,68.4h-3.4V65c0-0.9-0.7-1.7-1.7-1.7h0c-0.9,0-1.7,0.7-1.7,1.7v3.4h-3.4c-0.9,0-1.7,0.7-1.7,1.7v0
			c0,0.9,0.7,1.7,1.7,1.7h3.4v3.4c0,0.9,0.7,1.7,1.7,1.7h0c0.9,0,1.7-0.7,1.7-1.7v-3.4h3.4c0.9,0,1.7-0.7,1.7-1.7v0
			C176.3,69.1,175.6,68.4,174.7,68.4z"/>
	</g>
	<g>
		<g>
			<path fill="#CCCCCC" d="M363.5,56.6c-7.4,0-13.4,6-13.4,13.4s6,13.4,13.4,13.4S377,77.5,377,70S370.9,56.6,363.5,56.6z
				 M363.5,80.1c-5.6,0-10.1-4.5-10.1-10.1S358,60,363.5,60s10.1,4.5,10.1,10.1S369.1,80.1,363.5,80.1z"/>
		</g>
		<path fill="#CCCCCC" d="M368.6,68.4h-3.4V65c0-0.9-0.7-1.7-1.7-1.7h0c-0.9,0-1.7,0.7-1.7,1.7v3.4h-3.4c-0.9,0-1.7,0.7-1.7,1.7v0
			c0,0.9,0.7,1.7,1.7,1.7h3.4v3.4c0,0.9,0.7,1.7,1.7,1.7h0c0.9,0,1.7-0.7,1.7-1.7v-3.4h3.4c0.9,0,1.7-0.7,1.7-1.7v0
			C370.2,69.1,369.5,68.4,368.6,68.4z"/>
	</g>
	<g>
		<g>
			<path fill="#CCCCCC" d="M576.9,56.6c-7.4,0-13.4,6-13.4,13.4s6,13.4,13.4,13.4c7.4,0,13.4-6,13.4-13.4S584.4,56.6,576.9,56.6z
				 M576.9,80.1c-5.6,0-10.1-4.5-10.1-10.1S571.4,60,576.9,60c5.6,0,10.1,4.5,10.1,10.1S582.5,80.1,576.9,80.1z"/>
		</g>
		<path fill="#CCCCCC" d="M582,68.4h-3.4V65c0-0.9-0.7-1.7-1.7-1.7h0c-0.9,0-1.7,0.7-1.7,1.7v3.4h-3.4c-0.9,0-1.7,0.7-1.7,1.7v0
			c0,0.9,0.7,1.7,1.7,1.7h3.4v3.4c0,0.9,0.7,1.7,1.7,1.7h0c0.9,0,1.7-0.7,1.7-1.7v-3.4h3.4c0.9,0,1.7-0.7,1.7-1.7v0
			C583.7,69.1,582.9,68.4,582,68.4z"/>
	</g>
</g>
<g>
	<g>
		<path fill="#CCCCCC" d="M609,360.6h39.2v-16.1H609V360.6z M640.8,351.7c0.2-0.2,0.6-0.4,0.9-0.4c0.3,0,0.7,0.1,0.9,0.4
			c0.2,0.2,0.4,0.6,0.4,0.9c0,0.3-0.1,0.7-0.4,0.9c-0.2,0.2-0.6,0.4-0.9,0.4c-0.3,0-0.7-0.1-0.9-0.4c-0.2-0.2-0.4-0.6-0.4-0.9
			C640.4,352.3,640.5,351.9,640.8,351.7z M630.1,351.7c0.2-0.2,0.6-0.4,0.9-0.4c0.3,0,0.7,0.1,0.9,0.4c0.2,0.2,0.4,0.6,0.4,0.9
			c0,0.3-0.1,0.7-0.4,0.9c-0.2,0.2-0.6,0.4-0.9,0.4c-0.3,0-0.7-0.1-0.9-0.4c-0.2-0.2-0.4-0.6-0.4-0.9
			C629.8,352.3,629.9,351.9,630.1,351.7z M619.5,351.7c0.2-0.2,0.6-0.4,0.9-0.4c0.3,0,0.7,0.1,0.9,0.4c0.2,0.2,0.4,0.6,0.4,0.9
			c0,0.3-0.1,0.7-0.4,0.9c-0.2,0.2-0.6,0.4-0.9,0.4c-0.3,0-0.7-0.1-0.9-0.4c-0.2-0.2-0.4-0.6-0.4-0.9
			C619.1,352.3,619.3,351.9,619.5,351.7z"/>
		<path fill="#CCCCCC" d="M673,351.3h2.7V348h-20.2v9.3h20.2v-3.3H673c-0.7,0-1.3-0.6-1.3-1.3C671.7,351.9,672.3,351.3,673,351.3z
			 M663.4,353.5c-0.2,0.2-0.6,0.4-0.9,0.4c-0.3,0-0.7-0.1-0.9-0.4c-0.2-0.2-0.4-0.6-0.4-0.9c0-0.3,0.1-0.7,0.4-0.9
			c0.2-0.2,0.6-0.4,0.9-0.4c0.3,0,0.7,0.1,0.9,0.4c0.2,0.2,0.4,0.6,0.4,0.9C663.7,353,663.6,353.3,663.4,353.5z"/>
		<path fill="#A8D6C6" d="M650.8,363.1h29.6v-9.2h-2v4.6c0,0.7-0.6,1.3-1.3,1.3h-22.9c-0.7,0-1.3-0.6-1.3-1.3v-11.9
			c0-0.7,0.6-1.3,1.3-1.3H677c0.7,0,1.3,0.6,1.3,1.3v4.6h2v-9.2h-29.6V363.1z"/>
		<rect x="683" y="344.6" fill="#CCCCCC" width="5.1" height="16.1"/>
		<path fill="#CCCCCC" d="M716.5,352.6c0,3.2-1.1,6.1-2.8,8h8.5v-16.1h-8.5C715.4,346.5,716.5,349.4,716.5,352.6z"/>
		<path fill="#CCCCCC" d="M708.4,344.6h-9.6v16.1h9.6c2.9,0,5.4-3.7,5.4-8C713.8,348.3,711.4,344.6,708.4,344.6z M701.8,353.5
			c-0.2,0.2-0.6,0.4-0.9,0.4c-0.3,0-0.7-0.1-0.9-0.4c-0.2-0.2-0.4-0.6-0.4-0.9c0-0.3,0.1-0.7,0.4-0.9c0.2-0.2,0.6-0.4,0.9-0.4
			c0.3,0,0.7,0.1,0.9,0.4c0.2,0.2,0.4,0.6,0.4,0.9C702.2,353,702.1,353.3,701.8,353.5z"/>
		<rect x="690.8" y="342.1" fill="#D48C7E" width="5.5" height="21.1"/>
		<path fill="#3F352F" d="M641.7,353.9c0.3,0,0.7-0.1,0.9-0.4c0.2-0.2,0.4-0.6,0.4-0.9c0-0.3-0.1-0.7-0.4-0.9
			c-0.2-0.2-0.6-0.4-0.9-0.4c-0.3,0-0.7,0.1-0.9,0.4c-0.2,0.2-0.4,0.6-0.4,0.9c0,0.3,0.1,0.7,0.4,0.9
			C641,353.8,641.4,353.9,641.7,353.9z"/>
		<path fill="#3F352F" d="M631.1,353.9c0.3,0,0.7-0.1,0.9-0.4c0.2-0.2,0.4-0.6,0.4-0.9c0-0.3-0.1-0.7-0.4-0.9
			c-0.2-0.2-0.6-0.4-0.9-0.4c-0.3,0-0.7,0.1-0.9,0.4c-0.2,0.2-0.4,0.6-0.4,0.9c0,0.3,0.1,0.7,0.4,0.9
			C630.4,353.8,630.7,353.9,631.1,353.9z"/>
		<path fill="#3F352F" d="M620.5,353.9c0.3,0,0.7-0.1,0.9-0.4c0.2-0.2,0.4-0.6,0.4-0.9c0-0.3-0.1-0.7-0.4-0.9
			c-0.2-0.2-0.6-0.4-0.9-0.4c-0.3,0-0.7,0.1-0.9,0.4c-0.2,0.2-0.4,0.6-0.4,0.9c0,0.3,0.1,0.7,0.4,0.9
			C619.8,353.8,620.1,353.9,620.5,353.9z"/>
		<path fill="#3F352F" d="M662.4,351.3c-0.3,0-0.7,0.1-0.9,0.4c-0.2,0.2-0.4,0.6-0.4,0.9c0,0.3,0.1,0.7,0.4,0.9
			c0.2,0.2,0.6,0.4,0.9,0.4c0.3,0,0.7-0.1,0.9-0.4c0.2-0.2,0.4-0.6,0.4-0.9c0-0.3-0.1-0.7-0.4-0.9
			C663.1,351.4,662.8,351.3,662.4,351.3z"/>
		<path fill="#3F352F" d="M700.9,351.3c-0.3,0-0.7,0.1-0.9,0.4c-0.2,0.2-0.4,0.6-0.4,0.9c0,0.3,0.1,0.7,0.4,0.9
			c0.2,0.2,0.6,0.4,0.9,0.4c0.3,0,0.7-0.1,0.9-0.4c0.2-0.2,0.4-0.6,0.4-0.9c0-0.3-0.1-0.7-0.4-0.9
			C701.6,351.4,701.3,351.3,700.9,351.3z"/>
		<path fill="#3F352F" d="M723.5,341.9h-24.7v-1.2c0-0.7-0.6-1.3-1.3-1.3h-8.1c-0.7,0-1.3,0.6-1.3,1.3v1.2H683v-1.2
			c0-0.7-0.6-1.3-1.3-1.3h-32.2c-0.7,0-1.3,0.6-1.3,1.3v1.2h-40.5c-0.7,0-1.3,0.6-1.3,1.3V362c0,0.7,0.6,1.3,1.3,1.3h40.5v1.2
			c0,0.7,0.6,1.3,1.3,1.3h32.2c0.7,0,1.3-0.6,1.3-1.3v-1.2h5.1v1.2c0,0.7,0.6,1.3,1.3,1.3h8.1c0.7,0,1.3-0.6,1.3-1.3v-1.2h24.7
			c0.7,0,1.3-0.6,1.3-1.3v-18.7C724.8,342.5,724.3,341.9,723.5,341.9z M648.2,360.6H609v-16.1h39.2V360.6z M680.4,351.3h-2v-4.6
			c0-0.7-0.6-1.3-1.3-1.3h-22.9c-0.7,0-1.3,0.6-1.3,1.3v11.9c0,0.7,0.6,1.3,1.3,1.3H677c0.7,0,1.3-0.6,1.3-1.3v-4.6h2v9.2h-29.6
			v-21.1h29.6V351.3z M673,353.9h2.7v3.3h-20.2V348h20.2v3.3H673c-0.7,0-1.3,0.6-1.3,1.3C671.7,353.3,672.3,353.9,673,353.9z
			 M688.1,360.6H683v-16.1h5.1V360.6z M696.2,363.1h-5.5v-21.1h5.5V363.1z M708.4,360.6h-9.6v-16.1h9.6c2.9,0,5.4,3.7,5.4,8
			C713.8,357,711.4,360.6,708.4,360.6z M722.2,360.6h-8.5c1.7-2,2.8-4.8,2.8-8c0-3.2-1.1-6.1-2.8-8h8.5V360.6z"/>
	</g>
	<g>
		<path fill="#C1573F" d="M388.2,342.1c-0.5,0-1,0.4-1,1c0,0.5,0.4,1,1,1h2.2c-0.3-0.7-0.5-1.3-0.7-1.9H388.2z"/>
		<path fill="#CCCCCC" d="M409.9,339.7c-1.4,0-2.6,0.2-3.5,0.5c-3.6,1.5-4.9,4.8-3.6,9.3c0.4,1.4,2.7,8.6,9.2,12.2
			c2.4,1.3,4.8,1.9,7.4,1.9c6.4,0,11.2-4,12.6-8c0.8-2.1,0.4-4.3-1.1-6.4C427,343.8,416.6,339.7,409.9,339.7z M409,345.1
			c0,0-0.5,0.1-0.8,0.6c-0.4,0.6-0.3,1.6,0.1,2.9c0.2,0.7-0.1,1.4-0.8,1.7c-0.1,0-0.3,0.1-0.4,0.1c-0.6,0-1.1-0.3-1.3-0.9
			c-0.7-2.1-0.7-3.8,0.1-5.1c0.9-1.5,2.5-1.8,2.7-1.8c0.7-0.1,1.4,0.4,1.5,1.1C410.3,344.4,409.8,345,409,345.1z"/>
		<path fill="#CCCCCC" d="M480.4,340.3c-0.9-0.4-2.1-0.5-3.5-0.5c-6.8,0-17.2,4.1-21,9.6c-1.5,2.1-1.8,4.3-1.1,6.4
			c1.5,4,6.3,8,12.6,8c2.5,0,5-0.7,7.4-1.9c6.4-3.5,8.8-10.8,9.2-12.2C485.3,345,484,341.7,480.4,340.3z M480.9,349.4
			c-0.2,0.6-0.7,0.9-1.3,0.9c-0.1,0-0.3,0-0.4-0.1c-0.7-0.2-1.1-1-0.8-1.7c0.4-1.3,0.5-2.3,0.1-2.9c-0.3-0.5-0.8-0.6-0.8-0.6
			c-0.7-0.1-1.2-0.8-1.1-1.5c0.1-0.7,0.8-1.2,1.5-1.1c0.2,0,1.7,0.3,2.7,1.8C481.6,345.6,481.6,347.3,480.9,349.4z"/>
		<path fill="#C1573F" d="M498.6,342.1h-1.5c-0.2,0.6-0.4,1.3-0.7,1.9h2.2c0.5,0,1-0.4,1-1C499.5,342.5,499.1,342.1,498.6,342.1z"/>
		<path fill="#C1573F" d="M494.7,335.8c-3.7-1.2-7.7-1.9-11.9-1.9c-13.1,0-24.9,6-30.6,8.9c-0.6,0.3-4,2-5.3,2.2
			c-0.9,0.1-6.2,0.1-7,0c-1.3-0.2-4.7-1.9-5.3-2.2c-5.7-2.9-17.5-8.9-30.6-8.9c-4.2,0-8.2,0.6-11.9,1.9c-0.8,0.3-1.4,0.6-0.9,2.2
			c1.3,4.9,5.6,16.1,12.3,23.6c4,4.5,8.8,6.9,14.5,7.1c0.5,0,0.9,0,1.4,0c12.2,0,15.8-8.1,16.8-11.6c2.2-7.8,4.3-9.4,7.2-9.7
			c0,0,0.2,0,0.2,0c2.9,0.3,5,1.9,7.2,9.7c1,3.5,4.6,11.6,16.8,11.6c0.4,0,0.9,0,1.4,0c5.7-0.3,10.4-2.6,14.5-7.1
			c6.7-7.5,10.9-18.7,12.3-23.6C496.1,336.4,495.5,336,494.7,335.8z M434.4,356.6c-2.1,5.6-8.4,9.7-15.1,9.7c-3,0-5.9-0.8-8.6-2.3
			c-5.7-3.1-9.1-9.1-10.4-13.8c-1.7-5.8,0.3-10.5,5.1-12.5c1.2-0.5,2.7-0.7,4.5-0.7c7.4,0,18.7,4.4,23.1,10.7
			C435,350.6,435.5,353.6,434.4,356.6z M486.6,350.3c-1.3,4.6-4.7,10.6-10.4,13.8c-2.7,1.5-5.6,2.3-8.6,2.3c-6.7,0-13-4.1-15.1-9.7
			c-1.1-2.9-0.6-6,1.4-8.8c4.4-6.3,15.7-10.7,23.1-10.7c1.8,0,3.3,0.3,4.5,0.7C486.3,339.8,488.2,344.5,486.6,350.3z"/>
		<path fill="#3F352F" d="M408.7,342.5c-0.2,0-1.7,0.3-2.7,1.8c-0.8,1.3-0.8,3-0.1,5.1c0.2,0.6,0.7,0.9,1.3,0.9c0.1,0,0.3,0,0.4-0.1
			c0.7-0.2,1.1-1,0.8-1.7c-0.4-1.3-0.5-2.3-0.1-2.9c0.3-0.5,0.8-0.6,0.8-0.6c0.7-0.1,1.2-0.8,1.1-1.5
			C410.1,342.9,409.4,342.4,408.7,342.5z"/>
		<path fill="#3F352F" d="M409.9,337.1c-1.8,0-3.3,0.3-4.5,0.7c-4.9,2-6.8,6.6-5.1,12.5c1.3,4.6,4.8,10.6,10.4,13.8
			c2.7,1.5,5.6,2.3,8.6,2.3c6.7,0,13-4.1,15.1-9.7c1.1-2.9,0.6-6-1.4-8.8C428.6,341.5,417.3,337.1,409.9,337.1z M431.9,355.7
			c-1.5,4-6.3,8-12.6,8c-2.5,0-5-0.7-7.4-1.9c-6.4-3.5-8.8-10.8-9.2-12.2c-1.3-4.5,0-7.8,3.6-9.3c0.9-0.4,2.1-0.5,3.5-0.5
			c6.8,0,17.2,4.1,21,9.6C432.3,351.4,432.7,353.6,431.9,355.7z"/>
		<path fill="#3F352F" d="M481.4,337.8c-1.2-0.5-2.7-0.7-4.5-0.7c-7.4,0-18.7,4.4-23.1,10.7c-2,2.8-2.5,5.9-1.4,8.8
			c2.1,5.6,8.4,9.7,15.1,9.7c3,0,5.9-0.8,8.6-2.3c5.7-3.1,9.1-9.1,10.4-13.8C488.2,344.5,486.3,339.8,481.4,337.8z M484,349.5
			c-0.4,1.4-2.7,8.6-9.2,12.2c-2.4,1.3-4.8,1.9-7.4,1.9c-6.4,0-11.2-4-12.6-8c-0.8-2.1-0.4-4.3,1.1-6.4c3.8-5.5,14.2-9.6,21-9.6
			c1.4,0,2.6,0.2,3.5,0.5C484,341.7,485.3,345,484,349.5z"/>
		<path fill="#3F352F" d="M498.6,339.5H498c0.1-0.3,0.2-0.5,0.2-0.8c0.7-2.6-0.2-4.6-2.7-5.4c-4-1.3-8.3-2-12.7-2
			c-13.7,0-25.9,6.2-31.8,9.2c-0.6,0.3-3.6,1.8-4.4,1.9c-0.5,0.1-6,0.1-6.4,0c-0.8-0.1-3.8-1.6-4.4-1.9c-5.9-3-18.1-9.2-31.8-9.2
			c-4.5,0-8.7,0.7-12.7,2c-2.4,0.8-3.4,2.8-2.7,5.4c0.1,0.2,0.1,0.5,0.2,0.8h-0.6c-2,0-3.6,1.6-3.6,3.6c0,2,1.6,3.6,3.6,3.6h3.2
			c2.3,5.4,5.6,11.7,10,16.7c4.5,5.1,9.9,7.7,16.3,8c6.6,0.3,12-1.4,15.8-5.1c3.1-3,4.5-6.5,5-8.4c2-7.3,3.7-7.7,4.8-7.8
			c1.1,0.1,2.7,0.5,4.8,7.8c0.5,1.8,1.9,5.4,5,8.4c3.6,3.4,8.4,5.2,14.4,5.2c0.5,0,1,0,1.5,0c6.5-0.3,11.8-2.9,16.3-8
			c4.4-5,7.8-11.3,10-16.7h3.2c2,0,3.6-1.6,3.6-3.6C502.2,341.1,500.6,339.5,498.6,339.5z M388.2,344c-0.5,0-1-0.4-1-1
			c0-0.5,0.4-1,1-1h1.5c0.2,0.6,0.4,1.3,0.7,1.9H388.2z M495.6,338c-1.3,4.9-5.6,16.1-12.3,23.6c-4,4.5-8.8,6.9-14.5,7.1
			c-0.5,0-0.9,0-1.4,0c-12.2,0-15.8-8.1-16.8-11.6c-2.2-7.8-4.3-9.4-7.2-9.7c0,0-0.2,0-0.2,0c-2.9,0.3-5,1.9-7.2,9.7
			c-1,3.5-4.6,11.6-16.8,11.6c-0.4,0-0.9,0-1.4,0c-5.7-0.3-10.4-2.6-14.5-7.1c-6.7-7.5-10.9-18.7-12.3-23.6c-0.4-1.6,0.2-2,0.9-2.2
			c3.7-1.2,7.7-1.9,11.9-1.9c13.1,0,24.9,6,30.6,8.9c0.6,0.3,4,2,5.3,2.2c0.9,0.1,6.2,0.1,7,0c1.3-0.2,4.7-1.9,5.3-2.2
			c5.7-2.9,17.5-8.9,30.6-8.9c4.2,0,8.2,0.6,11.9,1.9C495.5,336,496.1,336.4,495.6,338z M498.6,344h-2.2c0.3-0.7,0.5-1.3,0.7-1.9
			h1.5c0.5,0,1,0.4,1,1C499.5,343.6,499.1,344,498.6,344z"/>
		<path fill="#3F352F" d="M478.1,342.5c-0.7-0.1-1.4,0.4-1.5,1.1c-0.1,0.7,0.4,1.4,1.1,1.5c0,0,0.5,0.1,0.8,0.6
			c0.4,0.6,0.3,1.6-0.1,2.9c-0.2,0.7,0.1,1.4,0.8,1.7c0.1,0,0.3,0.1,0.4,0.1c0.6,0,1.1-0.3,1.3-0.9c0.7-2.1,0.7-3.8-0.1-5.1
			C479.9,342.8,478.3,342.5,478.1,342.5z"/>
	</g>
	<g>
		<path fill="#CCCCCC" d="M46.6,361.2c0.9,0.9,1.6,2,1.9,3.3h38.6V358H48.5C48.2,359.2,47.5,360.3,46.6,361.2z"/>
		<path fill="#E0D080" d="M16.6,352.2c1.3-2.3,3.8-3.7,6.5-3.7c0.7,0,1.3,0.1,1.9,0.3c0.9-3.2,3.8-5.5,7.2-5.5
			c3.4,0,6.3,2.4,7.2,5.5c0.6-0.2,1.3-0.3,1.9-0.3c2.7,0,5.1,1.4,6.5,3.7c0.6,1,0.9,2,1,3.1h38.3v-4.9c0-20.4-16.6-37.1-37.1-37.1
			s-37.1,16.6-37.1,37.1v4.9h2.7C15.7,354.2,16,353.2,16.6,352.2z"/>
		<path fill="#A99C83" d="M32.2,364.4c1.7,0,3.2-1.4,3.2-3.2c0-1.7-1.4-3.2-3.2-3.2c-1.7,0-3.2,1.4-3.2,3.2
			C29,363,30.4,364.4,32.2,364.4z"/>
		<path fill="#C5BCA5" d="M17.7,361.2c-0.9-0.9-1.6-2-1.9-3.3h-2.9v6.6h2.9C16.2,363.3,16.8,362.2,17.7,361.2z"/>
		<path fill="#E0D080" d="M48.8,367.2c-0.1,1.1-0.4,2.1-1,3.1c-1.3,2.3-3.8,3.7-6.5,3.7c-0.7,0-1.3-0.1-1.9-0.3
			c-0.9,3.2-3.8,5.5-7.2,5.5h0c-3.4,0-6.3-2.4-7.2-5.5c-0.6,0.2-1.3,0.3-1.9,0.3c-2.7,0-5.1-1.4-6.5-3.7c-0.6-1-0.9-2-1-3.1h-3.4
			l-9.6,10.3c0.7,0.8,3.6,2.7,12.7,4.4c9.3,1.7,21.6,2.7,34.8,2.7c13.2,0,25.5-1,34.8-2.7c9-1.7,12-3.6,12.7-4.4l-9.6-10.3H48.8z"/>
		<path fill="#D48C7E" d="M20.6,362.4c-1.3,0.8-2.2,2.1-2.3,3.6c-0.1,1,0.1,2,0.6,2.9c0.9,1.5,2.5,2.4,4.2,2.4
			c0.8,0,1.6-0.2,2.3-0.6c0.2-0.1,0.4-0.2,0.6-0.2c0.2,0,0.5,0.1,0.7,0.2c0.4,0.2,0.7,0.7,0.7,1.1c0,2.6,2.2,4.8,4.8,4.8h0
			c2.6,0,4.8-2.1,4.8-4.8c0-0.5,0.3-0.9,0.7-1.1c0.4-0.2,0.9-0.2,1.3,0c0.7,0.4,1.5,0.6,2.3,0.6c1.7,0,3.3-0.9,4.2-2.4
			c0.5-0.9,0.7-1.9,0.6-2.9c-0.2-1.5-1-2.8-2.3-3.6c-0.4-0.2-0.6-0.7-0.6-1.1c0-0.5,0.2-0.9,0.6-1.1c2.3-1.3,3-4.3,1.7-6.6
			c-0.9-1.5-2.5-2.4-4.2-2.4c-0.8,0-1.6,0.2-2.3,0.6c-0.4,0.2-0.9,0.2-1.3,0c-0.4-0.2-0.7-0.7-0.7-1.1c0-2.6-2.2-4.8-4.8-4.8
			c-2.6,0-4.8,2.1-4.8,4.8c0,0.5-0.3,0.9-0.7,1.1c-0.4,0.2-0.9,0.2-1.3,0c-0.7-0.4-1.5-0.6-2.3-0.6c-1.7,0-3.3,0.9-4.2,2.4
			c-0.5,0.9-0.7,1.9-0.6,2.9c0.2,1.5,1,2.8,2.3,3.6c0.4,0.2,0.6,0.7,0.6,1.1C21.2,361.7,21,362.1,20.6,362.4z M32.2,355.4
			c3.2,0,5.8,2.6,5.8,5.8s-2.6,5.8-5.8,5.8c-3.2,0-5.8-2.6-5.8-5.8S29,355.4,32.2,355.4z"/>
		<path fill="#3F352F" d="M89.7,365.3v-14.9c0-21.9-17.8-39.7-39.7-39.7c-21.9,0-39.7,17.8-39.7,39.7v14.9L0.1,376.2
			c-0.2,0.2-0.4,0.6-0.4,0.9c0,1.7,1.5,3.2,4.5,4.5c2.5,1.1,6,2.1,10.5,2.9c9.4,1.8,21.9,2.7,35.3,2.7c13.3,0,25.9-1,35.3-2.7
			c4.5-0.8,8-1.8,10.5-2.9c3-1.3,4.5-2.8,4.5-4.5c0-0.3-0.1-0.7-0.4-0.9L89.7,365.3z M12.9,350.4c0-20.4,16.6-37.1,37.1-37.1
			s37.1,16.6,37.1,37.1v4.9H48.7c-0.1-1.1-0.4-2.1-1-3.1c-1.3-2.3-3.8-3.7-6.5-3.7c-0.7,0-1.3,0.1-1.9,0.3c-0.9-3.2-3.8-5.5-7.2-5.5
			c-3.4,0-6.3,2.4-7.2,5.5c-0.6-0.2-1.3-0.3-1.9-0.3c-2.7,0-5.1,1.4-6.5,3.7c-0.6,1-0.9,2-1,3.1h-2.7V350.4z M87.1,358v6.6H48.5
			c-0.3-1.2-1-2.4-1.9-3.3c0.9-0.9,1.6-2.1,1.9-3.3H87.1z M20.6,360.1c-1.3-0.8-2.2-2.1-2.3-3.6c-0.1-1,0.1-2,0.6-2.9
			c0.9-1.5,2.5-2.4,4.2-2.4c0.8,0,1.6,0.2,2.3,0.6c0.4,0.2,0.9,0.2,1.3,0c0.4-0.2,0.7-0.7,0.7-1.1c0-2.6,2.2-4.8,4.8-4.8
			c2.6,0,4.8,2.1,4.8,4.8c0,0.5,0.3,0.9,0.7,1.1c0.4,0.2,0.9,0.2,1.3,0c0.7-0.4,1.5-0.6,2.3-0.6c1.7,0,3.3,0.9,4.2,2.4
			c1.3,2.3,0.5,5.2-1.7,6.6c-0.4,0.2-0.6,0.7-0.6,1.1c0,0.5,0.2,0.9,0.6,1.1c1.3,0.8,2.2,2.1,2.3,3.6c0.1,1-0.1,2-0.6,2.9
			c-0.9,1.5-2.5,2.4-4.2,2.4c-0.8,0-1.6-0.2-2.3-0.6c-0.4-0.2-0.9-0.2-1.3,0c-0.4,0.2-0.7,0.7-0.7,1.1c0,2.6-2.2,4.8-4.8,4.8h0
			c-2.6,0-4.8-2.1-4.8-4.8c0-0.5-0.3-0.9-0.7-1.1c-0.2-0.1-0.4-0.2-0.7-0.2c-0.2,0-0.4,0.1-0.6,0.2c-0.7,0.4-1.5,0.6-2.3,0.6
			c-1.7,0-3.3-0.9-4.2-2.4c-0.5-0.9-0.7-1.9-0.6-2.9c0.2-1.5,1-2.8,2.3-3.6c0.4-0.2,0.6-0.7,0.6-1.1C21.2,360.8,21,360.3,20.6,360.1
			z M12.9,358h2.9c0.3,1.2,1,2.4,1.9,3.3c-0.9,0.9-1.6,2-1.9,3.3h-2.9V358z M84.8,381.9c-9.3,1.7-21.6,2.7-34.8,2.7
			c-13.2,0-25.5-1-34.8-2.7c-9-1.7-12-3.6-12.7-4.4l9.6-10.3h3.4c0.1,1.1,0.4,2.1,1,3.1c1.3,2.3,3.8,3.7,6.5,3.7
			c0.7,0,1.3-0.1,1.9-0.3c0.9,3.2,3.8,5.5,7.2,5.5h0c3.4,0,6.3-2.4,7.2-5.5c0.6,0.2,1.3,0.3,1.9,0.3c2.7,0,5.1-1.4,6.5-3.7
			c0.6-1,0.9-2,1-3.1h39.1l9.6,10.3C96.8,378.3,93.8,380.2,84.8,381.9z"/>
		<path fill="#3F352F" d="M32.2,367c3.2,0,5.8-2.6,5.8-5.8s-2.6-5.8-5.8-5.8c-3.2,0-5.8,2.6-5.8,5.8S29,367,32.2,367z M32.2,358.1
			c1.7,0,3.2,1.4,3.2,3.2c0,1.7-1.4,3.2-3.2,3.2c-1.7,0-3.2-1.4-3.2-3.2C29,359.5,30.4,358.1,32.2,358.1z"/>
	</g>
	<g>
		<path fill="#CCCCCC" d="M245.4,350.5c-0.7,0-1.4,0.3-1.8,0.7c-2.2,2.2-4,4.3-5.5,5.9c-3.2,3.6-4.2,4.6-5.4,4.6
			c-0.6,0-1.1-0.2-1.4-0.7c-1-1.8,0.4-35.1,0.4-35.9c0-0.8-0.2-1.5-0.7-2c-0.4-0.4-0.9-0.6-1.5-0.6c-1.1,0-2.2,0.9-2.6,3.4
			c-1.1,6.6-2.1,19.9-2.2,20.3c-0.1,0.7-0.6,1.2-1.3,1.2c-0.8,0-1.3-0.3-1.5-0.8c-0.8-1.8-1.3-23.2-1.4-24.4c-0.1-1.5-1.2-2-2.1-2
			c-1,0-2.3,0.7-2.3,2.6c0,0-0.7,23.8-1.2,24.9c-0.1,0.2-0.3,0.5-0.6,0.6c-0.2,0.1-0.5,0.2-0.8,0.2c-0.5,0-0.9-0.2-1.1-0.6
			c-0.6-1-1-4.4-1.7-14.8c-0.1-2.1-0.3-4.1-0.4-5.9c-0.2-2-1.2-2.7-2.1-2.7c-0.6,0-1.1,0.2-1.5,0.7c-0.5,0.6-0.8,1.4-0.8,2.4
			c1,20.2,0.6,21.1,0.3,21.7c-0.2,0.5-0.7,0.8-1.2,0.8h0c0,0-1,0-1.4-0.7c-0.6-1-2.5-12.2-2.6-13.1c-0.2-1.3-1.2-1.8-2.2-1.8
			c-0.4,0-1.1,0.1-1.6,0.8c-0.6,0.8-0.8,2.1-0.5,3.7c0,0,6.7,36.4,7.3,39.6c0,0.1-0.8,11.2-0.8,11.2h27.1c0.1-3.7,0.7-8.3,2.8-11.9
			c0,0,10.2-16.6,13.3-21.8c1.1-1.8,1.4-3.4,0.8-4.3C247,350.9,246.3,350.5,245.4,350.5z M209.5,375c-0.1,0-0.1,0-0.2,0
			c-0.6,0-1.2-0.5-1.3-1.1l-3.2-21.1c-0.1-0.7,0.4-1.4,1.1-1.5c0.7-0.1,1.4,0.4,1.5,1.1l3.2,21.1C210.7,374.2,210.2,374.9,209.5,375
			z M216.1,373.7c0,0.7-0.6,1.3-1.3,1.3c-0.7,0-1.3-0.6-1.3-1.3v-21.1c0-0.7,0.6-1.3,1.3-1.3c0.7,0,1.3,0.6,1.3,1.3V373.7z
			 M224.7,352.8l-3.2,21.1c-0.1,0.7-0.7,1.1-1.3,1.1c-0.1,0-0.1,0-0.2,0c-0.7-0.1-1.2-0.8-1.1-1.5l3.2-21.1c0.1-0.7,0.8-1.2,1.5-1.1
			C224.4,351.4,224.9,352.1,224.7,352.8z"/>
		<path fill="#C5BCA5" d="M262.9,373.1c0,0.7-0.1,1.3-0.1,1.8h27.5l-0.1-1.8H262.9z"/>
		<path fill="#C5BCA5" d="M203.2,392.2L203,394h27.5c0-0.5-0.1-1.1-0.1-1.8H203.2z"/>
		<path fill="#CCCCCC" d="M294.4,315.2c-0.9,0-1.9,0.6-2.2,1.8c-0.1,0.9-2,12.1-2.6,13.1c-0.4,0.7-1.3,0.7-1.4,0.7h0
			c-0.5,0-1-0.3-1.2-0.8c-0.3-0.6-0.7-1.5,0.3-21.7c0-1-0.2-1.9-0.8-2.4c-0.4-0.4-1-0.7-1.5-0.7c-0.9,0-2,0.7-2.1,2.7
			c-0.1,1.8-0.3,3.8-0.4,5.9c-0.7,10.4-1,13.8-1.7,14.8c-0.2,0.4-0.7,0.6-1.1,0.6c-0.3,0-0.6,0-0.8-0.2c-0.2-0.1-0.5-0.3-0.6-0.6
			c-0.6-1.1-1.2-24.9-1.2-24.9c0-1.9-1.3-2.6-2.3-2.6c-0.9,0-2,0.5-2.1,2c-0.1,1.2-0.6,22.5-1.4,24.4c-0.2,0.5-0.7,0.8-1.5,0.8
			c-0.7,0-1.3-0.5-1.3-1.2c0-0.4-1.1-13.7-2.2-20.3c-0.4-2.5-1.5-3.4-2.6-3.4c-0.6,0-1.1,0.2-1.5,0.6c-0.5,0.5-0.7,1.2-0.7,2
			c0,0.8,1.3,34.1,0.4,35.9c-0.3,0.5-0.8,0.7-1.4,0.7c-1.2,0-2.2-1-5.4-4.6c-1.5-1.6-3.3-3.7-5.5-5.9c-0.5-0.5-1.1-0.7-1.8-0.7
			c-0.8,0-1.6,0.4-1.9,1c-0.5,1-0.2,2.5,0.8,4.3c3.1,5.2,13.3,21.8,13.3,21.8c2.2,3.5,2.8,8.2,2.8,11.9H290c0,0-0.8-11.1-0.8-11.2
			c0.5-3.3,7.3-39.6,7.3-39.6c0.3-1.6,0.1-2.9-0.5-3.7C295.5,315.3,294.8,315.2,294.4,315.2z M273.4,356c-0.1,0-0.1,0-0.2,0
			c-0.6,0-1.2-0.5-1.3-1.1l-3.2-21.1c-0.1-0.7,0.4-1.4,1.1-1.5c0.7-0.1,1.4,0.4,1.5,1.1l3.2,21.1C274.6,355.2,274.1,355.8,273.4,356
			z M280,354.6c0,0.7-0.6,1.3-1.3,1.3s-1.3-0.6-1.3-1.3v-21.1c0-0.7,0.6-1.3,1.3-1.3s1.3,0.6,1.3,1.3V354.6z M288.7,333.8l-3.2,21.1
			c-0.1,0.7-0.7,1.1-1.3,1.1c-0.1,0-0.1,0-0.2,0c-0.7-0.1-1.2-0.8-1.1-1.5l3.2-21.1c0.1-0.7,0.8-1.2,1.5-1.1
			C288.3,332.4,288.8,333,288.7,333.8z"/>
		<path fill="#3F352F" d="M223.6,351.3c-0.7-0.1-1.4,0.4-1.5,1.1l-3.2,21.1c-0.1,0.7,0.4,1.4,1.1,1.5c0.1,0,0.1,0,0.2,0
			c0.6,0,1.2-0.5,1.3-1.1l3.2-21.1C224.9,352.1,224.4,351.4,223.6,351.3z"/>
		<path fill="#3F352F" d="M207.4,352.4c-0.1-0.7-0.8-1.2-1.5-1.1c-0.7,0.1-1.2,0.8-1.1,1.5l3.2,21.1c0.1,0.7,0.7,1.1,1.3,1.1
			c0.1,0,0.1,0,0.2,0c0.7-0.1,1.2-0.8,1.1-1.5L207.4,352.4z"/>
		<path fill="#3F352F" d="M214.7,351.3c-0.7,0-1.3,0.6-1.3,1.3v21.1c0,0.7,0.6,1.3,1.3,1.3c0.7,0,1.3-0.6,1.3-1.3v-21.1
			C216.1,351.9,215.5,351.3,214.7,351.3z"/>
		<path fill="#3F352F" d="M245.4,347.9c-1.4,0-2.8,0.6-3.7,1.5c-2.2,2.3-7.4,8-8.1,8.8c-0.1-5.6,0.8-32.1,0.8-33
			c0-1.5-0.5-2.9-1.4-3.9c-0.9-0.9-2.1-1.4-3.4-1.4c-2.3,0-4.8,1.8-5.2,5.7c-0.2,2-0.5,4.8-0.8,7.7c-0.1-2-0.1-4-0.1-5.5
			c0-2.4-0.1-4.5-0.2-5.7c-0.1-3-2.5-4.5-4.7-4.5c-2.4,0-4.9,1.8-4.9,5.2c0,0-0.1,7-0.2,9.6c-0.1-1.9-0.3-3.8-0.4-5.4
			c-0.3-3.6-2.6-5.1-4.8-5.1c-1.3,0-2.5,0.5-3.4,1.5c-1,1.1-1.6,2.6-1.5,4.4c0.2,3.3,0.3,6.1,0.4,8.5c0-0.1-0.4-4.3-4.8-4.3
			c-1.4,0-2.8,0.6-3.7,1.7c-0.8,1-1.7,2.8-1.1,5.8l0.6,3c1.7,9,6,32.6,6.7,36.4l-1.2,16.6c0,0.4,0.1,0.7,0.4,1
			c0.2,0.3,0.6,0.4,1,0.4h30.4c0.4,0,0.7-0.2,1-0.5c0.3-0.3,0.4-0.7,0.3-1.1c0-0.1-1.4-10.2,2.1-16.1c0,0,10.2-16.7,13.3-21.9
			c2.1-3.6,1.5-5.9,0.9-7C248.8,348.7,247.2,347.9,245.4,347.9z M203,394l0.1-1.8h27.3c0,0.7,0.1,1.3,0.1,1.8H203z M246.5,355.8
			c-3.1,5.2-13.3,21.8-13.3,21.8c-2.2,3.5-2.8,8.2-2.8,11.9h-27.1c0,0,0.8-11.1,0.8-11.2c-0.5-3.3-7.3-39.6-7.3-39.6
			c-0.3-1.6-0.1-2.9,0.5-3.7c0.5-0.7,1.3-0.8,1.6-0.8c0.9,0,1.9,0.6,2.2,1.8c0.1,0.9,2,12.1,2.6,13.1c0.4,0.7,1.3,0.7,1.4,0.7h0
			c0.5,0,1-0.3,1.2-0.8c0.3-0.6,0.7-1.5-0.3-21.7c0-1,0.2-1.9,0.8-2.4c0.4-0.4,1-0.7,1.5-0.7c0.9,0,2,0.7,2.1,2.7
			c0.1,1.8,0.3,3.8,0.4,5.9c0.7,10.4,1,13.8,1.7,14.8c0.2,0.4,0.7,0.6,1.1,0.6c0.3,0,0.6,0,0.8-0.2c0.2-0.1,0.5-0.3,0.6-0.6
			c0.6-1.1,1.2-24.9,1.2-24.9c0-1.9,1.3-2.6,2.3-2.6c0.9,0,2,0.5,2.1,2c0.1,1.2,0.6,22.5,1.4,24.4c0.2,0.5,0.7,0.8,1.5,0.8
			c0.7,0,1.3-0.5,1.3-1.2c0-0.4,1.1-13.7,2.2-20.3c0.4-2.5,1.5-3.4,2.6-3.4c0.6,0,1.1,0.2,1.5,0.6c0.5,0.5,0.7,1.2,0.7,2
			c0,0.8-1.3,34.1-0.4,35.9c0.3,0.5,0.8,0.7,1.4,0.7c1.2,0,2.2-1,5.4-4.6c1.5-1.6,3.3-3.7,5.5-5.9c0.5-0.5,1.1-0.7,1.8-0.7
			c0.8,0,1.6,0.4,1.9,1C247.9,352.4,247.6,354,246.5,355.8z"/>
		<path fill="#3F352F" d="M271.3,333.4c-0.1-0.7-0.8-1.2-1.5-1.1c-0.7,0.1-1.2,0.8-1.1,1.5l3.2,21.1c0.1,0.7,0.7,1.1,1.3,1.1
			c0.1,0,0.1,0,0.2,0c0.7-0.1,1.2-0.8,1.1-1.5L271.3,333.4z"/>
		<path fill="#3F352F" d="M287.5,332.3c-0.7-0.1-1.4,0.4-1.5,1.1l-3.2,21.1c-0.1,0.7,0.4,1.4,1.1,1.5c0.1,0,0.1,0,0.2,0
			c0.6,0,1.2-0.5,1.3-1.1l3.2-21.1C288.8,333,288.3,332.4,287.5,332.3z"/>
		<path fill="#3F352F" d="M278.7,332.2c-0.7,0-1.3,0.6-1.3,1.3v21.1c0,0.7,0.6,1.3,1.3,1.3s1.3-0.6,1.3-1.3v-21.1
			C280,332.8,279.4,332.2,278.7,332.2z"/>
		<path fill="#3F352F" d="M294.4,312.6c-4.4,0-4.8,4.2-4.8,4.3c0.1-2.3,0.2-5.1,0.4-8.5c0.1-1.7-0.4-3.3-1.5-4.4
			c-0.9-0.9-2.1-1.5-3.4-1.5c-2.2,0-4.5,1.6-4.8,5.1c-0.1,1.7-0.3,3.5-0.4,5.4c-0.1-2.5-0.2-9.6-0.2-9.6c0-3.4-2.5-5.2-4.9-5.2
			c-2.2,0-4.6,1.6-4.7,4.5c-0.1,1.2-0.1,3.3-0.2,5.7c0,1.6-0.1,3.5-0.1,5.5c-0.3-2.9-0.6-5.7-0.8-7.7c-0.4-4-2.9-5.7-5.2-5.7
			c-1.3,0-2.5,0.5-3.4,1.4c-1,1-1.5,2.4-1.4,3.9c0,0.8,0.9,27.3,0.8,33c-0.7-0.7-5.9-6.5-8.1-8.8c-1-1-2.3-1.5-3.7-1.5
			c-1.8,0-3.4,0.9-4.2,2.3c-0.6,1.1-1.3,3.4,0.9,7c3.1,5.2,13.3,21.9,13.3,21.9c3.6,5.9,2.2,16,2.1,16.1c-0.1,0.4,0.1,0.8,0.3,1.1
			c0.3,0.3,0.6,0.5,1,0.5h30.4c0.4,0,0.7-0.2,1-0.4c0.2-0.3,0.4-0.6,0.4-1l-1.2-16.6c0.6-3.8,5-27.4,6.7-36.4l0.6-3
			c0.6-3.1-0.3-4.9-1.1-5.8C297.1,313.2,295.8,312.6,294.4,312.6z M262.8,374.9c0-0.5,0.1-1.1,0.1-1.8h27.3l0.1,1.8H262.8z
			 M296.6,319.6c0,0-6.7,36.4-7.3,39.6c0,0.1,0.8,11.2,0.8,11.2H263c-0.1-3.7-0.7-8.3-2.8-11.9c0,0-10.2-16.6-13.3-21.8
			c-1.1-1.8-1.4-3.4-0.8-4.3c0.4-0.6,1.1-1,1.9-1c0.7,0,1.4,0.3,1.8,0.7c2.2,2.2,4,4.3,5.5,5.9c3.2,3.6,4.2,4.6,5.4,4.6
			c0.6,0,1.1-0.2,1.4-0.7c1-1.8-0.4-35.1-0.4-35.9c0-0.8,0.2-1.5,0.7-2c0.4-0.4,0.9-0.6,1.5-0.6c1.1,0,2.2,0.9,2.6,3.4
			c1.1,6.6,2.1,19.9,2.2,20.3c0.1,0.7,0.6,1.2,1.3,1.2c0.8,0,1.3-0.3,1.5-0.8c0.8-1.8,1.3-23.2,1.4-24.4c0.1-1.5,1.2-2,2.1-2
			c1,0,2.3,0.7,2.3,2.6c0,0,0.7,23.8,1.2,24.9c0.1,0.2,0.3,0.5,0.6,0.6c0.2,0.1,0.5,0.2,0.8,0.2c0.5,0,0.9-0.2,1.1-0.6
			c0.6-1,1-4.4,1.7-14.8c0.1-2.1,0.3-4.1,0.4-5.9c0.2-2,1.2-2.7,2.1-2.7c0.6,0,1.1,0.2,1.5,0.7c0.5,0.6,0.8,1.4,0.8,2.4
			c-1,20.2-0.6,21.1-0.3,21.7c0.2,0.5,0.7,0.8,1.2,0.8h0c0,0,1,0,1.4-0.7c0.6-1,2.5-12.2,2.6-13.1c0.2-1.3,1.2-1.8,2.2-1.8
			c0.4,0,1.1,0.1,1.6,0.8C296.7,316.7,296.9,318,296.6,319.6z"/>
	</g>
	<g>
		<g>
			<path fill="#CCCCCC" d="M148.9,339.2c-7.4,0-13.4,6-13.4,13.4s6,13.4,13.4,13.4s13.4-6,13.4-13.4S156.3,339.2,148.9,339.2z
				 M148.9,362.7c-5.6,0-10.1-4.5-10.1-10.1c0-5.6,4.5-10.1,10.1-10.1s10.1,4.5,10.1,10.1C159,358.2,154.5,362.7,148.9,362.7z"/>
		</g>
		<path fill="#CCCCCC" d="M154,350.9h-3.4v-3.4c0-0.9-0.7-1.7-1.7-1.7h0c-0.9,0-1.7,0.7-1.7,1.7v3.4h-3.4c-0.9,0-1.7,0.7-1.7,1.7v0
			c0,0.9,0.7,1.7,1.7,1.7h3.4v3.4c0,0.9,0.7,1.7,1.7,1.7h0c0.9,0,1.7-0.7,1.7-1.7v-3.4h3.4c0.9,0,1.7-0.7,1.7-1.7v0
			C155.6,351.7,154.9,350.9,154,350.9z"/>
	</g>
	<g>
		<g>
			<path fill="#CCCCCC" d="M342.9,339.2c-7.4,0-13.4,6-13.4,13.4s6,13.4,13.4,13.4s13.4-6,13.4-13.4S350.3,339.2,342.9,339.2z
				 M342.9,362.7c-5.6,0-10.1-4.5-10.1-10.1c0-5.6,4.5-10.1,10.1-10.1s10.1,4.5,10.1,10.1C352.9,358.2,348.4,362.7,342.9,362.7z"/>
		</g>
		<path fill="#CCCCCC" d="M347.9,350.9h-3.4v-3.4c0-0.9-0.7-1.7-1.7-1.7h0c-0.9,0-1.7,0.7-1.7,1.7v3.4h-3.4c-0.9,0-1.7,0.7-1.7,1.7
			v0c0,0.9,0.7,1.7,1.7,1.7h3.4v3.4c0,0.9,0.7,1.7,1.7,1.7h0c0.9,0,1.7-0.7,1.7-1.7v-3.4h3.4c0.9,0,1.7-0.7,1.7-1.7v0
			C349.6,351.7,348.8,350.9,347.9,350.9z"/>
	</g>
	<g>
		<g>
			<path fill="#CCCCCC" d="M556.3,339.2c-7.4,0-13.4,6-13.4,13.4s6,13.4,13.4,13.4c7.4,0,13.4-6,13.4-13.4S563.7,339.2,556.3,339.2z
				 M556.3,362.7c-5.6,0-10.1-4.5-10.1-10.1c0-5.6,4.5-10.1,10.1-10.1c5.6,0,10.1,4.5,10.1,10.1
				C566.3,358.2,561.8,362.7,556.3,362.7z"/>
		</g>
		<path fill="#CCCCCC" d="M561.3,350.9h-3.4v-3.4c0-0.9-0.7-1.7-1.7-1.7h0c-0.9,0-1.7,0.7-1.7,1.7v3.4h-3.4c-0.9,0-1.7,0.7-1.7,1.7
			v0c0,0.9,0.7,1.7,1.7,1.7h3.4v3.4c0,0.9,0.7,1.7,1.7,1.7h0c0.9,0,1.7-0.7,1.7-1.7v-3.4h3.4c0.9,0,1.7-0.7,1.7-1.7v0
			C563,351.7,562.2,350.9,561.3,350.9z"/>
	</g>
</g>
</svg>
