<?xml version="1.0" encoding="utf-8"?>
<!-- Generator: Adobe Illustrator 19.1.0, SVG Export Plug-In . SVG Version: 6.00 Build 0)  -->
<svg version="1.1" id="Livello_1" xmlns="http://www.w3.org/2000/svg" xmlns:xlink="http://www.w3.org/1999/xlink" x="0px" y="0px"
	 viewBox="0 0 921 770" enable-background="new 0 0 921 770" xml:space="preserve">
<g>
	<g>
		<path fill="#4D4D4D" d="M400.5,0.9c1.9,0,3.3,2.3,4.1,6.9c1.3,4.3,2,10.2,2,17.6v6c0,1.3-0.2,3-0.7,5.2c2.1,3.2,3.1,5,3.1,5.5v0.1
			c0,0.3-0.3,0.6-0.9,0.9h-0.8c-0.8-0.6-1.8-2.1-3-4.5h0.8c-0.5,1.1-1.4,1.6-2.7,1.6c-3.8,0-6.2-3.9-7.2-11.8
			c-0.4-3.7-0.6-8.2-0.6-13.7c0-7.1,0.9-11.3,2.7-12.8C398.8,1.3,399.9,0.9,400.5,0.9z M397.3,14.9c0,12.7,1.1,20,3.3,21.9
			c0.4,0.8,1,1.1,1.8,1.1c0.2,0,0.5-0.4,0.7-1.1c-2.2-3.3-3.3-5.2-3.3-5.4v-0.1c0-0.3,0.3-0.7,1-1.1h0.7c0.6,0.4,1.6,1.8,3.1,4.2
			h-0.8c0.2-1.3,0.3-2.1,0.3-2.6v-7.1c0-7.9-1-14.7-3.1-20.6c0.1,0-0.1-0.2-0.6-0.7h0.3c-1.1,0.3-1.7,0.6-1.8,0.8
			C397.8,5.6,397.3,9.2,397.3,14.9z"/>
		<path fill="#4D4D4D" d="M416.8,0.7h0.7c0.8,0.4,1.1,0.9,1.1,1.5v0.6c0.7,12.7,1.5,22.9,2.5,30.6c0.6,4.9,1.4,7.3,2.3,7.3
			c0.6-0.3,1-0.8,1-1.6c0-3.1-0.3-10.8-1-23.2c0.1-2.3,0.1-4.5,0.1-6.6V6.6l-0.1-0.8l0.1-0.3c-0.1-1-0.2-2.1-0.4-3.4l1-0.7h0.6
			c0.8,0,1.3,1.3,1.4,3.9c0,0.5,0,0.8-0.1,0.8c0.1,0.8,0.1,1.4,0.1,2v3.8l-0.1,0.7c0-0.3,0-0.5,0.1-0.5c-0.1,1.3-0.1,2.2-0.1,2.6
			v0.5c0.6,13.6,0.9,21.6,0.9,24.1c-0.3,2.6-1.5,4-3.8,4c-2.6,0-4.2-3.9-5-11.8c-0.9-6.7-1.7-16.7-2.5-29.9L416.8,0.7z"/>
		<path fill="#4D4D4D" d="M439.4,2h0.3c1.4,0.6,2.5,2.2,3.4,4.6c2.2,6.8,3.8,15.4,4.8,25.8c0.7,3.4,1,6.4,1,9.1
			c-0.2,0.6-0.9,0.9-2,0.9c-0.5-0.9-1-4.2-1.6-9.8c-0.2-0.6-0.5-3.1-1.1-7.4l-0.3,0c-3.7,0.4-5.6,0.6-5.6,0.7v4.6l-0.8,10.7
			c0.2,0.3,0.3,0.5,0.3,0.9s-0.3,0.7-1,1.1c-1.3,0-2-0.6-2-1.9c0.6-8.2,0.9-13.2,0.9-14.8c-0.1-1.1-0.1-2.2-0.1-3.3
			c0-5.6,0.5-11.6,1.4-17.9C437.4,3,438.2,2,439.4,2z M439.9,5c-1,3.8-1.5,9.4-1.5,16.7c-0.1,0-0.1,0.8-0.1,2.3v-0.4
			c1.9-0.5,3.8-0.8,5.7-0.8v0.4c0-2.3-1.3-7.9-3.9-16.8C439.6,5.3,439.5,4.8,439.9,5z"/>
		<path fill="#4D4D4D" d="M457.6,1.5c0.8,0,2.8,5.5,6,16.5c0.4,2.5,2.3,8.7,5.5,18.5h-1V36c-0.5-9.5-0.7-14.8-0.7-16
			c0-0.4,0-1.5,0.1-3.6c0-0.2,0-0.7,0-1.4c0.2-1.5,0.2-2.8,0.2-3.7V3c0.1-0.8,0.6-1.2,1.6-1.2l1.2,0.6c-0.2,4.6-0.4,8.1-0.4,10.3
			v3.3c0,6.8,0.2,15.7,0.6,26.6l-1.2,0.6c-1,0-4.1-8.8-9.2-26.4l-3.1-10.5l1.1,1.8l0.1-1.7c0.1,1.6,0.2,2.9,0.2,3.9l0,1
			c-0.2,4.3-0.2,7.4-0.2,9.1c0,8.7,0.4,16.1,1.1,22.2h-1.5c-0.9,0-1.4-0.4-1.4-1.2c-0.4-6.8-0.7-12.9-0.7-18.3V2.7
			C456.3,1.9,456.8,1.5,457.6,1.5z"/>
		<path fill="#4D4D4D" d="M476.2,0h1c3.4,1.1,5.9,3.2,7.7,6.4c2.5,5.2,3.8,10.5,3.8,15.9v0.6c0,7.8-2.9,14.2-8.6,19.2
			c-0.9,0.3-1.5,0.4-1.8,0.4c-0.7,0-1.1-0.8-1.2-2.5l0.1-0.2c-0.2-1.7-0.4-4.4-0.5-8.1h-0.2l0.2,0.5v-0.2c0-3.1,0-5.9,0.1-8.4
			L476.2,0z M479,3.2V2.5c0.1,8.8,0.2,15.8,0.5,20.9c-0.1,2.1-0.1,4.2-0.1,6.4v1.4c0,2.9,0.1,5.6,0.3,8c1-0.9,2.2-2.5,3.8-5
			c1.8-3.9,2.7-7.6,2.7-11V22c0-4.8-1.2-9.7-3.6-14.8C480.9,4.8,479.7,3.5,479,3.2z"/>
		<path fill="#4D4D4D" d="M500.2,1.8c2.7,0,4.7,5.4,6,16.3c0.1,1,0.1,2.3,0.1,3.9v0.5c0,0.3,0,0.6-0.1,0.9c0.1,0.1,0.1,0.4,0.1,0.9
			v0.1c0,0.5,0,0.9-0.1,0.9c0.1,0.3,0.1,0.5,0.1,0.6c0,8.4-1.2,13.6-3.7,15.7c-1,0.4-1.7,0.6-2.1,0.6h-0.9
			c-3.2-0.8-5.1-4.6-5.9-11.5l-0.4-4.8c0-11.1,1.4-18.8,4.2-23.2C498.5,2.1,499.4,1.8,500.2,1.8z M496,25.7c0,4.4,0.6,8.2,1.7,11.4
			c1,1.9,1.7,2.9,2.2,2.9h0.1c1.2,0,2-0.9,2.3-2.8c0.8-2,1.3-6.3,1.3-12.9v-2.3c0-4.6-0.8-9.8-2.4-15.7c-0.5-1.2-0.9-1.8-1.2-2
			c-0.4,0.2-0.7,0.4-0.8,0.8C497.1,9.6,496,16.5,496,25.7z"/>
		<path fill="#4D4D4D" d="M518.5,2.3c1.8,0,3.4,0.7,4.9,2.2c1.2,1.5,1.8,2.9,1.8,4.2v0.8c0,4-1.1,7.8-3.3,11.5
			c-0.6,1.2-0.9,3.2-0.9,5.8c0.2,1.3,0.2,2.3,0.2,3.1v1.3c0,0.6-0.3,1.1-1,1.4h-0.5c-0.6,0-1-0.3-1.1-1c0-0.5,0-0.8,0.1-0.9
			c0,0-0.1-1.2-0.4-3.8c0-4,0.8-7.1,2.4-9.3c1.3-2.7,1.9-5.5,1.9-8.3c0-1.5-0.7-2.8-2.1-4c-1-0.5-1.8-0.7-2.3-0.7
			c-2.1,0.6-3.1,1.5-3.1,2.7v0.9l0.4,0.5V9c0,0.6-0.3,1.1-1,1.4h-0.8c-0.7-0.4-1.1-0.9-1.1-1.5V7.3c0-2.3,1.8-3.9,5.3-4.9H518.5z
			 M519.4,39.3h0.6c0.4,0,0.8,0.3,1.3,1V41c0,1-0.6,1.5-1.7,1.5c-1.1,0-1.7-0.6-1.8-1.8C517.9,40.3,518.4,39.8,519.4,39.3z"/>
	</g>
	<g>
		<g>
			<path fill="#CCCCCC" d="M34,517c2.7,3.1,6.7,5.4,11.8,6.9s10.7,2.3,16.9,2.3c6.3,0,11.8-0.9,16.4-2.7c4.6-1.8,8.4-5.1,11.4-9.9
				c3-4.9,5.2-11.6,6.7-20.4c1.5-8.7,2.2-20.1,2.2-34c-3.7,6.8-9.4,11.9-17,15.3c-7.6,3.4-16.2,5.1-26,5.1c-7.8,0-14.7-1.3-20.9-3.8
				c-6.1-2.5-11.4-6-15.6-10.6c-4.3-4.5-7.6-9.9-9.9-16.1c-2.3-6.2-3.5-13.1-3.5-20.7c0-7.4,1.1-14.5,3.4-21.1
				c2.3-6.6,6.1-12.4,11.5-17.2c5.4-4.9,12.6-8.7,21.5-11.5c8.9-2.8,20-4.2,33.5-4.2c10.7,0,20.2,1.5,28.6,4.5
				c8.4,3,15.6,7.9,21.5,14.7c5.9,6.8,10.4,15.7,13.6,26.8c3.2,11.1,4.7,24.7,4.7,40.9c0,10.5-1.3,20.7-4,30.7
				c-2.7,9.9-7,18.8-13,26.4c-6,7.7-13.7,13.8-23.3,18.4c-9.5,4.6-21.1,6.9-34.7,6.9c-7.3,0-14.6-0.8-21.9-2.4
				c-7.4-1.6-14-4.1-19.9-7.4c-5.9-3.3-10.7-7.5-14.3-12.6c-3.6-5.1-5.5-11.1-5.5-18.1c0-6.1,1.7-11,5-14.4c3.3-3.5,8-5.2,14.2-5.2
				c6.1,0,11,1.7,14.6,5.1c3.6,3.4,5.3,7.8,5.3,13.3c0,4.5-1.4,8.1-4.1,10.8C40.3,515.4,37.3,516.8,34,517z M74.1,390.6
				c-7.8,0-13.7,2.5-17.8,7.4c-4.1,4.9-6.2,13.8-6.2,26.6c0,6.5,0.5,11.8,1.6,16.1c1,4.3,2.6,7.7,4.7,10.3c2.1,2.6,4.6,4.4,7.4,5.5
				c2.8,1,6.1,1.6,9.8,1.6c7.3,0,13-2.3,17.2-6.8c4.2-4.5,6.3-12.8,6.3-24.7c0-7-0.5-12.7-1.5-17.3c-1-4.6-2.4-8.3-4.4-11
				s-4.3-4.7-7.2-5.8C81.3,391.2,77.9,390.6,74.1,390.6z"/>
			<path fill="#CCCCCC" d="M212.8,519.4c0,6.3-2.1,11.6-6.3,15.9c-4.2,4.3-9.4,6.4-15.6,6.4c-6.3,0-11.7-2.1-16-6.4
				c-4.3-4.3-6.5-9.6-6.5-15.9c0-6,2.2-11.1,6.5-15.4c4.3-4.3,9.6-6.4,16-6.4c3.1,0,6,0.6,8.7,1.7c2.7,1.1,5,2.7,6.9,4.7
				c1.9,2,3.5,4.4,4.6,7C212.2,513.7,212.8,516.5,212.8,519.4z"/>
			<path fill="#CCCCCC" d="M329.9,509.5c0,6.9,8.6,10.4,25.7,10.4v19.9H252.3v-19.9c20,0,30.1-3.5,30.1-10.4V421h-32.3l-1-18.7
				c22.6-0.5,38.2-10.1,46.8-28.9l35.4,2.7c-0.5,4.4-0.8,8.1-1.1,11.1c-0.2,3.1-0.4,6-0.4,8.7V509.5z"/>
			<path fill="#CCCCCC" d="M460,374.4c12.4,0,23.4,1.4,32.9,4.1c9.5,2.8,17.3,7.4,23.7,14.1c6.3,6.6,11,15.5,14.2,26.6
				c3.2,11.1,4.7,24.9,4.7,41.6c0,16.3-1.6,29.8-4.7,40.5c-3.2,10.7-7.9,19.2-14.2,25.5c-6.3,6.3-14.2,10.7-23.7,13.2
				c-9.5,2.5-20.4,3.8-32.9,3.8c-12.6,0-23.6-1.3-33-3.8c-9.4-2.5-17.2-6.9-23.5-13.2c-6.3-6.3-11-14.8-14.2-25.5
				c-3.2-10.7-4.7-24.2-4.7-40.5c0-16.7,1.6-30.5,4.7-41.6c3.2-11.1,7.9-19.9,14.2-26.6c6.3-6.6,14.2-11.3,23.6-14.1
				C436.5,375.8,447.5,374.4,460,374.4z M460,396.7c-5.5,0-10,1.3-13.6,4c-3.6,2.7-6.4,6.7-8.5,12c-2.1,5.3-3.6,12-4.4,19.9
				c-0.8,7.9-1.2,17.2-1.2,27.9c0,12.6,0.4,22.8,1.2,30.7c0.8,7.8,2.2,13.9,4.2,18.3c2,4.4,4.8,7.4,8.4,9c3.6,1.6,8.2,2.4,13.8,2.4
				c5.5,0,10-0.8,13.6-2.4c3.6-1.6,6.4-4.6,8.5-9c2.1-4.4,3.6-10.5,4.4-18.3c0.8-7.8,1.2-18.1,1.2-30.7c0-10.7-0.4-20-1.2-27.9
				c-0.8-7.9-2.3-14.5-4.4-19.9c-2.1-5.3-4.9-9.3-8.5-12C470,398,465.4,396.7,460,396.7z"/>
			<path fill="#CCCCCC" d="M603.3,519.4c0,6.3-2.1,11.6-6.3,15.9c-4.2,4.3-9.4,6.4-15.6,6.4c-6.3,0-11.7-2.1-16-6.4
				c-4.3-4.3-6.5-9.6-6.5-15.9c0-6,2.2-11.1,6.5-15.4c4.3-4.3,9.6-6.4,16-6.4c3.1,0,6,0.6,8.7,1.7c2.7,1.1,5,2.7,6.9,4.7
				c1.9,2,3.5,4.4,4.6,7S603.3,516.5,603.3,519.4z"/>
			<path fill="#CCCCCC" d="M720.4,509.5c0,6.9,8.6,10.4,25.7,10.4v19.9H642.8v-19.9c20,0,30.1-3.5,30.1-10.4V421h-32.3l-1-18.7
				c22.6-0.5,38.2-10.1,46.8-28.9l35.4,2.7c-0.5,4.4-0.8,8.1-1.1,11.1c-0.2,3.1-0.4,6-0.4,8.7V509.5z"/>
			<path fill="#CCCCCC" d="M904,383.1c-2.9,4.4-6.6,8.2-11,11.5c-4.4,3.3-9.3,6.1-14.6,8.4c-5.3,2.3-10.7,4-16.4,5.1
				c-5.7,1.1-11.1,1.7-16.3,1.7c-4.4,0-9.7-0.4-15.9-1.2s-12.4-2.5-18.6-5.1l-3.2,33c5.2-3.2,11.2-5.6,18.1-7.2
				c6.9-1.5,14.4-2.3,22.7-2.3c12.1,0,22.3,1.5,30.6,4.4c8.2,2.9,14.8,6.9,19.8,11.9c4.9,5,8.5,10.9,10.7,17.6
				c2.2,6.7,3.3,13.8,3.3,21.2c0,11.2-2.1,20.7-6.2,28.5c-4.1,7.8-9.7,14.2-16.6,19c-7,4.9-15,8.4-24.3,10.7
				c-9.2,2.3-18.9,3.4-29.1,3.4c-8.2,0-16.2-1.1-23.9-3.4c-7.7-2.3-14.4-5.5-20.3-9.6c-5.8-4.1-10.5-9.1-13.9-14.8
				c-3.5-5.7-5.2-12-5.2-18.8c0-6.1,1.7-11.2,5-15.2c3.3-4,8-5.9,14.2-5.9c6.1,0,11,1.9,14.6,5.7c3.6,3.8,5.3,8.5,5.3,13.9
				c0,4.5-1.3,8.4-4,11.5c-2.7,3.2-5.6,4.8-8.9,5c1.5,3.7,4.6,6.7,9.5,8.9c4.9,2.2,11.2,3.3,18.9,3.3c12.6,0,21.7-3.8,27.2-11.3
				c5.5-7.5,8.2-18.4,8.2-32.6c0-11.2-2.3-19.8-6.8-25.8c-4.5-6.1-11.9-9.1-22.1-9.1c-7.4,0-14.2,0.9-20.1,2.8
				c-6,1.9-11.7,4.6-17.2,8.1L784,445.9l6.5-71.6c4.2,0.6,8.9,1.2,14.1,1.7c5.2,0.5,10.5,0.9,16,1.2c5.5,0.3,10.9,0.6,16.2,0.7
				c5.3,0.2,10.3,0.2,14.8,0.2c3.9,0,8.1-0.1,12.7-0.4c4.6-0.2,9.3-0.6,13.9-1c4.7-0.4,9.3-1,13.7-1.7c4.4-0.7,8.4-1.6,12-2.5V383.1
				z"/>
		</g>
		<g>
			<path fill="#E6E6E6" d="M58.2,180.2c0-3.7-0.8-6.8-2.2-9.4c-1.5-2.6-3.8-3.9-6.9-3.9c-3.5,0-6,1.1-7.6,3.4
				c-1.6,2.2-2.4,4.8-2.4,7.5c0,4,1.3,7.2,3.9,9.6c2.6,2.4,5.8,4.4,9.8,6.1s8.1,3.5,12.6,5.3c4.5,1.8,8.7,4.1,12.6,7
				c3.9,2.9,7.2,6.7,9.8,11.3c2.6,4.7,3.9,10.7,3.9,18.2c0,13.1-3.7,22.7-11.2,28.6c-7.5,5.9-18.3,8.9-32.5,8.9
				c-6.7,0-12.6-0.5-17.7-1.6c-5.1-1.1-9.4-3-13-5.7c-3.5-2.7-6.2-6.2-8-10.6c-1.8-4.4-2.8-9.8-2.8-16.2v-4.3h31.1v2.9
				c0,5.3,1,9,2.9,11.1c2,2.1,4.5,3.2,7.6,3.2c3.3,0,5.9-1.2,7.7-3.5c1.8-2.3,2.7-5.1,2.7-8.5c0-4-1.2-7.2-3.7-9.6
				c-2.5-2.4-5.6-4.4-9.3-6c-3.7-1.7-7.8-3.4-12.2-5.1c-4.4-1.7-8.4-4-12.2-6.7c-3.7-2.8-6.9-6.4-9.3-10.9
				C9.2,196.8,8,190.9,8,183.6c0-12.6,3.3-22.1,10-28.7c6.7-6.6,16.8-9.9,30.4-9.9c14.1,0,24.2,3,30.5,9.1c6.3,6,9.4,15.7,9.4,28.9
				H58.2V180.2z"/>
			<path fill="#E6E6E6" d="M135.7,147.5v123.4h-32.1V147.5H135.7z"/>
			<path fill="#E6E6E6" d="M246.1,180.2c0-3.7-0.8-6.8-2.2-9.4c-1.5-2.6-3.8-3.9-6.9-3.9c-3.5,0-6,1.1-7.6,3.4
				c-1.6,2.2-2.4,4.8-2.4,7.5c0,4,1.3,7.2,3.9,9.6c2.6,2.4,5.8,4.4,9.8,6.1s8.1,3.5,12.6,5.3c4.5,1.8,8.7,4.1,12.6,7
				c3.9,2.9,7.2,6.7,9.8,11.3c2.6,4.7,3.9,10.7,3.9,18.2c0,13.1-3.7,22.7-11.2,28.6c-7.5,5.9-18.3,8.9-32.5,8.9
				c-6.7,0-12.6-0.5-17.7-1.6c-5.1-1.1-9.4-3-13-5.7c-3.5-2.7-6.2-6.2-8-10.6c-1.8-4.4-2.8-9.8-2.8-16.2v-4.3h31.1v2.9
				c0,5.3,1,9,2.9,11.1c2,2.1,4.5,3.2,7.6,3.2c3.3,0,5.9-1.2,7.7-3.5c1.8-2.3,2.7-5.1,2.7-8.5c0-4-1.2-7.2-3.7-9.6
				c-2.5-2.4-5.6-4.4-9.3-6c-3.7-1.7-7.8-3.4-12.2-5.1c-4.4-1.7-8.4-4-12.2-6.7c-3.7-2.8-6.9-6.4-9.3-10.9
				c-2.5-4.5-3.7-10.4-3.7-17.6c0-12.6,3.3-22.1,10-28.7c6.7-6.6,16.8-9.9,30.4-9.9c14.1,0,24.2,3,30.5,9.1c6.3,6,9.4,15.7,9.4,28.9
				h-30.1V180.2z"/>
			<path fill="#E6E6E6" d="M339.6,147.5c6.1,0,11.4,1,15.9,2.9c4.5,2,8.2,4.6,11.1,8c2.9,3.4,5.1,7.4,6.5,12c1.4,4.6,2.1,9.6,2.1,15
				c0,12.8-3.4,22.4-10.3,28.8s-16.9,9.6-30.2,9.6h-11.2v47h-32.1V147.5H339.6z M329.5,200.7c4,0,7.1-1.2,9.2-3.6
				c2.1-2.4,3.2-6.2,3.2-11.4c0-10-4.1-15-12.4-15h-6v30.1H329.5z"/>
			<path fill="#E6E6E6" d="M385.7,179.7c1.5-8.1,4-14.8,7.4-19.9c3.5-5.1,8-8.9,13.6-11.2c5.6-2.4,12.6-3.5,20.7-3.5
				c8.2,0,15.1,1.2,20.7,3.5c5.6,2.4,10.2,6.1,13.7,11.2c3.5,5.1,5.9,11.8,7.4,19.9c1.5,8.1,2.2,17.9,2.2,29.5
				c0,11.5-0.7,21.3-2.2,29.5c-1.5,8.1-4,14.7-7.4,19.9c-3.5,5.1-8,8.8-13.7,11c-5.6,2.2-12.6,3.3-20.7,3.3
				c-8.2,0-15.1-1.1-20.7-3.3c-5.6-2.2-10.2-5.8-13.6-11c-3.5-5.1-5.9-11.8-7.4-19.9c-1.5-8.1-2.2-17.9-2.2-29.5
				C383.4,197.7,384.2,187.9,385.7,179.7z M417,229.9c0.2,5.5,0.7,9.8,1.5,13c0.7,3.2,1.8,5.5,3.3,6.7c1.4,1.3,3.4,1.9,5.8,1.9
				c2.4,0,4.3-0.6,5.8-1.9c1.4-1.3,2.5-3.5,3.3-6.7c0.7-3.2,1.2-7.6,1.5-13s0.3-12.4,0.3-20.7c0-8.3-0.1-15.2-0.3-20.6
				s-0.7-9.8-1.5-13c-0.7-3.2-1.8-5.5-3.3-6.7c-1.4-1.3-3.4-1.9-5.8-1.9c-2.4,0-4.4,0.6-5.8,1.9c-1.4,1.3-2.5,3.5-3.3,6.7
				c-0.8,3.2-1.2,7.6-1.5,13c-0.2,5.5-0.3,12.4-0.3,20.6C416.6,217.5,416.7,224.4,417,229.9z"/>
			<path fill="#E6E6E6" d="M532.9,180.2c0-3.7-0.8-6.8-2.2-9.4c-1.5-2.6-3.8-3.9-6.9-3.9c-3.5,0-6,1.1-7.6,3.4
				c-1.6,2.2-2.4,4.8-2.4,7.5c0,4,1.3,7.2,3.9,9.6c2.6,2.4,5.8,4.4,9.8,6.1c3.9,1.7,8.1,3.5,12.6,5.3c4.5,1.8,8.7,4.1,12.6,7
				c3.9,2.9,7.2,6.7,9.8,11.3c2.6,4.7,3.9,10.7,3.9,18.2c0,13.1-3.7,22.7-11.2,28.6s-18.3,8.9-32.5,8.9c-6.7,0-12.6-0.5-17.7-1.6
				c-5.1-1.1-9.4-3-13-5.7c-3.5-2.7-6.2-6.2-8-10.6c-1.8-4.4-2.8-9.8-2.8-16.2v-4.3h31.1v2.9c0,5.3,1,9,2.9,11.1
				c2,2.1,4.5,3.2,7.6,3.2c3.3,0,5.9-1.2,7.7-3.5c1.8-2.3,2.7-5.1,2.7-8.5c0-4-1.2-7.2-3.7-9.6c-2.5-2.4-5.6-4.4-9.3-6
				c-3.7-1.7-7.8-3.4-12.2-5.1c-4.4-1.7-8.4-4-12.2-6.7c-3.7-2.8-6.9-6.4-9.3-10.9c-2.5-4.5-3.7-10.4-3.7-17.6
				c0-12.6,3.3-22.1,10-28.7c6.7-6.6,16.8-9.9,30.4-9.9c14.1,0,24.2,3,30.5,9.1c6.3,6,9.4,15.7,9.4,28.9h-30.1V180.2z"/>
			<path fill="#E6E6E6" d="M640.1,147.5l30.1,123.4h-34.2l-3.3-21.6h-25.6l-3.3,21.6h-33.7l29.6-123.4H640.1z M619.7,172.7
				l-8.8,52.4h18l-8.8-52.4H619.7z"/>
			<path fill="#E6E6E6" d="M713.2,147.5l20.7,76h0.3v-76h30.1v123.4h-35.3l-21.4-76.2h-0.3v76.2h-30.1V147.5H713.2z"/>
			<path fill="#E6E6E6" d="M779.9,179.7c1.5-8.1,4-14.8,7.4-19.9c3.5-5.1,8-8.9,13.6-11.2c5.6-2.4,12.6-3.5,20.7-3.5
				c8.2,0,15.1,1.2,20.7,3.5c5.6,2.4,10.2,6.1,13.7,11.2c3.5,5.1,5.9,11.8,7.4,19.9c1.5,8.1,2.2,17.9,2.2,29.5
				c0,11.5-0.7,21.3-2.2,29.5c-1.5,8.1-4,14.7-7.4,19.9c-3.5,5.1-8,8.8-13.7,11c-5.6,2.2-12.6,3.3-20.7,3.3
				c-8.2,0-15.1-1.1-20.7-3.3c-5.6-2.2-10.2-5.8-13.6-11c-3.5-5.1-5.9-11.8-7.4-19.9c-1.5-8.1-2.2-17.9-2.2-29.5
				C777.6,197.7,778.4,187.9,779.9,179.7z M811.1,229.9c0.2,5.5,0.7,9.8,1.5,13c0.7,3.2,1.8,5.5,3.3,6.7c1.4,1.3,3.4,1.9,5.8,1.9
				c2.4,0,4.3-0.6,5.8-1.9c1.4-1.3,2.5-3.5,3.3-6.7c0.7-3.2,1.2-7.6,1.5-13c0.2-5.5,0.3-12.4,0.3-20.7c0-8.3-0.1-15.2-0.3-20.6
				c-0.2-5.5-0.7-9.8-1.5-13c-0.7-3.2-1.8-5.5-3.3-6.7c-1.4-1.3-3.4-1.9-5.8-1.9c-2.4,0-4.4,0.6-5.8,1.9c-1.4,1.3-2.5,3.5-3.3,6.7
				c-0.8,3.2-1.2,7.6-1.5,13s-0.3,12.4-0.3,20.6C810.8,217.5,810.9,224.4,811.1,229.9z"/>
			<path fill="#E6E6E6" d="M883.5,147.5h30.1v41.3l-3.6,46.3h-23.2l-3.3-46.3V147.5z M913.3,243.6v27.3h-29v-27.3H913.3z"/>
		</g>
		<g>
			<path fill="#CCCCCC" d="M12.7,315h3.8c2.2,0,6.7,0,9.9-1.4l-6,21.3c-0.1,0.4-0.2,0.9-0.2,1.3c0,0.7,0.3,1.1,0.8,1.1
				c0.9,0,2.2-1.1,3.8-3.6l0.9,0.5c-1.9,3.6-4.9,6-9.1,6c-2.9,0-5.8-1.2-5.8-5.1c0-1.2,0.5-3.5,1.4-6.5l3.5-12.6h-3.4L12.7,315z
				 M23.1,301.2c2.7,0,4.9,2.2,4.9,4.9s-2.2,4.9-4.9,4.9c-2.7,0-4.9-2.2-4.9-4.9S20.4,301.2,23.1,301.2z"/>
			<path fill="#CCCCCC" d="M37.4,301.2h4.7c2.3,0,7.3-0.4,9.3-1.7l-9.8,35.4c-0.1,0.4-0.2,0.9-0.2,1.3c0,0.7,0.3,1.1,0.8,1.1
				c0.6,0,2-1.1,4-3.9l0.8,0.8c-2.4,3.6-5.8,6-9.6,6c-3.3,0-5.4-1.4-5.4-4.7c0-1.1,0.3-2.6,1-5.2l7.8-28.1h-3.8L37.4,301.2z"/>
			<path fill="#CCCCCC" d="M73.5,316h-3l0.4-1h3.6c2.2,0,6.7,0,9.8-1.4l-2.2,8.6h0.1c2.2-4.1,6.4-8.6,11.4-8.6c3.1,0,6,1.7,6,5.2
				c0,4.5-4.8,14.5-4.8,17.1c0,1,0.3,1.4,0.9,1.4c1.4,0,3.4-2.7,4-3.9l0.9,0.5c-1.8,3.8-5.1,6.3-9.5,6.3c-3.4,0-5.8-1.7-5.8-5.6
				c0-2.8,4.8-14.9,4.8-16.4c0-0.9-0.5-1.3-1.2-1.3c-2.2,0-7.4,7-9.1,13.1l-2.6,9.5H67.1L73.5,316z"/>
			<path fill="#CCCCCC" d="M117.3,340.2c-7.2,0-12.5-4-12.5-11.7c0-6,4.4-14.8,16.4-14.8c7.5,0,12.8,4,12.8,11.7
				C134,330.7,130.2,340.2,117.3,340.2z M121,333.6l1.9-6.4c2.1-7.1,2.3-8.8,2.3-9.7c0-1.5-0.6-3-3.1-2.9c-2.8,0.1-4.3,3.4-6.1,10.8
				c-2,7.7-2.4,9.1-2.4,10.7c0,1.6,0.4,3.2,2.8,3.2C118.4,339.2,119.8,337.8,121,333.6z"/>
			<path fill="#CCCCCC" d="M140.3,315h3.6c2.2,0,6.7,0,9.8-1.4l-4.9,17.8c-0.7,2.6-0.9,3.6-0.9,4.5c0,1.2,1.1,1.7,2.6,1.7
				c5,0,13.9-7.6,13.9-12.7c0-3.4-5.3-1.4-5.3-6.7c0-2.5,1.8-4.3,4.4-4.3c3.3,0,5.1,2.2,5.1,5.4c0,8.9-12.6,20.9-22.7,20.9
				c-3.6,0-7.6-1.4-7.6-5.4c0-1.4,0.2-2.7,1.2-6.4l3.3-12.4h-3L140.3,315z"/>
			<path fill="#CCCCCC" d="M195.6,334.8c-3.2,3.3-7.7,5.4-12.3,5.4c-6.7,0-12.1-3.1-12.1-10.5c0-9.7,8.5-16.1,17.6-16.1
				c4.5,0,10,1.9,10,7.1c0,6.1-6.5,8.3-11.7,8.3c-2.4,0-4.3-0.2-5.2-0.3l-0.7,2.2c-0.4,1.5-0.6,2.9-0.6,4.1c0,2.7,1.8,3.9,4.2,3.9
				c3.4,0,7.7-2.6,10.1-4.8L195.6,334.8z M182.1,327.8c0.7,0.1,1.5,0.2,2.2,0.2c1.6,0,2.8-1,3.6-2.7c0.7-1.4,2.3-6.4,2.3-7.9
				c0-1.6-0.7-2.7-2.3-2.7c-1.6,0-2.6,1.5-3.1,3.3L182.1,327.8z"/>
			<path fill="#CCCCCC" d="M243.5,300.4c9.9,0,16.5,6.9,16.5,16.3c0,12.4-9.6,23.5-23.5,23.5c-9.1,0-17-5.9-17-16.3
				C219.6,312.8,227.7,300.4,243.5,300.4z M235.8,338.9c3.2,0,5.8-1.6,8.3-8.5c3-8.2,5.5-17,5.5-22.8c0-3.9-2.9-5.8-5.4-5.8
				c-3.5,0-6,2.1-7.6,5.4c-3,6.4-6.7,19.9-6.7,25.6C230,336.6,232.1,338.9,235.8,338.9z"/>
			<path fill="#CCCCCC" d="M265.4,315h3.8l2.1-7.6c3.9-1.1,7.9-2.4,11.4-4.6l-3.5,12.2h4l-0.3,1H279l-4.9,17.4
				c-0.3,1-0.5,2.3-0.5,2.6c0,0.5,0.4,1,0.9,1c1.7,0,3.2-2.4,4.1-3.6l0.8,0.7c-1,1-3.3,6.2-9.6,6.2c-2.9,0-5.8-1.5-5.8-4.7
				c0-1.6,0.9-4.8,1.4-6.8l3.6-12.7h-3.8L265.4,315z"/>
			<path fill="#CCCCCC" d="M286.6,315h3.8l2.1-7.6c3.9-1.1,7.9-2.4,11.4-4.6l-3.5,12.2h4l-0.3,1h-3.9l-4.9,17.4
				c-0.3,1-0.5,2.3-0.5,2.6c0,0.5,0.4,1,0.9,1c1.7,0,3.2-2.4,4.1-3.6l0.8,0.7c-1,1-3.3,6.2-9.6,6.2c-2.9,0-5.8-1.5-5.8-4.7
				c0-1.6,0.9-4.8,1.4-6.8l3.6-12.7h-3.8L286.6,315z"/>
			<path fill="#CCCCCC" d="M318.1,340.2c-7.2,0-12.5-4-12.5-11.7c0-6,4.4-14.8,16.4-14.8c7.5,0,12.8,4,12.8,11.7
				C334.8,330.7,331,340.2,318.1,340.2z M321.7,333.6l1.9-6.4c2.1-7.1,2.3-8.8,2.3-9.7c0-1.5-0.6-3-3.1-2.9
				c-2.8,0.1-4.3,3.4-6.1,10.8c-2,7.7-2.4,9.1-2.4,10.7c0,1.6,0.4,3.2,2.8,3.2C319.1,339.2,320.5,337.8,321.7,333.6z"/>
			<path fill="#CCCCCC" d="M343.6,301.2h4c2.4,0,7.4-0.4,9.4-1.7l-4.9,17.5h0.1c1.6-2.3,3.8-3.4,6.8-3.4c4.9,0,8.9,3.7,8.9,10.3
				c0,9.7-7.2,16.3-16.5,16.3c-7.8,0-12.3-3.6-12.3-9.8c0-2.2,0.6-4.7,1.4-7.6l5.6-20.7h-3L343.6,301.2z M350,339.2
				c2.3,0,3.6-1.6,4.8-6c3.6-12.9,3.8-14.2,3.8-15.6c0-1.6-0.8-2.3-2-2.3c-2.3,0-4.2,2.1-6.1,8.2c-1.4,4.5-3,11.4-3,13.1
				C347.4,338.2,348.5,339.2,350,339.2z"/>
			<path fill="#CCCCCC" d="M376.8,316h-3l0.4-1h3.6c2.2,0,6.7,0,9.8-1.4l-1.5,5.4h0.1c1.3-2.1,4.1-5.4,7.2-5.4c3,0,4.6,2,4.6,4.7
				c0,3.2-2.1,5.1-4.8,5.1c-2.8,0-4.3-2.1-4.3-4.4c0-0.7,0.2-1.2,0.4-1.8l-0.1-0.1c-2.6,2.8-3.9,5.5-4.8,8.7l-3.8,13.6h-10.3
				L376.8,316z"/>
			<path fill="#CCCCCC" d="M423.5,334.8c-3.2,3.3-7.7,5.4-12.3,5.4c-6.7,0-12.1-3.1-12.1-10.5c0-9.7,8.5-16.1,17.6-16.1
				c4.5,0,10,1.9,10,7.1c0,6.1-6.5,8.3-11.7,8.3c-2.4,0-4.3-0.2-5.2-0.3l-0.7,2.2c-0.4,1.5-0.6,2.9-0.6,4.1c0,2.7,1.8,3.9,4.2,3.9
				c3.4,0,7.7-2.6,10.1-4.8L423.5,334.8z M410.1,327.8c0.7,0.1,1.5,0.2,2.2,0.2c1.6,0,2.8-1,3.6-2.7c0.7-1.4,2.3-6.4,2.3-7.9
				c0-1.6-0.7-2.7-2.3-2.7c-1.6,0-2.6,1.5-3.1,3.3L410.1,327.8z"/>
			<path fill="#CCCCCC" d="M478,334c-2.2,3.6-5.2,6.2-9.7,6.2c-2.4,0-5-1.6-5.3-4.3c-2.2,3.2-4.9,4.3-8,4.3c-6.1,0-9-4.8-9-10.8
				c0-7.8,6.3-15.8,14.3-15.8c3.3,0,5.7,1.2,6.7,4.8h0.1l4.3-16.2H468l0.4-1h4.6c2.4,0,7.4-0.4,9.4-1.7l-9.8,35.5
				c-0.2,0.5-0.2,0.9-0.2,1.1c0,0.4,0.3,0.8,0.9,0.8c0.9,0,1.9-0.9,3.9-3.5L478,334z M463,315.6c-1.8,0-2.7,1.5-3.6,4.2
				c-2,6-4.2,15-4.1,16.4c0,1.1,0.8,2,2.2,2c1.8,0,3.5-1.5,4.7-3.7c1.4-2.5,3.9-11.6,3.9-14.3C466.2,317.2,464.4,315.6,463,315.6z"
				/>
			<path fill="#CCCCCC" d="M510.1,329.1c-1.3,4.6-1.6,6.1-1.6,6.8c0,0.9,0.5,1.4,1.4,1.4c1.1,0,3.2-2.7,3.8-3.9l0.9,0.5
				c-1.8,3.8-5.1,6.3-9.5,6.3c-3.6,0-5.8-1.7-5.8-5.1v-1h-0.1c-2.2,3.4-6.4,6-10.8,6c-3.3,0-5.7-2.2-5.7-5.5c0-0.4,0.2-2.3,0.5-3.4
				l4.1-15.3h-3l0.4-1h3.6c2.2,0,6.7,0,9.8-1.4l-4.4,15.5c-1.3,4.6-1.6,6.1-1.6,6.8c0,0.9,0.5,1.4,1.4,1.4c2.8,0,5.6-4.6,6.6-8
				l4.1-14.3h10L510.1,329.1z"/>
			<path fill="#CCCCCC" d="M542.9,334.8c-3.2,3.3-7.7,5.4-12.3,5.4c-6.7,0-12.1-3.1-12.1-10.5c0-9.7,8.5-16.1,17.6-16.1
				c4.5,0,10,1.9,10,7.1c0,6.1-6.5,8.3-11.7,8.3c-2.4,0-4.3-0.2-5.2-0.3l-0.7,2.2c-0.4,1.5-0.6,2.9-0.6,4.1c0,2.7,1.8,3.9,4.2,3.9
				c3.4,0,7.7-2.6,10.1-4.8L542.9,334.8z M529.4,327.8c0.7,0.1,1.5,0.2,2.2,0.2c1.6,0,2.8-1,3.6-2.7c0.7-1.4,2.3-6.4,2.3-7.9
				c0-1.6-0.7-2.7-2.3-2.7c-1.6,0-2.6,1.5-3.1,3.3L529.4,327.8z"/>
			<path fill="#CCCCCC" d="M553.6,316h-3l0.4-1h3.6c2.2,0,6.7,0,9.8-1.4l-2.1,7.9l0.1-0.1c2.1-4,5.5-7.8,10.4-7.8
				c3.3,0,5.5,1.4,5.5,4.8c0,1.1-0.1,2-0.2,2.8h0.1c2.4-4.5,6.3-7.6,11.1-7.6c3,0,5.6,1.8,5.6,5.1c0,1.1-0.2,2.2-0.5,3.1
				c-0.7,2-4.2,12.2-4.2,13.5c0,1.4,0.4,1.6,1.2,1.6c1.1,0,3-2.8,3.5-3.9l0.8,0.5c-1.8,4-5,6.6-9.4,6.6c-3.2,0-5.5-2.1-5.5-5.7
				c0-3.9,4.7-13.9,4.7-16.3c0-0.8-0.3-1.4-1.2-1.4c-2.3,0-6.4,5.9-7.8,11l-3.4,11.6h-9.9l5.4-19.6c0.2-0.8,0.3-1.6,0.3-1.9
				c0-0.5-0.3-1.1-1-1.1c-1.8,0-6,6.1-7.3,11.1l-3.2,11.5h-10.3L553.6,316z"/>
			<path fill="#CCCCCC" d="M603,315h3.8c2.2,0,6.7,0,9.9-1.4l-6,21.3c-0.1,0.4-0.2,0.9-0.2,1.3c0,0.7,0.3,1.1,0.8,1.1
				c0.9,0,2.2-1.1,3.8-3.6l0.9,0.5c-1.9,3.6-4.9,6-9.1,6c-2.9,0-5.8-1.2-5.8-5.1c0-1.2,0.5-3.5,1.4-6.5L606,316h-3.4L603,315z
				 M613.4,301.2c2.7,0,4.9,2.2,4.9,4.9s-2.2,4.9-4.9,4.9c-2.7,0-4.9-2.2-4.9-4.9S610.7,301.2,613.4,301.2z"/>
			<path fill="#CCCCCC" d="M627.6,301.2h4.7c2.3,0,7.3-0.4,9.3-1.7l-9.8,35.4c-0.1,0.4-0.2,0.9-0.2,1.3c0,0.7,0.3,1.1,0.8,1.1
				c0.6,0,2-1.1,4-3.9l0.8,0.8c-2.4,3.6-5.8,6-9.6,6c-3.3,0-5.4-1.4-5.4-4.7c0-1.1,0.3-2.6,1-5.2l7.8-28.1h-3.8L627.6,301.2z"/>
			<path fill="#CCCCCC" d="M663.8,315.2H674l-5.4,19c-0.3,0.9-0.4,1.4-0.4,2c0,0.8,0.5,1.1,1,1.1c0.8,0,1.3-0.5,3.8-3.6l0.8,0.6
				c-2.8,3.8-4.7,6-9.6,6c-3,0-4.9-1.1-5.7-4.4h-0.1c-1.4,2.7-4,4.4-7.4,4.4c-6.1,0-9-4.8-9-10.8c0-7.8,6.3-15.8,14.3-15.8
				c3,0,5.8,1.6,6.4,4.9h0.1L663.8,315.2z M655.4,319.9c-2,6-4.2,14-4.2,16.4c0,1.9,1.1,2.3,2.2,2.3c1.9,0,3.7-1.8,4.5-3.6
				c1.7-4.1,3.9-12.3,3.9-14.9c0-2.8-1.2-4.3-2.8-4.3C657.2,315.6,656.2,317.2,655.4,319.9z"/>
			<path fill="#CCCCCC" d="M687.6,351.2h3.2l3.6-13.6l-0.1-0.1c-1.7,1.7-3.9,2.4-6.5,2.4c-5.8,0-9.3-4.6-9.3-10.2
				c0-7.6,5.4-16.1,13.7-16.1c3.5,0,6.5,1,7.6,4.4h0.1l0.8-3h10.1l-9.8,36.2h3.3l-0.4,1h-16.6L687.6,351.2z M690.2,338.2
				c1.7,0,3.6-1.4,4.5-3.2c1.1-2.4,4.1-12.2,4.1-14.6c0-2.8-0.9-4.7-3-4.7c-2,0-3,1.4-3.8,4c-3.4,11.9-4,15-4,16.1
				C687.9,337.2,688.7,338.2,690.2,338.2z"/>
			<path fill="#CCCCCC" d="M742.6,329.1c-1.3,4.6-1.6,6.1-1.6,6.8c0,0.9,0.5,1.4,1.4,1.4c1.1,0,3.2-2.7,3.8-3.9l0.9,0.5
				c-1.8,3.8-5.1,6.3-9.5,6.3c-3.6,0-5.8-1.7-5.8-5.1v-1h-0.1c-2.2,3.4-6.4,6-10.8,6c-3.3,0-5.7-2.2-5.7-5.5c0-0.4,0.2-2.3,0.5-3.4
				l4.1-15.3h-3l0.4-1h3.6c2.2,0,6.7,0,9.8-1.4l-4.4,15.5c-1.3,4.6-1.6,6.1-1.6,6.8c0,0.9,0.5,1.4,1.4,1.4c2.8,0,5.6-4.6,6.6-8
				l4.1-14.3h10L742.6,329.1z"/>
			<path fill="#CCCCCC" d="M754,315h3.8c2.2,0,6.7,0,9.9-1.4l-6,21.3c-0.1,0.4-0.2,0.9-0.2,1.3c0,0.7,0.3,1.1,0.8,1.1
				c0.9,0,2.2-1.1,3.8-3.6l0.9,0.5c-1.9,3.6-4.9,6-9.1,6c-2.9,0-5.8-1.2-5.8-5.1c0-1.2,0.5-3.5,1.4-6.5L757,316h-3.4L754,315z
				 M764.4,301.2c2.7,0,4.9,2.2,4.9,4.9s-2.2,4.9-4.9,4.9c-2.7,0-4.9-2.2-4.9-4.9S761.7,301.2,764.4,301.2z"/>
			<path fill="#CCCCCC" d="M777,316h-3l0.4-1h3.6c2.2,0,6.7,0,9.8-1.4l-2.2,8.6h0.1c2.2-4.1,6.4-8.6,11.4-8.6c3.1,0,6,1.7,6,5.2
				c0,4.5-4.8,14.5-4.8,17.1c0,1,0.3,1.4,0.9,1.4c1.4,0,3.4-2.7,4-3.9l0.9,0.5c-1.8,3.8-5.1,6.3-9.5,6.3c-3.4,0-5.8-1.7-5.8-5.6
				c0-2.8,4.8-14.9,4.8-16.4c0-0.9-0.5-1.3-1.2-1.3c-2.2,0-7.4,7-9.1,13.1l-2.6,9.5h-10.3L777,316z"/>
			<path fill="#CCCCCC" d="M840.4,334c-2.2,3.6-5.2,6.2-9.7,6.2c-2.4,0-5-1.6-5.3-4.3c-2.2,3.2-4.9,4.3-8,4.3c-6.1,0-9-4.8-9-10.8
				c0-7.8,6.3-15.8,14.3-15.8c3.3,0,5.7,1.2,6.7,4.8h0.1l4.3-16.2h-3.5l0.4-1h4.6c2.4,0,7.4-0.4,9.4-1.7L835,335
				c-0.2,0.5-0.2,0.9-0.2,1.1c0,0.4,0.3,0.8,0.9,0.8c0.9,0,1.9-0.9,3.9-3.5L840.4,334z M825.5,315.6c-1.8,0-2.7,1.5-3.6,4.2
				c-2,6-4.2,15-4.1,16.4c0,1.1,0.8,2,2.2,2c1.8,0,3.5-1.5,4.7-3.7c1.4-2.5,3.9-11.6,3.9-14.3C828.6,317.2,826.8,315.6,825.5,315.6z
				"/>
			<path fill="#CCCCCC" d="M847.7,315h3.8c2.2,0,6.7,0,9.9-1.4l-6,21.3c-0.1,0.4-0.2,0.9-0.2,1.3c0,0.7,0.3,1.1,0.8,1.1
				c0.9,0,2.2-1.1,3.8-3.6l0.9,0.5c-1.9,3.6-4.9,6-9.1,6c-2.9,0-5.8-1.2-5.8-5.1c0-1.2,0.5-3.5,1.4-6.5l3.5-12.6h-3.4L847.7,315z
				 M858.1,301.2c2.7,0,4.9,2.2,4.9,4.9s-2.2,4.9-4.9,4.9c-2.7,0-4.9-2.2-4.9-4.9S855.3,301.2,858.1,301.2z"/>
			<path fill="#CCCCCC" d="M890.7,333.6c-2.6,4.2-6.8,6.6-12,6.6c-7.7,0-13-4-13-11.7c0-5.3,3.8-14.8,16.6-14.8c5.9,0,10,2.7,10,6.4
				c0,2.2-1.8,4.2-4.6,4.2c-2.5,0-4.6-1.8-4.6-4.3c0-2.2,1.7-4.2,4-4.5v-0.1c-0.7-0.3-1.8-0.4-2.8-0.4c-3.8,0-5.2,3-6.4,7.4
				c-3,10.5-3.2,11-3.2,12.8c0,2.1,1.6,3.7,5.2,3.7c4.2,0,7.4-2.7,9.7-5.7L890.7,333.6z"/>
			<path fill="#CCCCCC" d="M899,315h3.8c2.2,0,6.7,0,9.9-1.4l-6,21.3c-0.1,0.4-0.2,0.9-0.2,1.3c0,0.7,0.3,1.1,0.8,1.1
				c0.9,0,2.2-1.1,3.8-3.6l0.9,0.5c-1.9,3.6-4.9,6-9.1,6c-2.9,0-5.8-1.2-5.8-5.1c0-1.2,0.5-3.5,1.4-6.5L902,316h-3.4L899,315z
				 M909.4,301.2c2.7,0,4.9,2.2,4.9,4.9s-2.2,4.9-4.9,4.9c-2.7,0-4.9-2.2-4.9-4.9S906.7,301.2,909.4,301.2z"/>
		</g>
		<g>
			<path fill="#E6E6E6" d="M37.1,584.8c2.8,1.3,5.1,3.2,6.9,5.9c1.6,2.4,2.7,5.2,3.2,8.3c0.3,1.8,0.4,4.5,0.3,8H18.3
				c0.2,4,1.6,6.9,4.2,8.5c1.6,1,3.5,1.5,5.8,1.5c2.4,0,4.3-0.6,5.8-1.8c0.8-0.7,1.5-1.6,2.2-2.8H47c-0.3,2.4-1.6,4.8-3.9,7.3
				c-3.6,3.9-8.6,5.9-15.1,5.9c-5.3,0-10.1-1.6-14.1-4.9c-4.1-3.3-6.1-8.7-6.1-16.1c0-7,1.8-12.3,5.5-16c3.7-3.7,8.5-5.6,14.4-5.6
				C31.1,583,34.3,583.6,37.1,584.8z M33.7,578.6h-7.6l-11.2-11h11.7L33.7,578.6z M21.4,593.9c-1.5,1.5-2.4,3.6-2.8,6.2h18.1
				c-0.2-2.8-1.1-4.9-2.8-6.3c-1.7-1.4-3.8-2.2-6.2-2.2C24.9,591.6,22.8,592.4,21.4,593.9z"/>
			<path fill="#E6E6E6" d="M106.5,569.9h11.8l-18.5,54.3H89l-18.4-54.3h12.1l11.8,41.2L106.5,569.9z"/>
			<path fill="#E6E6E6" d="M146.2,584.8c2.8,1.3,5.1,3.2,6.9,5.9c1.6,2.4,2.7,5.2,3.2,8.3c0.3,1.8,0.4,4.5,0.3,8h-29.3
				c0.2,4,1.6,6.9,4.2,8.5c1.6,1,3.5,1.5,5.8,1.5c2.4,0,4.3-0.6,5.8-1.8c0.8-0.7,1.5-1.6,2.2-2.8h10.7c-0.3,2.4-1.6,4.8-3.9,7.3
				c-3.6,3.9-8.6,5.9-15.1,5.9c-5.3,0-10.1-1.6-14.1-4.9c-4.1-3.3-6.1-8.7-6.1-16.1c0-7,1.8-12.3,5.5-16c3.7-3.7,8.5-5.6,14.4-5.6
				C140.3,583,143.4,583.6,146.2,584.8z M130.5,593.9c-1.5,1.5-2.4,3.6-2.8,6.2h18.1c-0.2-2.8-1.1-4.9-2.8-6.3
				c-1.7-1.4-3.8-2.2-6.2-2.2C134.1,591.6,132,592.4,130.5,593.9z"/>
			<path fill="#E6E6E6" d="M194.4,586.3c2.6,2.2,3.9,5.8,3.9,10.8v27h-10.8v-24.4c0-2.1-0.3-3.7-0.8-4.9c-1-2.1-3-3.1-5.9-3.1
				c-3.5,0-6,1.5-7.3,4.5c-0.7,1.6-1,3.6-1,6.1v21.7h-10.5v-40.1h10.2v5.9c1.3-2.1,2.6-3.5,3.8-4.5c2.2-1.6,4.9-2.4,8.2-2.4
				C188.4,583.1,191.8,584.2,194.4,586.3z"/>
			<path fill="#E6E6E6" d="M234.3,584.8c2.8,1.3,5.1,3.2,6.9,5.9c1.6,2.4,2.7,5.2,3.2,8.3c0.3,1.8,0.4,4.5,0.3,8h-29.3
				c0.2,4,1.6,6.9,4.2,8.5c1.6,1,3.5,1.5,5.8,1.5c2.4,0,4.3-0.6,5.8-1.8c0.8-0.7,1.5-1.6,2.2-2.8h10.7c-0.3,2.4-1.6,4.8-3.9,7.3
				c-3.6,3.9-8.6,5.9-15.1,5.9c-5.3,0-10.1-1.6-14.1-4.9c-4.1-3.3-6.1-8.7-6.1-16.1c0-7,1.8-12.3,5.5-16c3.7-3.7,8.5-5.6,14.4-5.6
				C228.3,583,231.5,583.6,234.3,584.8z M218.6,593.9c-1.5,1.5-2.4,3.6-2.8,6.2h18.1c-0.2-2.8-1.1-4.9-2.8-6.3
				c-1.7-1.4-3.8-2.2-6.2-2.2C222.2,591.6,220.1,592.4,218.6,593.9z"/>
			<path fill="#E6E6E6" d="M272.4,583.1c0.1,0,0.4,0,0.9,0.1v10.8c-0.7-0.1-1.3-0.1-1.8-0.1c-0.5,0-0.9,0-1.3,0
				c-4.2,0-7.1,1.4-8.5,4.1c-0.8,1.5-1.2,3.9-1.2,7.1v19.2H250V584h10v7c1.6-2.7,3-4.5,4.2-5.5c2-1.6,4.5-2.5,7.7-2.5
				C272.1,583.1,272.3,583.1,272.4,583.1z"/>
			<path fill="#E6E6E6" d="M300.8,584.7c1.9,1.1,3.4,2.5,4.6,4.4V570H316v54.2h-10.2v-5.6c-1.5,2.4-3.2,4.1-5.1,5.2
				c-1.9,1.1-4.3,1.6-7.1,1.6c-4.7,0-8.6-1.9-11.8-5.7s-4.8-8.7-4.8-14.6c0-6.9,1.6-12.2,4.7-16.2c3.2-3.9,7.4-5.9,12.7-5.9
				C296.7,583.1,298.9,583.6,300.8,584.7z M303.3,613.3c1.5-2.2,2.3-5.1,2.3-8.6c0-4.9-1.2-8.4-3.7-10.5c-1.5-1.3-3.3-1.9-5.3-1.9
				c-3.1,0-5.3,1.2-6.8,3.5c-1.4,2.3-2.2,5.2-2.2,8.6c0,3.7,0.7,6.7,2.2,8.9c1.5,2.2,3.7,3.3,6.7,3.3
				C299.5,616.6,301.8,615.5,303.3,613.3z"/>
			<path fill="#E6E6E6" d="M337.6,578.6H330l-11.2-11h11.7L337.6,578.6z M325.7,584h10.6v40.2h-10.6V584z"/>
			<path fill="#E6E6E6" d="M345.1,575.9l7.7,2.5v-8.9h6.4v8.9l7.7-2.5l1.7,5.5l-7.8,2.4l5.1,7.3l-4.7,3.4l-5.1-6.9l-5.3,6.9
				l-4.7-3.4l5.2-7.3l-7.8-2.4L345.1,575.9z"/>
			<path fill="#E6E6E6" d="M399.2,575.7c3.3-3.5,7.6-5.3,12.9-5.3c8.1,0,13.7,3.6,16.7,10.8c1.7,4.1,2.6,9.4,2.6,16.1
				c0,6.5-0.8,11.9-2.5,16.2c-3.1,8.2-8.9,12.3-17.3,12.3c-4,0-7.6-1.2-10.8-3.6c-3.2-2.4-5-5.8-5.5-10.4h10.5
				c0.2,1.6,0.9,2.8,2,3.8c1.1,1,2.5,1.5,4.3,1.5c3.5,0,5.9-1.9,7.3-5.7c0.8-2.1,1.2-5.2,1.4-9.2c-1,1.2-2,2.1-3.1,2.8
				c-2,1.2-4.4,1.8-7.3,1.8c-4.3,0-8-1.5-11.3-4.4c-3.3-2.9-4.9-7.2-4.9-12.7C394.2,583.8,395.9,579.2,399.2,575.7z M416.8,596.9
				c2.4-1.5,3.6-4.2,3.6-7.9c0-3-0.7-5.4-2.1-7.2c-1.4-1.8-3.3-2.7-5.8-2.7c-1.8,0-3.3,0.5-4.6,1.5c-2,1.6-3,4.2-3,8
				c0,3.2,0.6,5.5,1.9,7.1c1.3,1.6,3.3,2.4,6,2.4C414.2,598.1,415.6,597.7,416.8,596.9z"/>
			<path fill="#E6E6E6" d="M502.5,619.4c-4.1,4.2-10,6.3-17.8,6.3c-7.8,0-13.7-2.1-17.8-6.3c-5.5-5.2-8.3-12.7-8.3-22.4
				c0-9.9,2.8-17.4,8.3-22.4c4.1-4.2,10-6.3,17.8-6.3c7.8,0,13.7,2.1,17.8,6.3c5.5,5,8.2,12.5,8.2,22.4
				C510.7,606.7,508,614.2,502.5,619.4z M495.4,611.1c2.6-3.3,4-8,4-14.2c0-6.1-1.3-10.8-4-14.1s-6.2-5-10.7-5
				c-4.5,0-8.1,1.7-10.8,5c-2.7,3.3-4,8-4,14.2c0,6.1,1.3,10.8,4,14.2c2.7,3.3,6.3,5,10.8,5C489.2,616.1,492.7,614.4,495.4,611.1z"
				/>
			<path fill="#E6E6E6" d="M514.4,591.9v-7.5h5.6v-11.2h10.4v11.2h6.5v7.5h-6.5v21.2c0,1.6,0.2,2.7,0.6,3.1c0.4,0.4,1.7,0.6,3.8,0.6
				c0.3,0,0.7,0,1,0c0.4,0,0.7,0,1.1-0.1v7.8l-5,0.2c-5,0.2-8.4-0.7-10.2-2.6c-1.2-1.2-1.8-3.1-1.8-5.6v-24.7H514.4z"/>
			<path fill="#E6E6E6" d="M539.5,591.9v-7.5h5.6v-11.2h10.4v11.2h6.5v7.5h-6.5v21.2c0,1.6,0.2,2.7,0.6,3.1c0.4,0.4,1.7,0.6,3.8,0.6
				c0.3,0,0.7,0,1,0c0.4,0,0.7,0,1.1-0.1v7.8l-5,0.2c-5,0.2-8.4-0.7-10.2-2.6c-1.2-1.2-1.8-3.1-1.8-5.6v-24.7H539.5z"/>
			<path fill="#E6E6E6" d="M602.3,619.3c-3.4,4.2-8.5,6.3-15.4,6.3s-12-2.1-15.4-6.3c-3.4-4.2-5.1-9.2-5.1-15.1
				c0-5.8,1.7-10.8,5.1-15.1c3.4-4.2,8.5-6.4,15.4-6.4s12.1,2.1,15.4,6.4c3.4,4.2,5.1,9.3,5.1,15.1
				C607.4,610.1,605.7,615.1,602.3,619.3z M593.9,613.5c1.6-2.2,2.5-5.3,2.5-9.3s-0.8-7.1-2.5-9.3c-1.6-2.2-4-3.3-7.1-3.3
				c-3.1,0-5.4,1.1-7.1,3.3c-1.7,2.2-2.5,5.3-2.5,9.3s0.8,7.1,2.5,9.3c1.7,2.2,4,3.3,7.1,3.3C589.9,616.8,592.2,615.7,593.9,613.5z"
				/>
			<path fill="#E6E6E6" d="M649.2,588.9c3,3.8,4.5,8.7,4.5,14.7c0,6.2-1.5,11.4-4.4,15.5c-3,4.1-7.1,6.2-12.4,6.2c-3.3,0-6-0.7-8-2
				c-1.2-0.8-2.5-2.2-3.9-4.1v5h-10.4V570H625v19.3c1.3-1.9,2.8-3.3,4.4-4.3c1.9-1.2,4.3-1.8,7.3-1.8
				C642,583.2,646.2,585.1,649.2,588.9z M640.4,613.3c1.5-2.2,2.3-5.1,2.3-8.6c0-2.8-0.4-5.2-1.1-7.1c-1.4-3.5-4-5.3-7.8-5.3
				c-3.8,0-6.5,1.7-7.9,5.2c-0.7,1.8-1.1,4.2-1.1,7.1c0,3.4,0.8,6.3,2.3,8.5c1.5,2.3,3.9,3.4,7,3.4
				C636.8,616.6,638.9,615.5,640.4,613.3z"/>
			<path fill="#E6E6E6" d="M683.3,583.1c0.1,0,0.4,0,0.9,0.1v10.8c-0.7-0.1-1.3-0.1-1.8-0.1c-0.5,0-0.9,0-1.3,0
				c-4.2,0-7.1,1.4-8.5,4.1c-0.8,1.5-1.2,3.9-1.2,7.1v19.2h-10.6V584h10v7c1.6-2.7,3-4.5,4.2-5.5c2-1.6,4.5-2.5,7.7-2.5
				C683,583.1,683.2,583.1,683.3,583.1z"/>
			<path fill="#E6E6E6" d="M716.5,584.8c2.8,1.3,5.1,3.2,6.9,5.9c1.6,2.4,2.7,5.2,3.2,8.3c0.3,1.8,0.4,4.5,0.3,8h-29.3
				c0.2,4,1.6,6.9,4.2,8.5c1.6,1,3.5,1.5,5.8,1.5c2.4,0,4.3-0.6,5.8-1.8c0.8-0.7,1.5-1.6,2.2-2.8h10.7c-0.3,2.4-1.6,4.8-3.9,7.3
				c-3.6,3.9-8.6,5.9-15.1,5.9c-5.3,0-10.1-1.6-14.1-4.9c-4.1-3.3-6.1-8.7-6.1-16.1c0-7,1.8-12.3,5.5-16c3.7-3.7,8.5-5.6,14.4-5.6
				C710.6,583,713.7,583.6,716.5,584.8z M700.8,593.9c-1.5,1.5-2.4,3.6-2.8,6.2h18.1c-0.2-2.8-1.1-4.9-2.8-6.3
				c-1.7-1.4-3.8-2.2-6.2-2.2C704.4,591.6,702.3,592.4,700.8,593.9z"/>
			<path fill="#E6E6E6" d="M753.2,613.7c1.5-3.6,5-7.3,10.6-11.3c4.8-3.5,8-5.9,9.4-7.4c2.2-2.3,3.3-4.9,3.3-7.7
				c0-2.3-0.6-4.1-1.9-5.6c-1.3-1.5-3-2.2-5.4-2.2c-3.2,0-5.4,1.2-6.5,3.6c-0.7,1.4-1.1,3.6-1.2,6.6h-10.2c0.2-4.5,1-8.2,2.5-11
				c2.8-5.3,7.8-8,14.9-8c5.7,0,10.2,1.6,13.5,4.7c3.3,3.1,5,7.3,5,12.4c0,4-1.2,7.5-3.5,10.5c-1.6,2-4.1,4.3-7.6,6.8l-4.2,3
				c-2.6,1.9-4.4,3.2-5.4,4.1c-1,0.8-1.8,1.8-2.5,2.9h23.3v9.2h-36.6C750.8,620.4,751.7,616.9,753.2,613.7z"/>
			<path fill="#E6E6E6" d="M825.5,577.6c2.7,4.8,4.1,11.6,4.1,20.4c0,8.8-1.4,15.6-4.1,20.4c-2.7,4.8-7.5,7.1-14.3,7.1
				c-6.8,0-11.6-2.4-14.3-7.1c-2.7-4.8-4.1-11.6-4.1-20.4c0-8.8,1.4-15.6,4.1-20.4c2.7-4.8,7.5-7.2,14.3-7.2
				C818,570.4,822.7,572.8,825.5,577.6z M805,612.1c1,3.3,3.1,4.9,6.2,4.9c3.1,0,5.2-1.6,6.1-4.9c1-3.3,1.5-8,1.5-14.1
				c0-6.4-0.5-11.2-1.5-14.3c-1-3.1-3-4.6-6.1-4.6c-3.1,0-5.2,1.5-6.2,4.6c-1,3.1-1.5,7.9-1.5,14.3
				C803.4,604.1,803.9,608.8,805,612.1z"/>
			<path fill="#E6E6E6" d="M837.6,587.4v-7.1c3.3-0.1,5.6-0.4,6.9-0.7c2.1-0.5,3.8-1.4,5.1-2.8c0.9-1,1.6-2.2,2.1-3.8
				c0.3-1,0.4-1.7,0.4-2.1h8.8v53.4h-10.8v-36.9H837.6z"/>
			<path fill="#E6E6E6" d="M886.8,609.9c0.4,2.3,1.2,4,2.4,5.3c1.2,1.2,2.9,1.9,5.1,1.9c2.6,0,4.6-0.9,5.9-2.7c1.4-1.8,2-4.1,2-6.9
				c0-2.7-0.6-5-1.9-6.9c-1.3-1.9-3.3-2.8-6-2.8c-1.3,0-2.4,0.2-3.3,0.5c-1.6,0.6-2.9,1.7-3.7,3.3L878,601l3.7-29.5h29.4v8.9h-21.8
				l-1.9,11.7c1.6-1.1,2.9-1.8,3.8-2.1c1.5-0.6,3.4-0.8,5.6-0.8c4.4,0,8.3,1.5,11.6,4.5c3.3,3,4.9,7.3,4.9,13
				c0,4.9-1.6,9.3-4.7,13.2c-3.2,3.9-7.9,5.8-14.2,5.8c-5.1,0-9.3-1.4-12.5-4.1c-3.3-2.7-5.1-6.6-5.4-11.6H886.8z"/>
		</g>
		<g>
			<path fill="#F2F2F2" d="M5.2,739.4l2.4,0.8v-2.8h2v2.8l2.4-0.8l0.6,1.7l-2.5,0.8l1.6,2.3l-1.5,1.1l-1.6-2.2L7,745.3l-1.5-1.1
				l1.6-2.3l-2.5-0.8L5.2,739.4z"/>
			<path fill="#F2F2F2" d="M17.6,750.7c0.1,0.6,0.2,1,0.5,1.3c0.4,0.4,1.2,0.7,2.3,0.7c0.7,0,1.2-0.1,1.6-0.3
				c0.4-0.2,0.6-0.5,0.6-0.9c0-0.4-0.2-0.7-0.5-0.9s-1.5-0.5-3.5-1c-1.5-0.4-2.5-0.8-3.1-1.3c-0.6-0.5-0.9-1.3-0.9-2.3
				c0-1.2,0.5-2.2,1.4-3s2.2-1.3,3.9-1.3c1.6,0,2.9,0.3,3.9,1s1.6,1.7,1.7,3.3h-3.3c0-0.4-0.2-0.8-0.4-1c-0.4-0.5-1-0.7-1.9-0.7
				c-0.7,0-1.2,0.1-1.6,0.3c-0.3,0.2-0.5,0.5-0.5,0.8c0,0.4,0.2,0.7,0.5,0.8c0.3,0.2,1.5,0.5,3.5,0.9c1.3,0.3,2.3,0.8,3,1.4
				c0.7,0.6,1,1.4,1,2.4c0,1.3-0.5,2.3-1.4,3.1s-2.4,1.2-4.4,1.2c-2,0-3.5-0.4-4.5-1.3s-1.4-1.9-1.4-3.2H17.6z"/>
			<path fill="#F2F2F2" d="M31.8,740.4h-3.4v-3.1h3.4V740.4z M28.4,742h3.4v12.8h-3.4V742z"/>
			<path fill="#F2F2F2" d="M34.9,757.5c0.7-0.2,1.2-0.5,1.5-0.9s0.5-1.1,0.5-1.8h-2v-3.5h3.6v3c0,0.5-0.1,1.1-0.2,1.7
				s-0.4,1.1-0.8,1.5c-0.4,0.5-0.9,0.8-1.5,1s-0.9,0.3-1.2,0.3V757.5z"/>
			<path fill="#F2F2F2" d="M51.8,754.7h-3.3v-17.3h3.3V754.7z"/>
			<path fill="#F2F2F2" d="M65.7,753.2c-1.1,1.3-2.7,2-4.9,2s-3.8-0.7-4.9-2s-1.6-2.9-1.6-4.8c0-1.8,0.5-3.4,1.6-4.8
				c1.1-1.3,2.7-2,4.9-2s3.8,0.7,4.9,2c1.1,1.4,1.6,2.9,1.6,4.8C67.3,750.2,66.8,751.8,65.7,753.2z M63,751.3c0.5-0.7,0.8-1.7,0.8-3
				s-0.3-2.3-0.8-3c-0.5-0.7-1.3-1-2.2-1s-1.7,0.3-2.3,1c-0.5,0.7-0.8,1.7-0.8,3s0.3,2.3,0.8,3s1.3,1,2.3,1S62.5,752,63,751.3z"/>
			<path fill="#F2F2F2" d="M79,750.7c0.1,0.6,0.2,1,0.5,1.3c0.4,0.4,1.2,0.7,2.3,0.7c0.7,0,1.2-0.1,1.6-0.3c0.4-0.2,0.6-0.5,0.6-0.9
				c0-0.4-0.2-0.7-0.5-0.9s-1.5-0.5-3.5-1c-1.5-0.4-2.5-0.8-3.1-1.3c-0.6-0.5-0.9-1.3-0.9-2.3c0-1.2,0.5-2.2,1.4-3s2.2-1.3,3.9-1.3
				c1.6,0,2.9,0.3,3.9,1s1.6,1.7,1.7,3.3h-3.3c0-0.4-0.2-0.8-0.4-1c-0.4-0.5-1-0.7-1.9-0.7c-0.7,0-1.2,0.1-1.6,0.3
				c-0.3,0.2-0.5,0.5-0.5,0.8c0,0.4,0.2,0.7,0.5,0.8c0.3,0.2,1.5,0.5,3.5,0.9c1.3,0.3,2.3,0.8,3,1.4c0.7,0.6,1,1.4,1,2.4
				c0,1.3-0.5,2.3-1.4,3.1s-2.4,1.2-4.4,1.2c-2,0-3.5-0.4-4.5-1.3s-1.4-1.9-1.4-3.2H79z"/>
			<path fill="#F2F2F2" d="M94.8,747c0.6-0.1,1.1-0.2,1.3-0.3c0.5-0.2,0.7-0.5,0.7-0.9c0-0.5-0.2-0.9-0.6-1.1
				c-0.4-0.2-0.9-0.3-1.6-0.3c-0.8,0-1.4,0.2-1.7,0.6c-0.2,0.3-0.4,0.7-0.5,1.2h-3.2c0.1-1.1,0.4-2,0.9-2.8c0.9-1.1,2.4-1.7,4.6-1.7
				c1.4,0,2.7,0.3,3.7,0.8c1.1,0.6,1.6,1.6,1.6,3.1v5.9c0,0.4,0,0.9,0,1.5c0,0.4,0.1,0.7,0.2,0.9s0.3,0.3,0.5,0.4v0.5h-3.6
				c-0.1-0.3-0.2-0.5-0.2-0.7s-0.1-0.5-0.1-0.8c-0.5,0.5-1,0.9-1.6,1.3c-0.7,0.4-1.5,0.6-2.5,0.6c-1.2,0-2.1-0.3-2.9-1
				c-0.8-0.7-1.1-1.6-1.1-2.8c0-1.6,0.6-2.7,1.8-3.4c0.7-0.4,1.7-0.7,3-0.8L94.8,747z M96.8,748.5c-0.2,0.1-0.4,0.2-0.6,0.3
				c-0.2,0.1-0.5,0.2-0.9,0.2l-0.8,0.1c-0.7,0.1-1.2,0.3-1.5,0.5c-0.5,0.3-0.8,0.8-0.8,1.4c0,0.6,0.2,1,0.5,1.2s0.7,0.4,1.2,0.4
				c0.7,0,1.4-0.2,2-0.6s0.9-1.2,1-2.3V748.5z"/>
			<path fill="#F2F2F2" d="M113.8,743.3c1,1.1,1.6,2.7,1.6,4.9c0,2.2-0.5,4-1.5,5.1c-1,1.2-2.3,1.8-3.9,1.8c-1,0-1.9-0.3-2.5-0.8
				c-0.4-0.3-0.7-0.7-1.1-1.2v6.7H103V742h3.2v1.9c0.4-0.6,0.7-1,1.2-1.3c0.7-0.6,1.6-0.9,2.7-0.9
				C111.5,741.7,112.8,742.2,113.8,743.3z M111.3,745.7c-0.5-0.8-1.2-1.1-2.2-1.1c-1.2,0-2.1,0.6-2.5,1.7c-0.2,0.6-0.4,1.4-0.4,2.3
				c0,1.5,0.4,2.5,1.2,3.1c0.5,0.4,1,0.5,1.7,0.5c0.9,0,1.7-0.4,2.1-1.1s0.7-1.7,0.7-2.9C111.9,747.4,111.7,746.5,111.3,745.7z"/>
			<path fill="#F2F2F2" d="M128.5,743.3c1,1.1,1.6,2.7,1.6,4.9c0,2.2-0.5,4-1.5,5.1c-1,1.2-2.3,1.8-3.9,1.8c-1,0-1.9-0.3-2.5-0.8
				c-0.4-0.3-0.7-0.7-1.1-1.2v6.7h-3.3V742h3.2v1.9c0.4-0.6,0.7-1,1.2-1.3c0.7-0.6,1.6-0.9,2.7-0.9
				C126.2,741.7,127.4,742.2,128.5,743.3z M125.9,745.7c-0.5-0.8-1.2-1.1-2.2-1.1c-1.2,0-2.1,0.6-2.5,1.7c-0.2,0.6-0.4,1.4-0.4,2.3
				c0,1.5,0.4,2.5,1.2,3.1c0.5,0.4,1,0.5,1.7,0.5c0.9,0,1.7-0.4,2.1-1.1s0.7-1.7,0.7-2.9C126.6,747.4,126.4,746.5,125.9,745.7z"/>
			<path fill="#F2F2F2" d="M135.8,740.4h-3.4v-3.1h3.4V740.4z M132.4,742h3.4v12.8h-3.4V742z"/>
			<path fill="#F2F2F2" d="M144.1,747c0.6-0.1,1.1-0.2,1.3-0.3c0.5-0.2,0.7-0.5,0.7-0.9c0-0.5-0.2-0.9-0.6-1.1
				c-0.4-0.2-0.9-0.3-1.6-0.3c-0.8,0-1.4,0.2-1.7,0.6c-0.2,0.3-0.4,0.7-0.5,1.2h-3.2c0.1-1.1,0.4-2,0.9-2.8c0.9-1.1,2.4-1.7,4.6-1.7
				c1.4,0,2.7,0.3,3.7,0.8c1.1,0.6,1.6,1.6,1.6,3.1v5.9c0,0.4,0,0.9,0,1.5c0,0.4,0.1,0.7,0.2,0.9s0.3,0.3,0.5,0.4v0.5h-3.6
				c-0.1-0.3-0.2-0.5-0.2-0.7s-0.1-0.5-0.1-0.8c-0.5,0.5-1,0.9-1.6,1.3c-0.7,0.4-1.5,0.6-2.5,0.6c-1.2,0-2.1-0.3-2.9-1
				c-0.8-0.7-1.1-1.6-1.1-2.8c0-1.6,0.6-2.7,1.8-3.4c0.7-0.4,1.7-0.7,3-0.8L144.1,747z M146.2,748.5c-0.2,0.1-0.4,0.2-0.6,0.3
				c-0.2,0.1-0.5,0.2-0.9,0.2l-0.8,0.1c-0.7,0.1-1.2,0.3-1.5,0.5c-0.5,0.3-0.8,0.8-0.8,1.4c0,0.6,0.2,1,0.5,1.2s0.7,0.4,1.2,0.4
				c0.7,0,1.4-0.2,2-0.6s0.9-1.2,1-2.3V748.5z"/>
			<path fill="#F2F2F2" d="M168.4,742c0.5,0.2,1,0.6,1.5,1.1c0.4,0.4,0.6,1,0.7,1.6c0.1,0.4,0.1,1.1,0.1,1.9l0,8.1h-3.4v-8.1
				c0-0.5-0.1-0.9-0.2-1.2c-0.3-0.6-0.8-0.9-1.6-0.9c-0.9,0-1.6,0.4-1.9,1.1c-0.2,0.4-0.3,0.9-0.3,1.5v7.6h-3.4v-7.6
				c0-0.8-0.1-1.3-0.2-1.7c-0.3-0.6-0.8-0.9-1.7-0.9c-1,0-1.6,0.3-1.9,0.9c-0.2,0.4-0.3,0.9-0.3,1.6v7.7h-3.4V742h3.2v1.9
				c0.4-0.7,0.8-1.1,1.2-1.4c0.6-0.5,1.5-0.8,2.5-0.8c1,0,1.8,0.2,2.4,0.6c0.5,0.4,0.9,0.9,1.1,1.5c0.4-0.8,1-1.3,1.6-1.7
				c0.7-0.4,1.5-0.5,2.3-0.5C167.3,741.7,167.8,741.8,168.4,742z"/>
			<path fill="#F2F2F2" d="M184.4,753.2c-1.1,1.3-2.7,2-4.9,2s-3.8-0.7-4.9-2s-1.6-2.9-1.6-4.8c0-1.8,0.5-3.4,1.6-4.8
				c1.1-1.3,2.7-2,4.9-2s3.8,0.7,4.9,2c1.1,1.4,1.6,2.9,1.6,4.8C186,750.2,185.5,751.8,184.4,753.2z M181.7,751.3
				c0.5-0.7,0.8-1.7,0.8-3s-0.3-2.3-0.8-3c-0.5-0.7-1.3-1-2.2-1s-1.7,0.3-2.3,1c-0.5,0.7-0.8,1.7-0.8,3s0.3,2.3,0.8,3s1.3,1,2.3,1
				S181.2,752,181.7,751.3z"/>
			<path fill="#F2F2F2" d="M202.7,746.5c-0.1-0.5-0.2-0.9-0.5-1.3c-0.4-0.5-1-0.8-1.8-0.8c-1.1,0-1.9,0.6-2.3,1.7
				c-0.2,0.6-0.3,1.4-0.3,2.4c0,0.9,0.1,1.7,0.3,2.3c0.4,1.1,1.2,1.6,2.3,1.6c0.8,0,1.3-0.2,1.7-0.6s0.5-1,0.6-1.6h3.4
				c-0.1,1-0.4,2-1.1,2.9c-1,1.5-2.6,2.2-4.7,2.2s-3.6-0.6-4.5-1.8s-1.5-2.8-1.5-4.7c0-2.2,0.5-3.9,1.6-5.1s2.5-1.8,4.4-1.8
				c1.6,0,2.9,0.4,3.9,1.1s1.6,2,1.8,3.8H202.7z"/>
			<path fill="#F2F2F2" d="M217.6,742c0.6,0.3,1.2,0.7,1.6,1.3c0.3,0.5,0.6,1,0.6,1.5c0.1,0.5,0.1,1.3,0.1,2.5v7.5h-3.4V747
				c0-0.7-0.1-1.2-0.3-1.7c-0.3-0.6-0.9-0.9-1.7-0.9c-0.9,0-1.5,0.3-2,0.9c-0.5,0.6-0.7,1.4-0.7,2.5v6.9h-3.3v-17.2h3.3v6.1
				c0.5-0.7,1-1.3,1.7-1.6s1.3-0.4,2-0.4C216.3,741.6,217,741.8,217.6,742z"/>
			<path fill="#F2F2F2" d="M231.4,742.2c0.9,0.4,1.6,1,2.2,1.9c0.5,0.8,0.9,1.6,1,2.6c0.1,0.6,0.1,1.4,0.1,2.5h-9.3
				c0.1,1.3,0.5,2.2,1.3,2.7c0.5,0.3,1.1,0.5,1.8,0.5c0.8,0,1.4-0.2,1.9-0.6c0.3-0.2,0.5-0.5,0.7-0.9h3.4c-0.1,0.8-0.5,1.5-1.2,2.3
				c-1.1,1.2-2.7,1.9-4.8,1.9c-1.7,0-3.2-0.5-4.5-1.6c-1.3-1-1.9-2.8-1.9-5.1c0-2.2,0.6-3.9,1.8-5.1c1.2-1.2,2.7-1.8,4.6-1.8
				C229.5,741.6,230.5,741.8,231.4,742.2z M226.4,745.1c-0.5,0.5-0.8,1.1-0.9,2h5.8c-0.1-0.9-0.4-1.6-0.9-2c-0.5-0.5-1.2-0.7-2-0.7
				C227.6,744.4,226.9,744.6,226.4,745.1z"/>
			<path fill="#F2F2F2" d="M243.2,741.4c0-1.2,0.3-2.1,0.8-2.8s1.4-1.1,2.4-1.3v1.2c-0.8,0.2-1.3,0.7-1.6,1.3
				c-0.1,0.3-0.2,0.7-0.2,1h1.8v3.1h-3.3V741.4z M248.7,741.4c0-1.2,0.3-2.1,0.9-2.8s1.4-1.1,2.4-1.3v1.2c-0.8,0.2-1.3,0.7-1.6,1.3
				c-0.2,0.3-0.2,0.7-0.2,1h1.8v3.1h-3.3V741.4z"/>
			<path fill="#F2F2F2" d="M265.4,742.7c0.8,0.7,1.3,1.8,1.3,3.4v8.6h-3.4V747c0-0.7-0.1-1.2-0.3-1.5c-0.3-0.7-0.9-1-1.9-1
				c-1.1,0-1.9,0.5-2.3,1.4c-0.2,0.5-0.3,1.2-0.3,1.9v6.9h-3.3V742h3.2v1.9c0.4-0.7,0.8-1.1,1.2-1.4c0.7-0.5,1.6-0.8,2.6-0.8
				C263.5,741.7,264.6,742,265.4,742.7z"/>
			<path fill="#F2F2F2" d="M278.1,742.2c0.9,0.4,1.6,1,2.2,1.9c0.5,0.8,0.9,1.6,1,2.6c0.1,0.6,0.1,1.4,0.1,2.5h-9.3
				c0.1,1.3,0.5,2.2,1.3,2.7c0.5,0.3,1.1,0.5,1.8,0.5c0.8,0,1.4-0.2,1.9-0.6c0.3-0.2,0.5-0.5,0.7-0.9h3.4c-0.1,0.8-0.5,1.5-1.2,2.3
				c-1.1,1.2-2.7,1.9-4.8,1.9c-1.7,0-3.2-0.5-4.5-1.6c-1.3-1-1.9-2.8-1.9-5.1c0-2.2,0.6-3.9,1.8-5.1c1.2-1.2,2.7-1.8,4.6-1.8
				C276.2,741.6,277.2,741.8,278.1,742.2z M273.1,745.1c-0.5,0.5-0.8,1.1-0.9,2h5.8c-0.1-0.9-0.4-1.6-0.9-2c-0.5-0.5-1.2-0.7-2-0.7
				C274.2,744.4,273.6,744.6,273.1,745.1z"/>
			<path fill="#F2F2F2" d="M296.6,742.2c0.6,0.3,1.1,0.8,1.5,1.4v-6.1h3.4v17.2h-3.2V753c-0.5,0.8-1,1.3-1.6,1.7s-1.4,0.5-2.3,0.5
				c-1.5,0-2.7-0.6-3.8-1.8s-1.5-2.8-1.5-4.6c0-2.2,0.5-3.9,1.5-5.1s2.3-1.9,4-1.9C295.3,741.7,296,741.8,296.6,742.2z M297.4,751.3
				c0.5-0.7,0.7-1.6,0.7-2.7c0-1.6-0.4-2.7-1.2-3.4c-0.5-0.4-1-0.6-1.7-0.6c-1,0-1.7,0.4-2.2,1.1s-0.7,1.7-0.7,2.7
				c0,1.2,0.2,2.1,0.7,2.8s1.2,1.1,2.1,1.1S296.9,752,297.4,751.3z"/>
			<path fill="#F2F2F2" d="M307.9,740.4h-3.4v-3.1h3.4V740.4z M304.5,742h3.4v12.8h-3.4V742z"/>
			<path fill="#F2F2F2" d="M325.6,742h3.6l-4.6,12.8h-3.5l-4.6-12.8h3.8l2.7,9.4L325.6,742z"/>
			<path fill="#F2F2F2" d="M339.5,742.2c0.9,0.4,1.6,1,2.2,1.9c0.5,0.8,0.9,1.6,1,2.6c0.1,0.6,0.1,1.4,0.1,2.5h-9.3
				c0.1,1.3,0.5,2.2,1.3,2.7c0.5,0.3,1.1,0.5,1.8,0.5c0.8,0,1.4-0.2,1.9-0.6c0.3-0.2,0.5-0.5,0.7-0.9h3.4c-0.1,0.8-0.5,1.5-1.2,2.3
				c-1.1,1.2-2.7,1.9-4.8,1.9c-1.7,0-3.2-0.5-4.5-1.6c-1.3-1-1.9-2.8-1.9-5.1c0-2.2,0.6-3.9,1.8-5.1c1.2-1.2,2.7-1.8,4.6-1.8
				C337.6,741.6,338.6,741.8,339.5,742.2z M334.5,745.1c-0.5,0.5-0.8,1.1-0.9,2h5.8c-0.1-0.9-0.4-1.6-0.9-2c-0.5-0.5-1.2-0.7-2-0.7
				C335.6,744.4,334.9,744.6,334.5,745.1z"/>
			<path fill="#F2F2F2" d="M354.8,742.7c0.8,0.7,1.3,1.8,1.3,3.4v8.6h-3.4V747c0-0.7-0.1-1.2-0.3-1.5c-0.3-0.7-0.9-1-1.9-1
				c-1.1,0-1.9,0.5-2.3,1.4c-0.2,0.5-0.3,1.2-0.3,1.9v6.9h-3.3V742h3.2v1.9c0.4-0.7,0.8-1.1,1.2-1.4c0.7-0.5,1.6-0.8,2.6-0.8
				C352.9,741.7,353.9,742,354.8,742.7z"/>
			<path fill="#F2F2F2" d="M367.5,742.2c0.9,0.4,1.6,1,2.2,1.9c0.5,0.8,0.9,1.6,1,2.6c0.1,0.6,0.1,1.4,0.1,2.5h-9.3
				c0.1,1.3,0.5,2.2,1.3,2.7c0.5,0.3,1.1,0.5,1.8,0.5c0.8,0,1.4-0.2,1.9-0.6c0.3-0.2,0.5-0.5,0.7-0.9h3.4c-0.1,0.8-0.5,1.5-1.2,2.3
				c-1.1,1.2-2.7,1.9-4.8,1.9c-1.7,0-3.2-0.5-4.5-1.6c-1.3-1-1.9-2.8-1.9-5.1c0-2.2,0.6-3.9,1.8-5.1c1.2-1.2,2.7-1.8,4.6-1.8
				C365.6,741.6,366.6,741.8,367.5,742.2z M362.5,745.1c-0.5,0.5-0.8,1.1-0.9,2h5.8c-0.1-0.9-0.4-1.6-0.9-2c-0.5-0.5-1.2-0.7-2-0.7
				C363.6,744.4,362.9,744.6,362.5,745.1z"/>
			<path fill="#F2F2F2" d="M379.6,741.7c0,0,0.1,0,0.3,0v3.4c-0.2,0-0.4,0-0.6,0s-0.3,0-0.4,0c-1.3,0-2.2,0.4-2.7,1.3
				c-0.3,0.5-0.4,1.2-0.4,2.3v6.1h-3.4V742h3.2v2.2c0.5-0.9,1-1.4,1.3-1.7c0.6-0.5,1.4-0.8,2.4-0.8
				C379.5,741.7,379.5,741.7,379.6,741.7z"/>
			<path fill="#F2F2F2" d="M390.1,742.2c0.9,0.4,1.6,1,2.2,1.9c0.5,0.8,0.9,1.6,1,2.6c0.1,0.6,0.1,1.4,0.1,2.5h-9.3
				c0.1,1.3,0.5,2.2,1.3,2.7c0.5,0.3,1.1,0.5,1.8,0.5c0.8,0,1.4-0.2,1.9-0.6c0.3-0.2,0.5-0.5,0.7-0.9h3.4c-0.1,0.8-0.5,1.5-1.2,2.3
				c-1.1,1.2-2.7,1.9-4.8,1.9c-1.7,0-3.2-0.5-4.5-1.6c-1.3-1-1.9-2.8-1.9-5.1c0-2.2,0.6-3.9,1.8-5.1c1.2-1.2,2.7-1.8,4.6-1.8
				C388.3,741.6,389.3,741.8,390.1,742.2z M385.1,745.1c-0.5,0.5-0.8,1.1-0.9,2h5.8c-0.1-0.9-0.4-1.6-0.9-2c-0.5-0.5-1.2-0.7-2-0.7
				C386.3,744.4,385.6,744.6,385.1,745.1z"/>
			<path fill="#F2F2F2" d="M412.1,742.7c0.8,0.7,1.3,1.8,1.3,3.4v8.6H410V747c0-0.7-0.1-1.2-0.3-1.5c-0.3-0.7-0.9-1-1.9-1
				c-1.1,0-1.9,0.5-2.3,1.4c-0.2,0.5-0.3,1.2-0.3,1.9v6.9h-3.3V742h3.2v1.9c0.4-0.7,0.8-1.1,1.2-1.4c0.7-0.5,1.6-0.8,2.6-0.8
				C410.2,741.7,411.3,742,412.1,742.7z"/>
			<path fill="#F2F2F2" d="M424.8,742.2c0.9,0.4,1.6,1,2.2,1.9c0.5,0.8,0.9,1.6,1,2.6c0.1,0.6,0.1,1.4,0.1,2.5h-9.3
				c0.1,1.3,0.5,2.2,1.3,2.7c0.5,0.3,1.1,0.5,1.8,0.5c0.8,0,1.4-0.2,1.9-0.6c0.3-0.2,0.5-0.5,0.7-0.9h3.4c-0.1,0.8-0.5,1.5-1.2,2.3
				c-1.1,1.2-2.7,1.9-4.8,1.9c-1.7,0-3.2-0.5-4.5-1.6c-1.3-1-1.9-2.8-1.9-5.1c0-2.2,0.6-3.9,1.8-5.1c1.2-1.2,2.7-1.8,4.6-1.8
				C422.9,741.6,423.9,741.8,424.8,742.2z M419.8,745.1c-0.5,0.5-0.8,1.1-0.9,2h5.8c-0.1-0.9-0.4-1.6-0.9-2c-0.5-0.5-1.2-0.7-2-0.7
				C421,744.4,420.3,744.6,419.8,745.1z"/>
			<path fill="#F2F2F2" d="M443.3,742.2c0.6,0.3,1.1,0.8,1.5,1.4v-6.1h3.4v17.2h-3.2V753c-0.5,0.8-1,1.3-1.6,1.7s-1.4,0.5-2.3,0.5
				c-1.5,0-2.7-0.6-3.8-1.8s-1.5-2.8-1.5-4.6c0-2.2,0.5-3.9,1.5-5.1s2.3-1.9,4-1.9C442,741.7,442.7,741.8,443.3,742.2z M444.1,751.3
				c0.5-0.7,0.7-1.6,0.7-2.7c0-1.6-0.4-2.7-1.2-3.4c-0.5-0.4-1-0.6-1.7-0.6c-1,0-1.7,0.4-2.2,1.1s-0.7,1.7-0.7,2.7
				c0,1.2,0.2,2.1,0.7,2.8s1.2,1.1,2.1,1.1S443.6,752,444.1,751.3z"/>
			<path fill="#F2F2F2" d="M454.6,740.4h-3.4v-3.1h3.4V740.4z M451.2,742h3.4v12.8h-3.4V742z"/>
			<path fill="#F2F2F2" d="M480.4,742c0.5,0.2,1,0.6,1.5,1.1c0.4,0.4,0.6,1,0.7,1.6c0.1,0.4,0.1,1.1,0.1,1.9l0,8.1h-3.4v-8.1
				c0-0.5-0.1-0.9-0.2-1.2c-0.3-0.6-0.8-0.9-1.6-0.9c-0.9,0-1.6,0.4-1.9,1.1c-0.2,0.4-0.3,0.9-0.3,1.5v7.6h-3.4v-7.6
				c0-0.8-0.1-1.3-0.2-1.7c-0.3-0.6-0.8-0.9-1.7-0.9c-1,0-1.6,0.3-1.9,0.9c-0.2,0.4-0.3,0.9-0.3,1.6v7.7h-3.4V742h3.2v1.9
				c0.4-0.7,0.8-1.1,1.2-1.4c0.6-0.5,1.5-0.8,2.5-0.8c1,0,1.8,0.2,2.4,0.6c0.5,0.4,0.9,0.9,1.1,1.5c0.4-0.8,1-1.3,1.6-1.7
				c0.7-0.4,1.5-0.5,2.3-0.5C479.3,741.7,479.9,741.8,480.4,742z"/>
			<path fill="#F2F2F2" d="M490.9,747c0.6-0.1,1.1-0.2,1.3-0.3c0.5-0.2,0.7-0.5,0.7-0.9c0-0.5-0.2-0.9-0.6-1.1s-0.9-0.3-1.6-0.3
				c-0.8,0-1.4,0.2-1.7,0.6c-0.2,0.3-0.4,0.7-0.5,1.2h-3.2c0.1-1.1,0.4-2,0.9-2.8c0.9-1.1,2.4-1.7,4.6-1.7c1.4,0,2.7,0.3,3.7,0.8
				s1.6,1.6,1.6,3.1v5.9c0,0.4,0,0.9,0,1.5c0,0.4,0.1,0.7,0.2,0.9s0.3,0.3,0.5,0.4v0.5h-3.6c-0.1-0.3-0.2-0.5-0.2-0.7
				s-0.1-0.5-0.1-0.8c-0.5,0.5-1,0.9-1.6,1.3c-0.7,0.4-1.5,0.6-2.5,0.6c-1.2,0-2.1-0.3-2.9-1c-0.8-0.7-1.1-1.6-1.1-2.8
				c0-1.6,0.6-2.7,1.8-3.4c0.7-0.4,1.7-0.7,3-0.8L490.9,747z M493,748.5c-0.2,0.1-0.4,0.2-0.6,0.3s-0.5,0.2-0.9,0.2l-0.8,0.1
				c-0.7,0.1-1.2,0.3-1.5,0.5c-0.5,0.3-0.8,0.8-0.8,1.4c0,0.6,0.2,1,0.5,1.2c0.3,0.3,0.7,0.4,1.2,0.4c0.7,0,1.4-0.2,2-0.6
				s0.9-1.2,1-2.3V748.5z"/>
			<path fill="#F2F2F2" d="M506.3,741.7c0,0,0.1,0,0.3,0v3.4c-0.2,0-0.4,0-0.6,0s-0.3,0-0.4,0c-1.3,0-2.2,0.4-2.7,1.3
				c-0.3,0.5-0.4,1.2-0.4,2.3v6.1h-3.4V742h3.2v2.2c0.5-0.9,1-1.4,1.3-1.7c0.6-0.5,1.4-0.8,2.4-0.8
				C506.2,741.7,506.2,741.7,506.3,741.7z"/>
			<path fill="#F2F2F2" d="M507.2,744.5v-2.4h1.8v-3.6h3.3v3.6h2.1v2.4h-2.1v6.8c0,0.5,0.1,0.8,0.2,1s0.5,0.2,1.2,0.2
				c0.1,0,0.2,0,0.3,0s0.2,0,0.3,0v2.5l-1.6,0.1c-1.6,0.1-2.7-0.2-3.2-0.8c-0.4-0.4-0.6-1-0.6-1.8v-7.9H507.2z"/>
			<path fill="#F2F2F2" d="M524.9,742.2c0.9,0.4,1.6,1,2.2,1.9c0.5,0.8,0.9,1.6,1,2.6c0.1,0.6,0.1,1.4,0.1,2.5h-9.3
				c0.1,1.3,0.5,2.2,1.3,2.7c0.5,0.3,1.1,0.5,1.8,0.5c0.8,0,1.4-0.2,1.9-0.6c0.3-0.2,0.5-0.5,0.7-0.9h3.4c-0.1,0.8-0.5,1.5-1.2,2.3
				c-1.1,1.2-2.7,1.9-4.8,1.9c-1.7,0-3.2-0.5-4.5-1.6s-1.9-2.8-1.9-5.1c0-2.2,0.6-3.9,1.8-5.1s2.7-1.8,4.6-1.8
				C523,741.6,524,741.8,524.9,742.2z M519.9,745.1c-0.5,0.5-0.8,1.1-0.9,2h5.8c-0.1-0.9-0.4-1.6-0.9-2s-1.2-0.7-2-0.7
				C521,744.4,520.3,744.6,519.9,745.1z"/>
			<path fill="#F2F2F2" d="M530.1,742.9c0.8-0.2,1.3-0.7,1.6-1.3c0.1-0.3,0.2-0.6,0.2-1h-1.8v-3.1h3.3v2.5c0,1.1-0.3,2.1-0.8,2.8
				s-1.4,1.1-2.4,1.3V742.9z M535.7,742.9c0.8-0.2,1.3-0.7,1.6-1.3c0.1-0.3,0.2-0.6,0.2-0.9h-1.8v-3.1h3.3v2.5c0,1.1-0.3,2-0.8,2.7
				s-1.4,1.2-2.5,1.4V742.9z"/>
			<path fill="#F2F2F2" d="M564.5,742c0.5,0.2,1,0.6,1.5,1.1c0.4,0.4,0.6,1,0.7,1.6c0.1,0.4,0.1,1.1,0.1,1.9l0,8.1h-3.4v-8.1
				c0-0.5-0.1-0.9-0.2-1.2c-0.3-0.6-0.8-0.9-1.6-0.9c-0.9,0-1.6,0.4-1.9,1.1c-0.2,0.4-0.3,0.9-0.3,1.5v7.6H556v-7.6
				c0-0.8-0.1-1.3-0.2-1.7c-0.3-0.6-0.8-0.9-1.7-0.9c-1,0-1.6,0.3-1.9,0.9c-0.2,0.4-0.3,0.9-0.3,1.6v7.7h-3.4V742h3.2v1.9
				c0.4-0.7,0.8-1.1,1.2-1.4c0.6-0.5,1.5-0.8,2.5-0.8c1,0,1.8,0.2,2.4,0.6c0.5,0.4,0.9,0.9,1.1,1.5c0.4-0.8,1-1.3,1.6-1.7
				c0.7-0.4,1.5-0.5,2.3-0.5C563.4,741.7,563.9,741.8,564.5,742z"/>
			<path fill="#F2F2F2" d="M574.9,747c0.6-0.1,1.1-0.2,1.3-0.3c0.5-0.2,0.7-0.5,0.7-0.9c0-0.5-0.2-0.9-0.6-1.1s-0.9-0.3-1.6-0.3
				c-0.8,0-1.4,0.2-1.7,0.6c-0.2,0.3-0.4,0.7-0.5,1.2h-3.2c0.1-1.1,0.4-2,0.9-2.8c0.9-1.1,2.4-1.7,4.6-1.7c1.4,0,2.7,0.3,3.7,0.8
				s1.6,1.6,1.6,3.1v5.9c0,0.4,0,0.9,0,1.5c0,0.4,0.1,0.7,0.2,0.9s0.3,0.3,0.5,0.4v0.5h-3.6c-0.1-0.3-0.2-0.5-0.2-0.7
				s-0.1-0.5-0.1-0.8c-0.5,0.5-1,0.9-1.6,1.3c-0.7,0.4-1.5,0.6-2.5,0.6c-1.2,0-2.1-0.3-2.9-1c-0.8-0.7-1.1-1.6-1.1-2.8
				c0-1.6,0.6-2.7,1.8-3.4c0.7-0.4,1.7-0.7,3-0.8L574.9,747z M577,748.5c-0.2,0.1-0.4,0.2-0.6,0.3s-0.5,0.2-0.9,0.2l-0.8,0.1
				c-0.7,0.1-1.2,0.3-1.5,0.5c-0.5,0.3-0.8,0.8-0.8,1.4c0,0.6,0.2,1,0.5,1.2c0.3,0.3,0.7,0.4,1.2,0.4c0.7,0,1.4-0.2,2-0.6
				s0.9-1.2,1-2.3V748.5z"/>
			<path fill="#F2F2F2" d="M597.5,746.5c-0.1-0.5-0.2-0.9-0.5-1.3c-0.4-0.5-1-0.8-1.8-0.8c-1.1,0-1.9,0.6-2.3,1.7
				c-0.2,0.6-0.3,1.4-0.3,2.4c0,0.9,0.1,1.7,0.3,2.3c0.4,1.1,1.2,1.6,2.3,1.6c0.8,0,1.3-0.2,1.7-0.6c0.3-0.4,0.5-1,0.6-1.6h3.4
				c-0.1,1-0.4,2-1.1,2.9c-1,1.5-2.6,2.2-4.7,2.2s-3.6-0.6-4.5-1.8c-1-1.2-1.5-2.8-1.5-4.7c0-2.2,0.5-3.9,1.6-5.1
				c1.1-1.2,2.5-1.8,4.4-1.8c1.6,0,2.9,0.4,3.9,1.1s1.6,2,1.8,3.8H597.5z"/>
			<path fill="#F2F2F2" d="M606.7,740.4h-3.4v-3.1h3.4V740.4z M603.3,742h3.4v12.8h-3.4V742z"/>
			<path fill="#F2F2F2" d="M627.3,743.3c1,1.1,1.6,2.7,1.6,4.9c0,2.2-0.5,4-1.5,5.1s-2.3,1.8-3.9,1.8c-1,0-1.9-0.3-2.5-0.8
				c-0.4-0.3-0.7-0.7-1.1-1.2v6.7h-3.3V742h3.2v1.9c0.4-0.6,0.7-1,1.2-1.3c0.7-0.6,1.6-0.9,2.7-0.9
				C625,741.7,626.3,742.2,627.3,743.3z M624.8,745.7c-0.5-0.8-1.2-1.1-2.2-1.1c-1.2,0-2.1,0.6-2.5,1.7c-0.2,0.6-0.4,1.4-0.4,2.3
				c0,1.5,0.4,2.5,1.2,3.1c0.5,0.4,1,0.5,1.7,0.5c0.9,0,1.7-0.4,2.1-1.1s0.7-1.7,0.7-2.9C625.4,747.4,625.2,746.5,624.8,745.7z"/>
			<path fill="#F2F2F2" d="M634.7,740.4h-3.4v-3.1h3.4V740.4z M631.3,742h3.4v12.8h-3.4V742z"/>
			<path fill="#F2F2F2" d="M643,747c0.6-0.1,1.1-0.2,1.3-0.3c0.5-0.2,0.7-0.5,0.7-0.9c0-0.5-0.2-0.9-0.6-1.1s-0.9-0.3-1.6-0.3
				c-0.8,0-1.4,0.2-1.7,0.6c-0.2,0.3-0.4,0.7-0.5,1.2h-3.2c0.1-1.1,0.4-2,0.9-2.8c0.9-1.1,2.4-1.7,4.6-1.7c1.4,0,2.7,0.3,3.7,0.8
				s1.6,1.6,1.6,3.1v5.9c0,0.4,0,0.9,0,1.5c0,0.4,0.1,0.7,0.2,0.9s0.3,0.3,0.5,0.4v0.5h-3.6c-0.1-0.3-0.2-0.5-0.2-0.7
				s-0.1-0.5-0.1-0.8c-0.5,0.5-1,0.9-1.6,1.3c-0.7,0.4-1.5,0.6-2.5,0.6c-1.2,0-2.1-0.3-2.9-1c-0.8-0.7-1.1-1.6-1.1-2.8
				c0-1.6,0.6-2.7,1.8-3.4c0.7-0.4,1.7-0.7,3-0.8L643,747z M645,748.5c-0.2,0.1-0.4,0.2-0.6,0.3s-0.5,0.2-0.9,0.2l-0.8,0.1
				c-0.7,0.1-1.2,0.3-1.5,0.5c-0.5,0.3-0.8,0.8-0.8,1.4c0,0.6,0.2,1,0.5,1.2c0.3,0.3,0.7,0.4,1.2,0.4c0.7,0,1.4-0.2,2-0.6
				s0.9-1.2,1-2.3V748.5z"/>
			<path fill="#F2F2F2" d="M658.9,746.5c-0.1-0.5-0.2-0.9-0.5-1.3c-0.4-0.5-1-0.8-1.8-0.8c-1.1,0-1.9,0.6-2.3,1.7
				c-0.2,0.6-0.3,1.4-0.3,2.4c0,0.9,0.1,1.7,0.3,2.3c0.4,1.1,1.2,1.6,2.3,1.6c0.8,0,1.3-0.2,1.7-0.6c0.3-0.4,0.5-1,0.6-1.6h3.4
				c-0.1,1-0.4,2-1.1,2.9c-1,1.5-2.6,2.2-4.7,2.2s-3.6-0.6-4.5-1.8c-1-1.2-1.5-2.8-1.5-4.7c0-2.2,0.5-3.9,1.6-5.1
				c1.1-1.2,2.5-1.8,4.4-1.8c1.6,0,2.9,0.4,3.9,1.1s1.6,2,1.8,3.8H658.9z"/>
			<path fill="#F2F2F2" d="M672.9,742.2c0.9,0.4,1.6,1,2.2,1.9c0.5,0.8,0.9,1.6,1,2.6c0.1,0.6,0.1,1.4,0.1,2.5H667
				c0.1,1.3,0.5,2.2,1.3,2.7c0.5,0.3,1.1,0.5,1.8,0.5c0.8,0,1.4-0.2,1.9-0.6c0.3-0.2,0.5-0.5,0.7-0.9h3.4c-0.1,0.8-0.5,1.5-1.2,2.3
				c-1.1,1.2-2.7,1.9-4.8,1.9c-1.7,0-3.2-0.5-4.5-1.6s-1.9-2.8-1.9-5.1c0-2.2,0.6-3.9,1.8-5.1s2.7-1.8,4.6-1.8
				C671,741.6,672,741.8,672.9,742.2z M667.9,745.1c-0.5,0.5-0.8,1.1-0.9,2h5.8c-0.1-0.9-0.4-1.6-0.9-2s-1.2-0.7-2-0.7
				C669.1,744.4,668.4,744.6,667.9,745.1z"/>
			<path fill="#F2F2F2" d="M687.2,750.7c0.1,0.6,0.2,1,0.5,1.3c0.4,0.4,1.2,0.7,2.3,0.7c0.7,0,1.2-0.1,1.6-0.3s0.6-0.5,0.6-0.9
				c0-0.4-0.2-0.7-0.5-0.9c-0.3-0.2-1.5-0.5-3.5-1c-1.5-0.4-2.5-0.8-3.1-1.3c-0.6-0.5-0.9-1.3-0.9-2.3c0-1.2,0.5-2.2,1.4-3
				s2.2-1.3,3.9-1.3c1.6,0,2.9,0.3,3.9,1s1.6,1.7,1.7,3.3h-3.3c0-0.4-0.2-0.8-0.4-1c-0.4-0.5-1-0.7-1.9-0.7c-0.7,0-1.2,0.1-1.6,0.3
				s-0.5,0.5-0.5,0.8c0,0.4,0.2,0.7,0.5,0.8c0.3,0.2,1.5,0.5,3.5,0.9c1.3,0.3,2.3,0.8,3,1.4c0.7,0.6,1,1.4,1,2.4
				c0,1.3-0.5,2.3-1.4,3.1s-2.4,1.2-4.4,1.2c-2,0-3.5-0.4-4.5-1.3s-1.4-1.9-1.4-3.2H687.2z"/>
			<path fill="#F2F2F2" d="M703.3,737.3c0.2,0,0.4,0,0.7,0.1v2.7c-0.2,0-0.5,0-0.9-0.1s-0.7,0.1-0.9,0.3s-0.3,0.4-0.3,0.7
				s0,0.6,0,1.1h2.2v2.4h-2.2v10.3h-3.3v-10.3h-1.9v-2.4h1.8v-0.8c0-1.4,0.2-2.3,0.7-2.8c0.5-0.8,1.7-1.1,3.5-1.1
				C702.9,737.3,703.1,737.3,703.3,737.3z"/>
			<path fill="#F2F2F2" d="M709.4,740.4H706v-3.1h3.4V740.4z M706,742h3.4v12.8H706V742z"/>
			<path fill="#F2F2F2" d="M719.4,742.2c0.6,0.3,1.1,0.8,1.5,1.4v-6.1h3.4v17.2H721V753c-0.5,0.8-1,1.3-1.6,1.7s-1.4,0.5-2.3,0.5
				c-1.5,0-2.7-0.6-3.8-1.8s-1.5-2.8-1.5-4.6c0-2.2,0.5-3.9,1.5-5.1s2.3-1.9,4-1.9C718.1,741.7,718.8,741.8,719.4,742.2z
				 M720.2,751.3c0.5-0.7,0.7-1.6,0.7-2.7c0-1.6-0.4-2.7-1.2-3.4c-0.5-0.4-1-0.6-1.7-0.6c-1,0-1.7,0.4-2.2,1.1s-0.7,1.7-0.7,2.7
				c0,1.2,0.2,2.1,0.7,2.8s1.2,1.1,2.1,1.1S719.7,752,720.2,751.3z"/>
			<path fill="#F2F2F2" d="M732.3,747c0.6-0.1,1.1-0.2,1.3-0.3c0.5-0.2,0.7-0.5,0.7-0.9c0-0.5-0.2-0.9-0.6-1.1s-0.9-0.3-1.6-0.3
				c-0.8,0-1.4,0.2-1.7,0.6c-0.2,0.3-0.4,0.7-0.5,1.2h-3.2c0.1-1.1,0.4-2,0.9-2.8c0.9-1.1,2.4-1.7,4.6-1.7c1.4,0,2.7,0.3,3.7,0.8
				s1.6,1.6,1.6,3.1v5.9c0,0.4,0,0.9,0,1.5c0,0.4,0.1,0.7,0.2,0.9s0.3,0.3,0.5,0.4v0.5h-3.6c-0.1-0.3-0.2-0.5-0.2-0.7
				s-0.1-0.5-0.1-0.8c-0.5,0.5-1,0.9-1.6,1.3c-0.7,0.4-1.5,0.6-2.5,0.6c-1.2,0-2.1-0.3-2.9-1c-0.8-0.7-1.1-1.6-1.1-2.8
				c0-1.6,0.6-2.7,1.8-3.4c0.7-0.4,1.7-0.7,3-0.8L732.3,747z M734.4,748.5c-0.2,0.1-0.4,0.2-0.6,0.3s-0.5,0.2-0.9,0.2l-0.8,0.1
				c-0.7,0.1-1.2,0.3-1.5,0.5c-0.5,0.3-0.8,0.8-0.8,1.4c0,0.6,0.2,1,0.5,1.2c0.3,0.3,0.7,0.4,1.2,0.4c0.7,0,1.4-0.2,2-0.6
				s0.9-1.2,1-2.3V748.5z"/>
			<path fill="#F2F2F2" d="M747.7,741.7c0,0,0.1,0,0.3,0v3.4c-0.2,0-0.4,0-0.6,0s-0.3,0-0.4,0c-1.3,0-2.2,0.4-2.7,1.3
				c-0.3,0.5-0.4,1.2-0.4,2.3v6.1h-3.4V742h3.2v2.2c0.5-0.9,1-1.4,1.3-1.7c0.6-0.5,1.4-0.8,2.4-0.8
				C747.6,741.7,747.7,741.7,747.7,741.7z"/>
			<path fill="#F2F2F2" d="M758.3,742.2c0.9,0.4,1.6,1,2.2,1.9c0.5,0.8,0.9,1.6,1,2.6c0.1,0.6,0.1,1.4,0.1,2.5h-9.3
				c0.1,1.3,0.5,2.2,1.3,2.7c0.5,0.3,1.1,0.5,1.8,0.5c0.8,0,1.4-0.2,1.9-0.6c0.3-0.2,0.5-0.5,0.7-0.9h3.4c-0.1,0.8-0.5,1.5-1.2,2.3
				c-1.1,1.2-2.7,1.9-4.8,1.9c-1.7,0-3.2-0.5-4.5-1.6s-1.9-2.8-1.9-5.1c0-2.2,0.6-3.9,1.8-5.1s2.7-1.8,4.6-1.8
				C756.4,741.6,757.4,741.8,758.3,742.2z M753.3,745.1c-0.5,0.5-0.8,1.1-0.9,2h5.8c-0.1-0.9-0.4-1.6-0.9-2s-1.2-0.7-2-0.7
				C754.4,744.4,753.8,744.6,753.3,745.1z"/>
			<path fill="#F2F2F2" d="M773.4,754.7h-3.3v-17.3h3.3V754.7z"/>
			<path fill="#F2F2F2" d="M785,742.2c0.9,0.4,1.6,1,2.2,1.9c0.5,0.8,0.9,1.6,1,2.6c0.1,0.6,0.1,1.4,0.1,2.5H779
				c0.1,1.3,0.5,2.2,1.3,2.7c0.5,0.3,1.1,0.5,1.8,0.5c0.8,0,1.4-0.2,1.9-0.6c0.3-0.2,0.5-0.5,0.7-0.9h3.4c-0.1,0.8-0.5,1.5-1.2,2.3
				c-1.1,1.2-2.7,1.9-4.8,1.9c-1.7,0-3.2-0.5-4.5-1.6s-1.9-2.8-1.9-5.1c0-2.2,0.6-3.9,1.8-5.1s2.7-1.8,4.6-1.8
				C783.1,741.6,784.1,741.8,785,742.2z M780,745.1c-0.5,0.5-0.8,1.1-0.9,2h5.8c-0.1-0.9-0.4-1.6-0.9-2s-1.2-0.7-2-0.7
				C781.1,744.4,780.5,744.6,780,745.1z"/>
			<path fill="#F2F2F2" d="M795.4,744.5v-2.4h1.8v-3.6h3.3v3.6h2.1v2.4h-2.1v6.8c0,0.5,0.1,0.8,0.2,1s0.5,0.2,1.2,0.2
				c0.1,0,0.2,0,0.3,0s0.2,0,0.3,0v2.5l-1.6,0.1c-1.6,0.1-2.7-0.2-3.2-0.8c-0.4-0.4-0.6-1-0.6-1.8v-7.9H795.4z"/>
			<path fill="#F2F2F2" d="M811.8,741.7c0,0,0.1,0,0.3,0v3.4c-0.2,0-0.4,0-0.6,0s-0.3,0-0.4,0c-1.3,0-2.2,0.4-2.7,1.3
				c-0.3,0.5-0.4,1.2-0.4,2.3v6.1h-3.4V742h3.2v2.2c0.5-0.9,1-1.4,1.3-1.7c0.6-0.5,1.4-0.8,2.4-0.8
				C811.7,741.7,811.7,741.7,811.8,741.7z"/>
			<path fill="#F2F2F2" d="M819.1,747c0.6-0.1,1.1-0.2,1.3-0.3c0.5-0.2,0.7-0.5,0.7-0.9c0-0.5-0.2-0.9-0.6-1.1s-0.9-0.3-1.6-0.3
				c-0.8,0-1.4,0.2-1.7,0.6c-0.2,0.3-0.4,0.7-0.5,1.2h-3.2c0.1-1.1,0.4-2,0.9-2.8c0.9-1.1,2.4-1.7,4.6-1.7c1.4,0,2.7,0.3,3.7,0.8
				s1.6,1.6,1.6,3.1v5.9c0,0.4,0,0.9,0,1.5c0,0.4,0.1,0.7,0.2,0.9s0.3,0.3,0.5,0.4v0.5h-3.6c-0.1-0.3-0.2-0.5-0.2-0.7
				s-0.1-0.5-0.1-0.8c-0.5,0.5-1,0.9-1.6,1.3c-0.7,0.4-1.5,0.6-2.5,0.6c-1.2,0-2.1-0.3-2.9-1c-0.8-0.7-1.1-1.6-1.1-2.8
				c0-1.6,0.6-2.7,1.8-3.4c0.7-0.4,1.7-0.7,3-0.8L819.1,747z M821.1,748.5c-0.2,0.1-0.4,0.2-0.6,0.3s-0.5,0.2-0.9,0.2l-0.8,0.1
				c-0.7,0.1-1.2,0.3-1.5,0.5c-0.5,0.3-0.8,0.8-0.8,1.4c0,0.6,0.2,1,0.5,1.2c0.3,0.3,0.7,0.4,1.2,0.4c0.7,0,1.4-0.2,2-0.6
				s0.9-1.2,1-2.3V748.5z"/>
			<path fill="#F2F2F2" d="M834.1,742.2c0.6,0.3,1.1,0.8,1.5,1.4v-6.1h3.4v17.2h-3.2V753c-0.5,0.8-1,1.3-1.6,1.7s-1.4,0.5-2.3,0.5
				c-1.5,0-2.7-0.6-3.8-1.8s-1.5-2.8-1.5-4.6c0-2.2,0.5-3.9,1.5-5.1s2.3-1.9,4-1.9C832.8,741.7,833.5,741.8,834.1,742.2z M835,751.3
				c0.5-0.7,0.7-1.6,0.7-2.7c0-1.6-0.4-2.7-1.2-3.4c-0.5-0.4-1-0.6-1.7-0.6c-1,0-1.7,0.4-2.2,1.1s-0.7,1.7-0.7,2.7
				c0,1.2,0.2,2.1,0.7,2.8s1.2,1.1,2.1,1.1S834.5,752,835,751.3z"/>
			<path fill="#F2F2F2" d="M845.5,740.4h-3.4v-3.1h3.4V740.4z M842.1,742h3.4v12.8h-3.4V742z"/>
			<path fill="#F2F2F2" d="M848,744.7V742h10.1v2.8l-6.3,7.3h6.5v2.7h-10.8v-2.6l6.3-7.5H848z"/>
			<path fill="#F2F2F2" d="M864.1,740.4h-3.4v-3.1h3.4V740.4z M860.7,742h3.4v12.8h-3.4V742z"/>
			<path fill="#F2F2F2" d="M878,753.2c-1.1,1.3-2.7,2-4.9,2s-3.8-0.7-4.9-2s-1.6-2.9-1.6-4.8c0-1.8,0.5-3.4,1.6-4.8
				c1.1-1.3,2.7-2,4.9-2s3.8,0.7,4.9,2c1.1,1.4,1.6,2.9,1.6,4.8C879.6,750.2,879.1,751.8,878,753.2z M875.3,751.3
				c0.5-0.7,0.8-1.7,0.8-3s-0.3-2.3-0.8-3c-0.5-0.7-1.3-1-2.2-1s-1.7,0.3-2.3,1c-0.5,0.7-0.8,1.7-0.8,3s0.3,2.3,0.8,3s1.3,1,2.3,1
				S874.8,752,875.3,751.3z"/>
			<path fill="#F2F2F2" d="M892.3,742.7c0.8,0.7,1.3,1.8,1.3,3.4v8.6h-3.4V747c0-0.7-0.1-1.2-0.3-1.5c-0.3-0.7-0.9-1-1.9-1
				c-1.1,0-1.9,0.5-2.3,1.4c-0.2,0.5-0.3,1.2-0.3,1.9v6.9H882V742h3.2v1.9c0.4-0.7,0.8-1.1,1.2-1.4c0.7-0.5,1.6-0.8,2.6-0.8
				C890.4,741.7,891.5,742,892.3,742.7z"/>
			<path fill="#F2F2F2" d="M900.1,740.4h-3.4v-3.1h3.4V740.4z M896.7,742h3.4v12.8h-3.4V742z"/>
			<path fill="#F2F2F2" d="M903.3,751.2h3.6v3.5h-3.6V751.2z"/>
		</g>
	</g>
</g>
</svg>
