<?xml version="1.0" encoding="utf-8"?>
<!-- Generator: Adobe Illustrator 15.0.0, SVG Export Plug-In . SVG Version: 6.00 Build 0)  -->
<!DOCTYPE svg PUBLIC "-//W3C//DTD SVG 1.1//EN" "http://www.w3.org/Graphics/SVG/1.1/DTD/svg11.dtd">
<svg version="1.1" id="Livello_1" xmlns="http://www.w3.org/2000/svg" xmlns:xlink="http://www.w3.org/1999/xlink" x="0px" y="0px"
	 viewBox="0 0 670.2 470.4" enable-background="new 0 0 670.2 470.4" xml:space="preserve">
<g>
	<g>
		<g>
			<path fill="#F4F1ED" d="M647.778,162.559h-57.72c-1.104,0-2-0.896-2-2V92.553c0-1.105,0.896-2,2-2h57.72c1.104,0,2,0.895,2,2
				v68.006C649.778,161.664,648.883,162.559,647.778,162.559"/>
			<rect x="593.201" y="95.696" fill="#D75E3C" width="51.434" height="51.433"/>
			<path fill="#422933" d="M613.046,119.618l8.17,14.313c0.761,1.333,2.661,1.393,3.505,0.11l3.185-4.835
				c0.818-1.245,2.65-1.231,3.452,0.025l8.135,12.754h-41.146l11.072-22.264C610.15,118.248,612.23,118.189,613.046,119.618"/>
			<path fill="#DCD139" d="M639.491,108.554c0,4.261-3.454,7.715-7.715,7.715c-4.262,0-7.716-3.454-7.716-7.715
				c0-4.262,3.454-7.716,7.716-7.716C636.037,100.839,639.491,104.293,639.491,108.554"/>
			<path fill="#422933" d="M177.262,249.989c-27.242-12.358-30.689-3.371-30.689-3.371v50.507c9.057,7.34,76.7,17.354,76.7,17.354
				V270.25C223.272,270.251,197.04,258.961,177.262,249.989"/>
			<path fill="#422933" d="M520.906,337.571c27.242,12.357,30.689,3.371,30.689,3.371v-50.507c-9.056-7.34-76.7-17.354-76.7-17.354
				v44.229C474.896,317.31,501.129,328.6,520.906,337.571"/>
			<path fill="#94B69A" d="M529.106,291.398c0,99.42-80.597,180.017-180.017,180.017c-99.419,0-180.016-80.597-180.016-180.017
				S249.67,111.383,349.09,111.383S529.106,191.979,529.106,291.398"/>
		</g>
		<g>
			<g>
				<defs>
					<path id="SVGID_1_" d="M234.53,176.836c-30.601,30.602-47.453,71.287-47.453,114.562s16.853,83.961,47.453,114.562
						c30.601,30.602,71.285,47.453,114.562,47.453c43.275,0,83.961-16.853,114.562-47.453s47.453-71.285,47.453-114.562
						s-16.854-83.961-47.453-114.562c-30.601-30.6-71.285-47.451-114.562-47.451C305.815,129.384,265.13,146.236,234.53,176.836"/>
				</defs>
				<clipPath id="SVGID_2_">
					<use xlink:href="#SVGID_1_"  overflow="visible"/>
				</clipPath>
				<path clip-path="url(#SVGID_2_)" fill="#388E3C" d="M573.688,86.303c3.163,0.742,9.979,6.279,13.002,2.093
					c2.506-3.468-1.872-4.446-0.031-7.682c4.629-8.132,24.877,0.518,25.955-9.438c0.562-5.197-3.863-2.154-6.33-1.742
					c-4.277,0.714-8.354,0.294-12.781,1.092c-6.329,1.143-7.98,3.236-13.068,6.585C578.983,78.166,568.323,84.17,573.688,86.303
					 M254.277,82.868C254.133,81.96,254.25,82.699,254.277,82.868 M782.765,400.94l-1.648,1.141
					c-0.719,0.496-1.423,0.456-1.907,0.036c-0.223-0.191-0.515-0.281-0.806-0.248l-0.087,0.011
					c-0.456,0.053-0.854,0.335-1.058,0.747l-0.415,0.849c-0.196,0.402-0.175,0.877,0.059,1.259l2.67,2.234l1.333,2.719
					c0.338,0.69,1.18,0.967,1.859,0.609l0.916-0.479c0.385-0.201,0.667-0.549,0.785-0.966c0.328-1.153,0.991-3.615,1.273-5.588
					c0.178-1.23,0.5-2.332-0.067-2.804c-0.575-0.479-1.576,0.129-2.06,0.155C783.355,400.632,782.979,400.795,782.765,400.94
					 M733.841,258.534L733.841,258.534c-0.388-0.1-0.798-0.039-1.14,0.169l-0.906,0.553c-1.137,0.692-1.736,2.003-1.521,3.315
					c0.199,1.217,0.943,2.277,2.021,2.878l1.938,1.083c0.696,0.389,1.489,0.576,2.288,0.541l0.938-0.043
					c1.491-0.066,2.803-1.01,3.338-2.404l0.285-0.739c0.544-1.417,0.42-3.004-0.338-4.318l-0.847-1.471
					c-0.495-0.86-1.65-1.059-2.403-0.411C736.489,258.549,735.123,258.866,733.841,258.534 M788.043,343.234l-7.303-7.612
					c-0.354-0.368-0.622-0.812-0.786-1.295l-3.479-10.281c-0.022-0.07-0.049-0.14-0.075-0.207l-2.603-6.466
					c-0.438-1.091-0.315-2.327,0.328-3.312l1.696-2.586c0.654-0.996,1.979-1.293,2.996-0.67l3.338,2.047l2.385,2.253
					c1.153,1.091,3.053,0.541,3.447-0.996l0.429-1.675c0.245-0.957,0.016-1.974-0.619-2.731l-12.894-15.407
					c-0.346-0.412-0.786-0.73-1.285-0.93l-10.416-4.151c-0.274-0.109-0.565-0.174-0.861-0.188l-5.953-0.328
					c-0.501-0.027-0.987-0.175-1.42-0.43l-1.604-0.943c-0.942-0.556-2.144-0.403-2.917,0.369l-1.264,1.26
					c-0.805,0.802-0.564,2.159,0.466,2.636c1.028,0.477,1.467,1.702,0.975,2.723c-0.402,0.833-0.123,1.835,0.651,2.34l9.546,5.334
					c0.959,0.535,1.532,1.568,1.479,2.666l-0.143,2.861c-0.059,1.182,0.7,2.251,1.835,2.588l2.477,0.732l4.039,4.259
					c0.56,0.589,0.842,1.387,0.778,2.196l-0.702,9.12c-0.01,0.117-0.024,0.234-0.05,0.352l-1.257,6.245
					c-0.225,1.11-1.531,1.606-2.438,0.925l-5.521-4.164c-0.877-0.661-1.29-1.771-1.06-2.845l0.811-3.767
					c0.206-0.959-0.217-1.944-1.055-2.455l-1.651-1.009l-3.301,0.341c-0.608,0.062-1.22-0.086-1.729-0.423l-1.653-1.083
					l-1.613-0.323l-0.236,0.772c-0.305,0.999-1.188,1.712-2.229,1.799l-0.809,0.068c-0.929,0.078-1.728,0.682-2.056,1.553
					l-1.018,2.704c-0.463,1.229-1.966,1.688-3.035,0.922l-0.884-0.631l-2.584-0.034c-0.905-0.012-1.76,0.42-2.287,1.157
					l-4.439,6.206l-3.092,2.975c-0.419,0.401-0.695,0.93-0.788,1.503l-0.328,2.012c-0.157,0.968-0.911,1.729-1.876,1.896
					l-1.824,0.319l-11.25,5.532c-0.619,0.305-1.099,0.832-1.341,1.478l-1.505,4.002c-0.164,0.438-0.199,0.913-0.102,1.369
					l1.102,5.111l-0.373,5.509c-0.037,0.537,0.063,1.074,0.292,1.562l2.449,5.244l2.229,5.939c0.27,0.719,0.259,1.513-0.032,2.224
					l-1.753,4.288c-0.394,0.961-0.187,2.062,0.529,2.813l1.196,1.256l2.267,0.621c0.668,0.184,1.378,0.136,2.016-0.136l8.162-3.466
					l6.012-4.649c0.391-0.302,0.843-0.515,1.324-0.621l7.818-1.738l4.722-1.511c0.938-0.3,1.963-0.021,2.62,0.71l0.882,0.982
					l2.573,0.942l1.376,1.095c0.753,0.599,1.147,1.539,1.05,2.495l-0.144,1.397c-0.105,1.025,0.494,1.993,1.459,2.354l1.852,0.696
					l4.669-0.266c1.004-0.058,1.949,0.468,2.432,1.35l3.947,7.217c0,0,2.355,1.592,3.564,2.583c0.662,0.543,1.546,0.735,2.367,0.497
					c0.421-0.123,1.662-0.603,2.521-0.938c0.573-0.225,1.2-0.258,1.793-0.097l1.229,0.335c0.984,0.269,2.035,0.117,2.904-0.416
					l4.051-2.49c0.627-0.385,1.125-0.947,1.432-1.617l6.75-14.757c0.187-0.404,0.3-0.84,0.338-1.283l0.845-9.959
					c0.061-0.726,0-1.453-0.182-2.159C795.893,361.895,788.043,343.234,788.043,343.234 M729.738,318.623
					c0.902,4.048,13.531-4.337,9.735-7.693c-2.608-2.308-2.989-0.522-5.022,0.796c-1.631,1.06-3.909-0.804-4.048,2.606
					C730.382,314.828,729.901,314.257,729.738,318.623 M836.188,403.076l-8.954,8.995c-0.715,0.719-0.717,1.88-0.006,2.602
					l3.679,3.724c0.66,0.668,1.762,0.592,2.321-0.163l10.211-13.729c0.287-0.387,0.71-0.647,1.183-0.73l2.159-0.378
					c0.514-0.09,0.962-0.399,1.227-0.85l2.858-4.852c0.271-0.458,0.348-1.005,0.214-1.52l-0.968-3.751
					c-0.081-0.315-0.256-0.598-0.501-0.81l-6.622-5.734c-0.503-0.436-1.276-0.315-1.624,0.252l-0.462,0.755
					c-0.233,0.383-0.282,0.853-0.13,1.274l1.188,3.3c0.108,0.303,0.129,0.631,0.058,0.943l-0.64,2.795
					c-0.049,0.208-0.062,0.423-0.038,0.636l0.419,3.93c0.068,0.65-0.316,1.264-0.935,1.479l-3.933,1.385
					C836.628,402.724,836.387,402.877,836.188,403.076 M733.854,300.607l0.181,0.151c0.748,0.626,1.807,0.724,2.656,0.246
					l0.383-0.216c1.118-0.628,1.54-2.026,0.956-3.169l-1.901-3.714c-0.396-0.775-0.423-1.687-0.073-2.483l0.107-0.243
					c0.545-1.241-0.148-2.676-1.46-3.019l-2.431-0.634c-1.045-0.273-2.149,0.122-2.784,0.994l-1.681,2.31
					c-0.258,0.354-0.409,0.773-0.438,1.212l-0.176,2.729c-0.065,1.026,0.572,1.969,1.552,2.284l0.508,0.164
					c0.465,0.148,0.957,0.181,1.437,0.089c0.671-0.128,1.604-0.295,1.846-0.285c0.687,0.03,0.72,0.466,0.54,0.944
					C732.724,298.906,733.086,299.966,733.854,300.607 M511.166,124.108l-2.664,0.282c-1.129,0.118-2.063,0.924-2.353,2.021
					l-1.049,4c-0.301,1.146-1.329,1.95-2.515,1.965l-6.724,0.084c-1.146,0.016-1.644-1.443-0.727-2.132l0.853-0.639
					c0.48-0.361,0.875-0.826,1.152-1.359l2.269-4.358c0.305-0.584,0.45-1.238,0.422-1.897l-0.306-7.14
					c-0.044-1.033,0.479-2.007,1.367-2.539l3.561-2.138c1.301-0.779,2.982-0.048,3.298,1.436l1.016,4.767
					c0.202,0.947,1.077,1.596,2.041,1.512c1.638-0.143,2.985,1.267,2.771,2.896l-0.135,1.021
					C513.288,123.065,512.348,123.983,511.166,124.108 M509.445,194.313c-1.234-0.267-2.521,0.102-3.428,0.98l-1.953,1.896
					c-1.345,1.304-3.376,1.589-5.027,0.705l-12.366-6.62c-1.593-0.853-2.484-2.607-2.232-4.396l0.188-1.337
					c0.266-1.904-1.052-3.669-2.953-3.954l-5.45-0.817c-0.529-0.08-1.068-0.072-1.597,0.022l-13.412,2.415
					c-1.259,0.018-1.903-1.5-1.018-2.393l0.854-0.861c0.469-0.472,0.696-1.134,0.618-1.795c-0.155-1.297,0.347-2.585,1.339-3.434
					l4.553-3.901c0.742-0.636,1.278-1.478,1.54-2.419l0.021-0.071c0.441-1.584,1.984-2.599,3.614-2.376l1.835,0.252
					c1.232,0.169,2.484-0.122,3.519-0.816l0.1-0.066c1.404-0.946,3.289-0.729,4.441,0.514l4.095,4.415
					c0.402,0.436,0.886,0.787,1.421,1.039l3.35,1.575c0.686,0.322,1.275,0.817,1.71,1.437l1.801,2.562
					c1.26,1.321,3.486,0.632,3.781-1.169l0.044-0.268c0.075-0.454,0.375-0.84,0.799-1.021c1.584-0.683,3.43-0.118,4.36,1.334
					l3.184,4.964c1.139,1.776,3.841,1.376,4.417-0.653l1.121-3.956c0.146-0.519,0.464-0.973,0.899-1.288
					c1.438-1.044,3.463-0.112,3.606,1.658l0.123,1.509c0.083,1.015,0.551,1.959,1.31,2.639l2.826,2.533
					c1.28,1.147,2.945,1.772,4.664,1.752l7.229-0.088c2.462-0.03,4.246,2.337,3.541,4.695l-1.531,5.117
					c-0.615,2.057-2.501,3.468-4.646,3.477L509.445,194.313z M403.812,81.109l4.527-0.248c0.921-0.05,1.354-1.523,1.097-1.856
					c-0.092-0.117-0.234-1.057-0.431-0.874c-0.416-2.159,1.285-4.947,2.261-6.328c0.381-0.539,0.4-1.247,0.055-1.809l-1.229-1.988
					c-0.177-0.286-0.231-0.632-0.151-0.959l1.226-5.018c0.09-0.367,0.301-0.694,0.599-0.928l8.646-6.772
					c0.37-0.291,0.643-0.689,0.778-1.142l0.852-2.851c0.285-0.951-0.066-1.979-0.875-2.559l-1.101-0.789
					c-0.511-0.365-1.177-0.432-1.748-0.175l-6.904,3.095c-0.158,0.07-0.323,0.12-0.493,0.148l-3.498,0.578
					c-0.883,0.146-1.747-0.352-2.064-1.188l-3.433-9.038c-0.044-0.115-0.1-0.224-0.165-0.327l-1.925-2.985
					c-0.398-0.618-1.12-0.949-1.85-0.848l-7.927,1.105c-0.312,0.043-0.632,0.003-0.924-0.118l-9.054-3.753
					c-0.258-0.106-0.534-0.155-0.812-0.145l-10.94,0.449c-0.166,0.007-0.332,0.034-0.492,0.082l-12.675,3.743
					c-0.36,0.106-0.678,0.323-0.905,0.621l-3.067,4c-0.566,0.739-1.655,0.812-2.316,0.157l-1.026-1.017
					c-0.45-0.446-1.2-0.359-1.538,0.179l-0.642,1.024l-1.083,4.016c-0.166,0.614-0.668,1.081-1.294,1.201l-3.92,0.754l-6.637-1.269
					c-0.521-0.1-1.061-0.027-1.535,0.206l-8.154,4.005c-0.415,0.203-0.744,0.548-0.929,0.971l-0.241,0.559
					c-0.184,0.424-0.539,0.749-0.979,0.894l-3.745,1.239c-0.681,0.225-1.188,0.797-1.333,1.499l-0.289,1.406
					c-0.102,0.496-0.418,0.92-0.863,1.158l-1.35,0.726l-3.86,3.832c-0.3,0.297-0.676,0.505-1.087,0.599l-4.728,1.09
					c-0.458,0.105-0.851,0.397-1.084,0.807l-0.637,1.114c-0.31,0.541-0.08,1.23,0.492,1.478l3.183,1.375l2.68,2.746
					c0.528,0.54,1.319,0.728,2.034,0.482l3.496-1.199l4.638,1.323c0.076,0.021,0.154,0.039,0.232,0.052l9.593,1.553
					c0.409,0.066,0.79,0.248,1.099,0.523l5,4.474l2.626,8.647l-0.216,2.186c-0.038,0.381,0.047,0.764,0.24,1.093l0.49,0.831
					c0.2,0.339,0.514,0.595,0.885,0.724l0.818,0.285c0.522,0.183,0.924,0.611,1.069,1.147l3.398,12.5
					c0.087,0.32,0.258,0.613,0.492,0.85l7.062,7.078c0.254,0.255,0.573,0.428,0.926,0.503c0.828,0.177,2.37,0.41,3.188-0.084
					c0.35,1.415,1.643,2.152,2.675,2.522c0.772,0.276,1.634,0.096,2.229-0.469l2.046-1.938c0.315-0.299,0.521-0.692,0.583-1.122
					c0.115-0.791,0.312-2.151,0.47-3.279c0.079-0.569,0.545-0.993,1.118-1.055c1.612-0.174,2.113-1.321,2.262-1.855
					c0.037-0.139,0.057-0.279,0.063-0.425l0.135-2.644c0.032-0.624,0.428-1.169,1.013-1.39c1.425-0.536,9.483-3.554,11.61-4.35
					c0.324-0.121,0.6-0.341,0.785-0.632c0.241-0.378,0.864-1.093,1.266-1.539c0.228-0.255,0.532-0.426,0.868-0.491
					c0,0,14.499-3.259,17.179-5.646c0.359-0.321,0.822-0.488,1.305-0.479c0.191,0.004,0.375,0.001,0.547-0.006
					c0.546-0.021,1.041-0.316,1.318-0.786l0.661-1.121c0.208-0.353,0.282-0.769,0.209-1.172l-0.703-3.863
					c-0.009-0.05-0.017-0.095-0.021-0.146C402.916,83.614,402.731,81.26,403.812,81.109 M422.48,107.426c0,0,8.366-1.59,5.447-6.228
					c-3.514-5.58-8.27-0.201-13.746-0.718c-3.061-0.29-5.313-3.64-7.246,1.217c-2.451,6.161,3.03,4.663,5.582,5.958
					C415.364,109.101,419.115,113.214,422.48,107.426C422.617,107.329,422.48,107.426,422.48,107.426 M571.868,323.568
					L571.868,323.568c-1.421-1.221-3.514-1.24-4.957-0.047l-2.854,2.36l-3.794,4.648c-0.074,0.093-0.152,0.183-0.234,0.269
					l-2.04,2.153c-0.907,0.959-1.404,2.234-1.385,3.557l0.078,5.304l-0.308,12.775c0,0-0.915,3.293,2.705,3.811
					c1.393,0.198,3.035,1.164,4.412-0.429c1.615-1.868,3.79-7.345,3.79-7.345l4.925-17.646c0.105-0.378,0.166-0.763,0.183-1.155
					C572.456,330.22,572.562,325.829,571.868,323.568C571.436,322.244,571.868,323.568,571.868,323.568 M711.584,314.844
					c0.27-0.409,0.538-0.819,0.809-1.229c-0.321-0.054-0.645-0.104-0.966-0.157c0.321,0.042,0.645,0.084,0.966,0.127
					c0.309-4.564-6.358-5.714-9.6-6.128c-2.096-0.268-3.197,0.979-5.918-0.136c-1.444-0.594-1.855-1.581-4.165-2.593
					c0.034-1.873,2.241-6.78,1.794-8.306c-0.7-2.378-1.648-1.294-2.554-2.664c-2.408-3.651-14.865-4.038-12.312,1.545
					c2.441,5.34,7.547,8.507,10.977,12.868c4.233,5.382,3.495,2.376,9.608,3.754C703.123,312.579,707.7,316.935,711.584,314.844
					C711.979,314.636,711.195,315.053,711.584,314.844 M767.513,182.208l-2.079,3.893c-0.258,0.479-0.615,0.896-1.055,1.217
					c-0.849,0.619-2.354,1.633-3.769,2.135c-1.974,0.702-4.062-1.354-5.928-0.731c-1.56,0.521-2.449,2.244-2.91,3.536
					c-0.346,0.968-1.12,1.717-2.107,1.993l-0.777,0.217c-0.995,0.279-1.751,1.092-1.956,2.104l-0.559,2.759
					c-0.164,0.813-0.004,1.658,0.447,2.354l0.117,0.179c0.571,0.882,1.597,1.361,2.641,1.235l2.293-0.276
					c0.37-0.045,0.672-0.323,0.746-0.689c0.252-1.244,1.333-2.147,2.603-2.176l1.536-0.13c0.606-0.051,1.182-0.29,1.656-0.673
					c0.581-0.469,1.375-0.634,2.118-0.397c0.282,0.091,0.591,0.049,0.839-0.114l7.799-5.103c0.454-0.297,0.837-0.691,1.119-1.156
					l2.866-4.704c0.31-0.508,0.479-1.084,0.498-1.678l0.216-7.144c0.013-0.412-0.047-0.824-0.173-1.216l-0.122-0.378
					c-0.46-1.431,0.438-2.94,1.913-3.22l5.023-0.951c0.587-0.11,1.129-0.39,1.562-0.802l0.688-0.656
					c0.896-0.856,1.039-2.238,0.333-3.26c-0.297-0.43-0.698-0.775-1.167-1.006l-5.121-2.518c-0.516-0.253-1.101-0.33-1.664-0.219
					l-1.398,0.279c-0.641,0.127-1.215,0.47-1.63,0.972l-3.673,4.44C767.018,173.678,769.245,177.893,767.513,182.208
					C766.954,183.657,767.513,182.208,767.513,182.208 M709.313,274.22c-1.337,2.291-3.872,3.287-5.347,5.166
					c-0.628,0.802-1.697,1.175-2.666,0.86c-3.425-1.109-2.606,4.735-1.878,7.656c1.421,5.695,3.806,8.389,9.138,9.782
					c3.692,0.965,6.875,1.728,8.614-1.782c0.651-1.315-0.079-4.327,0.566-6.03c0.844-2.223,3.173-3.239,3.604-5.696
					c0.521-2.97-2.393-5.508-1.853-8.146c0.413-2.012,3.135-1.395,3.066-3.852c-0.053-1.928-1.924-0.547-2.095-0.966
					c0.036,0.088-0.9-2.141-1.466-3.588c-0.703-1.797-3.203-2.038-4.162-0.362c-0.656,1.145-0.883,2.848-0.515,4.531
					C712.327,272.062,710.426,272.206,709.313,274.22C708.974,274.8,709.965,273.041,709.313,274.22"/>
			</g>
			<g>
				<defs>
					<path id="SVGID_3_" d="M234.53,176.836c-30.601,30.602-47.453,71.287-47.453,114.562s16.853,83.961,47.453,114.562
						c30.601,30.602,71.285,47.453,114.562,47.453c43.275,0,83.961-16.853,114.562-47.453s47.453-71.285,47.453-114.562
						s-16.854-83.961-47.453-114.562c-30.601-30.6-71.285-47.451-114.562-47.451C305.815,129.384,265.13,146.236,234.53,176.836"/>
				</defs>
				<clipPath id="SVGID_4_">
					<use xlink:href="#SVGID_3_"  overflow="visible"/>
				</clipPath>
				<path clip-path="url(#SVGID_4_)" fill="#FFFFFF" d="M600.184,67.783c3.904,1.163,11.062,7.716,14.169,4.015
					c3.071-3.706-2.681-8.062,0.613-12.301c4.872-6.418,20.279,3.247,24.042-4.097c5.155-10.525-20.269-6.2-23.712-4.929
					C613.261,51.192,593.435,64.575,600.184,67.783C603.834,68.859,593.839,64.871,600.184,67.783 M219.788,64.953
					c-4.208-0.78,2.251-11.49-5.761-8.39c-3.362,1.294-6.31,6.682-7.943,7.289c-3.571,1.301-4.669-2.668-8.972-1.305
					c-4.272,1.352-9.254,5.598-13.25,8.751c-1.364,1.079-1.229,2.504-2.043,3.142c-1.222,0.953-2.648,0.651-3.632,1.451
					c-2.811,2.275-6.01,3.805-7.837,7.067c-0.419,0.747-1.165,3.349-1.263,3.539c-0.53,0.979,2.95-0.356,1.998,1.115
					c-1.713,2.652-15.825,3.672-18.868,4.302c-2.327,0.466-4.345,0.002-6.668,0.563c-3.197,0.773-5.089,2.872-8.747,3.604
					c-4.195,0.836-10.18-0.43-14.372-0.184c-5.52,0.312-11.93,1.326-16.811,0.915c-2.82-0.25-7.272-2.575-10.493-1.642
					c-3.543,1.009-8.688,4.126-13.573,6.201c-2.64,1.129-12.839,5.097-14.703,7.18c-2.531,2.836,1.842,3.854,3.552,5.095
					c-1.243-0.906-7.896-0.473-11.801,2.43c-9.242,6.868,0.598,4.563-0.08,7.804c-0.423,2.142-8.02,6.465-6.882,9.938
					c0.778,2.33,5.759,0.844,7.818,1.091c-0.867-0.11,3.504,1.742,3.226,1.633c0.454,0.182,3.617-1.661,4.054-0.675
					c1.2,2.674-10.256,6.438-13.386,8.686c-10.848,7.832,6.796,1.345,12.099-0.731c2.943-1.145,6.245-2.26,9.082-3.46
					c2.276-0.965,3.937,0.055,6.362-1.886c2.852-2.29,1.056-3.7,3.117-5.859c8.264-8.631,21.659-6.319,28.579-4.958
					c6.115,1.167,9.853,4.531,12.652,9.119c1.744,2.887,0.106,8.528,3.509,10.163c2.931,1.415,4.66-1.301,7.083,1.711
					c2.746,3.428,6.306,11.007,6.896,15.872c1.003,8.606-7.376,17.447-2.369,25.137c3.146,4.817,8.577,8.268,11.681,13.36
					c2.144,3.516,3.836,7.979,5.363,11.904c1.167,3.035-0.047,8.415,1.221,10.371c1.185,1.845,6.184,1.894,8.003,3.271
					c2.447,1.85,2.688,6.535,5.168,7.932c3.133,1.776,5.559-1.204,7.914-0.012c4.467,2.285,4.139,10.309,8.066,13.646
					c2.866,2.453,7.907,2.986,11.153,5.073c2.092,1.347,3.772,4.112,5.971,5.109c3.904,1.774,5.347-0.287,9.382,0.553
					c4.303,0.891,9.537,6.326,13.831,8.354c5.284,2.501,5.18,1.728,8.401,6.369c2.279,3.279,2.311,6.777,6.821,9.146
					c4.803,2.508,24.71,2.02,16.94,12.025c-5.304,6.906-11.386,3.634-13.243,13.525c-0.82,4.54,0.965,5.979,1.13,10.299
					c0.123,3.031-2.238,4.753-2.225,6.642c0.06,5.521,2.419,5.286,6.305,10.389c6.113,8.072,5.896,19.544,13.265,26.774
					c10.976,10.788,25.209,9.805,25.293,26.812c0.102,7.861-0.696,14.832,1.011,22.845c0.824,3.867,2.84,8.565,3.061,12.315
					c0.195,3.401-1.869,6.239-1.489,9.644c0.724,6.367,5.522,13.184,6.166,20.348c0.243,2.66-0.993,5.146-0.565,7.676
					c0.695,4.132,3.377,9.476,5.05,13.826c2.031,5.328,4.933,13.136,9.428,17.817c4.047,4.166,17.939,13.004,16.058,5.919
					c-0.801-3.112-5.265-7.28-6.732-10.47c-1.792-3.928-1.763-6.125-2.099-9.881c-0.748-8.614,1.069-12.899,4.812-18.973
					c7.156-11.515,12.692-23.041,19.485-36.399c2.341-4.581,5.899-8.462,7.785-13.402c1.409-3.695,1.034-9.163,3.596-12.248
					c3.605-4.33,9.557-3.497,12.119-9.702c3.104-7.458,1.435-17.505,4.128-25.273c2.399-6.969,9.19-15.937,8.533-23.925
					c-1.728-21.677-34.283-16.393-42.96-30.327c-4.849-7.816-5.474-12.933-14.495-18.123c-3.279-1.883-6.952-2.261-10.133-4.457
					c-2.554-1.764-4.592-3.495-6.067-6.19c-0.876-1.595,1.154-4.638-0.246-6.031c2.195,2.182-7.49-0.219-5.208-0.195
					c-1.761-0.018-4.393-0.008-6.009-0.08c0.095,0.002-9.002,0.75-8.085,1.092c-1.269-0.477-2.085-3.603-2.653-3.784
					c-4.337-1.392-8.095-2.951-12.191-1.503c-4.312,1.523-6.104,8.501-10.089,9.917c-1.386,0.489-9.007,0.514-10.651,0.188
					c-5.886-1.164-6.234-2.617-6.829-7.789c-0.524-4.586,3.744-9.151-1.026-13.423c-3.77-3.37-8.725-0.108-10.854-4.555
					c-1.814-3.769,4.843-11.158,1.477-14.839c-4.378-4.763-9.736,2.57-12.054,4.053c-3.86,2.476-6.084,6.157-11.927,2.979
					c-4.415-2.398-3.856-5.003-3.803-9.427c0.098-7.92-0.854-14.604,7.134-18.114c3.779-1.659,8.223-2.047,12.104-3.462
					c2.567-0.934,5.432-3.303,7.773-3.653c8.808-1.312,10.163,5.279,13.766,10.118c8.052,10.807,5.84-3.246,6.506-8.194
					c1.032-7.923,8.126-11.572,12.703-18.505c3.753-5.703,4.443-15.435,9.494-19.357c3.652-2.853,7.293-1.918,10.615-5.9
					c0.641-0.773-0.834-3.562,0.962-5.531c1.78-1.957,4.251-3.022,6.666-3.024c1.941,0.002,1.847,3.299,4.283,3.424
					c2.04,0.102,2.296-0.677,4.406-1.138c3.126-0.686,5.819-2.359,8.175-4.516c6.599-6.034,3.316-9.034,13.569-8.521
					c5.816,0.297,9.961,1.272,8.844-5.383c-0.857-5.232-7.147-3.99-8.002-6.376c-0.794-2.238,4.255-6.685,3.766-9.842
					c-0.061-0.267-5.726-6.952-6.098-7.259c-2.965-2.344-5.29-2.303-7.418-5.552c-1.508-2.287-2.205-9.994-4.98-10.96
					c-4.851-1.678-3.799,4.052-7.515,4.499c-4.146,0.499-3.28-2.404-4.597-3.381c-3.574-2.636-9.353-7.292-15.748-6.066
					c-5.018,0.956-6.773,4.744-8.828,9.37c-2.305,5.211-1.329,0.817-1.34,5.024c0.005,3.912,2.757,4.562-0.319,8.618
					c1.032-1.354-7.521,3.272-5.998,2.61c-4.812,2.093-2.7,2.992-6.49,1.055c-1.645-0.837-1.735-3.215-3.609-3.995
					c-1.995-0.829-5.428-0.224-7.729-0.836c-4.557-1.229-16.378-4.425-13.463-10.84c1.165-2.585,8.552-7.968,10.713-9.205
					c5.165-2.944,6.419-1.18,11.287-1.443c3.198-0.179,13.783-0.398,15.458-3.058c2.276-3.622-5.541-3.702-4.928-5.956
					c0.72-2.652,1.959-0.668,3.131-3.267c-0.011,0.026,2.614-1.893,3.083-2.684c0.937-1.591,0.141-5.536-0.345-4.809
					c1.952-2.856,9.41-3.392,10.51-1.143c1.031,2.095-1.658,4.201-3.005,6.523c-0.33,0.57,0.922,1.183,0.382,2.114
					c-0.551,0.949-2.129,0.478-2.524,1.573c-1.381,3.847-2.824,4.642-0.363,6.941c2.578,2.394,10.482-0.12,14.315,1.143
					c5.25,1.733,9.319,7.332,15.886,2.469c5.473-4.073,1.304-3.008,2.152-7.406c1.356-6.939-3.889,0.39,5.679-2.481
					c12.499-3.769-1.286-9.239-3.622-11.263c-2.479-2.122-1.871-5.596-3.903-7.862c-1.743-1.949-5.307-1.733-7.932-2.222
					c-5.914-1.102-9.69-4.983-15.183-6.239c-4.242-0.965-9.814,1.579-14.607,1.861c-4.948,0.293-9.709-0.479-14.396-0.679
					C244.974,65.504,232.313,65.141,219.788,64.953 M246.215,73.876C246.423,72.836,246.254,73.684,246.215,73.876 M827.523,431.94
					c-5.49,2.118-11.683,4.906-7.183,8.476C825.282,444.307,833.184,428.537,827.523,431.94 M813.479,278.205
					c-8.52,1.069-3.046,10.969,3.888,9.541c3.856-0.781,6.966-5.227,4.66-8.5C819.094,275.078,818.104,279.236,813.479,278.205
					 M861.721,368.677c-4.789-6.147-6.131-9.975-7.143-18.604c-0.752-6.625-2.103-17.638,9.067-14.268
					c2.892,0.866,4.495,6.019,8.161,0.484c2.549-3.824-2.456-7.713-4.238-10.026c-5.512-7.169-9.098-11.994-19.887-14.255
					c-4.659-0.959-17.026-4.228-19.283,1.618c-0.65,1.712,2.599,6.509,3.706,7.72c3.199,3.479,8.197,3.184,10.213,7.391
					c0.922,1.94-0.606,3.7,0.802,5.913c0.434,0.68,2.868,0.896,3.723,1.636c3.729,3.259,3.078,5.71,1.587,10.771
					c-1.833,6.262-8.2,20.477-13.401,10.002c-1.657-3.261,2.499-6.524,1.33-9.271c-0.947-2.21-6.959-2.651-9.477-2.325
					c-3.847,0.507-2.085-0.753-6.642,2.319c-1.325,0.896-4.163,3.817-5.111,4.349c-2.395,1.319-3.021,0.938-5.073,1.579
					c-6.271,1.965-6.283,1.83-11.615,6.972c-2.887,2.788-6.222,7.536-8.745,9.669c-6.752,5.703-18.201,6.211-23.588,14.396
					c-4.356,6.672-4.666,17.43-4.09,23.287c0.401,3.81,0.23,6.354-1.135,10.411c-1.42,4.171-6.529,8.722-0.599,9.254
					c10.571,0.806,39.256-27.577,45.439-14.904c1.553,3.312-1.942,6.393,2.366,7.581c5.021,1.379,5.957-1.646,7.315,3.918
					c1.194,5.131,2.212,6.085,9.423,4.442c4.927-1.121,8.524-1.767,14.043-6.346C862.668,402.827,863.736,385.89,861.721,368.677
					 M799.387,346.633c0.073,3.612,15.983-4.058,13.91-8.821c-1.106-2.52-7.65-0.345-9.771,1.424
					C800.959,341.371,800.213,343.323,799.387,346.633C799.511,351.174,800.631,341.65,799.387,346.633 M884.56,424.146
					c-3.634,2.488-13.269,8.097-15.807,10.93c-2.518,2.824-3.064,6.952,0.734,5.698c3.054-1.005,13.321-10.139,16.506-12.494
					c5.033-3.715,7.775-4.521,12.364-7.552c11.354-7.288,9.37-18.685,2.764-14.467c-0.812,0.563-4.578,7.584-5.437,8.801
					C890.882,422.132,891.851,419.13,884.56,424.146 M808.271,325.914c8.365,2.528,6.801-17.337-1.672-14.619
					c-2.964,0.978-7.078,7.446-5.248,9.916c1.541,2.06,4.747-0.323,5.953,0.708C808.533,322.973,806.716,324.617,808.271,325.914
					 M652.584,65.784c-5.161-10.158-11.997-1.634-13.214,2.815c-1.431,5.419,3.496,10.529-2.489,9.608
					c-2.525-0.387-5.253-3.864-7.783-4.42c-3.799-0.832-3.85,0.637-6.886,1.398c-5.033,1.259-9.675,1.729-15.438,1.895
					c-4.153,0.122-8.265,0.426-12.484,0.065c-2.967-0.254-5.476-1.093-8.286-0.538c-3.386,0.673-3.052,3.621-7.567,2.975
					c-9.566-1.36-19.268-9.893-28.795-12.05c-9.065-2.044-22.077-3.894-30.18,1.63c-4.336,2.951-5.17,8.734-8.875,12.53
					c-4.1,4.185-10.577,4.963-15.02,8.766c-4.117,3.528-8.134,9.511-7.125,15.775c0.404,2.493,2.274,4.487,3.467,6.522
					c2.636,4.501,3.229,0.591,2.042,6.775c-0.913,4.785-4.531,10.28-10.343,11.263c-6.494,1.095-9.831-6.446-12.432-11.838
					c-2.834-5.841-3.735-12.915-11.025-9.668c-3.547,1.578-2.982,2.642-4.9,5.65c-0.526,0.824,0.878,1.767-0.31,3.574
					c-1.008,1.53-3.932,2.129-4.69,3.367c-4.246,6.957-4.187,10.58,3.427,13.088c3.211,1.058,5.779-2.401,8.085,3.012
					c1.305,3.054,0.21,5.27-2.145,7.921c2.857,1.623,5.763,4.169,6.396,7.626c1.332,7.244-2.459,4.919-6.576,6.95
					c-8.278,4.085-15.492,11.381-11.843,21.604c1.816,5.059,5.079,3.167,4.384,9.915c-0.381,3.724-3.121,8.287-4.439,11.786
					c-3.242,8.616-7.854,12.018-13.366,19.24c-3.935,5.152-6.964,12.026-7.285,18.507c-0.183,3.66,1.588,7.412,1.633,11.081
					c0.053,4.36-1.643,8.531-1.964,12.854c-0.839,11.509,6.83,9.127,12.191,17.592c3.82,6.043,3.355,19.483,14.202,18.21
					c2.24-0.268,4.603-3.223,6.683-4.073c3.592-1.463,7.919-2.011,11.755-2.436c8.923-0.993,11.997,1.329,19.403,5.139
					c2.479,1.273,6.709,0.844,7.975,3.334c1.869,3.684-2.041,9.874-2.114,13.563c-0.167,8.482,6.82,14.831,8.986,22.757
					c4.194,15.493-4.547,28.471,0.038,42.862c2.165,6.883,4.771,13.156,5.803,20.305c1.167,8.059,3.62,13.177,5.771,20.782
					c2.04,7.265,0.084,12.812,8.582,14.271c8.527,1.46,14.15-4.525,20.836-9.983c10.651-8.733,17.179-24.13,20.748-37.638
					c1.17-4.407,1.052-6.254,3.661-10.071c2.278-3.337,6.273-5.281,8.402-8.847c5.907-9.85,2.511-19.186,2.684-29.148
					c0.139-7.479,4.159-14.887,7.354-21.763c3.325-7.175,8.438-10.073,13.144-16.212c3.648-4.756,6.571-11.095,8.43-16.736
					c1.502-4.562,3.466-8.422-1.763-11.468c-5.454-3.183-9.754,3.498-14.394,1.201c-10.058-4.994,13.924-11.325,16.57-12.69
					c6.533-3.404,15.857-8.669,20.351-14.488c1.414-1.826,4.142-6.687,4.316-8.944c0.435-5.614-1.359-4.171-4.372-8.128
					c-1.377-1.805-6.22-7.568-4.702-10.071c2.281-3.753,7.77,2.437,10.636,4.17c7.802,4.698,12.784-1.375,19.411,4.092
					c3.354,2.764,3.938,7.621,6.987,9.944c5.215,3.962,4.247-0.876,6.678,5.217c2.193,5.511,1.576,12.539,3.515,18.405
					c1.565,4.63,4.062,16.621,7.725,19.431c7.523,5.717,10.171-6.953,11.002-11.502c1.764-9.463,3.983-11.604,10.705-19.131
					c3.101-3.451,10.316-15.132,16.742-13.386c4.32,1.164,4.374,5.514,5.985,8.744c0.757,1.504,0.952,3.957,2.012,5.293
					c2.956,3.735,3.434,1.813,6.745,4c5.552,3.653,7.076,12.604,7.571,19.8c0.213,3.054-1.229,5.328-0.584,8.479
					c0.853,4.159,3.831,8.536,5.479,12.35c1.382,3.09,6.178,16.748,10.017,6.778c1.808-4.617-4.837-13.397-6.497-17.698
					c-1.54-4.203-6.557-18.997,2.105-12.511c2.325,1.734,2.487,5.674,5.355,6.873c5.295,2.209,10.548-2.891,13.013-6.844
					c4.154-6.654,1.76-12.854-1.773-18.961c-1.585-2.741-5.422-6.009-4.936-8.911c1.437-8.744,4.028-2.273,5.808-1.134
					c1.306,0.843-0.402,2.188,1.163,3.028c3.188,1.708,4.943,0.048,7.291-1.539c2.146-1.45,3.195-4.899,4.927-6.773
					c5.161-5.59,13.872-9.183,18.006-15.199c3.958-5.764,3.545-13.144,0.883-19.65c-2.04-4.957-2.797-4.412-1.682-9.626
					c0.126-0.602,1.743-1.312,2.028-2.078c0.609-1.632-0.728-4.06-0.146-5.731c3.517-10.152,8.402,8.858,12.417,11.399
					c13.938,8.598,4.274-11.213,3.752-13.476c-1.676-9.374,7.187-9.031,13.432-11.626c6.104-2.542,7.738-8.793,9.765-13.944
					c4.102-10.558,3.724,4.113,9.657,6.322c5.373,1.938-0.301-14.138-2.117-17.19c-1.561-2.82-2.516-5.521-5.503-7.76
					c-2.19-1.647-7.697-1.238-9.638-2.886c-4.321-3.745,2.154-11.301,6.248-12.393c4.559-1.228,12.915,0.643,18.633,1.376
					c3.199,0.416,5.323,0.902,7.68,0.268c2.917-0.783,4.417-4.684,7.732-4.688c13.689-0.038,0.261,8.506-0.702,10.866
					c-1.351,3.942,2.037,14.051,5.982,18.776c6.288,7.45,7.749-1.631,9.818-5.878c2.341-4.693,4.078-9.576,6.15-14.033
					c3.403-7.589,21.991-0.029,27.793-6.003c2.491-2.533-1.567-12.227-6.537-16.943c-6.135-5.885-17.571-8.859-23.151-9.287
					c-4.312-0.326,2.104,2.594-3.23,1.866c-3.362-0.448-3.739-1.606-6.851-2.576c-4.063-1.276-6.371-1.366-10.168-1.979
					c-6.885-1.092-13.969-5.015-20.962-6.02c-3.969-0.566-6.82-0.171-11.505-2.546c-3.262-1.662-4.102-4.366-8.613-6.042
					c-2.541-0.949-6.188,0.313-9.104-1.832c-3.499-2.594-2.312-5.283-6.725-8.626c-1.731-1.312-7.922-3.251-9.602-3.374
					c-5.296-0.384-3.085,1.029-1.984,4.974c0.606,2.185,5.661,8.107,2.888,9.584c-1.322,0.704-7.518-1.854-9.703-2.166
					c-0.153-0.025-7.186-0.726-6.012-0.256c-5.869-2.337,4.375,3.392-2.099-0.289c-4.268-2.437-5.027-7.088-10.464-9.247
					c-6.431-2.581-10.791,1.408-16.415,0.892c-2.776-0.268-8.997-1.601-12.005-3.202c-5.892-3.144-5.092-6.055-9.435-9.203
					c-4.185-3.044-17.684-5.653-21.943-6.102c-5.327-0.586-10.053,2.202-15.252,2.541c-5.83,0.375-11.553,0.294-17.146,1.349
					c-7.182,1.354-14.422,3.663-22.131,4.329C661.386,64.104,655.99,62.24,652.584,65.784 M532.838,112.706
					c-9.011-1.188-4.138,13.048-14.903,10.239c-7.653-1.996,0.199-5.267,1.333-11.736c0.795-4.339-0.217-22.847,8.971-14.045
					c0.521,0.496,3.411,7.155,3.866,7.881C532.597,105.853,539.553,112.028,532.838,112.706 M533.15,200.288
					c-4.884-1.079-7.146,5.423-12.842,4.424c-3.385-0.59-8.082-4.196-11.02-5.947c-4.753-2.827-4.661-3.426-7.093-8.273
					c-2.543-5.074-3.094-6.759-9.679-7.146c-4.259-0.255-18.304,5.462-20.614,1.918c-2.189-3.405,8.916-15.498,11.392-17.497
					c3.055-2.445,6.548-3.929,11.007-3.764c5.97,0.219,5.464,1.791,9.984,5.562c2.504,2.085,6.021,4.458,8.797,6.076
					c1.731,1.008,1.034,2.725,3.343,3.163c3.173,0.606,2.415-3.376,4.239-3.417c6.707-0.157,4.624,4.265,8.977,7.262
					c6.351,4.365,3.852-1.238,6.939-4.426c4.631-4.781,4.217-0.413,6.747,3.396c2.853,4.294,6.08,6.265,11.134,7.056
					c6.135,0.957,11.811-2.274,12.394,6.344c0.316,4.712-3.115,9.364-7.41,10.104C552.182,206.37,540.533,201.644,533.15,200.288
					 M411.865,60.031c7.957,0.916,7.914-8.918,9.092-15.303c1.778-9.79,2.942-9.031,9.785-16.535
					c4.057-4.454,7.265-11.625-0.182-10.659c-6.049,0.798-9.339,8.126-12.958,0.925c-3.72-7.534,0.341-13.421-8.999-12.922
					c-5.852,0.321-8.886-2.629-14.332-3.348c-5.229-0.689-11.558,1.532-17.178,3.813c-6.316,2.572-10.645,6.552-15.691,9.599
					c-0.314,0.19-0.944-1.89-2.37-0.806c-1.158,0.879-1.208,2.987-2.11,3.808c-3.266,2.961-3.154,4.778-7.799,5.237
					c-7.572,0.757-9.445,0.329-17.878,5.825c-5.419,3.528-9.097,7.691-14.208,12.175c-4.742,4.165-13.15,5.49-12.181,10.519
					c1.134,5.633,10.475,3.157,15.078,3.83c5.981,0.867,12.374-0.065,15.121,6.163c2.003,4.502-0.398,10.957,0.688,15.582
					c0.348,1.475,2.258,2.25,2.793,3.889c1.291,3.951-0.312,9.606,1.082,13.573c0.987,2.837,3.913,6.959,6.355,8.478
					c2.263,1.412,7.117,4.539,9.597,3.975c2.398-0.552,3.298-2.455,4.889-4.225c0.697-0.776,1.205-3.7,1.814-4.727
					c0.834-1.404,2.619-1.517,3.644-3.066c3.458-5.242,1.999-5.488,8.803-8.37c4.357-1.85,7.555-4.725,11.382-6.614
					c4.642-2.288,9.947-2.792,14.658-4.864c2.485-1.091,8.021-2.837,9.475-5.48C410.979,69.118,409.687,60.438,411.865,60.031
					 M430.136,92.188c3.908-0.722,8.271-3.266,6.711-7.882c-1.562-4.685-14.546-2.056-17.957-1.25
					c-2.997,0.705-3.817-1.96-5.987,2.434c-2.457,4.962-0.13,4.409,2.263,6.394C418.861,94.953,426.672,98.015,430.136,92.188
					 M607.479,360.371c-4.9-3.83-16.686,8.878-18.989,14.048c-1.828,4.117-3.875,21.754-2.893,25.423
					c3.992,14.782,13.916-7.359,16.049-13.172C604.573,378.546,609.648,366.726,607.479,360.371 M778.194,343.5
					c1.679-1.244,1.712-1.765,0.102-1.59c3.181,0.247-3.825-5.847-7.137-6.221c-3.761-0.417-12.612,1.611-14.071-2.88
					c-1.273-3.864,4.66-7.674,1.775-11.915c-1.903-2.797-6.746-4.401-10.534-3.7c-13.57,2.57,2.559,19.031,7.377,22.049
					c3.055,1.896,6.643,1.041,10.351,1.938C769.865,342.104,773.326,346.009,778.194,343.5
					C778.609,343.014,777.678,343.766,778.194,343.5 M850.568,193.475c-0.709,2.278-1.729,4.654-3.844,6.038
					c-3.914,2.556-8.082-0.373-11.827,1.279c-2.896,1.278-10.59,9.542-6.686,13.597c3.688,3.757,11.423-1.676,15.187-2.78
					c4.922-1.461,9.933-3.849,12.856-7.575c4.04-5.167,0.188-9.637,0.97-15.204c0.743-5.645,9.43-1.977,9.997-6.765
					c0.554-5.179-11.147-8.174-14.72-6.234C847.032,178.825,850.054,190.867,850.568,193.475 M781.685,296.727
					c-1.492,2.125-4.817,4.682-7.172,6.139c-0.538,0.328-5.381,1.249-5.37,1.238c-3.177,3.441-1.469,11.248,0.314,14.264
					c2.16,3.602,7.804,6.94,12.864,6.122c7.901-1.27,5.965-5.784,8.791-11.166c1.066-2.021,3.72-3.277,4.358-5.549
					c0.953-3.387-1.909-5.922-1.323-9.27c0.413-2.396,4.318-1.729,4.203-4.502c-0.122-2.74-2.107,0.065-2.513-1.047
					c-2.403-6.53-2.941-5.966-7.631-2.005c-0.02,0.948-0.039,1.894-0.062,2.838c-2.012-0.146-3.681,0.468-5.019,1.827
					C780.384,297.368,782.156,296.026,781.685,296.727C779.799,299.41,782.61,295.349,781.685,296.727"/>
			</g>
		</g>
		<g>
			<path fill="#DCD139" d="M583.233,405.54v-7.146c0-2.665,2.589-4.833,5.771-4.833h3.494v11.979H583.233z"/>
			<path fill="#422933" d="M589.755,419.675c-3.062,0-5.553-2.168-5.553-4.833v-9.362h8.298v14.195H589.755z"/>
			<path fill="#DCD139" d="M660.373,405.54v-11.979h3.495c3.184,0,5.771,2.168,5.771,4.833v7.146H660.373z"/>
			<path fill="#422933" d="M660.373,419.675v-14.195h8.297v9.362c0,2.665-2.49,4.833-5.552,4.833H660.373z"/>
			<path fill="#D75E3C" d="M602.345,428.394c-5.88,0-10.664-4.165-10.664-9.285v-45.867h69.512v45.867
				c0,5.12-4.783,9.285-10.663,9.285H602.345z"/>
			<path fill="#422933" d="M606.348,419.675c-3.062,0-5.551-2.168-5.551-4.833v-9.362h51.279v9.362c0,2.665-2.49,4.833-5.552,4.833
				H606.348z"/>
			<path fill="#F4F1ED" d="M602.158,409.016l0.344-3.477h2.693l0.343,3.477c0.087,0.861-0.694,1.603-1.688,1.603
				S602.073,409.878,602.158,409.016"/>
			<path fill="#DCD139" d="M599.825,405.54v-7.146c0-2.665,2.589-4.833,5.773-4.833h41.676c3.183,0,5.771,2.168,5.771,4.833v7.146
				H599.825z"/>
			<path fill="#DCD139" d="M600.645,379.556c-3.012,0-5.892-1.121-7.896-3.078c-2.006-1.957-2.961-4.573-2.62-7.18l3.014-23.034
				c0.608-4.659,5.13-8.173,10.517-8.173h45.491c5.386,0,9.907,3.514,10.518,8.173l3.014,23.034c0.34,2.605-0.615,5.223-2.621,7.18
				s-4.884,3.078-7.896,3.078H600.645z"/>
			<polygon fill="#422933" points="604.237,385.832 604.237,367.261 611.703,367.261 611.703,385.832 607.97,389.873 			"/>
			<polygon fill="#422933" points="641.17,385.832 641.17,367.261 648.637,367.261 648.637,385.832 644.903,389.873 			"/>
			<path fill="#422933" d="M626.438,365.143c-0.371,0-0.719-0.126-0.979-0.354l-5.873-5.112c-0.263-0.229-0.406-0.531-0.406-0.854
				s0.145-0.626,0.406-0.854l5.873-5.113c0.261-0.228,0.607-0.354,0.979-0.354c0.369,0,0.718,0.126,0.979,0.354l5.872,5.113
				c0.263,0.228,0.406,0.529,0.406,0.854c0,0.321-0.145,0.625-0.406,0.854l-5.872,5.112
				C627.155,365.017,626.807,365.143,626.438,365.143"/>
			<path fill="#F4F1ED" d="M599.236,341.219c-4.809,0-8.722-3.406-8.722-7.595v-3.761c0-4.188,3.913-7.595,8.722-7.595h54.401
				c4.809,0,8.722,3.406,8.722,7.595v3.761c0,4.188-3.913,7.595-8.722,7.595H599.236z"/>
			<path fill="#D75E3C" d="M606.99,343.104c-0.856,0-1.556-0.607-1.556-1.354v-20.011c0-0.747,0.698-1.354,1.556-1.354h0.448
				c0.857,0,1.557,0.607,1.557,1.354v20.011c0,0.747-0.698,1.354-1.557,1.354H606.99z"/>
			<path fill="#D75E3C" d="M644.68,343.104c-0.858,0-1.558-0.607-1.558-1.354v-20.011c0-0.747,0.698-1.354,1.558-1.354h0.448
				c0.856,0,1.557,0.607,1.557,1.354v20.011c0,0.747-0.699,1.354-1.557,1.354H644.68z"/>
			<path fill="#F4F1ED" d="M109.518,433.516c-0.057-0.021-0.117-0.031-0.176-0.031c-0.06,0-0.119,0.011-0.177,0.031l-23.654,8.759
				v-62.992l23.831-8.824l24.168,8.949c0.057,0.021,0.116,0.031,0.176,0.031c0.061,0,0.119-0.011,0.176-0.031l23.655-8.76v62.993
				l-23.831,8.824L109.518,433.516z"/>
			<polygon fill="#DCD139" points="133.686,442.466 133.686,379.473 109.342,370.459 109.342,433.45 			"/>
			<path fill="none" stroke="#41AEB5" stroke-width="2" stroke-miterlimit="10" stroke-dasharray="2,4" d="M92.467,391.589
				c-2.487,4.583-5.49,13.007,1.804,18.647c3.056,2.361,9.063,3.779,15.071-3.774c0,0,6.576-12.077,10.416-13.621
				c8.126-3.27,14.247,8.369,14.247,21.174c0,24.146,12.086,21.435,15.156,14.595"/>
			<path fill="#422933" d="M94.416,390.85c-1.562,0-2.832-1.271-2.832-2.832c0-1.562,1.27-2.833,2.832-2.833
				c1.562,0,2.832,1.271,2.832,2.833C97.248,389.578,95.978,390.85,94.416,390.85"/>
			<path fill="#D75E3C" d="M151.424,419.057c-0.519,0-1.035,0.198-1.43,0.593l-2.014,2.013l-2.013-2.013
				c-0.394-0.395-0.912-0.593-1.43-0.593s-1.035,0.198-1.431,0.593c-0.79,0.789-0.79,2.07,0,2.86l2.014,2.013l-2.014,2.013
				c-0.79,0.79-0.79,2.07,0,2.86c0.396,0.396,0.913,0.593,1.431,0.593s1.036-0.197,1.43-0.593l2.013-2.013l2.014,2.013
				c0.395,0.396,0.913,0.593,1.43,0.593c0.518,0,1.035-0.197,1.43-0.593c0.79-0.79,0.79-2.07,0-2.86l-2.013-2.013l2.013-2.013
				c0.79-0.79,0.79-2.071,0-2.86C152.459,419.256,151.942,419.057,151.424,419.057"/>
			<path fill="#422933" d="M614.137,190.605c0,4.399-3.602,8-8,8H550.13c-4.399,0-8-3.601-8-8v-30.158c0-4.4,3.601-8,8-8h56.007
				c4.398,0,8,3.6,8,8V190.605z"/>
			<path fill="#D75E3C" d="M560.307,152.447h-6.301c0-1.02,0.825-1.846,1.847-1.846h2.608
				C559.479,150.601,560.307,151.427,560.307,152.447"/>
			<path fill="#D75E3C" d="M605.136,175.526c0,7.647-6.046,13.847-13.501,13.847c-7.457,0-13.502-6.199-13.502-13.847
				c0-7.648,6.045-13.847,13.502-13.847C599.09,161.679,605.136,167.878,605.136,175.526"/>
			<path fill="#F4F1ED" d="M600.635,175.526c0,5.098-4.029,9.231-9.001,9.231s-9.001-4.134-9.001-9.231s4.029-9.232,9.001-9.232
				C596.605,166.294,600.635,170.428,600.635,175.526"/>
			<path fill="#F4F1ED" d="M559.656,169.064h-5.001c-1.104,0-2-0.896-2-2v-3.385c0-1.105,0.896-2,2-2h5.001c1.104,0,2,0.895,2,2
				v3.385C561.656,168.169,560.761,169.064,559.656,169.064"/>
			<g opacity="0.2">
				<g>
					<g>
						<defs>
							<rect id="SVGID_5_" x="146.598" y="227.892" width="405.012" height="135.012"/>
						</defs>
						<clipPath id="SVGID_6_">
							<use xlink:href="#SVGID_5_"  overflow="visible"/>
						</clipPath>
						<path clip-path="url(#SVGID_6_)" d="M551.608,337.054c-21.671-13.716-81.232-22.897-108.275-22.057
							c-90.819,2.828-164.489,54.808-243.324,47.136c-20.153-1.961-48.707-9.648-53.41-22.226V252.16
							c0,20.505,30.823,24.102,49.021,24.102c82.096,0,145.304-48.369,253.91-48.369c19.857,0,82.839,3.988,102.079,21.413V337.054z
							"/>
					</g>
				</g>
			</g>
			<path fill="#D75E3C" d="M551.608,333.054c-21.671-13.716-81.232-22.897-108.275-22.057
				c-90.819,2.828-164.489,54.808-243.324,47.136c-20.153-1.961-48.707-9.648-53.41-22.226V248.16
				c0,20.505,30.823,24.102,49.021,24.102c82.096,0,145.304-48.369,253.91-48.369c19.857,0,82.839,3.988,102.079,21.413V333.054z"/>
		</g>
		<g enable-background="new    ">
			<path fill="#F4F1ED" d="M264.311,293.412c0.584-0.156,3.081,3.437,7.493,10.778c0.805,1.727,3.308,5.841,7.509,12.346
				l-0.688,0.185l-0.08-0.298c-2.161-6.793-3.354-10.613-3.582-11.462c-0.068-0.255-0.264-1.127-0.588-2.618
				c-0.056-0.151-0.154-0.49-0.294-1.014c-0.188-1.147-0.369-2.046-0.543-2.698l-1.618-6.049c-0.09-0.613,0.206-1.012,0.889-1.193
				l1.001,0.232c0.731,3.398,1.312,5.903,1.744,7.518l0.642,2.398c1.317,4.925,3.191,11.316,5.622,19.174l-0.722,0.648
				c-0.696,0.187-4.596-5.611-11.699-17.389l-4.226-7.013l1.113,1.066l-0.266-1.248c0.411,1.149,0.71,2.07,0.895,2.764l0.215,0.716
				c0.729,3.172,1.262,5.388,1.599,6.647c1.692,6.325,3.378,11.622,5.057,15.889l-1.044,0.279c-0.654,0.175-1.061-0.034-1.22-0.629
				c-1.642-4.853-2.984-9.233-4.03-13.14l-3.941-14.73C263.486,293.951,263.74,293.564,264.311,293.412z"/>
		</g>
		<g enable-background="new    ">
			<path fill="#F4F1ED" d="M283.195,288.233l0.217,0.052c-0.388,0.111-0.594,0.124-0.618,0.039c2.531-0.477,3.864-0.475,4.001,0.004
				l0.042,0.147c-0.032,0.572-0.283,0.927-0.754,1.062l-2.483,0.432c-0.111,0.031-0.459,0.152-1.043,0.364l0.21,0.58
				c0.265,0.93,1.417,4.479,3.456,10.646l0.083-0.023c0.401-0.115,0.74-0.24,1.015-0.381c1.335-0.257,2.376-0.494,3.125-0.707
				l0.665,0.521l0.102,0.358c0.129,0.452-0.091,0.759-0.66,0.92c-0.499,0.143-1.319,0.314-2.459,0.518
				c-0.719,0.265-1.174,0.425-1.368,0.48l-0.024-0.084c1.131,3.973,2.585,8.371,4.362,13.195c0.069-0.02,0.11-0.007,0.122,0.035
				c1.705-0.592,2.799-0.957,3.284-1.095c0.47,0.02,0.847,0.187,1.131,0.5l0.048,0.169c0.064,0.227-0.085,0.544-0.448,0.951
				c-2.188,0.683-3.496,1.116-3.922,1.299c-1.04,0.296-1.701-0.057-1.986-1.058c-1.92-5.271-3.391-9.703-4.414-13.296l-0.77-2.706
				c-1.688-4.881-2.777-8.181-3.267-9.899c-0.407-0.799-0.641-1.303-0.7-1.515l0.506-0.669l1.122-0.319
				C282.074,288.666,282.549,288.493,283.195,288.233z"/>
		</g>
		<g enable-background="new    ">
			<path fill="#F4F1ED" d="M305.398,283.293l0.437-0.127c0.318-0.092,0.633,0.039,0.945,0.391
				c2.944,12.477,5.007,21.068,6.187,25.774c0.145,1.331-0.04,2.071-0.552,2.219l-0.166,0.048c-0.568,0.164-1.699-1.156-3.394-3.959
				c-2.832-4.353-4.282-6.647-4.352-6.887l0.935-0.271c1.38,6.388,2.354,10.565,2.924,12.536l-0.466,0.569l-0.436,0.126
				c-0.54,0.155-1.247-0.813-2.122-2.908c-2.898-5.462-6.238-12.531-10.021-21.215c-0.028,0.009-0.31-0.474-0.846-1.447
				c-0.073-0.254,0.077-0.586,0.453-1l0.499-0.145c0.567-0.164,1.545,1.43,2.933,4.779c2.92,6.369,4.811,10.421,5.671,12.154
				l1.982,3.979l-0.872,0.252c-1.635-7.32-2.427-11.308-2.376-11.962l0.726-0.37c0.637-0.185,1.433,0.913,2.39,3.289
				c0.649,1.261,2.114,3.658,4.395,7.193l1.212,1.938l-0.603,0.562c-2.542-10.047-4.521-18.373-5.934-24.979L305.398,283.293z"/>
		</g>

			<text transform="matrix(0.9471 -0.2653 0.2697 0.963 318.634 310.0349)" fill="#F4F1ED" font-family="'MoonFlowerBold'" font-size="45.0046"> </text>
		<g>
			<path fill="#422933" d="M115.7,225.492l-9.55,9.549l-3.918-3.918l9.55-9.549c0.78-0.781,2.047-0.781,2.828,0l1.09,1.09
				C116.48,223.445,116.48,224.711,115.7,225.492"/>
			<path fill="#422933" d="M109.089,206.245l-9.549,9.549l-3.918-3.918l9.549-9.549c0.781-0.781,2.047-0.781,2.829,0l1.089,1.09
				C109.87,204.198,109.87,205.464,109.089,206.245"/>
			<path fill="#422933" d="M52.72,162.512l-9.549,9.549l3.918,3.918l9.549-9.549c0.781-0.781,0.781-2.048,0-2.829l-1.09-1.089
				C54.767,161.731,53.5,161.731,52.72,162.512"/>
			<path fill="#422933" d="M71.967,169.123l-9.549,9.549l3.918,3.918l9.549-9.549c0.781-0.78,0.781-2.047,0-2.829l-1.09-1.089
				C74.014,168.342,72.748,168.342,71.967,169.123"/>
			<polygon fill="#D75E3C" points="100.483,187.697 111.566,245.102 99.327,257.34 79.645,208.536 			"/>
			<polygon fill="#D75E3C" points="41.704,243.238 46.512,260.595 41.425,267.642 31.576,252.807 			"/>
			<polygon fill="#D75E3C" points="90.514,177.729 33.11,166.646 20.871,178.885 69.676,198.567 			"/>
			<polygon fill="#D75E3C" points="34.974,236.508 17.617,231.7 10.57,236.788 25.405,246.637 			"/>
			<path fill="#F4F1ED" d="M110.606,180.428l-79.029,72.379l-6.172-6.171l72.38-79.03c3.753-3.973,16.127-10.542,19.744-6.923
				C121.148,164.301,114.578,176.675,110.606,180.428"/>
			<path fill="#43B0B7" d="M112.641,170.255c-1.171-1.744-2.666-3.24-4.412-4.411c-1.059-0.712-2.393-0.401-2.855,0.521
				c-0.469,0.924-0.118,2.01,0.686,2.554c1.387,0.932,2.575,2.12,3.506,3.506c0.545,0.806,1.629,1.154,2.555,0.687
				C113.042,172.648,113.352,171.314,112.641,170.255"/>
			<g opacity="0.6">
				<g>
					<g>
						<defs>
							<rect id="SVGID_7_" x="31.593" y="276.959" width="89.921" height="38.589"/>
						</defs>
						<clipPath id="SVGID_8_">
							<use xlink:href="#SVGID_7_"  overflow="visible"/>
						</clipPath>
						<path clip-path="url(#SVGID_8_)" fill="#CCCCCC" d="M120.396,315.548c-0.617,0-1.118-0.5-1.118-1.118
							c0-3.521-2.261-6.582-5.625-7.613c-0.421-0.13-0.727-0.493-0.781-0.931c-0.915-7.313-7.17-12.83-14.551-12.83
							c-0.986,0-1.974,0.1-2.936,0.294c-0.308,0.062-0.63-0.009-0.885-0.194c-0.254-0.188-0.417-0.475-0.449-0.788
							c-0.761-7.509-7.035-13.173-14.594-13.173c-8.088,0-14.668,6.582-14.668,14.67c0,0.838,0.074,1.695,0.225,2.549
							c0.053,0.308-0.022,0.622-0.212,0.87c-0.188,0.247-0.472,0.405-0.782,0.436c-3.713,0.357-7.121,2.107-9.596,4.928
							c-0.212,0.241-0.52,0.38-0.84,0.38h-0.005c-0.324-0.002-0.631-0.144-0.843-0.389c-2.049-2.379-5.02-3.743-8.151-3.743
							c-5.932,0-10.757,4.825-10.757,10.758c0,0.616-0.5,1.116-1.117,1.116c-0.618,0-1.118-0.5-1.118-1.116
							c0-7.164,5.828-12.993,12.992-12.993c3.37,0,6.586,1.308,8.997,3.624c2.483-2.454,5.637-4.066,9.066-4.637
							c-0.063-0.599-0.096-1.193-0.096-1.781c0-9.321,7.584-16.904,16.904-16.904c8.311,0,15.273,5.941,16.656,14.004
							c0.731-0.096,1.47-0.144,2.207-0.144c8.271,0,15.314,6.011,16.666,14.093c3.934,1.51,6.527,5.248,6.527,9.518
							C121.514,315.048,121.013,315.548,120.396,315.548"/>
					</g>
				</g>
			</g>
			<g opacity="0.6">
				<g>
					<g>
						<defs>
							<rect id="SVGID_9_" x="640.46" y="191.188" width="22.859" height="22.866"/>
						</defs>
						<clipPath id="SVGID_10_">
							<use xlink:href="#SVGID_9_"  overflow="visible"/>
						</clipPath>

							<polygon clip-path="url(#SVGID_10_)" fill="none" stroke="#CCCCCC" stroke-width="2.5" stroke-linecap="round" stroke-linejoin="round" stroke-miterlimit="10" points="
							648.957,202.479 643.021,192.438 652.029,199.69 662.07,193.753 654.817,202.762 660.756,212.803 651.745,205.55
							641.704,211.487 						"/>
					</g>
				</g>
			</g>
			<g opacity="0.6">
				<g>
					<g>
						<defs>
							<rect id="SVGID_11_" x="538.78" y="89.289" width="25.63" height="25.637"/>
						</defs>
						<clipPath id="SVGID_12_">
							<use xlink:href="#SVGID_11_"  overflow="visible"/>
						</clipPath>

							<polygon clip-path="url(#SVGID_12_)" fill="none" stroke="#CCCCCC" stroke-width="2.5" stroke-linecap="round" stroke-linejoin="round" stroke-miterlimit="10" points="
							548.735,101.459 544.633,90.539 552.243,99.247 563.163,95.145 554.455,102.756 558.558,113.676 550.947,104.969
							540.027,109.07 						"/>
					</g>
				</g>
			</g>
			<g opacity="0.6">
				<g>
					<g>
						<defs>
							<rect id="SVGID_13_" x="648.829" y="38.777" width="27.851" height="27.854"/>
						</defs>
						<clipPath id="SVGID_14_">
							<use xlink:href="#SVGID_13_"  overflow="visible"/>
						</clipPath>

							<polygon clip-path="url(#SVGID_14_)" fill="none" stroke="#CCCCCC" stroke-width="2.5" stroke-linecap="round" stroke-linejoin="round" stroke-miterlimit="10" points="
							661.464,50.068 667.4,40.026 665.387,51.416 675.429,57.352 664.039,55.34 658.104,65.38 660.116,53.992 650.074,48.056
													"/>
					</g>
				</g>
			</g>

				<path fill="none" stroke="#B3B3B3" stroke-width="4" stroke-linecap="round" stroke-linejoin="round" stroke-miterlimit="10" stroke-dasharray="2,8" d="
				M22.772,267.641c0,0-46.889,94.869,44.115,138.82"/>

				<path fill="none" stroke="#B3B3B3" stroke-width="4" stroke-linecap="round" stroke-linejoin="round" stroke-miterlimit="10" stroke-dasharray="2,8" d="
				M614.137,305.478c0,0,1.479-52.783-20.936-91.191"/>

				<path fill="none" stroke="#999999" stroke-width="4" stroke-linecap="round" stroke-linejoin="round" stroke-miterlimit="10" stroke-dasharray="2,8" d="
				M600.635,67.211c0,0-54.811-86.543-107.206-15.305c-54.905,74.65-117.205,26.899-117.205,26.899"/>
			<g opacity="0.6">
				<g>
					<g>
						<defs>
							<rect id="SVGID_15_" x="233.281" y="0" width="38.505" height="29.502"/>
						</defs>
						<clipPath id="SVGID_16_">
							<use xlink:href="#SVGID_15_"  overflow="visible"/>
						</clipPath>

							<path clip-path="url(#SVGID_16_)" fill="none" stroke="#CCCCCC" stroke-width="2.5" stroke-linecap="round" stroke-linejoin="round" stroke-miterlimit="10" d="
							M261.71,10.259V10.25c0-4.971-4.029-9.001-9-9.001c-4.972,0-9.001,4.03-9.001,9.001v0.009
							c-0.06-0.001-0.117-0.009-0.178-0.009c-4.971,0-9,4.03-9,9.001c0,4.972,4.029,9.001,9,9.001h18.003
							c4.971,0,9.001-4.029,9.001-9.001C270.535,14.339,266.599,10.354,261.71,10.259z"/>
					</g>
				</g>
			</g>
			<g opacity="0.6">
				<g>
					<g>
						<defs>
							<rect id="SVGID_17_" x="409.45" y="28.952" width="38.499" height="29.502"/>
						</defs>
						<clipPath id="SVGID_18_">
							<use xlink:href="#SVGID_17_"  overflow="visible"/>
						</clipPath>

							<path clip-path="url(#SVGID_18_)" fill="none" stroke="#CCCCCC" stroke-width="2.5" stroke-linecap="round" stroke-linejoin="round" stroke-miterlimit="10" d="
							M419.524,39.211c0-0.003,0-0.006,0-0.006c0-4.974,4.029-9.004,9-9.004s9.001,4.03,9.001,9.001c0,0,0,0.006,0,0.009
							c0.06-0.001,0.117-0.009,0.177-0.009c4.973,0,9,4.03,9,9.001s-4.027,9.001-9,9.001H419.7c-4.972,0-9.001-4.03-9.001-9.001
							C410.699,43.292,414.636,39.307,419.524,39.211z"/>
					</g>
				</g>
			</g>
			<path fill="#666666" d="M395.488,8.092c-3.778-3.983-8.938-7.925-14.771-6.569c-7.251,1.685-9.702,8.966-10.889,15.55
				c-2.192-4.554-5.59-8.434-10.49-9.564c-7.799-1.799-14.997,3.354-18.488,10.007c-3.69,7.033-4.456,15.611-3.291,23.621
				c-5.299-6.8-12.04-12.581-21.142-12.572c-10.058,0.009-17.201,7.913-15.869,18.006c0.093,0.711,0.226,1.412,0.39,2.104
				c-0.02-0.036-0.028-0.074-0.058-0.109c-2.112-2.562-5.147-3.593-8.354-4.104c-4.023-0.64-8.923-1.174-12.582,1.032
				c-5.861,3.535-4.607,11.424-1.783,16.521c2.026,3.656,4.846,6.918,8.126,9.508c1.983,1.566,6.166,5.067,8.949,4.334
				c2.925-0.771,2.255-4.818,1.502-6.955c-0.479-1.356-1.19-2.59-2.036-3.737c0.864,0.068,1.773-0.109,2.716-0.65
				c2.121-1.219,2.449-2.901,1.906-4.581c1.839,0.44,3.712,0.295,5.203-0.867c0.566-0.441,0.353-1.483-0.409-1.551
				c-1.46-0.131-2.833,0.261-4.307-0.003c-0.959-0.172-1.842-0.514-2.646-0.989c-0.828-0.898-1.742-1.666-2.522-2.188
				c-1.028-0.688-2.383,0.527-1.575,1.581c0.816,1.066,2.049,2.105,3.448,2.893c1.119,1.728,1.299,4.105-1.777,4.333
				c-1.086,0.08-2.031-0.417-2.86-1.139c-0.141-0.136-0.283-0.269-0.426-0.401c-0.094-0.094-0.186-0.188-0.275-0.285
				c0.029-0.261-0.027-0.542-0.221-0.815c-0.457-0.646-0.903-1.058-1.467-1.312c-0.066-0.089-0.133-0.178-0.195-0.262
				c-0.249-0.329-0.709-0.268-0.971-0.031c-0.093-0.01-0.182-0.023-0.279-0.029c-1.178-0.076-1.857,1.343-0.896,2.134
				c2.149,1.769,4.334,3.61,5.918,5.925c0.595,0.868,2.284,3.541,1.925,4.836c-0.756,2.718-2.959,0.624-4.203-0.172
				c-4.524-2.893-8.597-7.105-10.819-12.037c-2.351-5.216-2.179-11.664,4.736-12.852c4.607-0.791,11.596-0.449,15.191,2.849
				c0.462,0.425,1.105-0.053,1.118-0.571c2.479,9.812,11.729,17.646,20.086,22.491c9.65,5.595,20.271,8.023,31.375,7.169
				c0.767-0.06,0.856-0.854,0.479-1.309c11.005-11.005,20.065-28.217,20.183-44.404c2.135,1.524,5.813,1.063,7.752-0.489
				c1.673-1.342,2.412-3.308,2.348-5.278c1.902,1.039,4.006,1.475,6.157,0.396c0.668-0.336,0.921-0.969,0.705-1.682
				c-0.419-1.376-0.959-2.709-1.602-3.989c3.595,2.827,7.942,4.834,11.152,2.337C405.64,19.558,399.008,11.802,395.488,8.092
				 M350.534,75.691c-0.355,0.384-0.39,0.851-0.234,1.27c-8.306-0.341-16.727-2.496-24.154-6.126
				c-8.26-4.037-16.981-10.69-20.956-19.195c-2.15-4.604-2.67-10.246,0.17-14.68c2.731-4.263,7.875-5.739,12.71-5.318
				c9.97,0.87,16.44,9.793,21.438,17.505c0.981,1.519,3.073,0.026,2.595-1.495c-3.023-9.612-3.209-22.438,2.796-31.036
				c2.773-3.973,7.569-6.973,12.573-6.369c5.718,0.69,9.003,6.137,10.803,11.085C375.05,39.956,362.93,62.324,350.534,75.691
				 M399.001,17.424c0.824,2.95-1.142,5.449-4.842,4.56c-1.175-0.283-2.291-1.185-3.3-1.864c-2.216-1.497-4.089-3.338-5.878-5.313
				c-1.078-1.191-3.02,0.238-2.006,1.547c0.086,0.11,0.177,0.226,0.271,0.343c2.02,2.763,3.368,5.487,4.147,8.784
				c-2.369,0.383-4.505-1.572-6.172-3.14c-1.083-1.018-2.805,0.722-1.84,1.848c1.675,1.959,1.786,5.365-0.883,6.65
				c-1.975,0.951-3.6-0.296-5.439-0.846c-0.062-0.991-0.152-1.978-0.288-2.956c-0.327-2.376-0.939-4.969-1.877-7.475
				c1.227-4.96,2.549-10.595,6.869-13.855c4.303-3.248,9.172-1.598,12.95,1.505C393.588,9.569,397.979,13.762,399.001,17.424"/>
		</g>
	</g>
	<g>
		<path fill="#FFFFFF" d="M330.959,277.271l0.882-0.183c0.048,0.229,1.755,0.06,5.121-0.513c1.396-0.122,2.16,0.14,2.293,0.785
			l0.03,0.151c-0.562,3.749-1.016,9.3-1.359,16.652c-0.553,3.644-0.67,6.239-0.354,7.788c0.183,0.009,0.781-0.093,1.801-0.302
			c0.56-0.115,1.823-0.404,3.792-0.868c0.764-0.066,1.126-0.201,1.084-0.4l-0.463,0.363l0.321-0.065
			c0.303-0.062,0.643,0.101,1.021,0.484l0.075,0.366c0.062,0.302-0.229,0.639-0.87,1.009c-0.571-0.018-1.052,0.015-1.438,0.095
			c-0.816,0.167-2.14,0.469-3.964,0.902c-1,0.085-1.916,0.214-2.748,0.385c-0.344-0.362-0.531-0.623-0.562-0.781
			c-0.299-1.449-0.209-4.405,0.265-8.869c0.145-1.047,0.379-4.714,0.703-11.001c0.294-2.064,0.481-3.695,0.564-4.895
			c-0.358-0.001-2.33,0.263-5.917,0.788c-0.489-0.348-0.766-0.673-0.827-0.975C330.36,277.962,330.544,277.654,330.959,277.271z"/>
		<path fill="#FFFFFF" d="M348.91,269.835l0.216,0.071c-0.403,0.077-0.613,0.072-0.63-0.014c2.604-0.262,3.955-0.146,4.048,0.343
			l0.028,0.151c-0.085,0.567-0.371,0.897-0.86,0.991l-2.553,0.222c-0.115,0.021-0.479,0.113-1.089,0.274l0.158,0.598
			c0.183,0.948,1.021,4.585,2.515,10.904l0.087-0.017c0.417-0.08,0.771-0.177,1.062-0.293c1.374-0.145,2.45-0.29,3.228-0.438
			l0.625,0.573l0.068,0.367c0.089,0.461-0.162,0.747-0.752,0.86c-0.519,0.099-1.363,0.2-2.536,0.307
			c-0.752,0.204-1.229,0.324-1.43,0.363l-0.017-0.087c0.776,4.058,1.842,8.565,3.193,13.526c0.072-0.014,0.112,0.001,0.121,0.046
			c1.778-0.445,2.92-0.718,3.424-0.812c0.474,0.059,0.839,0.257,1.099,0.595l0.032,0.173c0.045,0.23-0.137,0.533-0.542,0.909
			c-2.275,0.495-3.64,0.816-4.089,0.962c-1.078,0.206-1.716-0.199-1.911-1.223c-1.455-5.418-2.534-9.962-3.236-13.631l-0.529-2.763
			c-1.258-5.01-2.054-8.392-2.391-10.146c-0.338-0.831-0.527-1.354-0.568-1.569l0.573-0.625l1.166-0.223
			C347.737,270.172,348.233,270.04,348.91,269.835z"/>
		<path fill="#FFFFFF" d="M361.074,267.922l0.217-0.038c1.122,0.294,2.149,1.271,3.083,2.938c2.496,4.707,4.808,10.858,6.937,18.456
			c0.947,2.421,1.594,4.612,1.939,6.574c-0.098,0.463-0.557,0.768-1.378,0.912c-0.464-0.603-1.294-2.947-2.49-7.035
			c-0.209-0.424-0.802-2.188-1.78-5.286l-0.198,0.013c-2.694,0.743-4.034,1.158-4.02,1.244l0.595,3.376l0.812,8.022
			c0.163,0.165,0.266,0.369,0.31,0.614c0.043,0.245-0.161,0.563-0.612,0.956c-0.98,0.174-1.555-0.21-1.72-1.146
			c-0.627-6.166-1.047-9.855-1.26-11.067c-0.198-0.783-0.369-1.586-0.515-2.408c-0.706-4.174-1.139-8.648-1.296-13.427
			C359.75,268.974,360.209,268.074,361.074,267.922z M361.856,270.082c-0.235,2.957,0.119,7.126,1.068,12.507
			c-0.06,0.011,0.011,0.57,0.207,1.683l-0.059-0.325c1.33-0.636,2.688-1.076,4.073-1.32l0.059,0.324
			c-0.307-1.729-1.986-5.696-5.043-11.896C361.664,270.339,361.562,270.015,361.856,270.082z"/>
		<path fill="#FFFFFF" d="M375.081,263.955l0.087-0.014c0.316-0.051,0.649,0.127,0.996,0.531c0.104,0.65,0.184,0.972,0.241,0.963
			l-0.229-0.319c1.416,6.301,2.468,11.614,3.154,15.939c0.396,1.376,0.793,3.309,1.188,5.797l1.131,7.117l4.146-0.658
			c0.332-0.054,0.632,0.106,0.898,0.479l0.056,0.348c0.083,0.521-0.549,0.889-1.896,1.102l-3.992,0.635
			c-0.304,0.048-0.637-0.129-0.997-0.53l-0.1-0.631c-0.11-0.693-0.151-1.044-0.122-1.048l-0.137-0.579l-1.01-6.357
			c-1.44-7.573-2.679-13.865-3.711-18.878l-0.727-2.89C374.148,264.385,374.487,264.049,375.081,263.955z"/>
		<path fill="#FFFFFF" d="M390.431,263.211l0.218-0.028c1.11,0.334,2.102,1.352,2.972,3.051c2.315,4.797,4.395,11.032,6.233,18.704
			c0.855,2.455,1.419,4.67,1.69,6.643c-0.114,0.46-0.585,0.746-1.412,0.86c-0.44-0.619-1.181-2.994-2.223-7.124
			c-0.192-0.433-0.72-2.216-1.579-5.352l-0.199,0.007c-2.721,0.641-4.075,1.005-4.063,1.092l0.468,3.396l0.51,8.048
			c0.156,0.172,0.252,0.38,0.285,0.626c0.034,0.247-0.183,0.559-0.647,0.933c-0.987,0.136-1.545-0.269-1.675-1.211
			c-0.394-6.187-0.674-9.889-0.842-11.107c-0.168-0.79-0.31-1.599-0.423-2.426c-0.549-4.197-0.812-8.686-0.789-13.466
			C389.067,264.212,389.56,263.331,390.431,263.211z M391.131,265.399c-0.349,2.946-0.15,7.125,0.595,12.538
			c-0.058,0.008-0.01,0.569,0.145,1.688l-0.045-0.327c1.354-0.585,2.728-0.974,4.119-1.166l0.046,0.327
			c-0.239-1.742-1.771-5.768-4.591-12.078C390.929,265.648,390.839,265.321,391.131,265.399z"/>
		<path fill="#FFFFFF" d="M404.604,261.021c0.611-0.066,2.555,3.864,5.828,11.79c0.536,1.828,2.402,6.274,5.598,13.341l-0.721,0.078
			l-0.033-0.308c-1.101-7.041-1.697-10.999-1.793-11.873c-0.027-0.262-0.088-1.153-0.179-2.677
			c-0.032-0.158-0.077-0.507-0.135-1.046c-0.009-1.163-0.049-2.08-0.121-2.75l-0.673-6.226c0.006-0.62,0.366-0.969,1.08-1.045
			l0.97,0.381c0.198,3.47,0.388,6.036,0.566,7.695l0.268,2.47c0.548,5.067,1.424,11.67,2.628,19.806l-0.826,0.531
			c-0.729,0.078-3.731-6.241-9.013-18.961l-3.14-7.572l0.949,1.224l-0.07-1.273c0.231,1.198,0.388,2.153,0.465,2.867l0.102,0.739
			c0.233,3.246,0.42,5.518,0.562,6.812c0.704,6.511,1.562,12.002,2.577,16.474l-1.093,0.118c-0.686,0.074-1.061-0.194-1.126-0.806
			c-0.886-5.047-1.545-9.58-1.979-13.601l-1.641-15.159C403.69,261.43,404.007,261.086,404.604,261.021z"/>
		<path fill="#FFFFFF" d="M419.258,258.427l0.745-0.054c2.587,0.653,4.62,2.103,6.102,4.348c2.174,3.723,3.405,7.622,3.695,11.697
			l0.03,0.438c0.415,5.845-1.398,10.798-5.442,14.858c-0.656,0.268-1.103,0.408-1.335,0.426c-0.497,0.034-0.851-0.578-1.058-1.842
			l0.075-0.182c-0.252-1.273-0.513-3.29-0.781-6.047l-0.153,0.012l0.201,0.338l-0.014-0.176c-0.164-2.309-0.283-4.414-0.36-6.317
			L419.258,258.427z M421.511,260.69l-0.04-0.57c0.525,6.586,1.013,11.779,1.459,15.58c0.053,1.568,0.138,3.177,0.255,4.828
			l0.074,1.052c0.157,2.207,0.379,4.195,0.667,5.967c0.699-0.695,1.546-1.997,2.542-3.902c1.122-3.018,1.592-5.812,1.409-8.383
			l-0.062-0.878c-0.256-3.607-1.409-7.228-3.459-10.855C422.997,261.774,422.05,260.828,421.511,260.69z"/>
		<path fill="#FFFFFF" d="M435.938,257.457c0.308-0.009,0.622,0.225,0.942,0.699l-0.097,0.508
			c1.293,6.441,1.991,11.493,2.094,15.153c0.032,1.201,0.148,4.312,0.348,9.332l-0.604,0.435l-0.55,0.017
			c-0.339-0.079-0.617-0.343-0.835-0.79c-0.178-4.274-0.295-7.422-0.351-9.442l-0.121-1.161c0.056-0.104,0.083-0.192,0.081-0.267
			c-0.046-1.625-0.729-6.112-2.046-13.461C434.781,257.818,435.16,257.478,435.938,257.457z M437.924,286.943
			c0.879-0.024,1.328,0.322,1.348,1.04c-0.119,0.984-0.596,1.489-1.431,1.513c-0.696-0.272-1.053-0.674-1.066-1.201
			C436.761,287.797,437.144,287.347,437.924,286.943z"/>
	</g>
</g>
</svg>
