<?xml version="1.0" encoding="utf-8"?>
<!-- Generator: Adobe Illustrator 19.1.0, SVG Export Plug-In . SVG Version: 6.00 Build 0)  -->
<svg version="1.1" id="Livello_1" xmlns="http://www.w3.org/2000/svg" xmlns:xlink="http://www.w3.org/1999/xlink" x="0px" y="0px"
	 viewBox="0 0 670.2 470.4" enable-background="new 0 0 670.2 470.4" xml:space="preserve">
<g>
	<g>
		<path fill="#F4F1ED" d="M642.6,161.6h-57.7c-1.1,0-2-0.9-2-2v-68c0-1.1,0.9-2,2-2h57.7c1.1,0,2,0.9,2,2v68
			C644.6,160.7,643.7,161.6,642.6,161.6z"/>
		<rect x="588" y="94.7" fill="#D75E3C" width="51.4" height="51.4"/>
		<path fill="#422933" d="M607.8,118.6l8.2,14.3c0.8,1.3,2.7,1.4,3.5,0.1l3.2-4.8c0.8-1.2,2.7-1.2,3.5,0l8.1,12.8h-41.1l11.1-22.3
			C605,117.3,607,117.2,607.8,118.6z"/>
		<circle fill="#DCD139" cx="626.6" cy="107.6" r="7.7"/>
	</g>
	<path fill="#422933" d="M172.1,249c-27.2-12.4-30.7-3.4-30.7-3.4v50.5c9.1,7.3,76.7,17.4,76.7,17.4v-44.2
		C218.1,269.3,191.8,258,172.1,249z"/>
	<path fill="#422933" d="M515.7,336.6c27.2,12.4,30.7,3.4,30.7,3.4v-50.5c-9.1-7.3-76.7-17.4-76.7-17.4v44.2
		C469.7,316.3,495.9,327.6,515.7,336.6z"/>
	<g>
		<circle fill="#94B69A" cx="343.9" cy="290.4" r="180"/>
		<g>
			<defs>
				<path id="path3924_7_" d="M343.9,452.4c-43.3,0-84-16.9-114.6-47.5s-47.5-71.3-47.5-114.6s16.9-84,47.5-114.6
					c30.6-30.6,71.3-47.5,114.6-47.5s84,16.9,114.6,47.5c30.6,30.6,47.5,71.3,47.5,114.6s-16.9,84-47.5,114.6
					C427.9,435.6,387.2,452.4,343.9,452.4z"/>
			</defs>
			<clipPath id="path3924_1_">
				<use xlink:href="#path3924_7_"  overflow="visible"/>
			</clipPath>
			<g clip-path="url(#path3924_1_)">
				<defs>
					<path id="SVGID_14_" d="M568.5,85.3c3.2,0.7,10,6.3,13,2.1c2.5-3.5-1.9-4.4,0-7.7c4.6-8.1,24.9,0.5,26-9.4
						c0.6-5.2-3.9-2.2-6.3-1.7c-4.3,0.7-8.4,0.3-12.8,1.1c-6.3,1.1-8,3.2-13.1,6.6C573.8,77.2,563.1,83.2,568.5,85.3z M249.1,81.9
						C248.9,81,249.1,81.7,249.1,81.9L249.1,81.9z M777.6,400l-1.6,1.1c-0.7,0.5-1.4,0.5-1.9,0l0,0c-0.2-0.2-0.5-0.3-0.8-0.2l-0.1,0
						c-0.5,0.1-0.9,0.3-1.1,0.7l-0.4,0.8c-0.2,0.4-0.2,0.9,0.1,1.3l2.7,2.2l1.3,2.7c0.3,0.7,1.2,1,1.9,0.6l0.9-0.5
						c0.4-0.2,0.7-0.5,0.8-1c0.3-1.2,1-3.6,1.3-5.6c0.2-1.2,0.5-2.3-0.1-2.8c-0.6-0.5-1.6,0.1-2.1,0.2
						C778.2,399.6,777.8,399.8,777.6,400z M728.6,257.5L728.6,257.5c-0.4-0.1-0.8,0-1.1,0.2l-0.9,0.6c-1.1,0.7-1.7,2-1.5,3.3l0,0
						c0.2,1.2,0.9,2.3,2,2.9l1.9,1.1c0.7,0.4,1.5,0.6,2.3,0.5l0.9,0c1.5-0.1,2.8-1,3.3-2.4l0.3-0.7c0.5-1.4,0.4-3-0.3-4.3l-0.8-1.5
						c-0.5-0.9-1.7-1.1-2.4-0.4l0,0C731.3,257.6,729.9,257.9,728.6,257.5z M782.8,342.2l-7.3-7.6c-0.4-0.4-0.6-0.8-0.8-1.3
						l-3.5-10.3c0-0.1,0-0.1-0.1-0.2l-2.6-6.5c-0.4-1.1-0.3-2.3,0.3-3.3l1.7-2.6c0.7-1,2-1.3,3-0.7l3.3,2l2.4,2.3
						c1.2,1.1,3.1,0.5,3.4-1l0.4-1.7c0.2-1,0-2-0.6-2.7l-12.9-15.4c-0.3-0.4-0.8-0.7-1.3-0.9l-10.4-4.2c-0.3-0.1-0.6-0.2-0.9-0.2
						l-6-0.3c-0.5,0-1-0.2-1.4-0.4l-1.6-0.9c-0.9-0.6-2.1-0.4-2.9,0.4L744,288c-0.8,0.8-0.6,2.2,0.5,2.6l0,0c1,0.5,1.5,1.7,1,2.7
						l0,0c-0.4,0.8-0.1,1.8,0.7,2.3l9.5,5.3c1,0.5,1.5,1.6,1.5,2.7l-0.1,2.9c-0.1,1.2,0.7,2.3,1.8,2.6l2.5,0.7l4,4.3
						c0.6,0.6,0.8,1.4,0.8,2.2l-0.7,9.1c0,0.1,0,0.2,0,0.4l-1.3,6.2c-0.2,1.1-1.5,1.6-2.4,0.9l-5.5-4.2c-0.9-0.7-1.3-1.8-1.1-2.8
						l0.8-3.8c0.2-1-0.2-1.9-1.1-2.5l-1.7-1l-3.3,0.3c-0.6,0.1-1.2-0.1-1.7-0.4l-1.7-1.1l-1.6-0.3l-0.2,0.8c-0.3,1-1.2,1.7-2.2,1.8
						l-0.8,0.1c-0.9,0.1-1.7,0.7-2.1,1.6l-1,2.7c-0.5,1.2-2,1.7-3,0.9l-0.9-0.6l-2.6,0c-0.9,0-1.8,0.4-2.3,1.2l-4.4,6.2l-3.1,3
						c-0.4,0.4-0.7,0.9-0.8,1.5l-0.3,2c-0.2,1-0.9,1.7-1.9,1.9l-1.8,0.3l-11.3,5.5c-0.6,0.3-1.1,0.8-1.3,1.5l-1.5,4
						c-0.2,0.4-0.2,0.9-0.1,1.4l1.1,5.1l-0.4,5.5c0,0.5,0.1,1.1,0.3,1.6l2.4,5.2l2.2,5.9c0.3,0.7,0.3,1.5,0,2.2l-1.8,4.3
						c-0.4,1-0.2,2.1,0.5,2.8l1.2,1.3l2.3,0.6c0.7,0.2,1.4,0.1,2-0.1l8.2-3.5l6-4.6c0.4-0.3,0.8-0.5,1.3-0.6l7.8-1.7l4.7-1.5
						c0.9-0.3,2,0,2.6,0.7l0.9,1l2.6,0.9l1.4,1.1c0.8,0.6,1.1,1.5,1,2.5l-0.1,1.4c-0.1,1,0.5,2,1.5,2.4l1.9,0.7l4.7-0.3
						c1-0.1,1.9,0.5,2.4,1.3l3.9,7.2c0,0,2.4,1.6,3.6,2.6c0.7,0.5,1.5,0.7,2.4,0.5c0.4-0.1,1.7-0.6,2.5-0.9c0.6-0.2,1.2-0.3,1.8-0.1
						l1.2,0.3c1,0.3,2,0.1,2.9-0.4l4.1-2.5c0.6-0.4,1.1-0.9,1.4-1.6l6.8-14.8c0.2-0.4,0.3-0.8,0.3-1.3l0.8-10c0.1-0.7,0-1.5-0.2-2.2
						C790.7,360.9,782.8,342.2,782.8,342.2z M724.5,317.6c0.9,4,13.5-4.3,9.7-7.7c-2.6-2.3-3-0.5-5,0.8c-1.6,1.1-3.9-0.8-4,2.6
						C725.2,313.8,724.7,313.3,724.5,317.6z M831,402.1l-9,9c-0.7,0.7-0.7,1.9,0,2.6l3.7,3.7c0.7,0.7,1.8,0.6,2.3-0.2l10.2-13.7
						c0.3-0.4,0.7-0.6,1.2-0.7l2.2-0.4c0.5-0.1,1-0.4,1.2-0.8l2.9-4.9c0.3-0.5,0.3-1,0.2-1.5l-1-3.8c-0.1-0.3-0.3-0.6-0.5-0.8
						l-6.6-5.7c-0.5-0.4-1.3-0.3-1.6,0.3l-0.5,0.8c-0.2,0.4-0.3,0.9-0.1,1.3l1.2,3.3c0.1,0.3,0.1,0.6,0.1,0.9l-0.6,2.8
						c0,0.2-0.1,0.4,0,0.6l0.4,3.9c0.1,0.7-0.3,1.3-0.9,1.5l-3.9,1.4C831.4,401.7,831.2,401.9,831,402.1z M728.7,299.6l0.2,0.2
						c0.7,0.6,1.8,0.7,2.7,0.2l0.4-0.2c1.1-0.6,1.5-2,1-3.2l-1.9-3.7c-0.4-0.8-0.4-1.7-0.1-2.5l0.1-0.2c0.5-1.2-0.1-2.7-1.5-3
						l-2.4-0.6c-1-0.3-2.1,0.1-2.8,1l-1.7,2.3c-0.3,0.4-0.4,0.8-0.4,1.2l-0.2,2.7c-0.1,1,0.6,2,1.6,2.3l0.5,0.2
						c0.5,0.1,1,0.2,1.4,0.1c0.7-0.1,1.6-0.3,1.8-0.3c0.7,0,0.7,0.5,0.5,0.9C727.5,297.9,727.9,299,728.7,299.6z M506,123.1
						l-2.7,0.3c-1.1,0.1-2.1,0.9-2.4,2l-1,4c-0.3,1.1-1.3,2-2.5,2l-6.7,0.1c-1.1,0-1.6-1.4-0.7-2.1l0.9-0.6c0.5-0.4,0.9-0.8,1.2-1.4
						l2.3-4.4c0.3-0.6,0.4-1.2,0.4-1.9l-0.3-7.1c0-1,0.5-2,1.4-2.5l3.6-2.1c1.3-0.8,3,0,3.3,1.4l1,4.8c0.2,0.9,1.1,1.6,2,1.5l0,0
						c1.6-0.1,3,1.3,2.8,2.9l-0.1,1C508.1,122.1,507.1,123,506,123.1z M504.2,193.3c-1.2-0.3-2.5,0.1-3.4,1l-2,1.9
						c-1.3,1.3-3.4,1.6-5,0.7l-12.4-6.6c-1.6-0.9-2.5-2.6-2.2-4.4l0.2-1.3c0.3-1.9-1.1-3.7-3-4l-5.4-0.8c-0.5-0.1-1.1-0.1-1.6,0
						l-13.4,2.4l0,0c-1.3,0-1.9-1.5-1-2.4l0.9-0.9c0.5-0.5,0.7-1.1,0.6-1.8l0,0c-0.2-1.3,0.3-2.6,1.3-3.4l4.6-3.9
						c0.7-0.6,1.3-1.5,1.5-2.4l0-0.1c0.4-1.6,2-2.6,3.6-2.4l1.8,0.3c1.2,0.2,2.5-0.1,3.5-0.8l0.1-0.1c1.4-0.9,3.3-0.7,4.4,0.5
						l4.1,4.4c0.4,0.4,0.9,0.8,1.4,1l3.3,1.6c0.7,0.3,1.3,0.8,1.7,1.4l1.8,2.6c1.3,1.3,3.5,0.6,3.8-1.2l0-0.3c0.1-0.5,0.4-0.8,0.8-1
						l0,0c1.6-0.7,3.4-0.1,4.4,1.3l3.2,5c1.1,1.8,3.8,1.4,4.4-0.7l1.1-4c0.1-0.5,0.5-1,0.9-1.3l0,0c1.4-1,3.5-0.1,3.6,1.7l0.1,1.5
						c0.1,1,0.6,2,1.3,2.6l2.8,2.5c1.3,1.1,2.9,1.8,4.7,1.8l7.2-0.1c2.5,0,4.2,2.3,3.5,4.7l-1.5,5.1c-0.6,2.1-2.5,3.5-4.6,3.5
						L504.2,193.3z M398.6,80.1l4.5-0.2c0.9-0.1,1.4-1.5,1.1-1.9c-0.1-0.1-0.2-1.1-0.4-0.9c-0.4-2.2,1.3-4.9,2.3-6.3
						c0.4-0.5,0.4-1.2,0.1-1.8l-1.2-2c-0.2-0.3-0.2-0.6-0.2-1l1.2-5c0.1-0.4,0.3-0.7,0.6-0.9l8.6-6.8c0.4-0.3,0.6-0.7,0.8-1.1
						l0.9-2.9c0.3-1-0.1-2-0.9-2.6l-1.1-0.8c-0.5-0.4-1.2-0.4-1.7-0.2l-6.9,3.1c-0.2,0.1-0.3,0.1-0.5,0.1l-3.5,0.6
						c-0.9,0.1-1.7-0.4-2.1-1.2l-3.4-9c0-0.1-0.1-0.2-0.2-0.3l-1.9-3c-0.4-0.6-1.1-0.9-1.8-0.8l-7.9,1.1c-0.3,0-0.6,0-0.9-0.1
						l-9.1-3.8c-0.3-0.1-0.5-0.2-0.8-0.1l-10.9,0.4c-0.2,0-0.3,0-0.5,0.1L350,36.6c-0.4,0.1-0.7,0.3-0.9,0.6l-3.1,4
						c-0.6,0.7-1.7,0.8-2.3,0.2l-1-1c-0.5-0.4-1.2-0.4-1.5,0.2l-0.6,1l-1.1,4c-0.2,0.6-0.7,1.1-1.3,1.2l-3.9,0.8l-6.6-1.3
						c-0.5-0.1-1.1,0-1.5,0.2l-8.2,4c-0.4,0.2-0.7,0.5-0.9,1l-0.2,0.6c-0.2,0.4-0.5,0.7-1,0.9l-3.7,1.2c-0.7,0.2-1.2,0.8-1.3,1.5
						l-0.3,1.4c-0.1,0.5-0.4,0.9-0.9,1.2l-1.3,0.7l-3.9,3.8c-0.3,0.3-0.7,0.5-1.1,0.6l-4.7,1.1c-0.5,0.1-0.9,0.4-1.1,0.8l-0.6,1.1
						c-0.3,0.5-0.1,1.2,0.5,1.5l3.2,1.4l2.7,2.7c0.5,0.5,1.3,0.7,2,0.5l3.5-1.2l4.6,1.3c0.1,0,0.2,0,0.2,0.1l9.6,1.6
						c0.4,0.1,0.8,0.2,1.1,0.5l5,4.5l2.6,8.6l-0.2,2.2c0,0.4,0,0.8,0.2,1.1l0.5,0.8c0.2,0.3,0.5,0.6,0.9,0.7L334,93
						c0.5,0.2,0.9,0.6,1.1,1.1l3.4,12.5c0.1,0.3,0.3,0.6,0.5,0.9l7.1,7.1c0.3,0.3,0.6,0.4,0.9,0.5c0.8,0.2,2.4,0.4,3.2-0.1
						c0.3,1.4,1.6,2.2,2.7,2.5c0.8,0.3,1.6,0.1,2.2-0.5l2-1.9c0.3-0.3,0.5-0.7,0.6-1.1c0.1-0.8,0.3-2.2,0.5-3.3
						c0.1-0.6,0.5-1,1.1-1.1c1.6-0.2,2.1-1.3,2.3-1.9c0-0.1,0.1-0.3,0.1-0.4l0.1-2.6c0-0.6,0.4-1.2,1-1.4c1.4-0.5,9.5-3.6,11.6-4.4
						c0.3-0.1,0.6-0.3,0.8-0.6c0.2-0.4,0.9-1.1,1.3-1.5c0.2-0.3,0.5-0.4,0.9-0.5c0,0,14.5-3.3,17.2-5.6c0.4-0.3,0.8-0.5,1.3-0.5
						c0.2,0,0.4,0,0.5,0c0.5,0,1-0.3,1.3-0.8l0.7-1.1c0.2-0.4,0.3-0.8,0.2-1.2l-0.7-3.9c0,0,0-0.1,0-0.1
						C397.7,82.6,397.5,80.3,398.6,80.1L398.6,80.1z M417.3,106.4c0,0,8.4-1.6,5.4-6.2c-3.5-5.6-8.3-0.2-13.7-0.7
						c-3.1-0.3-5.3-3.6-7.2,1.2c-2.5,6.2,3,4.7,5.6,6C410.2,108.1,413.9,112.2,417.3,106.4C417.4,106.3,417.3,106.4,417.3,106.4z
						 M566.7,322.6L566.7,322.6c-1.4-1.2-3.5-1.2-5,0l-2.9,2.4l-3.8,4.6c-0.1,0.1-0.2,0.2-0.2,0.3l-2,2.2c-0.9,1-1.4,2.2-1.4,3.6
						l0.1,5.3l-0.3,12.8c0,0-0.9,3.3,2.7,3.8c1.4,0.2,3,1.2,4.4-0.4c1.6-1.9,3.8-7.3,3.8-7.3L567,332c0.1-0.4,0.2-0.8,0.2-1.2
						C567.3,329.2,567.4,324.8,566.7,322.6C566.2,321.3,566.7,322.6,566.7,322.6z M706.4,313.9c0.3-0.4,0.5-0.8,0.8-1.2
						c-0.3-0.1-0.6-0.1-1-0.2c0.3,0,0.6,0.1,1,0.1c0.3-4.6-6.4-5.7-9.6-6.1c-2.1-0.3-3.2,1-5.9-0.1c-1.4-0.6-1.9-1.6-4.2-2.6
						c0-1.9,2.2-6.8,1.8-8.3c-0.7-2.4-1.6-1.3-2.6-2.7c-2.4-3.7-14.9-4-12.3,1.5c2.4,5.3,7.5,8.5,11,12.9c4.2,5.4,3.5,2.4,9.6,3.8
						C697.9,311.6,702.5,315.9,706.4,313.9C706.8,313.6,706,314.1,706.4,313.9z M762.3,181.2l-2.1,3.9c-0.3,0.5-0.6,0.9-1.1,1.2
						c-0.8,0.6-2.4,1.6-3.8,2.1c-2,0.7-4.1-1.4-5.9-0.7c-1.6,0.5-2.4,2.2-2.9,3.5c-0.3,1-1.1,1.7-2.1,2l-0.8,0.2
						c-1,0.3-1.8,1.1-2,2.1l-0.6,2.8c-0.2,0.8,0,1.7,0.4,2.4l0.1,0.2c0.6,0.9,1.6,1.4,2.6,1.2l2.3-0.3c0.4,0,0.7-0.3,0.7-0.7l0,0
						c0.3-1.2,1.3-2.1,2.6-2.2l1.5-0.1c0.6-0.1,1.2-0.3,1.7-0.7c0.6-0.5,1.4-0.6,2.1-0.4l0,0c0.3,0.1,0.6,0,0.8-0.1l7.8-5.1
						c0.5-0.3,0.8-0.7,1.1-1.2l2.9-4.7c0.3-0.5,0.5-1.1,0.5-1.7l0.2-7.1c0-0.4,0-0.8-0.2-1.2l-0.1-0.4c-0.5-1.4,0.4-2.9,1.9-3.2l5-1
						c0.6-0.1,1.1-0.4,1.6-0.8l0.7-0.7c0.9-0.9,1-2.2,0.3-3.3l0,0c-0.3-0.4-0.7-0.8-1.2-1l-5.1-2.5c-0.5-0.3-1.1-0.3-1.7-0.2
						l-1.4,0.3c-0.6,0.1-1.2,0.5-1.6,1l-3.7,4.4C761.8,172.7,764,176.9,762.3,181.2C761.8,182.7,762.3,181.2,762.3,181.2z
						 M704.1,273.2c-1.3,2.3-3.9,3.3-5.3,5.2c-0.6,0.8-1.7,1.2-2.7,0.9c-3.4-1.1-2.6,4.7-1.9,7.7c1.4,5.7,3.8,8.4,9.1,9.8
						c3.7,1,6.9,1.7,8.6-1.8c0.7-1.3-0.1-4.3,0.6-6c0.8-2.2,3.2-3.2,3.6-5.7c0.5-3-2.4-5.5-1.9-8.1c0.4-2,3.1-1.4,3.1-3.9
						c-0.1-1.9-1.9-0.5-2.1-1c0,0.1-0.9-2.1-1.5-3.6c-0.7-1.8-3.2-2-4.2-0.4c-0.7,1.1-0.9,2.8-0.5,4.5
						C707.1,271.1,705.2,271.2,704.1,273.2C703.8,273.8,704.8,272.1,704.1,273.2z"/>
				</defs>
				<use xlink:href="#SVGID_14_"  overflow="visible" fill="#388E3C"/>
				<clipPath id="SVGID_1_">
					<use xlink:href="#SVGID_14_"  overflow="visible"/>
				</clipPath>
			</g>
			<g clip-path="url(#path3924_1_)">
				<g>
					<defs>
						<path id="SVGID_6_" d="M595,66.8c3.9,1.2,11.1,7.7,14.2,4c3.1-3.7-2.7-8.1,0.6-12.3c4.9-6.4,20.3,3.2,24-4.1
							c5.2-10.5-20.3-6.2-23.7-4.9C608.1,50.2,588.2,63.6,595,66.8C598.6,67.9,588.6,63.9,595,66.8z M214.6,64
							c-4.2-0.8,2.3-11.5-5.8-8.4c-3.4,1.3-6.3,6.7-7.9,7.3c-3.6,1.3-4.7-2.7-9-1.3c-4.3,1.3-9.3,5.6-13.3,8.8
							c-1.4,1.1-1.2,2.5-2,3.1c-1.2,1-2.6,0.7-3.6,1.5c-2.8,2.3-6,3.8-7.8,7.1c-0.4,0.7-1.2,3.3-1.3,3.5c-0.5,1,3-0.4,2,1.1
							c-1.7,2.7-15.8,3.7-18.9,4.3c-2.3,0.5-4.3,0-6.7,0.6c-3.2,0.8-5.1,2.9-8.7,3.6c-4.2,0.8-10.2-0.4-14.4-0.2
							c-5.5,0.3-11.9,1.3-16.8,0.9c-2.8-0.2-7.3-2.6-10.5-1.6c-3.5,1-8.7,4.1-13.6,6.2c-2.6,1.1-12.8,5.1-14.7,7.2
							c-2.5,2.8,1.8,3.9,3.6,5.1c-1.2-0.9-7.9-0.5-11.8,2.4c-9.2,6.9,0.6,4.6-0.1,7.8c-0.4,2.1-8,6.5-6.9,9.9
							c0.8,2.3,5.8,0.8,7.8,1.1c-0.9-0.1,3.5,1.7,3.2,1.6c0.5,0.2,3.6-1.7,4.1-0.7c1.2,2.7-10.3,6.4-13.4,8.7
							c-10.8,7.8,6.8,1.3,12.1-0.7c2.9-1.1,6.2-2.3,9.1-3.5c2.3-1,3.9,0.1,6.4-1.9c2.9-2.3,1.1-3.7,3.1-5.9c8.3-8.6,21.7-6.3,28.6-5
							c6.1,1.2,9.9,4.5,12.7,9.1c1.7,2.9,0.1,8.5,3.5,10.2c2.9,1.4,4.7-1.3,7.1,1.7c2.7,3.4,6.3,11,6.9,15.9
							c1,8.6-7.4,17.4-2.4,25.1c3.1,4.8,8.6,8.3,11.7,13.4c2.1,3.5,3.8,8,5.4,11.9c1.2,3,0,8.4,1.2,10.4c1.2,1.8,6.2,1.9,8,3.3
							c2.4,1.9,2.7,6.5,5.2,7.9c3.1,1.8,5.6-1.2,7.9,0c4.5,2.3,4.1,10.3,8.1,13.6c2.9,2.4,7.9,3,11.2,5.1c2.1,1.3,3.8,4.1,6,5.1
							c3.9,1.8,5.3-0.3,9.4,0.6c4.3,0.9,9.5,6.3,13.8,8.4c5.3,2.5,5.2,1.7,8.4,6.4c2.3,3.3,2.3,6.8,6.8,9.1c4.8,2.5,24.7,2,16.9,12
							c-5.3,6.9-11.4,3.6-13.2,13.5c-0.8,4.5,1,6,1.1,10.3c0.1,3-2.2,4.8-2.2,6.6c0.1,5.5,2.4,5.3,6.3,10.4
							c6.1,8.1,5.9,19.5,13.3,26.8c11,10.8,25.2,9.8,25.3,26.8c0.1,7.9-0.7,14.8,1,22.8c0.8,3.9,2.8,8.6,3.1,12.3
							c0.2,3.4-1.9,6.2-1.5,9.6c0.7,6.4,5.5,13.2,6.2,20.3c0.2,2.7-1,5.1-0.6,7.7c0.7,4.1,3.4,9.5,5,13.8c2,5.3,4.9,13.1,9.4,17.8
							c4,4.2,17.9,13,16.1,5.9c-0.8-3.1-5.3-7.3-6.7-10.5c-1.8-3.9-1.8-6.1-2.1-9.9c-0.7-8.6,1.1-12.9,4.8-19
							c7.2-11.5,12.7-23,19.5-36.4c2.3-4.6,5.9-8.5,7.8-13.4c1.4-3.7,1-9.2,3.6-12.2c3.6-4.3,9.6-3.5,12.1-9.7
							c3.1-7.5,1.4-17.5,4.1-25.3c2.4-7,9.2-15.9,8.5-23.9c-1.7-21.7-34.3-16.4-43-30.3c-4.8-7.8-5.5-12.9-14.5-18.1
							c-3.3-1.9-7-2.3-10.1-4.5c-2.6-1.8-4.6-3.5-6.1-6.2c-0.9-1.6,1.2-4.6-0.2-6c2.2,2.2-7.5-0.2-5.2-0.2c-1.8,0-4.4,0-6-0.1
							c0.1,0-9,0.7-8.1,1.1c-1.3-0.5-2.1-3.6-2.7-3.8c-4.3-1.4-8.1-2.9-12.2-1.5c-4.3,1.5-6.1,8.5-10.1,9.9c-1.4,0.5-9,0.5-10.7,0.2
							c-5.9-1.2-6.2-2.6-6.8-7.8c-0.5-4.6,3.7-9.1-1-13.4c-3.8-3.4-8.7-0.1-10.9-4.6c-1.8-3.8,4.8-11.2,1.5-14.8
							c-4.4-4.8-9.7,2.6-12.1,4.1c-3.9,2.5-6.1,6.2-11.9,3c-4.4-2.4-3.9-5-3.8-9.4c0.1-7.9-0.9-14.6,7.1-18.1
							c3.8-1.7,8.2-2,12.1-3.5c2.6-0.9,5.4-3.3,7.8-3.7c8.8-1.3,10.2,5.3,13.8,10.1c8.1,10.8,5.8-3.3,6.5-8.2
							c1-7.9,8.1-11.6,12.7-18.5c3.8-5.7,4.4-15.4,9.5-19.4c3.7-2.9,7.3-1.9,10.6-5.9c0.6-0.8-0.8-3.6,1-5.5c1.8-2,4.3-3,6.7-3
							c1.9,0,1.8,3.3,4.3,3.4c2,0.1,2.3-0.7,4.4-1.1c3.1-0.7,5.8-2.4,8.2-4.5c6.6-6,3.3-9,13.6-8.5c5.8,0.3,10,1.3,8.8-5.4
							c-0.9-5.2-7.1-4-8-6.4c-0.8-2.2,4.3-6.7,3.8-9.8c-0.1-0.3-5.7-7-6.1-7.3c-3-2.3-5.3-2.3-7.4-5.6c-1.5-2.3-2.2-10-5-11
							c-4.9-1.7-3.8,4.1-7.5,4.5c-4.1,0.5-3.3-2.4-4.6-3.4c-3.6-2.6-9.4-7.3-15.7-6.1c-5,1-6.8,4.7-8.8,9.4c-2.3,5.2-1.3,0.8-1.3,5
							c0,3.9,2.8,4.6-0.3,8.6c1-1.4-7.5,3.3-6,2.6c-4.8,2.1-2.7,3-6.5,1.1c-1.6-0.8-1.7-3.2-3.6-4c-2-0.8-5.4-0.2-7.7-0.8
							c-4.6-1.2-16.4-4.4-13.5-10.8c1.2-2.6,8.6-8,10.7-9.2c5.2-2.9,6.4-1.2,11.3-1.4c3.2-0.2,13.8-0.4,15.5-3.1
							c2.3-3.6-5.5-3.7-4.9-6c0.7-2.7,2-0.7,3.1-3.3c0,0,2.6-1.9,3.1-2.7c0.9-1.6,0.1-5.5-0.3-4.8c2-2.9,9.4-3.4,10.5-1.1
							c1,2.1-1.7,4.2-3,6.5c-0.3,0.6,0.9,1.2,0.4,2.1c-0.6,0.9-2.1,0.5-2.5,1.6c-1.4,3.8-2.8,4.6-0.4,6.9c2.6,2.4,10.5-0.1,14.3,1.1
							c5.2,1.7,9.3,7.3,15.9,2.5c5.5-4.1,1.3-3,2.2-7.4c1.4-6.9-3.9,0.4,5.7-2.5c12.5-3.8-1.3-9.2-3.6-11.3
							c-2.5-2.1-1.9-5.6-3.9-7.9c-1.7-1.9-5.3-1.7-7.9-2.2c-5.9-1.1-9.7-5-15.2-6.2c-4.2-1-9.8,1.6-14.6,1.9
							c-4.9,0.3-9.7-0.5-14.4-0.7C239.8,64.5,227.1,64.2,214.6,64z M241,72.9C241.2,71.8,241.1,72.7,241,72.9L241,72.9z M822.3,431
							c-5.5,2.1-11.7,4.9-7.2,8.5C820.1,443.3,828,427.5,822.3,431z M808.3,277.2c-8.5,1.1-3,11,3.9,9.5c3.9-0.8,7-5.2,4.7-8.5
							C813.9,274.1,812.9,278.2,808.3,277.2z M856.5,367.7c-4.8-6.1-6.1-10-7.1-18.6c-0.8-6.6-2.1-17.6,9.1-14.3
							c2.9,0.9,4.5,6,8.2,0.5c2.5-3.8-2.5-7.7-4.2-10c-5.5-7.2-9.1-12-19.9-14.3c-4.7-1-17-4.2-19.3,1.6c-0.7,1.7,2.6,6.5,3.7,7.7
							c3.2,3.5,8.2,3.2,10.2,7.4c0.9,1.9-0.6,3.7,0.8,5.9c0.4,0.7,2.9,0.9,3.7,1.6c3.7,3.3,3.1,5.7,1.6,10.8
							c-1.8,6.3-8.2,20.5-13.4,10c-1.7-3.3,2.5-6.5,1.3-9.3c-0.9-2.2-7-2.7-9.5-2.3c-3.8,0.5-2.1-0.8-6.6,2.3
							c-1.3,0.9-4.2,3.8-5.1,4.3c-2.4,1.3-3,0.9-5.1,1.6c-6.3,2-6.3,1.8-11.6,7c-2.9,2.8-6.2,7.5-8.7,9.7
							c-6.8,5.7-18.2,6.2-23.6,14.4c-4.4,6.7-4.7,17.4-4.1,23.3c0.4,3.8,0.2,6.4-1.1,10.4c-1.4,4.2-6.5,8.7-0.6,9.3
							c10.6,0.8,39.3-27.6,45.4-14.9c1.6,3.3-1.9,6.4,2.4,7.6c5,1.4,6-1.6,7.3,3.9c1.2,5.1,2.2,6.1,9.4,4.4c4.9-1.1,8.5-1.8,14-6.3
							C857.5,401.8,858.5,384.9,856.5,367.7z M794.2,345.6c0.1,3.6,16-4.1,13.9-8.8c-1.1-2.5-7.6-0.3-9.8,1.4
							C795.8,340.4,795,342.3,794.2,345.6C794.3,350.2,795.4,340.7,794.2,345.6z M879.4,423.2c-3.6,2.5-13.3,8.1-15.8,10.9
							c-2.5,2.8-3.1,7,0.7,5.7c3.1-1,13.3-10.1,16.5-12.5c5-3.7,7.8-4.5,12.4-7.6c11.4-7.3,9.4-18.7,2.8-14.5
							c-0.8,0.6-4.6,7.6-5.4,8.8C885.7,421.1,886.7,418.1,879.4,423.2z M803.1,324.9c8.4,2.5,6.8-17.3-1.7-14.6
							c-3,1-7.1,7.4-5.2,9.9c1.5,2.1,4.7-0.3,6,0.7C803.3,322,801.5,323.6,803.1,324.9z M647.4,64.8c-5.2-10.2-12-1.6-13.2,2.8
							c-1.4,5.4,3.5,10.5-2.5,9.6c-2.5-0.4-5.3-3.9-7.8-4.4c-3.8-0.8-3.8,0.6-6.9,1.4c-5,1.3-9.7,1.7-15.4,1.9
							c-4.2,0.1-8.3,0.4-12.5,0.1c-3-0.3-5.5-1.1-8.3-0.5c-3.4,0.7-3.1,3.6-7.6,3c-9.6-1.4-19.3-9.9-28.8-12.1
							c-9.1-2-22.1-3.9-30.2,1.6c-4.3,2.9-5.2,8.7-8.9,12.5c-4.1,4.2-10.6,5-15,8.8c-4.1,3.5-8.1,9.5-7.1,15.8
							c0.4,2.5,2.3,4.5,3.5,6.5c2.6,4.5,3.2,0.6,2,6.8c-0.9,4.8-4.5,10.3-10.3,11.3c-6.5,1.1-9.8-6.4-12.4-11.8
							c-2.8-5.8-3.7-12.9-11-9.7c-3.5,1.6-3,2.6-4.9,5.7c-0.5,0.8,0.9,1.8-0.3,3.6c-1,1.5-3.9,2.1-4.7,3.4c-4.2,7-4.2,10.6,3.4,13.1
							c3.2,1.1,5.8-2.4,8.1,3c1.3,3.1,0.2,5.3-2.1,7.9c2.9,1.6,5.8,4.2,6.4,7.6c1.3,7.2-2.5,4.9-6.6,6.9
							c-8.3,4.1-15.5,11.4-11.8,21.6c1.8,5.1,5.1,3.2,4.4,9.9c-0.4,3.7-3.1,8.3-4.4,11.8c-3.2,8.6-7.9,12-13.4,19.2
							c-3.9,5.2-7,12-7.3,18.5c-0.2,3.7,1.6,7.4,1.6,11.1c0.1,4.4-1.6,8.5-2,12.9c-0.8,11.5,6.8,9.1,12.2,17.6
							c3.8,6,3.4,19.5,14.2,18.2c2.2-0.3,4.6-3.2,6.7-4.1c3.6-1.5,7.9-2,11.8-2.4c8.9-1,12,1.3,19.4,5.1c2.5,1.3,6.7,0.8,8,3.3
							c1.9,3.7-2,9.9-2.1,13.6c-0.2,8.5,6.8,14.8,9,22.8c4.2,15.5-4.5,28.5,0,42.9c2.2,6.9,4.8,13.2,5.8,20.3
							c1.2,8.1,3.6,13.2,5.8,20.8c2,7.3,0.1,12.8,8.6,14.3c8.5,1.5,14.2-4.5,20.8-10c10.7-8.7,17.2-24.1,20.7-37.6
							c1.2-4.4,1.1-6.3,3.7-10.1c2.3-3.3,6.3-5.3,8.4-8.8c5.9-9.8,2.5-19.2,2.7-29.1c0.1-7.5,4.2-14.9,7.4-21.8
							c3.3-7.2,8.4-10.1,13.1-16.2c3.6-4.8,6.6-11.1,8.4-16.7c1.5-4.6,3.5-8.4-1.8-11.5c-5.5-3.2-9.8,3.5-14.4,1.2
							c-10.1-5,13.9-11.3,16.6-12.7c6.5-3.4,15.9-8.7,20.4-14.5c1.4-1.8,4.1-6.7,4.3-8.9c0.4-5.6-1.4-4.2-4.4-8.1
							c-1.4-1.8-6.2-7.6-4.7-10.1c2.3-3.8,7.8,2.4,10.6,4.2c7.8,4.7,12.8-1.4,19.4,4.1c3.4,2.8,3.9,7.6,7,9.9c5.2,4,4.2-0.9,6.7,5.2
							c2.2,5.5,1.6,12.5,3.5,18.4c1.6,4.6,4.1,16.6,7.7,19.4c7.5,5.7,10.2-7,11-11.5c1.8-9.5,4-11.6,10.7-19.1
							c3.1-3.5,10.3-15.1,16.7-13.4c4.3,1.2,4.4,5.5,6,8.7c0.8,1.5,1,4,2,5.3c3,3.7,3.4,1.8,6.7,4c5.6,3.7,7.1,12.6,7.6,19.8
							c0.2,3-1.2,5.3-0.6,8.5c0.9,4.2,3.8,8.5,5.5,12.3c1.4,3.1,6.2,16.8,10,6.8c1.8-4.6-4.8-13.4-6.5-17.7
							c-1.5-4.2-6.6-19,2.1-12.5c2.3,1.7,2.5,5.7,5.4,6.9c5.3,2.2,10.5-2.9,13-6.8c4.2-6.7,1.8-12.9-1.8-19c-1.6-2.7-5.4-6-4.9-8.9
							c1.4-8.7,4-2.3,5.8-1.1c1.3,0.8-0.4,2.2,1.2,3c3.2,1.7,4.9,0,7.3-1.5c2.1-1.4,3.2-4.9,4.9-6.8c5.2-5.6,13.9-9.2,18-15.2
							c4-5.8,3.5-13.1,0.9-19.7c-2-5-2.8-4.4-1.7-9.6c0.1-0.6,1.7-1.3,2-2.1c0.6-1.6-0.7-4.1-0.1-5.7c3.5-10.2,8.4,8.9,12.4,11.4
							c13.9,8.6,4.3-11.2,3.8-13.5c-1.7-9.4,7.2-9,13.4-11.6c6.1-2.5,7.7-8.8,9.8-13.9c4.1-10.6,3.7,4.1,9.7,6.3
							c5.4,1.9-0.3-14.1-2.1-17.2c-1.6-2.8-2.5-5.5-5.5-7.8c-2.2-1.6-7.7-1.2-9.6-2.9c-4.3-3.7,2.2-11.3,6.2-12.4
							c4.6-1.2,12.9,0.6,18.6,1.4c3.2,0.4,5.3,0.9,7.7,0.3c2.9-0.8,4.4-4.7,7.7-4.7c13.7,0,0.3,8.5-0.7,10.9c-1.3,3.9,2,14.1,6,18.8
							c6.3,7.4,7.7-1.6,9.8-5.9c2.3-4.7,4.1-9.6,6.2-14c3.4-7.6,22,0,27.8-6c2.5-2.5-1.6-12.2-6.5-16.9c-6.1-5.9-17.6-8.9-23.2-9.3
							c-4.3-0.3,2.1,2.6-3.2,1.9c-3.4-0.5-3.7-1.6-6.9-2.6c-4.1-1.3-6.4-1.4-10.2-2c-6.9-1.1-14-5-21-6c-4-0.6-6.8-0.2-11.5-2.5
							c-3.3-1.7-4.1-4.4-8.6-6c-2.5-1-6.2,0.3-9.1-1.8c-3.5-2.6-2.3-5.3-6.7-8.6c-1.7-1.3-7.9-3.3-9.6-3.4c-5.3-0.4-3.1,1-2,5
							c0.6,2.2,5.7,8.1,2.9,9.6c-1.3,0.7-7.5-1.9-9.7-2.2c-0.2,0-7.2-0.7-6-0.3c-5.9-2.3,4.4,3.4-2.1-0.3c-4.3-2.4-5-7.1-10.5-9.2
							c-6.4-2.6-10.8,1.4-16.4,0.9c-2.8-0.3-9-1.6-12-3.2c-5.9-3.1-5.1-6.1-9.4-9.2c-4.2-3-17.7-5.7-21.9-6.1
							c-5.3-0.6-10.1,2.2-15.3,2.5c-5.8,0.4-11.6,0.3-17.1,1.3c-7.2,1.4-14.4,3.7-22.1,4.3C656.2,63.1,650.8,61.3,647.4,64.8z
							 M527.6,111.7c-9-1.2-4.1,13-14.9,10.2c-7.7-2,0.2-5.3,1.3-11.7c0.8-4.3-0.2-22.8,9-14c0.5,0.5,3.4,7.2,3.9,7.9
							C527.4,104.9,534.4,111,527.6,111.7z M528,199.3c-4.9-1.1-7.1,5.4-12.8,4.4c-3.4-0.6-8.1-4.2-11-5.9c-4.8-2.8-4.7-3.4-7.1-8.3
							c-2.5-5.1-3.1-6.8-9.7-7.1c-4.3-0.3-18.3,5.5-20.6,1.9c-2.2-3.4,8.9-15.5,11.4-17.5c3.1-2.4,6.5-3.9,11-3.8
							c6,0.2,5.5,1.8,10,5.6c2.5,2.1,6,4.5,8.8,6.1c1.7,1,1,2.7,3.3,3.2c3.2,0.6,2.4-3.4,4.2-3.4c6.7-0.2,4.6,4.3,9,7.3
							c6.3,4.4,3.9-1.2,6.9-4.4c4.6-4.8,4.2-0.4,6.7,3.4c2.9,4.3,6.1,6.3,11.1,7.1c6.1,1,11.8-2.3,12.4,6.3
							c0.3,4.7-3.1,9.4-7.4,10.1C547,205.4,535.3,200.7,528,199.3z M406.7,59c8,0.9,7.9-8.9,9.1-15.3c1.8-9.8,2.9-9,9.8-16.5
							c4.1-4.5,7.3-11.6-0.2-10.7c-6,0.8-9.3,8.1-13,0.9c-3.7-7.5,0.3-13.4-9-12.9c-5.9,0.3-8.9-2.6-14.3-3.3
							c-5.2-0.7-11.6,1.5-17.2,3.8c-6.3,2.6-10.6,6.5-15.7,9.6c-0.3,0.2-0.9-1.9-2.4-0.8c-1.2,0.9-1.2,3-2.1,3.8
							c-3.3,3-3.2,4.8-7.8,5.2c-7.6,0.8-9.4,0.3-17.9,5.8c-5.4,3.5-9.1,7.7-14.2,12.2c-4.7,4.2-13.2,5.5-12.2,10.5
							c1.1,5.6,10.5,3.2,15.1,3.8c6,0.9,12.4-0.1,15.1,6.2c2,4.5-0.4,11,0.7,15.6c0.3,1.5,2.3,2.3,2.8,3.9c1.3,4-0.3,9.6,1.1,13.6
							c1,2.8,3.9,7,6.4,8.5c2.3,1.4,7.1,4.5,9.6,4c2.4-0.5,3.3-2.5,4.9-4.2c0.7-0.8,1.2-3.7,1.8-4.7c0.8-1.4,2.6-1.5,3.6-3.1
							c3.5-5.2,2-5.5,8.8-8.4c4.4-1.8,7.6-4.7,11.4-6.6c4.6-2.3,9.9-2.8,14.7-4.9c2.5-1.1,8-2.8,9.5-5.5
							C405.8,68.1,404.5,59.5,406.7,59z M424.9,91.2c3.9-0.7,8.3-3.3,6.7-7.9c-1.6-4.7-14.5-2.1-18-1.2c-3,0.7-3.8-2-6,2.4
							c-2.5,5-0.1,4.4,2.3,6.4C413.7,94,421.5,97,424.9,91.2z M602.3,359.4c-4.9-3.8-16.7,8.9-19,14c-1.8,4.1-3.9,21.8-2.9,25.4
							c4,14.8,13.9-7.4,16-13.2C599.4,377.6,604.4,365.7,602.3,359.4z M773,342.5c1.7-1.2,1.7-1.8,0.1-1.6c3.2,0.2-3.8-5.8-7.1-6.2
							c-3.8-0.4-12.6,1.6-14.1-2.9c-1.3-3.9,4.7-7.7,1.8-11.9c-1.9-2.8-6.7-4.4-10.5-3.7c-13.6,2.6,2.6,19,7.4,22
							c3.1,1.9,6.6,1,10.4,1.9C764.7,341.1,768.1,345,773,342.5C773.4,342,772.5,342.8,773,342.5z M845.4,192.5
							c-0.7,2.3-1.7,4.7-3.8,6c-3.9,2.6-8.1-0.4-11.8,1.3c-2.9,1.3-10.6,9.5-6.7,13.6c3.7,3.8,11.4-1.7,15.2-2.8
							c4.9-1.5,9.9-3.8,12.9-7.6c4-5.2,0.2-9.6,1-15.2c0.7-5.6,9.4-2,10-6.8c0.6-5.2-11.1-8.2-14.7-6.2
							C841.8,177.8,844.9,189.9,845.4,192.5z M776.5,295.7c-1.5,2.1-4.8,4.7-7.2,6.1c-0.5,0.3-5.4,1.2-5.4,1.2
							c-3.2,3.4-1.5,11.2,0.3,14.3c2.2,3.6,7.8,6.9,12.9,6.1c7.9-1.3,6-5.8,8.8-11.2c1.1-2,3.7-3.3,4.4-5.5c1-3.4-1.9-5.9-1.3-9.3
							c0.4-2.4,4.3-1.7,4.2-4.5c-0.1-2.7-2.1,0.1-2.5-1c-2.4-6.5-2.9-6-7.6-2c0,0.9,0,1.9-0.1,2.8c-2-0.1-3.7,0.5-5,1.8
							C775.2,296.4,777,295,776.5,295.7C774.6,298.4,777.4,294.4,776.5,295.7z"/>
					</defs>
					<use xlink:href="#SVGID_6_"  overflow="visible" fill="#FFFFFF"/>
					<clipPath id="SVGID_2_">
						<use xlink:href="#SVGID_6_"  overflow="visible"/>
					</clipPath>
				</g>
			</g>
		</g>
	</g>
	<g>
		<g>
			<g>
				<path fill="#DCD139" d="M578,404.6v-7.1c0-2.7,2.6-4.8,5.8-4.8h3.5v12H578z"/>
			</g>
			<g>
				<path fill="#422933" d="M584.6,418.7c-3.1,0-5.6-2.2-5.6-4.8v-9.4h8.3v14.2H584.6z"/>
			</g>
		</g>
		<g>
			<g>
				<path fill="#DCD139" d="M655.2,404.6v-12h3.5c3.2,0,5.8,2.2,5.8,4.8v7.1H655.2z"/>
			</g>
			<g>
				<path fill="#422933" d="M655.2,418.7v-14.2h8.3v9.4c0,2.7-2.5,4.8-5.6,4.8H655.2z"/>
			</g>
		</g>
		<g>
			<path fill="#D75E3C" d="M597.1,427.4c-5.9,0-10.7-4.2-10.7-9.3v-45.9H656v45.9c0,5.1-4.8,9.3-10.7,9.3H597.1z"/>
		</g>
		<g>
			<g>
				<path fill="#422933" d="M601.1,418.7c-3.1,0-5.6-2.2-5.6-4.8v-9.4h51.3v9.4c0,2.7-2.5,4.8-5.6,4.8H601.1z"/>
			</g>
			<g>
				<path fill="#F4F1ED" d="M597,408l0.3-3.5h2.7l0.3,3.5c0.1,0.9-0.7,1.6-1.7,1.6l0,0C597.7,409.6,596.9,408.9,597,408z"/>
			</g>
			<g>
				<path fill="#DCD139" d="M594.6,404.6v-7.1c0-2.7,2.6-4.8,5.8-4.8h41.7c3.2,0,5.8,2.2,5.8,4.8v7.1H594.6z"/>
			</g>
		</g>
		<g>
			<path fill="#DCD139" d="M595.4,378.6c-3,0-5.9-1.1-7.9-3.1c-2-2-3-4.6-2.6-7.2l3-23c0.6-4.7,5.1-8.2,10.5-8.2h45.5
				c5.4,0,9.9,3.5,10.5,8.2l3,23c0.3,2.6-0.6,5.2-2.6,7.2c-2,2-4.9,3.1-7.9,3.1H595.4z"/>
		</g>
		<g>
			<g>
				<g>
					<polygon fill="#422933" points="599,384.8 599,366.3 606.5,366.3 606.5,384.8 602.8,388.9 					"/>
				</g>
			</g>
			<g>
				<g>
					<polygon fill="#422933" points="636,384.8 636,366.3 643.4,366.3 643.4,384.8 639.7,388.9 					"/>
				</g>
			</g>
		</g>
		<g>
			<path fill="#422933" d="M621.2,364.2c-0.4,0-0.7-0.1-1-0.4l-5.9-5.1c-0.3-0.2-0.4-0.5-0.4-0.9s0.1-0.6,0.4-0.9l5.9-5.1
				c0.3-0.2,0.6-0.4,1-0.4c0.4,0,0.7,0.1,1,0.4l5.9,5.1c0.3,0.2,0.4,0.5,0.4,0.9s-0.1,0.6-0.4,0.9l-5.9,5.1
				C622,364,621.6,364.2,621.2,364.2z"/>
		</g>
		<g>
			<g>
				<path fill="#F4F1ED" d="M594,340.2c-4.8,0-8.7-3.4-8.7-7.6v-3.8c0-4.2,3.9-7.6,8.7-7.6h54.4c4.8,0,8.7,3.4,8.7,7.6v3.8
					c0,4.2-3.9,7.6-8.7,7.6H594z"/>
			</g>
			<g>
				<path fill="#D75E3C" d="M601.8,342.1c-0.9,0-1.6-0.6-1.6-1.4v-20c0-0.7,0.7-1.4,1.6-1.4h0.4c0.9,0,1.6,0.6,1.6,1.4v20
					c0,0.7-0.7,1.4-1.6,1.4H601.8z"/>
			</g>
			<g>
				<path fill="#D75E3C" d="M639.5,342.1c-0.9,0-1.6-0.6-1.6-1.4v-20c0-0.7,0.7-1.4,1.6-1.4h0.4c0.9,0,1.6,0.6,1.6,1.4v20
					c0,0.7-0.7,1.4-1.6,1.4H639.5z"/>
			</g>
		</g>
	</g>
	<g>
		<g>
			<path fill="#F4F1ED" d="M104.3,432.5c-0.1,0-0.1,0-0.2,0s-0.1,0-0.2,0l-23.7,8.8v-63l23.8-8.8l24.2,8.9c0.1,0,0.1,0,0.2,0
				c0.1,0,0.1,0,0.2,0l23.7-8.8v63l-23.8,8.8L104.3,432.5z"/>
		</g>
		<polygon fill="#DCD139" points="128.5,441.5 128.5,378.5 104.1,369.5 104.1,432.5 		"/>
		<g>
			<path fill="none" stroke="#41AEB5" stroke-width="2" stroke-miterlimit="10" stroke-dasharray="2,4" d="M87.3,390.6
				c-2.5,4.6-5.5,13,1.8,18.6c3.1,2.4,9.1,3.8,15.1-3.8c0,0,6.6-12.1,10.4-13.6c8.1-3.3,14.2,8.4,14.2,21.2
				c0,24.1,12.1,21.4,15.2,14.6"/>
		</g>
		<g>
			<circle fill="#422933" cx="89.2" cy="387" r="2.8"/>
		</g>
		<g>
			<path fill="#D75E3C" d="M146.2,418.1c-0.5,0-1,0.2-1.4,0.6l-2,2l-2-2c-0.4-0.4-0.9-0.6-1.4-0.6c-0.5,0-1,0.2-1.4,0.6
				c-0.8,0.8-0.8,2.1,0,2.9l2,2l-2,2c-0.8,0.8-0.8,2.1,0,2.9c0.4,0.4,0.9,0.6,1.4,0.6c0.5,0,1-0.2,1.4-0.6l2-2l2,2
				c0.4,0.4,0.9,0.6,1.4,0.6c0.5,0,1-0.2,1.4-0.6c0.8-0.8,0.8-2.1,0-2.9l-2-2l2-2c0.8-0.8,0.8-2.1,0-2.9
				C147.3,418.3,146.7,418.1,146.2,418.1L146.2,418.1z"/>
		</g>
	</g>
	<g>
		<g>
			<g>
				<path fill="#422933" d="M608.9,189.6c0,4.4-3.6,8-8,8h-56c-4.4,0-8-3.6-8-8v-30.2c0-4.4,3.6-8,8-8h56c4.4,0,8,3.6,8,8V189.6z"/>
			</g>
			<path fill="#D75E3C" d="M555.1,151.5h-6.3l0,0c0-1,0.8-1.8,1.8-1.8h2.6C554.3,149.6,555.1,150.4,555.1,151.5L555.1,151.5z"/>
		</g>
		<ellipse fill="#D75E3C" cx="586.4" cy="174.5" rx="13.5" ry="13.8"/>
		<ellipse fill="#F4F1ED" cx="586.4" cy="174.5" rx="9" ry="9.2"/>
		<path fill="#F4F1ED" d="M554.5,168.1h-5c-1.1,0-2-0.9-2-2v-3.4c0-1.1,0.9-2,2-2h5c1.1,0,2,0.9,2,2v3.4
			C556.5,167.2,555.6,168.1,554.5,168.1z"/>
	</g>
	<g>
		<g opacity="0.2">
			<path d="M546.4,336.1c-21.7-13.7-81.2-22.9-108.3-22.1c-90.8,2.8-164.5,54.8-243.3,47.1c-20.2-2-48.7-9.6-53.4-22.2v-87.7
				c0,20.5,30.8,24.1,49,24.1c82.1,0,145.3-48.4,253.9-48.4c19.9,0,82.8,4,102.1,21.4V336.1z"/>
		</g>
		<g>
			<g>
				<path fill="#D75E3C" d="M546.4,332.1c-21.7-13.7-81.2-22.9-108.3-22.1c-90.8,2.8-164.5,54.8-243.3,47.1
					c-20.2-2-48.7-9.6-53.4-22.2v-87.7c0,20.5,30.8,24.1,49,24.1c82.1,0,145.3-48.4,253.9-48.4c19.9,0,82.8,4,102.1,21.4V332.1z"/>
			</g>
		</g>
	</g>
	<g>
		<path fill="#F4F1ED" d="M259.1,292.4c0.6-0.2,3.1,3.4,7.5,10.8c0.8,1.7,3.3,5.8,7.5,12.3l-0.7,0.2l-0.1-0.3
			c-2.2-6.8-3.4-10.6-3.6-11.5c-0.1-0.3-0.3-1.1-0.6-2.6c-0.1-0.2-0.2-0.5-0.3-1c-0.2-1.1-0.4-2-0.5-2.7l-1.6-6
			c-0.1-0.6,0.2-1,0.9-1.2l1,0.2c0.7,3.4,1.3,5.9,1.7,7.5l0.6,2.4c1.3,4.9,3.2,11.3,5.6,19.2l-0.7,0.6c-0.7,0.2-4.6-5.6-11.7-17.4
			l-4.2-7l1.1,1.1l-0.3-1.2c0.4,1.1,0.7,2.1,0.9,2.8l0.2,0.7c0.7,3.2,1.3,5.4,1.6,6.6c1.7,6.3,3.4,11.6,5.1,15.9l-1,0.3
			c-0.7,0.2-1.1,0-1.2-0.6c-1.6-4.9-3-9.2-4-13.1l-3.9-14.7C258.3,293,258.5,292.6,259.1,292.4z"/>
		<path fill="#F4F1ED" d="M278,287.2l0.2,0.1c-0.4,0.1-0.6,0.1-0.6,0c2.5-0.5,3.9-0.5,4,0l0,0.1c0,0.6-0.3,0.9-0.8,1.1l-2.5,0.4
			c-0.1,0-0.5,0.2-1,0.4l0.2,0.6c0.3,0.9,1.4,4.5,3.5,10.6l0.1,0c0.4-0.1,0.7-0.2,1-0.4c1.3-0.3,2.4-0.5,3.1-0.7l0.7,0.5l0.1,0.4
			c0.1,0.5-0.1,0.8-0.7,0.9c-0.5,0.1-1.3,0.3-2.5,0.5c-0.7,0.3-1.2,0.4-1.4,0.5l0-0.1c1.1,4,2.6,8.4,4.4,13.2c0.1,0,0.1,0,0.1,0
			c1.7-0.6,2.8-1,3.3-1.1c0.5,0,0.8,0.2,1.1,0.5l0,0.2c0.1,0.2-0.1,0.5-0.4,1c-2.2,0.7-3.5,1.1-3.9,1.3c-1,0.3-1.7-0.1-2-1.1
			c-1.9-5.3-3.4-9.7-4.4-13.3l-0.8-2.7c-1.7-4.9-2.8-8.2-3.3-9.9c-0.4-0.8-0.6-1.3-0.7-1.5l0.5-0.7l1.1-0.3
			C276.9,287.7,277.3,287.5,278,287.2z"/>
		<path fill="#F4F1ED" d="M300.2,282.3l0.4-0.1c0.3-0.1,0.6,0,0.9,0.4c2.9,12.5,5,21.1,6.2,25.8c0.1,1.3,0,2.1-0.6,2.2l-0.2,0
			c-0.6,0.2-1.7-1.2-3.4-4c-2.8-4.4-4.3-6.6-4.4-6.9l0.9-0.3c1.4,6.4,2.4,10.6,2.9,12.5l-0.5,0.6l-0.4,0.1c-0.5,0.2-1.2-0.8-2.1-2.9
			c-2.9-5.5-6.2-12.5-10-21.2c0,0-0.3-0.5-0.8-1.4c-0.1-0.3,0.1-0.6,0.5-1l0.5-0.1c0.6-0.2,1.5,1.4,2.9,4.8
			c2.9,6.4,4.8,10.4,5.7,12.2l2,4l-0.9,0.3c-1.6-7.3-2.4-11.3-2.4-12l0.7-0.4c0.6-0.2,1.4,0.9,2.4,3.3c0.6,1.3,2.1,3.7,4.4,7.2
			l1.2,1.9l-0.6,0.6c-2.5-10-4.5-18.4-5.9-25L300.2,282.3z"/>
		<path fill="#F4F1ED" d="M323.2,278.4l0.9-0.2c0.1,0.2,1.7,0,5-0.8c1.4-0.2,2.1,0,2.3,0.7l0,0.1c-0.3,3.8-0.5,9.3-0.4,16.7
			c-0.3,3.7-0.3,6.3,0.1,7.8c0.2,0,0.8-0.1,1.8-0.4c0.5-0.1,1.8-0.5,3.7-1.1c0.7-0.1,1.1-0.3,1-0.5l-0.4,0.4l0.3-0.1
			c0.3-0.1,0.6,0.1,1,0.4l0.1,0.4c0.1,0.3-0.2,0.6-0.8,1c-0.6,0-1,0.1-1.4,0.2c-0.8,0.2-2.1,0.6-3.8,1.1c-1,0.1-1.9,0.3-2.7,0.5
			c-0.4-0.3-0.6-0.6-0.6-0.8c-0.4-1.4-0.5-4.4-0.2-8.9c0.1-1.1,0.1-4.7,0.1-11c0.2-2.1,0.3-3.7,0.3-4.9c-0.4,0-2.3,0.4-5.8,1.1
			c-0.5-0.3-0.8-0.6-0.9-0.9C322.6,279.1,322.8,278.8,323.2,278.4z"/>
		<path fill="#F4F1ED" d="M342.8,269.5l0.2,0.1c-0.4,0.1-0.6,0.1-0.6,0c2.5-0.4,3.9-0.3,4,0.2l0,0.1c-0.1,0.6-0.3,0.9-0.8,1
			l-2.5,0.3c-0.1,0-0.5,0.1-1.1,0.3l0.2,0.6c0.2,0.9,1.2,4.5,3,10.8l0.1,0c0.4-0.1,0.8-0.2,1-0.3c1.3-0.2,2.4-0.4,3.2-0.6l0.6,0.5
			l0.1,0.4c0.1,0.5-0.1,0.8-0.7,0.9c-0.5,0.1-1.3,0.3-2.5,0.4c-0.7,0.2-1.2,0.4-1.4,0.4l0-0.1c0.9,4,2.2,8.5,3.8,13.4
			c0.1,0,0.1,0,0.1,0c1.7-0.5,2.8-0.8,3.3-0.9c0.5,0,0.8,0.2,1.1,0.6l0,0.2c0.1,0.2-0.1,0.5-0.5,0.9c-2.2,0.6-3.5,1-4,1.1
			c-1.1,0.2-1.7-0.1-1.9-1.1c-1.7-5.4-2.9-9.8-3.8-13.5l-0.6-2.7c-1.5-5-2.4-8.3-2.8-10c-0.4-0.8-0.6-1.3-0.6-1.5l0.5-0.6l1.1-0.3
			C341.7,269.9,342.2,269.8,342.8,269.5z"/>
		<path fill="#F4F1ED" d="M354.8,265.6L354.8,265.6c0.4-0.1,0.7,0.1,1.1,0.5c0.1,0.6,0.2,1,0.3,1l-0.2-0.3c1.7,6.2,3,11.5,3.9,15.8
			c0.5,1.4,0.9,3.3,1.4,5.7l1.5,7.1l4-0.8c0.3-0.1,0.6,0.1,0.9,0.4l0.1,0.3c0.1,0.5-0.5,0.9-1.8,1.2l-3.9,0.8
			c-0.3,0.1-0.6-0.1-1-0.5l-0.1-0.6c-0.1-0.7-0.2-1-0.2-1l-0.2-0.6l-1.3-6.3c-1.8-7.5-3.3-13.7-4.6-18.7l-0.9-2.9
			C353.9,266.1,354.2,265.7,354.8,265.6z"/>
		<path fill="#F4F1ED" d="M372.3,263.8l0.2,0c1.1,0.3,2.1,1.3,3,3c2.4,4.7,4.7,10.9,6.7,18.5c0.9,2.4,1.5,4.6,1.9,6.6
			c-0.1,0.5-0.6,0.8-1.4,0.9c-0.5-0.6-1.3-3-2.4-7.1c-0.2-0.4-0.8-2.2-1.7-5.3l-0.2,0c-2.7,0.7-4,1.1-4,1.2l0.6,3.4l0.8,8
			c0.2,0.2,0.3,0.4,0.3,0.6c0,0.2-0.2,0.6-0.6,0.9c-1,0.2-1.5-0.2-1.7-1.2c-0.6-6.2-1-9.9-1.2-11.1c-0.2-0.8-0.4-1.6-0.5-2.4
			c-0.7-4.2-1.1-8.7-1.2-13.4C371,264.9,371.5,264,372.3,263.8z M373.1,266c-0.2,3,0.1,7.1,1,12.5c-0.1,0,0,0.6,0.2,1.7l-0.1-0.3
			c1.3-0.6,2.6-1,4-1.3l0.1,0.3c-0.3-1.7-1.9-5.7-4.9-11.9C372.9,266.2,372.8,265.9,373.1,266z"/>
		<path fill="#F4F1ED" d="M388.8,260.9c0.6-0.1,2.6,3.8,6,11.7c0.6,1.8,2.5,6.2,5.8,13.2l-0.7,0.1l0-0.3c-1.2-7-1.9-11-2-11.8
			c0-0.3-0.1-1.2-0.2-2.7c0-0.2-0.1-0.5-0.2-1c0-1.2-0.1-2.1-0.2-2.7l-0.8-6.2c0-0.6,0.3-1,1-1.1l1,0.4c0.3,3.5,0.5,6,0.7,7.7
			l0.3,2.5c0.6,5.1,1.6,11.6,3,19.8l-0.8,0.5c-0.7,0.1-3.8-6.2-9.2-18.8l-3.2-7.5l1,1.2l-0.1-1.3c0.3,1.2,0.4,2.1,0.5,2.9l0.1,0.7
			c0.3,3.2,0.5,5.5,0.7,6.8c0.8,6.5,1.8,12,2.9,16.4l-1.1,0.1c-0.7,0.1-1-0.2-1.1-0.8c-1-5-1.7-9.6-2.2-13.6l-1.9-15.1
			C387.9,261.3,388.2,261,388.8,260.9z"/>
		<path fill="#F4F1ED" d="M405.4,257.9l0.7-0.1c2.6,0.6,4.6,2,6.1,4.3c2.2,3.7,3.5,7.6,3.8,11.7l0,0.4c0.5,5.8-1.2,10.8-5.1,14.9
			c-0.6,0.3-1.1,0.4-1.3,0.4c-0.5,0-0.8-0.6-1.1-1.8l0.1-0.2c-0.3-1.3-0.6-3.3-0.9-6l-0.2,0l0.2,0.3l0-0.2c-0.2-2.3-0.3-4.4-0.4-6.3
			L405.4,257.9z M407.7,260.1l0-0.6c0.6,6.6,1.2,11.8,1.7,15.6c0.1,1.6,0.2,3.2,0.3,4.8l0.1,1.1c0.2,2.2,0.4,4.2,0.7,6
			c0.7-0.7,1.5-2,2.4-3.9c1.1-3,1.5-5.8,1.3-8.4l-0.1-0.9c-0.3-3.6-1.5-7.2-3.6-10.8C409.2,261.2,408.2,260.3,407.7,260.1z"/>
		<path fill="#F4F1ED" d="M423.8,256.5c0.3,0,0.6,0.2,0.9,0.7l-0.1,0.5c1.4,6.4,2.2,11.4,2.4,15.1c0.1,1.2,0.2,4.3,0.5,9.3l-0.6,0.4
			l-0.5,0c-0.3-0.1-0.6-0.3-0.8-0.8c-0.3-4.3-0.5-7.4-0.6-9.4l-0.1-1.2c0.1-0.1,0.1-0.2,0.1-0.3c-0.1-1.6-0.8-6.1-2.3-13.4
			C422.7,256.9,423.1,256.6,423.8,256.5z M426.4,286c0.9,0,1.3,0.3,1.3,1c-0.1,1-0.6,1.5-1.4,1.5c-0.7-0.3-1-0.7-1.1-1.2
			C425.3,286.9,425.7,286.4,426.4,286z"/>
	</g>
	<g>
		<path fill="#422933" d="M110.5,224.5l-9.5,9.5l-3.9-3.9l9.5-9.5c0.8-0.8,2-0.8,2.8,0l1.1,1.1C111.3,222.5,111.3,223.7,110.5,224.5
			z"/>
		<path fill="#422933" d="M103.9,205.3l-9.5,9.5l-3.9-3.9l9.5-9.5c0.8-0.8,2-0.8,2.8,0l1.1,1.1C104.7,203.2,104.7,204.5,103.9,205.3
			z"/>
		<path fill="#422933" d="M47.5,161.5l-9.5,9.5l3.9,3.9l9.5-9.5c0.8-0.8,0.8-2,0-2.8l-1.1-1.1C49.6,160.7,48.3,160.7,47.5,161.5z"/>
		<path fill="#422933" d="M66.8,168.1l-9.5,9.5l3.9,3.9l9.5-9.5c0.8-0.8,0.8-2,0-2.8l-1.1-1.1C68.8,167.4,67.5,167.4,66.8,168.1z"/>
		<polygon fill="#D75E3C" points="95.3,186.7 106.4,244.1 94.1,256.4 74.4,207.5 		"/>
		<polygon fill="#D75E3C" points="36.5,242.3 41.3,259.6 36.2,266.7 26.4,251.8 		"/>
		<polygon fill="#D75E3C" points="85.3,176.7 27.9,165.7 15.7,177.9 64.5,197.6 		"/>
		<polygon fill="#D75E3C" points="29.8,235.5 12.4,230.7 5.4,235.8 20.2,245.6 		"/>
		<path fill="#F4F1ED" d="M105.4,179.4l-79,72.4l-6.2-6.2l72.4-79c3.8-4,16.1-10.5,19.7-6.9l0,0
			C115.9,163.3,109.4,175.7,105.4,179.4z"/>
		<path fill="#43B0B7" d="M107.4,169.3c-1.2-1.7-2.7-3.2-4.4-4.4c-1.1-0.7-2.4-0.4-2.9,0.5l0,0c-0.5,0.9-0.1,2,0.7,2.6
			c1.4,0.9,2.6,2.1,3.5,3.5c0.5,0.8,1.6,1.2,2.6,0.7l0,0C107.8,171.7,108.2,170.3,107.4,169.3z"/>
	</g>
	<g opacity="0.6">
		<path fill="#CCCCCC" d="M115.2,314.6c-0.6,0-1.1-0.5-1.1-1.1c0-3.5-2.3-6.6-5.6-7.6c-0.4-0.1-0.7-0.5-0.8-0.9
			c-0.9-7.3-7.2-12.8-14.5-12.8c-1,0-2,0.1-2.9,0.3c-0.3,0.1-0.6,0-0.9-0.2c-0.3-0.2-0.4-0.5-0.4-0.8c-0.8-7.5-7-13.2-14.6-13.2
			c-8.1,0-14.7,6.6-14.7,14.7c0,0.8,0.1,1.7,0.2,2.5c0.1,0.3,0,0.6-0.2,0.9c-0.2,0.2-0.5,0.4-0.8,0.4c-3.7,0.4-7.1,2.1-9.6,4.9
			c-0.2,0.2-0.5,0.4-0.8,0.4c0,0,0,0,0,0c-0.3,0-0.6-0.1-0.8-0.4c-2-2.4-5-3.7-8.2-3.7c-5.9,0-10.8,4.8-10.8,10.8
			c0,0.6-0.5,1.1-1.1,1.1c-0.6,0-1.1-0.5-1.1-1.1c0-7.2,5.8-13,13-13c3.4,0,6.6,1.3,9,3.6c2.5-2.5,5.6-4.1,9.1-4.6
			c-0.1-0.6-0.1-1.2-0.1-1.8c0-9.3,7.6-16.9,16.9-16.9c8.3,0,15.3,5.9,16.7,14c0.7-0.1,1.5-0.1,2.2-0.1c8.3,0,15.3,6,16.7,14.1
			c3.9,1.5,6.5,5.2,6.5,9.5C116.3,314.1,115.8,314.6,115.2,314.6z"/>
	</g>
	
		<polygon opacity="0.6" fill="none" stroke="#CCCCCC" stroke-width="2.5" stroke-linecap="round" stroke-linejoin="round" stroke-miterlimit="10" points="
		643.8,201.5 637.8,191.5 646.8,198.7 656.9,192.8 649.6,201.8 655.6,211.8 646.5,204.6 636.5,210.5 	"/>
	
		<polygon opacity="0.6" fill="none" stroke="#CCCCCC" stroke-width="2.5" stroke-linecap="round" stroke-linejoin="round" stroke-miterlimit="10" points="
		543.5,100.5 539.4,89.6 547,98.3 558,94.2 549.3,101.8 553.4,112.7 545.7,104 534.8,108.1 	"/>
	
		<polygon opacity="0.6" fill="none" stroke="#CCCCCC" stroke-width="2.5" stroke-linecap="round" stroke-linejoin="round" stroke-miterlimit="10" points="
		656.3,49.1 662.2,39 660.2,50.4 670.2,56.4 658.8,54.4 652.9,64.4 654.9,53 644.9,47.1 	"/>
	
		<path fill="none" stroke="#B3B3B3" stroke-width="4" stroke-linecap="round" stroke-linejoin="round" stroke-miterlimit="10" stroke-dasharray="2,8" d="
		M17.6,266.7c0,0-46.9,94.9,44.1,138.8"/>
	
		<path fill="none" stroke="#B3B3B3" stroke-width="4" stroke-linecap="round" stroke-linejoin="round" stroke-miterlimit="10" stroke-dasharray="2,8" d="
		M608.9,304.5c0,0,1.5-52.8-20.9-91.2"/>
	
		<path fill="none" stroke="#999999" stroke-width="4" stroke-linecap="round" stroke-linejoin="round" stroke-miterlimit="10" stroke-dasharray="2,8" d="
		M595.4,66.2c0,0-54.8-86.5-107.2-15.3C433.3,125.6,371,77.8,371,77.8"/>
	<g opacity="0.6">
		
			<path fill="none" stroke="#CCCCCC" stroke-width="2.5" stroke-linecap="round" stroke-linejoin="round" stroke-miterlimit="10" d="
			M256.5,9.3L256.5,9.3c0-5-4-9-9-9c-5,0-9,4-9,9l0,0c-0.1,0-0.1,0-0.2,0c-5,0-9,4-9,9c0,5,4,9,9,9h18c5,0,9-4,9-9
			C265.3,13.4,261.4,9.4,256.5,9.3z"/>
	</g>
	<g opacity="0.6">
		
			<path fill="none" stroke="#CCCCCC" stroke-width="2.5" stroke-linecap="round" stroke-linejoin="round" stroke-miterlimit="10" d="
			M414.3,38.2C414.3,38.2,414.3,38.2,414.3,38.2c0-5,4-9,9-9c5,0,9,4,9,9c0,0,0,0,0,0c0.1,0,0.1,0,0.2,0c5,0,9,4,9,9c0,5-4,9-9,9
			h-18c-5,0-9-4-9-9C405.5,42.3,409.4,38.3,414.3,38.2z"/>
	</g>
	<path fill="#666666" d="M390.3,7.1c-3.8-4-8.9-7.9-14.8-6.6c-7.3,1.7-9.7,9-10.9,15.5c-2.2-4.6-5.6-8.4-10.5-9.6
		c-7.8-1.8-15,3.4-18.5,10c-3.7,7-4.5,15.6-3.3,23.6c-5.3-6.8-12-12.6-21.1-12.6c-10.1,0-17.2,7.9-15.9,18c0.1,0.7,0.2,1.4,0.4,2.1
		c0,0,0-0.1-0.1-0.1c-2.1-2.6-5.1-3.6-8.4-4.1c-4-0.6-8.9-1.2-12.6,1c-5.9,3.5-4.6,11.4-1.8,16.5c2,3.7,4.8,6.9,8.1,9.5
		c2,1.6,6.2,5.1,8.9,4.3c2.9-0.8,2.3-4.8,1.5-7c-0.5-1.4-1.2-2.6-2-3.7c0.9,0.1,1.8-0.1,2.7-0.7c2.1-1.2,2.4-2.9,1.9-4.6
		c1.8,0.4,3.7,0.3,5.2-0.9c0.6-0.4,0.4-1.5-0.4-1.6c-1.5-0.1-2.8,0.3-4.3,0c-1-0.2-1.8-0.5-2.6-1c-0.8-0.9-1.7-1.7-2.5-2.2
		c-1-0.7-2.4,0.5-1.6,1.6c0.8,1.1,2,2.1,3.4,2.9c1.1,1.7,1.3,4.1-1.8,4.3c-1.1,0.1-2-0.4-2.9-1.1c-0.1-0.1-0.3-0.3-0.4-0.4
		c-0.1-0.1-0.2-0.2-0.3-0.3c0-0.3,0-0.5-0.2-0.8c-0.5-0.6-0.9-1.1-1.5-1.3c-0.1-0.1-0.1-0.2-0.2-0.3c-0.2-0.3-0.7-0.3-1,0
		c-0.1,0-0.2,0-0.3,0c-1.2-0.1-1.9,1.3-0.9,2.1c2.1,1.8,4.3,3.6,5.9,5.9c0.6,0.9,2.3,3.5,1.9,4.8c-0.8,2.7-3,0.6-4.2-0.2
		c-4.5-2.9-8.6-7.1-10.8-12c-2.4-5.2-2.2-11.7,4.7-12.9c4.6-0.8,11.6-0.4,15.2,2.8c0.5,0.4,1.1-0.1,1.1-0.6
		c2.5,9.8,11.7,17.6,20.1,22.5c9.7,5.6,20.3,8,31.4,7.2c0.8-0.1,0.9-0.9,0.5-1.3c11-11,20.1-28.2,20.2-44.4c2.1,1.5,5.8,1.1,7.8-0.5
		c1.7-1.3,2.4-3.3,2.3-5.3c1.9,1,4,1.5,6.2,0.4c0.7-0.3,0.9-1,0.7-1.7c-0.4-1.4-1-2.7-1.6-4c3.6,2.8,7.9,4.8,11.2,2.3
		C400.4,18.6,393.8,10.8,390.3,7.1z M345.3,74.7c-0.4,0.4-0.4,0.9-0.2,1.3c-8.3-0.3-16.7-2.5-24.2-6.1c-8.3-4-17-10.7-21-19.2
		c-2.2-4.6-2.7-10.2,0.2-14.7c2.7-4.3,7.9-5.7,12.7-5.3c10,0.9,16.4,9.8,21.4,17.5c1,1.5,3.1,0,2.6-1.5c-3-9.6-3.2-22.4,2.8-31
		c2.8-4,7.6-7,12.6-6.4c5.7,0.7,9,6.1,10.8,11.1C369.8,39,357.7,61.3,345.3,74.7z M393.8,16.4c0.8,2.9-1.1,5.4-4.8,4.6
		c-1.2-0.3-2.3-1.2-3.3-1.9c-2.2-1.5-4.1-3.3-5.9-5.3c-1.1-1.2-3,0.2-2,1.5c0.1,0.1,0.2,0.2,0.3,0.3c2,2.8,3.4,5.5,4.1,8.8
		c-2.4,0.4-4.5-1.6-6.2-3.1c-1.1-1-2.8,0.7-1.8,1.8c1.7,2,1.8,5.4-0.9,6.7c-2,1-3.6-0.3-5.4-0.8c-0.1-1-0.2-2-0.3-3
		c-0.3-2.4-0.9-5-1.9-7.5c1.2-5,2.5-10.6,6.9-13.9c4.3-3.2,9.2-1.6,13,1.5C388.4,8.6,392.8,12.8,393.8,16.4z"/>
</g>
</svg>
